<?xml version="1.0" standalone="no"?>
<!DOCTYPE svg PUBLIC "-//W3C//DTD SVG 1.1//EN" "http://www.w3.org/Graphics/SVG/1.1/DTD/svg11.dtd" >
<svg xmlns="http://www.w3.org/2000/svg" xmlns:xlink="http://www.w3.org/1999/xlink" version="1.1">
<metadata>
Created by FontForge 20170731 at Tue Jul 26 11:27:56 2022
 By Aleksey,,,
Copyright (c) 2022 by Art. Lebedev Studio. All rights reserved.
</metadata>
<defs>
<font id="ALSGranate-BookItalic" horiz-adv-x="858" >
  <font-face 
    font-family="ALS Granate Book Italic"
    font-weight="300"
    font-style="italic"
    font-stretch="normal"
    units-per-em="2048"
    panose-1="0 0 0 0 0 0 0 0 0 0"
    ascent="1638"
    descent="-410"
    x-height="1047"
    cap-height="1421"
    bbox="-385 -502 2433 2009"
    underline-thickness="129"
    underline-position="-396"
    slope="-12"
    unicode-range="U+0020-277E"
  />
<missing-glyph horiz-adv-x="1146" 
d="M940 1843v-2294h-727v2294h727zM383 -293h381v76h-234l160 108h74v76h-381v-76h160l-160 -108v-76zM383 20h381v259h-381v-259zM383 416h381v260h-229v-129h77v53h76v-108h-229v184h-76v-260zM383 727h381v229h-76v-151h-305v-78zM383 856h229v162h152v76h-381v-76h152
v-86h-152v-76zM383 1155h381v78h-152v160h-229v-238zM383 1454h381v76h-152v84h152v76h-379v-76h150v-84h-152v-76zM459 96v107h229v-107h-229zM459 1233v82h76v-82h-76z" />
    <glyph glyph-name=".notdef" horiz-adv-x="1146" 
d="M940 1843v-2294h-727v2294h727zM383 -293h381v76h-234l160 108h74v76h-381v-76h160l-160 -108v-76zM383 20h381v259h-381v-259zM383 416h381v260h-229v-129h77v53h76v-108h-229v184h-76v-260zM383 727h381v229h-76v-151h-305v-78zM383 856h229v162h152v76h-381v-76h152
v-86h-152v-76zM383 1155h381v78h-152v160h-229v-238zM383 1454h381v76h-152v84h152v76h-379v-76h150v-84h-152v-76zM459 96v107h229v-107h-229zM459 1233v82h76v-82h-76z" />
    <glyph glyph-name=".null" horiz-adv-x="0" 
 />
    <glyph glyph-name="nonmarkingreturn" horiz-adv-x="682" 
 />
    <glyph glyph-name="space" unicode=" " horiz-adv-x="491" 
 />
    <glyph glyph-name="exclam" unicode="!" horiz-adv-x="536" 
d="M530 1421l-233 -1032h-113l205 1032h141zM76 82q0 42 29 71t71 29q41 0 69.5 -28.5t28.5 -71.5q0 -41 -28.5 -69.5t-69.5 -28.5t-70.5 28.5t-29.5 69.5z" />
    <glyph glyph-name="quotedbl" unicode="&#x22;" horiz-adv-x="745" 
d="M799 1421l-105 -489h-131l105 489h131zM225 932l105 489h131l-105 -489h-131z" />
    <glyph glyph-name="numbersign" unicode="#" horiz-adv-x="1302" 
d="M659 1421h125l-155 -411h354l156 411h125l-156 -411h233l-41 -119h-235l-143 -379h235l-41 -119h-239l-148 -393h-127l148 393h-353l-147 -393h-127l147 393h-233l43 119h235l144 379h-238l43 119h240zM442 512h353l143 379h-352z" />
    <glyph glyph-name="dollar" unicode="$" horiz-adv-x="1230" 
d="M588 2h-15l-47 -225h-116l49 235q-140 22 -245.5 79.5t-141.5 115.5l37 172q56 -87 149 -154t227 -88l115 541l-57 27q-130 60 -205.5 140t-75.5 195q0 90 42.5 164.5t111 120.5t152 71t169.5 25h21l45 213h119l-50 -225q115 -23 199 -75.5t127 -112.5l-35 -164
q-126 185 -317 223l-111 -512l31 -14q311 -143 311 -367q0 -121 -65.5 -209.5t-175 -132t-248.5 -43.5zM406 1053q0 -131 198 -224l27 -12l100 475h-2q-138 0 -230.5 -62t-92.5 -177zM600 129q150 2 240 68.5t90 179.5q0 87 -58 144.5t-155 101.5l-10 4z" />
    <glyph glyph-name="percent" unicode="%" horiz-adv-x="1734" 
d="M201 0l1261 1421h152l-1262 -1421h-151zM199 1055q0 105 53.5 193.5t141 139t186.5 50.5q138 0 233.5 -95.5t95.5 -236.5q0 -160 -114.5 -272.5t-266.5 -112.5q-138 0 -233.5 95.5t-95.5 238.5zM319 1061q0 -96 62.5 -161.5t155.5 -65.5q102 0 176.5 78t74.5 186
q0 97 -62 162t-155 65q-102 0 -177 -78t-75 -186zM905 317q0 105 53.5 193.5t141 139t186.5 50.5q139 0 234.5 -94.5t95.5 -236.5q0 -160 -114 -272.5t-267 -112.5q-138 0 -234 95t-96 238zM1026 324q0 -96 62.5 -162t154.5 -66q102 0 177 78t75 186q0 97 -62 162.5
t-155 65.5q-101 0 -176.5 -78t-75.5 -186z" />
    <glyph glyph-name="ampersand" unicode="&#x26;" horiz-adv-x="1433" 
d="M57 344q0 325 428 465q-104 134 -104 278q0 151 107.5 251t261.5 100q133 0 220 -84t87 -203q0 -137 -101.5 -233.5t-263.5 -155.5l260 -334l275 295h166l-367 -389l258 -334h-164l-184 238q-55 -57 -103.5 -97.5t-110 -79t-131.5 -58t-147 -19.5q-165 0 -276 103.5
t-111 256.5zM197 360q0 -105 75.5 -175t186.5 -70q65 0 124 17.5t110 52t88 68t81 81.5l-299 387q-80 -26 -141 -55.5t-114.5 -72.5t-82 -101.5t-28.5 -131.5zM510 1087q0 -116 104 -235q68 25 117 48.5t97 58t73 80.5t25 102q0 75 -53 126.5t-134 51.5q-96 0 -162.5 -64
t-66.5 -168z" />
    <glyph glyph-name="quotesingle" unicode="'" horiz-adv-x="407" 
d="M461 1421l-105 -489h-131l105 489h131z" />
    <glyph glyph-name="parenleft" unicode="(" horiz-adv-x="673" 
d="M825 1534q-271 -257 -419 -562t-148 -632q0 -192 47.5 -365.5t124.5 -296.5h-131q-77 113 -128.5 286.5t-51.5 375.5q0 327 145 642.5t408 551.5h153z" />
    <glyph glyph-name="parenright" unicode=")" horiz-adv-x="673" 
d="M-115 -322q271 258 419.5 563t148.5 631q0 192 -47.5 365.5t-124.5 296.5h131q77 -113 128.5 -286.5t51.5 -375.5q0 -327 -145 -642.5t-408 -551.5h-154z" />
    <glyph glyph-name="asterisk" unicode="*" horiz-adv-x="962" 
d="M635 1505h115l-80 -307l297 164l39 -100l-314 -150l244 -149l-70 -91l-229 170l-53 -317h-115l76 311l-299 -164l-37 101l311 147l-246 142l68 90l233 -164z" />
    <glyph glyph-name="plus" unicode="+" horiz-adv-x="1062" 
d="M141 674h361l76 358h124l-75 -358h358l-24 -119h-359l-78 -365h-125l78 365h-360z" />
    <glyph glyph-name="comma" unicode="," horiz-adv-x="444" 
d="M233 166l-256 -449h-116l229 449h143z" />
    <glyph glyph-name="hyphen" unicode="-" horiz-adv-x="817" 
d="M727 676l-29 -129h-569l29 129h569z" />
    <glyph glyph-name="period" unicode="." horiz-adv-x="444" 
d="M131 182q41 0 69.5 -28.5t28.5 -71.5q0 -41 -28.5 -69.5t-69.5 -28.5t-70.5 28.5t-29.5 69.5q0 42 29 71t71 29z" />
    <glyph glyph-name="slash" unicode="/" horiz-adv-x="921" 
d="M1092 1532l-1067 -1782h-146l1067 1782h146z" />
    <glyph glyph-name="zero" unicode="0" horiz-adv-x="1327" 
d="M614 -16q-209 0 -332.5 156.5t-123.5 420.5q0 124 26 248t79.5 237.5t127.5 201.5t178.5 140t223.5 52q209 0 332.5 -157t123.5 -423q0 -124 -26 -248t-79.5 -237t-127.5 -200t-178.5 -139t-223.5 -52zM301 559q0 -203 85 -321.5t232 -118.5q79 0 149.5 33t123 89.5
t94.5 130.5t68 157.5t39.5 168t13.5 164.5q0 206 -85 324.5t-235 118.5q-95 0 -176.5 -47.5t-137 -124.5t-95 -175.5t-58 -200t-18.5 -198.5z" />
    <glyph glyph-name="one" unicode="1" horiz-adv-x="841" 
d="M764 1438l-307 -1438h-142l263 1229l-385 -162l26 143z" />
    <glyph glyph-name="two" unicode="2" horiz-adv-x="1161" 
d="M268 1274q177 164 424 164q171 0 278 -101t107 -254q0 -39 -8 -78t-20 -72.5t-34.5 -71.5t-42.5 -67t-53 -66t-57 -62t-64.5 -62.5t-65 -59t-68.5 -60t-66 -58.5l-328 -295h707l-29 -131h-1001l557 506q26 24 82 73.5t87.5 78.5t79 75.5t75 83t56 81t41.5 88t13 87.5
q0 100 -75 166t-191 66q-230 0 -443 -213z" />
    <glyph glyph-name="three" unicode="3" horiz-adv-x="1161" 
d="M463 -16q-150 0 -279 51.5t-170 111.5l39 181q43 -87 159 -148t257 -61q113 0 205 42.5t147.5 125t55.5 190.5q0 130 -98.5 202.5t-250.5 72.5q-62 0 -127 -11l478 551h-621l29 129h858l-483 -555q151 -26 251.5 -128t100.5 -259q0 -219 -157 -357t-394 -138z" />
    <glyph glyph-name="four" unicode="4" horiz-adv-x="1222" 
d="M891 932h139l-98 -459h203l-27 -131h-203l-74 -342h-139l74 342h-754l824 1079h153l-723 -950l527 2z" />
    <glyph glyph-name="five" unicode="5" horiz-adv-x="1099" 
d="M1130 1421l-28 -131h-565l-183 -446q73 26 178 26q186 0 313.5 -110.5t127.5 -282.5q0 -145 -73.5 -258.5t-199.5 -174t-282 -60.5q-143 0 -265.5 51t-156.5 110l35 170q47 -91 152 -143.5t239 -52.5q174 0 289.5 96t115.5 254q0 128 -99.5 203.5t-256.5 75.5
q-95 0 -165.5 -16.5t-147.5 -47.5l303 737h669z" />
    <glyph glyph-name="six" unicode="6" horiz-adv-x="1196" 
d="M657 926q175 0 295.5 -119.5t120.5 -300.5q0 -133 -62.5 -251t-182.5 -194.5t-271 -76.5q-134 0 -237 60.5t-156 159t-53 216.5q0 92 34 179t84.5 155t135.5 159l473 508h170l-478 -516q61 21 127 21zM252 424q0 -131 87.5 -218t229.5 -87q106 0 192.5 56t131.5 142.5
t45 182.5q0 131 -87 217t-226 86q-160 0 -266.5 -110.5t-106.5 -268.5z" />
    <glyph glyph-name="seven" unicode="7" horiz-adv-x="1120" 
d="M1247 1421l-1009 -1421h-168l929 1292h-757l26 129h979z" />
    <glyph glyph-name="eight" unicode="8" horiz-adv-x="1189" 
d="M565 -16q-142 0 -255.5 49t-180 142.5t-66.5 215.5q0 88 33.5 160t91.5 119.5t131.5 76.5t157.5 39q-91 44 -144.5 120.5t-53.5 172.5q0 156 122 257.5t310 101.5q191 0 313.5 -101.5t122.5 -257.5q0 -137 -88.5 -226.5t-241.5 -111.5q114 -46 184 -135t70 -215
q0 -184 -144 -295.5t-362 -111.5zM207 403q0 -130 101.5 -209t256.5 -79q158 0 260.5 79t102.5 209q0 127 -104 208t-253 81q-155 0 -259.5 -80.5t-104.5 -208.5zM422 1065q0 -103 84 -175.5t199 -72.5q126 0 212.5 72t86.5 176q0 109 -81 175.5t-212 66.5
q-128 0 -208.5 -67t-80.5 -175z" />
    <glyph glyph-name="nine" unicode="9" horiz-adv-x="1196" 
d="M618 498q-175 0 -295 119.5t-120 300.5q0 133 62.5 251t182.5 194.5t271 76.5q134 0 237 -60.5t156 -159t53 -216.5q0 -134 -62.5 -245.5t-191.5 -248.5l-473 -508h-170l477 516q-58 -20 -127 -20zM338 924q0 -131 87 -217t226 -86q160 0 266.5 110t106.5 268
q0 132 -87.5 219t-229.5 87q-106 0 -192.5 -56t-131.5 -142.5t-45 -182.5z" />
    <glyph glyph-name="colon" unicode=":" horiz-adv-x="444" 
d="M309 1024q41 0 70 -29t29 -71q0 -41 -29 -70t-70 -29t-70.5 29t-29.5 70q0 42 29 71t71 29zM31 82q0 42 29 71t71 29q41 0 69.5 -28.5t28.5 -71.5q0 -41 -28.5 -69.5t-69.5 -28.5t-70.5 28.5t-29.5 69.5z" />
    <glyph glyph-name="semicolon" unicode=";" horiz-adv-x="442" 
d="M307 1024q41 0 70 -29t29 -71q0 -41 -29 -70t-70 -29t-70.5 29t-29.5 70q0 42 29 71t71 29zM-139 -283l229 449h143l-256 -449h-116z" />
    <glyph glyph-name="less" unicode="&#x3c;" horiz-adv-x="874" 
d="M657 119l-587 477l792 483l-33 -151l-561 -344l418 -336z" />
    <glyph glyph-name="equal" unicode="=" horiz-adv-x="1026" 
d="M989 860l-26 -121h-807l26 121h807zM76 365l24 120h807l-24 -120h-807z" />
    <glyph glyph-name="greater" unicode="&#x3e;" horiz-adv-x="874" 
d="M248 1079l588 -477l-793 -483l33 151l561 344l-418 336z" />
    <glyph glyph-name="question" unicode="?" horiz-adv-x="923" 
d="M348 692q91 20 169.5 54.5t144.5 83.5t104.5 118.5t38.5 149.5q0 98 -70 154.5t-164 56.5q-200 0 -383 -205l37 178q62 65 157 110.5t208 45.5q157 0 256.5 -89t99.5 -237q0 -96 -37 -179.5t-103.5 -145t-152.5 -106t-190 -71.5l-47 -221h-131zM186 82q0 42 29.5 71
t71.5 29q41 0 69.5 -28.5t28.5 -71.5q0 -41 -28.5 -69.5t-69.5 -28.5q-42 0 -71.5 28.5t-29.5 69.5z" />
    <glyph glyph-name="at" unicode="@" horiz-adv-x="1816" 
d="M1270 989h125l-109 -506q-14 -68 18 -107.5t89 -39.5q68 0 120.5 60t78.5 151.5t26 195.5q0 123 -46.5 226t-127 172.5t-191 108t-237.5 38.5q-149 0 -287 -58.5t-241.5 -158t-165.5 -240t-62 -296.5q0 -132 49 -245.5t132.5 -190.5t197 -121t240.5 -44q115 0 212.5 42
t155.5 96l-28 -150q-56 -45 -149 -74.5t-216 -29.5q-141 0 -272.5 55t-229.5 149.5t-156.5 229t-58.5 285.5q0 168 69 326.5t186 277.5t283 191.5t349 72.5q151 0 283.5 -50.5t227.5 -138t149.5 -212t54.5 -267.5q0 -93 -22.5 -183t-65.5 -166.5t-113.5 -123.5t-157.5 -47
q-86 0 -147 45t-74 121q-42 -67 -117 -113.5t-174 -46.5q-58 0 -114.5 22.5t-103 64.5t-75 109t-28.5 148q0 96 35 180.5t92 141t129 89t147 32.5q116 0 186.5 -59.5t94.5 -141.5zM680 578q0 -112 64.5 -177t154.5 -65q103 0 181 68.5t104 187.5v-2v4v-2q25 121 -37 212
t-178 91q-126 0 -207.5 -95t-81.5 -222z" />
    <glyph glyph-name="A" unicode="A" horiz-adv-x="1445" 
d="M-57 0l977 1440l360 -1440h-143l-101 410h-659l-277 -410h-157zM465 541h539l-144 583z" />
    <glyph glyph-name="B" unicode="B" horiz-adv-x="1255" 
d="M84 0l303 1421h430q175 0 276 -90t101 -231q0 -131 -78 -231.5t-205 -129.5q88 -28 151.5 -105.5t63.5 -191.5q0 -143 -71.5 -244t-193 -149.5t-281.5 -48.5h-496zM250 131h334q181 0 292 79t111 234q0 107 -78 168.5t-209 61.5h-333zM393 805h297q166 0 263.5 67.5
t97.5 208.5q0 95 -67.5 152t-190.5 57h-295z" />
    <glyph glyph-name="C" unicode="C" horiz-adv-x="1439" 
d="M1419 1059q-24 42 -60 80.5t-89.5 77.5t-130.5 62.5t-166 23.5q-134 0 -257.5 -52t-214.5 -141t-145.5 -214.5t-54.5 -264.5q0 -144 63.5 -260.5t181.5 -184t267 -67.5q130 0 244 51.5t200 130.5l-36 -180q-167 -137 -422 -137q-185 0 -332 84t-228 229.5t-81 325.5
q0 171 66.5 323.5t178.5 259.5t264 169.5t318 62.5q95 0 178.5 -20t140.5 -52.5t95 -64.5t59 -64z" />
    <glyph glyph-name="D" unicode="D" horiz-adv-x="1456" 
d="M764 1421q271 0 443.5 -166t172.5 -438q0 -248 -109.5 -433t-311.5 -284.5t-470 -99.5h-405l303 1421h377zM250 131h250q335 0 537 186t202 496q0 152 -67 261.5t-177 162.5t-250 53h-247z" />
    <glyph glyph-name="E" unicode="E" horiz-adv-x="1163" 
d="M84 0l303 1421h834l-29 -131h-694l-107 -502h658l-29 -129h-658l-112 -528h696l-28 -131h-834z" />
    <glyph glyph-name="F" unicode="F" horiz-adv-x="1136" 
d="M221 0h-137l303 1421h827l-28 -131h-688l-115 -532h653l-28 -131h-654z" />
    <glyph glyph-name="G" unicode="G" horiz-adv-x="1542" 
d="M778 -16q-117 0 -228 44t-199 123t-141.5 200t-53.5 263q0 168 65 320t175.5 263t266 176t328.5 65q103 0 194.5 -21.5t155.5 -56.5t107 -71t65 -72l-36 -179q-26 45 -68 88t-103 84.5t-145.5 67t-177.5 25.5q-192 0 -349.5 -92.5t-246 -249.5t-88.5 -345
q0 -113 40 -208.5t107 -158t154 -97.5t182 -35q197 0 326.5 101.5t169.5 287.5l25 110h-498l26 132h635l-53 -259q-48 -233 -216.5 -369t-418.5 -136z" />
    <glyph glyph-name="H" unicode="H" horiz-adv-x="1511" 
d="M1370 1421h137l-303 -1421h-137l143 674h-845l-144 -674h-137l303 1421h137l-131 -616h846z" />
    <glyph glyph-name="I" unicode="I" horiz-adv-x="530" 
d="M524 1421l-303 -1421h-137l303 1421h137z" />
    <glyph glyph-name="J" unicode="J" horiz-adv-x="749" 
d="M614 1421h138l-234 -1095q-34 -164 -127 -245t-250 -81h-184l29 131h155q97 0 158 51t88 172z" />
    <glyph glyph-name="K" unicode="K" horiz-adv-x="1280" 
d="M1194 1421h195l-818 -688l559 -733h-174l-575 745zM84 0l303 1421h137l-303 -1421h-137z" />
    <glyph glyph-name="L" unicode="L" horiz-adv-x="1095" 
d="M524 1421l-274 -1290h694l-29 -131h-831l303 1421h137z" />
    <glyph glyph-name="M" unicode="M" horiz-adv-x="1751" 
d="M84 0l307 1438l522 -776l836 776l-305 -1438h-137l227 1067l-645 -604l-432 649l-236 -1112h-137z" />
    <glyph glyph-name="N" unicode="N" horiz-adv-x="1523" 
d="M391 1438l756 -1129l235 1112h138l-308 -1439l-755 1130l-236 -1112h-137z" />
    <glyph glyph-name="O" unicode="O" horiz-adv-x="1650" 
d="M791 119q134 0 254 56t204 149t133.5 217.5t49.5 257.5q0 222 -140 363t-354 141q-135 0 -255.5 -56.5t-204 -150t-132.5 -218t-49 -257.5q0 -221 139.5 -361.5t354.5 -140.5zM156 618q0 161 60 310.5t163.5 262t253 180t317.5 67.5q176 0 318.5 -82.5t223.5 -228.5
t81 -326q0 -160 -60 -309t-163.5 -261t-252.5 -179.5t-317 -67.5q-177 0 -319.5 82t-223.5 227t-81 325z" />
    <glyph glyph-name="P" unicode="P" horiz-adv-x="1193" 
d="M676 711q168 0 275.5 89t107.5 242q0 111 -74.5 179.5t-204.5 68.5h-282l-125 -579h303zM84 0l303 1421h406q186 0 296.5 -102t110.5 -266q0 -216 -143.5 -344.5t-364.5 -128.5h-348l-123 -580h-137z" />
    <glyph glyph-name="Q" unicode="Q" horiz-adv-x="1650" 
d="M791 119q50 0 108 10l-123 291h148l106 -252q180 77 291 250.5t111 380.5q0 222 -140 363t-354 141q-135 0 -255.5 -56.5t-204 -150t-132.5 -218t-49 -257.5q0 -221 139.5 -361.5t354.5 -140.5zM156 618q0 161 60 310.5t163.5 262t253 180t317.5 67.5q176 0 318.5 -82.5
t223.5 -228.5t81 -326q0 -246 -134.5 -454t-355.5 -302l107 -252h-150l-88 209q-82 -18 -172 -18q-177 0 -319.5 82t-223.5 227t-81 325z" />
    <glyph glyph-name="R" unicode="R" horiz-adv-x="1292" 
d="M84 0l303 1421h406q186 0 296.5 -102t110.5 -266q0 -189 -111.5 -312t-291.5 -153l331 -588h-161l-332 580h-291l-123 -580h-137zM373 711h303q168 0 275.5 89t107.5 242q0 111 -74.5 179.5t-204.5 68.5h-282z" />
    <glyph glyph-name="S" unicode="S" horiz-adv-x="1214" 
d="M1145 1067q-75 113 -175 176.5t-245 63.5q-137 0 -231.5 -66t-94.5 -182q0 -130 197 -228l156 -75q60 -29 107 -59.5t95.5 -76t75.5 -106.5t27 -133q0 -184 -134 -290.5t-343 -106.5q-181 0 -323 67.5t-187 141.5l36 176q30 -48 69.5 -89.5t96 -80.5t135 -61.5
t168.5 -22.5q153 0 246.5 70t93.5 186q0 46 -17 85.5t-49 70t-65.5 53t-78.5 43.5l-170 82q-277 131 -277 342q0 91 42 167.5t110 124t150 73.5t167 26q160 0 280 -61.5t173 -141.5z" />
    <glyph glyph-name="T" unicode="T" horiz-adv-x="1280" 
d="M233 1290l27 131h1141l-27 -131h-502l-276 -1290h-137l274 1290h-500z" />
    <glyph glyph-name="U" unicode="U" horiz-adv-x="1492" 
d="M330 547q-21 -103 -1 -183.5t72 -136t125.5 -84t159.5 -28.5q180 0 312 112.5t173 307.5l189 886h137l-192 -911q-52 -241 -215 -383.5t-404 -142.5q-119 0 -221 41t-172 113.5t-98 182t0 236.5l184 864h137z" />
    <glyph glyph-name="V" unicode="V" horiz-adv-x="1404" 
d="M387 1421l264 -1110l733 1110h158l-954 -1437l-342 1437h141z" />
    <glyph glyph-name="W" unicode="W" horiz-adv-x="1886" 
d="M391 1421l135 -1050l604 1067l152 -1063l580 1046h149l-799 -1437l-153 1089l-617 -1089l-186 1437h135z" />
    <glyph glyph-name="X" unicode="X" horiz-adv-x="1388" 
d="M416 1421l338 -598l575 598h184l-688 -706l396 -715h-160l-342 621l-594 -621h-180l702 733l-387 688h156z" />
    <glyph glyph-name="Y" unicode="Y" horiz-adv-x="1343" 
d="M225 1421h150l330 -696l624 696h170l-745 -841l-125 -580h-137l124 578z" />
    <glyph glyph-name="Z" unicode="Z" horiz-adv-x="1349" 
d="M328 1421h1089l-1122 -1290h848l-29 -131h-1102l1118 1290h-829z" />
    <glyph glyph-name="bracketleft" unicode="[" horiz-adv-x="741" 
d="M864 1534l-26 -129h-318l-340 -1598h318l-29 -129h-453l396 1856h452z" />
    <glyph glyph-name="backslash" unicode="\" horiz-adv-x="921" 
d="M258 1532h129l326 -1782h-129z" />
    <glyph glyph-name="bracketright" unicode="]" horiz-adv-x="741" 
d="M-86 -322l27 129h317l340 1598h-317l28 129h453l-395 -1856h-453z" />
    <glyph glyph-name="asciicircum" unicode="^" horiz-adv-x="1062" 
d="M725 1438l289 -678h-133l-193 463l-389 -463h-152z" />
    <glyph glyph-name="underscore" unicode="_" horiz-adv-x="962" 
d="M821 -141l-28 -127h-961l27 127h962z" />
    <glyph glyph-name="grave" unicode="`" horiz-adv-x="1228" 
d="M573 1522h144l227 -308h-143z" />
    <glyph glyph-name="a" unicode="a" horiz-adv-x="1110" 
d="M262 938q59 52 155.5 88.5t207.5 36.5q194 0 294 -113t62 -291l-141 -659h-133l41 190q-49 -85 -149.5 -145.5t-231.5 -60.5q-137 0 -229.5 77.5t-92.5 198.5q0 78 32.5 139.5t92 102.5t132 66.5t161.5 39.5l385 62q27 123 -43.5 193.5t-192.5 70.5q-109 0 -211 -43.5
t-174 -114.5zM184 276q0 -75 60 -121t149 -46q85 0 168.5 34.5t146.5 100t80 147.5v-6l35 164l-354 -55q-285 -45 -285 -218z" />
    <glyph glyph-name="b" unicode="b" horiz-adv-x="1312" 
d="M520 1534l-145 -684q64 98 169 156.5t234 58.5q87 0 165.5 -32t137 -90t93 -145.5t34.5 -191.5q0 -122 -43.5 -236t-117.5 -199t-179 -136t-221 -51q-160 0 -263 91t-128 220l-63 -295h-138l328 1534h137zM313 565q-21 -100 -1.5 -182.5t66.5 -142t116 -92.5t147 -33
q117 0 216 67.5t154.5 176.5t55.5 231q0 82 -28.5 149.5t-75 110t-104 65.5t-118.5 23q-69 0 -134.5 -22.5t-124.5 -66.5t-103.5 -117.5t-65.5 -166.5z" />
    <glyph glyph-name="c" unicode="c" horiz-adv-x="1103" 
d="M1047 729q-14 25 -32.5 48.5t-50 53t-68 51t-88 36t-108.5 14.5q-191 0 -321.5 -133t-130.5 -332q0 -154 97.5 -253t252.5 -99q201 0 352 164l-37 -183q-120 -112 -333 -112q-201 0 -337.5 136.5t-136.5 340.5q0 165 77.5 302.5t216.5 218.5t309 81q140 0 237 -54.5
t135 -119.5z" />
    <glyph glyph-name="d" unicode="d" horiz-adv-x="1310" 
d="M1358 1534l-328 -1534h-137l41 193q-64 -95 -168.5 -152t-230.5 -57q-181 0 -306 125.5t-125 332.5q0 122 43.5 236t118 199.5t179.5 136.5t221 51q158 0 260 -88t129 -215l166 772h137zM246 459q0 -82 28 -149.5t74.5 -110t104 -65.5t118.5 -23q85 0 164 32.5t147 106
t103 178.5l23 109q8 87 -15.5 162t-70.5 126t-112 80t-138 29q-117 0 -216 -67.5t-154.5 -176.5t-55.5 -231z" />
    <glyph glyph-name="e" unicode="e" horiz-adv-x="1185" 
d="M580 -16q-127 0 -234 56t-173.5 165t-66.5 250q0 163 69.5 300.5t202.5 222.5t304 85q139 0 242 -69.5t146 -183.5t17 -243l-14 -78h-827q-17 -162 86 -270t260 -108q217 0 401 184l-41 -182q-64 -57 -150 -93t-222 -36zM268 608h688q23 144 -62 236t-232 92
q-149 0 -257 -95.5t-137 -232.5z" />
    <glyph glyph-name="f" unicode="f" horiz-adv-x="731" 
d="M770 915h-307l-195 -915h-135l197 915h-203l29 132h200l45 208q28 129 114 204t212 75h176l-29 -129h-147q-71 0 -124 -42t-71 -124l-40 -192h307z" />
    <glyph glyph-name="g" unicode="g" horiz-adv-x="1112" 
d="M240 -442q-134 0 -225 71.5t-91 186.5q0 110 68 181t170 93q-43 46 -43 111q0 66 46 116t111 66q-122 95 -122 258q0 109 55 205t157.5 156.5t229.5 60.5q58 0 117 -16h450l-26 -123h-250q59 -80 59 -191q0 -81 -33.5 -158t-91 -135.5t-141 -93.5t-176.5 -35
q-78 0 -150 29q-38 -5 -64 -33.5t-26 -68.5q0 -37 23.5 -60.5t64.5 -23.5h248q135 0 218 -70.5t83 -187.5q0 -110 -56.5 -187.5t-149.5 -114t-214 -36.5h-241zM70 -164q0 -70 55.5 -112.5t136.5 -42.5h242q106 0 179 54t73 152q0 67 -47.5 103.5t-124.5 36.5h-293
q-91 0 -156 -52t-65 -139zM289 649q0 -94 63.5 -153.5t161.5 -59.5q126 0 210.5 87.5t84.5 203.5q0 93 -63 152t-160 59q-125 0 -211 -86.5t-86 -202.5z" />
    <glyph glyph-name="h" unicode="h" horiz-adv-x="1216" 
d="M520 1534l-143 -676q51 89 144.5 147t213.5 58q80 0 150 -29t123 -86.5t71.5 -144.5t-4.5 -203l-127 -600h-137l125 582q18 94 6 161t-52.5 109t-91.5 61t-112 19q-127 0 -230.5 -91.5t-133.5 -240.5l2 8l-131 -608h-138l328 1534h137z" />
    <glyph glyph-name="i" unicode="i" horiz-adv-x="471" 
d="M416 1047l-223 -1047h-138l226 1047h135zM322 1368q0 38 27 65t67 27t68 -27t28 -65q0 -40 -28 -67t-68 -27t-67 27t-27 67z" />
    <glyph glyph-name="j" unicode="j" horiz-adv-x="477" 
d="M287 1047h135l-256 -1199q-60 -290 -324 -290h-159l28 129h129q157 0 195 180zM328 1368q0 38 27 65t67 27t68 -27t28 -65q0 -40 -28 -67t-68 -27t-67 27t-27 67z" />
    <glyph glyph-name="k" unicode="k" horiz-adv-x="1030" 
d="M520 1534l-209 -977l598 490h181l-601 -502l408 -545h-164l-422 557l-118 -557h-138l328 1534h137z" />
    <glyph glyph-name="l" unicode="l" horiz-adv-x="471" 
d="M520 1534l-327 -1534h-138l328 1534h137z" />
    <glyph glyph-name="m" unicode="m" horiz-adv-x="1826" 
d="M416 1047l-39 -187q42 87 131 145t205 58q104 0 189 -62.5t112 -169.5q47 101 148 166.5t220 65.5q73 0 137.5 -25t113 -75t66.5 -126t-1 -178l-142 -659h-135l135 635q15 78 4.5 134.5t-45 92.5t-80 53t-100.5 17q-109 0 -199 -80t-124 -207l-138 -645h-135l135 631
q30 145 -38 223t-183 78q-107 0 -196 -75t-123 -191l-141 -666h-138l226 1047h135z" />
    <glyph glyph-name="n" unicode="n" horiz-adv-x="1216" 
d="M416 1047l-41 -189q53 90 147 147.5t213 57.5q80 0 150 -29t123 -86.5t71.5 -144.5t-4.5 -203l-127 -600h-137l125 582q18 94 6 161t-52.5 109t-91.5 61t-112 19q-127 0 -230.5 -91.5t-133.5 -240.5l2 10l-131 -610h-138l226 1047h135z" />
    <glyph glyph-name="o" unicode="o" horiz-adv-x="1267" 
d="M573 -16q-197 0 -332 136t-135 341q0 117 45 227t122.5 192.5t188 132.5t234.5 50q196 0 331.5 -135t135.5 -338q0 -156 -75 -294.5t-212 -225t-303 -86.5zM246 467q0 -154 97 -253t241 -99q117 0 218.5 62t161.5 170t60 235q0 152 -98 251t-242 99q-179 0 -308.5 -136
t-129.5 -329z" />
    <glyph glyph-name="p" unicode="p" horiz-adv-x="1312" 
d="M416 1047l-43 -199q64 98 170 157.5t235 59.5q87 0 165.5 -32t137 -90t93 -145.5t34.5 -191.5q0 -122 -43.5 -236t-117.5 -199t-179 -136t-221 -51q-160 0 -263 91t-128 220l-158 -737h-135l318 1489h135zM313 565q-21 -100 -1.5 -182.5t66.5 -142t116 -92.5t147 -33
q117 0 216 67.5t154.5 176.5t55.5 231q0 82 -28.5 149.5t-75 110t-104 65.5t-118.5 23q-69 0 -134.5 -22.5t-124.5 -66.5t-103.5 -117.5t-65.5 -166.5z" />
    <glyph glyph-name="q" unicode="q" horiz-adv-x="1310" 
d="M1253 1047l-317 -1489h-135l137 639q-66 -97 -171 -155t-232 -58q-181 0 -306 125.5t-125 332.5q0 122 43.5 236t118 199.5t179.5 136.5t221 51q159 0 261.5 -89t129.5 -218l61 289h135zM246 459q0 -82 28 -149.5t74.5 -110t104 -65.5t118.5 -23q138 0 255.5 86.5
t164.5 253.5l15 65q25 180 -76.5 299t-257.5 119q-117 0 -216 -67.5t-154.5 -176.5t-55.5 -231z" />
    <glyph glyph-name="r" unicode="r" horiz-adv-x="790" 
d="M408 1047l-50 -230q57 106 154.5 169t214.5 63h121l-29 -136h-104q-141 0 -248.5 -85.5t-149.5 -245.5l-124 -582h-138l226 1047h127z" />
    <glyph glyph-name="s" unicode="s" horiz-adv-x="1001" 
d="M887 748q-54 88 -142 140t-204 52q-93 0 -161.5 -42.5t-68.5 -119.5q0 -28 11.5 -50.5t37.5 -41t44 -28.5t56 -27q9 -4 13 -6l141 -62q34 -16 48.5 -23.5t48.5 -27t51.5 -37.5t39 -45t31 -61t9.5 -74q0 -140 -109.5 -225.5t-281.5 -85.5q-137 0 -258.5 50.5t-157.5 110.5
l33 158q48 -80 150.5 -138.5t232.5 -58.5q110 0 180.5 47t70.5 128q0 58 -39 95t-106 64l-143 62q-89 38 -123 61q-119 78 -119 205q0 89 55 158t141 103t185 34q127 0 228.5 -48t140.5 -108z" />
    <glyph glyph-name="t" unicode="t" horiz-adv-x="731" 
d="M768 1047l-29 -132h-305l-133 -620q-18 -82 16 -124t105 -42h149l-28 -129h-158q-121 0 -185 77.5t-38 205.5l135 632h-180l28 132h179l51 235l147 49l-61 -284h307z" />
    <glyph glyph-name="u" unicode="u" horiz-adv-x="1216" 
d="M801 0l41 188q-53 -89 -147 -146.5t-214 -57.5q-80 0 -150 28.5t-123 86.5t-71.5 144.5t4.5 202.5l127 601h138l-125 -582q-18 -95 -6 -161t52 -108t91.5 -61.5t111.5 -19.5q128 0 231.5 91t133.5 240l-2 -10l131 611h137l-225 -1047h-135z" />
    <glyph glyph-name="v" unicode="v" horiz-adv-x="1101" 
d="M287 1047l207 -766l528 766h154l-740 -1063l-284 1063h135z" />
    <glyph glyph-name="w" unicode="w" horiz-adv-x="1581" 
d="M305 1047l115 -738l479 754l154 -739l432 723h147l-628 -1063l-162 776l-496 -776l-174 1063h133z" />
    <glyph glyph-name="x" unicode="x" horiz-adv-x="1099" 
d="M326 1047l243 -412l408 412h176l-512 -519l301 -528h-154l-251 436l-428 -436h-175l529 541l-293 506h156z" />
    <glyph glyph-name="y" unicode="y" horiz-adv-x="1099" 
d="M387 -203q-77 -122 -166 -180.5t-215 -58.5h-133l29 129h100q85 0 144.5 38t115.5 125l115 177l-225 1020h143l184 -861l533 861h162z" />
    <glyph glyph-name="z" unicode="z" horiz-adv-x="1026" 
d="M1065 1047l-823 -918h606l-29 -129h-862l817 915h-592l29 132h854z" />
    <glyph glyph-name="braceleft" unicode="{" horiz-adv-x="798" 
d="M823 1407q-209 0 -256 -217l-73 -354q-24 -113 -82 -170.5t-138 -59.5q39 -11 64.5 -28.5t43 -52t16.5 -85.5t-15 -129l-61 -276q-51 -230 174 -230h57l-27 -127h-49q-57 0 -104.5 11.5t-91 37.5t-67.5 69t-34 107t10 150l64 295q24 113 -10 156t-125 43h-39l26 121h39
q92 0 144 45t78 168l69 323q68 330 381 330h105l-29 -127h-70z" />
    <glyph glyph-name="bar" unicode="|" horiz-adv-x="487" 
d="M522 1532l-377 -1782h-133l379 1782h131z" />
    <glyph glyph-name="braceright" unicode="}" horiz-adv-x="798" 
d="M10 -195q209 0 256 218l74 354q24 113 81.5 170t137.5 59q-39 11 -64 28.5t-43 52t-16.5 85.5t15.5 129l61 277q50 229 -174 229h-57l26 127h49q57 0 104.5 -11.5t91 -37.5t67.5 -69t34 -107t-10 -150l-63 -295q-24 -113 9.5 -155.5t125.5 -42.5h39l-27 -121h-39
q-92 0 -143.5 -45t-77.5 -168l-70 -324q-68 -330 -381 -330h-104l29 127h69z" />
    <glyph glyph-name="asciitilde" unicode="~" horiz-adv-x="1062" 
d="M131 627q103 108 231 108q45 0 102.5 -19t103.5 -42.5t100 -42.5t94 -19q108 0 235 123l-26 -135q-99 -108 -232 -108q-57 0 -131.5 30t-146.5 60t-121 30q-116 0 -236 -120z" />
    <glyph glyph-name="uni00A0" unicode="&#xa0;" horiz-adv-x="491" 
 />
    <glyph glyph-name="exclamdown" unicode="&#xa1;" horiz-adv-x="538" 
d="M4 -393l234 1032h112l-205 -1032h-141zM260 946q0 41 28.5 69.5t69.5 28.5q42 0 71.5 -28.5t29.5 -69.5q0 -42 -29.5 -71t-71.5 -29q-41 0 -69.5 28.5t-28.5 71.5z" />
    <glyph glyph-name="cent" unicode="&#xa2;" horiz-adv-x="1146" 
d="M479 -59l51 237q-166 39 -274.5 170t-108.5 307q0 121 46 230t125.5 188.5t193.5 126.5t244 47h2l47 217h117l-50 -229q101 -22 181 -72.5t108 -97.5l-35 -162q-33 56 -108 115.5t-174 83.5l-170 -803q113 3 205 47.5t151 106.5l-37 -181q-49 -48 -140 -77t-208 -29
l-47 -225h-119zM287 662q0 -129 75 -223.5t197 -127.5l170 803q-189 -6 -315.5 -134.5t-126.5 -317.5z" />
    <glyph glyph-name="sterling" unicode="&#xa3;" horiz-adv-x="1148" 
d="M18 131q143 34 227.5 142.5t84.5 261.5q0 23 -4 81h-205l24 117h170q-14 177 -14 250q0 200 128 327.5t349 127.5q136 0 245 -61.5t155 -137.5l-35 -170q-23 40 -54 77t-77.5 74.5t-111.5 60t-138 22.5q-149 0 -234.5 -92t-85.5 -226q0 -52 15 -252h526l-27 -117h-491
q2 -23 2 -65q0 -289 -242 -420h740l-29 -131h-946z" />
    <glyph glyph-name="currency" unicode="&#xa4;" horiz-adv-x="1259" 
d="M614 287q-149 0 -258 98l-231 -192l-76 90l234 194q-52 87 -52 193q0 89 38 178t106 158l-142 178l91 69l139 -176q118 78 262 78q149 0 260 -100l236 194l73 -90l-237 -192q51 -88 51 -195q0 -90 -37 -177t-104 -157l141 -180l-90 -72l-139 179q-126 -78 -265 -78z
M367 678q0 -109 73 -184.5t185 -75.5q143 0 246.5 105.5t103.5 240.5q0 109 -73 184.5t-185 75.5q-145 0 -247.5 -105t-102.5 -241z" />
    <glyph glyph-name="yen" unicode="&#xa5;" horiz-adv-x="1261" 
d="M1417 1421l-606 -723h258l-25 -116h-331l-35 -166h330l-23 -117h-334l-63 -299h-137l63 299h-328l23 117h332l34 166h-329l24 116h256l-301 723h148l289 -692l583 692h172z" />
    <glyph glyph-name="brokenbar" unicode="&#xa6;" horiz-adv-x="487" 
d="M168 477h131l-154 -727h-133zM240 811l151 721h131l-151 -721h-131z" />
    <glyph glyph-name="section" unicode="&#xa7;" horiz-adv-x="1146" 
d="M1065 1118q-43 81 -131 138t-205 57q-102 0 -178 -51t-76 -136q0 -48 31.5 -87.5t82 -68.5t111.5 -56.5t122 -58.5t111.5 -67.5t82 -91t31.5 -121.5q0 -124 -80 -202.5t-211 -106.5q102 -82 102 -203q0 -110 -59 -189.5t-155.5 -118t-217.5 -38.5q-124 0 -243.5 51
t-151.5 111l35 158q41 -80 147.5 -137.5t228.5 -57.5q113 0 195 54.5t82 150.5q0 49 -32.5 88.5t-85 67.5t-115.5 54.5t-126 56.5t-115.5 66t-85 91.5t-32.5 124.5q0 128 88 209t221 106q-96 83 -96 201q0 101 58 177t147.5 112.5t193.5 36.5q124 0 225.5 -50t135.5 -110z
M268 625q0 -39 17.5 -72.5t44 -56.5t69.5 -47.5t80 -40.5t90 -39t88 -41q104 11 176 69.5t72 155.5q0 39 -17.5 72.5t-43.5 56.5t-67.5 47t-78.5 40.5t-87.5 40t-84.5 42.5q-110 -16 -184 -74.5t-74 -152.5z" />
    <glyph glyph-name="dieresis" unicode="&#xa8;" horiz-adv-x="1228" 
d="M608 1462q40 0 68.5 -27.5t28.5 -66.5q0 -38 -28.5 -65t-68.5 -27t-67 27t-27 65q0 40 27 67t67 27zM885 1368q0 40 27 67t67 27t67 -27t27 -67q0 -38 -27 -65t-67 -27t-67 27t-27 65z" />
    <glyph glyph-name="copyright" unicode="&#xa9;" horiz-adv-x="1812" 
d="M870 -168q-153 0 -288 55t-231 150.5t-152 230t-56 287.5q0 173 68 329t181.5 266.5t267 175.5t319.5 65q153 0 288 -55t232 -150t153 -229t56 -287q0 -173 -68 -329t-181.5 -267t-267.5 -176.5t-321 -65.5zM262 561q0 -174 81.5 -314.5t223 -219t312.5 -78.5
q140 0 270 55.5t226.5 149.5t154 227t57.5 281q0 174 -80.5 315t-221 220t-312.5 79q-141 0 -271.5 -55.5t-227 -150t-154.5 -228t-58 -281.5zM569 578q0 173 123.5 293t296.5 120q102 0 169 -35.5t95 -83.5l-28 -131q-28 51 -86.5 90t-149.5 39q-71 0 -136 -31.5
t-110 -99.5t-45 -157q0 -106 70 -167t170 -61q129 0 223 86l-28 -137q-74 -70 -205 -70q-158 0 -258.5 100t-100.5 245z" />
    <glyph glyph-name="ordfeminine" unicode="&#xaa;" horiz-adv-x="792" 
d="M299 1386q113 80 256 80q151 0 220 -74.5t42 -203.5l-90 -430h-117l27 129q-30 -59 -97 -100.5t-153 -41.5q-92 0 -157.5 54.5t-65.5 138.5q0 56 25 99t67.5 69t86.5 40.5t95 22.5l267 41q7 71 -35 107.5t-127 36.5q-69 0 -142 -25.5t-129 -66.5zM283 950q0 -45 38 -73.5
t97 -28.5q86 0 156 45t90 115l22 112l-223 -37q-74 -11 -127 -43.5t-53 -89.5z" />
    <glyph glyph-name="guillemotleft" unicode="&#xab;" horiz-adv-x="1099" 
d="M707 1004l-467 -443l280 -430h-153l-289 440l452 433h177zM506 571l452 433h177l-467 -443l280 -430h-153z" />
    <glyph glyph-name="logicalnot" unicode="&#xac;" horiz-adv-x="1062" 
d="M141 674h844l-102 -484h-125l78 365h-719z" />
    <glyph glyph-name="registered" unicode="&#xae;" horiz-adv-x="1355" 
d="M743 457q-220 0 -369 148t-149 366q0 161 82.5 297.5t219 214.5t292.5 78q219 0 368.5 -146.5t149.5 -363.5q0 -161 -82 -298.5t-218.5 -216.5t-293.5 -79zM326 975q0 -180 122 -300t302 -120q129 0 241 64.5t179 177t67 245.5q0 181 -121.5 301.5t-302.5 120.5
q-130 0 -241.5 -64.5t-178.5 -177.5t-67 -247zM553 748l115 532h172q75 0 121.5 -42.5t46.5 -111.5t-37.5 -115.5t-96.5 -66.5l87 -196h-99l-82 180h-96l-39 -180h-92zM702 1012h91q52 0 86 28t34 78q0 34 -22.5 55t-61.5 21h-88z" />
    <glyph glyph-name="macron" unicode="&#xaf;" horiz-adv-x="1228" 
d="M555 1425h502l-25 -114h-502z" />
    <glyph glyph-name="degree" unicode="&#xb0;" horiz-adv-x="968" 
d="M621 1325q-102 0 -178 -78t-76 -186q0 -96 63 -161.5t156 -65.5q102 0 177 78t75 186q0 97 -62.5 162t-154.5 65zM248 1055q0 159 114 271t267 112q138 0 233.5 -95.5t95.5 -236.5q0 -160 -114 -272.5t-266 -112.5q-139 0 -234.5 95t-95.5 239z" />
    <glyph glyph-name="plusminus" unicode="&#xb1;" horiz-adv-x="1026" 
d="M143 680l27 119h342l61 291h125l-61 -291h340l-27 -119h-340l-61 -293h-125l61 293h-342zM29 133l24 119h807l-24 -119h-807z" />
    <glyph glyph-name="uni00B2" unicode="&#xb2;" horiz-adv-x="856" 
d="M334 1630q48 44 123 76.5t168 32.5q122 0 197 -68.5t75 -173.5q0 -54 -19.5 -104.5t-67 -105t-79 -85t-101.5 -92.5q-19 -17 -28 -25l-180 -159h424l-27 -123h-698l391 354q12 11 41 36.5t42 37t37.5 34t36 35.5t29.5 33.5t26.5 35.5t18 33.5t13.5 36.5t4 36
q0 61 -47.5 99t-118.5 38q-149 0 -295 -142z" />
    <glyph glyph-name="uni00B3" unicode="&#xb3;" 
d="M479 791q-99 0 -186 32.5t-121 71.5l33 156q31 -57 108.5 -94t169.5 -37q109 0 180.5 53t71.5 141q0 78 -63.5 120t-157.5 42q-46 0 -90 -8l297 336h-397l26 122h613l-318 -358q100 -21 161.5 -85.5t61.5 -162.5q0 -146 -110.5 -237.5t-278.5 -91.5z" />
    <glyph glyph-name="acute" unicode="&#xb4;" horiz-adv-x="1228" 
d="M1079 1522l-331 -308h-168l329 308h170z" />
    <glyph glyph-name="uni00B5" unicode="&#xb5;" horiz-adv-x="1226" 
d="M416 1047l-131 -617q-13 -81 4.5 -143.5t56.5 -99t88.5 -54.5t106.5 -18q127 0 230.5 91t133.5 240l-2 -10l131 611h137l-225 -1047h-135l41 188q-53 -90 -147 -147t-213 -57q-81 0 -154.5 30.5t-122.5 89.5l-117 -546h-135l180 850q1 5 4.5 17.5t4.5 20.5l127 601h137z
" />
    <glyph glyph-name="paragraph" unicode="&#xb6;" horiz-adv-x="1290" 
d="M780 1421h504l-371 -1740h-118l344 1609h-353q-129 0 -232 -44t-165.5 -133t-62.5 -208q0 -132 87.5 -213.5t229.5 -81.5h129l-197 -929h-118l170 798h-15q-113 0 -210.5 51.5t-157.5 149t-60 219.5q0 229 170 375.5t426 146.5z" />
    <glyph glyph-name="periodcentered" unicode="&#xb7;" horiz-adv-x="444" 
d="M242 711q41 0 69.5 -29t28.5 -72q0 -41 -28.5 -69.5t-69.5 -28.5q-42 0 -71.5 28.5t-29.5 69.5q0 42 29.5 71.5t71.5 29.5z" />
    <glyph glyph-name="cedilla" unicode="&#xb8;" horiz-adv-x="1228" 
d="M399 -469q-50 0 -94 13.5t-65 33.5l24 125q51 -59 135 -59q45 0 78 21.5t33 66.5q0 34 -27 53t-62.5 20.5t-70.5 -0.5l94 195h107l-55 -113q56 -10 95.5 -50t39.5 -103q0 -80 -60 -141.5t-172 -61.5z" />
    <glyph glyph-name="uni00B9" unicode="&#xb9;" 
d="M246 920h231l133 624l-250 -98l27 131l399 162l-172 -819h224l-27 -117h-590z" />
    <glyph glyph-name="ordmasculine" unicode="&#xba;" horiz-adv-x="878" 
d="M520 745q-80 0 -151.5 38t-117.5 112.5t-46 169.5q0 113 55.5 206t146.5 144t197 51q126 0 221 -89.5t95 -231.5q0 -167 -116.5 -283.5t-283.5 -116.5zM328 1071q0 -94 59 -152.5t143 -58.5q105 0 187 80.5t82 200.5q0 93 -60 151t-145 58q-102 0 -184 -78t-82 -201z" />
    <glyph glyph-name="guillemotright" unicode="&#xbb;" horiz-adv-x="1099" 
d="M412 131l467 442l-281 431h154l288 -441l-452 -432h-176zM-16 131l467 442l-281 431h154l288 -441l-452 -432h-176z" />
    <glyph glyph-name="onequarter" unicode="&#xbc;" horiz-adv-x="2199" 
d="M180 612h232l133 625l-250 -98l27 131l399 162l-172 -820h223l-27 -116h-589zM473 0l1258 1421h157l-1259 -1421h-156zM1309 217l524 707h145l-440 -590h293l59 272h131l-59 -272h135l-26 -117h-134l-47 -217h-129l45 217h-497z" />
    <glyph glyph-name="onehalf" unicode="&#xbd;" horiz-adv-x="2279" 
d="M180 612h232l133 625l-250 -98l27 131l399 162l-172 -820h223l-27 -116h-589zM473 0l1258 1421h157l-1259 -1421h-156zM1374 0l391 354q12 11 41 36.5t42 37t37.5 34t36 35.5t29.5 33.5t26.5 35.5t18 33.5t13.5 36.5t4 36q0 61 -47.5 99t-118.5 38q-150 0 -295 -141
l35 159q48 44 123 76.5t168 32.5q122 0 197 -68.5t75 -173.5q0 -54 -21 -105.5t-63 -101t-81.5 -87.5t-99.5 -91l-10.5 -9t-9 -8t-10.5 -9l-180 -160h424l-26 -123h-699z" />
    <glyph glyph-name="threequarters" unicode="&#xbe;" horiz-adv-x="2189" 
d="M414 483q-99 0 -186.5 33t-121.5 72l33 155q31 -56 109 -93.5t170 -37.5q109 0 180.5 53.5t71.5 141.5q0 78 -63.5 120t-157.5 42q-47 0 -91 -8l297 335h-397l27 123h612l-317 -358q100 -21 161.5 -85.5t61.5 -162.5q0 -146 -110.5 -238t-278.5 -92zM463 0l1257 1421h158
l-1260 -1421h-155zM1298 217l525 707h145l-440 -590h293l59 272h131l-59 -272h135l-27 -117h-133l-47 -217h-129l45 217h-498z" />
    <glyph glyph-name="questiondown" unicode="&#xbf;" horiz-adv-x="921" 
d="M569 336q-91 -20 -169.5 -54.5t-144.5 -83.5t-104 -118.5t-38 -149.5q0 -98 70 -154.5t163 -56.5q200 0 383 205l-37 -178q-62 -66 -156.5 -111t-207.5 -45q-157 0 -257 89.5t-100 236.5q0 96 37 179.5t104 145t153 106t190 71.5l47 221h131zM532 946q0 41 29 69.5
t70 28.5t70.5 -28.5t29.5 -69.5q0 -42 -29 -71t-71 -29q-41 0 -70 29t-29 71z" />
    <glyph glyph-name="Agrave" unicode="&#xc0;" horiz-adv-x="1445" 
d="M-57 0l977 1440l360 -1440h-143l-101 410h-659l-277 -410h-157zM465 541h539l-144 583zM674 1896h143l227 -307h-143z" />
    <glyph glyph-name="Aacute" unicode="&#xc1;" horiz-adv-x="1445" 
d="M-57 0l977 1440l360 -1440h-143l-101 410h-659l-277 -410h-157zM465 541h539l-144 583zM823 1589l330 307h170l-332 -307h-168z" />
    <glyph glyph-name="Acircumflex" unicode="&#xc2;" horiz-adv-x="1445" 
d="M-57 0l977 1440l360 -1440h-143l-101 410h-659l-277 -410h-157zM465 541h539l-144 583zM623 1589l397 324l260 -324h-139l-142 168l-217 -168h-159z" />
    <glyph glyph-name="Atilde" unicode="&#xc3;" horiz-adv-x="1445" 
d="M-57 0l977 1440l360 -1440h-143l-101 410h-659l-277 -410h-157zM465 541h539l-144 583zM659 1640l27 125q68 80 166 80q44 0 96 -23.5t101 -47t88 -23.5q87 0 168 94l-25 -127q-70 -78 -166 -78q-55 0 -147 46.5t-136 46.5q-89 0 -172 -93z" />
    <glyph glyph-name="Adieresis" unicode="&#xc4;" horiz-adv-x="1445" 
d="M-57 0l977 1440l360 -1440h-143l-101 410h-659l-277 -410h-157zM465 541h539l-144 583zM702 1743q0 40 27.5 67t67.5 27t68 -27t28 -67q0 -38 -28 -65t-68 -27t-67.5 27t-27.5 65zM1073 1743q0 40 27 67t67 27t67.5 -27t27.5 -67q0 -38 -27.5 -65t-67.5 -27t-67 27
t-27 65z" />
    <glyph glyph-name="Aring" unicode="&#xc5;" horiz-adv-x="1445" 
d="M-57 0l977 1440l360 -1440h-143l-101 410h-659l-277 -410h-157zM465 541h539l-144 583zM778 1743q0 82 59.5 140.5t143.5 58.5q87 0 146 -58t59 -141q0 -85 -58.5 -142t-146.5 -57q-85 0 -144 57.5t-59 141.5zM879 1743q0 -45 31 -74t71 -29q43 0 73.5 28.5t30.5 74.5
q0 43 -31 71.5t-73 28.5q-40 0 -71 -28.5t-31 -71.5z" />
    <glyph glyph-name="AE" unicode="&#xc6;" horiz-adv-x="2048" 
d="M-66 0l1283 1421h888l-28 -131h-668l-106 -502h630l-26 -129h-633l-113 -528h670l-29 -131h-807l105 492h-547l-440 -492h-179zM672 623h456l142 667z" />
    <glyph glyph-name="Ccedilla" unicode="&#xc7;" horiz-adv-x="1439" 
d="M1419 1059q-24 42 -60 80.5t-89.5 77.5t-130.5 62.5t-166 23.5q-134 0 -257.5 -52t-214.5 -141t-145.5 -214.5t-54.5 -264.5q0 -144 63.5 -260.5t181.5 -184t267 -67.5q130 0 244 51.5t200 130.5l-36 -180q-167 -137 -422 -137q-31 0 -45 2l-47 -99q56 -10 95.5 -50
t39.5 -103q0 -80 -60 -141.5t-172 -61.5q-50 0 -94 13.5t-65 33.5l24 125q51 -59 135 -59q45 0 78 21.5t33 66.5q0 34 -27 53t-62.5 20.5t-70.5 -0.5l94 193q-224 46 -360.5 218t-136.5 407q0 171 66.5 323.5t178.5 259.5t264 169.5t318 62.5q95 0 178.5 -20t140.5 -52.5
t95 -64.5t59 -64z" />
    <glyph glyph-name="Egrave" unicode="&#xc8;" horiz-adv-x="1163" 
d="M575 1896h144l227 -307h-143zM84 0l303 1421h834l-29 -131h-694l-107 -502h658l-29 -129h-658l-112 -528h696l-28 -131h-834z" />
    <glyph glyph-name="Eacute" unicode="&#xc9;" horiz-adv-x="1163" 
d="M1225 1896l-332 -307h-168l330 307h170zM84 0l303 1421h834l-29 -131h-694l-107 -502h658l-29 -129h-658l-112 -528h696l-28 -131h-834z" />
    <glyph glyph-name="Ecircumflex" unicode="&#xca;" horiz-adv-x="1163" 
d="M684 1589h-160l398 324l260 -324h-140l-141 168zM84 0l303 1421h834l-29 -131h-694l-107 -502h658l-29 -129h-658l-112 -528h696l-28 -131h-834z" />
    <glyph glyph-name="Edieresis" unicode="&#xcb;" horiz-adv-x="1163" 
d="M698 1837q40 0 68.5 -27.5t28.5 -66.5q0 -38 -28.5 -65t-68.5 -27t-67 27t-27 65q0 40 27 67t67 27zM84 0l303 1421h834l-29 -131h-694l-107 -502h658l-29 -129h-658l-112 -528h696l-28 -131h-834zM975 1743q0 40 27 67t67 27t67 -27t27 -67q0 -38 -27 -65t-67 -27
t-67 27t-27 65z" />
    <glyph glyph-name="Igrave" unicode="&#xcc;" horiz-adv-x="530" 
d="M524 1421l-303 -1421h-137l303 1421h137zM215 1896h143l228 -307h-144z" />
    <glyph glyph-name="Iacute" unicode="&#xcd;" horiz-adv-x="530" 
d="M524 1421l-303 -1421h-137l303 1421h137zM365 1589l329 307h170l-332 -307h-167z" />
    <glyph glyph-name="Icircumflex" unicode="&#xce;" horiz-adv-x="530" 
d="M524 1421l-303 -1421h-137l303 1421h137zM164 1589l397 324l260 -324h-139l-141 168l-217 -168h-160z" />
    <glyph glyph-name="Idieresis" unicode="&#xcf;" horiz-adv-x="530" 
d="M524 1421l-303 -1421h-137l303 1421h137zM244 1743q0 40 27 67t67 27t68 -27t28 -67q0 -38 -28 -65t-68 -27t-67 27t-27 65zM614 1743q0 40 27.5 67t67.5 27t67 -27t27 -67q0 -38 -27 -65t-67 -27t-67.5 27t-27.5 65z" />
    <glyph glyph-name="Eth" unicode="&#xd0;" horiz-adv-x="1456" 
d="M764 1421q271 0 443.5 -166t172.5 -438q0 -248 -109.5 -433t-311.5 -284.5t-470 -99.5h-405l139 655h-160l27 127h160l137 639h377zM250 131h250q335 0 537 186t202 496q0 152 -67 261.5t-177 162.5t-250 53h-247l-109 -508h342l-26 -127h-343z" />
    <glyph glyph-name="Ntilde" unicode="&#xd1;" horiz-adv-x="1523" 
d="M391 1438l756 -1129l235 1112h138l-308 -1439l-755 1130l-236 -1112h-137zM696 1640l27 125q68 80 166 80q54 0 146.5 -47t138.5 -47q86 0 167 94l-24 -127q-70 -78 -166 -78q-55 0 -147 46.5t-136 46.5q-89 0 -172 -93z" />
    <glyph glyph-name="Ograve" unicode="&#xd2;" horiz-adv-x="1650" 
d="M791 119q134 0 254 56t204 149t133.5 217.5t49.5 257.5q0 222 -140 363t-354 141q-135 0 -255.5 -56.5t-204 -150t-132.5 -218t-49 -257.5q0 -221 139.5 -361.5t354.5 -140.5zM156 618q0 161 60 310.5t163.5 262t253 180t317.5 67.5q176 0 318.5 -82.5t223.5 -228.5
t81 -326q0 -160 -60 -309t-163.5 -261t-252.5 -179.5t-317 -67.5q-177 0 -319.5 82t-223.5 227t-81 325zM723 1896h143l228 -307h-144z" />
    <glyph glyph-name="Oacute" unicode="&#xd3;" horiz-adv-x="1650" 
d="M791 119q134 0 254 56t204 149t133.5 217.5t49.5 257.5q0 222 -140 363t-354 141q-135 0 -255.5 -56.5t-204 -150t-132.5 -218t-49 -257.5q0 -221 139.5 -361.5t354.5 -140.5zM156 618q0 161 60 310.5t163.5 262t253 180t317.5 67.5q176 0 318.5 -82.5t223.5 -228.5
t81 -326q0 -160 -60 -309t-163.5 -261t-252.5 -179.5t-317 -67.5q-177 0 -319.5 82t-223.5 227t-81 325zM872 1589l330 307h170l-332 -307h-168z" />
    <glyph glyph-name="Ocircumflex" unicode="&#xd4;" horiz-adv-x="1650" 
d="M791 119q134 0 254 56t204 149t133.5 217.5t49.5 257.5q0 222 -140 363t-354 141q-135 0 -255.5 -56.5t-204 -150t-132.5 -218t-49 -257.5q0 -221 139.5 -361.5t354.5 -140.5zM156 618q0 161 60 310.5t163.5 262t253 180t317.5 67.5q176 0 318.5 -82.5t223.5 -228.5
t81 -326q0 -160 -60 -309t-163.5 -261t-252.5 -179.5t-317 -67.5q-177 0 -319.5 82t-223.5 227t-81 325zM672 1589l397 324l260 -324h-139l-141 168l-218 -168h-159z" />
    <glyph glyph-name="Otilde" unicode="&#xd5;" horiz-adv-x="1650" 
d="M791 119q134 0 254 56t204 149t133.5 217.5t49.5 257.5q0 222 -140 363t-354 141q-135 0 -255.5 -56.5t-204 -150t-132.5 -218t-49 -257.5q0 -221 139.5 -361.5t354.5 -140.5zM156 618q0 161 60 310.5t163.5 262t253 180t317.5 67.5q176 0 318.5 -82.5t223.5 -228.5
t81 -326q0 -160 -60 -309t-163.5 -261t-252.5 -179.5t-317 -67.5q-177 0 -319.5 82t-223.5 227t-81 325zM709 1640l26 125q68 80 166 80q55 0 147 -47t138 -47q87 0 168 94l-25 -127q-70 -78 -166 -78q-45 0 -96 23t-99.5 46.5t-86.5 23.5q-89 0 -172 -93z" />
    <glyph glyph-name="Odieresis" unicode="&#xd6;" horiz-adv-x="1650" 
d="M791 119q134 0 254 56t204 149t133.5 217.5t49.5 257.5q0 222 -140 363t-354 141q-135 0 -255.5 -56.5t-204 -150t-132.5 -218t-49 -257.5q0 -221 139.5 -361.5t354.5 -140.5zM156 618q0 161 60 310.5t163.5 262t253 180t317.5 67.5q176 0 318.5 -82.5t223.5 -228.5
t81 -326q0 -160 -60 -309t-163.5 -261t-252.5 -179.5t-317 -67.5q-177 0 -319.5 82t-223.5 227t-81 325zM752 1743q0 40 27 67t67 27t68 -27t28 -67q0 -38 -28 -65t-68 -27t-67 27t-27 65zM1122 1743q0 40 27.5 67t67.5 27t67 -27t27 -67q0 -38 -27 -65t-67 -27t-67.5 27
t-27.5 65z" />
    <glyph glyph-name="multiply" unicode="&#xd7;" horiz-adv-x="1069" 
d="M328 1010l237 -308l379 316l76 -94l-379 -318l242 -311l-103 -80l-237 309l-379 -317l-80 94l383 320l-240 311z" />
    <glyph glyph-name="Oslash" unicode="&#xd8;" horiz-adv-x="1650" 
d="M791 119q134 0 254 56t204 149t133.5 217.5t49.5 257.5q0 115 -40.5 211.5t-113.5 163.5l-735 -996q109 -59 248 -59zM156 618q0 161 60 310.5t163.5 262t253 180t317.5 67.5q172 0 318 -84l139 188h143l-188 -254q100 -88 155.5 -213.5t55.5 -273.5q0 -160 -60 -309
t-163.5 -261t-252.5 -179.5t-317 -67.5q-171 0 -319 82l-137 -185h-146l187 254q-99 86 -154 211t-55 272zM297 621q0 -231 152 -373l737 993q-109 62 -248 62q-135 0 -255.5 -56.5t-204 -150t-132.5 -218t-49 -257.5z" />
    <glyph glyph-name="Ugrave" unicode="&#xd9;" horiz-adv-x="1492" 
d="M330 547q-21 -103 -1 -183.5t72 -136t125.5 -84t159.5 -28.5q180 0 312 112.5t173 307.5l189 886h137l-192 -911q-52 -241 -215 -383.5t-404 -142.5q-119 0 -221 41t-172 113.5t-98 182t0 236.5l184 864h137zM696 1896h144l227 -307h-143z" />
    <glyph glyph-name="Uacute" unicode="&#xda;" horiz-adv-x="1492" 
d="M330 547q-21 -103 -1 -183.5t72 -136t125.5 -84t159.5 -28.5q180 0 312 112.5t173 307.5l189 886h137l-192 -911q-52 -241 -215 -383.5t-404 -142.5q-119 0 -221 41t-172 113.5t-98 182t0 236.5l184 864h137zM846 1589l330 307h170l-332 -307h-168z" />
    <glyph glyph-name="Ucircumflex" unicode="&#xdb;" horiz-adv-x="1492" 
d="M330 547q-21 -103 -1 -183.5t72 -136t125.5 -84t159.5 -28.5q180 0 312 112.5t173 307.5l189 886h137l-192 -911q-52 -241 -215 -383.5t-404 -142.5q-119 0 -221 41t-172 113.5t-98 182t0 236.5l184 864h137zM645 1589l397 324l261 -324h-140l-141 168l-217 -168h-160z
" />
    <glyph glyph-name="Udieresis" unicode="&#xdc;" horiz-adv-x="1492" 
d="M330 547q-21 -103 -1 -183.5t72 -136t125.5 -84t159.5 -28.5q180 0 312 112.5t173 307.5l189 886h137l-192 -911q-52 -241 -215 -383.5t-404 -142.5q-119 0 -221 41t-172 113.5t-98 182t0 236.5l184 864h137zM725 1743q0 40 27 67t67 27t68 -27t28 -67q0 -38 -28 -65
t-68 -27t-67 27t-27 65zM1096 1743q0 40 27 67t67 27t67 -27t27 -67q0 -38 -27 -65t-67 -27t-67 27t-27 65z" />
    <glyph glyph-name="Yacute" unicode="&#xdd;" horiz-adv-x="1343" 
d="M1270 1896l-332 -307h-168l330 307h170zM225 1421h150l330 -696l624 696h170l-745 -841l-125 -580h-137l124 578z" />
    <glyph glyph-name="Thorn" unicode="&#xde;" horiz-adv-x="1193" 
d="M387 1421h137l-59 -278h268q187 0 298.5 -102t111.5 -265q0 -144 -67.5 -252.5t-182.5 -164.5t-260 -56h-346l-66 -303h-137zM313 432h305q168 0 275.5 89.5t107.5 244.5q0 111 -74.5 178.5t-205.5 67.5h-285z" />
    <glyph glyph-name="germandbls" unicode="&#xdf;" horiz-adv-x="1265" 
d="M668 -16q-84 0 -152.5 18.5t-101.5 40.5l32 150q78 -78 218 -78q136 0 232.5 93.5t96.5 237.5q0 132 -95 208.5t-228 76.5h-70l29 129h43q160 0 267.5 87t107.5 227q0 103 -76.5 174t-186.5 71q-136 0 -230 -85.5t-128 -241.5l-233 -1092h-138l240 1118
q41 197 171.5 314.5t326.5 117.5q176 0 286.5 -105.5t110.5 -258.5q0 -142 -96 -258.5t-230 -126.5q47 -15 91 -42.5t86 -69.5t67 -105.5t25 -137.5q0 -126 -57 -231t-164.5 -168t-243.5 -63z" />
    <glyph glyph-name="agrave" unicode="&#xe0;" horiz-adv-x="1110" 
d="M262 938q59 52 155.5 88.5t207.5 36.5q194 0 294 -113t62 -291l-141 -659h-133l41 190q-49 -85 -149.5 -145.5t-231.5 -60.5q-137 0 -229.5 77.5t-92.5 198.5q0 78 32.5 139.5t92 102.5t132 66.5t161.5 39.5l385 62q27 123 -43.5 193.5t-192.5 70.5q-109 0 -211 -43.5
t-174 -114.5zM184 276q0 -75 60 -121t149 -46q85 0 168.5 34.5t146.5 100t80 147.5v-6l35 164l-354 -55q-285 -45 -285 -218zM424 1522h143l228 -308h-144z" />
    <glyph glyph-name="aacute" unicode="&#xe1;" horiz-adv-x="1110" 
d="M262 938q59 52 155.5 88.5t207.5 36.5q194 0 294 -113t62 -291l-141 -659h-133l41 190q-49 -85 -149.5 -145.5t-231.5 -60.5q-137 0 -229.5 77.5t-92.5 198.5q0 78 32.5 139.5t92 102.5t132 66.5t161.5 39.5l385 62q27 123 -43.5 193.5t-192.5 70.5q-109 0 -211 -43.5
t-174 -114.5zM184 276q0 -75 60 -121t149 -46q85 0 168.5 34.5t146.5 100t80 147.5v-6l35 164l-354 -55q-285 -45 -285 -218zM573 1214l330 308h170l-332 -308h-168z" />
    <glyph glyph-name="acircumflex" unicode="&#xe2;" horiz-adv-x="1110" 
d="M262 938q59 52 155.5 88.5t207.5 36.5q194 0 294 -113t62 -291l-141 -659h-133l41 190q-49 -85 -149.5 -145.5t-231.5 -60.5q-137 0 -229.5 77.5t-92.5 198.5q0 78 32.5 139.5t92 102.5t132 66.5t161.5 39.5l385 62q27 123 -43.5 193.5t-192.5 70.5q-109 0 -211 -43.5
t-174 -114.5zM184 276q0 -75 60 -121t149 -46q85 0 168.5 34.5t146.5 100t80 147.5v-6l35 164l-354 -55q-285 -45 -285 -218zM375 1214l397 324l260 -324h-139l-141 168l-217 -168h-160z" />
    <glyph glyph-name="atilde" unicode="&#xe3;" horiz-adv-x="1110" 
d="M262 938q59 52 155.5 88.5t207.5 36.5q194 0 294 -113t62 -291l-141 -659h-133l41 190q-49 -85 -149.5 -145.5t-231.5 -60.5q-137 0 -229.5 77.5t-92.5 198.5q0 78 32.5 139.5t92 102.5t132 66.5t161.5 39.5l385 62q27 123 -43.5 193.5t-192.5 70.5q-109 0 -211 -43.5
t-174 -114.5zM184 276q0 -75 60 -121t149 -46q85 0 168.5 34.5t146.5 100t80 147.5v-6l35 164l-354 -55q-285 -45 -285 -218zM410 1266l26 125q67 79 166 79q44 0 96 -23.5t101 -47t88 -23.5q87 0 168 94l-25 -127q-69 -77 -166 -77q-55 0 -146.5 46t-135.5 46
q-90 0 -172 -92z" />
    <glyph glyph-name="adieresis" unicode="&#xe4;" horiz-adv-x="1110" 
d="M262 938q59 52 155.5 88.5t207.5 36.5q194 0 294 -113t62 -291l-141 -659h-133l41 190q-49 -85 -149.5 -145.5t-231.5 -60.5q-137 0 -229.5 77.5t-92.5 198.5q0 78 32.5 139.5t92 102.5t132 66.5t161.5 39.5l385 62q27 123 -43.5 193.5t-192.5 70.5q-109 0 -211 -43.5
t-174 -114.5zM184 276q0 -75 60 -121t149 -46q85 0 168.5 34.5t146.5 100t80 147.5v-6l35 164l-354 -55q-285 -45 -285 -218zM455 1368q0 40 27 67t67 27t68 -27t28 -67q0 -38 -28 -65t-68 -27t-67 27t-27 65zM825 1368q0 40 27.5 67t67.5 27t67 -27t27 -67q0 -38 -27 -65
t-67 -27t-67.5 27t-27.5 65z" />
    <glyph glyph-name="aring" unicode="&#xe5;" horiz-adv-x="1110" 
d="M262 938q59 52 155.5 88.5t207.5 36.5q194 0 294 -113t62 -291l-141 -659h-133l41 190q-49 -85 -149.5 -145.5t-231.5 -60.5q-137 0 -229.5 77.5t-92.5 198.5q0 78 32.5 139.5t92 102.5t132 66.5t161.5 39.5l385 62q27 123 -43.5 193.5t-192.5 70.5q-109 0 -211 -43.5
t-174 -114.5zM184 276q0 -75 60 -121t149 -46q85 0 168.5 34.5t146.5 100t80 147.5v-6l35 164l-354 -55q-285 -45 -285 -218zM530 1368q0 82 59.5 140.5t143.5 58.5q87 0 146 -58t59 -141q0 -85 -58.5 -142t-146.5 -57q-85 0 -144 57.5t-59 141.5zM631 1368q0 -45 31 -73.5
t71 -28.5q43 0 74 28t31 74q0 43 -31.5 71.5t-73.5 28.5q-40 0 -71 -28.5t-31 -71.5z" />
    <glyph glyph-name="ae" unicode="&#xe6;" horiz-adv-x="1873" 
d="M262 938q61 51 155.5 88t203.5 37q127 0 216.5 -55.5t127.5 -149.5q79 97 188.5 151t239.5 54t227.5 -61t141.5 -172t18 -248l-11 -56h-817q-20 -99 -0.5 -176t68 -130.5t118 -81t150.5 -27.5q236 0 393 184l-36 -176q-121 -135 -371 -135q-160 0 -281 77.5t-162 223.5
q-22 -46 -48.5 -86t-67 -80.5t-87.5 -69.5t-111 -47t-136 -18q-90 0 -165.5 31.5t-124 95.5t-48.5 149q0 78 33 140t90.5 103t127.5 65.5t152 35.5l398 49l4 17q25 124 -48.5 194t-201.5 70q-105 0 -201.5 -43t-169.5 -115zM184 281q0 -76 65.5 -124t156.5 -48
q87 0 161 36.5t122 94.5t77.5 118.5t42.5 120.5l6 -2v6h-6l10 52l-379 -48q-108 -15 -182 -66.5t-74 -139.5zM983 645h672q17 120 -63 205.5t-212 85.5q-145 0 -250 -87.5t-147 -203.5z" />
    <glyph glyph-name="ccedilla" unicode="&#xe7;" horiz-adv-x="1103" 
d="M1047 729q-14 25 -32.5 48.5t-50 53t-68 51t-88 36t-108.5 14.5q-191 0 -321.5 -133t-130.5 -332q0 -154 97.5 -253t252.5 -99q201 0 352 164l-37 -183q-120 -112 -333 -112h-21l-47 -97q56 -10 95.5 -50t39.5 -103q0 -81 -59.5 -142t-171.5 -61q-50 0 -94.5 13.5
t-65.5 33.5l25 125q51 -59 135 -59q45 0 77.5 21.5t32.5 66.5q0 34 -26.5 53t-62 20.5t-70.5 -0.5l94 193q-157 39 -256 165.5t-99 297.5q0 165 77.5 302.5t216.5 218.5t309 81q140 0 237 -54.5t135 -119.5z" />
    <glyph glyph-name="egrave" unicode="&#xe8;" horiz-adv-x="1185" 
d="M580 -16q-127 0 -234 56t-173.5 165t-66.5 250q0 163 69.5 300.5t202.5 222.5t304 85q139 0 242 -69.5t146 -183.5t17 -243l-14 -78h-827q-17 -162 86 -270t260 -108q217 0 401 184l-41 -182q-64 -57 -150 -93t-222 -36zM268 608h688q23 144 -62 236t-232 92
q-149 0 -257 -95.5t-137 -232.5zM481 1522h144l227 -308h-143z" />
    <glyph glyph-name="eacute" unicode="&#xe9;" horiz-adv-x="1185" 
d="M580 -16q-127 0 -234 56t-173.5 165t-66.5 250q0 163 69.5 300.5t202.5 222.5t304 85q139 0 242 -69.5t146 -183.5t17 -243l-14 -78h-827q-17 -162 86 -270t260 -108q217 0 401 184l-41 -182q-64 -57 -150 -93t-222 -36zM268 608h688q23 144 -62 236t-232 92
q-149 0 -257 -95.5t-137 -232.5zM631 1214l330 308h169l-331 -308h-168z" />
    <glyph glyph-name="ecircumflex" unicode="&#xea;" horiz-adv-x="1185" 
d="M580 -16q-127 0 -234 56t-173.5 165t-66.5 250q0 163 69.5 300.5t202.5 222.5t304 85q139 0 242 -69.5t146 -183.5t17 -243l-14 -78h-827q-17 -162 86 -270t260 -108q217 0 401 184l-41 -182q-64 -57 -150 -93t-222 -36zM268 608h688q23 144 -62 236t-232 92
q-149 0 -257 -95.5t-137 -232.5zM432 1214l397 324l261 -324h-140l-141 168l-217 -168h-160z" />
    <glyph glyph-name="edieresis" unicode="&#xeb;" horiz-adv-x="1185" 
d="M580 -16q-127 0 -234 56t-173.5 165t-66.5 250q0 163 69.5 300.5t202.5 222.5t304 85q139 0 242 -69.5t146 -183.5t17 -243l-14 -78h-827q-17 -162 86 -270t260 -108q217 0 401 184l-41 -182q-64 -57 -150 -93t-222 -36zM268 608h688q23 144 -62 236t-232 92
q-149 0 -257 -95.5t-137 -232.5zM512 1368q0 40 27 67t67 27t68 -27t28 -67q0 -38 -28 -65t-68 -27t-67 27t-27 65zM883 1368q0 40 27 67t67 27t67 -27t27 -67q0 -38 -27 -65t-67 -27t-67 27t-27 65z" />
    <glyph glyph-name="igrave" unicode="&#xec;" horiz-adv-x="471" 
d="M416 1047l-223 -1047h-138l226 1047h135zM106 1522h144l227 -308h-143z" />
    <glyph glyph-name="iacute" unicode="&#xed;" horiz-adv-x="471" 
d="M416 1047l-223 -1047h-138l226 1047h135zM256 1214l330 308h170l-332 -308h-168z" />
    <glyph glyph-name="icircumflex" unicode="&#xee;" horiz-adv-x="471" 
d="M416 1047l-223 -1047h-138l226 1047h135zM57 1214l398 324l260 -324h-140l-141 168l-217 -168h-160z" />
    <glyph glyph-name="idieresis" unicode="&#xef;" horiz-adv-x="471" 
d="M416 1047l-223 -1047h-138l226 1047h135zM137 1368q0 40 27 67t67 27t68.5 -27.5t28.5 -66.5q0 -38 -28.5 -65t-68.5 -27t-67 27t-27 65zM508 1368q0 40 27 67t67 27t67 -27t27 -67q0 -38 -27 -65t-67 -27t-67 27t-27 65z" />
    <glyph glyph-name="eth" unicode="&#xf0;" horiz-adv-x="1300" 
d="M592 -18q-211 0 -349.5 131t-138.5 336q0 118 42 225t115.5 186t179 125.5t225.5 46.5q92 0 169 -29t123 -72.5t72 -88t29 -82.5q14 167 -68.5 307.5t-224.5 237.5l-408 -232l31 144l266 151q-114 57 -219 72l25 116q162 -25 321 -114l392 221l-31 -143l-256 -146
q55 -42 101 -90t87 -107.5t68.5 -129.5t43 -149.5t13 -174.5t-23.5 -197q-57 -265 -215 -404.5t-369 -139.5zM244 465q0 -154 101 -252t247 -98q78 0 147.5 25.5t121 69.5t89.5 102t57 123.5t19 133.5q0 148 -100 241t-250 93q-180 0 -306 -127t-126 -311z" />
    <glyph glyph-name="ntilde" unicode="&#xf1;" horiz-adv-x="1216" 
d="M416 1047l-41 -189q53 90 147 147.5t213 57.5q80 0 150 -29t123 -86.5t71.5 -144.5t-4.5 -203l-127 -600h-137l125 582q18 94 6 161t-52.5 109t-91.5 61t-112 19q-127 0 -230.5 -91.5t-133.5 -240.5l2 10l-131 -610h-138l226 1047h135zM461 1266l26 125q67 79 166 79
q55 0 147 -47t138 -47q87 0 168 94l-25 -127q-69 -77 -166 -77q-55 0 -146.5 46t-135.5 46q-90 0 -172 -92z" />
    <glyph glyph-name="ograve" unicode="&#xf2;" horiz-adv-x="1267" 
d="M573 -16q-197 0 -332 136t-135 341q0 117 45 227t122.5 192.5t188 132.5t234.5 50q196 0 331.5 -135t135.5 -338q0 -156 -75 -294.5t-212 -225t-303 -86.5zM246 467q0 -154 97 -253t241 -99q117 0 218.5 62t161.5 170t60 235q0 152 -98 251t-242 99q-179 0 -308.5 -136
t-129.5 -329zM465 1522h143l228 -308h-144z" />
    <glyph glyph-name="oacute" unicode="&#xf3;" horiz-adv-x="1267" 
d="M573 -16q-197 0 -332 136t-135 341q0 117 45 227t122.5 192.5t188 132.5t234.5 50q196 0 331.5 -135t135.5 -338q0 -156 -75 -294.5t-212 -225t-303 -86.5zM246 467q0 -154 97 -253t241 -99q117 0 218.5 62t161.5 170t60 235q0 152 -98 251t-242 99q-179 0 -308.5 -136
t-129.5 -329zM614 1214l330 308h170l-332 -308h-168z" />
    <glyph glyph-name="ocircumflex" unicode="&#xf4;" horiz-adv-x="1267" 
d="M573 -16q-197 0 -332 136t-135 341q0 117 45 227t122.5 192.5t188 132.5t234.5 50q196 0 331.5 -135t135.5 -338q0 -156 -75 -294.5t-212 -225t-303 -86.5zM246 467q0 -154 97 -253t241 -99q117 0 218.5 62t161.5 170t60 235q0 152 -98 251t-242 99q-179 0 -308.5 -136
t-129.5 -329zM414 1214l397 324l260 -324h-139l-141 168l-218 -168h-159z" />
    <glyph glyph-name="otilde" unicode="&#xf5;" horiz-adv-x="1267" 
d="M573 -16q-197 0 -332 136t-135 341q0 117 45 227t122.5 192.5t188 132.5t234.5 50q196 0 331.5 -135t135.5 -338q0 -156 -75 -294.5t-212 -225t-303 -86.5zM246 467q0 -154 97 -253t241 -99q117 0 218.5 62t161.5 170t60 235q0 152 -98 251t-242 99q-179 0 -308.5 -136
t-129.5 -329zM451 1266l26 125q67 79 166 79q55 0 147 -47t138 -47q87 0 168 94l-25 -127q-69 -77 -166 -77q-55 0 -146.5 46t-135.5 46q-90 0 -172 -92z" />
    <glyph glyph-name="odieresis" unicode="&#xf6;" horiz-adv-x="1267" 
d="M573 -16q-197 0 -332 136t-135 341q0 117 45 227t122.5 192.5t188 132.5t234.5 50q196 0 331.5 -135t135.5 -338q0 -156 -75 -294.5t-212 -225t-303 -86.5zM246 467q0 -154 97 -253t241 -99q117 0 218.5 62t161.5 170t60 235q0 152 -98 251t-242 99q-179 0 -308.5 -136
t-129.5 -329zM494 1368q0 40 27 67t67 27t68 -27t28 -67q0 -38 -28 -65t-68 -27t-67 27t-27 65zM864 1368q0 40 27 67t67 27t67.5 -27t27.5 -67q0 -38 -27.5 -65t-67.5 -27t-67 27t-27 65z" />
    <glyph glyph-name="divide" unicode="&#xf7;" horiz-adv-x="1062" 
d="M117 555l24 119h844l-24 -119h-844zM381 276q0 43 28.5 72t69.5 29q42 0 71.5 -29.5t29.5 -71.5q0 -41 -29.5 -69.5t-71.5 -28.5q-41 0 -69.5 28.5t-28.5 69.5zM524 946q0 43 29 72t70 29t70.5 -29.5t29.5 -71.5q0 -41 -29.5 -69.5t-70.5 -28.5t-70 28.5t-29 69.5z" />
    <glyph glyph-name="oslash" unicode="&#xf8;" horiz-adv-x="1267" 
d="M573 -16q-128 0 -231 59l-119 -158h-145l170 228q-66 65 -104 155t-38 193q0 117 45 227t122.5 192.5t188 132.5t234.5 50q122 0 226 -55l118 155h146l-170 -225q147 -134 147 -348q0 -156 -75 -294.5t-212 -225t-303 -86.5zM246 467q0 -146 88 -244l506 674
q-72 35 -156 35q-179 0 -308.5 -136t-129.5 -329zM424 154q73 -39 160 -39q117 0 218.5 62t161.5 170t60 235q0 147 -92 245z" />
    <glyph glyph-name="ugrave" unicode="&#xf9;" horiz-adv-x="1216" 
d="M801 0l41 188q-53 -89 -147 -146.5t-214 -57.5q-80 0 -150 28.5t-123 86.5t-71.5 144.5t4.5 202.5l127 601h138l-125 -582q-18 -95 -6 -161t52 -108t91.5 -61.5t111.5 -19.5q128 0 231.5 91t133.5 240l-2 -10l131 611h137l-225 -1047h-135zM471 1522h143l228 -308h-144z
" />
    <glyph glyph-name="uacute" unicode="&#xfa;" horiz-adv-x="1216" 
d="M801 0l41 188q-53 -89 -147 -146.5t-214 -57.5q-80 0 -150 28.5t-123 86.5t-71.5 144.5t4.5 202.5l127 601h138l-125 -582q-18 -95 -6 -161t52 -108t91.5 -61.5t111.5 -19.5q128 0 231.5 91t133.5 240l-2 -10l131 611h137l-225 -1047h-135zM621 1214l329 308h170
l-332 -308h-167z" />
    <glyph glyph-name="ucircumflex" unicode="&#xfb;" horiz-adv-x="1216" 
d="M801 0l41 188q-53 -89 -147 -146.5t-214 -57.5q-80 0 -150 28.5t-123 86.5t-71.5 144.5t4.5 202.5l127 601h138l-125 -582q-18 -95 -6 -161t52 -108t91.5 -61.5t111.5 -19.5q128 0 231.5 91t133.5 240l-2 -10l131 611h137l-225 -1047h-135zM422 1214l397 324l260 -324
h-139l-141 168l-217 -168h-160z" />
    <glyph glyph-name="udieresis" unicode="&#xfc;" horiz-adv-x="1216" 
d="M801 0l41 188q-53 -89 -147 -146.5t-214 -57.5q-80 0 -150 28.5t-123 86.5t-71.5 144.5t4.5 202.5l127 601h138l-125 -582q-18 -95 -6 -161t52 -108t91.5 -61.5t111.5 -19.5q128 0 231.5 91t133.5 240l-2 -10l131 611h137l-225 -1047h-135zM502 1368q0 40 27 67t67 27
t68 -27t28 -67q0 -38 -28 -65t-68 -27t-67 27t-27 65zM872 1368q0 40 27.5 67t67.5 27t67 -27t27 -67q0 -38 -27 -65t-67 -27t-67.5 27t-27.5 65z" />
    <glyph glyph-name="yacute" unicode="&#xfd;" horiz-adv-x="1099" 
d="M387 -203q-77 -122 -166 -180.5t-215 -58.5h-133l29 129h100q85 0 144.5 38t115.5 125l115 177l-225 1020h143l184 -861l533 861h162zM580 1214l329 308h170l-331 -308h-168z" />
    <glyph glyph-name="thorn" unicode="&#xfe;" horiz-adv-x="1312" 
d="M520 1534l-145 -684q64 98 169 156.5t234 58.5q87 0 165.5 -32t137 -90t93 -145.5t34.5 -191.5q0 -122 -43.5 -236t-117.5 -199t-179 -136t-221 -51q-161 0 -263.5 90.5t-127.5 220.5l-158 -737h-135l420 1976h137zM311 559q-19 -95 1 -179.5t67.5 -141.5t116 -90
t145.5 -33q117 0 216 67.5t154.5 176.5t55.5 231q0 82 -28.5 149.5t-75 110t-104 65.5t-118.5 23q-92 0 -176 -37.5t-153.5 -123.5t-96.5 -208z" />
    <glyph glyph-name="ydieresis" unicode="&#xff;" horiz-adv-x="1099" 
d="M387 -203q-77 -122 -166 -180.5t-215 -58.5h-133l29 129h100q85 0 144.5 38t115.5 125l115 177l-225 1020h143l184 -861l533 861h162zM459 1368q0 40 27 67t67 27t68 -27t28 -67q0 -38 -28 -65t-68 -27t-67 27t-27 65zM829 1368q0 40 27.5 67t67.5 27t67 -27t27 -67
q0 -38 -27 -65t-67 -27t-67.5 27t-27.5 65z" />
    <glyph glyph-name="Amacron" unicode="&#x100;" horiz-adv-x="1445" 
d="M-57 0l977 1440l360 -1440h-143l-101 410h-659l-277 -410h-157zM465 541h539l-144 583zM719 1686l24 114h502l-24 -114h-502z" />
    <glyph glyph-name="amacron" unicode="&#x101;" horiz-adv-x="1110" 
d="M262 938q59 52 155.5 88.5t207.5 36.5q194 0 294 -113t62 -291l-141 -659h-133l41 190q-49 -85 -149.5 -145.5t-231.5 -60.5q-137 0 -229.5 77.5t-92.5 198.5q0 78 32.5 139.5t92 102.5t132 66.5t161.5 39.5l385 62q27 123 -43.5 193.5t-192.5 70.5q-109 0 -211 -43.5
t-174 -114.5zM184 276q0 -75 60 -121t149 -46q85 0 168.5 34.5t146.5 100t80 147.5v-6l35 164l-354 -55q-285 -45 -285 -218zM471 1311l25 114h501l-24 -114h-502z" />
    <glyph glyph-name="Abreve" unicode="&#x102;" horiz-adv-x="1445" 
d="M-57 0l977 1440l360 -1440h-143l-101 410h-659l-277 -410h-157zM465 541h539l-144 583zM729 1880h117q-14 -71 25 -120.5t112 -49.5q72 0 128.5 49t66.5 121h118q-20 -128 -107 -203t-208 -75q-123 0 -198.5 77.5t-53.5 200.5z" />
    <glyph glyph-name="abreve" unicode="&#x103;" horiz-adv-x="1110" 
d="M262 938q59 52 155.5 88.5t207.5 36.5q194 0 294 -113t62 -291l-141 -659h-133l41 190q-49 -85 -149.5 -145.5t-231.5 -60.5q-137 0 -229.5 77.5t-92.5 198.5q0 78 32.5 139.5t92 102.5t132 66.5t161.5 39.5l385 62q27 123 -43.5 193.5t-192.5 70.5q-109 0 -211 -43.5
t-174 -114.5zM184 276q0 -75 60 -121t149 -46q85 0 168.5 34.5t146.5 100t80 147.5v-6l35 164l-354 -55q-285 -45 -285 -218zM481 1505h117q-14 -71 25 -120.5t112 -49.5q72 0 128.5 49t66.5 121h119q-20 -127 -107 -202.5t-209 -75.5q-123 0 -198.5 77.5t-53.5 200.5z" />
    <glyph glyph-name="Aogonek" unicode="&#x104;" horiz-adv-x="1445" 
d="M-57 0l977 1440l360 -1440q-128 -82 -191 -142t-63 -124q0 -37 26 -57.5t70 -20.5q54 0 105 35l-25 -117q-54 -33 -125 -33q-77 0 -130.5 45.5t-53.5 122.5q0 85 76 155.5t209 135.5h-41l-101 410h-659l-277 -410h-157zM465 541h539l-144 583z" />
    <glyph glyph-name="aogonek" unicode="&#x105;" horiz-adv-x="1110" 
d="M262 938q59 52 155.5 88.5t207.5 36.5q194 0 294 -113t62 -291l-141 -659h2q-128 -82 -191 -142t-63 -124q0 -37 26 -57.5t70 -20.5q53 0 104 35l-24 -117q-54 -33 -125 -33q-77 0 -130.5 45.5t-53.5 122.5q0 86 76 156.5t208 134.5h-32l41 190q-49 -85 -149.5 -145.5
t-231.5 -60.5q-137 0 -229.5 77.5t-92.5 198.5q0 78 32.5 139.5t92 102.5t132 66.5t161.5 39.5l385 62q27 123 -43.5 193.5t-192.5 70.5q-109 0 -211 -43.5t-174 -114.5zM184 276q0 -75 60 -121t149 -46q85 0 168.5 34.5t146.5 100t80 147.5v-6l35 164l-354 -55
q-285 -45 -285 -218z" />
    <glyph glyph-name="Cacute" unicode="&#x106;" horiz-adv-x="1439" 
d="M1419 1059q-24 42 -60 80.5t-89.5 77.5t-130.5 62.5t-166 23.5q-134 0 -257.5 -52t-214.5 -141t-145.5 -214.5t-54.5 -264.5q0 -144 63.5 -260.5t181.5 -184t267 -67.5q130 0 244 51.5t200 130.5l-36 -180q-167 -137 -422 -137q-185 0 -332 84t-228 229.5t-81 325.5
q0 171 66.5 323.5t178.5 259.5t264 169.5t318 62.5q95 0 178.5 -20t140.5 -52.5t95 -64.5t59 -64zM958 1589l330 307h170l-332 -307h-168z" />
    <glyph glyph-name="cacute" unicode="&#x107;" horiz-adv-x="1103" 
d="M1047 729q-14 25 -32.5 48.5t-50 53t-68 51t-88 36t-108.5 14.5q-191 0 -321.5 -133t-130.5 -332q0 -154 97.5 -253t252.5 -99q201 0 352 164l-37 -183q-120 -112 -333 -112q-201 0 -337.5 136.5t-136.5 340.5q0 165 77.5 302.5t216.5 218.5t309 81q140 0 237 -54.5
t135 -119.5zM637 1214l330 308h170l-332 -308h-168z" />
    <glyph glyph-name="Cdotaccent" unicode="&#x10a;" horiz-adv-x="1439" 
d="M1419 1059q-24 42 -60 80.5t-89.5 77.5t-130.5 62.5t-166 23.5q-134 0 -257.5 -52t-214.5 -141t-145.5 -214.5t-54.5 -264.5q0 -144 63.5 -260.5t181.5 -184t267 -67.5q130 0 244 51.5t200 130.5l-36 -180q-167 -137 -422 -137q-185 0 -332 84t-228 229.5t-81 325.5
q0 171 66.5 323.5t178.5 259.5t264 169.5t318 62.5q95 0 178.5 -20t140.5 -52.5t95 -64.5t59 -64zM1022 1743q0 38 27 65t67 27t68 -27t28 -65q0 -40 -28 -67t-68 -27t-67 27t-27 67z" />
    <glyph glyph-name="cdotaccent" unicode="&#x10b;" horiz-adv-x="1103" 
d="M1047 729q-14 25 -32.5 48.5t-50 53t-68 51t-88 36t-108.5 14.5q-191 0 -321.5 -133t-130.5 -332q0 -154 97.5 -253t252.5 -99q201 0 352 164l-37 -183q-120 -112 -333 -112q-201 0 -337.5 136.5t-136.5 340.5q0 165 77.5 302.5t216.5 218.5t309 81q140 0 237 -54.5
t135 -119.5zM700 1368q0 38 27.5 65t67.5 27t68 -27t28 -65q0 -40 -28 -67t-68 -27t-67.5 27t-27.5 67z" />
    <glyph glyph-name="Ccaron" unicode="&#x10c;" horiz-adv-x="1439" 
d="M1419 1059q-24 42 -60 80.5t-89.5 77.5t-130.5 62.5t-166 23.5q-134 0 -257.5 -52t-214.5 -141t-145.5 -214.5t-54.5 -264.5q0 -144 63.5 -260.5t181.5 -184t267 -67.5q130 0 244 51.5t200 130.5l-36 -180q-167 -137 -422 -137q-185 0 -332 84t-228 229.5t-81 325.5
q0 171 66.5 323.5t178.5 259.5t264 169.5t318 62.5q95 0 178.5 -20t140.5 -52.5t95 -64.5t59 -64zM819 1890h139l142 -168l217 168h160l-398 -323z" />
    <glyph glyph-name="ccaron" unicode="&#x10d;" horiz-adv-x="1103" 
d="M1047 729q-14 25 -32.5 48.5t-50 53t-68 51t-88 36t-108.5 14.5q-191 0 -321.5 -133t-130.5 -332q0 -154 97.5 -253t252.5 -99q201 0 352 164l-37 -183q-120 -112 -333 -112q-201 0 -337.5 136.5t-136.5 340.5q0 165 77.5 302.5t216.5 218.5t309 81q140 0 237 -54.5
t135 -119.5zM498 1513h139l141 -167l217 167h160l-397 -323z" />
    <glyph glyph-name="Dcaron" unicode="&#x10e;" horiz-adv-x="1456" 
d="M764 1421q271 0 443.5 -166t172.5 -438q0 -248 -109.5 -433t-311.5 -284.5t-470 -99.5h-405l303 1421h377zM250 131h250q335 0 537 186t202 496q0 152 -67 261.5t-177 162.5t-250 53h-247zM621 1890h139l141 -168l217 168h160l-397 -323z" />
    <glyph glyph-name="dcaron" unicode="&#x10f;" horiz-adv-x="1419" 
d="M1358 1534l-328 -1534h-137l41 193q-64 -95 -168.5 -152t-230.5 -57q-181 0 -306 125.5t-125 332.5q0 122 43.5 236t118 199.5t179.5 136.5t221 51q158 0 260 -88t129 -215l166 772h137zM246 459q0 -82 28 -149.5t74.5 -110t104 -65.5t118.5 -23q85 0 164 32.5t147 106
t103 178.5l23 109q8 87 -15.5 162t-70.5 126t-112 80t-138 29q-117 0 -216 -67.5t-154.5 -176.5t-55.5 -231zM1399 1155l194 379h140l-220 -379h-114z" />
    <glyph glyph-name="Dcroat" unicode="&#x110;" horiz-adv-x="1456" 
d="M764 1421q271 0 443.5 -166t172.5 -438q0 -248 -109.5 -433t-311.5 -284.5t-470 -99.5h-405l139 655h-160l27 127h160l137 639h377zM250 131h250q335 0 537 186t202 496q0 152 -67 261.5t-177 162.5t-250 53h-247l-109 -508h342l-26 -127h-343z" />
    <glyph glyph-name="dcroat" unicode="&#x111;" horiz-adv-x="1310" 
d="M1358 1534l-35 -162h160l-25 -117h-160l-268 -1255h-137l41 193q-64 -95 -168.5 -152t-230.5 -57q-181 0 -306 125.5t-125 332.5q0 122 43.5 236t118 199.5t179.5 136.5t221 51q158 0 260 -88t129 -215l106 493h-295l25 117h295l35 162h137zM246 459q0 -82 28 -149.5
t74.5 -110t104 -65.5t118.5 -23q85 0 164 32.5t147 106t103 178.5l23 109q8 87 -15.5 162t-70.5 126t-112 80t-138 29q-117 0 -216 -67.5t-154.5 -176.5t-55.5 -231z" />
    <glyph glyph-name="Emacron" unicode="&#x112;" horiz-adv-x="1163" 
d="M645 1800h502l-25 -114h-501zM84 0l303 1421h834l-29 -131h-694l-107 -502h658l-29 -129h-658l-112 -528h696l-28 -131h-834z" />
    <glyph glyph-name="emacron" unicode="&#x113;" horiz-adv-x="1185" 
d="M580 -16q-127 0 -234 56t-173.5 165t-66.5 250q0 163 69.5 300.5t202.5 222.5t304 85q139 0 242 -69.5t146 -183.5t17 -243l-14 -78h-827q-17 -162 86 -270t260 -108q217 0 401 184l-41 -182q-64 -57 -150 -93t-222 -36zM268 608h688q23 144 -62 236t-232 92
q-149 0 -257 -95.5t-137 -232.5zM528 1311l25 114h502l-25 -114h-502z" />
    <glyph glyph-name="Edotaccent" unicode="&#x116;" horiz-adv-x="1163" 
d="M883 1835q40 0 68 -27t28 -65q0 -40 -28 -67t-68 -27t-67.5 27t-27.5 67q0 38 27.5 65t67.5 27zM84 0l303 1421h834l-29 -131h-694l-107 -502h658l-29 -129h-658l-112 -528h696l-28 -131h-834z" />
    <glyph glyph-name="edotaccent" unicode="&#x117;" horiz-adv-x="1185" 
d="M580 -16q-127 0 -234 56t-173.5 165t-66.5 250q0 163 69.5 300.5t202.5 222.5t304 85q139 0 242 -69.5t146 -183.5t17 -243l-14 -78h-827q-17 -162 86 -270t260 -108q217 0 401 184l-41 -182q-64 -57 -150 -93t-222 -36zM268 608h688q23 144 -62 236t-232 92
q-149 0 -257 -95.5t-137 -232.5zM696 1368q0 38 27.5 65t67.5 27t68 -27t28 -65q0 -40 -28 -67t-68 -27t-67.5 27t-27.5 67z" />
    <glyph glyph-name="Eogonek" unicode="&#x118;" horiz-adv-x="1163" 
d="M715 -459q-77 0 -131 45.5t-54 122.5q0 85 76 155.5t209 135.5h-731l303 1421h834l-29 -131h-694l-107 -502h658l-29 -129h-658l-112 -528h696l-28 -131q-128 -82 -191 -142t-63 -124q0 -37 26 -57.5t70 -20.5q53 0 104 35l-24 -117q-54 -33 -125 -33z" />
    <glyph glyph-name="eogonek" unicode="&#x119;" horiz-adv-x="1185" 
d="M580 -16q-127 0 -234 56t-173.5 165t-66.5 250q0 163 69.5 300.5t202.5 222.5t304 85q139 0 242 -69.5t146 -183.5t17 -243l-14 -78h-827q-17 -162 86 -270t260 -108q217 0 401 184l-41 -182q-13 -13 -45 -37h2q-129 -85 -190.5 -143t-61.5 -121q0 -38 25.5 -59t67.5 -21
q50 0 106 35l-25 -117q-54 -33 -122 -33q-82 0 -134.5 44.5t-52.5 111.5q0 120 174 219q-70 -8 -116 -8zM268 608h688q23 144 -62 236t-232 92q-149 0 -257 -95.5t-137 -232.5z" />
    <glyph glyph-name="Ecaron" unicode="&#x11a;" horiz-adv-x="1163" 
d="M1083 1890h160l-397 -323l-260 323h139l141 -168zM84 0l303 1421h834l-29 -131h-694l-107 -502h658l-29 -129h-658l-112 -528h696l-28 -131h-834z" />
    <glyph glyph-name="ecaron" unicode="&#x11b;" horiz-adv-x="1185" 
d="M580 -16q-127 0 -234 56t-173.5 165t-66.5 250q0 163 69.5 300.5t202.5 222.5t304 85q139 0 242 -69.5t146 -183.5t17 -243l-14 -78h-827q-17 -162 86 -270t260 -108q217 0 401 184l-41 -182q-64 -57 -150 -93t-222 -36zM268 608h688q23 144 -62 236t-232 92
q-149 0 -257 -95.5t-137 -232.5zM494 1513h139l141 -167l217 167h160l-397 -323z" />
    <glyph glyph-name="Gbreve" unicode="&#x11e;" horiz-adv-x="1542" 
d="M778 -16q-117 0 -228 44t-199 123t-141.5 200t-53.5 263q0 168 65 320t175.5 263t266 176t328.5 65q103 0 194.5 -21.5t155.5 -56.5t107 -71t65 -72l-36 -179q-26 45 -68 88t-103 84.5t-145.5 67t-177.5 25.5q-192 0 -349.5 -92.5t-246 -249.5t-88.5 -345
q0 -113 40 -208.5t107 -158t154 -97.5t182 -35q197 0 326.5 101.5t169.5 287.5l25 110h-498l26 132h635l-53 -259q-48 -233 -216.5 -369t-418.5 -136zM807 1880h117q-14 -71 25 -120.5t112 -49.5q72 0 127.5 49t66.5 121h119q-20 -128 -107 -203t-208 -75
q-123 0 -198.5 77.5t-53.5 200.5z" />
    <glyph glyph-name="gbreve" unicode="&#x11f;" horiz-adv-x="1112" 
d="M240 -442q-134 0 -225 71.5t-91 186.5q0 110 68 181t170 93q-43 46 -43 111q0 66 46 116t111 66q-122 95 -122 258q0 109 55 205t157.5 156.5t229.5 60.5q58 0 117 -16h450l-26 -123h-250q59 -80 59 -191q0 -81 -33.5 -158t-91 -135.5t-141 -93.5t-176.5 -35
q-78 0 -150 29q-38 -5 -64 -33.5t-26 -68.5q0 -37 23.5 -60.5t64.5 -23.5h248q135 0 218 -70.5t83 -187.5q0 -110 -56.5 -187.5t-149.5 -114t-214 -36.5h-241zM70 -164q0 -70 55.5 -112.5t136.5 -42.5h242q106 0 179 54t73 152q0 67 -47.5 103.5t-124.5 36.5h-293
q-91 0 -156 -52t-65 -139zM289 649q0 -94 63.5 -153.5t161.5 -59.5q126 0 210.5 87.5t84.5 203.5q0 93 -63 152t-160 59q-125 0 -211 -86.5t-86 -202.5zM492 1505h116q-14 -71 25 -120.5t112 -49.5q72 0 128.5 49t66.5 121h119q-20 -127 -107 -202.5t-209 -75.5
q-123 0 -198 77.5t-53 200.5z" />
    <glyph glyph-name="Gdotaccent" unicode="&#x120;" horiz-adv-x="1542" 
d="M778 -16q-117 0 -228 44t-199 123t-141.5 200t-53.5 263q0 168 65 320t175.5 263t266 176t328.5 65q103 0 194.5 -21.5t155.5 -56.5t107 -71t65 -72l-36 -179q-26 45 -68 88t-103 84.5t-145.5 67t-177.5 25.5q-192 0 -349.5 -92.5t-246 -249.5t-88.5 -345
q0 -113 40 -208.5t107 -158t154 -97.5t182 -35q197 0 326.5 101.5t169.5 287.5l25 110h-498l26 132h635l-53 -259q-48 -233 -216.5 -369t-418.5 -136zM965 1743q0 38 27 65t67 27t68 -27t28 -65q0 -40 -28 -67t-68 -27t-67 27t-27 67z" />
    <glyph glyph-name="gdotaccent" unicode="&#x121;" horiz-adv-x="1112" 
d="M240 -442q-134 0 -225 71.5t-91 186.5q0 110 68 181t170 93q-43 46 -43 111q0 66 46 116t111 66q-122 95 -122 258q0 109 55 205t157.5 156.5t229.5 60.5q58 0 117 -16h450l-26 -123h-250q59 -80 59 -191q0 -81 -33.5 -158t-91 -135.5t-141 -93.5t-176.5 -35
q-78 0 -150 29q-38 -5 -64 -33.5t-26 -68.5q0 -37 23.5 -60.5t64.5 -23.5h248q135 0 218 -70.5t83 -187.5q0 -110 -56.5 -187.5t-149.5 -114t-214 -36.5h-241zM70 -164q0 -70 55.5 -112.5t136.5 -42.5h242q106 0 179 54t73 152q0 67 -47.5 103.5t-124.5 36.5h-293
q-91 0 -156 -52t-65 -139zM289 649q0 -94 63.5 -153.5t161.5 -59.5q126 0 210.5 87.5t84.5 203.5q0 93 -63 152t-160 59q-125 0 -211 -86.5t-86 -202.5zM649 1368q0 38 27 65t67 27t68.5 -27t28.5 -65q0 -39 -28.5 -66.5t-68.5 -27.5t-67 27t-27 67z" />
    <glyph glyph-name="uni0122" unicode="&#x122;" horiz-adv-x="1542" 
d="M778 -16q-117 0 -228 44t-199 123t-141.5 200t-53.5 263q0 168 65 320t175.5 263t266 176t328.5 65q103 0 194.5 -21.5t155.5 -56.5t107 -71t65 -72l-36 -179q-26 45 -68 88t-103 84.5t-145.5 67t-177.5 25.5q-192 0 -349.5 -92.5t-246 -249.5t-88.5 -345
q0 -113 40 -208.5t107 -158t154 -97.5t182 -35q197 0 326.5 101.5t169.5 287.5l25 110h-498l26 132h635l-53 -259q-48 -233 -216.5 -369t-418.5 -136zM457 -502l194 379h140l-220 -379h-114z" />
    <glyph glyph-name="uni0123" unicode="&#x123;" horiz-adv-x="1112" 
d="M240 -442q-134 0 -225 71.5t-91 186.5q0 110 68 181t170 93q-43 46 -43 111q0 66 46 116t111 66q-122 95 -122 258q0 109 55 205t157.5 156.5t229.5 60.5q58 0 117 -16h450l-26 -123h-250q59 -80 59 -191q0 -81 -33.5 -158t-91 -135.5t-141 -93.5t-176.5 -35
q-78 0 -150 29q-38 -5 -64 -33.5t-26 -68.5q0 -37 23.5 -60.5t64.5 -23.5h248q135 0 218 -70.5t83 -187.5q0 -110 -56.5 -187.5t-149.5 -114t-214 -36.5h-241zM70 -164q0 -70 55.5 -112.5t136.5 -42.5h242q106 0 179 54t73 152q0 67 -47.5 103.5t-124.5 36.5h-293
q-91 0 -156 -52t-65 -139zM289 649q0 -94 63.5 -153.5t161.5 -59.5q126 0 210.5 87.5t84.5 203.5q0 93 -63 152t-160 59q-125 0 -211 -86.5t-86 -202.5zM618 1217l220 378h114l-194 -378h-140z" />
    <glyph glyph-name="Hbar" unicode="&#x126;" horiz-adv-x="1505" 
d="M1350 1421h137l-49 -231h174l-27 -119h-172l-229 -1071h-137l129 606h-811l-129 -606h-138l230 1071h-176l26 119h174l49 231h138l-50 -231h811zM393 737h811l72 334h-811z" />
    <glyph glyph-name="hbar" unicode="&#x127;" horiz-adv-x="1216" 
d="M520 1534l-35 -162h291l-24 -117h-291l-84 -397q51 89 144.5 147t213.5 58q80 0 150 -29t123 -86.5t71.5 -144.5t-4.5 -203l-127 -600h-137l125 582q18 94 6 161t-52.5 109t-91.5 61t-112 19q-127 0 -230.5 -91.5t-133.5 -240.5l2 8l-131 -608h-138l269 1255h-164l24 117
h164l35 162h137z" />
    <glyph glyph-name="Imacron" unicode="&#x12a;" horiz-adv-x="530" 
d="M524 1421l-303 -1421h-137l303 1421h137zM260 1686l25 114h501l-24 -114h-502z" />
    <glyph glyph-name="imacron" unicode="&#x12b;" horiz-adv-x="471" 
d="M416 1047l-223 -1047h-138l226 1047h135zM154 1311l24 114h502l-25 -114h-501z" />
    <glyph glyph-name="Iogonek" unicode="&#x12e;" horiz-adv-x="530" 
d="M524 1421l-303 -1421h2q-128 -82 -191 -142t-63 -124q0 -37 26.5 -57.5t70.5 -20.5q53 0 104 35l-25 -117q-54 -33 -125 -33q-77 0 -130.5 45.5t-53.5 122.5q0 85 76 155.5t209 135.5h-37l303 1421h137z" />
    <glyph glyph-name="iogonek" unicode="&#x12f;" horiz-adv-x="471" 
d="M416 1047l-223 -1047q-128 -82 -191 -142t-63 -124q0 -37 26 -57.5t70 -20.5q53 0 104 35l-24 -117q-54 -33 -125 -33q-77 0 -131 45.5t-54 122.5q0 85 76 155.5t209 135.5h-35l226 1047h135zM322 1368q0 38 27 65t67 27t68 -27t28 -65q0 -40 -28 -67t-68 -27t-67 27
t-27 67z" />
    <glyph glyph-name="Idotaccent" unicode="&#x130;" horiz-adv-x="530" 
d="M524 1421l-303 -1421h-137l303 1421h137zM428 1743q0 38 27 65t67 27t68 -27t28 -65q0 -40 -28 -67t-68 -27t-67 27t-27 67z" />
    <glyph glyph-name="dotlessi" unicode="&#x131;" horiz-adv-x="471" 
d="M416 1047l-223 -1047h-138l226 1047h135z" />
    <glyph glyph-name="uni0136" unicode="&#x136;" horiz-adv-x="1280" 
d="M1194 1421h195l-818 -688l559 -733h-174l-575 745zM84 0l303 1421h137l-303 -1421h-137zM262 -502l195 379h139l-219 -379h-115z" />
    <glyph glyph-name="uni0137" unicode="&#x137;" horiz-adv-x="1030" 
d="M520 1534l-209 -977l598 490h181l-601 -502l408 -545h-164l-422 557l-118 -557h-138l328 1534h137zM178 -502l195 379h139l-219 -379h-115z" />
    <glyph glyph-name="Lacute" unicode="&#x139;" horiz-adv-x="1095" 
d="M524 1421l-274 -1290h694l-29 -131h-831l303 1421h137zM365 1589l329 307h170l-332 -307h-167z" />
    <glyph glyph-name="lacute" unicode="&#x13a;" horiz-adv-x="471" 
d="M520 1534l-327 -1534h-138l328 1534h137zM358 1702l330 307h170l-332 -307h-168z" />
    <glyph glyph-name="uni013B" unicode="&#x13b;" horiz-adv-x="1095" 
d="M524 1421l-274 -1290h694l-29 -131h-831l303 1421h137zM225 -502l195 379h139l-219 -379h-115z" />
    <glyph glyph-name="uni013C" unicode="&#x13c;" horiz-adv-x="471" 
d="M520 1534l-327 -1534h-138l328 1534h137zM-156 -502l195 379h139l-219 -379h-115z" />
    <glyph glyph-name="Lcaron" unicode="&#x13d;" horiz-adv-x="1095" 
d="M524 1421l-274 -1290h694l-29 -131h-831l303 1421h137zM590 1042l194 379h140l-219 -379h-115z" />
    <glyph glyph-name="lcaron" unicode="&#x13e;" horiz-adv-x="583" 
d="M520 1534l-327 -1534h-138l328 1534h137zM563 1155l195 379h139l-219 -379h-115z" />
    <glyph glyph-name="Lslash" unicode="&#x141;" horiz-adv-x="1095" 
d="M524 1421l-129 -604l365 111l-27 -135l-366 -111l-117 -551h694l-29 -131h-831l135 637l-170 -51l29 135l170 51l139 649h137z" />
    <glyph glyph-name="lslash" unicode="&#x142;" horiz-adv-x="591" 
d="M580 1534l-134 -621l242 84l-29 -137l-241 -86l-166 -774h-137l153 723l-237 -84l26 137l242 84l143 674h138z" />
    <glyph glyph-name="Nacute" unicode="&#x143;" horiz-adv-x="1523" 
d="M391 1438l756 -1129l235 1112h138l-308 -1439l-755 1130l-236 -1112h-137zM860 1589l330 307h170l-332 -307h-168z" />
    <glyph glyph-name="nacute" unicode="&#x144;" horiz-adv-x="1216" 
d="M416 1047l-41 -189q53 90 147 147.5t213 57.5q80 0 150 -29t123 -86.5t71.5 -144.5t-4.5 -203l-127 -600h-137l125 582q18 94 6 161t-52.5 109t-91.5 61t-112 19q-127 0 -230.5 -91.5t-133.5 -240.5l2 10l-131 -610h-138l226 1047h135zM625 1214l329 308h170l-331 -308
h-168z" />
    <glyph glyph-name="uni0145" unicode="&#x145;" horiz-adv-x="1523" 
d="M391 1438l756 -1129l235 1112h138l-308 -1439l-755 1130l-236 -1112h-137zM391 -502l195 379h139l-219 -379h-115z" />
    <glyph glyph-name="uni0146" unicode="&#x146;" horiz-adv-x="1216" 
d="M416 1047l-41 -189q53 90 147 147.5t213 57.5q80 0 150 -29t123 -86.5t71.5 -144.5t-4.5 -203l-127 -600h-137l125 582q18 94 6 161t-52.5 109t-91.5 61t-112 19q-127 0 -230.5 -91.5t-133.5 -240.5l2 10l-131 -610h-138l226 1047h135zM221 -502l195 379h139l-219 -379
h-115z" />
    <glyph glyph-name="Ncaron" unicode="&#x147;" horiz-adv-x="1523" 
d="M391 1438l756 -1129l235 1112h138l-308 -1439l-755 1130l-236 -1112h-137zM723 1890h139l142 -168l217 168h159l-397 -323z" />
    <glyph glyph-name="ncaron" unicode="&#x148;" horiz-adv-x="1216" 
d="M416 1047l-41 -189q53 90 147 147.5t213 57.5q80 0 150 -29t123 -86.5t71.5 -144.5t-4.5 -203l-127 -600h-137l125 582q18 94 6 161t-52.5 109t-91.5 61t-112 19q-127 0 -230.5 -91.5t-133.5 -240.5l2 10l-131 -610h-138l226 1047h135zM485 1513h140l141 -167l217 167
h160l-398 -323z" />
    <glyph glyph-name="Eng" unicode="&#x14a;" horiz-adv-x="1523" 
d="M391 1438l756 -1129l235 1112h138l-80 -374l-228 -1065l-28 -134q-60 -290 -324 -290h-160l29 129h129q157 0 195 180l57 268l-653 977l-236 -1112h-137z" />
    <glyph glyph-name="eng" unicode="&#x14b;" horiz-adv-x="1216" 
d="M416 1047l-41 -189q53 90 147 147.5t213 57.5q80 0 150 -29t123 -86.5t71.5 -144.5t-4.5 -203l-127 -600l-33 -152q-60 -290 -325 -290h-158l27 129h129q156 0 194 180l29 133l125 582q18 94 6 161t-52.5 109t-91.5 61t-112 19q-127 0 -230.5 -91.5t-133.5 -240.5l2 10
l-131 -610h-138l226 1047h135z" />
    <glyph glyph-name="Omacron" unicode="&#x14c;" horiz-adv-x="1650" 
d="M791 119q134 0 254 56t204 149t133.5 217.5t49.5 257.5q0 222 -140 363t-354 141q-135 0 -255.5 -56.5t-204 -150t-132.5 -218t-49 -257.5q0 -221 139.5 -361.5t354.5 -140.5zM156 618q0 161 60 310.5t163.5 262t253 180t317.5 67.5q176 0 318.5 -82.5t223.5 -228.5
t81 -326q0 -160 -60 -309t-163.5 -261t-252.5 -179.5t-317 -67.5q-177 0 -319.5 82t-223.5 227t-81 325zM768 1686l25 114h501l-24 -114h-502z" />
    <glyph glyph-name="omacron" unicode="&#x14d;" horiz-adv-x="1267" 
d="M573 -16q-197 0 -332 136t-135 341q0 117 45 227t122.5 192.5t188 132.5t234.5 50q196 0 331.5 -135t135.5 -338q0 -156 -75 -294.5t-212 -225t-303 -86.5zM246 467q0 -154 97 -253t241 -99q117 0 218.5 62t161.5 170t60 235q0 152 -98 251t-242 99q-179 0 -308.5 -136
t-129.5 -329zM510 1311l25 114h501l-24 -114h-502z" />
    <glyph glyph-name="Ohungarumlaut" unicode="&#x150;" horiz-adv-x="1650" 
d="M791 119q134 0 254 56t204 149t133.5 217.5t49.5 257.5q0 222 -140 363t-354 141q-135 0 -255.5 -56.5t-204 -150t-132.5 -218t-49 -257.5q0 -221 139.5 -361.5t354.5 -140.5zM156 618q0 161 60 310.5t163.5 262t253 180t317.5 67.5q176 0 318.5 -82.5t223.5 -228.5
t81 -326q0 -160 -60 -309t-163.5 -261t-252.5 -179.5t-317 -67.5q-177 0 -319.5 82t-223.5 227t-81 325zM754 1589l282 307h148l-283 -307h-147zM1075 1589l283 307h147l-282 -307h-148z" />
    <glyph glyph-name="ohungarumlaut" unicode="&#x151;" horiz-adv-x="1267" 
d="M573 -16q-197 0 -332 136t-135 341q0 117 45 227t122.5 192.5t188 132.5t234.5 50q196 0 331.5 -135t135.5 -338q0 -156 -75 -294.5t-212 -225t-303 -86.5zM246 467q0 -154 97 -253t241 -99q117 0 218.5 62t161.5 170t60 235q0 152 -98 251t-242 99q-179 0 -308.5 -136
t-129.5 -329zM498 1214l282 308h148l-283 -308h-147zM819 1214l283 308h147l-282 -308h-148z" />
    <glyph glyph-name="OE" unicode="&#x152;" horiz-adv-x="2086" 
d="M1081 1290q-180 0 -327.5 -49t-247 -136.5t-153.5 -209t-54 -266.5q0 -122 41.5 -218t115.5 -156.5t173.5 -92t218.5 -31.5h194l246 1159h-207zM160 625q0 177 64 324t182.5 251.5t294 162.5t391.5 58h1052l-28 -131h-691l-106 -502h659l-28 -129h-658l-112 -528h690
l-29 -131h-1012q-302 0 -485.5 168.5t-183.5 456.5z" />
    <glyph glyph-name="oe" unicode="&#x153;" horiz-adv-x="2091" 
d="M573 -16q-197 0 -332 136t-135 341q0 117 45 227t122.5 192.5t188 132.5t234.5 50q140 0 250.5 -73.5t163.5 -198.5q70 126 192 199t281 73q141 0 246 -69.5t148 -182t18 -238.5l-15 -77h-827q-17 -163 87 -274t265 -111q212 0 396 184l-41 -182q-144 -129 -367 -129
q-147 0 -263 76t-167 208q-76 -129 -204 -206.5t-286 -77.5zM246 467q0 -154 97 -253t241 -99q117 0 218.5 62t161.5 170t60 235q0 152 -98 251t-242 99q-179 0 -308.5 -136t-129.5 -329zM1176 614h688q22 138 -63.5 230t-231.5 92q-151 0 -257.5 -92.5t-135.5 -229.5z" />
    <glyph glyph-name="Racute" unicode="&#x154;" horiz-adv-x="1292" 
d="M84 0l303 1421h406q186 0 296.5 -102t110.5 -266q0 -189 -111.5 -312t-291.5 -153l331 -588h-161l-332 580h-291l-123 -580h-137zM373 711h303q168 0 275.5 89t107.5 242q0 111 -74.5 179.5t-204.5 68.5h-282zM764 1589l330 307h170l-332 -307h-168z" />
    <glyph glyph-name="racute" unicode="&#x155;" horiz-adv-x="790" 
d="M408 1047l-50 -230q57 106 154.5 169t214.5 63h121l-29 -136h-104q-141 0 -248.5 -85.5t-149.5 -245.5l-124 -582h-138l226 1047h127zM489 1214l330 308h170l-332 -308h-168z" />
    <glyph glyph-name="uni0156" unicode="&#x156;" horiz-adv-x="1292" 
d="M84 0l303 1421h406q186 0 296.5 -102t110.5 -266q0 -189 -111.5 -312t-291.5 -153l331 -588h-161l-332 580h-291l-123 -580h-137zM303 -502l195 379h139l-219 -379h-115zM373 711h303q168 0 275.5 89t107.5 242q0 111 -74.5 179.5t-204.5 68.5h-282z" />
    <glyph glyph-name="uni0157" unicode="&#x157;" horiz-adv-x="790" 
d="M408 1047l-50 -230q57 106 154.5 169t214.5 63h121l-29 -136h-104q-141 0 -248.5 -85.5t-149.5 -245.5l-124 -582h-138l226 1047h127zM-152 -502l195 379h139l-219 -379h-115z" />
    <glyph glyph-name="Rcaron" unicode="&#x158;" horiz-adv-x="1292" 
d="M84 0l303 1421h406q186 0 296.5 -102t110.5 -266q0 -189 -111.5 -312t-291.5 -153l331 -588h-161l-332 580h-291l-123 -580h-137zM373 711h303q168 0 275.5 89t107.5 242q0 111 -74.5 179.5t-204.5 68.5h-282zM625 1890h139l141 -168l217 168h160l-397 -323z" />
    <glyph glyph-name="rcaron" unicode="&#x159;" horiz-adv-x="790" 
d="M408 1047l-50 -230q57 106 154.5 169t214.5 63h121l-29 -136h-104q-141 0 -248.5 -85.5t-149.5 -245.5l-124 -582h-138l226 1047h127zM350 1513h139l142 -167l217 167h160l-398 -323z" />
    <glyph glyph-name="Sacute" unicode="&#x15a;" horiz-adv-x="1214" 
d="M1145 1067q-75 113 -175 176.5t-245 63.5q-137 0 -231.5 -66t-94.5 -182q0 -130 197 -228l156 -75q60 -29 107 -59.5t95.5 -76t75.5 -106.5t27 -133q0 -184 -134 -290.5t-343 -106.5q-181 0 -323 67.5t-187 141.5l36 176q30 -48 69.5 -89.5t96 -80.5t135 -61.5
t168.5 -22.5q153 0 246.5 70t93.5 186q0 46 -17 85.5t-49 70t-65.5 53t-78.5 43.5l-170 82q-277 131 -277 342q0 91 42 167.5t110 124t150 73.5t167 26q160 0 280 -61.5t173 -141.5zM711 1589l329 307h170l-331 -307h-168z" />
    <glyph glyph-name="sacute" unicode="&#x15b;" horiz-adv-x="1001" 
d="M887 748q-54 88 -142 140t-204 52q-93 0 -161.5 -42.5t-68.5 -119.5q0 -28 11.5 -50.5t37.5 -41t44 -28.5t56 -27q9 -4 13 -6l141 -62q34 -16 48.5 -23.5t48.5 -27t51.5 -37.5t39 -45t31 -61t9.5 -74q0 -140 -109.5 -225.5t-281.5 -85.5q-137 0 -258.5 50.5t-157.5 110.5
l33 158q48 -80 150.5 -138.5t232.5 -58.5q110 0 180.5 47t70.5 128q0 58 -39 95t-106 64l-143 62q-89 38 -123 61q-119 78 -119 205q0 89 55 158t141 103t185 34q127 0 228.5 -48t140.5 -108zM504 1214l330 308h170l-332 -308h-168z" />
    <glyph glyph-name="Scedilla" unicode="&#x15e;" horiz-adv-x="1214" 
d="M1145 1067q-75 113 -175 176.5t-245 63.5q-137 0 -231.5 -66t-94.5 -182q0 -130 197 -228l156 -75q60 -29 107 -59.5t95.5 -76t75.5 -106.5t27 -133q0 -184 -134 -290.5t-343 -106.5q-31 0 -45 2l-48 -99q56 -10 96 -50t40 -103q0 -80 -60 -141.5t-172 -61.5
q-50 0 -94.5 13.5t-65.5 33.5l25 125q51 -59 135 -59q45 0 78 21.5t33 66.5q0 34 -27 53t-62.5 20.5t-70.5 -0.5l92 191q-131 24 -230.5 82t-133.5 115l36 176q30 -48 69.5 -89.5t96 -80.5t135 -61.5t168.5 -22.5q153 0 246.5 70t93.5 186q0 46 -17 85.5t-49 70t-65.5 53
t-78.5 43.5l-170 82q-277 131 -277 342q0 91 42 167.5t110 124t150 73.5t167 26q160 0 280 -61.5t173 -141.5z" />
    <glyph glyph-name="scedilla" unicode="&#x15f;" horiz-adv-x="1001" 
d="M887 748q-54 88 -142 140t-204 52q-93 0 -161.5 -42.5t-68.5 -119.5q0 -28 11.5 -50.5t37.5 -41t44 -28.5t56 -27q9 -4 13 -6l141 -62q34 -16 48.5 -23.5t48.5 -27t51.5 -37.5t39 -45t31 -61t9.5 -74q0 -138 -108 -223.5t-277 -87.5l-47 -97q56 -10 95.5 -50t39.5 -103
q0 -80 -60 -141.5t-172 -61.5q-50 0 -94 13.5t-65 33.5l24 125q51 -59 135 -59q45 0 78 21.5t33 66.5q0 34 -27 53t-62.5 20.5t-70.5 -0.5l90 187q-110 14 -200 59.5t-119 93.5l33 158q48 -80 150.5 -138.5t232.5 -58.5q110 0 180.5 47t70.5 128q0 58 -39 95t-106 64
l-143 62q-89 38 -123 61q-119 78 -119 205q0 89 55 158t141 103t185 34q127 0 228.5 -48t140.5 -108z" />
    <glyph glyph-name="Scaron" unicode="&#x160;" horiz-adv-x="1214" 
d="M1145 1067q-75 113 -175 176.5t-245 63.5q-137 0 -231.5 -66t-94.5 -182q0 -130 197 -228l156 -75q60 -29 107 -59.5t95.5 -76t75.5 -106.5t27 -133q0 -184 -134 -290.5t-343 -106.5q-181 0 -323 67.5t-187 141.5l36 176q30 -48 69.5 -89.5t96 -80.5t135 -61.5
t168.5 -22.5q153 0 246.5 70t93.5 186q0 46 -17 85.5t-49 70t-65.5 53t-78.5 43.5l-170 82q-277 131 -277 342q0 91 42 167.5t110 124t150 73.5t167 26q160 0 280 -61.5t173 -141.5zM571 1890h140l141 -168l217 168h160l-398 -323z" />
    <glyph glyph-name="scaron" unicode="&#x161;" horiz-adv-x="1001" 
d="M887 748q-54 88 -142 140t-204 52q-93 0 -161.5 -42.5t-68.5 -119.5q0 -28 11.5 -50.5t37.5 -41t44 -28.5t56 -27q9 -4 13 -6l141 -62q34 -16 48.5 -23.5t48.5 -27t51.5 -37.5t39 -45t31 -61t9.5 -74q0 -140 -109.5 -225.5t-281.5 -85.5q-137 0 -258.5 50.5t-157.5 110.5
l33 158q48 -80 150.5 -138.5t232.5 -58.5q110 0 180.5 47t70.5 128q0 58 -39 95t-106 64l-143 62q-89 38 -123 61q-119 78 -119 205q0 89 55 158t141 103t185 34q127 0 228.5 -48t140.5 -108zM365 1513h139l141 -167l217 167h160l-397 -323z" />
    <glyph glyph-name="uni0162" unicode="&#x162;" horiz-adv-x="1280" 
d="M233 1290l27 131h1141l-27 -131h-502l-276 -1290h-14l-56 -113q56 -10 96 -50t40 -103q0 -80 -60 -141.5t-172 -61.5q-50 0 -94.5 13.5t-65.5 33.5l25 125q51 -59 135 -59q45 0 78 21.5t33 66.5q0 34 -27 53t-62.5 20.5t-70.5 -0.5l94 195h-16l274 1290h-500z" />
    <glyph glyph-name="uni0163" unicode="&#x163;" horiz-adv-x="731" 
d="M768 1047l-29 -132h-305l-133 -620q-18 -82 16 -124t105 -42h149l-28 -129h-142l-49 -100q56 -10 95.5 -50.5t39.5 -103.5q0 -81 -59.5 -142t-171.5 -61q-50 0 -94.5 13.5t-65.5 33.5l25 125q51 -59 135 -59q45 0 78 21.5t33 66.5q0 34 -27 53t-62.5 21t-70.5 0l94 194
q-82 26 -121 97t-18 174l135 632h-180l28 132h179l51 235l147 49l-61 -284h307z" />
    <glyph glyph-name="Tcaron" unicode="&#x164;" horiz-adv-x="1280" 
d="M233 1290l27 131h1141l-27 -131h-502l-276 -1290h-137l274 1290h-500zM600 1890h139l142 -168l217 168h159l-397 -323z" />
    <glyph glyph-name="tcaron" unicode="&#x165;" horiz-adv-x="731" 
d="M768 1047l-29 -132h-305l-133 -620q-18 -82 16 -124t105 -42h149l-28 -129h-158q-121 0 -185 77.5t-38 205.5l135 632h-180l28 132h179l51 235l147 49l-61 -284h307zM614 1196l191 379h137l-215 -379h-113z" />
    <glyph glyph-name="Tbar" unicode="&#x166;" horiz-adv-x="1280" 
d="M233 1290l27 131h1141l-27 -131h-502l-114 -532h286l-30 -127h-283l-135 -631h-137l133 631h-283l29 127h283l112 532h-500z" />
    <glyph glyph-name="tbar" unicode="&#x167;" horiz-adv-x="731" 
d="M768 1047l-29 -132h-305l-67 -313h278l-24 -115h-279l-41 -192q-18 -82 16 -124t105 -42h149l-28 -129h-158q-121 0 -185 77.5t-38 205.5l43 204h-180l24 115h180l68 313h-180l28 132h179l51 235l147 49l-61 -284h307z" />
    <glyph glyph-name="Umacron" unicode="&#x16a;" horiz-adv-x="1492" 
d="M330 547q-21 -103 -1 -183.5t72 -136t125.5 -84t159.5 -28.5q180 0 312 112.5t173 307.5l189 886h137l-192 -911q-52 -241 -215 -383.5t-404 -142.5q-119 0 -221 41t-172 113.5t-98 182t0 236.5l184 864h137zM741 1686l25 114h502l-25 -114h-502z" />
    <glyph glyph-name="umacron" unicode="&#x16b;" horiz-adv-x="1216" 
d="M801 0l41 188q-53 -89 -147 -146.5t-214 -57.5q-80 0 -150 28.5t-123 86.5t-71.5 144.5t4.5 202.5l127 601h138l-125 -582q-18 -95 -6 -161t52 -108t91.5 -61.5t111.5 -19.5q128 0 231.5 91t133.5 240l-2 -10l131 611h137l-225 -1047h-135zM518 1311l25 114h501l-24 -114
h-502z" />
    <glyph glyph-name="Uring" unicode="&#x16e;" horiz-adv-x="1492" 
d="M330 547q-21 -103 -1 -183.5t72 -136t125.5 -84t159.5 -28.5q180 0 312 112.5t173 307.5l189 886h137l-192 -911q-52 -241 -215 -383.5t-404 -142.5q-119 0 -221 41t-172 113.5t-98 182t0 236.5l184 864h137zM801 1743q0 82 59.5 140.5t143.5 58.5q87 0 145.5 -58
t58.5 -141q0 -85 -58 -142t-146 -57q-85 0 -144 57.5t-59 141.5zM901 1743q0 -45 31.5 -74t71.5 -29q43 0 73.5 28.5t30.5 74.5q0 43 -31 71.5t-73 28.5q-40 0 -71.5 -28.5t-31.5 -71.5z" />
    <glyph glyph-name="uring" unicode="&#x16f;" horiz-adv-x="1216" 
d="M801 0l41 188q-53 -89 -147 -146.5t-214 -57.5q-80 0 -150 28.5t-123 86.5t-71.5 144.5t4.5 202.5l127 601h138l-125 -582q-18 -95 -6 -161t52 -108t91.5 -61.5t111.5 -19.5q128 0 231.5 91t133.5 240l-2 -10l131 611h137l-225 -1047h-135zM578 1368q0 82 59 140.5
t143 58.5q87 0 146 -58t59 -141q0 -85 -58.5 -142t-146.5 -57q-85 0 -143.5 57.5t-58.5 141.5zM678 1368q0 -45 31 -73.5t71 -28.5q43 0 74 28t31 74q0 43 -31.5 71.5t-73.5 28.5q-40 0 -71 -28.5t-31 -71.5z" />
    <glyph glyph-name="Uhungarumlaut" unicode="&#x170;" horiz-adv-x="1492" 
d="M330 547q-21 -103 -1 -183.5t72 -136t125.5 -84t159.5 -28.5q180 0 312 112.5t173 307.5l189 886h137l-192 -911q-52 -241 -215 -383.5t-404 -142.5q-119 0 -221 41t-172 113.5t-98 182t0 236.5l184 864h137zM729 1589l283 307h147l-282 -307h-148zM1051 1589l282 307
h148l-283 -307h-147z" />
    <glyph glyph-name="uhungarumlaut" unicode="&#x171;" horiz-adv-x="1216" 
d="M801 0l41 188q-53 -89 -147 -146.5t-214 -57.5q-80 0 -150 28.5t-123 86.5t-71.5 144.5t4.5 202.5l127 601h138l-125 -582q-18 -95 -6 -161t52 -108t91.5 -61.5t111.5 -19.5q128 0 231.5 91t133.5 240l-2 -10l131 611h137l-225 -1047h-135zM504 1214l282 308h148
l-283 -308h-147zM825 1214l283 308h147l-282 -308h-148z" />
    <glyph glyph-name="Uogonek" unicode="&#x172;" horiz-adv-x="1492" 
d="M330 547q-21 -103 -1 -183.5t72 -136t125.5 -84t159.5 -28.5q180 0 312 112.5t173 307.5l189 886h137l-192 -911q-32 -154 -113 -270.5t-201 -182.5q-102 -68 -152.5 -121t-50.5 -110q0 -38 25.5 -59t67.5 -21q50 0 106 35l-24 -117q-54 -33 -123 -33q-82 0 -134.5 44.5
t-52.5 111.5q0 113 154 207q-65 -10 -121 -10q-119 0 -221 41t-172 113.5t-98 182t0 236.5l184 864h137z" />
    <glyph glyph-name="uogonek" unicode="&#x173;" horiz-adv-x="1216" 
d="M801 0l41 188q-53 -89 -147 -146.5t-214 -57.5q-80 0 -150 28.5t-123 86.5t-71.5 144.5t4.5 202.5l127 601h138l-125 -582q-18 -95 -6 -161t52 -108t91.5 -61.5t111.5 -19.5q128 0 231.5 91t133.5 240l-2 -10l131 611h137l-225 -1047h2q-128 -82 -191 -142t-63 -124
q0 -37 26 -57.5t70 -20.5q54 0 105 35l-25 -117q-54 -33 -125 -33q-77 0 -130.5 45.5t-53.5 122.5q0 85 76 155.5t209 135.5h-35z" />
    <glyph glyph-name="Wcircumflex" unicode="&#x174;" horiz-adv-x="1886" 
d="M391 1421l135 -1050l604 1067l152 -1063l580 1046h149l-799 -1437l-153 1089l-617 -1089l-186 1437h135zM842 1589l397 324l260 -324h-139l-141 168l-218 -168h-159z" />
    <glyph glyph-name="wcircumflex" unicode="&#x175;" horiz-adv-x="1581" 
d="M305 1047l115 -738l479 754l154 -739l432 723h147l-628 -1063l-162 776l-496 -776l-174 1063h133zM610 1214l398 324l260 -324h-140l-141 168l-217 -168h-160z" />
    <glyph glyph-name="Ycircumflex" unicode="&#x176;" horiz-adv-x="1343" 
d="M731 1589h-160l398 324l260 -324h-139l-142 168zM225 1421h150l330 -696l624 696h170l-745 -841l-125 -580h-137l124 578z" />
    <glyph glyph-name="ycircumflex" unicode="&#x177;" horiz-adv-x="1099" 
d="M387 -203q-77 -122 -166 -180.5t-215 -58.5h-133l29 129h100q85 0 144.5 38t115.5 125l115 177l-225 1020h143l184 -861l533 861h162zM379 1214l397 324l260 -324h-139l-141 168l-217 -168h-160z" />
    <glyph glyph-name="Ydieresis" unicode="&#x178;" horiz-adv-x="1343" 
d="M745 1837q40 0 68.5 -27.5t28.5 -66.5q0 -38 -28.5 -65t-68.5 -27t-67 27t-27 65q0 40 27 67t67 27zM225 1421h150l330 -696l624 696h170l-745 -841l-125 -580h-137l124 578zM1022 1743q0 40 27 67t67 27t67 -27t27 -67q0 -38 -27 -65t-67 -27t-67 27t-27 65z" />
    <glyph glyph-name="Zacute" unicode="&#x179;" horiz-adv-x="1349" 
d="M328 1421h1089l-1122 -1290h848l-29 -131h-1102l1118 1290h-829zM774 1589l330 307h170l-332 -307h-168z" />
    <glyph glyph-name="zacute" unicode="&#x17a;" horiz-adv-x="1026" 
d="M1065 1047l-823 -918h606l-29 -129h-862l817 915h-592l29 132h854zM532 1214l330 308h170l-332 -308h-168z" />
    <glyph glyph-name="Zdotaccent" unicode="&#x17b;" horiz-adv-x="1349" 
d="M328 1421h1089l-1122 -1290h848l-29 -131h-1102l1118 1290h-829zM838 1743q0 38 27 65t67 27t68 -27t28 -65q0 -40 -28 -67t-68 -27t-67 27t-27 67z" />
    <glyph glyph-name="zdotaccent" unicode="&#x17c;" horiz-adv-x="1026" 
d="M1065 1047l-823 -918h606l-29 -129h-862l817 915h-592l29 132h854zM598 1368q0 38 27 65t67 27t68 -27t28 -65q0 -40 -28 -67t-68 -27t-67 27t-27 67z" />
    <glyph glyph-name="Zcaron" unicode="&#x17d;" horiz-adv-x="1349" 
d="M328 1421h1089l-1122 -1290h848l-29 -131h-1102l1118 1290h-829zM635 1890h139l141 -168l218 168h159l-397 -323z" />
    <glyph glyph-name="zcaron" unicode="&#x17e;" horiz-adv-x="1026" 
d="M1065 1047l-823 -918h606l-29 -129h-862l817 915h-592l29 132h854zM395 1513h140l141 -167l217 167h160l-398 -323z" />
    <glyph glyph-name="uni018F" unicode="&#x18f;" horiz-adv-x="1507" 
d="M702 -16q-137 0 -254 51t-193.5 143t-108 219.5t3.5 280.5l18 82h1120q2 18 2 55q0 152 -69.5 265t-181 168t-246.5 55q-154 0 -285 -60t-217 -151l39 190q77 68 200.5 112t294.5 44q167 0 304 -75t219 -218t82 -328q0 -123 -30.5 -242.5t-93 -226t-148 -188t-203.5 -129
t-253 -47.5zM279 629q-29 -140 21.5 -258.5t160 -186t250.5 -67.5q109 0 204.5 42t164.5 114.5t117 163t71 192.5h-989z" />
    <glyph glyph-name="florin" unicode="&#x192;" horiz-adv-x="1200" 
d="M227 678l27 117h342l94 329q44 154 147.5 225.5t247.5 71.5h215l-28 -129h-189q-208 0 -268 -213l-82 -284h342l-26 -117h-349l-110 -381q-44 -154 -147.5 -225.5t-247.5 -71.5h-213l26 129h189q210 0 270 213l96 336h-336z" />
    <glyph glyph-name="uni01CD" unicode="&#x1cd;" horiz-adv-x="1445" 
d="M-57 0l977 1440l360 -1440h-143l-101 410h-659l-277 -410h-157zM465 541h539l-144 583zM684 1890h139l142 -168l217 168h159l-397 -323z" />
    <glyph glyph-name="uni01CE" unicode="&#x1ce;" horiz-adv-x="1110" 
d="M262 938q59 52 155.5 88.5t207.5 36.5q194 0 294 -113t62 -291l-141 -659h-133l41 190q-49 -85 -149.5 -145.5t-231.5 -60.5q-137 0 -229.5 77.5t-92.5 198.5q0 78 32.5 139.5t92 102.5t132 66.5t161.5 39.5l385 62q27 123 -43.5 193.5t-192.5 70.5q-109 0 -211 -43.5
t-174 -114.5zM184 276q0 -75 60 -121t149 -46q85 0 168.5 34.5t146.5 100t80 147.5v-6l35 164l-354 -55q-285 -45 -285 -218zM436 1513h139l142 -167l217 167h160l-398 -323z" />
    <glyph glyph-name="uni0218" unicode="&#x218;" horiz-adv-x="1214" 
d="M1145 1067q-75 113 -175 176.5t-245 63.5q-137 0 -231.5 -66t-94.5 -182q0 -130 197 -228l156 -75q60 -29 107 -59.5t95.5 -76t75.5 -106.5t27 -133q0 -184 -134 -290.5t-343 -106.5q-181 0 -323 67.5t-187 141.5l36 176q30 -48 69.5 -89.5t96 -80.5t135 -61.5
t168.5 -22.5q153 0 246.5 70t93.5 186q0 46 -17 85.5t-49 70t-65.5 53t-78.5 43.5l-170 82q-277 131 -277 342q0 91 42 167.5t110 124t150 73.5t167 26q160 0 280 -61.5t173 -141.5zM213 -502l195 379h139l-219 -379h-115z" />
    <glyph glyph-name="uni0219" unicode="&#x219;" horiz-adv-x="1001" 
d="M887 748q-54 88 -142 140t-204 52q-93 0 -161.5 -42.5t-68.5 -119.5q0 -28 11.5 -50.5t37.5 -41t44 -28.5t56 -27q9 -4 13 -6l141 -62q34 -16 48.5 -23.5t48.5 -27t51.5 -37.5t39 -45t31 -61t9.5 -74q0 -140 -109.5 -225.5t-281.5 -85.5q-137 0 -258.5 50.5t-157.5 110.5
l33 158q48 -80 150.5 -138.5t232.5 -58.5q110 0 180.5 47t70.5 128q0 58 -39 95t-106 64l-143 62q-89 38 -123 61q-119 78 -119 205q0 89 55 158t141 103t185 34q127 0 228.5 -48t140.5 -108zM135 -502l195 379h139l-219 -379h-115z" />
    <glyph glyph-name="uni021A" unicode="&#x21a;" horiz-adv-x="1280" 
d="M233 1290l27 131h1141l-27 -131h-502l-276 -1290h-137l274 1290h-500zM250 -502l194 379h140l-219 -379h-115z" />
    <glyph glyph-name="uni021B" unicode="&#x21b;" horiz-adv-x="731" 
d="M768 1047l-29 -132h-305l-133 -620q-18 -82 16 -124t105 -42h149l-28 -129h-158q-121 0 -185 77.5t-38 205.5l135 632h-180l28 132h179l51 235l147 49l-61 -284h307zM78 -489l194 378h140l-219 -378h-115z" />
    <glyph glyph-name="uni0237" unicode="&#x237;" horiz-adv-x="477" 
d="M287 1047h135l-256 -1199q-60 -290 -324 -290h-159l28 129h129q157 0 195 180z" />
    <glyph glyph-name="uni0259" unicode="&#x259;" horiz-adv-x="1189" 
d="M610 1063q127 0 234 -56t173 -165t66 -250q0 -121 -41 -231.5t-113 -194t-179 -133t-230 -49.5q-145 0 -251.5 75t-149.5 193.5t-17 249.5l15 76h825q13 150 -88 254t-256 104q-217 0 -401 -184l41 182q144 129 372 129zM233 459q-25 -146 61.5 -247t231.5 -101
q154 0 266 100t134 248h-693z" />
    <glyph glyph-name="circumflex" unicode="&#x2c6;" horiz-adv-x="1228" 
d="M592 1214h-160l397 324l261 -324h-140l-141 168z" />
    <glyph glyph-name="caron" unicode="&#x2c7;" horiz-adv-x="1228" 
d="M993 1513h160l-397 -323l-260 323h139l141 -167z" />
    <glyph glyph-name="breve" unicode="&#x2d8;" horiz-adv-x="1228" 
d="M657 1505q-14 -71 25.5 -120.5t112.5 -49.5q72 0 127.5 49t66.5 121h119q-20 -128 -107 -203t-208 -75q-123 0 -198.5 77.5t-53.5 200.5h116z" />
    <glyph glyph-name="dotaccent" unicode="&#x2d9;" horiz-adv-x="1228" 
d="M793 1460q40 0 68 -27t28 -65q0 -40 -28 -67t-68 -27t-67.5 27t-27.5 67q0 38 27.5 65t67.5 27z" />
    <glyph glyph-name="ring" unicode="&#x2da;" horiz-adv-x="1228" 
d="M995 1368q0 -85 -58 -142t-146 -57q-85 0 -144 57.5t-59 141.5q0 82 59.5 140.5t143.5 58.5q87 0 145.5 -58t58.5 -141zM688 1368q0 -45 31 -73.5t72 -28.5q43 0 73.5 28t30.5 74q0 43 -31 71.5t-73 28.5q-40 0 -71.5 -28.5t-31.5 -71.5z" />
    <glyph glyph-name="ogonek" unicode="&#x2db;" horiz-adv-x="1228" 
d="M461 -459q-77 0 -131 45.5t-54 122.5q0 49 26.5 94.5t76.5 85t105 71t130 65.5l50 -25q-128 -82 -191 -142t-63 -124q0 -37 26 -57.5t70 -20.5q53 0 104 35l-24 -117q-54 -33 -125 -33z" />
    <glyph glyph-name="tilde" unicode="&#x2dc;" horiz-adv-x="1228" 
d="M498 1391q67 79 166 79q54 0 146 -47t138 -47q87 0 168 94l-24 -127q-69 -77 -166 -77q-55 0 -147 46t-136 46q-90 0 -172 -92z" />
    <glyph glyph-name="hungarumlaut" unicode="&#x2dd;" horiz-adv-x="1228" 
d="M420 1214l282 308h148l-283 -308h-147zM741 1214l283 308h147l-282 -308h-148z" />
    <glyph glyph-name="gravecomb" unicode="&#x300;" horiz-adv-x="0" 
d="M573 1522h144l227 -308h-143z" />
    <glyph glyph-name="acutecomb" unicode="&#x301;" horiz-adv-x="0" 
d="M1079 1522l-331 -308h-168l329 308h170z" />
    <glyph glyph-name="uni0302" unicode="&#x302;" horiz-adv-x="0" 
d="M592 1214h-160l397 324l261 -324h-140l-141 168z" />
    <glyph glyph-name="tildecomb" unicode="&#x303;" horiz-adv-x="0" 
d="M498 1391q67 79 166 79q54 0 146 -47t138 -47q87 0 168 94l-24 -127q-69 -77 -166 -77q-55 0 -147 46t-136 46q-90 0 -172 -92z" />
    <glyph glyph-name="uni0304" unicode="&#x304;" horiz-adv-x="0" 
d="M555 1425h502l-25 -114h-502z" />
    <glyph glyph-name="uni0306" unicode="&#x306;" horiz-adv-x="0" 
d="M657 1505q-14 -71 25.5 -120.5t112.5 -49.5q72 0 127.5 49t66.5 121h119q-20 -128 -107 -203t-208 -75q-123 0 -198.5 77.5t-53.5 200.5h116z" />
    <glyph glyph-name="uni0307" unicode="&#x307;" horiz-adv-x="0" 
d="M793 1460q40 0 68 -27t28 -65q0 -40 -28 -67t-68 -27t-67.5 27t-27.5 67q0 38 27.5 65t67.5 27z" />
    <glyph glyph-name="uni0308" unicode="&#x308;" horiz-adv-x="0" 
d="M608 1462q40 0 68.5 -27.5t28.5 -66.5q0 -38 -28.5 -65t-68.5 -27t-67 27t-27 65q0 40 27 67t67 27zM885 1368q0 40 27 67t67 27t67 -27t27 -67q0 -38 -27 -65t-67 -27t-67 27t-27 65z" />
    <glyph glyph-name="uni030A" unicode="&#x30a;" horiz-adv-x="0" 
d="M995 1368q0 -85 -58 -142t-146 -57q-85 0 -144 57.5t-59 141.5q0 82 59.5 140.5t143.5 58.5q87 0 145.5 -58t58.5 -141zM688 1368q0 -45 31 -73.5t72 -28.5q43 0 73.5 28t30.5 74q0 43 -31 71.5t-73 28.5q-40 0 -71.5 -28.5t-31.5 -71.5z" />
    <glyph glyph-name="uni030B" unicode="&#x30b;" horiz-adv-x="0" 
d="M420 1214l282 308h148l-283 -308h-147zM741 1214l283 308h147l-282 -308h-148z" />
    <glyph glyph-name="uni030C" unicode="&#x30c;" horiz-adv-x="0" 
d="M993 1513h160l-397 -323l-260 323h139l141 -167z" />
    <glyph glyph-name="uni0312" unicode="&#x312;" horiz-adv-x="0" 
d="M633 1217l219 378h115l-195 -378h-139z" />
    <glyph glyph-name="uni0326" unicode="&#x326;" horiz-adv-x="0" 
d="M598 -123l-219 -379h-115l195 379h139z" />
    <glyph glyph-name="uni0327" unicode="&#x327;" horiz-adv-x="0" 
d="M399 -469q-50 0 -94 13.5t-65 33.5l24 125q51 -59 135 -59q45 0 78 21.5t33 66.5q0 34 -27 53t-62.5 20.5t-70.5 -0.5l94 195h107l-55 -113q56 -10 95.5 -50t39.5 -103q0 -80 -60 -141.5t-172 -61.5z" />
    <glyph glyph-name="uni0328" unicode="&#x328;" horiz-adv-x="0" 
d="M461 -459q-77 0 -131 45.5t-54 122.5q0 49 26.5 94.5t76.5 85t105 71t130 65.5l50 -25q-128 -82 -191 -142t-63 -124q0 -37 26 -57.5t70 -20.5q53 0 104 35l-24 -117q-54 -33 -125 -33z" />
    <glyph glyph-name="uni0394" unicode="&#x394;" horiz-adv-x="1445" 
d="M920 1440l360 -1440h-1337zM190 131h918l-246 997z" />
    <glyph glyph-name="uni03A9" unicode="&#x3a9;" horiz-adv-x="1667" 
d="M877 180q104 11 204.5 69t177.5 145.5t124 204.5t47 239q0 207 -130.5 336t-345.5 129q-124 0 -238 -50.5t-198 -136.5t-134 -207t-50 -256q0 -98 29 -187t73 -149t91 -98t87 -49l-8 -39l-28 -131h-541l29 131h378q-108 77 -178.5 216t-70.5 310q0 154 58.5 296.5
t159 249.5t244 171t304.5 64q269 0 439.5 -167t170.5 -429q0 -232 -137.5 -428.5t-350.5 -282.5h353l-29 -131h-569l28 131z" />
    <glyph glyph-name="uni03BC" unicode="&#x3bc;" horiz-adv-x="1226" 
d="M416 1047l-131 -617q-13 -81 4.5 -143.5t56.5 -99t88.5 -54.5t106.5 -18q127 0 230.5 91t133.5 240l-2 -10l131 611h137l-225 -1047h-135l41 188q-53 -90 -147 -147t-213 -57q-81 0 -154.5 30.5t-122.5 89.5l-117 -546h-135l180 850q1 5 4.5 17.5t4.5 20.5l127 601h137z
" />
    <glyph glyph-name="pi" unicode="&#x3c0;" horiz-adv-x="1318" 
d="M305 0h-135l195 915h-224l29 132h1163l-28 -132h-238l-133 -620q-17 -82 17 -124t106 -42h80l-29 -129h-90q-120 0 -184 77.5t-37 205.5l135 632h-430z" />
    <glyph glyph-name="uni0400" unicode="&#x400;" horiz-adv-x="1163" 
d="M575 1896h144l227 -307h-143zM84 0l303 1421h834l-29 -131h-694l-107 -502h658l-29 -129h-658l-112 -528h696l-28 -131h-834z" />
    <glyph glyph-name="uni0401" unicode="&#x401;" horiz-adv-x="1163" 
d="M698 1837q40 0 68.5 -27.5t28.5 -66.5q0 -38 -28.5 -65t-68.5 -27t-67 27t-27 65q0 40 27 67t67 27zM84 0l303 1421h834l-29 -131h-694l-107 -502h658l-29 -129h-658l-112 -528h696l-28 -131h-834zM975 1743q0 40 27 67t67 27t67 -27t27 -67q0 -38 -27 -65t-67 -27
t-67 27t-27 65z" />
    <glyph glyph-name="uni0402" unicode="&#x402;" horiz-adv-x="1712" 
d="M901 -358l27 131h153q97 0 158 51t88 172l98 459q27 126 -22.5 178.5t-171.5 52.5h-490l-145 -686h-137l274 1290h-500l27 131h1141l-29 -131h-502l-100 -473h487q176 0 260.5 -89t45.5 -275l-105 -486q-67 -325 -377 -325h-180z" />
    <glyph glyph-name="uni0403" unicode="&#x403;" horiz-adv-x="1095" 
d="M1217 1421l-29 -131h-690l-277 -1290h-137l303 1421h830zM754 1589l329 307h170l-331 -307h-168z" />
    <glyph glyph-name="uni0404" unicode="&#x404;" horiz-adv-x="1441" 
d="M801 -16q-142 0 -263 49t-204 134.5t-129.5 203t-46.5 252.5q0 229 111 416.5t300.5 293t415.5 105.5q96 0 179.5 -20t140.5 -52.5t94 -64.5t59 -64l-37 -178q-24 42 -60 80.5t-89.5 77.5t-130.5 62.5t-166 23.5q-238 0 -419 -144.5t-234 -370.5h761l-26 -129h-754v-28
q0 -221 140 -366.5t372 -145.5q129 0 243 51t202 131l-39 -180q-163 -137 -420 -137z" />
    <glyph glyph-name="uni0405" unicode="&#x405;" horiz-adv-x="1214" 
d="M1145 1067q-75 113 -175 176.5t-245 63.5q-137 0 -231.5 -66t-94.5 -182q0 -130 197 -228l156 -75q60 -29 107 -59.5t95.5 -76t75.5 -106.5t27 -133q0 -184 -134 -290.5t-343 -106.5q-181 0 -323 67.5t-187 141.5l36 176q30 -48 69.5 -89.5t96 -80.5t135 -61.5
t168.5 -22.5q153 0 246.5 70t93.5 186q0 46 -17 85.5t-49 70t-65.5 53t-78.5 43.5l-170 82q-277 131 -277 342q0 91 42 167.5t110 124t150 73.5t167 26q160 0 280 -61.5t173 -141.5z" />
    <glyph glyph-name="uni0406" unicode="&#x406;" horiz-adv-x="530" 
d="M524 1421l-303 -1421h-137l303 1421h137z" />
    <glyph glyph-name="uni0407" unicode="&#x407;" horiz-adv-x="530" 
d="M524 1421l-303 -1421h-137l303 1421h137zM244 1743q0 40 27 67t67 27t68 -27t28 -67q0 -38 -28 -65t-68 -27t-67 27t-27 65zM614 1743q0 40 27.5 67t67.5 27t67 -27t27 -67q0 -38 -27 -65t-67 -27t-67.5 27t-27.5 65z" />
    <glyph glyph-name="uni0408" unicode="&#x408;" horiz-adv-x="749" 
d="M614 1421h138l-234 -1095q-34 -164 -127 -245t-250 -81h-184l29 131h155q97 0 158 51t88 172z" />
    <glyph glyph-name="uni0409" unicode="&#x409;" horiz-adv-x="2086" 
d="M14 0h-90l29 131h59q108 0 181.5 71t109.5 244l209 975h893l-123 -575h281q186 0 297.5 -103.5t111.5 -267.5q0 -144 -67.5 -253t-182.5 -165.5t-260 -56.5h-497l274 1290h-625l-188 -874q-45 -210 -151 -313t-261 -103zM1130 131h318q168 0 275.5 89.5t107.5 244.5
q0 111 -75 180.5t-206 69.5h-295z" />
    <glyph glyph-name="uni040A" unicode="&#x40a;" horiz-adv-x="2150" 
d="M221 0h-137l303 1421h137l-127 -592h807l127 592h137l-127 -592h273q191 0 305.5 -102.5t114.5 -265.5q0 -200 -141.5 -330.5t-383.5 -130.5h-481l150 698h-807zM1192 131h299q185 0 293 85.5t108 238.5q0 107 -73.5 175t-216.5 68h-287z" />
    <glyph glyph-name="uni040B" unicode="&#x40b;" horiz-adv-x="1712" 
d="M1425 455q27 126 -22.5 178.5t-171.5 52.5h-490l-145 -686h-137l274 1290h-500l27 131h1141l-29 -131h-502l-100 -473h487q176 0 260.5 -89t45.5 -275l-97 -453h-137z" />
    <glyph glyph-name="uni040C" unicode="&#x40c;" horiz-adv-x="1280" 
d="M1194 1421h195l-818 -688l559 -733h-174l-575 745zM84 0l303 1421h137l-303 -1421h-137zM766 1589l330 307h170l-332 -307h-168z" />
    <glyph glyph-name="uni040D" unicode="&#x40d;" horiz-adv-x="1511" 
d="M524 1421l-229 -1083l1214 1100l-305 -1438h-137l231 1090l-1216 -1106l305 1437h137zM725 1896h143l228 -307h-144z" />
    <glyph glyph-name="uni040E" unicode="&#x40e;" horiz-adv-x="1325" 
d="M176 0l29 131h86q180 0 280 158l21 33l-346 1099h143l299 -958l610 958h162l-745 -1157q-92 -142 -188 -203t-224 -61h-127zM641 1855h117q-14 -71 25 -120t112 -49q72 0 128.5 48.5t66.5 120.5h118q-20 -128 -107 -203t-208 -75q-123 0 -198.5 77.5t-53.5 200.5z" />
    <glyph glyph-name="uni040F" unicode="&#x40f;" horiz-adv-x="1509" 
d="M524 1421l-274 -1290h840l276 1290h137l-303 -1421h-491l-66 -311h-131l66 311h-494l303 1421h137z" />
    <glyph glyph-name="uni0410" unicode="&#x410;" horiz-adv-x="1445" 
d="M-57 0l977 1440l360 -1440h-143l-101 410h-659l-277 -410h-157zM465 541h539l-144 583z" />
    <glyph glyph-name="uni0411" unicode="&#x411;" horiz-adv-x="1222" 
d="M692 834q188 0 301 -101t113 -264q0 -144 -69 -251.5t-184.5 -162.5t-260.5 -55h-508l303 1421h830l-29 -131h-690l-99 -456h293zM250 131h325q170 0 280 88t110 240q0 110 -77 178t-208 68h-307z" />
    <glyph glyph-name="uni0412" unicode="&#x412;" horiz-adv-x="1255" 
d="M84 0l303 1421h430q175 0 276 -90t101 -231q0 -131 -78 -231.5t-205 -129.5q88 -28 151.5 -105.5t63.5 -191.5q0 -143 -71.5 -244t-193 -149.5t-281.5 -48.5h-496zM250 131h334q181 0 292 79t111 234q0 107 -78 168.5t-209 61.5h-333zM393 805h297q166 0 263.5 67.5
t97.5 208.5q0 95 -67.5 152t-190.5 57h-295z" />
    <glyph glyph-name="uni0413" unicode="&#x413;" horiz-adv-x="1095" 
d="M1217 1421l-29 -131h-690l-277 -1290h-137l303 1421h830z" />
    <glyph glyph-name="uni0414" unicode="&#x414;" horiz-adv-x="1480" 
d="M1311 131l-88 -416h-131l61 285h-1108l-63 -285h-132l91 416h127q105 73 171 199.5t115 355.5l156 735h893l-275 -1290h183zM240 131h751l248 1159h-627l-135 -635q-86 -402 -237 -524z" />
    <glyph glyph-name="uni0415" unicode="&#x415;" horiz-adv-x="1163" 
d="M84 0l303 1421h834l-29 -131h-694l-107 -502h658l-29 -129h-658l-112 -528h696l-28 -131h-834z" />
    <glyph glyph-name="uni0416" unicode="&#x416;" horiz-adv-x="1892" 
d="M924 745l-811 -745h-187l819 762l-477 659h160zM766 0l303 1421h137l-143 -673l760 673h182l-762 -682l498 -739h-166l-514 743l-158 -743h-137z" />
    <glyph glyph-name="uni0417" unicode="&#x417;" horiz-adv-x="1204" 
d="M813 737q100 -25 175 -105.5t75 -203.5q0 -135 -74.5 -237.5t-196 -154.5t-268.5 -52q-163 0 -295.5 63.5t-177.5 130.5l37 172q22 -42 60.5 -81.5t93.5 -75t132 -57t163 -21.5q101 0 188.5 36.5t144 109.5t56.5 169q0 115 -97.5 180.5t-253.5 65.5h-184l27 125h180
q112 0 204 30.5t151 96.5t59 157q0 103 -85.5 162.5t-215.5 59.5q-247 0 -443 -191l41 189q63 59 172.5 96t243.5 37q188 0 308 -93.5t120 -244.5q0 -79 -31.5 -147.5t-82 -113t-109 -71t-117.5 -31.5z" />
    <glyph glyph-name="uni0418" unicode="&#x418;" horiz-adv-x="1511" 
d="M524 1421l-229 -1083l1214 1100l-305 -1438h-137l231 1090l-1216 -1106l305 1437h137z" />
    <glyph glyph-name="uni0419" unicode="&#x419;" horiz-adv-x="1511" 
d="M524 1421l-229 -1083l1214 1100l-305 -1438h-137l231 1090l-1216 -1106l305 1437h137zM760 1855h117q-14 -71 25 -120t112 -49q72 0 128 48.5t66 120.5h119q-20 -128 -107 -203t-208 -75q-123 0 -198.5 77.5t-53.5 200.5z" />
    <glyph glyph-name="uni041A" unicode="&#x41a;" horiz-adv-x="1280" 
d="M1194 1421h195l-818 -688l559 -733h-174l-575 745zM84 0l303 1421h137l-303 -1421h-137z" />
    <glyph glyph-name="uni041B" unicode="&#x41b;" horiz-adv-x="1411" 
d="M14 0h-90l29 131h59q108 0 181.5 71t109.5 244l209 975h893l-303 -1421h-137l274 1290h-625l-188 -874q-45 -210 -151 -313t-261 -103z" />
    <glyph glyph-name="uni041C" unicode="&#x41c;" horiz-adv-x="1751" 
d="M84 0l307 1438l522 -776l836 776l-305 -1438h-137l227 1067l-645 -604l-432 649l-236 -1112h-137z" />
    <glyph glyph-name="uni041D" unicode="&#x41d;" horiz-adv-x="1511" 
d="M1370 1421h137l-303 -1421h-137l143 674h-845l-144 -674h-137l303 1421h137l-131 -616h846z" />
    <glyph glyph-name="uni041E" unicode="&#x41e;" horiz-adv-x="1650" 
d="M791 119q134 0 254 56t204 149t133.5 217.5t49.5 257.5q0 222 -140 363t-354 141q-135 0 -255.5 -56.5t-204 -150t-132.5 -218t-49 -257.5q0 -221 139.5 -361.5t354.5 -140.5zM156 618q0 161 60 310.5t163.5 262t253 180t317.5 67.5q176 0 318.5 -82.5t223.5 -228.5
t81 -326q0 -160 -60 -309t-163.5 -261t-252.5 -179.5t-317 -67.5q-177 0 -319.5 82t-223.5 227t-81 325z" />
    <glyph glyph-name="uni041F" unicode="&#x41f;" horiz-adv-x="1511" 
d="M1507 1421l-303 -1421h-137l274 1290h-843l-277 -1290h-137l303 1421h1120z" />
    <glyph glyph-name="uni0420" unicode="&#x420;" horiz-adv-x="1193" 
d="M676 711q168 0 275.5 89t107.5 242q0 111 -74.5 179.5t-204.5 68.5h-282l-125 -579h303zM84 0l303 1421h406q186 0 296.5 -102t110.5 -266q0 -216 -143.5 -344.5t-364.5 -128.5h-348l-123 -580h-137z" />
    <glyph glyph-name="uni0421" unicode="&#x421;" horiz-adv-x="1439" 
d="M1419 1059q-24 42 -60 80.5t-89.5 77.5t-130.5 62.5t-166 23.5q-134 0 -257.5 -52t-214.5 -141t-145.5 -214.5t-54.5 -264.5q0 -144 63.5 -260.5t181.5 -184t267 -67.5q130 0 244 51.5t200 130.5l-36 -180q-167 -137 -422 -137q-185 0 -332 84t-228 229.5t-81 325.5
q0 171 66.5 323.5t178.5 259.5t264 169.5t318 62.5q95 0 178.5 -20t140.5 -52.5t95 -64.5t59 -64z" />
    <glyph glyph-name="uni0422" unicode="&#x422;" horiz-adv-x="1280" 
d="M233 1290l27 131h1141l-27 -131h-502l-276 -1290h-137l274 1290h-500z" />
    <glyph glyph-name="uni0423" unicode="&#x423;" horiz-adv-x="1325" 
d="M176 0l29 131h86q180 0 280 158l21 33l-346 1099h143l299 -958l610 958h162l-745 -1157q-92 -142 -188 -203t-224 -61h-127z" />
    <glyph glyph-name="uni0424" unicode="&#x424;" horiz-adv-x="1763" 
d="M694 113q-103 0 -200.5 38.5t-174 107t-123 171t-46.5 221.5q0 149 60.5 278.5t162.5 218.5t239.5 140t288.5 51h86l39 181h137l-39 -181h31q103 0 201 -38.5t174.5 -107t123 -171t46.5 -221.5q0 -149 -60.5 -278.5t-163 -218.5t-240 -140t-288.5 -51h-84l-39 -179h-135
l37 179h-33zM291 653q0 -79 25 -147t66 -115.5t94.5 -81.5t110.5 -50.5t113 -16.5h56l205 968h-60q-123 0 -234.5 -39.5t-194.5 -110.5t-132 -177t-49 -230zM891 242h57q99 0 190.5 25t167.5 73.5t133 115t88.5 155t31.5 188.5q0 98 -38 178.5t-98.5 130t-131.5 76
t-142 26.5h-51z" />
    <glyph glyph-name="uni0425" unicode="&#x425;" horiz-adv-x="1388" 
d="M416 1421l338 -598l575 598h184l-688 -706l396 -715h-160l-342 621l-594 -621h-180l702 733l-387 688h156z" />
    <glyph glyph-name="uni0426" unicode="&#x426;" horiz-adv-x="1564" 
d="M1397 131l-90 -416h-131l63 285h-1155l303 1421h137l-274 -1290h829l275 1290h137l-274 -1290h180z" />
    <glyph glyph-name="uni0427" unicode="&#x427;" horiz-adv-x="1359" 
d="M1217 1421h137l-303 -1421h-138l131 610h-507q-176 0 -260.5 89.5t-45.5 277.5l97 444h137l-96 -448q-27 -126 22.5 -179t171.5 -53h508z" />
    <glyph glyph-name="uni0428" unicode="&#x428;" horiz-adv-x="2021" 
d="M84 0l303 1421h137l-274 -1290h608l275 1290h137l-275 -1290h607l276 1290h137l-303 -1421h-1628z" />
    <glyph glyph-name="uni0429" unicode="&#x429;" horiz-adv-x="2091" 
d="M1921 131l-88 -416h-131l61 285h-1679l303 1421h137l-274 -1290h608l275 1290h137l-275 -1290h609l274 1290h137l-274 -1290h180z" />
    <glyph glyph-name="uni042A" unicode="&#x42a;" horiz-adv-x="1484" 
d="M233 1290l27 131h543l-123 -575h281q186 0 297.5 -103.5t111.5 -267.5q0 -144 -67.5 -253t-182.5 -165.5t-260 -56.5h-498l277 1290h-406zM528 131h318q168 0 275.5 89.5t107.5 244.5q0 111 -75 180.5t-206 69.5h-295z" />
    <glyph glyph-name="uni042B" unicode="&#x42b;" horiz-adv-x="1683" 
d="M1677 1421l-303 -1421h-137l303 1421h137zM84 0l303 1421h137l-123 -575h281q186 0 298 -103.5t112 -267.5q0 -144 -67.5 -253t-182.5 -165.5t-260 -56.5h-498zM250 131h317q168 0 275.5 89.5t107.5 244.5q0 111 -74.5 180.5t-205.5 69.5h-295z" />
    <glyph glyph-name="uni042C" unicode="&#x42c;" horiz-adv-x="1206" 
d="M84 0l303 1421h137l-123 -575h281q186 0 298 -103.5t112 -267.5q0 -144 -67.5 -253t-182.5 -165.5t-260 -56.5h-498zM250 131h317q168 0 275.5 89.5t107.5 244.5q0 111 -74.5 180.5t-205.5 69.5h-295z" />
    <glyph glyph-name="uni042D" unicode="&#x42d;" horiz-adv-x="1439" 
d="M551 -16q-182 0 -312.5 63.5t-177.5 136.5l39 178q23 -42 62 -82t96 -77.5t136.5 -60.5t168.5 -23q241 0 420.5 151.5t222.5 388.5h-764l27 129h748q0 227 -136 371t-362 144q-137 0 -255 -53t-202 -130l37 180q171 138 436 138q186 0 329 -82.5t220.5 -228.5t77.5 -332
q0 -172 -64 -324t-173 -258t-258.5 -167.5t-315.5 -61.5z" />
    <glyph glyph-name="uni042E" unicode="&#x42e;" horiz-adv-x="2117" 
d="M221 0h-137l303 1421h137l-135 -633h252q29 134 98.5 252.5t169 207t232 139.5t278.5 51q175 0 317.5 -82.5t224 -228.5t81.5 -326q0 -160 -60 -309t-164 -261t-253.5 -179.5t-317.5 -67.5q-267 0 -444.5 180.5t-177.5 453.5v39h-265zM766 621q0 -221 139.5 -361.5
t354.5 -140.5q134 0 253.5 56t203 149t132.5 217t49 258q0 223 -138.5 363.5t-352.5 140.5q-135 0 -255.5 -56.5t-204 -150t-132.5 -218t-49 -257.5z" />
    <glyph glyph-name="uni042F" unicode="&#x42f;" horiz-adv-x="1286" 
d="M840 0l121 567h-287h-31l-508 -567h-174l533 600q-112 44 -179 135.5t-67 210.5q0 142 69.5 251.5t186 166.5t260.5 57h516l-303 -1421h-137zM389 956q0 -113 83.5 -185.5t215.5 -72.5h301l127 592h-340q-168 0 -277.5 -91.5t-109.5 -242.5z" />
    <glyph glyph-name="uni0430" unicode="&#x430;" horiz-adv-x="1110" 
d="M262 938q59 52 155.5 88.5t207.5 36.5q194 0 294 -113t62 -291l-141 -659h-133l41 190q-49 -85 -149.5 -145.5t-231.5 -60.5q-137 0 -229.5 77.5t-92.5 198.5q0 78 32.5 139.5t92 102.5t132 66.5t161.5 39.5l385 62q27 123 -43.5 193.5t-192.5 70.5q-109 0 -211 -43.5
t-174 -114.5zM184 276q0 -75 60 -121t149 -46q85 0 168.5 34.5t146.5 100t80 147.5v-6l35 164l-354 -55q-285 -45 -285 -218z" />
    <glyph glyph-name="uni0431" unicode="&#x431;" horiz-adv-x="1302" 
d="M627 -18q-124 0 -226.5 47t-168.5 134t-90.5 209.5t8.5 272.5q77 369 229.5 544t458.5 236q193 40 296 67.5t201 72.5l-28 -150q-95 -42 -195 -67.5t-270 -55.5q-98 -18 -172 -47t-126 -66.5t-91 -92t-64 -114t-47 -141.5q36 76 143 138.5t260 62.5q86 0 167 -31.5
t144.5 -87.5t101.5 -142t38 -187q0 -120 -43 -230t-117.5 -192t-181 -131t-227.5 -49zM283 567q-27 -122 11 -227t126 -165t203 -60q181 0 306.5 132.5t125.5 317.5q0 149 -96.5 243.5t-239.5 94.5q-100 0 -187 -33.5t-156.5 -111.5t-92.5 -191z" />
    <glyph glyph-name="uni0432" unicode="&#x432;" horiz-adv-x="1052" 
d="M55 0l226 1047h362q138 0 216.5 -70t78.5 -176q0 -95 -56.5 -166t-138.5 -94q65 -17 113.5 -74t48.5 -145q0 -153 -111.5 -237.5t-287.5 -84.5h-451zM221 127h291q121 0 189.5 51.5t68.5 149.5q0 68 -48.5 107.5t-135.5 39.5h-293zM319 596h240q108 0 173 48t65 136
q0 63 -45.5 101.5t-128.5 38.5h-236z" />
    <glyph glyph-name="uni0433" unicode="&#x433;" horiz-adv-x="911" 
d="M967 1047l-29 -132h-549l-196 -915h-138l226 1047h686z" />
    <glyph glyph-name="uni0434" unicode="&#x434;" horiz-adv-x="1226" 
d="M1075 129l-84 -401h-131l60 272h-873l-59 -272h-129l86 401h114q166 116 230 426l104 492h717l-197 -918h162zM223 129h555l168 789h-452l-82 -386q-34 -166 -81.5 -257.5t-107.5 -145.5z" />
    <glyph glyph-name="uni0435" unicode="&#x435;" horiz-adv-x="1185" 
d="M580 -16q-127 0 -234 56t-173.5 165t-66.5 250q0 163 69.5 300.5t202.5 222.5t304 85q139 0 242 -69.5t146 -183.5t17 -243l-14 -78h-827q-17 -162 86 -270t260 -108q217 0 401 184l-41 -182q-64 -57 -150 -93t-222 -36zM268 608h688q23 144 -62 236t-232 92
q-149 0 -257 -95.5t-137 -232.5z" />
    <glyph glyph-name="uni0436" unicode="&#x436;" horiz-adv-x="1497" 
d="M569 0l226 1047h133l-223 -1047h-136zM-80 0l590 569l-348 478h157l367 -492l-580 -555h-186zM823 555l555 492h181l-560 -506l355 -541h-164z" />
    <glyph glyph-name="uni0437" unicode="&#x437;" horiz-adv-x="989" 
d="M651 541q72 -14 131.5 -74.5t59.5 -151.5q0 -78 -37.5 -142.5t-98 -105t-133 -62t-147.5 -21.5q-140 0 -251.5 47t-156.5 106l33 158q45 -74 143.5 -129t225.5 -55q51 0 99.5 12t91 36t68.5 65t26 93q0 79 -68.5 118.5t-183.5 39.5h-177l27 125h182q117 0 194 48.5
t77 139.5q0 69 -58.5 109.5t-169.5 40.5q-93 0 -191 -35.5t-165 -99.5l35 162q57 45 146 71.5t194 26.5q165 0 257.5 -72.5t92.5 -185.5q0 -105 -73 -178t-173 -86z" />
    <glyph glyph-name="uni0438" unicode="&#x438;" horiz-adv-x="1216" 
d="M53 -18l228 1065h135l-158 -740l905 756l-227 -1063h-135l157 739z" />
    <glyph glyph-name="uni0439" unicode="&#x439;" horiz-adv-x="1216" 
d="M629 1481q-14 -71 25 -120.5t112 -49.5q72 0 128.5 49t66.5 121h118q-20 -128 -107 -203.5t-208 -75.5q-123 0 -198.5 78t-53.5 201h117zM53 -18l228 1065h135l-158 -740l905 756l-227 -1063h-135l157 739z" />
    <glyph glyph-name="uni043A" unicode="&#x43a;" horiz-adv-x="1030" 
d="M416 1047l-105 -490l598 490h181l-601 -502l408 -545h-164l-422 557l-118 -557h-138l226 1047h135z" />
    <glyph glyph-name="uni043B" unicode="&#x43b;" horiz-adv-x="1165" 
d="M1108 1047l-223 -1047h-135l194 918h-452l-117 -560q-79 -358 -369 -358h-88l29 129h53q108 0 165.5 72.5t90.5 220.5l135 625h717z" />
    <glyph glyph-name="uni043C" unicode="&#x43c;" horiz-adv-x="1411" 
d="M283 1063l419 -565l658 565l-227 -1063h-138l158 731l-475 -412l-324 445l-161 -764h-138z" />
    <glyph glyph-name="uni043D" unicode="&#x43d;" horiz-adv-x="1204" 
d="M1012 1047h137l-225 -1047h-136l101 471h-596l-100 -471h-138l226 1047h135l-97 -447h596z" />
    <glyph glyph-name="uni043E" unicode="&#x43e;" horiz-adv-x="1267" 
d="M573 -16q-197 0 -332 136t-135 341q0 117 45 227t122.5 192.5t188 132.5t234.5 50q196 0 331.5 -135t135.5 -338q0 -156 -75 -294.5t-212 -225t-303 -86.5zM246 467q0 -154 97 -253t241 -99q117 0 218.5 62t161.5 170t60 235q0 152 -98 251t-242 99q-179 0 -308.5 -136
t-129.5 -329z" />
    <glyph glyph-name="uni043F" unicode="&#x43f;" horiz-adv-x="1204" 
d="M1149 1047l-225 -1047h-136l197 915h-596l-196 -915h-138l226 1047h868z" />
    <glyph glyph-name="uni0440" unicode="&#x440;" horiz-adv-x="1312" 
d="M416 1047l-43 -199q64 98 170 157.5t235 59.5q87 0 165.5 -32t137 -90t93 -145.5t34.5 -191.5q0 -122 -43.5 -236t-117.5 -199t-179 -136t-221 -51q-160 0 -263 91t-128 220l-158 -737h-135l318 1489h135zM313 565q-21 -100 -1.5 -182.5t66.5 -142t116 -92.5t147 -33
q117 0 216 67.5t154.5 176.5t55.5 231q0 82 -28.5 149.5t-75 110t-104 65.5t-118.5 23q-69 0 -134.5 -22.5t-124.5 -66.5t-103.5 -117.5t-65.5 -166.5z" />
    <glyph glyph-name="uni0441" unicode="&#x441;" horiz-adv-x="1103" 
d="M1047 729q-14 25 -32.5 48.5t-50 53t-68 51t-88 36t-108.5 14.5q-191 0 -321.5 -133t-130.5 -332q0 -154 97.5 -253t252.5 -99q201 0 352 164l-37 -183q-120 -112 -333 -112q-201 0 -337.5 136.5t-136.5 340.5q0 165 77.5 302.5t216.5 218.5t309 81q140 0 237 -54.5
t135 -119.5z" />
    <glyph glyph-name="uni0442" unicode="&#x442;" horiz-adv-x="1017" 
d="M141 915l29 132h901l-29 -132h-380l-197 -915h-137l196 915h-383z" />
    <glyph glyph-name="uni0443" unicode="&#x443;" horiz-adv-x="1099" 
d="M387 -203q-77 -122 -166 -180.5t-215 -58.5h-133l29 129h100q85 0 144.5 38t115.5 125l115 177l-225 1020h143l184 -861l533 861h162z" />
    <glyph glyph-name="uni0444" unicode="&#x444;" horiz-adv-x="1548" 
d="M563 -16q-87 0 -169 33t-147 91.5t-104 147.5t-39 193q0 168 85.5 310t228.5 223t307 81h96l94 444h136l-95 -444h31q87 0 169 -33t147 -91.5t104 -147.5t39 -193q0 -168 -85.5 -310t-228.5 -223t-307 -81h-98l-90 -426h-137l90 426h-27zM242 451q0 -154 102 -247
t234 -93h40l177 825h-84q-90 0 -175.5 -37.5t-150 -101.5t-104 -155t-39.5 -191zM754 111h84q90 0 176 37.5t150.5 101.5t103.5 155t39 191q0 154 -101 247t-233 93h-43z" />
    <glyph glyph-name="uni0445" unicode="&#x445;" horiz-adv-x="1099" 
d="M326 1047l243 -412l408 412h176l-512 -519l301 -528h-154l-251 436l-428 -436h-175l529 541l-293 506h156z" />
    <glyph glyph-name="uni0446" unicode="&#x446;" horiz-adv-x="1261" 
d="M1110 129l-86 -401h-129l57 272h-897l226 1047h135l-197 -918h592l197 918h137l-197 -918h162z" />
    <glyph glyph-name="uni0447" unicode="&#x447;" horiz-adv-x="1103" 
d="M911 1047h136l-224 -1047h-137l94 434h-325q-78 0 -138.5 18.5t-103.5 58.5t-56 101.5t3 147.5l63 287h135l-61 -287q-42 -195 186 -195h324z" />
    <glyph glyph-name="uni0448" unicode="&#x448;" horiz-adv-x="1673" 
d="M55 0l226 1047h135l-197 -918h465l197 918h135l-197 -918h465l197 918h135l-223 -1047h-1338z" />
    <glyph glyph-name="uni0449" unicode="&#x449;" horiz-adv-x="1732" 
d="M1581 129l-84 -401h-131l59 272h-1370l226 1047h135l-197 -918h465l197 918h135l-197 -918h465l197 918h135l-197 -918h162z" />
    <glyph glyph-name="uni044A" unicode="&#x44a;" horiz-adv-x="1228" 
d="M758 680q156 0 253 -85.5t97 -221.5q0 -171 -114 -272t-308 -101h-403l196 918h-338l29 129h473l-78 -367h193zM446 129h234q131 0 210 62.5t79 175.5q0 81 -60 132.5t-164 51.5h-208z" />
    <glyph glyph-name="uni044B" unicode="&#x44b;" horiz-adv-x="1413" 
d="M1356 1047l-223 -1047h-136l224 1047h135zM55 0l226 1047h135l-78 -367h194q156 0 253.5 -86t97.5 -221q0 -171 -114.5 -272t-309.5 -101h-404zM219 129h234q131 0 210.5 62.5t79.5 175.5q0 82 -60 133t-165 51h-209z" />
    <glyph glyph-name="uni044C" unicode="&#x44c;" horiz-adv-x="1001" 
d="M532 680q156 0 253.5 -86t97.5 -221q0 -171 -114.5 -272t-309.5 -101h-404l226 1047h135l-78 -367h194zM219 129h234q131 0 210.5 62.5t79.5 175.5q0 82 -60 133t-165 51h-209z" />
    <glyph glyph-name="uni044D" unicode="&#x44d;" horiz-adv-x="1103" 
d="M416 -16q-148 0 -251.5 54t-141.5 118l36 161q17 -31 44.5 -62t71.5 -64.5t109 -54.5t140 -21q165 0 280 98t144 262h-565l26 123h549q-6 159 -98.5 246.5t-243.5 87.5q-109 0 -205 -49t-157 -115l39 182q49 48 141.5 80.5t200.5 32.5q201 0 330.5 -129.5t129.5 -347.5
q0 -169 -71.5 -305.5t-204.5 -216.5t-303 -80z" />
    <glyph glyph-name="uni044E" unicode="&#x44e;" horiz-adv-x="1669" 
d="M973 -16q-96 0 -181.5 35.5t-148 98t-99 151.5t-36.5 190v12h-215l-100 -471h-138l226 1047h135l-97 -447h205q49 198 207.5 330.5t366.5 132.5q197 0 332 -134.5t135 -336.5q0 -116 -45 -226.5t-122 -195t-188.5 -135.5t-236.5 -51zM647 465q0 -153 96 -251.5t240 -98.5
q181 0 311.5 137.5t130.5 331.5q0 152 -97 250t-243 98q-117 0 -217.5 -61.5t-160.5 -169.5t-60 -236z" />
    <glyph glyph-name="uni044F" unicode="&#x44f;" horiz-adv-x="1077" 
d="M524 373h-22l-373 -373h-176l403 403q-89 36 -139.5 107.5t-50.5 165.5q0 166 116.5 268.5t307.5 102.5h432l-223 -1047h-137l79 373h-217zM305 682q0 -81 64 -132.5t168 -51.5h231l90 420h-262q-131 0 -211 -61.5t-80 -174.5z" />
    <glyph glyph-name="uni0450" unicode="&#x450;" horiz-adv-x="1185" 
d="M580 -16q-127 0 -234 56t-173.5 165t-66.5 250q0 163 69.5 300.5t202.5 222.5t304 85q139 0 242 -69.5t146 -183.5t17 -243l-14 -78h-827q-17 -162 86 -270t260 -108q217 0 401 184l-41 -182q-64 -57 -150 -93t-222 -36zM268 608h688q23 144 -62 236t-232 92
q-149 0 -257 -95.5t-137 -232.5zM481 1522h144l227 -308h-143z" />
    <glyph glyph-name="uni0451" unicode="&#x451;" horiz-adv-x="1185" 
d="M580 -16q-127 0 -234 56t-173.5 165t-66.5 250q0 163 69.5 300.5t202.5 222.5t304 85q139 0 242 -69.5t146 -183.5t17 -243l-14 -78h-827q-17 -162 86 -270t260 -108q217 0 401 184l-41 -182q-64 -57 -150 -93t-222 -36zM268 608h688q23 144 -62 236t-232 92
q-149 0 -257 -95.5t-137 -232.5zM512 1368q0 40 27 67t67 27t68 -27t28 -67q0 -38 -28 -65t-68 -27t-67 27t-27 65zM883 1368q0 40 27 67t67 27t67 -27t27 -67q0 -38 -27 -65t-67 -27t-67 27t-27 65z" />
    <glyph glyph-name="uni0452" unicode="&#x452;" horiz-adv-x="1216" 
d="M520 1534l-35 -162h291l-26 -117h-289l-84 -395q50 89 144 146t214 57q80 0 150 -29t123 -86.5t71.5 -144.5t-4.5 -203l-160 -752q-60 -290 -323 -290h-160l29 129h129q156 0 194 180l152 715q17 94 5 161t-52 109t-91.5 61t-111.5 19q-128 0 -231 -90.5t-133 -239.5v4
l-129 -606h-138l269 1255h-164l24 117h164l35 162h137z" />
    <glyph glyph-name="uni0453" unicode="&#x453;" horiz-adv-x="911" 
d="M967 1047l-29 -132h-549l-196 -915h-138l226 1047h686zM575 1214l330 308h170l-332 -308h-168z" />
    <glyph glyph-name="uni0454" unicode="&#x454;" horiz-adv-x="1103" 
d="M580 -16q-203 0 -338.5 132t-135.5 345q0 165 77.5 302.5t216.5 218.5t309 81q138 0 235 -54t137 -120l-37 -160q-15 25 -32.5 48.5t-49 53t-67 50.5t-87 36t-108.5 15q-158 0 -278 -92t-160 -242h563l-26 -123h-553v-8q0 -162 97 -257t253 -95q201 0 352 164l-37 -183
q-116 -112 -331 -112z" />
    <glyph glyph-name="uni0455" unicode="&#x455;" horiz-adv-x="1001" 
d="M887 748q-54 88 -142 140t-204 52q-93 0 -161.5 -42.5t-68.5 -119.5q0 -28 11.5 -50.5t37.5 -41t44 -28.5t56 -27q9 -4 13 -6l141 -62q34 -16 48.5 -23.5t48.5 -27t51.5 -37.5t39 -45t31 -61t9.5 -74q0 -140 -109.5 -225.5t-281.5 -85.5q-137 0 -258.5 50.5t-157.5 110.5
l33 158q48 -80 150.5 -138.5t232.5 -58.5q110 0 180.5 47t70.5 128q0 58 -39 95t-106 64l-143 62q-89 38 -123 61q-119 78 -119 205q0 89 55 158t141 103t185 34q127 0 228.5 -48t140.5 -108z" />
    <glyph glyph-name="uni0456" unicode="&#x456;" horiz-adv-x="471" 
d="M416 1047l-223 -1047h-138l226 1047h135zM322 1368q0 38 27 65t67 27t68 -27t28 -65q0 -40 -28 -67t-68 -27t-67 27t-27 67z" />
    <glyph glyph-name="uni0457" unicode="&#x457;" horiz-adv-x="471" 
d="M416 1047l-223 -1047h-138l226 1047h135zM205 1368v2q0 35 24.5 59.5t61.5 24.5t61.5 -24.5t24.5 -59.5v-2q0 -34 -25 -59t-61 -25t-61 25t-25 59zM459 1368v2q0 35 24.5 59.5t59.5 24.5q37 0 62.5 -24.5t25.5 -59.5v-2q0 -34 -26 -59t-62 -25q-35 0 -59.5 25t-24.5 59z
" />
    <glyph glyph-name="uni0458" unicode="&#x458;" horiz-adv-x="477" 
d="M287 1047h135l-256 -1199q-60 -290 -324 -290h-159l28 129h129q157 0 195 180zM328 1368q0 38 27 65t67 27t68 -27t28 -65q0 -40 -28 -67t-68 -27t-67 27t-27 67z" />
    <glyph glyph-name="uni0459" unicode="&#x459;" horiz-adv-x="1695" 
d="M1108 1047l-78 -367h195q156 0 253 -85.5t97 -221.5q0 -171 -114.5 -272t-309.5 -101h-403l167 778l29 140h-452l-117 -560q-79 -358 -369 -358h-88l29 129h53q108 0 165.5 72.5t90.5 220.5l135 625h717zM911 129h234q131 0 211 62.5t80 175.5q0 81 -60.5 132.5
t-165.5 51.5h-209z" />
    <glyph glyph-name="uni045A" unicode="&#x45a;" horiz-adv-x="1716" 
d="M193 0h-138l226 1047h135l-88 -412h581l88 412h138l-88 -410h215q150 0 240.5 -77t90.5 -206q0 -164 -114 -259t-281 -95h-424l107 504h-582zM938 129h260q117 0 186.5 60t69.5 153q0 75 -55.5 121.5t-149.5 46.5h-229z" />
    <glyph glyph-name="uni045B" unicode="&#x45b;" horiz-adv-x="1216" 
d="M520 1534l-35 -162h291l-24 -117h-291l-84 -397q51 89 144.5 147t213.5 58q80 0 150 -29t123 -86.5t71.5 -144.5t-4.5 -203l-127 -600h-137l125 582q18 94 6 161t-52.5 109t-91.5 61t-112 19q-127 0 -230.5 -91.5t-133.5 -240.5l2 8l-131 -608h-138l269 1255h-164l24 117
h164l35 162h137z" />
    <glyph glyph-name="uni045C" unicode="&#x45c;" horiz-adv-x="1030" 
d="M416 1047l-105 -490l598 490h181l-601 -502l408 -545h-164l-422 557l-118 -557h-138l226 1047h135zM557 1214l330 308h170l-332 -308h-168z" />
    <glyph glyph-name="uni045D" unicode="&#x45d;" horiz-adv-x="1216" 
d="M479 1522h144l227 -308h-143zM53 -18l228 1065h135l-158 -740l905 756l-227 -1063h-135l157 739z" />
    <glyph glyph-name="uni045E" unicode="&#x45e;" horiz-adv-x="1099" 
d="M387 -203q-77 -122 -166 -180.5t-215 -58.5h-133l29 129h100q85 0 144.5 38t115.5 125l115 177l-225 1020h143l184 -861l533 861h162zM463 1481h117q-14 -71 25 -120.5t112 -49.5q72 0 127.5 49t66.5 121h119q-20 -128 -107 -203.5t-208 -75.5q-123 0 -198.5 78
t-53.5 201z" />
    <glyph glyph-name="uni045F" unicode="&#x45f;" horiz-adv-x="1204" 
d="M416 1047l-197 -918h596l197 918h135l-223 -1047h-369l-63 -299h-127l61 299h-371l226 1047h135z" />
    <glyph glyph-name="uni0490" unicode="&#x490;" horiz-adv-x="1093" 
d="M84 0l303 1421h698l68 314h129l-94 -445h-690l-277 -1290h-137z" />
    <glyph glyph-name="uni0491" unicode="&#x491;" horiz-adv-x="911" 
d="M55 0l226 1047h561l59 286h125l-88 -418h-549l-196 -915h-138z" />
    <glyph glyph-name="uni0492" unicode="&#x492;" horiz-adv-x="1128" 
d="M1251 1421l-28 -131h-691l-114 -532h403l-26 -127h-404l-135 -631h-137l135 631h-191l27 127h191l141 663h829z" />
    <glyph glyph-name="uni0493" unicode="&#x493;" horiz-adv-x="931" 
d="M78 0l96 455h-168l27 118h168l100 474h686l-29 -132h-548l-74 -342h350l-27 -118h-348l-98 -455h-135z" />
    <glyph glyph-name="uni0496" unicode="&#x496;" horiz-adv-x="1953" 
d="M1620 -285l61 285h-106l-514 743l-158 -743h-137l303 1421h137l-143 -673l760 673h182l-762 -682l410 -608h182l-90 -416h-125zM-74 0l819 762l-477 659h160l496 -676l-811 -745h-187z" />
    <glyph glyph-name="uni0497" unicode="&#x497;" horiz-adv-x="1521" 
d="M1417 129l-84 -401h-127l58 272h-74l-367 555l555 492h181l-560 -506l271 -412h147zM-80 0l590 569l-348 478h157l367 -492l-580 -555h-186zM569 0l226 1047h133l-223 -1047h-136z" />
    <glyph glyph-name="uni049A" unicode="&#x49a;" horiz-adv-x="1327" 
d="M995 -285l62 285h-101l-575 745l813 676h195l-818 -688l459 -602h180l-90 -416h-125zM84 0l303 1421h137l-303 -1421h-137z" />
    <glyph glyph-name="uni049B" unicode="&#x49b;" horiz-adv-x="1073" 
d="M969 129l-86 -401h-127l57 272h-80l-422 557l-118 -557h-138l226 1047h135l-105 -490l598 490h181l-601 -502l312 -416h168z" />
    <glyph glyph-name="uni04A2" unicode="&#x4a2;" horiz-adv-x="1581" 
d="M1370 1421h137l-274 -1290h180l-90 -416h-131l63 285h-188l143 674h-845l-144 -674h-137l303 1421h137l-131 -616h846z" />
    <glyph glyph-name="uni04A3" unicode="&#x4a3;" horiz-adv-x="1265" 
d="M1012 1047h137l-197 -918h162l-86 -401h-129l57 272h-168l101 471h-596l-100 -471h-138l226 1047h135l-97 -447h596z" />
    <glyph glyph-name="uni04A4" unicode="&#x4a4;" horiz-adv-x="2076" 
d="M2198 1421l-29 -131h-690l-275 -1290h-139l143 674h-843l-144 -674h-137l303 1421h137l-131 -616h844l131 616h830z" />
    <glyph glyph-name="uni04A5" unicode="&#x4a5;" horiz-adv-x="1644" 
d="M1012 1047h688l-29 -132h-549l-196 -915h-138l101 471h-596l-100 -471h-138l226 1047h135l-97 -447h596z" />
    <glyph glyph-name="uni04AC" unicode="&#x4ac;" horiz-adv-x="1280" 
d="M233 1290l27 131h1141l-27 -131h-502l-247 -1159h180l-90 -416h-131l63 285h-188l274 1290h-500z" />
    <glyph glyph-name="uni04AD" unicode="&#x4ad;" horiz-adv-x="1017" 
d="M141 915l29 132h901l-29 -132h-380l-170 -786h161l-86 -401h-129l58 272h-168l196 915h-383z" />
    <glyph glyph-name="uni04AE" unicode="&#x4ae;" horiz-adv-x="1343" 
d="M225 1421h150l330 -696l624 696h170l-745 -841l-125 -580h-137l124 578z" />
    <glyph glyph-name="uni04AF" unicode="&#x4af;" horiz-adv-x="1101" 
d="M287 1047l188 -846l547 846h154l-662 -1027l-100 -462h-135l98 467l-225 1022h135z" />
    <glyph glyph-name="uni04B0" unicode="&#x4b0;" horiz-adv-x="1343" 
d="M317 639h271l-363 782h150l330 -696l624 696h170l-692 -782h276l-30 -123h-314l-110 -516h-137l110 516h-315z" />
    <glyph glyph-name="uni04B1" unicode="&#x4b1;" horiz-adv-x="1101" 
d="M287 1047l188 -846l547 846h154l-639 -990h256l-29 -114h-268l-82 -385h-135l81 385h-278l29 114h260l-219 990h135z" />
    <glyph glyph-name="uni04B2" unicode="&#x4b2;" horiz-adv-x="1435" 
d="M1104 -285l61 285h-104l-342 621l-594 -621h-180l702 733l-387 688h156l338 -598l575 598h184l-688 -706l324 -584h170l-90 -416h-125z" />
    <glyph glyph-name="uni04B3" unicode="&#x4b3;" horiz-adv-x="1128" 
d="M1024 129l-86 -401h-127l57 272h-80l-251 436l-428 -436h-175l529 541l-293 506h156l243 -412l408 412h176l-512 -519l227 -399h156z" />
    <glyph glyph-name="uni04B6" unicode="&#x4b6;" horiz-adv-x="1429" 
d="M1217 1421h137l-275 -1290h183l-91 -416h-131l64 285h-191l131 610h-507q-176 0 -260.5 89.5t-45.5 277.5l97 444h137l-96 -448q-27 -126 22.5 -179t171.5 -53h508z" />
    <glyph glyph-name="uni04B7" unicode="&#x4b7;" horiz-adv-x="1163" 
d="M911 1047h136l-197 -918h162l-86 -401h-129l57 272h-168l94 434h-325q-78 0 -138.5 18.5t-103.5 58.5t-56 101.5t3 147.5l63 287h135l-61 -287q-42 -195 186 -195h324z" />
    <glyph glyph-name="uni04BA" unicode="&#x4ba;" horiz-adv-x="1359" 
d="M221 0h-137l303 1421h137l-125 -590h508q176 0 261 -89.5t44 -276.5l-100 -465h-137l100 469q27 126 -22.5 178.5t-171.5 52.5h-510z" />
    <glyph glyph-name="uni04BB" unicode="&#x4bb;" horiz-adv-x="1216" 
d="M520 1534l-143 -676q51 89 144.5 147t213.5 58q80 0 150 -29t123 -86.5t71.5 -144.5t-4.5 -203l-127 -600h-137l125 582q18 94 6 161t-52.5 109t-91.5 61t-112 19q-127 0 -230.5 -91.5t-133.5 -240.5l2 8l-131 -608h-138l328 1534h137z" />
    <glyph glyph-name="uni04C0" unicode="&#x4c0;" horiz-adv-x="530" 
d="M524 1421l-303 -1421h-137l303 1421h137z" />
    <glyph glyph-name="uni04C1" unicode="&#x4c1;" horiz-adv-x="1892" 
d="M924 745l-811 -745h-187l819 762l-477 659h160zM766 0l303 1421h137l-143 -673l760 673h182l-762 -682l498 -739h-166l-514 743l-158 -743h-137zM928 1855h116q-14 -71 25.5 -120t112.5 -49q72 0 128 48.5t66 120.5h119q-20 -128 -107 -203t-208 -75q-123 0 -198.5 77.5
t-53.5 200.5z" />
    <glyph glyph-name="uni04C2" unicode="&#x4c2;" horiz-adv-x="1497" 
d="M569 0l226 1047h133l-223 -1047h-136zM-80 0l590 569l-348 478h157l367 -492l-580 -555h-186zM653 1481h117q-14 -71 25 -120.5t112 -49.5q72 0 128.5 49t66.5 121h119q-20 -128 -107.5 -203.5t-208.5 -75.5q-123 0 -198.5 78t-53.5 201zM823 555l555 492h181l-560 -506
l355 -541h-164z" />
    <glyph glyph-name="uni04CF" unicode="&#x4cf;" horiz-adv-x="471" 
d="M520 1534l-327 -1534h-138l328 1534h137z" />
    <glyph glyph-name="uni04D0" unicode="&#x4d0;" horiz-adv-x="1445" 
d="M-57 0l977 1440l360 -1440h-143l-101 410h-659l-277 -410h-157zM465 541h539l-144 583zM729 1880h117q-14 -71 25 -120.5t112 -49.5q72 0 128.5 49t66.5 121h118q-20 -128 -107 -203t-208 -75q-123 0 -198.5 77.5t-53.5 200.5z" />
    <glyph glyph-name="uni04D1" unicode="&#x4d1;" horiz-adv-x="1110" 
d="M262 938q59 52 155.5 88.5t207.5 36.5q194 0 294 -113t62 -291l-141 -659h-133l41 190q-49 -85 -149.5 -145.5t-231.5 -60.5q-137 0 -229.5 77.5t-92.5 198.5q0 78 32.5 139.5t92 102.5t132 66.5t161.5 39.5l385 62q27 123 -43.5 193.5t-192.5 70.5q-109 0 -211 -43.5
t-174 -114.5zM184 276q0 -75 60 -121t149 -46q85 0 168.5 34.5t146.5 100t80 147.5v-6l35 164l-354 -55q-285 -45 -285 -218zM481 1505h117q-14 -71 25 -120.5t112 -49.5q72 0 128.5 49t66.5 121h119q-20 -127 -107 -202.5t-209 -75.5q-123 0 -198.5 77.5t-53.5 200.5z" />
    <glyph glyph-name="uni04D2" unicode="&#x4d2;" horiz-adv-x="1445" 
d="M-57 0l977 1440l360 -1440h-143l-101 410h-659l-277 -410h-157zM465 541h539l-144 583zM702 1743q0 40 27.5 67t67.5 27t68 -27t28 -67q0 -38 -28 -65t-68 -27t-67.5 27t-27.5 65zM1073 1743q0 40 27 67t67 27t67.5 -27t27.5 -67q0 -38 -27.5 -65t-67.5 -27t-67 27
t-27 65z" />
    <glyph glyph-name="uni04D3" unicode="&#x4d3;" horiz-adv-x="1110" 
d="M262 938q59 52 155.5 88.5t207.5 36.5q194 0 294 -113t62 -291l-141 -659h-133l41 190q-49 -85 -149.5 -145.5t-231.5 -60.5q-137 0 -229.5 77.5t-92.5 198.5q0 78 32.5 139.5t92 102.5t132 66.5t161.5 39.5l385 62q27 123 -43.5 193.5t-192.5 70.5q-109 0 -211 -43.5
t-174 -114.5zM184 276q0 -75 60 -121t149 -46q85 0 168.5 34.5t146.5 100t80 147.5v-6l35 164l-354 -55q-285 -45 -285 -218zM455 1368q0 40 27 67t67 27t68 -27t28 -67q0 -38 -28 -65t-68 -27t-67 27t-27 65zM825 1368q0 40 27.5 67t67.5 27t67 -27t27 -67q0 -38 -27 -65
t-67 -27t-67.5 27t-27.5 65z" />
    <glyph glyph-name="uni04D4" unicode="&#x4d4;" horiz-adv-x="2048" 
d="M-66 0l1283 1421h888l-28 -131h-668l-106 -502h630l-26 -129h-633l-113 -528h670l-29 -131h-807l105 492h-547l-440 -492h-179zM672 623h456l142 667z" />
    <glyph glyph-name="uni04D5" unicode="&#x4d5;" horiz-adv-x="1873" 
d="M262 938q61 51 155.5 88t203.5 37q127 0 216.5 -55.5t127.5 -149.5q79 97 188.5 151t239.5 54t227.5 -61t141.5 -172t18 -248l-11 -56h-817q-20 -99 -0.5 -176t68 -130.5t118 -81t150.5 -27.5q236 0 393 184l-36 -176q-121 -135 -371 -135q-160 0 -281 77.5t-162 223.5
q-22 -46 -48.5 -86t-67 -80.5t-87.5 -69.5t-111 -47t-136 -18q-90 0 -165.5 31.5t-124 95.5t-48.5 149q0 78 33 140t90.5 103t127.5 65.5t152 35.5l398 49l4 17q25 124 -48.5 194t-201.5 70q-105 0 -201.5 -43t-169.5 -115zM184 281q0 -76 65.5 -124t156.5 -48
q87 0 161 36.5t122 94.5t77.5 118.5t42.5 120.5l6 -2v6h-6l10 52l-379 -48q-108 -15 -182 -66.5t-74 -139.5zM983 645h672q17 120 -63 205.5t-212 85.5q-145 0 -250 -87.5t-147 -203.5z" />
    <glyph glyph-name="uni04D6" unicode="&#x4d6;" horiz-adv-x="1163" 
d="M725 1855q-14 -71 25 -120t112 -49q72 0 128.5 48.5t66.5 120.5h119q-20 -127 -107 -202.5t-209 -75.5q-123 0 -198.5 77.5t-53.5 200.5h117zM84 0l303 1421h834l-29 -131h-694l-107 -502h658l-29 -129h-658l-112 -528h696l-28 -131h-834z" />
    <glyph glyph-name="uni04D7" unicode="&#x4d7;" horiz-adv-x="1185" 
d="M580 -16q-127 0 -234 56t-173.5 165t-66.5 250q0 163 69.5 300.5t202.5 222.5t304 85q139 0 242 -69.5t146 -183.5t17 -243l-14 -78h-827q-17 -162 86 -270t260 -108q217 0 401 184l-41 -182q-64 -57 -150 -93t-222 -36zM268 608h688q23 144 -62 236t-232 92
q-149 0 -257 -95.5t-137 -232.5zM514 1481h117q-14 -71 25 -120.5t112 -49.5q72 0 128.5 49t66.5 121h118q-20 -128 -107 -203.5t-208 -75.5q-123 0 -198.5 78t-53.5 201z" />
    <glyph glyph-name="uni04D8" unicode="&#x4d8;" horiz-adv-x="1507" 
d="M702 -16q-137 0 -254 51t-193.5 143t-108 219.5t3.5 280.5l18 82h1120q2 18 2 55q0 152 -69.5 265t-181 168t-246.5 55q-154 0 -285 -60t-217 -151l39 190q77 68 200.5 112t294.5 44q167 0 304 -75t219 -218t82 -328q0 -123 -30.5 -242.5t-93 -226t-148 -188t-203.5 -129
t-253 -47.5zM279 629q-29 -140 21.5 -258.5t160 -186t250.5 -67.5q109 0 204.5 42t164.5 114.5t117 163t71 192.5h-989z" />
    <glyph glyph-name="uni04D9" unicode="&#x4d9;" horiz-adv-x="1189" 
d="M610 1063q127 0 234 -56t173 -165t66 -250q0 -121 -41 -231.5t-113 -194t-179 -133t-230 -49.5q-145 0 -251.5 75t-149.5 193.5t-17 249.5l15 76h825q13 150 -88 254t-256 104q-217 0 -401 -184l41 182q144 129 372 129zM233 459q-25 -146 61.5 -247t231.5 -101
q154 0 266 100t134 248h-693z" />
    <glyph glyph-name="uni04DA" unicode="&#x4da;" horiz-adv-x="1507" 
d="M702 -16q-137 0 -254 51t-193.5 143t-108 219.5t3.5 280.5l18 82h1120q2 18 2 55q0 152 -69.5 265t-181 168t-246.5 55q-154 0 -285 -60t-217 -151l39 190q77 68 200.5 112t294.5 44q167 0 304 -75t219 -218t82 -328q0 -123 -30.5 -242.5t-93 -226t-148 -188t-203.5 -129
t-253 -47.5zM279 629q-29 -140 21.5 -258.5t160 -186t250.5 -67.5q109 0 204.5 42t164.5 114.5t117 163t71 192.5h-989zM672 1743q0 40 27 67t67 27t68 -27t28 -67q0 -38 -28 -65t-68 -27t-67 27t-27 65zM1042 1743q0 40 27.5 67t67.5 27t67 -27t27 -67q0 -38 -27 -65
t-67 -27t-67.5 27t-27.5 65z" />
    <glyph glyph-name="uni04DB" unicode="&#x4db;" horiz-adv-x="1189" 
d="M610 1063q127 0 234 -56t173 -165t66 -250q0 -121 -41 -231.5t-113 -194t-179 -133t-230 -49.5q-145 0 -251.5 75t-149.5 193.5t-17 249.5l15 76h825q13 150 -88 254t-256 104q-217 0 -401 -184l41 182q144 129 372 129zM233 459q-25 -146 61.5 -247t231.5 -101
q154 0 266 100t134 248h-693zM438 1368q0 40 27 67t67 27t68.5 -27.5t28.5 -66.5q0 -38 -28.5 -65t-68.5 -27t-67 27t-27 65zM809 1368q0 40 27 67t67 27t67 -27t27 -67q0 -38 -27 -65t-67 -27t-67 27t-27 65z" />
    <glyph glyph-name="uni04DC" unicode="&#x4dc;" horiz-adv-x="1892" 
d="M924 745l-811 -745h-187l819 762l-477 659h160zM766 0l303 1421h137l-143 -673l760 673h182l-762 -682l498 -739h-166l-514 743l-158 -743h-137zM926 1743q0 40 27 67t67 27t68 -27t28 -67q0 -38 -28 -65t-68 -27t-67 27t-27 65zM1296 1743q0 40 27.5 67t67.5 27t67 -27
t27 -67q0 -38 -27 -65t-67 -27t-67.5 27t-27.5 65z" />
    <glyph glyph-name="uni04DD" unicode="&#x4dd;" horiz-adv-x="1497" 
d="M569 0l226 1047h133l-223 -1047h-136zM-80 0l590 569l-348 478h157l367 -492l-580 -555h-186zM649 1368q0 40 27 67t67 27t68.5 -27.5t28.5 -66.5q0 -38 -28.5 -65t-68.5 -27t-67 27t-27 65zM823 555l555 492h181l-560 -506l355 -541h-164zM1020 1368q0 40 27 67t67 27
t67 -27t27 -67q0 -38 -27 -65t-67 -27t-67 27t-27 65z" />
    <glyph glyph-name="uni04DE" unicode="&#x4de;" horiz-adv-x="1204" 
d="M813 737q100 -25 175 -105.5t75 -203.5q0 -135 -74.5 -237.5t-196 -154.5t-268.5 -52q-163 0 -295.5 63.5t-177.5 130.5l37 172q22 -42 60.5 -81.5t93.5 -75t132 -57t163 -21.5q101 0 188.5 36.5t144 109.5t56.5 169q0 115 -97.5 180.5t-253.5 65.5h-184l27 125h180
q112 0 204 30.5t151 96.5t59 157q0 103 -85.5 162.5t-215.5 59.5q-247 0 -443 -191l41 189q63 59 172.5 96t243.5 37q188 0 308 -93.5t120 -244.5q0 -79 -31.5 -147.5t-82 -113t-109 -71t-117.5 -31.5zM565 1743q0 40 27 67t67 27t68.5 -27.5t28.5 -66.5q0 -38 -28.5 -65
t-68.5 -27t-67 27t-27 65zM936 1743q0 40 27 67t67 27t67 -27t27 -67q0 -38 -27 -65t-67 -27t-67 27t-27 65z" />
    <glyph glyph-name="uni04DF" unicode="&#x4df;" horiz-adv-x="989" 
d="M651 541q72 -14 131.5 -74.5t59.5 -151.5q0 -78 -37.5 -142.5t-98 -105t-133 -62t-147.5 -21.5q-140 0 -251.5 47t-156.5 106l33 158q45 -74 143.5 -129t225.5 -55q51 0 99.5 12t91 36t68.5 65t26 93q0 79 -68.5 118.5t-183.5 39.5h-177l27 125h182q117 0 194 48.5
t77 139.5q0 69 -58.5 109.5t-169.5 40.5q-93 0 -191 -35.5t-165 -99.5l35 162q57 45 146 71.5t194 26.5q165 0 257.5 -72.5t92.5 -185.5q0 -105 -73 -178t-173 -86zM375 1368q0 40 27 67t67 27t68 -27t28 -67q0 -38 -28 -65t-68 -27t-67 27t-27 65zM745 1368q0 40 27.5 67
t67.5 27t67 -27t27 -67q0 -38 -27 -65t-67 -27t-67.5 27t-27.5 65z" />
    <glyph glyph-name="uni04E2" unicode="&#x4e2;" horiz-adv-x="1511" 
d="M524 1421l-229 -1083l1214 1100l-305 -1438h-137l231 1090l-1216 -1106l305 1437h137zM772 1686l25 114h501l-24 -114h-502z" />
    <glyph glyph-name="uni04E3" unicode="&#x4e3;" horiz-adv-x="1216" 
d="M549 1425h502l-25 -114h-502zM53 -18l228 1065h135l-158 -740l905 756l-227 -1063h-135l157 739z" />
    <glyph glyph-name="uni04E4" unicode="&#x4e4;" horiz-adv-x="1511" 
d="M524 1421l-229 -1083l1214 1100l-305 -1438h-137l231 1090l-1216 -1106l305 1437h137zM756 1743q0 40 27 67t67 27t68 -27t28 -67q0 -38 -28 -65t-68 -27t-67 27t-27 65zM1126 1743q0 40 27.5 67t67.5 27t67 -27t27 -67q0 -38 -27 -65t-67 -27t-67.5 27t-27.5 65z" />
    <glyph glyph-name="uni04E5" unicode="&#x4e5;" horiz-adv-x="1216" 
d="M602 1462q40 0 68 -27t28 -67q0 -38 -28 -65t-68 -27t-67 27t-27 65q0 40 27 67t67 27zM53 -18l228 1065h135l-158 -740l905 756l-227 -1063h-135l157 739zM879 1368q0 40 27 67t67 27t67 -27t27 -67q0 -38 -27 -65t-67 -27t-67 27t-27 65z" />
    <glyph glyph-name="uni04E6" unicode="&#x4e6;" horiz-adv-x="1650" 
d="M791 119q134 0 254 56t204 149t133.5 217.5t49.5 257.5q0 222 -140 363t-354 141q-135 0 -255.5 -56.5t-204 -150t-132.5 -218t-49 -257.5q0 -221 139.5 -361.5t354.5 -140.5zM156 618q0 161 60 310.5t163.5 262t253 180t317.5 67.5q176 0 318.5 -82.5t223.5 -228.5
t81 -326q0 -160 -60 -309t-163.5 -261t-252.5 -179.5t-317 -67.5q-177 0 -319.5 82t-223.5 227t-81 325zM752 1743q0 40 27 67t67 27t68 -27t28 -67q0 -38 -28 -65t-68 -27t-67 27t-27 65zM1122 1743q0 40 27.5 67t67.5 27t67 -27t27 -67q0 -38 -27 -65t-67 -27t-67.5 27
t-27.5 65z" />
    <glyph glyph-name="uni04E7" unicode="&#x4e7;" horiz-adv-x="1267" 
d="M573 -16q-197 0 -332 136t-135 341q0 117 45 227t122.5 192.5t188 132.5t234.5 50q196 0 331.5 -135t135.5 -338q0 -156 -75 -294.5t-212 -225t-303 -86.5zM246 467q0 -154 97 -253t241 -99q117 0 218.5 62t161.5 170t60 235q0 152 -98 251t-242 99q-179 0 -308.5 -136
t-129.5 -329zM494 1368q0 40 27 67t67 27t68 -27t28 -67q0 -38 -28 -65t-68 -27t-67 27t-27 65zM864 1368q0 40 27 67t67 27t67.5 -27t27.5 -67q0 -38 -27.5 -65t-67.5 -27t-67 27t-27 65z" />
    <glyph glyph-name="uni04E8" unicode="&#x4e8;" horiz-adv-x="1650" 
d="M791 119q231 0 404.5 153t221.5 381h-1120v-32q0 -221 139.5 -361.5t354.5 -140.5zM156 618q0 161 60 310.5t163.5 262t253 180t317.5 67.5q176 0 318.5 -82.5t223.5 -228.5t81 -326q0 -160 -60 -309t-163.5 -261t-252.5 -179.5t-317 -67.5q-177 0 -319.5 82t-223.5 227
t-81 325zM315 782h1117v17q0 222 -140 363t-354 141q-227 0 -399 -149t-224 -372z" />
    <glyph glyph-name="uni04E9" unicode="&#x4e9;" horiz-adv-x="1267" 
d="M573 -16q-197 0 -332 136t-135 341q0 117 45 227t122.5 192.5t188 132.5t234.5 50q196 0 331.5 -135t135.5 -338q0 -156 -75 -294.5t-212 -225t-303 -86.5zM246 467q0 -154 97 -253t241 -99q152 0 272.5 101t155.5 257h-766v-6zM262 592h762q-3 148 -101 244t-239 96
q-148 0 -266 -95.5t-156 -244.5z" />
    <glyph glyph-name="uni04EA" unicode="&#x4ea;" horiz-adv-x="1650" 
d="M791 119q231 0 404.5 153t221.5 381h-1120v-32q0 -221 139.5 -361.5t354.5 -140.5zM156 618q0 161 60 310.5t163.5 262t253 180t317.5 67.5q176 0 318.5 -82.5t223.5 -228.5t81 -326q0 -160 -60 -309t-163.5 -261t-252.5 -179.5t-317 -67.5q-177 0 -319.5 82t-223.5 227
t-81 325zM315 782h1117v17q0 222 -140 363t-354 141q-227 0 -399 -149t-224 -372zM752 1743q0 40 27 67t67 27t68 -27t28 -67q0 -38 -28 -65t-68 -27t-67 27t-27 65zM1122 1743q0 40 27.5 67t67.5 27t67 -27t27 -67q0 -38 -27 -65t-67 -27t-67.5 27t-27.5 65z" />
    <glyph glyph-name="uni04EB" unicode="&#x4eb;" horiz-adv-x="1267" 
d="M573 -16q-197 0 -332 136t-135 341q0 117 45 227t122.5 192.5t188 132.5t234.5 50q196 0 331.5 -135t135.5 -338q0 -156 -75 -294.5t-212 -225t-303 -86.5zM246 467q0 -154 97 -253t241 -99q152 0 272.5 101t155.5 257h-766v-6zM262 592h762q-3 148 -101 244t-239 96
q-148 0 -266 -95.5t-156 -244.5zM494 1368q0 40 27 67t67 27t68 -27t28 -67q0 -38 -28 -65t-68 -27t-67 27t-27 65zM864 1368q0 40 27 67t67 27t67.5 -27t27.5 -67q0 -38 -27.5 -65t-67.5 -27t-67 27t-27 65z" />
    <glyph glyph-name="uni04EE" unicode="&#x4ee;" horiz-adv-x="1325" 
d="M176 0l29 131h86q180 0 280 158l21 33l-346 1099h143l299 -958l610 958h162l-745 -1157q-92 -142 -188 -203t-224 -61h-127zM653 1686l25 114h502l-25 -114h-502z" />
    <glyph glyph-name="uni04EF" unicode="&#x4ef;" horiz-adv-x="1099" 
d="M387 -203q-77 -122 -166 -180.5t-215 -58.5h-133l29 129h100q85 0 144.5 38t115.5 125l115 177l-225 1020h143l184 -861l533 861h162zM475 1311l25 114h501l-24 -114h-502z" />
    <glyph glyph-name="uni04F0" unicode="&#x4f0;" horiz-adv-x="1325" 
d="M176 0l29 131h86q180 0 280 158l21 33l-346 1099h143l299 -958l610 958h162l-745 -1157q-92 -142 -188 -203t-224 -61h-127zM637 1743q0 40 27 67t67 27t68 -27t28 -67q0 -38 -28 -65t-68 -27t-67 27t-27 65zM1008 1743q0 40 27 67t67 27t67 -27t27 -67q0 -38 -27 -65
t-67 -27t-67 27t-27 65z" />
    <glyph glyph-name="uni04F1" unicode="&#x4f1;" horiz-adv-x="1099" 
d="M387 -203q-77 -122 -166 -180.5t-215 -58.5h-133l29 129h100q85 0 144.5 38t115.5 125l115 177l-225 1020h143l184 -861l533 861h162zM459 1368q0 40 27 67t67 27t68 -27t28 -67q0 -38 -28 -65t-68 -27t-67 27t-27 65zM829 1368q0 40 27.5 67t67.5 27t67 -27t27 -67
q0 -38 -27 -65t-67 -27t-67.5 27t-27.5 65z" />
    <glyph glyph-name="uni04F2" unicode="&#x4f2;" horiz-adv-x="1325" 
d="M176 0l29 131h86q180 0 280 158l21 33l-346 1099h143l299 -958l610 958h162l-745 -1157q-92 -142 -188 -203t-224 -61h-127zM641 1589l283 307h147l-283 -307h-147zM963 1589l282 307h148l-283 -307h-147z" />
    <glyph glyph-name="uni04F3" unicode="&#x4f3;" horiz-adv-x="1099" 
d="M387 -203q-77 -122 -166 -180.5t-215 -58.5h-133l29 129h100q85 0 144.5 38t115.5 125l115 177l-225 1020h143l184 -861l533 861h162zM463 1214l282 308h148l-283 -308h-147zM784 1214l283 308h147l-282 -308h-148z" />
    <glyph glyph-name="uni04F4" unicode="&#x4f4;" horiz-adv-x="1359" 
d="M1217 1421h137l-303 -1421h-138l131 610h-507q-176 0 -260.5 89.5t-45.5 277.5l97 444h137l-96 -448q-27 -126 22.5 -179t171.5 -53h508zM629 1743q0 40 27 67t67 27t68 -27t28 -67q0 -38 -28 -65t-68 -27t-67 27t-27 65zM999 1743q0 40 27.5 67t67.5 27t67 -27t27 -67
q0 -38 -27 -65t-67 -27t-67.5 27t-27.5 65z" />
    <glyph glyph-name="uni04F5" unicode="&#x4f5;" horiz-adv-x="1103" 
d="M911 1047h136l-224 -1047h-137l94 434h-325q-78 0 -138.5 18.5t-103.5 58.5t-56 101.5t3 147.5l63 287h135l-61 -287q-42 -195 186 -195h324zM428 1368q0 40 27 67t67 27t68 -27t28 -67q0 -38 -28 -65t-68 -27t-67 27t-27 65zM799 1368q0 40 27 67t67 27t67 -27t27 -67
q0 -38 -27 -65t-67 -27t-67 27t-27 65z" />
    <glyph glyph-name="uni04F8" unicode="&#x4f8;" horiz-adv-x="1683" 
d="M1677 1421l-303 -1421h-137l303 1421h137zM84 0l303 1421h137l-123 -575h281q186 0 298 -103.5t112 -267.5q0 -144 -67.5 -253t-182.5 -165.5t-260 -56.5h-498zM250 131h317q168 0 275.5 89.5t107.5 244.5q0 111 -74.5 180.5t-205.5 69.5h-295zM821 1743q0 40 27 67
t67 27t68.5 -27.5t28.5 -66.5q0 -38 -28.5 -65t-68.5 -27t-67 27t-27 65zM1192 1743q0 40 27 67t67 27t67 -27t27 -67q0 -38 -27 -65t-67 -27t-67 27t-27 65z" />
    <glyph glyph-name="uni04F9" unicode="&#x4f9;" horiz-adv-x="1413" 
d="M1356 1047l-223 -1047h-136l224 1047h135zM55 0l226 1047h135l-78 -367h194q156 0 253.5 -86t97.5 -221q0 -171 -114.5 -272t-309.5 -101h-404zM219 129h234q131 0 210.5 62.5t79.5 175.5q0 82 -60 133t-165 51h-209zM606 1368q0 40 27 67t67 27t68.5 -27.5t28.5 -66.5
q0 -38 -28.5 -65t-68.5 -27t-67 27t-27 65zM977 1368q0 40 27 67t67 27t67 -27t27 -67q0 -38 -27 -65t-67 -27t-67 27t-27 65z" />
    <glyph glyph-name="uni051C" unicode="&#x51c;" horiz-adv-x="1886" 
d="M391 1421l135 -1050l604 1067l152 -1063l580 1046h149l-799 -1437l-153 1089l-617 -1089l-186 1437h135z" />
    <glyph glyph-name="uni051D" unicode="&#x51d;" horiz-adv-x="1581" 
d="M305 1047l115 -738l479 754l154 -739l432 723h147l-628 -1063l-162 776l-496 -776l-174 1063h133z" />
    <glyph glyph-name="uni0524" unicode="&#x524;" horiz-adv-x="1581" 
d="M1507 1421l-274 -1290h180l-90 -416h-131l63 285h-188l274 1290h-843l-277 -1290h-137l303 1421h1120z" />
    <glyph glyph-name="uni0525" unicode="&#x525;" horiz-adv-x="1265" 
d="M1149 1047l-197 -918h162l-86 -401h-129l57 272h-168l197 915h-596l-196 -915h-138l226 1047h868z" />
    <glyph glyph-name="Wgrave" unicode="&#x1e80;" horiz-adv-x="1886" 
d="M391 1421l135 -1050l604 1067l152 -1063l580 1046h149l-799 -1437l-153 1089l-617 -1089l-186 1437h135zM893 1896h143l228 -307h-144z" />
    <glyph glyph-name="wgrave" unicode="&#x1e81;" horiz-adv-x="1581" 
d="M305 1047l115 -738l479 754l154 -739l432 723h147l-628 -1063l-162 776l-496 -776l-174 1063h133zM662 1522h143l227 -308h-143z" />
    <glyph glyph-name="Wacute" unicode="&#x1e82;" horiz-adv-x="1886" 
d="M391 1421l135 -1050l604 1067l152 -1063l580 1046h149l-799 -1437l-153 1089l-617 -1089l-186 1437h135zM1042 1589l330 307h170l-332 -307h-168z" />
    <glyph glyph-name="wacute" unicode="&#x1e83;" horiz-adv-x="1581" 
d="M305 1047l115 -738l479 754l154 -739l432 723h147l-628 -1063l-162 776l-496 -776l-174 1063h133zM811 1214l330 308h170l-332 -308h-168z" />
    <glyph glyph-name="Wdieresis" unicode="&#x1e84;" horiz-adv-x="1886" 
d="M391 1421l135 -1050l604 1067l152 -1063l580 1046h149l-799 -1437l-153 1089l-617 -1089l-186 1437h135zM922 1743q0 40 27 67t67 27t68 -27t28 -67q0 -38 -28 -65t-68 -27t-67 27t-27 65zM1292 1743q0 40 27 67t67 27t67.5 -27t27.5 -67q0 -38 -27.5 -65t-67.5 -27
t-67 27t-27 65z" />
    <glyph glyph-name="wdieresis" unicode="&#x1e85;" horiz-adv-x="1581" 
d="M305 1047l115 -738l479 754l154 -739l432 723h147l-628 -1063l-162 776l-496 -776l-174 1063h133zM690 1368q0 40 27 67t67 27t68.5 -27.5t28.5 -66.5q0 -38 -28.5 -65t-68.5 -27t-67 27t-27 65zM1061 1368q0 40 27 67t67 27t67 -27t27 -67q0 -38 -27 -65t-67 -27t-67 27
t-27 65z" />
    <glyph glyph-name="uni1E9E" unicode="&#x1e9e;" horiz-adv-x="1296" 
d="M84 0l303 1421h909l-413 -616q135 -27 213 -130t78 -239q0 -123 -55.5 -225.5t-162 -164.5t-243.5 -62q-76 0 -153 17.5t-107 49.5l30 146q28 -35 86.5 -58.5t132.5 -23.5q151 0 240.5 92t89.5 229q0 120 -84 192t-225 72h-55l387 590h-557l-277 -1290h-137z" />
    <glyph glyph-name="Ygrave" unicode="&#x1ef2;" horiz-adv-x="1343" 
d="M621 1896h143l227 -307h-143zM225 1421h150l330 -696l624 696h170l-745 -841l-125 -580h-137l124 578z" />
    <glyph glyph-name="ygrave" unicode="&#x1ef3;" horiz-adv-x="1099" 
d="M387 -203q-77 -122 -166 -180.5t-215 -58.5h-133l29 129h100q85 0 144.5 38t115.5 125l115 177l-225 1020h143l184 -861l533 861h162zM430 1522h143l228 -308h-144z" />
    <glyph glyph-name="uni2000" unicode="&#x2000;" horiz-adv-x="1024" 
 />
    <glyph glyph-name="uni2001" unicode="&#x2001;" horiz-adv-x="2048" 
 />
    <glyph glyph-name="uni2002" unicode="&#x2002;" horiz-adv-x="1024" 
 />
    <glyph glyph-name="uni2003" unicode="&#x2003;" horiz-adv-x="2048" 
 />
    <glyph glyph-name="uni2004" unicode="&#x2004;" horiz-adv-x="681" 
 />
    <glyph glyph-name="uni2005" unicode="&#x2005;" horiz-adv-x="512" 
 />
    <glyph glyph-name="uni2007" unicode="&#x2007;" horiz-adv-x="1189" 
 />
    <glyph glyph-name="uni2008" unicode="&#x2008;" horiz-adv-x="444" 
 />
    <glyph glyph-name="uni2009" unicode="&#x2009;" horiz-adv-x="409" 
 />
    <glyph glyph-name="uni200A" unicode="&#x200a;" horiz-adv-x="292" 
 />
    <glyph glyph-name="uni200B" unicode="&#x200b;" horiz-adv-x="0" 
 />
    <glyph glyph-name="endash" unicode="&#x2013;" horiz-adv-x="1024" 
d="M1055 672l-27 -125h-1024l27 125h1024z" />
    <glyph glyph-name="emdash" unicode="&#x2014;" horiz-adv-x="2048" 
d="M2079 672l-27 -125h-2048l27 125h2048z" />
    <glyph glyph-name="quoteleft" unicode="&#x2018;" horiz-adv-x="446" 
d="M168 973l256 448h117l-230 -448h-143z" />
    <glyph glyph-name="quoteright" unicode="&#x2019;" horiz-adv-x="446" 
d="M543 1421l-256 -448h-117l229 448h144z" />
    <glyph glyph-name="quotesinglbase" unicode="&#x201a;" horiz-adv-x="444" 
d="M233 166l-256 -449h-116l229 449h143z" />
    <glyph glyph-name="quotedblleft" unicode="&#x201c;" horiz-adv-x="765" 
d="M489 973l256 448h117l-229 -448h-144zM168 973l256 448h117l-230 -448h-143z" />
    <glyph glyph-name="quotedblright" unicode="&#x201d;" horiz-adv-x="765" 
d="M543 1421l-256 -448h-117l229 448h144zM489 973l230 448h143l-256 -448h-117z" />
    <glyph glyph-name="quotedblbase" unicode="&#x201e;" horiz-adv-x="823" 
d="M305 166l-256 -449h-117l230 449h143zM252 -283l229 449h144l-256 -449h-117z" />
    <glyph glyph-name="dagger" unicode="&#x2020;" horiz-adv-x="964" 
d="M424 543l127 594h-297l25 120h296l64 297h127l-64 -297h295l-24 -120h-295l-127 -594h-127z" />
    <glyph glyph-name="daggerdbl" unicode="&#x2021;" horiz-adv-x="970" 
d="M420 512l51 244h-297l27 121h297l63 301h-297l27 120h295l55 256h127l-55 -256h297l-27 -120h-295l-63 -301h295l-27 -121h-295l-51 -244h-127z" />
    <glyph glyph-name="bullet" unicode="&#x2022;" horiz-adv-x="985" 
d="M797 610q0 -122 -84.5 -207.5t-202.5 -85.5q-119 0 -203 85t-84 208q0 122 84 206.5t203 84.5q118 0 202.5 -84.5t84.5 -206.5z" />
    <glyph glyph-name="ellipsis" unicode="&#x2026;" horiz-adv-x="1308" 
d="M563 182q41 0 70 -29t29 -71q0 -41 -29 -69.5t-70 -28.5t-70.5 28.5t-29.5 69.5q0 42 29 71t71 29zM31 82q0 42 29 71t71 29q41 0 69.5 -28.5t28.5 -71.5q0 -41 -28.5 -69.5t-69.5 -28.5t-70.5 28.5t-29.5 69.5zM895 82q0 42 29 71t71 29q41 0 70 -29t29 -71
q0 -41 -29 -69.5t-70 -28.5t-70.5 28.5t-29.5 69.5z" />
    <glyph glyph-name="perthousand" unicode="&#x2030;" horiz-adv-x="2551" 
d="M201 0l1261 1421h152l-1262 -1421h-151zM199 1055q0 105 53.5 193.5t141 139t186.5 50.5q138 0 233.5 -95.5t95.5 -236.5q0 -160 -114.5 -272.5t-266.5 -112.5q-138 0 -233.5 95.5t-95.5 238.5zM319 1061q0 -96 62.5 -161.5t155.5 -65.5q102 0 176.5 78t74.5 186
q0 97 -62 162t-155 65q-102 0 -177 -78t-75 -186zM905 317q0 105 53.5 193.5t141 139t186.5 50.5q139 0 234.5 -94.5t95.5 -236.5q0 -160 -114 -272.5t-267 -112.5q-138 0 -234 95t-96 238zM1026 324q0 -96 62.5 -162t154.5 -66q102 0 177 78t75 186q0 97 -62 162.5
t-155 65.5q-101 0 -176.5 -78t-75.5 -186zM1722 317q0 105 53.5 193.5t141 139t186.5 50.5q139 0 234.5 -94.5t95.5 -236.5q0 -160 -114 -272.5t-267 -112.5q-138 0 -234 95t-96 238zM1843 324q0 -96 62.5 -162t154.5 -66q102 0 177 78t75 186q0 97 -62 162.5t-155 65.5
q-101 0 -176.5 -78t-75.5 -186z" />
    <glyph glyph-name="guilsinglleft" unicode="&#x2039;" horiz-adv-x="671" 
d="M707 1004l-467 -443l280 -430h-153l-289 440l452 433h177z" />
    <glyph glyph-name="guilsinglright" unicode="&#x203a;" horiz-adv-x="669" 
d="M-16 131l467 442l-281 431h154l288 -441l-452 -432h-176z" />
    <glyph glyph-name="fraction" unicode="&#x2044;" horiz-adv-x="565" 
d="M872 1421h158l-1259 -1421h-156z" />
    <glyph glyph-name="uni2070" unicode="&#x2070;" horiz-adv-x="956" 
d="M582 791q-150 0 -240 104.5t-90 282.5q0 102 29.5 200.5t82.5 180t138 132t186 50.5q151 0 240.5 -105.5t89.5 -283.5q0 -80 -18 -159.5t-55 -152t-88 -128t-122 -88.5t-153 -33zM391 1182q0 -123 52.5 -195t140.5 -72q58 0 108.5 28.5t84 74t58 103.5t35.5 116.5
t11 112.5q0 122 -53.5 194t-143.5 72q-72 0 -130.5 -43t-92.5 -110t-52 -140t-18 -141z" />
    <glyph glyph-name="uni2074" unicode="&#x2074;" 
d="M719 1409h131l-59 -272h135l-27 -117h-133l-47 -217h-129l45 217h-498l525 706h145l-440 -589h292z" />
    <glyph glyph-name="uni2075" unicode="&#x2075;" 
d="M952 1726l-26 -122h-375l-100 -240q44 12 106 12q126 0 213.5 -70t87.5 -188q0 -146 -110 -236.5t-277 -90.5q-98 0 -183 32t-112 70l29 145q36 -56 107 -87t157 -31q110 0 181 51.5t71 138.5q0 73 -65.5 115.5t-168.5 42.5q-104 0 -215 -39l209 497h471z" />
    <glyph glyph-name="uni2076" unicode="&#x2076;" 
d="M616 1419q116 0 199.5 -78.5t83.5 -201.5q0 -88 -42 -166.5t-126 -130t-192 -51.5q-146 0 -234 85.5t-88 208.5q0 86 41 160t127 164l309 317h158l-307 -319q27 12 71 12zM352 1098q0 -77 54 -127.5t141 -50.5q96 0 157.5 64t61.5 149q0 76 -53 126t-138 50
q-96 0 -159.5 -62t-63.5 -149z" />
    <glyph glyph-name="uni2077" unicode="&#x2077;" 
d="M1040 1726l-665 -923h-162l592 801h-481l24 122h692z" />
    <glyph glyph-name="uni2078" unicode="&#x2078;" 
d="M543 791q-152 0 -252.5 76t-100.5 198q0 102 73.5 169.5t191.5 82.5q-59 29 -92 77t-33 111q0 100 86 167t217 67q135 0 223 -67.5t88 -170.5q0 -90 -57.5 -147t-155.5 -72q76 -33 120 -91t44 -130q0 -120 -99 -195t-253 -75zM328 1075q0 -74 61.5 -121t153.5 -47
q94 0 153.5 46t59.5 118t-62.5 119t-150.5 47q-91 0 -153 -45.5t-62 -116.5zM463 1487q0 -59 51 -101.5t119 -42.5q75 0 126.5 40.5t51.5 99.5q0 63 -49.5 101t-128.5 38q-75 0 -122.5 -37.5t-47.5 -97.5z" />
    <glyph glyph-name="uni2079" unicode="&#x2079;" 
d="M557 1110q-116 0 -199.5 79t-83.5 202q0 65 25 127t70.5 111.5t115 79.5t150.5 30q146 0 233.5 -86t87.5 -209q0 -86 -41 -160t-127 -164l-309 -317h-157l307 319q-27 -12 -72 -12zM408 1397q0 -76 52.5 -126t137.5 -50q96 0 159.5 62t63.5 149q0 77 -53.5 127.5
t-140.5 50.5q-96 0 -157.5 -64t-61.5 -149z" />
    <glyph glyph-name="uni2080" unicode="&#x2080;" horiz-adv-x="956" 
d="M369 -217q-150 0 -240 104.5t-90 282.5q0 102 29.5 200.5t82.5 180t138 132t186 50.5q151 0 240.5 -105.5t89.5 -283.5q0 -80 -18 -159.5t-55 -152t-88 -128t-122 -88.5t-153 -33zM178 174q0 -123 52.5 -194.5t140.5 -71.5q58 0 108.5 28.5t84 74t58 103t35.5 116
t11 112.5q0 122 -53.5 194t-143.5 72q-72 0 -130.5 -43t-92.5 -110t-52 -140t-18 -141z" />
    <glyph glyph-name="uni2081" unicode="&#x2081;" 
d="M33 -88h231l133 625l-250 -99l27 131l399 162l-172 -819h224l-27 -117h-590z" />
    <glyph glyph-name="uni2082" unicode="&#x2082;" horiz-adv-x="856" 
d="M121 623q48 44 123 76t168 32q122 0 197 -68.5t75 -173.5q0 -54 -21 -105.5t-63 -101t-81.5 -87.5t-99.5 -91q-20 -17 -30 -26l-180 -160h424l-27 -123h-698l391 355q12 11 46 41t47 41.5t40.5 37.5t39 40t29.5 37t25.5 40t14 38.5t6.5 41.5q0 61 -47.5 99t-118.5 38
q-150 0 -295 -141z" />
    <glyph glyph-name="uni2083" unicode="&#x2083;" 
d="M266 -217q-99 0 -186 32.5t-121 71.5l33 156q31 -57 108.5 -94t169.5 -37q109 0 180.5 53t71.5 141q0 78 -63.5 120t-157.5 42q-46 0 -90 -8l297 336h-397l26 123h613l-318 -359q100 -21 161.5 -85t61.5 -162q0 -146 -110.5 -238t-278.5 -92z" />
    <glyph glyph-name="uni2084" unicode="&#x2084;" 
d="M506 401h131l-59 -272h135l-27 -117h-133l-47 -217h-129l45 217h-498l525 707h145l-440 -590h292z" />
    <glyph glyph-name="uni2085" unicode="&#x2085;" 
d="M739 719l-26 -123h-375l-100 -240q47 13 106 13q126 0 213.5 -70t87.5 -188q0 -146 -110 -237t-277 -91q-98 0 -183 32t-112 70l29 146q36 -56 107 -87.5t157 -31.5q110 0 181 51.5t71 138.5q0 73 -65.5 115.5t-168.5 42.5q-104 0 -215 -39l209 498h471z" />
    <glyph glyph-name="uni2086" unicode="&#x2086;" 
d="M403 412q116 0 199.5 -79t83.5 -202q0 -88 -42 -166.5t-126 -130t-192 -51.5q-146 0 -234 86t-88 209q0 86 41 159.5t127 163.5l309 318h158l-307 -320q29 13 71 13zM139 90q0 -77 54 -127.5t141 -50.5q96 0 157.5 64t61.5 149q0 76 -53 126t-138 50q-96 0 -159.5 -62
t-63.5 -149z" />
    <glyph glyph-name="uni2087" unicode="&#x2087;" 
d="M827 719l-665 -924h-162l592 801h-481l24 123h692z" />
    <glyph glyph-name="uni2088" unicode="&#x2088;" 
d="M330 -217q-152 0 -252.5 76t-100.5 198q0 102 73.5 169.5t191.5 82.5q-58 28 -91.5 77t-33.5 112q0 100 86 166.5t217 66.5q135 0 223 -67t88 -170q0 -90 -57.5 -147.5t-155.5 -72.5q76 -33 120 -91t44 -130q0 -120 -99 -195t-253 -75zM115 68q0 -74 61.5 -121t153.5 -47
q94 0 153.5 45.5t59.5 117.5t-62.5 119t-150.5 47q-91 0 -153 -45t-62 -116zM250 479q0 -59 51 -101t119 -42q75 0 126.5 40t51.5 99q0 63 -49.5 101t-128.5 38q-75 0 -122.5 -37.5t-47.5 -97.5z" />
    <glyph glyph-name="uni2089" unicode="&#x2089;" 
d="M344 102q-116 0 -199.5 79t-83.5 202q0 65 25 127t70.5 111.5t115 79.5t150.5 30q146 0 233.5 -86t87.5 -209q0 -86 -41 -159.5t-127 -163.5l-309 -318h-157l307 320q-29 -13 -72 -13zM195 389q0 -76 52.5 -126t137.5 -50q96 0 159.5 62t63.5 149q0 77 -53.5 127.5
t-140.5 50.5q-96 0 -157.5 -64t-61.5 -149z" />
    <glyph glyph-name="Euro" unicode="&#x20ac;" horiz-adv-x="1509" 
d="M901 -16q-245 0 -406 144.5t-194 379.5h-231l24 117h201q0 82 16 170h-180l25 118h188q80 235 270 380t439 145q96 0 179.5 -20t140.5 -52.5t94 -64.5t59 -64l-37 -178q-24 42 -60 80.5t-90 77.5t-131 62.5t-166 23.5q-187 0 -332 -107t-216 -283h663l-80 -118h-620
q-19 -87 -19 -170h523l-78 -117h-434q30 -181 153 -285t316 -104q112 0 218.5 50.5t190.5 131.5l-39 -180q-151 -137 -387 -137z" />
    <glyph glyph-name="uni20B4" unicode="&#x20b4;" horiz-adv-x="1185" 
d="M1202 918l-26 -117h-1049l27 117h706q160 73 160 204q0 82 -75.5 133.5t-192.5 51.5q-134 0 -249 -54t-200 -145l35 178q63 63 175.5 107.5t250.5 44.5q174 0 287.5 -78t113.5 -207q0 -146 -135 -235h172zM66 512l24 117h1049l-25 -117h-690q-77 -32 -126.5 -84.5
t-49.5 -120.5q0 -84 82 -138t209 -54q259 0 452 198l-37 -176q-149 -153 -428 -153q-176 0 -301 81.5t-125 208.5q0 72 40.5 133t107.5 105h-182z" />
    <glyph glyph-name="uni20B8" unicode="&#x20b8;" horiz-adv-x="1277" 
d="M457 0l215 1004h-488l27 131h1114l-27 -131h-489l-213 -1004h-139zM248 1305l24 116h1114l-24 -116h-1114z" />
    <glyph glyph-name="uni20BD" unicode="&#x20bd;" horiz-adv-x="1277" 
d="M176 0l62 291h-195l27 117h192l37 172h-195l27 116h195l153 725h398q187 0 298 -102.5t111 -265.5q0 -216 -144.5 -344.5t-365.5 -128.5h-340l-35 -172h478l-25 -117h-479l-62 -291h-137zM465 707h297q168 0 275.5 90.5t107.5 244.5q0 111 -75.5 179.5t-205.5 68.5h-274z
" />
    <glyph glyph-name="uni20BF" unicode="&#x20bf;" horiz-adv-x="1277" 
d="M88 18l295 1387h227l49 229h117l-49 -229h121h24l50 229h116l-53 -248q111 -32 171.5 -110t60.5 -184q0 -128 -75.5 -226t-199.5 -127q85 -28 146 -103t61 -185q0 -190 -122.5 -300t-330.5 -128l-51 -246h-119l54 241h-146l-51 -241h-119l53 241h-229zM254 147h362
q177 0 286.5 77.5t109.5 228.5q0 105 -76 165t-205 60h-364zM393 805h330q162 0 256 65.5t94 204.5q0 91 -66.5 146t-187.5 55h-325z" />
    <glyph glyph-name="uni2116" unicode="&#x2116;" horiz-adv-x="2285" 
d="M391 1438l756 -1129l235 1112h138l-308 -1439l-755 1130l-236 -1112h-137zM1503 453l25 116h635l-25 -116h-635zM1593 1032q0 160 114.5 272.5t266.5 112.5q139 0 234.5 -95t95.5 -239q0 -160 -114 -272.5t-267 -112.5q-138 0 -234 95.5t-96 238.5zM1714 1040
q0 -97 62.5 -162t154.5 -65q102 0 177 78t75 186q0 96 -62 161t-155 65q-100 0 -176 -78t-76 -185z" />
    <glyph glyph-name="trademark" unicode="&#x2122;" horiz-adv-x="1720" 
d="M238 1317l22 104h608l-22 -104h-248l-121 -569h-112l122 569h-249zM827 748l148 690l293 -361l450 361l-147 -690h-111l92 428l-301 -250l-217 280l-98 -458h-109z" />
    <glyph glyph-name="oneeighth" unicode="&#x215b;" horiz-adv-x="2281" 
d="M180 612h232l133 625l-250 -98l27 131l399 162l-172 -820h223l-27 -116h-589zM473 0l1258 1421h157l-1259 -1421h-156zM1444 262q0 102 73 169.5t191 82.5q-59 29 -92 77t-33 111q0 100 86 167t217 67q135 0 223.5 -67.5t88.5 -170.5q0 -90 -57.5 -147t-155.5 -72
q76 -33 119.5 -90.5t43.5 -130.5q0 -120 -99 -195t-253 -75q-152 0 -252 75.5t-100 198.5zM1581 272q0 -74 61.5 -121t153.5 -47q94 0 153.5 46t59.5 118t-62.5 119t-150.5 47q-91 0 -153 -45.5t-62 -116.5zM1716 684q0 -59 51 -101t119 -42q75 0 126.5 40t51.5 99
q0 63 -49.5 101t-128.5 38q-75 0 -122.5 -37.5t-47.5 -97.5z" />
    <glyph glyph-name="threeeighths" unicode="&#x215c;" horiz-adv-x="2271" 
d="M414 483q-99 0 -186.5 33t-121.5 72l33 155q31 -56 109 -93.5t170 -37.5q109 0 180.5 53.5t71.5 141.5q0 78 -63.5 120t-157.5 42q-47 0 -91 -8l297 335h-397l27 123h612l-317 -358q100 -21 161.5 -85.5t61.5 -162.5q0 -146 -110.5 -238t-278.5 -92zM463 0l1257 1421h158
l-1260 -1421h-155zM1434 262q0 102 73 169.5t191 82.5q-59 29 -92 77t-33 111q0 100 86 167t217 67q135 0 223 -67.5t88 -170.5q0 -90 -57.5 -147t-155.5 -72q76 -33 120 -91t44 -130q0 -120 -99 -195t-253 -75q-152 0 -252 75.5t-100 198.5zM1571 272q0 -74 61.5 -121
t153.5 -47q94 0 153.5 46t59.5 118t-62.5 119t-150.5 47q-91 0 -153 -45.5t-62 -116.5zM1706 684q0 -59 51 -101t119 -42q75 0 126.5 40t51.5 99q0 63 -49.5 101t-128.5 38q-75 0 -122.5 -37.5t-47.5 -97.5z" />
    <glyph glyph-name="fiveeighths" unicode="&#x215d;" horiz-adv-x="2271" 
d="M887 1419l-27 -123h-375l-100 -239q44 12 107 12q126 0 213.5 -70t87.5 -188q0 -146 -110 -237t-277 -91q-98 0 -183 32.5t-112 70.5l28 145q36 -56 107 -87.5t157 -31.5q110 0 181 52t71 139q0 73 -65.5 115.5t-167.5 42.5q-104 0 -215 -39l209 497h471zM463 0
l1257 1421h158l-1260 -1421h-155zM1434 262q0 102 73 169.5t191 82.5q-59 29 -92 77t-33 111q0 100 86 167t217 67q135 0 223 -67.5t88 -170.5q0 -90 -57.5 -147t-155.5 -72q76 -33 120 -91t44 -130q0 -120 -99 -195t-253 -75q-152 0 -252 75.5t-100 198.5zM1571 272
q0 -74 61.5 -121t153.5 -47q94 0 153.5 46t59.5 118t-62.5 119t-150.5 47q-91 0 -153 -45.5t-62 -116.5zM1706 684q0 -59 51 -101t119 -42q75 0 126.5 40t51.5 99q0 63 -49.5 101t-128.5 38q-75 0 -122.5 -37.5t-47.5 -97.5z" />
    <glyph glyph-name="seveneighths" unicode="&#x215e;" horiz-adv-x="2131" 
d="M975 1419l-666 -923h-162l592 800h-481l25 123h692zM324 0l1257 1421h158l-1260 -1421h-155zM1294 262q0 102 73.5 169.5t191.5 82.5q-59 29 -92 77t-33 111q0 100 86 167t217 67q135 0 223 -67.5t88 -170.5q0 -90 -57.5 -147t-155.5 -72q76 -33 120 -91t44 -130
q0 -120 -99 -195t-253 -75q-152 0 -252.5 76t-100.5 198zM1432 272q0 -74 61.5 -121t153.5 -47q94 0 153.5 46t59.5 118t-62.5 119t-150.5 47q-91 0 -153 -45.5t-62 -116.5zM1567 684q0 -59 51 -101t119 -42q75 0 126.5 40t51.5 99q0 63 -49.5 101t-128.5 38
q-75 0 -122.5 -37.5t-47.5 -97.5z" />
    <glyph glyph-name="arrowleft" unicode="&#x2190;" horiz-adv-x="1781" 
d="M737 1190h170l-456 -383h1228l-26 -127h-1252l304 -383h-150l-356 448z" />
    <glyph glyph-name="arrowup" unicode="&#x2191;" horiz-adv-x="1175" 
d="M1141 1008l-35 -148l-299 391l-268 -1251h-125l262 1233l-463 -373l35 172l543 434z" />
    <glyph glyph-name="arrowright" unicode="&#x2192;" horiz-adv-x="1779" 
d="M1139 299h-170l456 383h-1228l26 127h1252l-304 383h150l356 -449z" />
    <glyph glyph-name="arrowdown" unicode="&#x2193;" horiz-adv-x="1175" 
d="M115 414l35 147l299 -391l268 1251h125l-262 -1233l462 373l-34 -172l-543 -434z" />
    <glyph glyph-name="arrowboth" unicode="&#x2194;" horiz-adv-x="2004" 
d="M739 1190h168l-465 -385h1254l-299 385h151l353 -447l-541 -446h-168l465 385h-1254l299 -385h-153l-350 446z" />
    <glyph glyph-name="uni2196" unicode="&#x2196;" horiz-adv-x="1388" 
d="M225 791l135 630h631l88 -114h-540l692 -879l-98 -86l-701 887l-117 -553z" />
    <glyph glyph-name="uni2197" unicode="&#x2197;" horiz-adv-x="1388" 
d="M1278 791l-137 -115l110 522l-1054 -870l-78 104l1061 875h-537l137 114h631z" />
    <glyph glyph-name="uni2198" unicode="&#x2198;" horiz-adv-x="1388" 
d="M1243 631l-135 -631h-631l-88 115h541l-692 878l98 86l700 -886l117 552z" />
    <glyph glyph-name="uni2199" unicode="&#x2199;" horiz-adv-x="1388" 
d="M190 631l138 114l-111 -522l1055 871l78 -105l-1061 -874h536l-137 -115h-631z" />
    <glyph glyph-name="partialdiff" unicode="&#x2202;" horiz-adv-x="1300" 
d="M592 -18q-211 0 -349.5 131t-138.5 336q0 118 42 225t115.5 186t179 125.5t225.5 46.5q92 0 169 -29t123 -72.5t72 -88t29 -82.5q10 109 -25.5 210.5t-100.5 178.5t-149.5 137.5t-175 95t-176.5 43.5l29 131q52 -8 107.5 -24t118.5 -43.5t123 -63.5t118.5 -86t107 -108.5
t86 -134.5t58 -161t20.5 -190t-24 -219q-57 -265 -215 -404.5t-369 -139.5zM244 465q0 -154 101 -252t247 -98q78 0 147.5 25.5t121 69.5t89.5 102t57 123.5t19 133.5q0 148 -100 241t-250 93q-180 0 -306 -127t-126 -311z" />
    <glyph glyph-name="product" unicode="&#x220f;" horiz-adv-x="1501" 
d="M1497 1421l-371 -1743h-137l342 1612h-833l-344 -1612h-138l371 1743h1110z" />
    <glyph glyph-name="summation" unicode="&#x2211;" horiz-adv-x="1316" 
d="M-66 -322l777 883l-406 860h1069l-28 -131h-832l358 -751l-651 -729h809l-26 -132h-1070z" />
    <glyph glyph-name="minus" unicode="&#x2212;" horiz-adv-x="1062" 
d="M143 676h844l-26 -125h-844z" />
    <glyph glyph-name="radical" unicode="&#x221a;" horiz-adv-x="1275" 
d="M223 659l119 -745l954 1620h152l-1184 -1993l-190 1118h149z" />
    <glyph glyph-name="infinity" unicode="&#x221e;" horiz-adv-x="1630" 
d="M1255 954q141 0 224.5 -86.5t83.5 -212.5q0 -152 -114.5 -268.5t-281.5 -116.5q-63 0 -117.5 20t-96 56.5t-71 74t-57.5 85.5q-198 -236 -411 -236q-141 0 -225.5 85t-84.5 210q0 99 49.5 187.5t142.5 145t208 56.5q63 0 117 -20t95.5 -56.5t71 -74t58.5 -86.5
q91 106 190 171.5t219 65.5zM236 580q0 -83 54 -138t140 -55q61 0 123 33t108.5 77.5t102.5 112.5q-56 105 -119 164.5t-153 59.5q-105 0 -180.5 -75.5t-75.5 -178.5zM905 612q55 -104 118.5 -164.5t152.5 -60.5q104 0 179 77.5t75 182.5q0 81 -52.5 134t-138.5 53
q-90 0 -169.5 -59t-164.5 -163z" />
    <glyph glyph-name="integral" unicode="&#x222b;" horiz-adv-x="1243" 
d="M121 -346h-213l26 129h187q204 0 270 213l344 1128q91 297 393 297h213l-26 -129h-187q-204 0 -270 -213l-344 -1128q-91 -297 -393 -297z" />
    <glyph glyph-name="approxequal" unicode="&#x2248;" horiz-adv-x="1062" 
d="M174 797q29 29 53.5 48t72.5 38.5t101 19.5q56 0 130 -30.5t145 -60.5t119 -30q110 0 231 121l-27 -133q-92 -106 -227 -106q-68 0 -202 59t-191 59q-110 0 -232 -118zM76 326l26 133q101 106 228 106q44 0 101 -19t102 -41.5t98 -41.5t92 -19q106 0 231 121l-26 -133
q-97 -106 -228 -106q-56 0 -129.5 29.5t-144.5 59t-119 29.5q-113 0 -231 -118z" />
    <glyph glyph-name="notequal" unicode="&#x2260;" horiz-adv-x="1026" 
d="M987 856l-24 -117h-265l-190 -254h399l-22 -116h-465l-154 -205h-131l154 205h-211l22 116h277l190 254h-411l24 117h475l152 201h131l-152 -201h201z" />
    <glyph glyph-name="lessequal" unicode="&#x2264;" horiz-adv-x="1026" 
d="M51 252h807l-24 -119h-807zM133 735l901 344l-26 -129l-586 -221l487 -237l-24 -115z" />
    <glyph glyph-name="greaterequal" unicode="&#x2265;" horiz-adv-x="1026" 
d="M860 252l-24 -119h-807l24 119h807zM78 377l26 127l590 237l-491 222l24 116l756 -344z" />
    <glyph glyph-name="uni2460" unicode="&#x2460;" horiz-adv-x="1921" 
d="M999 -152q-174 0 -329.5 65t-269 177.5t-180 272.5t-66.5 342t66.5 341.5t180 272t269 177.5t329.5 65q232 0 425.5 -110t307 -307t113.5 -439q0 -182 -66.5 -342t-180 -272.5t-269.5 -177.5t-330 -65zM281 705q0 -156 56 -292.5t152 -233t228.5 -151.5t281.5 -55
t281.5 55.5t228.5 151t152.5 232.5t56.5 293q0 208 -96 376t-260 261.5t-363 93.5q-149 0 -281.5 -55t-228.5 -151t-152 -232.5t-56 -292.5zM666 242l24 116h232l133 625l-250 -98l26 131l400 162l-172 -820h223l-27 -116h-589z" />
    <glyph glyph-name="uni2461" unicode="&#x2461;" horiz-adv-x="1921" 
d="M999 -152q-174 0 -329.5 65t-269 177.5t-180 272.5t-66.5 342t66.5 341.5t180 272t269 177.5t329.5 65q232 0 425.5 -110t307 -307t113.5 -439q0 -182 -66.5 -342t-180 -272.5t-269.5 -177.5t-330 -65zM281 705q0 -156 56 -292.5t152 -233t228.5 -151.5t281.5 -55
t281.5 55.5t228.5 151t152.5 232.5t56.5 293q0 208 -96 376t-260 261.5t-363 93.5q-149 0 -281.5 -55t-228.5 -151t-152 -232.5t-56 -292.5zM580 242l391 354q12 11 46 41t47 41.5t40.5 37.5t39 40t29.5 37t25.5 40t14 38.5t6.5 41.5q0 61 -47.5 99.5t-118.5 38.5
q-149 0 -295 -142l35 160q48 45 122.5 77t167.5 32q122 0 197.5 -68.5t75.5 -173.5q0 -54 -19.5 -104.5t-67 -105t-79 -85t-101.5 -92.5q-6 -6 -9.5 -9t-9 -7.5t-9.5 -8.5l-180 -159h424l-27 -123h-698z" />
    <glyph glyph-name="uni2462" unicode="&#x2462;" horiz-adv-x="1921" 
d="M999 -152q-174 0 -329.5 65t-269 177.5t-180 272.5t-66.5 342t66.5 341.5t180 272t269 177.5t329.5 65q232 0 425.5 -110t307 -307t113.5 -439q0 -182 -66.5 -342t-180 -272.5t-269.5 -177.5t-330 -65zM281 705q0 -156 56 -292.5t152 -233t228.5 -151.5t281.5 -55
t281.5 55.5t228.5 151t152.5 232.5t56.5 293q0 208 -96 376t-260 261.5t-363 93.5q-149 0 -281.5 -55t-228.5 -151t-152 -232.5t-56 -292.5zM614 334l33 155q31 -56 109 -93.5t170 -37.5q109 0 180.5 53.5t71.5 141.5q0 78 -64 120t-158 42q-46 0 -90 -8l297 335h-397
l27 123h612l-318 -358q100 -21 162 -85.5t62 -162.5q0 -146 -110.5 -238t-278.5 -92q-99 0 -186.5 33t-121.5 72z" />
    <glyph glyph-name="uni2463" unicode="&#x2463;" horiz-adv-x="1921" 
d="M999 -152q-174 0 -329.5 65t-269 177.5t-180 272.5t-66.5 342t66.5 341.5t180 272t269 177.5t329.5 65q232 0 425.5 -110t307 -307t113.5 -439q0 -182 -66.5 -342t-180 -272.5t-269.5 -177.5t-330 -65zM281 705q0 -156 56 -292.5t152 -233t228.5 -151.5t281.5 -55
t281.5 55.5t228.5 151t152.5 232.5t56.5 293q0 208 -96 376t-260 261.5t-363 93.5q-149 0 -281.5 -55t-228.5 -151t-152 -232.5t-56 -292.5zM537 459l524 706h145l-440 -590h293l59 273h131l-59 -273h135l-27 -116h-133l-47 -217h-129l45 217h-497z" />
    <glyph glyph-name="uni2464" unicode="&#x2464;" horiz-adv-x="1921" 
d="M999 -152q-174 0 -329.5 65t-269 177.5t-180 272.5t-66.5 342t66.5 341.5t180 272t269 177.5t329.5 65q232 0 425.5 -110t307 -307t113.5 -439q0 -182 -66.5 -342t-180 -272.5t-269.5 -177.5t-330 -65zM281 705q0 -156 56 -292.5t152 -233t228.5 -151.5t281.5 -55
t281.5 55.5t228.5 151t152.5 232.5t56.5 293q0 208 -96 376t-260 261.5t-363 93.5q-149 0 -281.5 -55t-228.5 -151t-152 -232.5t-56 -292.5zM598 332l29 145q36 -56 107 -87.5t157 -31.5q110 0 181 52t71 139q0 73 -65.5 115.5t-168.5 42.5q-104 0 -215 -39l209 497h471
l-26 -123h-375l-101 -239q44 12 107 12q126 0 213.5 -70t87.5 -188q0 -146 -110 -237t-277 -91q-98 0 -183 32.5t-112 70.5z" />
    <glyph glyph-name="uni2465" unicode="&#x2465;" horiz-adv-x="1921" 
d="M999 -152q-174 0 -329.5 65t-269 177.5t-180 272.5t-66.5 342t66.5 341.5t180 272t269 177.5t329.5 65q232 0 425.5 -110t307 -307t113.5 -439q0 -182 -66.5 -342t-180 -272.5t-269.5 -177.5t-330 -65zM281 705q0 -156 56 -292.5t152 -233t228.5 -151.5t281.5 -55
t281.5 55.5t228.5 151t152.5 232.5t56.5 293q0 208 -96 376t-260 261.5t-363 93.5q-149 0 -281.5 -55t-228.5 -151t-152 -232.5t-56 -292.5zM610 524q0 86 41 160t127 164l309 317h158l-307 -319q27 12 72 12q116 0 199 -78.5t83 -201.5q0 -88 -42 -166.5t-126 -130.5
t-192 -52q-146 0 -234 86t-88 209zM745 537q0 -77 54 -128t141 -51q96 0 157.5 64t61.5 149q0 76 -52.5 126.5t-137.5 50.5q-96 0 -160 -62t-64 -149z" />
    <glyph glyph-name="uni2466" unicode="&#x2466;" horiz-adv-x="1921" 
d="M999 -152q-174 0 -329.5 65t-269 177.5t-180 272.5t-66.5 342t66.5 341.5t180 272t269 177.5t329.5 65q232 0 425.5 -110t307 -307t113.5 -439q0 -182 -66.5 -342t-180 -272.5t-269.5 -177.5t-330 -65zM281 705q0 -156 56 -292.5t152 -233t228.5 -151.5t281.5 -55
t281.5 55.5t228.5 151t152.5 232.5t56.5 293q0 208 -96 376t-260 261.5t-363 93.5q-149 0 -281.5 -55t-228.5 -151t-152 -232.5t-56 -292.5zM637 242l592 800h-481l24 123h692l-665 -923h-162z" />
    <glyph glyph-name="uni2467" unicode="&#x2467;" horiz-adv-x="1921" 
d="M999 -152q-174 0 -329.5 65t-269 177.5t-180 272.5t-66.5 342t66.5 341.5t180 272t269 177.5t329.5 65q232 0 425.5 -110t307 -307t113.5 -439q0 -182 -66.5 -342t-180 -272.5t-269.5 -177.5t-330 -65zM281 705q0 -156 56 -292.5t152 -233t228.5 -151.5t281.5 -55
t281.5 55.5t228.5 151t152.5 232.5t56.5 293q0 208 -96 376t-260 261.5t-363 93.5q-149 0 -281.5 -55t-228.5 -151t-152 -232.5t-56 -292.5zM604 504q0 102 73 169.5t191 82.5q-59 29 -92 77t-33 111q0 100 86.5 167t217.5 67q135 0 223 -67.5t88 -170.5q0 -90 -57.5 -147
t-155.5 -72q76 -33 120 -91t44 -130q0 -120 -99.5 -195.5t-253.5 -75.5q-152 0 -252 76t-100 199zM741 514q0 -74 61.5 -121t153.5 -47q94 0 153.5 46t59.5 118t-62.5 119t-150.5 47q-91 0 -153 -45.5t-62 -116.5zM877 926q0 -59 51 -101.5t119 -42.5q75 0 126.5 40.5
t51.5 99.5q0 63 -49.5 101t-128.5 38q-75 0 -122.5 -37.5t-47.5 -97.5z" />
    <glyph glyph-name="uni2468" unicode="&#x2468;" horiz-adv-x="1921" 
d="M999 -152q-174 0 -329.5 65t-269 177.5t-180 272.5t-66.5 342t66.5 341.5t180 272t269 177.5t329.5 65q232 0 425.5 -110t307 -307t113.5 -439q0 -182 -66.5 -342t-180 -272.5t-269.5 -177.5t-330 -65zM281 705q0 -156 56 -292.5t152 -233t228.5 -151.5t281.5 -55
t281.5 55.5t228.5 151t152.5 232.5t56.5 293q0 208 -96 376t-260 261.5t-363 93.5q-149 0 -281.5 -55t-228.5 -151t-152 -232.5t-56 -292.5zM707 831q0 88 42 166.5t126 130.5t192 52q146 0 234 -86t88 -209q0 -86 -41 -160t-127 -164l-310 -317h-157l307 319
q-27 -12 -72 -12q-116 0 -199 78.5t-83 201.5zM840 838q0 -76 52.5 -126t137.5 -50q96 0 159.5 61.5t63.5 148.5q0 78 -53.5 128.5t-140.5 50.5q-96 0 -157.5 -64t-61.5 -149z" />
    <glyph glyph-name="uni24EA" unicode="&#x24ea;" horiz-adv-x="1921" 
d="M999 -152q-174 0 -329.5 65t-269 177.5t-180 272.5t-66.5 342t66.5 341.5t180 272t269 177.5t329.5 65q232 0 425.5 -110t307 -307t113.5 -439q0 -182 -66.5 -342t-180 -272.5t-269.5 -177.5t-330 -65zM281 705q0 -156 56 -292.5t152 -233t228.5 -151.5t281.5 -55
t281.5 55.5t228.5 151t152.5 232.5t56.5 293q0 208 -96 376t-260 261.5t-363 93.5q-149 0 -281.5 -55t-228.5 -151t-152 -232.5t-56 -292.5zM616 616q0 101 29.5 200.5t83 181t138.5 132t186 50.5q151 0 240 -105.5t89 -283.5q0 -101 -29.5 -199.5t-82.5 -180t-138 -132
t-186 -50.5q-150 0 -240 104.5t-90 282.5zM756 621q0 -123 52 -195t140 -72q58 0 108.5 28.5t84 74t58 103t35.5 116t11 112.5q0 123 -53 195t-143 72q-72 0 -130.5 -43t-92.5 -110t-52 -140t-18 -141z" />
    <glyph glyph-name="uni24FF" unicode="&#x24ff;" horiz-adv-x="1921" 
d="M999 -152q174 0 330 65t269.5 177.5t180 272.5t66.5 342q0 242 -113.5 439t-307 307t-425.5 110q-174 0 -329.5 -65t-269 -177.5t-180 -272t-66.5 -341.5t66.5 -342t180 -272.5t269 -177.5t329.5 -65zM616 616q0 101 29.5 200.5t83 181t138.5 132t186 50.5
q151 0 240 -105.5t89 -283.5q0 -101 -29.5 -199.5t-82.5 -180t-138 -132t-186 -50.5q-150 0 -240 104.5t-90 282.5zM756 621q0 -123 52 -195t140 -72q58 0 108.5 28.5t84 74t58 103t35.5 116t11 112.5q0 123 -53 195t-143 72q-72 0 -130.5 -43t-92.5 -110t-52 -140t-18 -141
z" />
    <glyph glyph-name="lozenge" unicode="&#x25ca;" horiz-adv-x="1196" 
d="M1118 711l-569 -711h-127l-264 711l567 710h127zM311 700l199 -557l455 578l-199 555z" />
    <glyph glyph-name="circle" unicode="&#x25cb;" horiz-adv-x="1921" 
d="M999 -152q-174 0 -329.5 65t-269 177.5t-180 272.5t-66.5 342t66.5 341.5t180 272t269 177.5t329.5 65q232 0 425.5 -110t307 -307t113.5 -439q0 -182 -66.5 -342t-180 -272.5t-269.5 -177.5t-330 -65zM281 705q0 -156 56 -292.5t152 -233t228.5 -151.5t281.5 -55
t281.5 55.5t228.5 151t152.5 232.5t56.5 293q0 208 -96 376t-260 261.5t-363 93.5q-149 0 -281.5 -55t-228.5 -151t-152 -232.5t-56 -292.5z" />
    <glyph glyph-name="uni25CF" unicode="&#x25cf;" horiz-adv-x="1921" 
d="M999 -152q174 0 330 65t269.5 177.5t180 272.5t66.5 342q0 242 -113.5 439t-307 307t-425.5 110q-174 0 -329.5 -65t-269 -177.5t-180 -272t-66.5 -341.5t66.5 -342t180 -272.5t269 -177.5t329.5 -65z" />
    <glyph glyph-name="uni2713" unicode="&#x2713;" horiz-adv-x="1789" 
d="M1679 1421h174l-1294 -1437l-422 665h156l289 -444z" />
    <glyph glyph-name="uni2776" unicode="&#x2776;" horiz-adv-x="1921" 
d="M999 -152q174 0 330 65t269.5 177.5t180 272.5t66.5 342q0 242 -113.5 439t-307 307t-425.5 110q-174 0 -329.5 -65t-269 -177.5t-180 -272t-66.5 -341.5t66.5 -342t180 -272.5t269 -177.5t329.5 -65zM666 242l24 116h232l133 625l-250 -98l26 131l400 162l-172 -820h223
l-27 -116h-589z" />
    <glyph glyph-name="uni2777" unicode="&#x2777;" horiz-adv-x="1921" 
d="M999 -152q174 0 330 65t269.5 177.5t180 272.5t66.5 342q0 242 -113.5 439t-307 307t-425.5 110q-174 0 -329.5 -65t-269 -177.5t-180 -272t-66.5 -341.5t66.5 -342t180 -272.5t269 -177.5t329.5 -65zM580 242l391 354q12 11 46 41t47 41.5t40.5 37.5t39 40t29.5 37
t25.5 40t14 38.5t6.5 41.5q0 61 -47.5 99.5t-118.5 38.5q-149 0 -295 -142l35 160q48 45 122.5 77t167.5 32q122 0 197.5 -68.5t75.5 -173.5q0 -54 -19.5 -104.5t-67 -105t-79 -85t-101.5 -92.5q-6 -6 -9.5 -9t-9 -7.5t-9.5 -8.5l-180 -159h424l-27 -123h-698z" />
    <glyph glyph-name="uni2778" unicode="&#x2778;" horiz-adv-x="1921" 
d="M999 -152q174 0 330 65t269.5 177.5t180 272.5t66.5 342q0 242 -113.5 439t-307 307t-425.5 110q-174 0 -329.5 -65t-269 -177.5t-180 -272t-66.5 -341.5t66.5 -342t180 -272.5t269 -177.5t329.5 -65zM614 334l33 155q31 -56 109 -93.5t170 -37.5q109 0 180.5 53.5
t71.5 141.5q0 78 -64 120t-158 42q-46 0 -90 -8l297 335h-397l27 123h612l-318 -358q100 -21 162 -85.5t62 -162.5q0 -146 -110.5 -238t-278.5 -92q-99 0 -186.5 33t-121.5 72z" />
    <glyph glyph-name="uni2779" unicode="&#x2779;" horiz-adv-x="1921" 
d="M999 -152q174 0 330 65t269.5 177.5t180 272.5t66.5 342q0 242 -113.5 439t-307 307t-425.5 110q-174 0 -329.5 -65t-269 -177.5t-180 -272t-66.5 -341.5t66.5 -342t180 -272.5t269 -177.5t329.5 -65zM537 459l524 706h145l-440 -590h293l59 273h131l-59 -273h135
l-27 -116h-133l-47 -217h-129l45 217h-497z" />
    <glyph glyph-name="uni277A" unicode="&#x277a;" horiz-adv-x="1921" 
d="M999 -152q174 0 330 65t269.5 177.5t180 272.5t66.5 342q0 242 -113.5 439t-307 307t-425.5 110q-174 0 -329.5 -65t-269 -177.5t-180 -272t-66.5 -341.5t66.5 -342t180 -272.5t269 -177.5t329.5 -65zM598 332l29 145q36 -56 107 -87.5t157 -31.5q110 0 181 52t71 139
q0 73 -65.5 115.5t-168.5 42.5q-104 0 -215 -39l209 497h471l-26 -123h-375l-101 -239q44 12 107 12q126 0 213.5 -70t87.5 -188q0 -146 -110 -237t-277 -91q-98 0 -183 32.5t-112 70.5z" />
    <glyph glyph-name="uni277B" unicode="&#x277b;" horiz-adv-x="1921" 
d="M999 -152q174 0 330 65t269.5 177.5t180 272.5t66.5 342q0 242 -113.5 439t-307 307t-425.5 110q-174 0 -329.5 -65t-269 -177.5t-180 -272t-66.5 -341.5t66.5 -342t180 -272.5t269 -177.5t329.5 -65zM610 524q0 86 41 160t127 164l309 317h158l-307 -319q27 12 72 12
q116 0 199 -78.5t83 -201.5q0 -88 -42 -166.5t-126 -130.5t-192 -52q-146 0 -234 86t-88 209zM745 537q0 -77 54 -128t141 -51q96 0 157.5 64t61.5 149q0 76 -52.5 126.5t-137.5 50.5q-96 0 -160 -62t-64 -149z" />
    <glyph glyph-name="uni277C" unicode="&#x277c;" horiz-adv-x="1921" 
d="M999 -152q174 0 330 65t269.5 177.5t180 272.5t66.5 342q0 242 -113.5 439t-307 307t-425.5 110q-174 0 -329.5 -65t-269 -177.5t-180 -272t-66.5 -341.5t66.5 -342t180 -272.5t269 -177.5t329.5 -65zM637 242l592 800h-481l24 123h692l-665 -923h-162z" />
    <glyph glyph-name="uni277D" unicode="&#x277d;" horiz-adv-x="1921" 
d="M999 -152q174 0 330 65t269.5 177.5t180 272.5t66.5 342q0 242 -113.5 439t-307 307t-425.5 110q-174 0 -329.5 -65t-269 -177.5t-180 -272t-66.5 -341.5t66.5 -342t180 -272.5t269 -177.5t329.5 -65zM604 504q0 102 73 169.5t191 82.5q-59 29 -92 77t-33 111
q0 100 86.5 167t217.5 67q135 0 223 -67.5t88 -170.5q0 -90 -57.5 -147t-155.5 -72q76 -33 120 -91t44 -130q0 -120 -99.5 -195.5t-253.5 -75.5q-152 0 -252 76t-100 199zM741 514q0 -74 61.5 -121t153.5 -47q94 0 153.5 46t59.5 118t-62.5 119t-150.5 47q-91 0 -153 -45.5
t-62 -116.5zM877 926q0 -59 51 -101.5t119 -42.5q75 0 126.5 40.5t51.5 99.5q0 63 -49.5 101t-128.5 38q-75 0 -122.5 -37.5t-47.5 -97.5z" />
    <glyph glyph-name="uni277E" unicode="&#x277e;" horiz-adv-x="1921" 
d="M999 -152q174 0 330 65t269.5 177.5t180 272.5t66.5 342q0 242 -113.5 439t-307 307t-425.5 110q-174 0 -329.5 -65t-269 -177.5t-180 -272t-66.5 -341.5t66.5 -342t180 -272.5t269 -177.5t329.5 -65zM707 831q0 88 42 166.5t126 130.5t192 52q146 0 234 -86t88 -209
q0 -86 -41 -160t-127 -164l-310 -317h-157l307 319q-27 -12 -72 -12q-116 0 -199 78.5t-83 201.5zM840 838q0 -76 52.5 -126t137.5 -50q96 0 159.5 61.5t63.5 148.5q0 78 -53.5 128.5t-140.5 50.5q-96 0 -157.5 -64t-61.5 -149z" />
    <glyph glyph-name="uni004A0301" horiz-adv-x="749" 
d="M614 1421h138l-234 -1095q-34 -164 -127 -245t-250 -81h-184l29 131h155q97 0 158 51t88 172zM590 1589l330 307h170l-332 -307h-168z" />
    <glyph glyph-name="i.loclTRK" horiz-adv-x="471" 
d="M416 1047l-223 -1047h-138l226 1047h135zM322 1368q0 38 27 65t67 27t68 -27t28 -65q0 -40 -28 -67t-68 -27t-67 27t-27 67z" />
    <glyph glyph-name="uni006A0301" horiz-adv-x="477" 
d="M287 1047h135l-256 -1199q-60 -290 -324 -290h-159l28 129h129q157 0 195 180zM262 1214l330 308h170l-332 -308h-168z" />
    <glyph glyph-name="a.salt" horiz-adv-x="1310" 
d="M1253 1047l-223 -1047h-137l41 193q-64 -95 -168.5 -152t-230.5 -57q-181 0 -306 125.5t-125 332.5q0 122 43.5 236t118 199.5t179.5 136.5t221 51q159 0 261.5 -89t129.5 -216l61 287h135zM246 459q0 -82 28 -149.5t74.5 -110t104 -65.5t118.5 -23q134 0 250 82.5
t166 240.5l21 94q10 88 -13.5 165t-70.5 129t-112.5 82t-139.5 30q-117 0 -216 -67.5t-154.5 -176.5t-55.5 -231z" />
    <glyph glyph-name="aacute.salt" horiz-adv-x="1310" 
d="M1253 1047l-223 -1047h-137l41 193q-64 -95 -168.5 -152t-230.5 -57q-181 0 -306 125.5t-125 332.5q0 122 43.5 236t118 199.5t179.5 136.5t221 51q159 0 261.5 -89t129.5 -216l61 287h135zM246 459q0 -82 28 -149.5t74.5 -110t104 -65.5t118.5 -23q134 0 250 82.5
t166 240.5l21 94q10 88 -13.5 165t-70.5 129t-112.5 82t-139.5 30q-117 0 -216 -67.5t-154.5 -176.5t-55.5 -231zM674 1214l330 308h170l-332 -308h-168z" />
    <glyph glyph-name="abreve.salt" horiz-adv-x="1310" 
d="M1253 1047l-223 -1047h-137l41 193q-64 -95 -168.5 -152t-230.5 -57q-181 0 -306 125.5t-125 332.5q0 122 43.5 236t118 199.5t179.5 136.5t221 51q159 0 261.5 -89t129.5 -216l61 287h135zM246 459q0 -82 28 -149.5t74.5 -110t104 -65.5t118.5 -23q134 0 250 82.5
t166 240.5l21 94q10 88 -13.5 165t-70.5 129t-112.5 82t-139.5 30q-117 0 -216 -67.5t-154.5 -176.5t-55.5 -231zM580 1505h116q-14 -71 25.5 -120.5t112.5 -49.5q72 0 127.5 49t66.5 121h119q-20 -127 -107 -202.5t-209 -75.5q-123 0 -198 77.5t-53 200.5z" />
    <glyph glyph-name="uni01CE.salt" horiz-adv-x="1310" 
d="M1253 1047l-223 -1047h-137l41 193q-64 -95 -168.5 -152t-230.5 -57q-181 0 -306 125.5t-125 332.5q0 122 43.5 236t118 199.5t179.5 136.5t221 51q159 0 261.5 -89t129.5 -216l61 287h135zM246 459q0 -82 28 -149.5t74.5 -110t104 -65.5t118.5 -23q134 0 250 82.5
t166 240.5l21 94q10 88 -13.5 165t-70.5 129t-112.5 82t-139.5 30q-117 0 -216 -67.5t-154.5 -176.5t-55.5 -231zM535 1513h139l141 -167l217 167h160l-397 -323z" />
    <glyph glyph-name="acircumflex.salt" horiz-adv-x="1310" 
d="M1253 1047l-223 -1047h-137l41 193q-64 -95 -168.5 -152t-230.5 -57q-181 0 -306 125.5t-125 332.5q0 122 43.5 236t118 199.5t179.5 136.5t221 51q159 0 261.5 -89t129.5 -216l61 287h135zM246 459q0 -82 28 -149.5t74.5 -110t104 -65.5t118.5 -23q134 0 250 82.5
t166 240.5l21 94q10 88 -13.5 165t-70.5 129t-112.5 82t-139.5 30q-117 0 -216 -67.5t-154.5 -176.5t-55.5 -231zM473 1214l397 324l260 -324h-139l-141 168l-217 -168h-160z" />
    <glyph glyph-name="adieresis.salt" horiz-adv-x="1310" 
d="M1253 1047l-223 -1047h-137l41 193q-64 -95 -168.5 -152t-230.5 -57q-181 0 -306 125.5t-125 332.5q0 122 43.5 236t118 199.5t179.5 136.5t221 51q159 0 261.5 -89t129.5 -216l61 287h135zM246 459q0 -82 28 -149.5t74.5 -110t104 -65.5t118.5 -23q134 0 250 82.5
t166 240.5l21 94q10 88 -13.5 165t-70.5 129t-112.5 82t-139.5 30q-117 0 -216 -67.5t-154.5 -176.5t-55.5 -231zM553 1368q0 40 27 67t67 27t68 -27t28 -67q0 -38 -28 -65t-68 -27t-67 27t-27 65zM924 1368q0 40 27 67t67 27t67 -27t27 -67q0 -38 -27 -65t-67 -27t-67 27
t-27 65z" />
    <glyph glyph-name="agrave.salt" horiz-adv-x="1310" 
d="M1253 1047l-223 -1047h-137l41 193q-64 -95 -168.5 -152t-230.5 -57q-181 0 -306 125.5t-125 332.5q0 122 43.5 236t118 199.5t179.5 136.5t221 51q159 0 261.5 -89t129.5 -216l61 287h135zM246 459q0 -82 28 -149.5t74.5 -110t104 -65.5t118.5 -23q134 0 250 82.5
t166 240.5l21 94q10 88 -13.5 165t-70.5 129t-112.5 82t-139.5 30q-117 0 -216 -67.5t-154.5 -176.5t-55.5 -231zM524 1522h144l227 -308h-143z" />
    <glyph glyph-name="amacron.salt" horiz-adv-x="1310" 
d="M1253 1047l-223 -1047h-137l41 193q-64 -95 -168.5 -152t-230.5 -57q-181 0 -306 125.5t-125 332.5q0 122 43.5 236t118 199.5t179.5 136.5t221 51q159 0 261.5 -89t129.5 -216l61 287h135zM246 459q0 -82 28 -149.5t74.5 -110t104 -65.5t118.5 -23q134 0 250 82.5
t166 240.5l21 94q10 88 -13.5 165t-70.5 129t-112.5 82t-139.5 30q-117 0 -216 -67.5t-154.5 -176.5t-55.5 -231zM569 1311l25 114h502l-25 -114h-502z" />
    <glyph glyph-name="aogonek.salt" horiz-adv-x="1310" 
d="M1253 1047l-223 -1047h-2q-128 -82 -191 -142t-63 -124q0 -37 26 -57.5t70 -20.5q54 0 105 35l-25 -117q-54 -33 -125 -33q-77 0 -130.5 45.5t-53.5 122.5q0 85 76 155.5t209 135.5h-33l41 193q-64 -95 -168.5 -152t-230.5 -57q-181 0 -306 125.5t-125 332.5
q0 122 43.5 236t118 199.5t179.5 136.5t221 51q159 0 261.5 -89t129.5 -216l61 287h135zM246 459q0 -82 28 -149.5t74.5 -110t104 -65.5t118.5 -23q134 0 250 82.5t166 240.5l21 94q10 88 -13.5 165t-70.5 129t-112.5 82t-139.5 30q-117 0 -216 -67.5t-154.5 -176.5
t-55.5 -231z" />
    <glyph glyph-name="aring.salt" horiz-adv-x="1310" 
d="M1253 1047l-223 -1047h-137l41 193q-64 -95 -168.5 -152t-230.5 -57q-181 0 -306 125.5t-125 332.5q0 122 43.5 236t118 199.5t179.5 136.5t221 51q159 0 261.5 -89t129.5 -216l61 287h135zM246 459q0 -82 28 -149.5t74.5 -110t104 -65.5t118.5 -23q134 0 250 82.5
t166 240.5l21 94q10 88 -13.5 165t-70.5 129t-112.5 82t-139.5 30q-117 0 -216 -67.5t-154.5 -176.5t-55.5 -231zM629 1368q0 82 59 140.5t143 58.5q87 0 146 -58t59 -141q0 -85 -58.5 -142t-146.5 -57q-85 0 -143.5 57.5t-58.5 141.5zM729 1368q0 -45 31 -73.5t71 -28.5
q43 0 74 28t31 74q0 43 -31.5 71.5t-73.5 28.5q-40 0 -71 -28.5t-31 -71.5z" />
    <glyph glyph-name="atilde.salt" horiz-adv-x="1310" 
d="M1253 1047l-223 -1047h-137l41 193q-64 -95 -168.5 -152t-230.5 -57q-181 0 -306 125.5t-125 332.5q0 122 43.5 236t118 199.5t179.5 136.5t221 51q159 0 261.5 -89t129.5 -216l61 287h135zM246 459q0 -82 28 -149.5t74.5 -110t104 -65.5t118.5 -23q134 0 250 82.5
t166 240.5l21 94q10 88 -13.5 165t-70.5 129t-112.5 82t-139.5 30q-117 0 -216 -67.5t-154.5 -176.5t-55.5 -231zM510 1266l27 125q67 79 165 79q44 0 96 -23.5t101 -47t88 -23.5q87 0 168 94l-25 -127q-69 -77 -165 -77q-55 0 -147 46t-136 46q-90 0 -172 -92z" />
    <glyph glyph-name="uni0430.salt" horiz-adv-x="1310" 
d="M1253 1047l-223 -1047h-137l41 193q-64 -95 -168.5 -152t-230.5 -57q-181 0 -306 125.5t-125 332.5q0 122 43.5 236t118 199.5t179.5 136.5t221 51q159 0 261.5 -89t129.5 -216l61 287h135zM246 459q0 -82 28 -149.5t74.5 -110t104 -65.5t118.5 -23q134 0 250 82.5
t166 240.5l21 94q10 88 -13.5 165t-70.5 129t-112.5 82t-139.5 30q-117 0 -216 -67.5t-154.5 -176.5t-55.5 -231z" />
    <glyph glyph-name="uni04D1.salt" horiz-adv-x="1310" 
d="M1253 1047l-223 -1047h-137l41 193q-64 -95 -168.5 -152t-230.5 -57q-181 0 -306 125.5t-125 332.5q0 122 43.5 236t118 199.5t179.5 136.5t221 51q159 0 261.5 -89t129.5 -216l61 287h135zM246 459q0 -82 28 -149.5t74.5 -110t104 -65.5t118.5 -23q134 0 250 82.5
t166 240.5l21 94q10 88 -13.5 165t-70.5 129t-112.5 82t-139.5 30q-117 0 -216 -67.5t-154.5 -176.5t-55.5 -231zM557 1481h117q-14 -71 25 -120.5t112 -49.5q72 0 128.5 49t66.5 121h118q-20 -128 -107 -203.5t-208 -75.5q-123 0 -198.5 78t-53.5 201z" />
    <glyph glyph-name="uni04D3.salt" horiz-adv-x="1310" 
d="M1253 1047l-223 -1047h-137l41 193q-64 -95 -168.5 -152t-230.5 -57q-181 0 -306 125.5t-125 332.5q0 122 43.5 236t118 199.5t179.5 136.5t221 51q159 0 261.5 -89t129.5 -216l61 287h135zM246 459q0 -82 28 -149.5t74.5 -110t104 -65.5t118.5 -23q134 0 250 82.5
t166 240.5l21 94q10 88 -13.5 165t-70.5 129t-112.5 82t-139.5 30q-117 0 -216 -67.5t-154.5 -176.5t-55.5 -231zM553 1368q0 40 27 67t67 27t68 -27t28 -67q0 -38 -28 -65t-68 -27t-67 27t-27 65zM924 1368q0 40 27 67t67 27t67 -27t27 -67q0 -38 -27 -65t-67 -27t-67 27
t-27 65z" />
    <glyph glyph-name="zero.tf" horiz-adv-x="1189" 
d="M532 -16q-199 0 -302 146t-103 398q0 104 15.5 208.5t46 208t80.5 192t115 157t154 107.5t193 39q202 0 307 -146.5t105 -396.5q0 -128 -22 -254t-70.5 -246t-118 -211t-173 -146.5t-227.5 -55.5zM264 512q0 -132 35 -225l608 948q-70 70 -180 70q-77 0 -142.5 -30.5
t-112 -80.5t-83.5 -118.5t-60 -140.5t-38 -150.5t-21 -145t-6 -127.5zM360 188q66 -69 179 -69q75 0 139.5 30t111 80t84 118t61.5 140t40 150t22.5 145t6.5 127q0 136 -35 226z" />
    <glyph glyph-name="one.tf" horiz-adv-x="1189" 
d="M141 125h351l235 1104l-381 -160l29 141l536 228l-278 -1313h334l-29 -125h-823z" />
    <glyph glyph-name="two.tf" horiz-adv-x="1189" 
d="M283 1274q177 164 424 164q171 0 278 -101t107 -254q0 -48 -13 -97t-29.5 -88t-53 -88.5t-60.5 -79.5t-77 -81t-78 -73.5t-87 -77t-82 -72.5l-327 -295h706l-28 -131h-1002l557 506q26 24 82 73.5t87.5 78.5t79 75.5t75 83t56 81t41.5 88t13 87.5q0 100 -75 166t-191 66
q-229 0 -442 -213z" />
    <glyph glyph-name="three.tf" horiz-adv-x="1189" 
d="M483 -16q-149 0 -278 51.5t-170 111.5l39 181q43 -87 158.5 -148t256.5 -61q113 0 205 42.5t147.5 125t55.5 190.5q0 131 -98 203t-250 72q-62 0 -127 -11l477 551h-620l28 129h858l-483 -555q151 -26 251.5 -128t100.5 -259q0 -219 -157 -357t-394 -138z" />
    <glyph glyph-name="four.tf" horiz-adv-x="1189" 
d="M864 932h140l-99 -459h203l-27 -131h-202l-74 -342h-139l73 342h-753l823 1079h154l-723 -950l526 2z" />
    <glyph glyph-name="five.tf" horiz-adv-x="1189" 
d="M1171 1421l-28 -131h-565l-183 -446q73 26 178 26q186 0 313.5 -110.5t127.5 -282.5q0 -145 -73.5 -258.5t-199.5 -174t-282 -60.5q-143 0 -265.5 51t-156.5 110l35 170q47 -91 152 -143.5t239 -52.5q174 0 289.5 96t115.5 254q0 128 -99.5 203.5t-256.5 75.5
q-95 0 -165.5 -16.5t-147.5 -47.5l303 737h669z" />
    <glyph glyph-name="six.tf" horiz-adv-x="1189" 
d="M653 926q175 0 295.5 -119.5t120.5 -300.5q0 -133 -62.5 -251t-182.5 -194.5t-271 -76.5q-101 0 -186 35.5t-141.5 95.5t-88 139t-31.5 166q0 92 34 179t84.5 155t135.5 159l474 508h170l-478 -516q61 21 127 21zM248 424q0 -131 87.5 -218t229.5 -87q106 0 192.5 56
t131.5 142.5t45 182.5q0 131 -87 217t-226 86q-160 0 -266.5 -110.5t-106.5 -268.5z" />
    <glyph glyph-name="seven.tf" horiz-adv-x="1189" 
d="M1282 1421l-1012 -1421h-166l932 1292h-762l29 129h979z" />
    <glyph glyph-name="eight.tf" horiz-adv-x="1189" 
d="M565 -16q-142 0 -255.5 49t-180 142.5t-66.5 215.5q0 88 33.5 160t91.5 119.5t131.5 76.5t157.5 39q-91 44 -144.5 120.5t-53.5 172.5q0 156 122 257.5t310 101.5q191 0 313.5 -101.5t122.5 -257.5q0 -137 -88.5 -226.5t-241.5 -111.5q114 -46 184 -135t70 -215
q0 -184 -144 -295.5t-362 -111.5zM207 403q0 -130 101.5 -209t256.5 -79q158 0 260.5 79t102.5 209q0 127 -104 208t-253 81q-155 0 -259.5 -80.5t-104.5 -208.5zM422 1065q0 -103 84 -175.5t199 -72.5q126 0 212.5 72t86.5 176q0 109 -81 175.5t-212 66.5
q-128 0 -208.5 -67t-80.5 -175z" />
    <glyph glyph-name="nine.tf" horiz-adv-x="1189" 
d="M614 496q-175 0 -295 119t-120 300q0 98 37 192t103 167.5t164 118.5t212 45q134 0 237 -61t156 -159.5t53 -216.5q0 -92 -34 -179t-84.5 -155t-135.5 -159l-473 -508h-170l477 516q-58 -20 -127 -20zM334 922q0 -131 87 -217.5t226 -86.5q160 0 266.5 110.5t106.5 268.5
q0 131 -88 218.5t-230 87.5q-106 0 -192 -56t-131 -142.5t-45 -182.5z" />
    <glyph glyph-name="zero.dnom" horiz-adv-x="956" 
d="M412 -12q-150 0 -240 104.5t-90 282.5q0 102 29.5 200.5t82.5 180t138 132t186 50.5q151 0 240.5 -105.5t89.5 -283.5q0 -80 -18 -159.5t-55 -152t-88 -128t-122 -88.5t-153 -33zM221 379q0 -123 52.5 -194.5t140.5 -71.5q58 0 108.5 28.5t84 74t58 103t35.5 116
t11 112.5q0 122 -53.5 194t-143.5 72q-72 0 -130.5 -43t-92.5 -110t-52 -140t-18 -141z" />
    <glyph glyph-name="one.dnom" 
d="M76 117h231l133 624l-250 -98l27 131l399 162l-172 -819h224l-27 -117h-590z" />
    <glyph glyph-name="two.dnom" horiz-adv-x="856" 
d="M164 827q48 44 123 76.5t168 32.5q122 0 197 -68.5t75 -173.5q0 -54 -21 -105.5t-63 -101t-81.5 -87.5t-99.5 -91l-10.5 -9t-9 -8t-10.5 -9l-180 -160h424l-27 -123h-698l391 354q12 11 41 36.5t42 37t37.5 34t36 35.5t29.5 33.5t26.5 35.5t18 33.5t13.5 36.5t4 36
q0 61 -47.5 99t-118.5 38q-150 0 -295 -141z" />
    <glyph glyph-name="three.dnom" 
d="M309 -12q-99 0 -186 32.5t-121 71.5l33 156q31 -57 108.5 -94t169.5 -37q109 0 180.5 53t71.5 141q0 78 -63.5 120t-157.5 42q-46 0 -90 -8l297 336h-397l26 123h613l-318 -359q100 -21 161.5 -85.5t61.5 -162.5q0 -146 -110.5 -237.5t-278.5 -91.5z" />
    <glyph glyph-name="four.dnom" 
d="M549 606h131l-59 -272h135l-27 -117h-133l-47 -217h-129l45 217h-498l525 707h145l-440 -590h292z" />
    <glyph glyph-name="five.dnom" 
d="M782 924l-26 -123h-375l-100 -240q43 12 106 12q126 0 213.5 -70t87.5 -188q0 -146 -110 -236.5t-277 -90.5q-98 0 -183 32t-112 70l29 146q36 -56 107 -87.5t157 -31.5q110 0 181 51.5t71 138.5q0 73 -65.5 115.5t-168.5 42.5q-104 0 -215 -39l209 498h471z" />
    <glyph glyph-name="six.dnom" 
d="M446 616q116 0 199.5 -78.5t83.5 -201.5q0 -88 -42 -166.5t-126 -130t-192 -51.5q-146 0 -234 86t-88 209q0 86 41 159.5t127 163.5l309 318h158l-307 -320q27 12 71 12zM182 295q0 -77 54 -127.5t141 -50.5q96 0 157.5 64t61.5 149q0 76 -52.5 126t-137.5 50
q-96 0 -160 -62t-64 -149z" />
    <glyph glyph-name="seven.dnom" 
d="M870 924l-665 -924h-162l592 801h-481l24 123h692z" />
    <glyph glyph-name="eight.dnom" 
d="M373 -12q-152 0 -252.5 76t-100.5 198q0 102 73.5 169.5t191.5 82.5q-59 29 -92 77t-33 111q0 100 86 167t217 67q135 0 223 -67.5t88 -170.5q0 -90 -57.5 -147t-155.5 -72q76 -33 120 -91t44 -130q0 -120 -99 -195t-253 -75zM158 272q0 -74 61.5 -121t153.5 -47
q94 0 153.5 46t59.5 118t-62.5 119t-150.5 47q-91 0 -153 -45.5t-62 -116.5zM293 684q0 -59 51 -101t119 -42q75 0 126.5 40t51.5 99q0 63 -49.5 101t-128.5 38q-75 0 -122.5 -37.5t-47.5 -97.5z" />
    <glyph glyph-name="nine.dnom" 
d="M387 307q-116 0 -199.5 79t-83.5 202q0 65 25 127t70.5 111.5t115 79.5t150.5 30q146 0 233.5 -86t87.5 -209q0 -86 -41 -160t-127 -164l-309 -317h-157l307 319q-27 -12 -72 -12zM238 594q0 -76 52.5 -126t137.5 -50q96 0 159.5 62t63.5 149q0 77 -53.5 127.5
t-140.5 50.5q-96 0 -157.5 -64t-61.5 -149z" />
    <glyph glyph-name="zero.numr" horiz-adv-x="956" 
d="M516 483q-150 0 -240 104.5t-90 282.5q0 101 29.5 200.5t83 181t138.5 132t186 50.5q151 0 240 -105.5t89 -284.5q0 -80 -18 -159.5t-55 -152t-88 -128t-122 -88.5t-153 -33zM326 874q0 -123 52 -194.5t140 -71.5q58 0 108.5 28.5t84 74t58 103t35.5 116t11 112.5
q0 123 -53.5 195t-143.5 72q-58 0 -108 -29t-83 -74.5t-56.5 -104t-34 -116t-10.5 -111.5z" />
    <glyph glyph-name="one.numr" 
d="M180 612h232l133 625l-250 -98l27 131l399 162l-172 -820h223l-27 -116h-589z" />
    <glyph glyph-name="two.numr" horiz-adv-x="856" 
d="M268 1323q48 44 123 76.5t168 32.5q122 0 197 -68.5t75 -173.5q0 -44 -16.5 -89t-37.5 -78.5t-63 -78.5t-69.5 -70.5t-81.5 -72.5q-6 -5 -9 -8t-8 -7t-9 -8l-181 -160h424l-26 -122h-699l391 354q12 11 46 41t47 41.5t40.5 37.5t39 40t29.5 37t25.5 40t14 38.5t6.5 41.5
q0 61 -47.5 99.5t-118.5 38.5q-149 0 -295 -142z" />
    <glyph glyph-name="three.numr" 
d="M414 483q-99 0 -186.5 33t-121.5 72l33 155q31 -56 109 -93.5t170 -37.5q109 0 180.5 53.5t71.5 141.5q0 78 -63.5 120t-157.5 42q-47 0 -91 -8l297 335h-397l27 123h612l-317 -358q100 -21 161.5 -85.5t61.5 -162.5q0 -146 -110.5 -238t-278.5 -92z" />
    <glyph glyph-name="four.numr" 
d="M653 1102h131l-59 -273h135l-26 -116h-134l-47 -217h-129l45 217h-497l524 706h145l-440 -590h293z" />
    <glyph glyph-name="five.numr" 
d="M887 1419l-27 -123h-375l-100 -239q44 12 107 12q126 0 213.5 -70t87.5 -188q0 -146 -110 -237t-277 -91q-98 0 -183 32.5t-112 70.5l28 145q36 -56 107 -87.5t157 -31.5q110 0 181 52t71 139q0 73 -65.5 115.5t-167.5 42.5q-104 0 -215 -39l209 497h471z" />
    <glyph glyph-name="six.numr" 
d="M551 1112q116 0 199.5 -79t83.5 -202q0 -65 -25 -127t-70.5 -111.5t-115 -79.5t-150.5 -30q-146 0 -233.5 86t-87.5 209q0 86 40.5 160t126.5 164l310 317h157l-307 -319q27 12 72 12zM287 791q0 -78 53.5 -128.5t140.5 -50.5q96 0 157.5 64t61.5 149q0 76 -52.5 126
t-137.5 50q-96 0 -159.5 -61.5t-63.5 -148.5z" />
    <glyph glyph-name="seven.numr" 
d="M975 1419l-666 -923h-162l592 800h-481l25 123h692z" />
    <glyph glyph-name="eight.numr" 
d="M477 483q-152 0 -252 76t-100 199q0 102 73 169.5t191 82.5q-59 29 -92 77t-33 111q0 100 86 167t217 67q135 0 223.5 -67.5t88.5 -170.5q0 -90 -57.5 -147t-155.5 -72q76 -33 119.5 -90.5t43.5 -130.5q0 -120 -99 -195.5t-253 -75.5zM262 768q0 -74 61.5 -121t153.5 -47
q94 0 153.5 46t59.5 118t-62.5 119t-150.5 47q-91 0 -153 -45.5t-62 -116.5zM397 1180q0 -59 51 -101.5t119 -42.5q75 0 126.5 40.5t51.5 99.5q0 63 -49.5 101t-128.5 38q-75 0 -122.5 -37.5t-47.5 -97.5z" />
    <glyph glyph-name="nine.numr" 
d="M492 803q-116 0 -199.5 78.5t-83.5 201.5q0 88 42 166.5t126 130.5t192 52q146 0 234 -86t88 -209q0 -86 -41 -160t-127 -164l-309 -317h-158l307 319q-27 -12 -71 -12zM342 1090q0 -76 52.5 -126.5t137.5 -50.5q96 0 160 62t64 149q0 77 -54 128t-141 51
q-96 0 -157.5 -64t-61.5 -149z" />
    <glyph glyph-name="colon.case" horiz-adv-x="444" 
d="M354 1231q41 0 70 -29t29 -72q0 -41 -29 -69.5t-70 -28.5t-70.5 28.5t-29.5 69.5q0 42 29 71.5t71 29.5zM76 289q0 42 29 71t71 29q41 0 69.5 -28.5t28.5 -71.5q0 -41 -28.5 -70t-69.5 -29t-70.5 29t-29.5 70z" />
    <glyph glyph-name="slash.case" horiz-adv-x="921" 
d="M1108 1602l-1067 -1782h-145l1067 1782h145z" />
    <glyph glyph-name="backslash.case" horiz-adv-x="1679" 
d="M274 1602h146l1067 -1782h-146z" />
    <glyph glyph-name="hyphen.case" horiz-adv-x="817" 
d="M748 776l-29 -129h-569l28 129h570z" />
    </font>
</defs>
</svg>
