<?xml version="1.0" standalone="no"?>
<!DOCTYPE svg PUBLIC "-//W3C//DTD SVG 1.1//EN" "http://www.w3.org/Graphics/SVG/1.1/DTD/svg11.dtd" >
<svg xmlns="http://www.w3.org/2000/svg" xmlns:xlink="http://www.w3.org/1999/xlink" version="1.1">
<metadata>
Created by FontForge 20170731 at Tue Jul 26 11:27:55 2022
 By Aleksey,,,
Copyright (c) 2022 by Art. Lebedev Studio. All rights reserved.
</metadata>
<defs>
<font id="ALSGranate-Light" horiz-adv-x="849" >
  <font-face 
    font-family="ALS Granate Light"
    font-weight="200"
    font-stretch="normal"
    units-per-em="2048"
    panose-1="0 0 0 0 0 0 0 0 0 0"
    ascent="1638"
    descent="-410"
    x-height="1038"
    cap-height="1421"
    bbox="-260 -487 2400 2007"
    underline-thickness="88"
    underline-position="-335"
    unicode-range="U+0020-277E"
  />
<missing-glyph horiz-adv-x="1146" 
d="M940 1843v-2294h-727v2294h727zM383 -293h381v76h-234l160 108h74v76h-381v-76h160l-160 -108v-76zM383 20h381v259h-381v-259zM383 416h381v260h-229v-129h77v53h76v-108h-229v184h-76v-260zM383 727h381v229h-76v-151h-305v-78zM383 856h229v162h152v76h-381v-76h152
v-86h-152v-76zM383 1155h381v78h-152v160h-229v-238zM383 1454h381v76h-152v84h152v76h-379v-76h150v-84h-152v-76zM459 96v107h229v-107h-229zM459 1233v82h76v-82h-76z" />
    <glyph glyph-name=".notdef" horiz-adv-x="1146" 
d="M940 1843v-2294h-727v2294h727zM383 -293h381v76h-234l160 108h74v76h-381v-76h160l-160 -108v-76zM383 20h381v259h-381v-259zM383 416h381v260h-229v-129h77v53h76v-108h-229v184h-76v-260zM383 727h381v229h-76v-151h-305v-78zM383 856h229v162h152v76h-381v-76h152
v-86h-152v-76zM383 1155h381v78h-152v160h-229v-238zM383 1454h381v76h-152v84h152v76h-379v-76h150v-84h-152v-76zM459 96v107h229v-107h-229zM459 1233v82h76v-82h-76z" />
    <glyph glyph-name=".null" horiz-adv-x="0" 
 />
    <glyph glyph-name="nonmarkingreturn" horiz-adv-x="682" 
 />
    <glyph glyph-name="space" unicode=" " horiz-adv-x="491" 
 />
    <glyph glyph-name="exclam" unicode="!" horiz-adv-x="526" 
d="M311 1421l-8 -1048h-78l-10 1048h96zM186 61q0 31 22 53.5t54 22.5t55 -22.5t23 -53.5q0 -32 -23 -54.5t-55 -22.5t-54 22.5t-22 54.5z" />
    <glyph glyph-name="quotedbl" unicode="&#x22;" horiz-adv-x="692" 
d="M551 1421v-456h-90v456h90zM143 965v456h90v-456h-90z" />
    <glyph glyph-name="numbersign" unicode="#" horiz-adv-x="1288" 
d="M489 1421h84l-71 -434h381l73 434h84l-71 -434h248l-13 -82h-250l-67 -407h250l-13 -82h-252l-69 -416h-86l69 416h-380l-70 -416h-86l69 416h-247l10 82h252l69 407h-251l12 82h252zM420 498h381l69 407h-383z" />
    <glyph glyph-name="dollar" unicode="$" horiz-adv-x="1204" 
d="M571 -221v223q-156 7 -268 55t-162 107v125q148 -184 430 -197v598l-73 23q-59 18 -101.5 34.5t-95 46.5t-85 64t-55 86.5t-22.5 116.5q0 107 64 189t160.5 124t207.5 47v211h84v-213q124 -10 220.5 -56.5t144.5 -105.5v-122q-143 175 -365 194v-571l47 -15
q62 -19 107 -36.5t101 -49.5t91 -68.5t59.5 -93t24.5 -124.5q0 -160 -117.5 -259t-312.5 -108v-225h-84zM238 1065q0 -58 22.5 -102t68 -75t89 -49.5t110.5 -39.5l43 -15v547q-144 -8 -238.5 -78t-94.5 -188zM655 94q153 9 242.5 84t89.5 189q0 53 -19.5 96.5t-47 71.5
t-73.5 53.5t-81 38.5t-88 30l-23 7v-570z" />
    <glyph glyph-name="percent" unicode="%" horiz-adv-x="1681" 
d="M307 0l965 1421h100l-962 -1421h-103zM88 1090q0 145 100 246.5t240 101.5q142 0 242 -101t100 -247t-100 -247.5t-242 -101.5q-140 0 -240 101.5t-100 247.5zM172 1090q0 -109 74.5 -188t181.5 -79q109 0 183.5 79t74.5 188t-74.5 187.5t-183.5 78.5
q-107 0 -181.5 -78.5t-74.5 -187.5zM911 332q0 145 100 246.5t240 101.5q142 0 242 -101t100 -247t-100 -247t-242 -101q-140 0 -240 101.5t-100 246.5zM995 332q0 -109 74.5 -187.5t181.5 -78.5q109 0 183.5 78.5t74.5 187.5t-74.5 187.5t-183.5 78.5q-107 0 -181.5 -78.5
t-74.5 -187.5z" />
    <glyph glyph-name="ampersand" unicode="&#x26;" horiz-adv-x="1409" 
d="M90 360q0 66 20.5 125.5t53 104t80.5 85.5t94.5 69t103.5 55q-192 163 -192 325q0 130 95 222t235 92q133 0 225 -90.5t92 -219.5q0 -63 -26.5 -118t-74.5 -97.5t-96 -73t-110 -59.5l375 -379l233 322h107l-279 -383l336 -340h-123l-266 268q-47 -62 -90.5 -107.5
t-102 -88.5t-130.5 -65.5t-154 -22.5q-165 0 -285.5 104.5t-120.5 271.5zM186 365q0 -129 92.5 -209t219.5 -80q59 0 113 15t94 37.5t80.5 58.5t67.5 67.5t60 75.5l-407 411q-68 -33 -119 -66t-100 -79t-75 -104.5t-26 -126.5zM342 1126q0 -80 49.5 -149t136.5 -143
q57 27 100 54t87 64t68 83t24 98q0 93 -67 156t-160 63q-101 0 -169.5 -64.5t-68.5 -161.5z" />
    <glyph glyph-name="quotesingle" unicode="'" horiz-adv-x="374" 
d="M233 1421v-456h-90v456h90z" />
    <glyph glyph-name="parenleft" unicode="(" horiz-adv-x="661" 
d="M582 1534q-153 -177 -252 -420t-99 -508q0 -266 99 -509t252 -419h-101q-65 72 -124 165t-111 210.5t-82.5 261.5t-30.5 291q0 146 30.5 290t82 261.5t110.5 211.5t125 165h101z" />
    <glyph glyph-name="parenright" unicode=")" horiz-adv-x="661" 
d="M80 -322q153 177 251.5 420t98.5 508q0 266 -99 509t-251 419h100q65 -72 124 -165t111 -210.5t82.5 -261.5t30.5 -291q0 -146 -30.5 -290t-82 -261.5t-110.5 -211.5t-125 -165h-100z" />
    <glyph glyph-name="asterisk" unicode="*" horiz-adv-x="942" 
d="M432 1505h78l-8 -334l289 172l38 -65l-297 -162l297 -162l-38 -67l-289 176l8 -338h-78l6 336l-284 -174l-39 67l293 164l-293 158l37 67l286 -172z" />
    <glyph glyph-name="plus" unicode="+" horiz-adv-x="1060" 
d="M117 655h370v371h86v-371h369v-84h-369v-374h-86v374h-370v84z" />
    <glyph glyph-name="comma" unicode="," horiz-adv-x="428" 
d="M272 123l-149 -422h-76l133 422h92z" />
    <glyph glyph-name="hyphen" unicode="-" horiz-adv-x="825" 
d="M692 653v-88h-561v88h561z" />
    <glyph glyph-name="period" unicode="." horiz-adv-x="428" 
d="M213 137q32 0 55 -22.5t23 -53.5q0 -32 -23 -54.5t-55 -22.5t-54 22.5t-22 54.5q0 31 22 53.5t54 22.5z" />
    <glyph glyph-name="slash" unicode="/" horiz-adv-x="909" 
d="M862 1532l-721 -1782h-94l721 1782h94z" />
    <glyph glyph-name="zero" unicode="0" horiz-adv-x="1320" 
d="M657 -16q-231 0 -376.5 201.5t-145.5 525.5q0 326 145.5 527.5t376.5 201.5q235 0 382 -201.5t147 -527.5q0 -325 -147 -526t-382 -201zM236 711q0 -285 117.5 -460t303.5 -175q189 0 308.5 174.5t119.5 460.5q0 288 -119 462.5t-309 174.5q-187 0 -304 -175t-117 -462z
" />
    <glyph glyph-name="one" unicode="1" horiz-adv-x="802" 
d="M524 1438v-1438h-96v1298l-356 -165v92z" />
    <glyph glyph-name="two" unicode="2" horiz-adv-x="1128" 
d="M102 1272q52 65 163 115.5t247 50.5q186 0 302 -104.5t116 -274.5q0 -61 -21 -126.5t-40 -107t-81 -122t-84 -106.5t-110 -124q-18 -21 -27 -31l-313 -352h782v-90h-975l424 483q16 18 61 69t60.5 69t52.5 62t51 65t40 58.5t36.5 62.5t24.5 59t18.5 64.5t4.5 62.5
q0 134 -91.5 212.5t-234.5 78.5q-130 0 -233 -55t-173 -144v125z" />
    <glyph glyph-name="three" unicode="3" horiz-adv-x="1148" 
d="M524 -16q-153 0 -262.5 44t-161.5 107v127q60 -81 169.5 -133.5t250.5 -52.5q110 0 201 41t147 123t56 190q0 112 -59 190.5t-155 115t-218 36.5q-69 0 -121 -8l401 567h-672v90h836l-404 -565q221 -6 355.5 -121t134.5 -309q0 -132 -69 -234t-181.5 -155t-247.5 -53z
" />
    <glyph glyph-name="four" unicode="4" horiz-adv-x="1208" 
d="M823 932h97v-488h213v-90h-213v-354h-97v354h-766l627 1067h100l-573 -977h612v488z" />
    <glyph glyph-name="five" unicode="5" horiz-adv-x="1087" 
d="M928 1421v-90h-588l-100 -508q109 37 239 37q142 0 253 -49.5t177 -149t66 -233.5q0 -105 -39.5 -190.5t-107.5 -140.5t-156.5 -84t-188.5 -29q-140 0 -246 44.5t-157 108.5v123q63 -82 167 -133t230 -51q169 0 283 92.5t114 259.5q0 166 -113.5 256t-297.5 90
q-182 0 -328 -65l139 712h654z" />
    <glyph glyph-name="six" unicode="6" horiz-adv-x="1196" 
d="M629 918q121 0 224.5 -59t165.5 -166t62 -238q0 -198 -132.5 -334.5t-336.5 -136.5q-143 0 -253 63t-167 168.5t-57 233.5q0 107 37 198.5t109 198.5l387 575h108l-381 -565q97 62 234 62zM233 453q0 -163 107 -270t270 -107t269 107t106 270q0 164 -106 270t-269 106
t-270 -106.5t-107 -269.5z" />
    <glyph glyph-name="seven" unicode="7" horiz-adv-x="1087" 
d="M1018 1421l-721 -1421h-107l684 1333h-802v88h946z" />
    <glyph glyph-name="eight" unicode="8" horiz-adv-x="1183" 
d="M590 -16q-212 0 -351 112t-139 291q0 80 31 148.5t81 113.5t104.5 73t109.5 40q-106 32 -180 117.5t-74 205.5q0 152 117.5 252.5t300.5 100.5q186 0 304 -100.5t118 -252.5q0 -121 -74.5 -207t-179.5 -116q55 -12 109 -40t104 -72.5t81 -113t31 -149.5
q0 -180 -138.5 -291.5t-354.5 -111.5zM199 393q0 -141 110.5 -230t280.5 -89q173 0 284 88.5t111 230.5q0 144 -114.5 232t-280.5 88q-163 0 -277 -89t-114 -231zM270 1077q0 -114 93.5 -196t226.5 -82q136 0 229.5 81.5t93.5 196.5q0 120 -89.5 195.5t-233.5 75.5
q-141 0 -230.5 -75.5t-89.5 -195.5z" />
    <glyph glyph-name="nine" unicode="9" horiz-adv-x="1196" 
d="M567 506q-121 0 -224.5 59t-165.5 166t-62 238q0 198 132.5 334.5t336.5 136.5q143 0 253 -63t167 -168.5t57 -233.5q0 -107 -37 -198.5t-109 -198.5l-387 -576h-108l381 565q-96 -61 -234 -61zM211 971q0 -164 106 -270.5t269 -106.5t270 107t107 270t-107 270t-270 107
t-269 -107t-106 -270z" />
    <glyph glyph-name="colon" unicode=":" horiz-adv-x="428" 
d="M213 1010q32 0 55 -22.5t23 -53.5q0 -32 -23 -55t-55 -23t-54 23t-22 55q0 31 22 53.5t54 22.5zM137 61q0 31 22 53.5t54 22.5t55 -22.5t23 -53.5q0 -32 -23 -54.5t-55 -22.5t-54 22.5t-22 54.5z" />
    <glyph glyph-name="semicolon" unicode=";" horiz-adv-x="428" 
d="M213 1010q32 0 55 -22.5t23 -53.5q0 -32 -23 -55t-55 -23t-54 23t-22 55q0 31 22 53.5t54 22.5zM47 -299l133 422h92l-149 -422h-76z" />
    <glyph glyph-name="less" unicode="&#x3c;" horiz-adv-x="868" 
d="M733 133l-672 465l672 467v-96l-532 -371l532 -369v-96z" />
    <glyph glyph-name="equal" unicode="=" horiz-adv-x="1024" 
d="M905 838v-84h-788v84h788zM117 387v82h788v-82h-788z" />
    <glyph glyph-name="greater" unicode="&#x3e;" horiz-adv-x="868" 
d="M135 1065l672 -465l-672 -467v96l533 371l-533 369v96z" />
    <glyph glyph-name="question" unicode="?" horiz-adv-x="913" 
d="M332 662q80 24 147.5 62t121 88.5t84 118t30.5 144.5q0 72 -26.5 127t-69.5 85.5t-91 45.5t-98 15q-220 0 -367 -197v121q54 69 148.5 117.5t224.5 48.5q73 0 139.5 -23t120 -66.5t85.5 -113.5t32 -158q0 -161 -108 -281.5t-285 -185.5v-237h-88v289zM301 61
q0 31 22 53.5t54 22.5t55 -22.5t23 -53.5q0 -32 -23 -54.5t-55 -22.5t-54 22.5t-22 54.5z" />
    <glyph glyph-name="at" unicode="@" horiz-adv-x="1814" 
d="M1198 981h88v-530q0 -61 33.5 -100.5t93.5 -39.5q84 0 141.5 87t57.5 259q0 123 -34.5 229.5t-96.5 185t-146.5 134t-187 83.5t-215.5 28q-141 0 -270.5 -52t-228 -144t-157.5 -229t-59 -296q0 -201 101 -361t266 -245.5t360 -85.5q124 0 229.5 41t153.5 94v-107
q-47 -45 -151.5 -78.5t-235.5 -33.5q-159 0 -306.5 57t-259 156.5t-178.5 246.5t-67 316q0 177 66.5 329.5t178 255.5t257 161.5t301.5 58.5q157 0 296 -51.5t243.5 -145t165.5 -234t61 -308.5q0 -208 -81 -321.5t-210 -113.5q-85 0 -145 53.5t-64 139.5
q-35 -80 -110 -134.5t-185 -54.5q-65 0 -128 25t-116 71.5t-85.5 122t-32.5 166.5t32.5 165.5t85.5 121t116 71.5t128 25q110 0 185 -54t110 -134v170zM633 616q0 -74 25.5 -134.5t67 -96.5t90 -55t99.5 -19q126 0 204.5 89.5t78.5 215.5t-78 215t-205 89q-50 0 -99.5 -19.5
t-90.5 -56t-66.5 -96t-25.5 -132.5z" />
    <glyph glyph-name="A" unicode="A" horiz-adv-x="1425" 
d="M59 0l654 1438l653 -1438h-104l-199 438h-703l-198 -438h-103zM401 528h621l-309 689z" />
    <glyph glyph-name="B" unicode="B" horiz-adv-x="1245" 
d="M205 0v1421h422q196 0 314 -93t118 -259q0 -127 -70 -206t-174 -107q44 -6 86.5 -21t85.5 -43.5t75 -67.5t52.5 -96.5t20.5 -126.5q0 -188 -130 -294.5t-339 -106.5h-461zM299 90h365q165 0 268.5 82.5t103.5 228.5q0 147 -102 223t-270 76h-365v-610zM299 788h324
q160 0 249 72.5t89 202.5q0 126 -90.5 197t-249.5 71h-322v-543z" />
    <glyph glyph-name="C" unicode="C" horiz-adv-x="1431" 
d="M1296 1147q-181 199 -448 199q-122 0 -235.5 -48t-198.5 -130.5t-136 -202t-51 -254.5q0 -181 84.5 -327.5t226.5 -227t310 -80.5q149 0 261 58t187 140v-122q-163 -168 -448 -168q-147 0 -279 53t-229 147t-154 231t-57 296q0 123 38 236.5t106 201.5t157 153.5
t196 100.5t218 35q289 0 452 -168v-123z" />
    <glyph glyph-name="D" unicode="D" horiz-adv-x="1447" 
d="M567 1421q124 0 235.5 -27.5t206 -85.5t163 -141t107 -199.5t38.5 -256.5t-38.5 -257.5t-107 -200.5t-163 -140.5t-206 -85t-235.5 -27.5h-362v1421h362zM299 90h268q105 0 200.5 23.5t179 73t144 121.5t95.5 175.5t35 227.5t-35 227t-95.5 175t-144 121.5t-179 73
t-200.5 23.5h-268v-1241z" />
    <glyph glyph-name="E" unicode="E" horiz-adv-x="1150" 
d="M205 0v1421h809v-90h-715v-563h678v-88h-678v-590h715v-90h-809z" />
    <glyph glyph-name="F" unicode="F" horiz-adv-x="1120" 
d="M299 0h-94v1421h801v-90h-707v-590h670v-88h-670v-653z" />
    <glyph glyph-name="G" unicode="G" horiz-adv-x="1533" 
d="M825 -16q-108 0 -209.5 29.5t-190 89.5t-154.5 145.5t-104 204.5t-38 258q0 164 64 303.5t169.5 230.5t240 142t276.5 51q174 0 293.5 -50t185.5 -118v-123q-74 81 -194 140t-281 59q-125 0 -242 -43.5t-209.5 -122t-148.5 -201.5t-56 -270q0 -149 49 -271t133 -200
t191.5 -120t226.5 -42q215 0 349.5 130.5t134.5 330.5v104h-512v90h606v-186q0 -157 -73 -285t-206 -202t-301 -74z" />
    <glyph glyph-name="H" unicode="H" horiz-adv-x="1509" 
d="M1210 1421h95v-1421h-95v696h-911v-696h-94v1421h94v-635h911v635z" />
    <glyph glyph-name="I" unicode="I" horiz-adv-x="503" 
d="M299 1421v-1421h-94v1421h94z" />
    <glyph glyph-name="J" unicode="J" horiz-adv-x="716" 
d="M426 1421h94v-1120q0 -152 -78 -226.5t-215 -74.5h-159v90h151q101 0 154 50t53 167v1114z" />
    <glyph glyph-name="K" unicode="K" horiz-adv-x="1251" 
d="M1034 1421h127l-727 -673l772 -748h-133l-774 743zM205 0v1421h94v-1421h-94z" />
    <glyph glyph-name="L" unicode="L" horiz-adv-x="1081" 
d="M299 1421v-1331h715v-90h-809v1421h94z" />
    <glyph glyph-name="M" unicode="M" horiz-adv-x="1742" 
d="M205 0v1438l672 -781l661 781v-1438h-94v1192l-570 -676l-575 674v-1190h-94z" />
    <glyph glyph-name="N" unicode="N" horiz-adv-x="1515" 
d="M205 1438l1012 -1207v1190h94v-1437l-1012 1204v-1188h-94v1438z" />
    <glyph glyph-name="O" unicode="O" horiz-adv-x="1650" 
d="M825 76q121 0 230.5 46.5t191 128.5t129 201.5t47.5 258.5t-47.5 258.5t-129 201.5t-191 128.5t-230.5 46.5t-230.5 -46.5t-191 -128.5t-129 -201.5t-47.5 -258.5t47.5 -258.5t129 -201.5t191 -128.5t230.5 -46.5zM129 711q0 157 55.5 293.5t149.5 231t221.5 148.5
t269.5 54q141 0 268.5 -54t222 -148.5t150.5 -231t56 -293.5t-56 -293.5t-150.5 -231t-222 -148.5t-268.5 -54q-142 0 -269.5 54t-221.5 148.5t-149.5 231t-55.5 293.5z" />
    <glyph glyph-name="P" unicode="P" horiz-adv-x="1179" 
d="M610 692q179 0 276 87t97 235q0 146 -97 231.5t-276 85.5h-311v-639h311zM205 0v1421h409q217 0 341 -108.5t124 -298.5q0 -191 -125.5 -301.5t-339.5 -110.5h-315v-602h-94z" />
    <glyph glyph-name="Q" unicode="Q" horiz-adv-x="1650" 
d="M825 76q98 0 187 28l-172 285h106l152 -248q149 75 237 225t88 345q0 139 -47.5 258.5t-129 201.5t-191 128.5t-230.5 46.5t-230.5 -46.5t-191 -128.5t-129 -201.5t-47.5 -258.5t47.5 -258.5t129 -201.5t191 -128.5t230.5 -46.5zM129 711q0 157 55.5 293.5t149.5 231
t221.5 148.5t269.5 54q141 0 268.5 -54t222 -148.5t150.5 -231t56 -293.5q0 -217 -102 -388.5t-273 -261.5l168 -274h-109l-145 238q-112 -41 -236 -41q-142 0 -269.5 54t-221.5 148.5t-149.5 231t-55.5 293.5z" />
    <glyph glyph-name="R" unicode="R" horiz-adv-x="1271" 
d="M205 0v1421h409q217 0 341 -107.5t124 -297.5q0 -161 -95.5 -268.5t-258.5 -135.5l485 -612h-118l-480 602h-313v-602h-94zM299 692h311q179 0 276 88t97 236q0 145 -96.5 230t-276.5 85h-311v-639z" />
    <glyph glyph-name="S" unicode="S" horiz-adv-x="1191" 
d="M1008 1147q-159 201 -412 201q-91 0 -171 -31.5t-133.5 -97t-53.5 -152.5q0 -46 17 -84.5t40.5 -63.5t66.5 -49t78.5 -38t91.5 -33l160 -54q64 -22 107 -39.5t100 -50.5t91 -69t58.5 -92t24.5 -123q0 -177 -128.5 -282t-336.5 -105q-169 0 -290.5 50.5t-176.5 115.5v124
q70 -88 186.5 -144t278.5 -56q168 0 269.5 81t101.5 210q0 30 -6.5 57t-15.5 48t-27 41t-32.5 34t-41 29t-43.5 24t-49.5 21.5t-48.5 18t-51 17.5l-166 56q-62 21 -104 38t-94 47.5t-83.5 64.5t-53.5 85.5t-22 114.5q0 71 27 132.5t72 105.5t103.5 76t123 47.5t129.5 15.5
q140 0 250.5 -50t163.5 -116v-125z" />
    <glyph glyph-name="T" unicode="T" horiz-adv-x="1265" 
d="M68 1331v90h1130v-90h-518v-1331h-96v1331h-516z" />
    <glyph glyph-name="U" unicode="U" horiz-adv-x="1488" 
d="M289 526q0 -139 61.5 -243t164 -156.5t230.5 -52.5q127 0 229.5 53t164 157t61.5 242v895h94v-901q0 -244 -154.5 -390t-394.5 -146t-395 146t-155 390v901h94v-895z" />
    <glyph glyph-name="V" unicode="V" horiz-adv-x="1384" 
d="M162 1421l530 -1210l531 1210h102l-633 -1437l-633 1437h103z" />
    <glyph glyph-name="W" unicode="W" horiz-adv-x="1859" 
d="M168 1421l379 -1157l383 1174l383 -1170l379 1153h98l-475 -1437l-385 1187l-385 -1187l-475 1437h98z" />
    <glyph glyph-name="X" unicode="X" horiz-adv-x="1361" 
d="M188 1421l494 -628l492 628h118l-549 -698l557 -723h-118l-502 653l-500 -653h-119l555 725l-544 696h116z" />
    <glyph glyph-name="Y" unicode="Y" horiz-adv-x="1327" 
d="M39 1421h111l516 -729l512 729h110l-577 -829v-592h-95v596z" />
    <glyph glyph-name="Z" unicode="Z" horiz-adv-x="1325" 
d="M133 1421h1067l-905 -1331h905v-90h-1073l903 1331h-897v90z" />
    <glyph glyph-name="bracketleft" unicode="[" horiz-adv-x="727" 
d="M635 1534v-90h-332v-1675h332v-91h-426v1856h426z" />
    <glyph glyph-name="backslash" unicode="\" horiz-adv-x="909" 
d="M47 1532h94l721 -1782h-94z" />
    <glyph glyph-name="bracketright" unicode="]" horiz-adv-x="727" 
d="M92 -322v91h332v1675h-332v90h426v-1856h-426z" />
    <glyph glyph-name="asciicircum" unicode="^" horiz-adv-x="1054" 
d="M526 1438l414 -662h-98l-314 504l-315 -504h-98z" />
    <glyph glyph-name="underscore" unicode="_" horiz-adv-x="954" 
d="M954 -160v-90h-954v90h954z" />
    <glyph glyph-name="grave" unicode="`" horiz-adv-x="1228" 
d="M408 1511h110l260 -286h-112z" />
    <glyph glyph-name="a" unicode="a" horiz-adv-x="1095" 
d="M182 928q45 48 148 88.5t207 40.5q182 0 287.5 -101.5t105.5 -285.5v-670h-92v217q-35 -93 -141.5 -163t-241.5 -70q-148 0 -249.5 78.5t-101.5 220.5q0 87 50.5 153t125 101.5t169.5 52.5l389 65v19q0 139 -83 215t-218 76q-101 0 -198.5 -43.5t-156.5 -108.5v115z
M201 285q0 -102 78.5 -157.5t191.5 -55.5q87 0 172 42t140 113t55 148v196l-367 -63q-118 -20 -194 -76.5t-76 -146.5z" />
    <glyph glyph-name="b" unicode="b" horiz-adv-x="1308" 
d="M270 1534v-766q48 128 165 208.5t265 80.5q93 0 180.5 -35.5t158 -101t113 -169t42.5 -229.5q0 -127 -42.5 -231t-113 -170t-158 -101.5t-180.5 -35.5q-148 0 -265 81t-165 211v-276h-94v1534h94zM270 522q0 -103 35 -189t94 -141.5t133 -86.5t154 -31q76 0 148 28.5
t131 82.5t95 141.5t36 195.5q0 107 -36 194t-95 140.5t-131 82t-148 28.5q-80 0 -154 -30.5t-133 -86t-94 -141t-35 -187.5z" />
    <glyph glyph-name="c" unicode="c" horiz-adv-x="1097" 
d="M997 799q-50 69 -141 117.5t-205 48.5q-183 0 -311.5 -123.5t-128.5 -321.5t128.5 -321t311.5 -123q114 0 205 48.5t141 117.5v-123q-48 -57 -138 -96t-208 -39q-144 0 -265.5 65.5t-196 189.5t-74.5 281t74.5 281.5t196 190t265.5 65.5q118 0 208 -39t138 -96v-123z" />
    <glyph glyph-name="d" unicode="d" horiz-adv-x="1308" 
d="M1135 1534v-1534h-95v279q-48 -132 -164.5 -213.5t-267.5 -81.5q-93 0 -180 35.5t-157.5 100.5t-113 168.5t-42.5 229.5q0 127 42.5 231.5t113 170t157.5 101.5t180 36q151 0 267.5 -82.5t164.5 -214.5v774h95zM213 518q0 -107 36 -194t95 -140t131 -81.5t148 -28.5
q80 0 154 30.5t132.5 85.5t93.5 140.5t35 187.5q0 103 -35 189t-93.5 142t-132.5 87t-154 31q-76 0 -148 -29t-131 -83t-95 -141.5t-36 -195.5z" />
    <glyph glyph-name="e" unicode="e" horiz-adv-x="1189" 
d="M659 -16q-86 0 -166 22.5t-148.5 68t-120 109.5t-80.5 152.5t-29 191.5q0 151 67 273t181 189t251 67q198 0 329.5 -140.5t131.5 -351.5v-63h-862q6 -197 135.5 -312.5t310.5 -115.5q73 0 138 17.5t111.5 47.5t78 59.5t53.5 61.5v-121q-49 -63 -144 -109t-237 -46z
M215 586h764q-6 166 -109.5 274.5t-257.5 108.5q-84 0 -158 -33t-124.5 -87.5t-80.5 -122.5t-34 -140z" />
    <glyph glyph-name="f" unicode="f" horiz-adv-x="712" 
d="M666 950h-322v-950h-94v950h-201v88h201v244q0 120 68 186t184 66h164v-90h-158q-76 0 -120 -41t-44 -127v-238h322v-88z" />
    <glyph glyph-name="g" unicode="g" horiz-adv-x="1110" 
d="M432 -442q-98 0 -177 30.5t-129 95.5t-50 156q0 90 55.5 154.5t136.5 89.5q-73 49 -73 133q0 52 32 93.5t84 60.5q-86 48 -135 131t-49 186q0 159 111.5 264t275.5 105q63 0 125 -19h399v-86h-250q113 -107 113 -264q0 -159 -111.5 -265t-275.5 -106q-66 0 -137 23
q-37 -10 -61.5 -37t-24.5 -67q0 -45 30.5 -74t81.5 -29h287q150 0 244 -71.5t94 -208.5q0 -73 -31.5 -131t-84 -93t-115 -53t-129.5 -18h-236zM174 -154q0 -69 41.5 -116t99.5 -66.5t125 -19.5h234q108 0 181 56t73 153t-68.5 145.5t-173.5 48.5h-297q-88 0 -151.5 -58
t-63.5 -143zM221 688q0 -124 84.5 -203t208.5 -79t208.5 79t84.5 203q0 123 -85 202t-208 79t-208 -79t-85 -202z" />
    <glyph glyph-name="h" unicode="h" horiz-adv-x="1208" 
d="M270 1534v-717q34 99 138 169.5t237 70.5q81 0 152 -26.5t126 -78t87 -134.5t32 -187v-631h-94v610q0 173 -92 265t-231 92q-141 0 -248 -100.5t-107 -245.5v-621h-94v1534h94z" />
    <glyph glyph-name="i" unicode="i" horiz-adv-x="446" 
d="M270 1038v-1038h-94v1038h94zM150 1366q0 31 21 52.5t52 21.5t52.5 -21.5t21.5 -52.5q0 -29 -21.5 -50.5t-52.5 -21.5t-52 21t-21 51z" />
    <glyph glyph-name="j" unicode="j" horiz-adv-x="454" 
d="M184 1038h95v-1228q0 -120 -68 -186t-184 -66h-144v90h137q76 0 120 41t44 127v1222zM158 1366q0 31 21 52.5t52 21.5t52.5 -21.5t21.5 -52.5q0 -29 -21.5 -50.5t-52.5 -21.5t-52 21t-21 51z" />
    <glyph glyph-name="k" unicode="k" horiz-adv-x="1003" 
d="M270 1534v-981l545 485h123l-539 -483l576 -555h-127l-578 549v-549h-94v1534h94z" />
    <glyph glyph-name="l" unicode="l" horiz-adv-x="446" 
d="M270 1534v-1534h-94v1534h94z" />
    <glyph glyph-name="m" unicode="m" horiz-adv-x="1818" 
d="M270 1038v-200q29 92 120.5 155.5t211.5 63.5q118 0 210.5 -66t129.5 -190q28 109 125.5 182.5t222.5 73.5q155 0 259 -102.5t104 -297.5v-657h-92v643q0 159 -81 240.5t-206 81.5q-128 0 -219.5 -95t-91.5 -241v-629h-95v639q0 160 -81.5 243t-204.5 83
q-127 0 -219.5 -91.5t-92.5 -222.5v-651h-94v1038h94z" />
    <glyph glyph-name="n" unicode="n" horiz-adv-x="1208" 
d="M270 1038v-221q34 99 138 169.5t237 70.5q81 0 152 -26.5t126 -78t87 -134.5t32 -187v-631h-94v610q0 173 -92 265t-231 92q-141 0 -248 -100.5t-107 -245.5v-621h-94v1038h94z" />
    <glyph glyph-name="o" unicode="o" horiz-adv-x="1267" 
d="M635 -14q-101 0 -195 39t-166 107t-115.5 170t-43.5 220q0 156 74 280t192 189.5t254 65.5t253.5 -65.5t191 -189.5t73.5 -280q0 -118 -43 -220t-114.5 -170t-165.5 -107t-195 -39zM211 522q0 -98 35 -182.5t93.5 -141.5t135.5 -89.5t160 -32.5t160 32.5t135 89.5
t92.5 141.5t34.5 182.5q0 194 -125 319.5t-297 125.5q-83 0 -160 -32.5t-135.5 -89.5t-93.5 -141.5t-35 -181.5z" />
    <glyph glyph-name="p" unicode="p" horiz-adv-x="1308" 
d="M270 1038v-270q48 128 165 208.5t265 80.5q93 0 180.5 -35.5t158 -101t113 -169t42.5 -229.5q0 -127 -42.5 -231t-113 -170t-158 -101.5t-180.5 -35.5q-148 0 -265 81t-165 211v-718h-94v1480h94zM270 522q0 -103 35 -189t94 -141.5t133 -86.5t154 -31q76 0 148 28.5
t131 82.5t95 141.5t36 195.5q0 107 -36 194t-95 140.5t-131 82t-148 28.5q-80 0 -154 -30.5t-133 -86t-94 -141t-35 -187.5z" />
    <glyph glyph-name="q" unicode="q" horiz-adv-x="1308" 
d="M1135 1038v-1480h-95v721q-48 -132 -164.5 -213.5t-267.5 -81.5q-93 0 -180 35.5t-157.5 100.5t-113 168.5t-42.5 229.5q0 127 42.5 231.5t113 170t157.5 101.5t180 36q151 0 267.5 -82.5t164.5 -214.5v278h95zM213 518q0 -107 36 -194t95 -140t131 -81.5t148 -28.5
q80 0 154 30.5t132.5 85.5t93.5 140.5t35 187.5q0 103 -35 189t-93.5 142t-132.5 87t-154 31q-76 0 -148 -29t-131 -83t-95 -141.5t-36 -195.5z" />
    <glyph glyph-name="r" unicode="r" horiz-adv-x="763" 
d="M264 1038v-252q35 117 131 186.5t217 69.5h95v-94h-91q-71 0 -132 -24t-109.5 -71.5t-76.5 -126t-28 -179.5v-547h-94v1038h88z" />
    <glyph glyph-name="s" unicode="s" horiz-adv-x="983" 
d="M819 813q-58 74 -145 116t-189 42q-110 0 -191 -51.5t-81 -139.5q0 -69 53 -106.5t156 -69.5l151 -49q37 -12 60 -20t58 -22.5t57 -28.5t48 -36t41 -46t25 -57t10 -71q0 -132 -103.5 -211t-272.5 -79q-125 0 -229.5 38t-147.5 93v112q58 -72 158 -114.5t217 -42.5
q129 0 205.5 53t76.5 143q0 35 -14 64t-34 48.5t-52.5 37t-58.5 27.5t-64 22l-162 49q-33 10 -53 17t-52.5 20.5t-53 26.5t-44.5 33t-38 42.5t-23.5 53.5t-9.5 67q0 124 110.5 203.5t257.5 79.5q107 0 198.5 -36.5t135.5 -92.5v-115z" />
    <glyph glyph-name="t" unicode="t" horiz-adv-x="704" 
d="M633 1038v-88h-322v-692q0 -86 44 -127t120 -41h158v-90h-170q-112 0 -178 60.5t-66 177.5v712h-182v88h182v246l92 39v-285h322z" />
    <glyph glyph-name="u" unicode="u" horiz-adv-x="1208" 
d="M938 0v221q-34 -99 -138 -169t-237 -70q-81 0 -152 26.5t-126 78t-87 134.5t-32 187v630h94v-610q0 -173 92.5 -264.5t231.5 -91.5q141 0 247.5 100.5t106.5 245.5v620h94v-1038h-94z" />
    <glyph glyph-name="v" unicode="v" horiz-adv-x="1089" 
d="M147 1038l400 -843l393 843h102l-497 -1054l-498 1054h100z" />
    <glyph glyph-name="w" unicode="w" horiz-adv-x="1554" 
d="M166 1038l293 -817l319 836l324 -824l289 805h96l-379 -1054l-330 843l-329 -843l-381 1054h98z" />
    <glyph glyph-name="x" unicode="x" horiz-adv-x="1064" 
d="M178 1038l357 -434l352 434h114l-405 -503l418 -535h-115l-367 467l-368 -467h-113l418 537l-406 501h115z" />
    <glyph glyph-name="y" unicode="y" horiz-adv-x="1087" 
d="M496 -238q-43 -103 -110.5 -153.5t-180.5 -50.5h-127v90h125q78 0 123.5 34t76.5 105l99 227l-455 1024h105l401 -907l383 907h104z" />
    <glyph glyph-name="z" unicode="z" horiz-adv-x="1028" 
d="M938 1038l-680 -948h672v-90h-844l678 950h-662v88h836z" />
    <glyph glyph-name="braceleft" unicode="{" horiz-adv-x="784" 
d="M623 1446q-50 0 -89 -11.5t-72.5 -38.5t-52 -79t-18.5 -127v-318q0 -136 -42.5 -194.5t-127.5 -71.5q85 -13 127.5 -72t42.5 -196v-315q0 -75 18.5 -127t52 -79t72.5 -38.5t89 -11.5h69v-89h-74q-66 0 -120 16.5t-101 53.5t-73.5 107t-26.5 168v315q0 129 -42.5 177
t-139.5 48h-37v86h37q97 0 139.5 48t42.5 177v316q0 98 26.5 168t73.5 107t101 53t120 16h74v-88h-69z" />
    <glyph glyph-name="bar" unicode="|" horiz-adv-x="452" 
d="M272 1532v-1782h-92v1782h92z" />
    <glyph glyph-name="braceright" unicode="}" horiz-adv-x="784" 
d="M162 -233q50 0 88.5 11.5t72.5 38.5t52 79t18 127v317q0 136 42.5 194.5t127.5 71.5q-85 13 -127.5 72t-42.5 196v316q0 75 -18 127t-52 79t-72.5 38.5t-88.5 11.5h-70v88h74q66 0 120 -16t101 -53t73.5 -107t26.5 -168v-316q0 -128 43 -176.5t140 -48.5h37v-86h-37
q-97 0 -140 -48.5t-43 -176.5v-315q0 -98 -26.5 -168t-73.5 -107t-101 -53.5t-120 -16.5h-74v89h70z" />
    <glyph glyph-name="asciitilde" unicode="~" horiz-adv-x="1060" 
d="M117 604q27 41 82.5 77t128.5 36q48 0 107 -19.5t105.5 -43t101 -43t93.5 -19.5q64 0 118.5 37t88.5 88v-96q-27 -41 -81.5 -77t-127.5 -36q-48 0 -107 20t-105.5 43.5t-101.5 43.5t-95 20q-62 0 -116.5 -37.5t-90.5 -89.5v96z" />
    <glyph glyph-name="uni00A0" unicode="&#xa0;" horiz-adv-x="491" 
 />
    <glyph glyph-name="exclamdown" unicode="&#xa1;" horiz-adv-x="526" 
d="M215 -397l8 1048h78l10 -1048h-96zM186 963q0 32 23 54.5t55 22.5t54 -22.5t22 -54.5q0 -31 -22 -53.5t-54 -22.5t-55 22.5t-23 53.5z" />
    <glyph glyph-name="cent" unicode="&#xa2;" horiz-adv-x="1138" 
d="M618 -55v227q-136 13 -249.5 81t-183.5 187.5t-70 268.5q0 147 70 265.5t183.5 186t249.5 80.5v219h84v-217q118 -6 205.5 -44t130.5 -91v-123q-46 66 -132.5 113.5t-203.5 54.5v-893q117 7 203.5 54.5t132.5 113.5v-123q-43 -53 -130.5 -91t-205.5 -44v-225h-84z
M211 709q0 -184 117.5 -305.5t289.5 -141.5v889q-172 -19 -289.5 -140t-117.5 -302z" />
    <glyph glyph-name="sterling" unicode="&#xa3;" horiz-adv-x="1146" 
d="M111 92q45 10 85 28.5t79.5 51.5t63 87.5t23.5 123.5q0 87 -45 242h-206v84h180q-28 84 -41 128.5t-27 112.5t-14 121q0 159 119 263t297 104q130 0 228 -47t153 -117v-121q-67 87 -163.5 140t-217.5 53q-127 0 -222.5 -76t-95.5 -201q0 -22 2 -44.5t8 -51t10.5 -47.5
t15 -55.5t15 -50.5t18.5 -57t17 -54h525v-84h-498q41 -146 41 -238q0 -201 -185 -297h758v-90h-923v92z" />
    <glyph glyph-name="currency" unicode="&#xa4;" horiz-adv-x="1253" 
d="M627 293q-156 0 -275 98l-188 -190l-60 55l193 193q-98 119 -98 272q0 152 98 274l-193 191l60 55l188 -190q119 98 275 98q155 0 274 -98l189 190l59 -55l-193 -191q99 -123 99 -274q0 -155 -99 -275l193 -190l-59 -55l-189 190q-119 -98 -274 -98zM291 721
q0 -141 97.5 -240.5t238.5 -99.5t238.5 99.5t97.5 240.5t-97.5 240.5t-238.5 99.5t-238.5 -99.5t-97.5 -240.5z" />
    <glyph glyph-name="yen" unicode="&#xa5;" horiz-adv-x="1245" 
d="M1206 1421l-483 -743h285v-82h-338v-188h338v-82h-338v-326h-95v326h-335v82h335v188h-335v82h282l-483 743h111l473 -725l473 725h110z" />
    <glyph glyph-name="brokenbar" unicode="&#xa6;" horiz-adv-x="452" 
d="M180 477h92v-727h-92v727zM180 811v721h92v-721h-92z" />
    <glyph glyph-name="section" unicode="&#xa7;" horiz-adv-x="1134" 
d="M928 1194q-127 156 -332 156q-118 0 -200.5 -57t-82.5 -150q0 -48 24.5 -85.5t65.5 -63t94.5 -47t112.5 -40t117.5 -39t112 -47.5t94.5 -61.5t65.5 -85.5t24.5 -115q0 -99 -63.5 -173t-157.5 -120q139 -83 139 -239q0 -74 -35.5 -135t-93 -98t-125.5 -57t-137 -20
q-122 0 -226 38t-147 91v115q58 -71 158 -113.5t217 -42.5q72 0 136.5 22.5t110.5 75t46 126.5q0 68 -40.5 115t-105 73t-142.5 46.5t-156.5 44t-143 56.5t-105 93t-40.5 145q0 57 23.5 107.5t63 87.5t82.5 63t91 43q-154 86 -154 236q0 129 111.5 214t265.5 85
q109 0 198 -36.5t134 -92.5v-115zM207 608q0 -52 24.5 -92.5t62 -64.5t94 -45.5t109 -34.5t119.5 -32t113 -38q81 38 140 100.5t59 147.5q0 50 -22.5 90t-55.5 66t-86.5 50t-99.5 38.5t-111 36t-107 38.5q-43 -15 -82 -37.5t-76 -54.5t-59 -75.5t-22 -92.5z" />
    <glyph glyph-name="dieresis" unicode="&#xa8;" horiz-adv-x="1228" 
d="M434 1440q30 0 51 -21t21 -51q0 -31 -20.5 -52.5t-51.5 -21.5t-52.5 21.5t-21.5 52.5q0 29 21.5 50.5t52.5 21.5zM721 1368q0 29 21.5 50.5t52.5 21.5t52 -21t21 -51q0 -31 -21 -52.5t-52 -21.5t-52.5 21.5t-21.5 52.5z" />
    <glyph glyph-name="copyright" unicode="&#xa9;" horiz-adv-x="1804" 
d="M901 -160q-157 0 -299.5 59.5t-246.5 161.5t-165 245.5t-61 303.5q0 161 61 305t165 246.5t246.5 162.5t299.5 60q158 0 301 -60t247 -162.5t165 -246.5t61 -305q0 -160 -61 -303.5t-165 -245.5t-247 -161.5t-301 -59.5zM215 610q0 -145 54 -273.5t146.5 -219.5t219 -144
t266.5 -53q141 0 268 53t219 144t146.5 219.5t54.5 273.5t-54.5 274.5t-146.5 221t-219 144.5t-268 53q-187 0 -344.5 -90t-249.5 -249.5t-92 -353.5zM549 614q0 166 111 270.5t268 104.5q82 0 145.5 -27t97.5 -67v-100q-34 46 -96.5 78t-138.5 32q-123 0 -210 -80t-87 -211
q0 -133 86.5 -214t208.5 -81q78 0 140.5 32.5t96.5 78.5v-100q-34 -41 -97.5 -69t-145.5 -28q-157 0 -268 106t-111 275z" />
    <glyph glyph-name="ordfeminine" unicode="&#xaa;" horiz-adv-x="784" 
d="M121 1378q38 35 109.5 57.5t140.5 22.5q138 0 213 -69.5t75 -198.5v-432h-81v151q-18 -62 -93.5 -111.5t-165.5 -49.5q-103 0 -172 54.5t-69 145.5q0 48 21.5 86t59 63t81 41t96.5 25l242 45q-6 84 -62 128t-147 44q-66 0 -133 -24.5t-115 -69.5v92zM162 950
q0 -58 50 -94.5t124 -36.5q86 0 164 59.5t78 135.5v125l-236 -43q-78 -13 -129 -49.5t-51 -96.5z" />
    <glyph glyph-name="guillemotleft" unicode="&#xab;" horiz-adv-x="1048" 
d="M567 997l-379 -442l379 -442h-114l-379 442l379 442h114zM481 555l379 442h115l-379 -442l379 -442h-115z" />
    <glyph glyph-name="logicalnot" unicode="&#xac;" horiz-adv-x="1060" 
d="M117 655h825v-458h-84v374h-741v84z" />
    <glyph glyph-name="registered" unicode="&#xae;" horiz-adv-x="1349" 
d="M674 471q-148 0 -273.5 73t-198.5 199t-73 275q0 150 73.5 275t198.5 196.5t273 71.5t274 -72t199.5 -197t73.5 -274t-73.5 -275t-199.5 -199t-274 -73zM203 1018q0 -198 138.5 -336.5t332.5 -138.5t332.5 138.5t138.5 336.5q0 97 -37.5 185t-100.5 151t-150 100t-183 37
q-194 0 -332.5 -138t-138.5 -335zM504 754v532h178q81 0 132.5 -45.5t51.5 -122.5q0 -56 -31 -96.5t-83 -60.5l143 -207h-80l-135 194h-109v-194h-67zM571 1012h107q53 0 85 28.5t32 77.5t-31 75t-86 26h-107v-207z" />
    <glyph glyph-name="macron" unicode="&#xaf;" horiz-adv-x="1228" 
d="M375 1409h479v-84h-479v84z" />
    <glyph glyph-name="degree" unicode="&#xb0;" horiz-adv-x="956" 
d="M477 1356q-107 0 -181.5 -78.5t-74.5 -187.5t74.5 -188t181.5 -79q109 0 183.5 79t74.5 188t-74.5 187.5t-183.5 78.5zM137 1090q0 145 100 246.5t240 101.5q142 0 242 -101t100 -247t-100 -247.5t-242 -101.5q-140 0 -240 101.5t-100 247.5z" />
    <glyph glyph-name="plusminus" unicode="&#xb1;" horiz-adv-x="1024" 
d="M119 676v84h350v309h86v-309h352v-84h-352v-309h-86v309h-350zM119 145v84h788v-84h-788z" />
    <glyph glyph-name="uni00B2" unicode="&#xb2;" 
d="M104 1630q38 43 113.5 76t169.5 33q131 0 212 -71.5t81 -184.5q0 -33 -6 -63.5t-25 -66t-30.5 -56t-46.5 -63t-48 -56.5t-59 -65q-12 -14 -19 -21l-188 -203h492v-86h-676l297 330q118 131 146 169q69 93 69 171q0 83 -58 130.5t-151 47.5q-85 0 -155.5 -35.5
t-117.5 -93.5v108z" />
    <glyph glyph-name="uni00B3" unicode="&#xb3;" 
d="M391 793q-105 0 -180 27.5t-113 68.5v110q42 -54 119.5 -87t167.5 -33q110 0 185 57t75 154q0 99 -79 150.5t-199 51.5q-32 0 -86 -4l258 354h-441v84h588l-266 -362q143 -6 230 -80.5t87 -198.5q0 -130 -100 -211t-246 -81z" />
    <glyph glyph-name="acute" unicode="&#xb4;" horiz-adv-x="1228" 
d="M821 1511l-258 -286h-112l260 286h110z" />
    <glyph glyph-name="uni00B5" unicode="&#xb5;" horiz-adv-x="1218" 
d="M270 1038v-610q0 -173 92.5 -264.5t231.5 -91.5q141 0 247.5 100.5t106.5 245.5v620h94v-1038h-94v221q-34 -99 -138 -169t-237 -70q-193 0 -303 131v-555h-94v1480h94z" />
    <glyph glyph-name="paragraph" unicode="&#xb6;" horiz-adv-x="1255" 
d="M612 1421h439v-1740h-84v1650h-353q-191 0 -304 -102t-113 -266q0 -165 116 -270t301 -105h103v-907h-84v817h-21q-225 0 -368.5 128t-143.5 337q0 205 140.5 331.5t371.5 126.5z" />
    <glyph glyph-name="periodcentered" unicode="&#xb7;" horiz-adv-x="428" 
d="M213 688q32 0 55 -22.5t23 -53.5q0 -32 -23 -54.5t-55 -22.5t-54 22.5t-22 54.5q0 31 22 53.5t54 22.5z" />
    <glyph glyph-name="cedilla" unicode="&#xb8;" horiz-adv-x="1228" 
d="M590 -436q-82 0 -135 33v92q55 -47 131 -47q41 0 74.5 22t33.5 70q0 52 -48.5 75t-125.5 15l47 176h76l-31 -115q70 -3 119 -43t49 -110q0 -76 -54 -122t-136 -46z" />
    <glyph glyph-name="uni00B9" unicode="&#xb9;" 
d="M176 885h238v725l-238 -107v86l330 150v-854h229v-82h-559v82z" />
    <glyph glyph-name="ordmasculine" unicode="&#xba;" horiz-adv-x="876" 
d="M438 748q-136 0 -241 98t-105 258q0 107 51.5 189.5t129.5 123.5t165 41q88 0 166.5 -41t130 -123.5t51.5 -189.5q0 -108 -51.5 -191t-130 -124t-166.5 -41zM176 1104q0 -123 78.5 -200t183.5 -77q106 0 184 77t78 200q0 120 -78 197t-184 77q-104 0 -183 -76.5
t-79 -197.5z" />
    <glyph glyph-name="guillemotright" unicode="&#xbb;" horiz-adv-x="1048" 
d="M481 113l379 442l-379 442h115l379 -442l-379 -442h-115zM74 113l379 442l-379 442h114l379 -442l-379 -442h-114z" />
    <glyph glyph-name="onequarter" unicode="&#xbc;" horiz-adv-x="2164" 
d="M176 578h238v725l-238 -107v86l330 150v-854h229v-82h-559v82zM590 0l969 1421h98l-967 -1421h-100zM1354 225l407 699h94l-362 -617h373v299h90v-299h141v-82h-141v-225h-90v225h-512z" />
    <glyph glyph-name="onehalf" unicode="&#xbd;" horiz-adv-x="2248" 
d="M176 578h238v725l-238 -107v86l330 150v-854h229v-82h-559v82zM590 0l969 1421h98l-967 -1421h-100zM1473 0l296 330q10 11 36 39.5t35 39l30 35t29.5 35t24 31.5t22 33t16 30.5t13.5 32.5t7 31t3 33q0 83 -58 130.5t-151 47.5q-85 0 -155.5 -35.5t-117.5 -93.5v108
q38 43 113.5 76t169.5 33q131 0 212 -71.5t81 -184.5q0 -33 -6 -63.5t-25 -66t-30.5 -56t-46.5 -63t-48 -56.5t-59 -65q-12 -14 -19 -21l-188 -203h491v-86h-675z" />
    <glyph glyph-name="threequarters" unicode="&#xbe;" horiz-adv-x="2160" 
d="M391 485q-105 0 -180 28t-113 69v110q42 -54 119.5 -87.5t167.5 -33.5q110 0 185 57t75 154q0 99 -79 151t-199 52q-32 0 -86 -4l258 354h-441v84h588l-266 -362q143 -6 230 -80.5t87 -198.5q0 -131 -100 -212t-246 -81zM584 0l968 1421h99l-967 -1421h-100zM1348 225
l407 699h94l-362 -617h373v299h90v-299h141v-82h-141v-225h-90v225h-512z" />
    <glyph glyph-name="questiondown" unicode="&#xbf;" horiz-adv-x="913" 
d="M582 362q-80 -24 -147.5 -62t-121 -88.5t-84 -118t-30.5 -144.5q0 -72 26.5 -127t69.5 -85.5t90.5 -45.5t97.5 -15q220 0 367 197v-121q-54 -69 -148.5 -117.5t-224.5 -48.5q-73 0 -139.5 23t-120 66.5t-85.5 113.5t-32 158q0 161 108.5 281.5t285.5 185.5v237h88v-289z
M459 963q0 32 23 54.5t55 22.5t53.5 -22.5t21.5 -54.5q0 -31 -21.5 -53.5t-53.5 -22.5t-55 22.5t-23 53.5z" />
    <glyph glyph-name="Agrave" unicode="&#xc0;" horiz-adv-x="1425" 
d="M59 0l654 1438l653 -1438h-104l-199 438h-703l-198 -438h-103zM401 528h621l-309 689zM453 1894h110l260 -286h-112z" />
    <glyph glyph-name="Aacute" unicode="&#xc1;" horiz-adv-x="1425" 
d="M59 0l654 1438l653 -1438h-104l-199 438h-703l-198 -438h-103zM401 528h621l-309 689zM604 1608l260 286h111l-258 -286h-113z" />
    <glyph glyph-name="Acircumflex" unicode="&#xc2;" horiz-adv-x="1425" 
d="M59 0l654 1438l653 -1438h-104l-199 438h-703l-198 -438h-103zM401 528h621l-309 689zM418 1608l297 293l295 -293h-109l-186 182l-189 -182h-108z" />
    <glyph glyph-name="Atilde" unicode="&#xc3;" horiz-adv-x="1425" 
d="M59 0l654 1438l653 -1438h-104l-199 438h-703l-198 -438h-103zM401 528h621l-309 689zM422 1659v92q15 33 56 60.5t91 27.5q46 0 100 -25t103.5 -50t85.5 -25q44 0 83.5 28.5t62.5 71.5v-90q-15 -33 -56.5 -61.5t-91.5 -28.5q-45 0 -98 25.5t-103.5 51t-87.5 25.5
q-42 0 -81 -29t-64 -73z" />
    <glyph glyph-name="Adieresis" unicode="&#xc4;" horiz-adv-x="1425" 
d="M59 0l654 1438l653 -1438h-104l-199 438h-703l-198 -438h-103zM401 528h621l-309 689zM459 1751q0 29 21.5 50.5t51.5 21.5t51 -21t21 -51q0 -31 -20.5 -52.5t-51.5 -21.5t-52 21.5t-21 52.5zM819 1751q0 29 21.5 50.5t52.5 21.5t52.5 -21.5t21.5 -50.5
q0 -31 -21.5 -52.5t-52.5 -21.5t-52.5 21.5t-21.5 52.5z" />
    <glyph glyph-name="Aring" unicode="&#xc5;" horiz-adv-x="1425" 
d="M59 0l654 1438l653 -1438h-104l-199 438h-703l-198 -438h-103zM401 528h621l-309 689zM526 1749q0 75 54.5 128.5t132.5 53.5q79 0 133.5 -53.5t54.5 -128.5q0 -76 -54 -128t-134 -52q-78 0 -132.5 52t-54.5 128zM600 1749q0 -49 34 -81t79 -32q46 0 80 32t34 81t-34 81
t-80 32q-45 0 -79 -32t-34 -81z" />
    <glyph glyph-name="AE" unicode="&#xc6;" horiz-adv-x="2023" 
d="M51 0l1004 1421h831v-90h-688v-563h653v-88h-653v-590h688v-90h-782v520h-576l-366 -520h-111zM592 610h512v721h-2z" />
    <glyph glyph-name="Ccedilla" unicode="&#xc7;" horiz-adv-x="1431" 
d="M1296 1147q-181 199 -448 199q-122 0 -235.5 -48t-198.5 -130.5t-136 -202t-51 -254.5q0 -181 84.5 -327.5t226.5 -227t310 -80.5q149 0 261 58t187 140v-122q-159 -163 -430 -168l-26 -99q70 -3 119 -43t49 -110q0 -76 -54.5 -122t-136.5 -46t-135 33v92q55 -47 131 -47
q41 0 75 22.5t34 69.5q0 52 -48.5 75t-125.5 15l43 162q-138 10 -259 67t-210.5 150t-141 224.5t-51.5 283.5q0 123 38 236.5t106 201.5t157 153.5t196 100.5t218 35q289 0 452 -168v-123z" />
    <glyph glyph-name="Egrave" unicode="&#xc8;" horiz-adv-x="1150" 
d="M360 1894h111l260 -286h-113zM205 0v1421h809v-90h-715v-563h678v-88h-678v-590h715v-90h-809z" />
    <glyph glyph-name="Eacute" unicode="&#xc9;" horiz-adv-x="1150" 
d="M883 1894l-258 -286h-113l260 286h111zM205 0v1421h809v-90h-715v-563h678v-88h-678v-590h715v-90h-809z" />
    <glyph glyph-name="Ecircumflex" unicode="&#xca;" horiz-adv-x="1150" 
d="M436 1608h-108l297 293l295 -293h-109l-186 182zM205 0v1421h809v-90h-715v-563h678v-88h-678v-590h715v-90h-809z" />
    <glyph glyph-name="Edieresis" unicode="&#xcb;" horiz-adv-x="1150" 
d="M442 1823q30 0 51 -21t21 -51q0 -31 -20.5 -52.5t-51.5 -21.5t-52 21.5t-21 52.5q0 29 21.5 50.5t51.5 21.5zM205 0v1421h809v-90h-715v-563h678v-88h-678v-590h715v-90h-809zM729 1751q0 29 21.5 50.5t52.5 21.5t52.5 -21.5t21.5 -50.5q0 -31 -21.5 -52.5t-52.5 -21.5
t-52.5 21.5t-21.5 52.5z" />
    <glyph glyph-name="Igrave" unicode="&#xcc;" horiz-adv-x="503" 
d="M299 1421v-1421h-94v1421h94zM-8 1894h110l260 -286h-112z" />
    <glyph glyph-name="Iacute" unicode="&#xcd;" horiz-adv-x="503" 
d="M299 1421v-1421h-94v1421h94zM143 1608l260 286h111l-258 -286h-113z" />
    <glyph glyph-name="Icircumflex" unicode="&#xce;" horiz-adv-x="503" 
d="M299 1421v-1421h-94v1421h94zM-43 1608l297 293l295 -293h-109l-186 182l-188 -182h-109z" />
    <glyph glyph-name="Idieresis" unicode="&#xcf;" horiz-adv-x="503" 
d="M299 1421v-1421h-94v1421h94zM-2 1751q0 29 21.5 50.5t52.5 21.5q30 0 50.5 -21t20.5 -51q0 -31 -20.5 -52.5t-50.5 -21.5q-31 0 -52.5 21.5t-21.5 52.5zM358 1751q0 29 21.5 50.5t52.5 21.5t52.5 -21.5t21.5 -50.5q0 -31 -21.5 -52.5t-52.5 -21.5t-52.5 21.5t-21.5 52.5
z" />
    <glyph glyph-name="Eth" unicode="&#xd0;" horiz-adv-x="1447" 
d="M567 1421q124 0 235.5 -27.5t206 -85.5t163 -141t107 -199.5t38.5 -256.5t-38.5 -257.5t-107 -200.5t-163 -140.5t-206 -85t-235.5 -27.5h-362v672h-164v86h164v663h362zM299 90h268q105 0 200.5 23.5t179 73t144 121.5t95.5 175.5t35 227.5t-35 227t-95.5 175
t-144 121.5t-179 73t-200.5 23.5h-268v-573h354v-86h-354v-582z" />
    <glyph glyph-name="Ntilde" unicode="&#xd1;" horiz-adv-x="1515" 
d="M205 1438l1012 -1207v1190h94v-1437l-1012 1204v-1188h-94v1438zM465 1659v92q15 33 56 60.5t91 27.5q46 0 100 -25t103.5 -50t85.5 -25q44 0 83.5 28.5t62.5 71.5v-90q-15 -33 -56.5 -61.5t-91.5 -28.5q-45 0 -98 25.5t-103.5 51t-87.5 25.5q-42 0 -81 -29t-64 -73z" />
    <glyph glyph-name="Ograve" unicode="&#xd2;" horiz-adv-x="1650" 
d="M825 76q121 0 230.5 46.5t191 128.5t129 201.5t47.5 258.5t-47.5 258.5t-129 201.5t-191 128.5t-230.5 46.5t-230.5 -46.5t-191 -128.5t-129 -201.5t-47.5 -258.5t47.5 -258.5t129 -201.5t191 -128.5t230.5 -46.5zM129 711q0 157 55.5 293.5t149.5 231t221.5 148.5
t269.5 54q141 0 268.5 -54t222 -148.5t150.5 -231t56 -293.5t-56 -293.5t-150.5 -231t-222 -148.5t-268.5 -54q-142 0 -269.5 54t-221.5 148.5t-149.5 231t-55.5 293.5zM565 1894h111l260 -286h-113z" />
    <glyph glyph-name="Oacute" unicode="&#xd3;" horiz-adv-x="1650" 
d="M825 76q121 0 230.5 46.5t191 128.5t129 201.5t47.5 258.5t-47.5 258.5t-129 201.5t-191 128.5t-230.5 46.5t-230.5 -46.5t-191 -128.5t-129 -201.5t-47.5 -258.5t47.5 -258.5t129 -201.5t191 -128.5t230.5 -46.5zM129 711q0 157 55.5 293.5t149.5 231t221.5 148.5
t269.5 54q141 0 268.5 -54t222 -148.5t150.5 -231t56 -293.5t-56 -293.5t-150.5 -231t-222 -148.5t-268.5 -54q-142 0 -269.5 54t-221.5 148.5t-149.5 231t-55.5 293.5zM715 1608l260 286h110l-258 -286h-112z" />
    <glyph glyph-name="Ocircumflex" unicode="&#xd4;" horiz-adv-x="1650" 
d="M825 76q121 0 230.5 46.5t191 128.5t129 201.5t47.5 258.5t-47.5 258.5t-129 201.5t-191 128.5t-230.5 46.5t-230.5 -46.5t-191 -128.5t-129 -201.5t-47.5 -258.5t47.5 -258.5t129 -201.5t191 -128.5t230.5 -46.5zM129 711q0 157 55.5 293.5t149.5 231t221.5 148.5
t269.5 54q141 0 268.5 -54t222 -148.5t150.5 -231t56 -293.5t-56 -293.5t-150.5 -231t-222 -148.5t-268.5 -54q-142 0 -269.5 54t-221.5 148.5t-149.5 231t-55.5 293.5zM530 1608l297 293l295 -293h-108l-187 182l-188 -182h-109z" />
    <glyph glyph-name="Otilde" unicode="&#xd5;" horiz-adv-x="1650" 
d="M825 76q121 0 230.5 46.5t191 128.5t129 201.5t47.5 258.5t-47.5 258.5t-129 201.5t-191 128.5t-230.5 46.5t-230.5 -46.5t-191 -128.5t-129 -201.5t-47.5 -258.5t47.5 -258.5t129 -201.5t191 -128.5t230.5 -46.5zM129 711q0 157 55.5 293.5t149.5 231t221.5 148.5
t269.5 54q141 0 268.5 -54t222 -148.5t150.5 -231t56 -293.5t-56 -293.5t-150.5 -231t-222 -148.5t-268.5 -54q-142 0 -269.5 54t-221.5 148.5t-149.5 231t-55.5 293.5zM532 1659v92q15 33 56.5 60.5t91.5 27.5q46 0 100 -25t103.5 -50t85.5 -25q44 0 83 28.5t62 71.5v-90
q-15 -34 -56 -62t-91 -28q-45 0 -98 25.5t-103.5 51t-87.5 25.5q-42 0 -81.5 -29t-64.5 -73z" />
    <glyph glyph-name="Odieresis" unicode="&#xd6;" horiz-adv-x="1650" 
d="M825 76q121 0 230.5 46.5t191 128.5t129 201.5t47.5 258.5t-47.5 258.5t-129 201.5t-191 128.5t-230.5 46.5t-230.5 -46.5t-191 -128.5t-129 -201.5t-47.5 -258.5t47.5 -258.5t129 -201.5t191 -128.5t230.5 -46.5zM129 711q0 157 55.5 293.5t149.5 231t221.5 148.5
t269.5 54q141 0 268.5 -54t222 -148.5t150.5 -231t56 -293.5t-56 -293.5t-150.5 -231t-222 -148.5t-268.5 -54q-142 0 -269.5 54t-221.5 148.5t-149.5 231t-55.5 293.5zM571 1751q0 29 21.5 50.5t52.5 21.5q30 0 51 -21t21 -51q0 -31 -20.5 -52.5t-51.5 -21.5t-52.5 21.5
t-21.5 52.5zM932 1751q0 29 21.5 50.5t52.5 21.5q30 0 51.5 -21.5t21.5 -50.5q0 -31 -21 -52.5t-52 -21.5t-52.5 21.5t-21.5 52.5z" />
    <glyph glyph-name="multiply" unicode="&#xd7;" horiz-adv-x="1062" 
d="M215 991l317 -317l322 319l59 -59l-319 -320l319 -321l-63 -60l-318 320l-321 -322l-61 60l321 321l-319 322z" />
    <glyph glyph-name="Oslash" unicode="&#xd8;" horiz-adv-x="1650" 
d="M825 76q121 0 230.5 46.5t191 128.5t129 201.5t47.5 258.5q0 174 -71 312t-195 222l-590 -1112q123 -57 258 -57zM129 711q0 157 55.5 293.5t149.5 231t221.5 148.5t269.5 54q160 0 303 -70l91 172h94l-113 -211q149 -96 235.5 -257.5t86.5 -360.5q0 -157 -56 -293.5
t-150.5 -231t-222 -148.5t-268.5 -54q-158 0 -301 67l-90 -170h-96l113 211q-149 96 -235.5 257t-86.5 362zM227 711q0 -174 71.5 -312.5t195.5 -222.5l589 1110q-120 60 -258 60q-121 0 -230.5 -46.5t-191 -128.5t-129 -201.5t-47.5 -258.5z" />
    <glyph glyph-name="Ugrave" unicode="&#xd9;" horiz-adv-x="1488" 
d="M289 526q0 -139 61.5 -243t164 -156.5t230.5 -52.5q127 0 229.5 53t164 157t61.5 242v895h94v-901q0 -244 -154.5 -390t-394.5 -146t-395 146t-155 390v901h94v-895zM483 1894h111l260 -286h-113z" />
    <glyph glyph-name="Uacute" unicode="&#xda;" horiz-adv-x="1488" 
d="M289 526q0 -139 61.5 -243t164 -156.5t230.5 -52.5q127 0 229.5 53t164 157t61.5 242v895h94v-901q0 -244 -154.5 -390t-394.5 -146t-395 146t-155 390v901h94v-895zM635 1608l260 286h111l-258 -286h-113z" />
    <glyph glyph-name="Ucircumflex" unicode="&#xdb;" horiz-adv-x="1488" 
d="M289 526q0 -139 61.5 -243t164 -156.5t230.5 -52.5q127 0 229.5 53t164 157t61.5 242v895h94v-901q0 -244 -154.5 -390t-394.5 -146t-395 146t-155 390v901h94v-895zM451 1608l297 293l294 -293h-108l-186 182l-189 -182h-108z" />
    <glyph glyph-name="Udieresis" unicode="&#xdc;" horiz-adv-x="1488" 
d="M289 526q0 -139 61.5 -243t164 -156.5t230.5 -52.5q127 0 229.5 53t164 157t61.5 242v895h94v-901q0 -244 -154.5 -390t-394.5 -146t-395 146t-155 390v901h94v-895zM492 1751q0 29 21 50.5t52 21.5q30 0 51 -21t21 -51q0 -31 -20.5 -52.5t-51.5 -21.5t-52 21.5t-21 52.5
zM852 1751q0 29 21.5 50.5t52.5 21.5q30 0 51.5 -21.5t21.5 -50.5q0 -31 -21 -52.5t-52 -21.5t-52.5 21.5t-21.5 52.5z" />
    <glyph glyph-name="Yacute" unicode="&#xdd;" horiz-adv-x="1327" 
d="M924 1894l-258 -286h-113l260 286h111zM39 1421h111l516 -729l512 729h110l-577 -829v-592h-95v596z" />
    <glyph glyph-name="Thorn" unicode="&#xde;" horiz-adv-x="1179" 
d="M205 1421h94v-288h315q217 0 341 -108t124 -300q0 -191 -125.5 -301.5t-339.5 -110.5h-315v-313h-94v1421zM299 403h311q179 0 276 87t97 235q0 146 -97 231.5t-276 85.5h-311v-639z" />
    <glyph glyph-name="germandbls" unicode="&#xdf;" horiz-adv-x="1251" 
d="M711 -14q-65 0 -121.5 13t-85.5 32v104q32 -27 86.5 -44t118.5 -17q141 0 235 91t94 236q0 89 -36.5 159t-98 112t-136 64t-155.5 22h-71v90h49q159 0 253.5 92.5t94.5 226.5q0 124 -86.5 207.5t-228.5 83.5q-160 0 -256.5 -103t-96.5 -272v-1083h-94v1087q0 203 123 333
t324 130q95 0 174 -31t130.5 -84t80 -121t28.5 -143q0 -74 -24.5 -138t-64.5 -107t-86.5 -71t-96.5 -40q45 -6 93 -22.5t99 -50.5t90.5 -79t65 -113t25.5 -149q0 -187 -119 -301t-307 -114z" />
    <glyph glyph-name="agrave" unicode="&#xe0;" horiz-adv-x="1095" 
d="M182 928q45 48 148 88.5t207 40.5q182 0 287.5 -101.5t105.5 -285.5v-670h-92v217q-35 -93 -141.5 -163t-241.5 -70q-148 0 -249.5 78.5t-101.5 220.5q0 87 50.5 153t125 101.5t169.5 52.5l389 65v19q0 139 -83 215t-218 76q-101 0 -198.5 -43.5t-156.5 -108.5v115z
M201 285q0 -102 78.5 -157.5t191.5 -55.5q87 0 172 42t140 113t55 148v196l-367 -63q-118 -20 -194 -76.5t-76 -146.5zM291 1511h110l261 -286h-113z" />
    <glyph glyph-name="aacute" unicode="&#xe1;" horiz-adv-x="1095" 
d="M182 928q45 48 148 88.5t207 40.5q182 0 287.5 -101.5t105.5 -285.5v-670h-92v217q-35 -93 -141.5 -163t-241.5 -70q-148 0 -249.5 78.5t-101.5 220.5q0 87 50.5 153t125 101.5t169.5 52.5l389 65v19q0 139 -83 215t-218 76q-101 0 -198.5 -43.5t-156.5 -108.5v115z
M201 285q0 -102 78.5 -157.5t191.5 -55.5q87 0 172 42t140 113t55 148v196l-367 -63q-118 -20 -194 -76.5t-76 -146.5zM442 1225l260 286h111l-258 -286h-113z" />
    <glyph glyph-name="acircumflex" unicode="&#xe2;" horiz-adv-x="1095" 
d="M182 928q45 48 148 88.5t207 40.5q182 0 287.5 -101.5t105.5 -285.5v-670h-92v217q-35 -93 -141.5 -163t-241.5 -70q-148 0 -249.5 78.5t-101.5 220.5q0 87 50.5 153t125 101.5t169.5 52.5l389 65v19q0 139 -83 215t-218 76q-101 0 -198.5 -43.5t-156.5 -108.5v115z
M201 285q0 -102 78.5 -157.5t191.5 -55.5q87 0 172 42t140 113t55 148v196l-367 -63q-118 -20 -194 -76.5t-76 -146.5zM256 1225l297 293l295 -293h-109l-186 182l-188 -182h-109z" />
    <glyph glyph-name="atilde" unicode="&#xe3;" horiz-adv-x="1095" 
d="M182 928q45 48 148 88.5t207 40.5q182 0 287.5 -101.5t105.5 -285.5v-670h-92v217q-35 -93 -141.5 -163t-241.5 -70q-148 0 -249.5 78.5t-101.5 220.5q0 87 50.5 153t125 101.5t169.5 52.5l389 65v19q0 139 -83 215t-218 76q-101 0 -198.5 -43.5t-156.5 -108.5v115z
M201 285q0 -102 78.5 -157.5t191.5 -55.5q87 0 172 42t140 113t55 148v196l-367 -63q-118 -20 -194 -76.5t-76 -146.5zM260 1276v92q15 33 56.5 60.5t91.5 27.5q46 0 99.5 -25t103 -50t85.5 -25q44 0 83.5 28.5t62.5 71.5v-90q-15 -33 -56.5 -61.5t-91.5 -28.5
q-45 0 -98 25.5t-103 51t-87 25.5q-42 0 -81.5 -29t-64.5 -73z" />
    <glyph glyph-name="adieresis" unicode="&#xe4;" horiz-adv-x="1095" 
d="M182 928q45 48 148 88.5t207 40.5q182 0 287.5 -101.5t105.5 -285.5v-670h-92v217q-35 -93 -141.5 -163t-241.5 -70q-148 0 -249.5 78.5t-101.5 220.5q0 87 50.5 153t125 101.5t169.5 52.5l389 65v19q0 139 -83 215t-218 76q-101 0 -198.5 -43.5t-156.5 -108.5v115z
M201 285q0 -102 78.5 -157.5t191.5 -55.5q87 0 172 42t140 113t55 148v196l-367 -63q-118 -20 -194 -76.5t-76 -146.5zM297 1368q0 29 21.5 50.5t52.5 21.5q30 0 50.5 -21t20.5 -51q0 -31 -20.5 -52.5t-50.5 -21.5q-31 0 -52.5 21.5t-21.5 52.5zM657 1368q0 29 21.5 50.5
t52.5 21.5t52.5 -21.5t21.5 -50.5q0 -31 -21.5 -52.5t-52.5 -21.5t-52.5 21.5t-21.5 52.5z" />
    <glyph glyph-name="aring" unicode="&#xe5;" horiz-adv-x="1095" 
d="M182 928q45 48 148 88.5t207 40.5q182 0 287.5 -101.5t105.5 -285.5v-670h-92v217q-35 -93 -141.5 -163t-241.5 -70q-148 0 -249.5 78.5t-101.5 220.5q0 87 50.5 153t125 101.5t169.5 52.5l389 65v19q0 139 -83 215t-218 76q-101 0 -198.5 -43.5t-156.5 -108.5v115z
M201 285q0 -102 78.5 -157.5t191.5 -55.5q87 0 172 42t140 113t55 148v196l-367 -63q-118 -20 -194 -76.5t-76 -146.5zM365 1366q0 75 54 128.5t132 53.5q79 0 133.5 -53.5t54.5 -128.5q0 -76 -54 -128t-134 -52q-78 0 -132 52t-54 128zM438 1366q0 -49 34 -81t79 -32
q46 0 80.5 32t34.5 81t-34.5 81t-80.5 32q-45 0 -79 -32t-34 -81z" />
    <glyph glyph-name="ae" unicode="&#xe6;" horiz-adv-x="1878" 
d="M182 928q45 48 148 88.5t207 40.5q140 0 236.5 -64t133.5 -180q63 113 170.5 178.5t239.5 65.5q195 0 320.5 -133.5t125.5 -325.5v-53h-835q0 -113 35 -204t95 -148.5t137.5 -88t166.5 -30.5q237 0 367 186v-121q-121 -155 -367 -155q-167 0 -299.5 89t-190.5 246
q-15 -48 -36.5 -92t-58 -89.5t-82 -78.5t-110 -54t-139.5 -21q-138 0 -240 81.5t-102 217.5q0 87 50.5 152t125 99t169.5 50l389 57v33q0 139 -83 215t-218 76q-101 0 -198.5 -43.5t-156.5 -108.5v115zM201 283q0 -94 77 -152.5t179 -58.5q82 0 149 28.5t109 73t70.5 101.5
t40.5 111.5t12 105.5h2q0 1 -1 3t-1 3v34v0v0v25l-375 -55q-115 -19 -188.5 -74t-73.5 -145zM934 629h733q-6 143 -104.5 241.5t-247.5 98.5q-81 0 -151.5 -30.5t-118 -80.5t-76.5 -109.5t-35 -119.5z" />
    <glyph glyph-name="ccedilla" unicode="&#xe7;" horiz-adv-x="1097" 
d="M997 799q-50 69 -141 117.5t-205 48.5q-183 0 -311.5 -123.5t-128.5 -321.5t128.5 -321t311.5 -123q114 0 205 48.5t141 117.5v-123q-48 -57 -138 -96t-206 -39l-26 -99q70 -3 119 -43t49 -110q0 -76 -54.5 -122t-136.5 -46t-135 33v92q55 -47 131 -47q41 0 75 22.5
t34 69.5q0 52 -48.5 75t-125.5 15l43 164q-197 26 -330 171.5t-133 360.5q0 157 74.5 281.5t196 190t265.5 65.5q118 0 208 -39t138 -96v-123z" />
    <glyph glyph-name="egrave" unicode="&#xe8;" horiz-adv-x="1189" 
d="M659 -16q-86 0 -166 22.5t-148.5 68t-120 109.5t-80.5 152.5t-29 191.5q0 151 67 273t181 189t251 67q198 0 329.5 -140.5t131.5 -351.5v-63h-862q6 -197 135.5 -312.5t310.5 -115.5q73 0 138 17.5t111.5 47.5t78 59.5t53.5 61.5v-121q-49 -63 -144 -109t-237 -46z
M215 586h764q-6 166 -109.5 274.5t-257.5 108.5q-84 0 -158 -33t-124.5 -87.5t-80.5 -122.5t-34 -140zM352 1511h111l260 -286h-113z" />
    <glyph glyph-name="eacute" unicode="&#xe9;" horiz-adv-x="1189" 
d="M659 -16q-86 0 -166 22.5t-148.5 68t-120 109.5t-80.5 152.5t-29 191.5q0 151 67 273t181 189t251 67q198 0 329.5 -140.5t131.5 -351.5v-63h-862q6 -197 135.5 -312.5t310.5 -115.5q73 0 138 17.5t111.5 47.5t78 59.5t53.5 61.5v-121q-49 -63 -144 -109t-237 -46z
M215 586h764q-6 166 -109.5 274.5t-257.5 108.5q-84 0 -158 -33t-124.5 -87.5t-80.5 -122.5t-34 -140zM502 1225l260 286h110l-258 -286h-112z" />
    <glyph glyph-name="ecircumflex" unicode="&#xea;" horiz-adv-x="1189" 
d="M659 -16q-86 0 -166 22.5t-148.5 68t-120 109.5t-80.5 152.5t-29 191.5q0 151 67 273t181 189t251 67q198 0 329.5 -140.5t131.5 -351.5v-63h-862q6 -197 135.5 -312.5t310.5 -115.5q73 0 138 17.5t111.5 47.5t78 59.5t53.5 61.5v-121q-49 -63 -144 -109t-237 -46z
M215 586h764q-6 166 -109.5 274.5t-257.5 108.5q-84 0 -158 -33t-124.5 -87.5t-80.5 -122.5t-34 -140zM317 1225l297 293l295 -293h-108l-187 182l-188 -182h-109z" />
    <glyph glyph-name="edieresis" unicode="&#xeb;" horiz-adv-x="1189" 
d="M659 -16q-86 0 -166 22.5t-148.5 68t-120 109.5t-80.5 152.5t-29 191.5q0 151 67 273t181 189t251 67q198 0 329.5 -140.5t131.5 -351.5v-63h-862q6 -197 135.5 -312.5t310.5 -115.5q73 0 138 17.5t111.5 47.5t78 59.5t53.5 61.5v-121q-49 -63 -144 -109t-237 -46z
M215 586h764q-6 166 -109.5 274.5t-257.5 108.5q-84 0 -158 -33t-124.5 -87.5t-80.5 -122.5t-34 -140zM358 1368q0 29 21.5 50.5t52.5 21.5q30 0 51 -21t21 -51q0 -31 -20.5 -52.5t-51.5 -21.5t-52.5 21.5t-21.5 52.5zM719 1368q0 29 21.5 50.5t52.5 21.5t52 -21t21 -51
q0 -31 -21 -52.5t-52 -21.5t-52.5 21.5t-21.5 52.5z" />
    <glyph glyph-name="igrave" unicode="&#xec;" horiz-adv-x="446" 
d="M270 1038v-1038h-94v1038h94zM-37 1511h111l260 -286h-113z" />
    <glyph glyph-name="iacute" unicode="&#xed;" horiz-adv-x="446" 
d="M270 1038v-1038h-94v1038h94zM115 1225l260 286h110l-258 -286h-112z" />
    <glyph glyph-name="icircumflex" unicode="&#xee;" horiz-adv-x="446" 
d="M270 1038v-1038h-94v1038h94zM-72 1225l297 293l295 -293h-108l-187 182l-188 -182h-109z" />
    <glyph glyph-name="idieresis" unicode="&#xef;" horiz-adv-x="446" 
d="M270 1038v-1038h-94v1038h94zM-31 1368q0 29 21.5 50.5t52.5 21.5q30 0 51 -21t21 -51q0 -31 -20.5 -52.5t-51.5 -21.5t-52.5 21.5t-21.5 52.5zM330 1368q0 30 21 51t52 21t52.5 -21.5t21.5 -50.5q0 -31 -21.5 -52.5t-52.5 -21.5t-52 21.5t-21 52.5z" />
    <glyph glyph-name="eth" unicode="&#xf0;" horiz-adv-x="1296" 
d="M647 -16q-145 0 -265.5 63.5t-193.5 186t-73 280.5q0 119 41.5 217t111 160.5t158 96.5t184.5 34q95 0 178.5 -30t137.5 -76t86.5 -96t38.5 -95q-13 113 -56 212.5t-107.5 174.5t-134.5 130.5t-153 100.5l-338 -225v94l256 170q-130 57 -256 80v84q164 -25 340 -108
l307 204v-94l-227 -151q98 -56 179.5 -129.5t151.5 -173.5t109 -233.5t39 -287.5q0 -281 -142 -435t-372 -154zM211 510q0 -193 126.5 -313.5t309.5 -120.5q176 0 294 119t118 317q0 180 -124.5 301t-303.5 121q-84 0 -159 -28.5t-133.5 -81t-93 -134t-34.5 -180.5z" />
    <glyph glyph-name="ntilde" unicode="&#xf1;" horiz-adv-x="1208" 
d="M270 1038v-221q34 99 138 169.5t237 70.5q81 0 152 -26.5t126 -78t87 -134.5t32 -187v-631h-94v610q0 173 -92 265t-231 92q-141 0 -248 -100.5t-107 -245.5v-621h-94v1038h94zM311 1276v92q15 33 56.5 60.5t91.5 27.5q46 0 100 -25t103.5 -50t85.5 -25q44 0 83 28.5
t62 71.5v-90q-15 -33 -56.5 -61.5t-91.5 -28.5q-45 0 -98 25.5t-103 51t-87 25.5q-42 0 -81.5 -29t-64.5 -73z" />
    <glyph glyph-name="ograve" unicode="&#xf2;" horiz-adv-x="1267" 
d="M635 -14q-101 0 -195 39t-166 107t-115.5 170t-43.5 220q0 156 74 280t192 189.5t254 65.5t253.5 -65.5t191 -189.5t73.5 -280q0 -118 -43 -220t-114.5 -170t-165.5 -107t-195 -39zM211 522q0 -98 35 -182.5t93.5 -141.5t135.5 -89.5t160 -32.5t160 32.5t135 89.5
t92.5 141.5t34.5 182.5q0 194 -125 319.5t-297 125.5q-83 0 -160 -32.5t-135.5 -89.5t-93.5 -141.5t-35 -181.5zM373 1511h110l260 -286h-112z" />
    <glyph glyph-name="oacute" unicode="&#xf3;" horiz-adv-x="1267" 
d="M635 -14q-101 0 -195 39t-166 107t-115.5 170t-43.5 220q0 156 74 280t192 189.5t254 65.5t253.5 -65.5t191 -189.5t73.5 -280q0 -118 -43 -220t-114.5 -170t-165.5 -107t-195 -39zM211 522q0 -98 35 -182.5t93.5 -141.5t135.5 -89.5t160 -32.5t160 32.5t135 89.5
t92.5 141.5t34.5 182.5q0 194 -125 319.5t-297 125.5q-83 0 -160 -32.5t-135.5 -89.5t-93.5 -141.5t-35 -181.5zM524 1225l260 286h111l-258 -286h-113z" />
    <glyph glyph-name="ocircumflex" unicode="&#xf4;" horiz-adv-x="1267" 
d="M635 -14q-101 0 -195 39t-166 107t-115.5 170t-43.5 220q0 156 74 280t192 189.5t254 65.5t253.5 -65.5t191 -189.5t73.5 -280q0 -118 -43 -220t-114.5 -170t-165.5 -107t-195 -39zM211 522q0 -98 35 -182.5t93.5 -141.5t135.5 -89.5t160 -32.5t160 32.5t135 89.5
t92.5 141.5t34.5 182.5q0 194 -125 319.5t-297 125.5q-83 0 -160 -32.5t-135.5 -89.5t-93.5 -141.5t-35 -181.5zM340 1225l297 293l295 -293h-109l-186 182l-188 -182h-109z" />
    <glyph glyph-name="otilde" unicode="&#xf5;" horiz-adv-x="1267" 
d="M635 -14q-101 0 -195 39t-166 107t-115.5 170t-43.5 220q0 156 74 280t192 189.5t254 65.5t253.5 -65.5t191 -189.5t73.5 -280q0 -118 -43 -220t-114.5 -170t-165.5 -107t-195 -39zM211 522q0 -98 35 -182.5t93.5 -141.5t135.5 -89.5t160 -32.5t160 32.5t135 89.5
t92.5 141.5t34.5 182.5q0 194 -125 319.5t-297 125.5q-83 0 -160 -32.5t-135.5 -89.5t-93.5 -141.5t-35 -181.5zM342 1276v92q15 33 56 60.5t91 27.5q46 0 100 -25t103.5 -50t85.5 -25q44 0 83.5 28.5t62.5 71.5v-90q-15 -33 -56.5 -61.5t-91.5 -28.5q-45 0 -98 25.5
t-103.5 51t-87.5 25.5q-42 0 -81 -29t-64 -73z" />
    <glyph glyph-name="odieresis" unicode="&#xf6;" horiz-adv-x="1267" 
d="M635 -14q-101 0 -195 39t-166 107t-115.5 170t-43.5 220q0 156 74 280t192 189.5t254 65.5t253.5 -65.5t191 -189.5t73.5 -280q0 -118 -43 -220t-114.5 -170t-165.5 -107t-195 -39zM211 522q0 -98 35 -182.5t93.5 -141.5t135.5 -89.5t160 -32.5t160 32.5t135 89.5
t92.5 141.5t34.5 182.5q0 194 -125 319.5t-297 125.5q-83 0 -160 -32.5t-135.5 -89.5t-93.5 -141.5t-35 -181.5zM381 1368q0 29 21.5 50.5t52.5 21.5q30 0 50.5 -21t20.5 -51q0 -31 -20.5 -52.5t-50.5 -21.5q-31 0 -52.5 21.5t-21.5 52.5zM741 1368q0 29 21.5 50.5
t52.5 21.5t52.5 -21.5t21.5 -50.5q0 -31 -21.5 -52.5t-52.5 -21.5t-52.5 21.5t-21.5 52.5z" />
    <glyph glyph-name="divide" unicode="&#xf7;" horiz-adv-x="1060" 
d="M117 571v84h825v-84h-825zM455 268q0 31 21.5 53.5t53.5 22.5t54 -22.5t22 -53.5q0 -32 -22 -55t-54 -23t-53.5 22.5t-21.5 55.5zM455 956q0 31 21.5 53.5t53.5 22.5t54 -22.5t22 -53.5q0 -32 -22 -54.5t-54 -22.5t-53.5 22.5t-21.5 54.5z" />
    <glyph glyph-name="oslash" unicode="&#xf8;" horiz-adv-x="1267" 
d="M635 -14q-117 0 -225 51l-84 -152h-97l109 195q-102 72 -162.5 186.5t-60.5 255.5q0 156 74 280t192 189.5t254 65.5q114 0 221 -49l84 149h96l-106 -192q102 -72 162.5 -186.5t60.5 -256.5q0 -118 -43 -220t-114.5 -170t-165.5 -107t-195 -39zM211 522q0 -115 46 -208
t126 -154l428 768q-83 39 -176 39q-83 0 -160 -32.5t-135.5 -89.5t-93.5 -141.5t-35 -181.5zM455 117q84 -41 180 -41q83 0 160 32.5t135 89.5t92.5 141.5t34.5 182.5q0 115 -46.5 208.5t-127.5 154.5z" />
    <glyph glyph-name="ugrave" unicode="&#xf9;" horiz-adv-x="1208" 
d="M938 0v221q-34 -99 -138 -169t-237 -70q-81 0 -152 26.5t-126 78t-87 134.5t-32 187v630h94v-610q0 -173 92.5 -264.5t231.5 -91.5q141 0 247.5 100.5t106.5 245.5v620h94v-1038h-94zM340 1511h111l260 -286h-113z" />
    <glyph glyph-name="uacute" unicode="&#xfa;" horiz-adv-x="1208" 
d="M938 0v221q-34 -99 -138 -169t-237 -70q-81 0 -152 26.5t-126 78t-87 134.5t-32 187v630h94v-610q0 -173 92.5 -264.5t231.5 -91.5q141 0 247.5 100.5t106.5 245.5v620h94v-1038h-94zM489 1225l261 286h110l-258 -286h-113z" />
    <glyph glyph-name="ucircumflex" unicode="&#xfb;" horiz-adv-x="1208" 
d="M938 0v221q-34 -99 -138 -169t-237 -70q-81 0 -152 26.5t-126 78t-87 134.5t-32 187v630h94v-610q0 -173 92.5 -264.5t231.5 -91.5q141 0 247.5 100.5t106.5 245.5v620h94v-1038h-94zM305 1225l297 293l295 -293h-109l-186 182l-188 -182h-109z" />
    <glyph glyph-name="udieresis" unicode="&#xfc;" horiz-adv-x="1208" 
d="M938 0v221q-34 -99 -138 -169t-237 -70q-81 0 -152 26.5t-126 78t-87 134.5t-32 187v630h94v-610q0 -173 92.5 -264.5t231.5 -91.5q141 0 247.5 100.5t106.5 245.5v620h94v-1038h-94zM346 1368q0 29 21.5 50.5t52.5 21.5q30 0 51 -21t21 -51q0 -31 -20.5 -52.5
t-51.5 -21.5t-52.5 21.5t-21.5 52.5zM707 1368q0 30 21.5 51t51.5 21q31 0 52.5 -21.5t21.5 -50.5q0 -31 -21.5 -52.5t-52.5 -21.5t-52 21.5t-21 52.5z" />
    <glyph glyph-name="yacute" unicode="&#xfd;" horiz-adv-x="1087" 
d="M496 -238q-43 -103 -110.5 -153.5t-180.5 -50.5h-127v90h125q78 0 123.5 34t76.5 105l99 227l-455 1024h105l401 -907l383 907h104zM444 1225l261 286h110l-258 -286h-113z" />
    <glyph glyph-name="thorn" unicode="&#xfe;" horiz-adv-x="1308" 
d="M270 1534v-766q48 128 165 208.5t265 80.5q93 0 180.5 -35.5t158 -101t113 -169t42.5 -229.5q0 -127 -42.5 -231t-113 -170t-158 -101.5t-180.5 -35.5q-148 0 -265 81t-165 211v-718h-94v1976h94zM270 522q0 -103 35 -189t94 -141.5t133 -86.5t154 -31q76 0 148 28.5
t131 82.5t95 141.5t36 195.5q0 107 -36 194t-95 140.5t-131 82t-148 28.5q-80 0 -154 -30.5t-133 -86t-94 -141t-35 -187.5z" />
    <glyph glyph-name="ydieresis" unicode="&#xff;" horiz-adv-x="1087" 
d="M496 -238q-43 -103 -110.5 -153.5t-180.5 -50.5h-127v90h125q78 0 123.5 34t76.5 105l99 227l-455 1024h105l401 -907l383 907h104zM301 1368q0 29 21.5 50.5t52.5 21.5q30 0 50.5 -21t20.5 -51q0 -31 -20.5 -52.5t-50.5 -21.5q-31 0 -52.5 21.5t-21.5 52.5zM662 1368
q0 30 21 51t52 21t52.5 -21.5t21.5 -50.5q0 -31 -21.5 -52.5t-52.5 -21.5t-52 21.5t-21 52.5z" />
    <glyph glyph-name="Amacron" unicode="&#x100;" horiz-adv-x="1425" 
d="M59 0l654 1438l653 -1438h-104l-199 438h-703l-198 -438h-103zM401 528h621l-309 689zM473 1708v84h479v-84h-479z" />
    <glyph glyph-name="amacron" unicode="&#x101;" horiz-adv-x="1095" 
d="M182 928q45 48 148 88.5t207 40.5q182 0 287.5 -101.5t105.5 -285.5v-670h-92v217q-35 -93 -141.5 -163t-241.5 -70q-148 0 -249.5 78.5t-101.5 220.5q0 87 50.5 153t125 101.5t169.5 52.5l389 65v19q0 139 -83 215t-218 76q-101 0 -198.5 -43.5t-156.5 -108.5v115z
M201 285q0 -102 78.5 -157.5t191.5 -55.5q87 0 172 42t140 113t55 148v196l-367 -63q-118 -20 -194 -76.5t-76 -146.5zM311 1325v84h480v-84h-480z" />
    <glyph glyph-name="Abreve" unicode="&#x102;" horiz-adv-x="1425" 
d="M59 0l654 1438l653 -1438h-104l-199 438h-703l-198 -438h-103zM401 528h621l-309 689zM449 1878h83q0 -74 52 -126t129 -52q79 0 130.5 52t51.5 126h82q0 -114 -75 -186t-189 -72q-112 0 -188 72t-76 186z" />
    <glyph glyph-name="abreve" unicode="&#x103;" horiz-adv-x="1095" 
d="M182 928q45 48 148 88.5t207 40.5q182 0 287.5 -101.5t105.5 -285.5v-670h-92v217q-35 -93 -141.5 -163t-241.5 -70q-148 0 -249.5 78.5t-101.5 220.5q0 87 50.5 153t125 101.5t169.5 52.5l389 65v19q0 139 -83 215t-218 76q-101 0 -198.5 -43.5t-156.5 -108.5v115z
M201 285q0 -102 78.5 -157.5t191.5 -55.5q87 0 172 42t140 113t55 148v196l-367 -63q-118 -20 -194 -76.5t-76 -146.5zM287 1495h84q0 -74 51.5 -126t128.5 -52q79 0 130.5 51.5t51.5 126.5h82q0 -114 -75 -186t-189 -72q-112 0 -188 72t-76 186z" />
    <glyph glyph-name="Aogonek" unicode="&#x104;" horiz-adv-x="1425" 
d="M59 0l654 1438l653 -1438q-199 -138 -199 -252q0 -48 32.5 -72t80.5 -24q46 0 98 33v-82q-42 -31 -108 -31q-84 0 -137.5 44t-53.5 114q0 74 57.5 144.5t149.5 125.5h-24l-199 438h-703l-198 -438h-103zM401 528h621l-309 689z" />
    <glyph glyph-name="aogonek" unicode="&#x105;" horiz-adv-x="1095" 
d="M182 928q45 48 148 88.5t207 40.5q182 0 287.5 -101.5t105.5 -285.5v-670q-199 -138 -199 -252q0 -48 32.5 -72t80.5 -24q46 0 98 33v-82q-42 -31 -108 -31q-84 0 -137.5 44t-53.5 114q0 74 57.5 144.5t149.5 125.5h-12v217q-35 -93 -141.5 -163t-241.5 -70
q-148 0 -249.5 78.5t-101.5 220.5q0 87 50.5 153t125 101.5t169.5 52.5l389 65v19q0 139 -83 215t-218 76q-101 0 -198.5 -43.5t-156.5 -108.5v115zM201 285q0 -102 78.5 -157.5t191.5 -55.5q87 0 172 42t140 113t55 148v196l-367 -63q-118 -20 -194 -76.5t-76 -146.5z" />
    <glyph glyph-name="Cacute" unicode="&#x106;" horiz-adv-x="1431" 
d="M1296 1147q-181 199 -448 199q-122 0 -235.5 -48t-198.5 -130.5t-136 -202t-51 -254.5q0 -181 84.5 -327.5t226.5 -227t310 -80.5q149 0 261 58t187 140v-122q-163 -168 -448 -168q-147 0 -279 53t-229 147t-154 231t-57 296q0 123 38 236.5t106 201.5t157 153.5
t196 100.5t218 35q289 0 452 -168v-123zM743 1608l261 286h110l-258 -286h-113z" />
    <glyph glyph-name="cacute" unicode="&#x107;" horiz-adv-x="1097" 
d="M997 799q-50 69 -141 117.5t-205 48.5q-183 0 -311.5 -123.5t-128.5 -321.5t128.5 -321t311.5 -123q114 0 205 48.5t141 117.5v-123q-48 -57 -138 -96t-208 -39q-144 0 -265.5 65.5t-196 189.5t-74.5 281t74.5 281.5t196 190t265.5 65.5q118 0 208 -39t138 -96v-123z
M506 1225l260 286h111l-259 -286h-112z" />
    <glyph glyph-name="Cdotaccent" unicode="&#x10a;" horiz-adv-x="1431" 
d="M1296 1147q-181 199 -448 199q-122 0 -235.5 -48t-198.5 -130.5t-136 -202t-51 -254.5q0 -181 84.5 -327.5t226.5 -227t310 -80.5q149 0 261 58t187 140v-122q-163 -168 -448 -168q-147 0 -279 53t-229 147t-154 231t-57 296q0 123 38 236.5t106 201.5t157 153.5
t196 100.5t218 35q289 0 452 -168v-123zM780 1749q0 31 21.5 52.5t52.5 21.5t52.5 -21.5t21.5 -52.5q0 -29 -21.5 -50.5t-52.5 -21.5t-52.5 21.5t-21.5 50.5z" />
    <glyph glyph-name="cdotaccent" unicode="&#x10b;" horiz-adv-x="1097" 
d="M997 799q-50 69 -141 117.5t-205 48.5q-183 0 -311.5 -123.5t-128.5 -321.5t128.5 -321t311.5 -123q114 0 205 48.5t141 117.5v-123q-48 -57 -138 -96t-208 -39q-144 0 -265.5 65.5t-196 189.5t-74.5 281t74.5 281.5t196 190t265.5 65.5q118 0 208 -39t138 -96v-123z
M543 1366q0 31 21 52.5t52 21.5t52.5 -21.5t21.5 -52.5q0 -29 -21.5 -50.5t-52.5 -21.5q-30 0 -51.5 21t-21.5 51z" />
    <glyph glyph-name="Ccaron" unicode="&#x10c;" horiz-adv-x="1431" 
d="M1296 1147q-181 199 -448 199q-122 0 -235.5 -48t-198.5 -130.5t-136 -202t-51 -254.5q0 -181 84.5 -327.5t226.5 -227t310 -80.5q149 0 261 58t187 140v-122q-163 -168 -448 -168q-147 0 -279 53t-229 147t-154 231t-57 296q0 123 38 236.5t106 201.5t157 153.5
t196 100.5t218 35q289 0 452 -168v-123zM557 1880h109l186 -182l188 182h109l-297 -293z" />
    <glyph glyph-name="ccaron" unicode="&#x10d;" horiz-adv-x="1097" 
d="M997 799q-50 69 -141 117.5t-205 48.5q-183 0 -311.5 -123.5t-128.5 -321.5t128.5 -321t311.5 -123q114 0 205 48.5t141 117.5v-123q-48 -57 -138 -96t-208 -39q-144 0 -265.5 65.5t-196 189.5t-74.5 281t74.5 281.5t196 190t265.5 65.5q118 0 208 -39t138 -96v-123z
M319 1499h109l186 -182l189 182h108l-297 -293z" />
    <glyph glyph-name="Dcaron" unicode="&#x10e;" horiz-adv-x="1447" 
d="M567 1421q124 0 235.5 -27.5t206 -85.5t163 -141t107 -199.5t38.5 -256.5t-38.5 -257.5t-107 -200.5t-163 -140.5t-206 -85t-235.5 -27.5h-362v1421h362zM299 90h268q105 0 200.5 23.5t179 73t144 121.5t95.5 175.5t35 227.5t-35 227t-95.5 175t-144 121.5t-179 73
t-200.5 23.5h-268v-1241zM360 1880h109l186 -182l189 182h108l-297 -293z" />
    <glyph glyph-name="dcaron" unicode="&#x10f;" horiz-adv-x="1402" 
d="M1135 1534v-1534h-95v279q-48 -132 -164.5 -213.5t-267.5 -81.5q-93 0 -180 35.5t-157.5 100.5t-113 168.5t-42.5 229.5q0 127 42.5 231.5t113 170t157.5 101.5t180 36q151 0 267.5 -82.5t164.5 -214.5v774h95zM213 518q0 -107 36 -194t95 -140t131 -81.5t148 -28.5
q80 0 154 30.5t132.5 85.5t93.5 140.5t35 187.5q0 103 -35 189t-93.5 142t-132.5 87t-154 31q-76 0 -148 -29t-131 -83t-95 -141.5t-36 -195.5zM1280 1171l115 363h92l-129 -363h-78z" />
    <glyph glyph-name="Dcroat" unicode="&#x110;" horiz-adv-x="1447" 
d="M567 1421q124 0 235.5 -27.5t206 -85.5t163 -141t107 -199.5t38.5 -256.5t-38.5 -257.5t-107 -200.5t-163 -140.5t-206 -85t-235.5 -27.5h-362v672h-164v86h164v663h362zM299 90h268q105 0 200.5 23.5t179 73t144 121.5t95.5 175.5t35 227.5t-35 227t-95.5 175
t-144 121.5t-179 73t-200.5 23.5h-268v-573h354v-86h-354v-582z" />
    <glyph glyph-name="dcroat" unicode="&#x111;" horiz-adv-x="1308" 
d="M1135 1534v-172h170v-84h-170v-1278h-95v279q-48 -132 -164.5 -213.5t-267.5 -81.5q-93 0 -180 35.5t-157.5 100.5t-113 168.5t-42.5 229.5q0 127 42.5 231.5t113 170t157.5 101.5t180 36q151 0 267.5 -82.5t164.5 -214.5v518h-309v84h309v172h95zM213 518
q0 -107 36 -194t95 -140t131 -81.5t148 -28.5q80 0 154 30.5t132.5 85.5t93.5 140.5t35 187.5q0 103 -35 189t-93.5 142t-132.5 87t-154 31q-76 0 -148 -29t-131 -83t-95 -141.5t-36 -195.5z" />
    <glyph glyph-name="Emacron" unicode="&#x112;" horiz-adv-x="1150" 
d="M383 1792h479v-84h-479v84zM205 0v1421h809v-90h-715v-563h678v-88h-678v-590h715v-90h-809z" />
    <glyph glyph-name="emacron" unicode="&#x113;" horiz-adv-x="1189" 
d="M659 -16q-86 0 -166 22.5t-148.5 68t-120 109.5t-80.5 152.5t-29 191.5q0 151 67 273t181 189t251 67q198 0 329.5 -140.5t131.5 -351.5v-63h-862q6 -197 135.5 -312.5t310.5 -115.5q73 0 138 17.5t111.5 47.5t78 59.5t53.5 61.5v-121q-49 -63 -144 -109t-237 -46z
M215 586h764q-6 166 -109.5 274.5t-257.5 108.5q-84 0 -158 -33t-124.5 -87.5t-80.5 -122.5t-34 -140zM373 1325v84h479v-84h-479z" />
    <glyph glyph-name="Edotaccent" unicode="&#x116;" horiz-adv-x="1150" 
d="M623 1823q31 0 52 -21.5t21 -52.5q0 -29 -21 -50.5t-52 -21.5t-52.5 21.5t-21.5 50.5q0 31 21.5 52.5t52.5 21.5zM205 0v1421h809v-90h-715v-563h678v-88h-678v-590h715v-90h-809z" />
    <glyph glyph-name="edotaccent" unicode="&#x117;" horiz-adv-x="1189" 
d="M659 -16q-86 0 -166 22.5t-148.5 68t-120 109.5t-80.5 152.5t-29 191.5q0 151 67 273t181 189t251 67q198 0 329.5 -140.5t131.5 -351.5v-63h-862q6 -197 135.5 -312.5t310.5 -115.5q73 0 138 17.5t111.5 47.5t78 59.5t53.5 61.5v-121q-49 -63 -144 -109t-237 -46z
M215 586h764q-6 166 -109.5 274.5t-257.5 108.5q-84 0 -158 -33t-124.5 -87.5t-80.5 -122.5t-34 -140zM539 1366q0 31 21 52.5t52 21.5t52.5 -21.5t21.5 -52.5q0 -29 -21.5 -50.5t-52.5 -21.5q-30 0 -51.5 21t-21.5 51z" />
    <glyph glyph-name="Eogonek" unicode="&#x118;" horiz-adv-x="1150" 
d="M920 -428q-84 0 -137.5 44t-53.5 114q0 74 57.5 144.5t149.5 125.5h-731v1421h809v-90h-715v-563h678v-88h-678v-590h715v-88l2 -2q-199 -138 -199 -252q0 -48 32.5 -72t80.5 -24q46 0 98 33v-82q-42 -31 -108 -31z" />
    <glyph glyph-name="eogonek" unicode="&#x119;" horiz-adv-x="1189" 
d="M659 -16q-86 0 -166 22.5t-148.5 68t-120 109.5t-80.5 152.5t-29 191.5q0 151 67 273t181 189t251 67q198 0 329.5 -140.5t131.5 -351.5v-63h-862q6 -197 135.5 -312.5t310.5 -115.5q73 0 138 17.5t111.5 47.5t78 59.5t53.5 61.5v-121q-25 -29 -45 -47
q-103 -84 -150.5 -139.5t-47.5 -112.5q0 -47 31.5 -71.5t80.5 -24.5q47 0 99 33v-82q-42 -31 -109 -31q-84 0 -137 43t-53 113q0 94 116 184q-78 -20 -166 -20zM215 586h764q-6 166 -109.5 274.5t-257.5 108.5q-84 0 -158 -33t-124.5 -87.5t-80.5 -122.5t-34 -140z" />
    <glyph glyph-name="Ecaron" unicode="&#x11a;" horiz-adv-x="1150" 
d="M809 1880h109l-297 -293l-295 293h108l187 -182zM205 0v1421h809v-90h-715v-563h678v-88h-678v-590h715v-90h-809z" />
    <glyph glyph-name="ecaron" unicode="&#x11b;" horiz-adv-x="1189" 
d="M659 -16q-86 0 -166 22.5t-148.5 68t-120 109.5t-80.5 152.5t-29 191.5q0 151 67 273t181 189t251 67q198 0 329.5 -140.5t131.5 -351.5v-63h-862q6 -197 135.5 -312.5t310.5 -115.5q73 0 138 17.5t111.5 47.5t78 59.5t53.5 61.5v-121q-49 -63 -144 -109t-237 -46z
M215 586h764q-6 166 -109.5 274.5t-257.5 108.5q-84 0 -158 -33t-124.5 -87.5t-80.5 -122.5t-34 -140zM315 1499h109l186 -182l189 182h108l-297 -293z" />
    <glyph glyph-name="Gbreve" unicode="&#x11e;" horiz-adv-x="1533" 
d="M825 -16q-108 0 -209.5 29.5t-190 89.5t-154.5 145.5t-104 204.5t-38 258q0 164 64 303.5t169.5 230.5t240 142t276.5 51q174 0 293.5 -50t185.5 -118v-123q-74 81 -194 140t-281 59q-125 0 -242 -43.5t-209.5 -122t-148.5 -201.5t-56 -270q0 -149 49 -271t133 -200
t191.5 -120t226.5 -42q215 0 349.5 130.5t134.5 330.5v104h-512v90h606v-186q0 -157 -73 -285t-206 -202t-301 -74zM545 1878h84q0 -74 51.5 -126t128.5 -52q79 0 130.5 52t51.5 126h82q0 -114 -75 -186t-189 -72q-112 0 -188 72t-76 186z" />
    <glyph glyph-name="gbreve" unicode="&#x11f;" horiz-adv-x="1110" 
d="M432 -442q-98 0 -177 30.5t-129 95.5t-50 156q0 90 55.5 154.5t136.5 89.5q-73 49 -73 133q0 52 32 93.5t84 60.5q-86 48 -135 131t-49 186q0 159 111.5 264t275.5 105q63 0 125 -19h399v-86h-250q113 -107 113 -264q0 -159 -111.5 -265t-275.5 -106q-66 0 -137 23
q-37 -10 -61.5 -37t-24.5 -67q0 -45 30.5 -74t81.5 -29h287q150 0 244 -71.5t94 -208.5q0 -73 -31.5 -131t-84 -93t-115 -53t-129.5 -18h-236zM174 -154q0 -69 41.5 -116t99.5 -66.5t125 -19.5h234q108 0 181 56t73 153t-68.5 145.5t-173.5 48.5h-297q-88 0 -151.5 -58
t-63.5 -143zM221 688q0 -124 84.5 -203t208.5 -79t208.5 79t84.5 203q0 123 -85 202t-208 79t-208 -79t-85 -202zM301 1495h84q0 -74 51.5 -126t128.5 -52q79 0 131 52t52 126h81q0 -114 -75 -186t-189 -72q-112 0 -188 72t-76 186z" />
    <glyph glyph-name="Gdotaccent" unicode="&#x120;" horiz-adv-x="1533" 
d="M825 -16q-108 0 -209.5 29.5t-190 89.5t-154.5 145.5t-104 204.5t-38 258q0 164 64 303.5t169.5 230.5t240 142t276.5 51q174 0 293.5 -50t185.5 -118v-123q-74 81 -194 140t-281 59q-125 0 -242 -43.5t-209.5 -122t-148.5 -201.5t-56 -270q0 -149 49 -271t133 -200
t191.5 -120t226.5 -42q215 0 349.5 130.5t134.5 330.5v104h-512v90h606v-186q0 -157 -73 -285t-206 -202t-301 -74zM735 1749q0 31 21.5 52.5t52.5 21.5t52.5 -21.5t21.5 -52.5q0 -29 -21.5 -50.5t-52.5 -21.5t-52.5 21.5t-21.5 50.5z" />
    <glyph glyph-name="gdotaccent" unicode="&#x121;" horiz-adv-x="1110" 
d="M432 -442q-98 0 -177 30.5t-129 95.5t-50 156q0 90 55.5 154.5t136.5 89.5q-73 49 -73 133q0 52 32 93.5t84 60.5q-86 48 -135 131t-49 186q0 159 111.5 264t275.5 105q63 0 125 -19h399v-86h-250q113 -107 113 -264q0 -159 -111.5 -265t-275.5 -106q-66 0 -137 23
q-37 -10 -61.5 -37t-24.5 -67q0 -45 30.5 -74t81.5 -29h287q150 0 244 -71.5t94 -208.5q0 -73 -31.5 -131t-84 -93t-115 -53t-129.5 -18h-236zM174 -154q0 -69 41.5 -116t99.5 -66.5t125 -19.5h234q108 0 181 56t73 153t-68.5 145.5t-173.5 48.5h-297q-88 0 -151.5 -58
t-63.5 -143zM221 688q0 -124 84.5 -203t208.5 -79t208.5 79t84.5 203q0 123 -85 202t-208 79t-208 -79t-85 -202zM492 1366q0 31 21 52.5t52 21.5t52.5 -21.5t21.5 -52.5q0 -29 -21.5 -50.5t-52.5 -21.5t-52 21t-21 51z" />
    <glyph glyph-name="uni0122" unicode="&#x122;" horiz-adv-x="1533" 
d="M825 -16q-108 0 -209.5 29.5t-190 89.5t-154.5 145.5t-104 204.5t-38 258q0 164 64 303.5t169.5 230.5t240 142t276.5 51q174 0 293.5 -50t185.5 -118v-123q-74 81 -194 140t-281 59q-125 0 -242 -43.5t-209.5 -122t-148.5 -201.5t-56 -270q0 -149 49 -271t133 -200
t191.5 -120t226.5 -42q215 0 349.5 130.5t134.5 330.5v104h-512v90h606v-186q0 -157 -73 -285t-206 -202t-301 -74zM707 -487l114 362h92l-129 -362h-77z" />
    <glyph glyph-name="uni0123" unicode="&#x123;" horiz-adv-x="1110" 
d="M432 -442q-98 0 -177 30.5t-129 95.5t-50 156q0 90 55.5 154.5t136.5 89.5q-73 49 -73 133q0 52 32 93.5t84 60.5q-86 48 -135 131t-49 186q0 159 111.5 264t275.5 105q63 0 125 -19h399v-86h-250q113 -107 113 -264q0 -159 -111.5 -265t-275.5 -106q-66 0 -137 23
q-37 -10 -61.5 -37t-24.5 -67q0 -45 30.5 -74t81.5 -29h287q150 0 244 -71.5t94 -208.5q0 -73 -31.5 -131t-84 -93t-115 -53t-129.5 -18h-236zM174 -154q0 -69 41.5 -116t99.5 -66.5t125 -19.5h234q108 0 181 56t73 153t-68.5 145.5t-173.5 48.5h-297q-88 0 -151.5 -58
t-63.5 -143zM221 688q0 -124 84.5 -203t208.5 -79t208.5 79t84.5 203q0 123 -85 202t-208 79t-208 -79t-85 -202zM510 1219l129 362h78l-115 -362h-92z" />
    <glyph glyph-name="Hbar" unicode="&#x126;" horiz-adv-x="1495" 
d="M1190 1421h94v-243h170v-84h-170v-1094h-94v633h-885v-633h-94v1094h-170v84h170v243h94v-243h885v243zM305 723h885v371h-885v-371z" />
    <glyph glyph-name="hbar" unicode="&#x127;" horiz-adv-x="1208" 
d="M270 1534v-172h308v-84h-308v-461q34 99 138 169.5t237 70.5q81 0 152 -26.5t126 -78t87 -134.5t32 -187v-631h-94v610q0 173 -92 265t-231 92q-141 0 -248 -100.5t-107 -245.5v-621h-94v1278h-172v84h172v172h94z" />
    <glyph glyph-name="Imacron" unicode="&#x12a;" horiz-adv-x="503" 
d="M299 1421v-1421h-94v1421h94zM12 1708v84h480v-84h-480z" />
    <glyph glyph-name="imacron" unicode="&#x12b;" horiz-adv-x="446" 
d="M270 1038v-1038h-94v1038h94zM-16 1325v84h479v-84h-479z" />
    <glyph glyph-name="Iogonek" unicode="&#x12e;" horiz-adv-x="503" 
d="M299 1421v-1421q-199 -138 -199 -252q0 -48 32.5 -72t80.5 -24q46 0 98 33v-82q-42 -31 -108 -31q-84 0 -137.5 44t-53.5 114q0 74 57.5 144.5t149.5 125.5h-14v1421h94z" />
    <glyph glyph-name="iogonek" unicode="&#x12f;" horiz-adv-x="446" 
d="M270 1038v-1038q-198 -137 -198 -252q0 -48 32 -72t80 -24q47 0 99 33v-82q-42 -31 -109 -31q-84 0 -137 44t-53 114q0 74 57.5 144.5t148.5 125.5h-14v1038h94zM150 1366q0 31 21 52.5t52 21.5t52.5 -21.5t21.5 -52.5q0 -29 -21.5 -50.5t-52.5 -21.5t-52 21t-21 51z" />
    <glyph glyph-name="Idotaccent" unicode="&#x130;" horiz-adv-x="503" 
d="M299 1421v-1421h-94v1421h94zM178 1749q0 31 21.5 52.5t52.5 21.5t52.5 -21.5t21.5 -52.5q0 -29 -21.5 -50.5t-52.5 -21.5t-52.5 21.5t-21.5 50.5z" />
    <glyph glyph-name="dotlessi" unicode="&#x131;" horiz-adv-x="446" 
d="M270 1038v-1038h-94v1038h94z" />
    <glyph glyph-name="uni0136" unicode="&#x136;" horiz-adv-x="1251" 
d="M1034 1421h127l-727 -673l772 -748h-133l-774 743zM205 0v1421h94v-1421h-94zM496 -487l114 362h92l-129 -362h-77z" />
    <glyph glyph-name="uni0137" unicode="&#x137;" horiz-adv-x="1003" 
d="M270 1534v-981l545 485h123l-539 -483l576 -555h-127l-578 549v-549h-94v1534h94zM383 -487l115 362h92l-129 -362h-78z" />
    <glyph glyph-name="Lacute" unicode="&#x139;" horiz-adv-x="1081" 
d="M299 1421v-1331h715v-90h-809v1421h94zM143 1608l260 286h111l-258 -286h-113z" />
    <glyph glyph-name="lacute" unicode="&#x13a;" horiz-adv-x="446" 
d="M270 1534v-1534h-94v1534h94zM113 1720l260 287h110l-258 -287h-112z" />
    <glyph glyph-name="uni013B" unicode="&#x13b;" horiz-adv-x="1081" 
d="M299 1421v-1331h715v-90h-809v1421h94zM455 -487l114 362h93l-130 -362h-77z" />
    <glyph glyph-name="uni013C" unicode="&#x13c;" horiz-adv-x="446" 
d="M270 1534v-1534h-94v1534h94zM70 -487l114 362h92l-129 -362h-77z" />
    <glyph glyph-name="Lcaron" unicode="&#x13d;" horiz-adv-x="1081" 
d="M299 1421v-1331h715v-90h-809v1421h94zM471 1059l115 362h92l-129 -362h-78z" />
    <glyph glyph-name="lcaron" unicode="&#x13e;" horiz-adv-x="538" 
d="M270 1534v-1534h-94v1534h94zM418 1171l114 363h93l-129 -363h-78z" />
    <glyph glyph-name="Lslash" unicode="&#x141;" horiz-adv-x="1081" 
d="M299 1421v-633l354 123v-90l-354 -123v-608h715v-90h-809v666l-164 -58v90l164 58v665h94z" />
    <glyph glyph-name="lslash" unicode="&#x142;" horiz-adv-x="567" 
d="M332 1534v-649l231 88v-92l-231 -88v-793h-94v758l-234 -88v92l234 88v684h94z" />
    <glyph glyph-name="Nacute" unicode="&#x143;" horiz-adv-x="1515" 
d="M205 1438l1012 -1207v1190h94v-1437l-1012 1204v-1188h-94v1438zM647 1608l260 286h111l-258 -286h-113z" />
    <glyph glyph-name="nacute" unicode="&#x144;" horiz-adv-x="1208" 
d="M270 1038v-221q34 99 138 169.5t237 70.5q81 0 152 -26.5t126 -78t87 -134.5t32 -187v-631h-94v610q0 173 -92 265t-231 92q-141 0 -248 -100.5t-107 -245.5v-621h-94v1038h94zM494 1225l260 286h110l-258 -286h-112z" />
    <glyph glyph-name="uni0145" unicode="&#x145;" horiz-adv-x="1515" 
d="M205 1438l1012 -1207v1190h94v-1437l-1012 1204v-1188h-94v1438zM614 -487l115 362h92l-129 -362h-78z" />
    <glyph glyph-name="uni0146" unicode="&#x146;" horiz-adv-x="1208" 
d="M270 1038v-221q34 99 138 169.5t237 70.5q81 0 152 -26.5t126 -78t87 -134.5t32 -187v-631h-94v610q0 173 -92 265t-231 92q-141 0 -248 -100.5t-107 -245.5v-621h-94v1038h94zM453 -487l114 362h92l-129 -362h-77z" />
    <glyph glyph-name="Ncaron" unicode="&#x147;" horiz-adv-x="1515" 
d="M205 1438l1012 -1207v1190h94v-1437l-1012 1204v-1188h-94v1438zM461 1880h108l187 -182l188 182h109l-297 -293z" />
    <glyph glyph-name="ncaron" unicode="&#x148;" horiz-adv-x="1208" 
d="M270 1038v-221q34 99 138 169.5t237 70.5q81 0 152 -26.5t126 -78t87 -134.5t32 -187v-631h-94v610q0 173 -92 265t-231 92q-141 0 -248 -100.5t-107 -245.5v-621h-94v1038h94zM307 1499h109l186 -182l189 182h108l-297 -293z" />
    <glyph glyph-name="Eng" unicode="&#x14a;" horiz-adv-x="1515" 
d="M205 1438l1012 -1207v1190h94v-1611q0 -120 -68 -186t-184 -66h-144v90h138q76 0 120 41t44 127v280l-918 1092v-1188h-94v1438z" />
    <glyph glyph-name="eng" unicode="&#x14b;" horiz-adv-x="1208" 
d="M270 1038v-221q34 99 138 169.5t237 70.5q81 0 152 -26.5t126 -78t87 -134.5t32 -187v-821q0 -120 -67.5 -186t-183.5 -66h-144v90h137q76 0 120 41t44 127v794q0 173 -92 265t-231 92q-141 0 -248 -100.5t-107 -245.5v-621h-94v1038h94z" />
    <glyph glyph-name="Omacron" unicode="&#x14c;" horiz-adv-x="1650" 
d="M825 76q121 0 230.5 46.5t191 128.5t129 201.5t47.5 258.5t-47.5 258.5t-129 201.5t-191 128.5t-230.5 46.5t-230.5 -46.5t-191 -128.5t-129 -201.5t-47.5 -258.5t47.5 -258.5t129 -201.5t191 -128.5t230.5 -46.5zM129 711q0 157 55.5 293.5t149.5 231t221.5 148.5
t269.5 54q141 0 268.5 -54t222 -148.5t150.5 -231t56 -293.5t-56 -293.5t-150.5 -231t-222 -148.5t-268.5 -54q-142 0 -269.5 54t-221.5 148.5t-149.5 231t-55.5 293.5zM586 1708v84h479v-84h-479z" />
    <glyph glyph-name="omacron" unicode="&#x14d;" horiz-adv-x="1267" 
d="M635 -14q-101 0 -195 39t-166 107t-115.5 170t-43.5 220q0 156 74 280t192 189.5t254 65.5t253.5 -65.5t191 -189.5t73.5 -280q0 -118 -43 -220t-114.5 -170t-165.5 -107t-195 -39zM211 522q0 -98 35 -182.5t93.5 -141.5t135.5 -89.5t160 -32.5t160 32.5t135 89.5
t92.5 141.5t34.5 182.5q0 194 -125 319.5t-297 125.5q-83 0 -160 -32.5t-135.5 -89.5t-93.5 -141.5t-35 -181.5zM395 1325v84h479v-84h-479z" />
    <glyph glyph-name="Ohungarumlaut" unicode="&#x150;" horiz-adv-x="1650" 
d="M825 76q121 0 230.5 46.5t191 128.5t129 201.5t47.5 258.5t-47.5 258.5t-129 201.5t-191 128.5t-230.5 46.5t-230.5 -46.5t-191 -128.5t-129 -201.5t-47.5 -258.5t47.5 -258.5t129 -201.5t191 -128.5t230.5 -46.5zM129 711q0 157 55.5 293.5t149.5 231t221.5 148.5
t269.5 54q141 0 268.5 -54t222 -148.5t150.5 -231t56 -293.5t-56 -293.5t-150.5 -231t-222 -148.5t-268.5 -54q-142 0 -269.5 54t-221.5 148.5t-149.5 231t-55.5 293.5zM623 1608l202 286h99l-203 -286h-98zM911 1608l203 286h98l-202 -286h-99z" />
    <glyph glyph-name="ohungarumlaut" unicode="&#x151;" horiz-adv-x="1267" 
d="M635 -14q-101 0 -195 39t-166 107t-115.5 170t-43.5 220q0 156 74 280t192 189.5t254 65.5t253.5 -65.5t191 -189.5t73.5 -280q0 -118 -43 -220t-114.5 -170t-165.5 -107t-195 -39zM211 522q0 -98 35 -182.5t93.5 -141.5t135.5 -89.5t160 -32.5t160 32.5t135 89.5
t92.5 141.5t34.5 182.5q0 194 -125 319.5t-297 125.5q-83 0 -160 -32.5t-135.5 -89.5t-93.5 -141.5t-35 -181.5zM430 1225l203 286h98l-203 -286h-98zM719 1225l203 286h98l-203 -286h-98z" />
    <glyph glyph-name="OE" unicode="&#x152;" horiz-adv-x="2086" 
d="M899 1331q-105 0 -202 -23.5t-183 -73t-149.5 -121.5t-100.5 -175t-37 -227t37 -227.5t100.5 -175.5t149.5 -122t183 -73t202 -23h250v1241h-250zM129 711q0 139 40.5 256.5t112 200t169 140.5t211 85.5t237.5 27.5h1053v-90h-709v-563h682v-88h-682v-590h709v-90h-1053
q-124 0 -237.5 27.5t-211 85.5t-168.5 140.5t-112 200t-41 257.5z" />
    <glyph glyph-name="oe" unicode="&#x153;" horiz-adv-x="2111" 
d="M631 -16q-100 0 -193.5 39t-165 108t-114.5 171t-43 220q0 156 73.5 280t190.5 189.5t252 65.5q148 0 273.5 -80.5t189.5 -218.5q58 136 177.5 217.5t268.5 81.5q195 0 326 -138t131 -339v-64h-854q2 -105 39.5 -190.5t99 -139.5t139.5 -83t164 -29q73 0 137 17.5
t109.5 47.5t76.5 59.5t54 61.5v-121q-47 -62 -142 -108.5t-235 -46.5q-161 0 -292.5 80.5t-194.5 228.5q-63 -142 -190 -225.5t-277 -83.5zM211 522q0 -98 35 -182.5t93 -141.5t134 -89.5t158 -32.5q171 0 295.5 125.5t124.5 320.5q0 97 -34.5 181t-92.5 140.5t-134 89
t-159 32.5q-110 0 -205.5 -54.5t-155 -157t-59.5 -231.5zM1145 600h756q-6 158 -109 263.5t-254 105.5q-110 0 -200.5 -56t-139 -139.5t-53.5 -173.5z" />
    <glyph glyph-name="Racute" unicode="&#x154;" horiz-adv-x="1271" 
d="M205 0v1421h409q217 0 341 -107.5t124 -297.5q0 -161 -95.5 -268.5t-258.5 -135.5l485 -612h-118l-480 602h-313v-602h-94zM299 692h311q179 0 276 88t97 236q0 145 -96.5 230t-276.5 85h-311v-639zM555 1608l260 286h111l-258 -286h-113z" />
    <glyph glyph-name="racute" unicode="&#x155;" horiz-adv-x="763" 
d="M264 1038v-252q35 117 131 186.5t217 69.5h95v-94h-91q-71 0 -132 -24t-109.5 -71.5t-76.5 -126t-28 -179.5v-547h-94v1038h88zM342 1225l260 286h111l-258 -286h-113z" />
    <glyph glyph-name="uni0156" unicode="&#x156;" horiz-adv-x="1271" 
d="M205 0v1421h409q217 0 341 -107.5t124 -297.5q0 -161 -95.5 -268.5t-258.5 -135.5l485 -612h-118l-480 602h-313v-602h-94zM299 692h311q179 0 276 88t97 236q0 145 -96.5 230t-276.5 85h-311v-639zM506 -487l115 362h92l-129 -362h-78z" />
    <glyph glyph-name="uni0157" unicode="&#x157;" horiz-adv-x="763" 
d="M264 1038v-252q35 117 131 186.5t217 69.5h95v-94h-91q-71 0 -132 -24t-109.5 -71.5t-76.5 -126t-28 -179.5v-547h-94v1038h88zM70 -487l114 362h92l-129 -362h-77z" />
    <glyph glyph-name="Rcaron" unicode="&#x158;" horiz-adv-x="1271" 
d="M205 0v1421h409q217 0 341 -107.5t124 -297.5q0 -161 -95.5 -268.5t-258.5 -135.5l485 -612h-118l-480 602h-313v-602h-94zM299 692h311q179 0 276 88t97 236q0 145 -96.5 230t-276.5 85h-311v-639zM369 1880h108l187 -182l188 182h109l-297 -293z" />
    <glyph glyph-name="rcaron" unicode="&#x159;" horiz-adv-x="763" 
d="M264 1038v-252q35 117 131 186.5t217 69.5h95v-94h-91q-71 0 -132 -24t-109.5 -71.5t-76.5 -126t-28 -179.5v-547h-94v1038h88zM156 1499h108l187 -182l188 182h109l-297 -293z" />
    <glyph glyph-name="Sacute" unicode="&#x15a;" horiz-adv-x="1191" 
d="M1008 1147q-159 201 -412 201q-91 0 -171 -31.5t-133.5 -97t-53.5 -152.5q0 -46 17 -84.5t40.5 -63.5t66.5 -49t78.5 -38t91.5 -33l160 -54q64 -22 107 -39.5t100 -50.5t91 -69t58.5 -92t24.5 -123q0 -177 -128.5 -282t-336.5 -105q-169 0 -290.5 50.5t-176.5 115.5v124
q70 -88 186.5 -144t278.5 -56q168 0 269.5 81t101.5 210q0 30 -6.5 57t-15.5 48t-27 41t-32.5 34t-41 29t-43.5 24t-49.5 21.5t-48.5 18t-51 17.5l-166 56q-62 21 -104 38t-94 47.5t-83.5 64.5t-53.5 85.5t-22 114.5q0 71 27 132.5t72 105.5t103.5 76t123 47.5t129.5 15.5
q140 0 250.5 -50t163.5 -116v-125zM498 1608l260 286h110l-258 -286h-112z" />
    <glyph glyph-name="sacute" unicode="&#x15b;" horiz-adv-x="983" 
d="M819 813q-58 74 -145 116t-189 42q-110 0 -191 -51.5t-81 -139.5q0 -69 53 -106.5t156 -69.5l151 -49q37 -12 60 -20t58 -22.5t57 -28.5t48 -36t41 -46t25 -57t10 -71q0 -132 -103.5 -211t-272.5 -79q-125 0 -229.5 38t-147.5 93v112q58 -72 158 -114.5t217 -42.5
q129 0 205.5 53t76.5 143q0 35 -14 64t-34 48.5t-52.5 37t-58.5 27.5t-64 22l-162 49q-33 10 -53 17t-52.5 20.5t-53 26.5t-44.5 33t-38 42.5t-23.5 53.5t-9.5 67q0 124 110.5 203.5t257.5 79.5q107 0 198.5 -36.5t135.5 -92.5v-115zM379 1225l260 286h111l-258 -286h-113z
" />
    <glyph glyph-name="Scedilla" unicode="&#x15e;" horiz-adv-x="1191" 
d="M1008 1147q-159 201 -412 201q-91 0 -171 -31.5t-133.5 -97t-53.5 -152.5q0 -46 17 -84.5t40.5 -63.5t66.5 -49t78.5 -38t91.5 -33l160 -54q64 -22 107 -39.5t100 -50.5t91 -69t58.5 -92t24.5 -123q0 -170 -119 -274t-315 -113l-27 -99q70 -3 119 -43t49 -110
q0 -76 -54 -122t-136 -46t-135 33v92q55 -47 131 -47q41 0 74.5 22t33.5 70q0 52 -48.5 75t-125.5 15l43 162q-152 7 -262 55.5t-160 108.5v124q70 -88 186.5 -144t278.5 -56q168 0 269.5 81t101.5 210q0 30 -6.5 57t-15.5 48t-27 41t-32.5 34t-41 29t-43.5 24t-49.5 21.5
t-48.5 18t-51 17.5l-166 56q-62 21 -104 38t-94 47.5t-83.5 64.5t-53.5 85.5t-22 114.5q0 71 27 132.5t72 105.5t103.5 76t123 47.5t129.5 15.5q140 0 250.5 -50t163.5 -116v-125z" />
    <glyph glyph-name="scedilla" unicode="&#x15f;" horiz-adv-x="983" 
d="M819 813q-58 74 -145 116t-189 42q-110 0 -191 -51.5t-81 -139.5q0 -69 53 -106.5t156 -69.5l151 -49q37 -12 60 -20t58 -22.5t57 -28.5t48 -36t41 -46t25 -57t10 -71q0 -128 -98 -206.5t-260 -83.5l-27 -99q70 -3 119 -43t49 -110q0 -76 -54 -122t-136 -46t-135 33v92
q55 -47 131 -47q41 0 74.5 22t33.5 70q0 52 -48.5 75t-125.5 15l43 162q-107 9 -194 45.5t-125 83.5v112q58 -72 158 -114.5t217 -42.5q129 0 205.5 53t76.5 143q0 35 -14 64t-34 48.5t-52.5 37t-58.5 27.5t-64 22l-162 49q-33 10 -53 17t-52.5 20.5t-53 26.5t-44.5 33
t-38 42.5t-23.5 53.5t-9.5 67q0 124 110.5 203.5t257.5 79.5q107 0 198.5 -36.5t135.5 -92.5v-115z" />
    <glyph glyph-name="Scaron" unicode="&#x160;" horiz-adv-x="1191" 
d="M1008 1147q-159 201 -412 201q-91 0 -171 -31.5t-133.5 -97t-53.5 -152.5q0 -46 17 -84.5t40.5 -63.5t66.5 -49t78.5 -38t91.5 -33l160 -54q64 -22 107 -39.5t100 -50.5t91 -69t58.5 -92t24.5 -123q0 -177 -128.5 -282t-336.5 -105q-169 0 -290.5 50.5t-176.5 115.5v124
q70 -88 186.5 -144t278.5 -56q168 0 269.5 81t101.5 210q0 30 -6.5 57t-15.5 48t-27 41t-32.5 34t-41 29t-43.5 24t-49.5 21.5t-48.5 18t-51 17.5l-166 56q-62 21 -104 38t-94 47.5t-83.5 64.5t-53.5 85.5t-22 114.5q0 71 27 132.5t72 105.5t103.5 76t123 47.5t129.5 15.5
q140 0 250.5 -50t163.5 -116v-125zM311 1880h109l186 -182l189 182h108l-297 -293z" />
    <glyph glyph-name="scaron" unicode="&#x161;" horiz-adv-x="983" 
d="M819 813q-58 74 -145 116t-189 42q-110 0 -191 -51.5t-81 -139.5q0 -69 53 -106.5t156 -69.5l151 -49q37 -12 60 -20t58 -22.5t57 -28.5t48 -36t41 -46t25 -57t10 -71q0 -132 -103.5 -211t-272.5 -79q-125 0 -229.5 38t-147.5 93v112q58 -72 158 -114.5t217 -42.5
q129 0 205.5 53t76.5 143q0 35 -14 64t-34 48.5t-52.5 37t-58.5 27.5t-64 22l-162 49q-33 10 -53 17t-52.5 20.5t-53 26.5t-44.5 33t-38 42.5t-23.5 53.5t-9.5 67q0 124 110.5 203.5t257.5 79.5q107 0 198.5 -36.5t135.5 -92.5v-115zM193 1499h108l186 -182l189 182h108
l-297 -293z" />
    <glyph glyph-name="uni0162" unicode="&#x162;" horiz-adv-x="1265" 
d="M68 1331v90h1130v-90h-518v-1331h-10l-31 -115q70 -3 119 -43t49 -110q0 -76 -54.5 -122t-136.5 -46t-135 33v92q55 -47 131 -47q41 0 75 22.5t34 69.5q0 52 -48.5 75t-125.5 15l47 176h-10v1331h-516z" />
    <glyph glyph-name="uni0163" unicode="&#x163;" horiz-adv-x="704" 
d="M633 1038v-88h-322v-692q0 -86 44 -127t120 -41h158v-90h-148l-28 -111q70 -3 119 -43t49 -110q0 -76 -54.5 -122t-136.5 -46t-135 33v92q55 -47 131 -47q41 0 75 22.5t34 69.5q0 52 -48.5 75t-125.5 15l47 176q-90 12 -141.5 72t-51.5 162v712h-182v88h182v246l92 39
v-285h322z" />
    <glyph glyph-name="Tcaron" unicode="&#x164;" horiz-adv-x="1265" 
d="M68 1331v90h1130v-90h-518v-1331h-96v1331h-516zM336 1880h108l187 -182l188 182h109l-297 -293z" />
    <glyph glyph-name="tcaron" unicode="&#x165;" horiz-adv-x="704" 
d="M633 1038v-88h-322v-692q0 -86 44 -127t120 -41h158v-90h-170q-112 0 -178 60.5t-66 177.5v712h-182v88h182v246l92 39v-285h322zM459 1202l112 363h91l-127 -363h-76z" />
    <glyph glyph-name="Tbar" unicode="&#x166;" horiz-adv-x="1265" 
d="M68 1331v90h1130v-90h-518v-583h291v-86h-291v-662h-96v662h-287v86h287v583h-516z" />
    <glyph glyph-name="tbar" unicode="&#x167;" horiz-adv-x="704" 
d="M633 1038v-88h-322v-366h289v-82h-289v-244q0 -86 44 -127t120 -41h158v-90h-170q-112 0 -178 60.5t-66 177.5v264h-182v82h182v366h-182v88h182v246l92 39v-285h322z" />
    <glyph glyph-name="Umacron" unicode="&#x16a;" horiz-adv-x="1488" 
d="M289 526q0 -139 61.5 -243t164 -156.5t230.5 -52.5q127 0 229.5 53t164 157t61.5 242v895h94v-901q0 -244 -154.5 -390t-394.5 -146t-395 146t-155 390v901h94v-895zM506 1708v84h479v-84h-479z" />
    <glyph glyph-name="umacron" unicode="&#x16b;" horiz-adv-x="1208" 
d="M938 0v221q-34 -99 -138 -169t-237 -70q-81 0 -152 26.5t-126 78t-87 134.5t-32 187v630h94v-610q0 -173 92.5 -264.5t231.5 -91.5q141 0 247.5 100.5t106.5 245.5v620h94v-1038h-94zM360 1325v84h480v-84h-480z" />
    <glyph glyph-name="Uring" unicode="&#x16e;" horiz-adv-x="1488" 
d="M289 526q0 -139 61.5 -243t164 -156.5t230.5 -52.5q127 0 229.5 53t164 157t61.5 242v895h94v-901q0 -244 -154.5 -390t-394.5 -146t-395 146t-155 390v901h94v-895zM559 1749q0 75 54 128.5t132 53.5q79 0 134 -53.5t55 -128.5q0 -76 -54.5 -128t-134.5 -52
q-78 0 -132 52t-54 128zM633 1749q0 -49 33.5 -81t78.5 -32q46 0 80.5 32t34.5 81t-34.5 81t-80.5 32q-45 0 -78.5 -32t-33.5 -81z" />
    <glyph glyph-name="uring" unicode="&#x16f;" horiz-adv-x="1208" 
d="M938 0v221q-34 -99 -138 -169t-237 -70q-81 0 -152 26.5t-126 78t-87 134.5t-32 187v630h94v-610q0 -173 92.5 -264.5t231.5 -91.5q141 0 247.5 100.5t106.5 245.5v620h94v-1038h-94zM414 1366q0 75 54 128.5t132 53.5q79 0 133.5 -53.5t54.5 -128.5q0 -76 -54 -128
t-134 -52q-78 0 -132 52t-54 128zM487 1366q0 -49 34 -81t79 -32q46 0 80.5 32t34.5 81t-34.5 81t-80.5 32q-45 0 -79 -32t-34 -81z" />
    <glyph glyph-name="Uhungarumlaut" unicode="&#x170;" horiz-adv-x="1488" 
d="M289 526q0 -139 61.5 -243t164 -156.5t230.5 -52.5q127 0 229.5 53t164 157t61.5 242v895h94v-901q0 -244 -154.5 -390t-394.5 -146t-395 146t-155 390v901h94v-895zM541 1608l202 286h99l-203 -286h-98zM829 1608l203 286h98l-202 -286h-99z" />
    <glyph glyph-name="uhungarumlaut" unicode="&#x171;" horiz-adv-x="1208" 
d="M938 0v221q-34 -99 -138 -169t-237 -70q-81 0 -152 26.5t-126 78t-87 134.5t-32 187v630h94v-610q0 -173 92.5 -264.5t231.5 -91.5q141 0 247.5 100.5t106.5 245.5v620h94v-1038h-94zM397 1225l203 286h98l-202 -286h-99zM686 1225l203 286h98l-203 -286h-98z" />
    <glyph glyph-name="Uogonek" unicode="&#x172;" horiz-adv-x="1488" 
d="M289 526q0 -139 61.5 -243t164 -156.5t230.5 -52.5q127 0 229.5 53t164 157t61.5 242v895h94v-901q0 -147 -59 -261t-164 -183q-94 -78 -137 -131t-43 -107q0 -47 32 -71.5t81 -24.5q46 0 98 33v-82q-42 -31 -109 -31q-84 0 -137 43t-53 113q0 95 125 190
q-85 -24 -183 -24q-240 0 -395 146t-155 390v901h94v-895z" />
    <glyph glyph-name="uogonek" unicode="&#x173;" horiz-adv-x="1208" 
d="M938 0v221q-34 -99 -138 -169t-237 -70q-81 0 -152 26.5t-126 78t-87 134.5t-32 187v630h94v-610q0 -173 92.5 -264.5t231.5 -91.5q141 0 247.5 100.5t106.5 245.5v620h94v-1038q-198 -137 -198 -252q0 -48 32 -72t80 -24q46 0 98 33v-82q-42 -31 -108 -31
q-84 0 -137.5 44t-53.5 114q0 74 57.5 144.5t149.5 125.5h-14z" />
    <glyph glyph-name="Wcircumflex" unicode="&#x174;" horiz-adv-x="1859" 
d="M168 1421l379 -1157l383 1174l383 -1170l379 1153h98l-475 -1437l-385 1187l-385 -1187l-475 1437h98zM635 1608l297 293l295 -293h-109l-186 182l-189 -182h-108z" />
    <glyph glyph-name="wcircumflex" unicode="&#x175;" horiz-adv-x="1554" 
d="M166 1038l293 -817l319 836l324 -824l289 805h96l-379 -1054l-330 843l-329 -843l-381 1054h98zM483 1225l297 293l295 -293h-108l-187 182l-188 -182h-109z" />
    <glyph glyph-name="Ycircumflex" unicode="&#x176;" horiz-adv-x="1327" 
d="M477 1608h-108l297 293l295 -293h-109l-186 182zM39 1421h111l516 -729l512 729h110l-577 -829v-592h-95v596z" />
    <glyph glyph-name="ycircumflex" unicode="&#x177;" horiz-adv-x="1087" 
d="M496 -238q-43 -103 -110.5 -153.5t-180.5 -50.5h-127v90h125q78 0 123.5 34t76.5 105l99 227l-455 1024h105l401 -907l383 907h104zM260 1225l297 293l295 -293h-109l-186 182l-188 -182h-109z" />
    <glyph glyph-name="Ydieresis" unicode="&#x178;" horiz-adv-x="1327" 
d="M483 1823q30 0 51 -21t21 -51q0 -31 -20.5 -52.5t-51.5 -21.5t-52 21.5t-21 52.5q0 29 21 50.5t52 21.5zM39 1421h111l516 -729l512 729h110l-577 -829v-592h-95v596zM770 1751q0 29 21.5 50.5t52.5 21.5t52.5 -21.5t21.5 -50.5q0 -31 -21.5 -52.5t-52.5 -21.5
t-52.5 21.5t-21.5 52.5z" />
    <glyph glyph-name="Zacute" unicode="&#x179;" horiz-adv-x="1325" 
d="M133 1421h1067l-905 -1331h905v-90h-1073l903 1331h-897v90zM555 1608l260 286h111l-258 -286h-113z" />
    <glyph glyph-name="zacute" unicode="&#x17a;" horiz-adv-x="1028" 
d="M938 1038l-680 -948h672v-90h-844l678 950h-662v88h836zM408 1225l260 286h110l-258 -286h-112z" />
    <glyph glyph-name="Zdotaccent" unicode="&#x17b;" horiz-adv-x="1325" 
d="M133 1421h1067l-905 -1331h905v-90h-1073l903 1331h-897v90zM592 1749q0 31 21.5 52.5t52.5 21.5t52 -21.5t21 -52.5q0 -29 -21.5 -50.5t-51.5 -21.5q-31 0 -52.5 21.5t-21.5 50.5z" />
    <glyph glyph-name="zdotaccent" unicode="&#x17c;" horiz-adv-x="1028" 
d="M938 1038l-680 -948h672v-90h-844l678 950h-662v88h836zM442 1366q0 31 21.5 52.5t52.5 21.5t52.5 -21.5t21.5 -52.5q0 -29 -21.5 -50.5t-52.5 -21.5t-52.5 21.5t-21.5 50.5z" />
    <glyph glyph-name="Zcaron" unicode="&#x17d;" horiz-adv-x="1325" 
d="M133 1421h1067l-905 -1331h905v-90h-1073l903 1331h-897v90zM369 1880h108l187 -182l188 182h109l-297 -293z" />
    <glyph glyph-name="zcaron" unicode="&#x17e;" horiz-adv-x="1028" 
d="M938 1038l-680 -948h672v-90h-844l678 950h-662v88h836zM221 1499h109l186 -182l189 182h108l-297 -293z" />
    <glyph glyph-name="uni018F" unicode="&#x18f;" horiz-adv-x="1519" 
d="M764 -16q-128 0 -242 44.5t-202 126.5t-139.5 211t-51.5 287v95h1163q-9 185 -95 322.5t-222 206.5t-303 69q-160 0 -292.5 -61t-201.5 -138v123q63 65 193 116.5t307 51.5q147 0 277 -50.5t227 -142.5t153 -230t56 -304q0 -172 -52.5 -313t-140.5 -229.5t-200 -136.5
t-234 -48zM225 647q0 -131 43 -240.5t116.5 -181t171 -110.5t206.5 -39q100 0 191.5 38.5t164 110t119 183.5t53.5 249h-1065v-10z" />
    <glyph glyph-name="florin" unicode="&#x192;" horiz-adv-x="1177" 
d="M205 696v82h346l47 352q19 150 102.5 220.5t210.5 70.5h174v-90h-167q-201 0 -230 -213l-45 -340h342v-82h-352l-53 -405q-19 -150 -102.5 -220.5t-211.5 -70.5h-174v90h168q200 0 229 213l52 393h-336z" />
    <glyph glyph-name="uni01CD" unicode="&#x1cd;" horiz-adv-x="1425" 
d="M59 0l654 1438l653 -1438h-104l-199 438h-703l-198 -438h-103zM401 528h621l-309 689zM418 1880h108l187 -182l188 182h109l-297 -293z" />
    <glyph glyph-name="uni01CE" unicode="&#x1ce;" horiz-adv-x="1095" 
d="M182 928q45 48 148 88.5t207 40.5q182 0 287.5 -101.5t105.5 -285.5v-670h-92v217q-35 -93 -141.5 -163t-241.5 -70q-148 0 -249.5 78.5t-101.5 220.5q0 87 50.5 153t125 101.5t169.5 52.5l389 65v19q0 139 -83 215t-218 76q-101 0 -198.5 -43.5t-156.5 -108.5v115z
M201 285q0 -102 78.5 -157.5t191.5 -55.5q87 0 172 42t140 113t55 148v196l-367 -63q-118 -20 -194 -76.5t-76 -146.5zM256 1499h109l186 -182l188 182h109l-297 -293z" />
    <glyph glyph-name="uni0218" unicode="&#x218;" horiz-adv-x="1191" 
d="M1008 1147q-159 201 -412 201q-91 0 -171 -31.5t-133.5 -97t-53.5 -152.5q0 -46 17 -84.5t40.5 -63.5t66.5 -49t78.5 -38t91.5 -33l160 -54q64 -22 107 -39.5t100 -50.5t91 -69t58.5 -92t24.5 -123q0 -177 -128.5 -282t-336.5 -105q-169 0 -290.5 50.5t-176.5 115.5v124
q70 -88 186.5 -144t278.5 -56q168 0 269.5 81t101.5 210q0 30 -6.5 57t-15.5 48t-27 41t-32.5 34t-41 29t-43.5 24t-49.5 21.5t-48.5 18t-51 17.5l-166 56q-62 21 -104 38t-94 47.5t-83.5 64.5t-53.5 85.5t-22 114.5q0 71 27 132.5t72 105.5t103.5 76t123 47.5t129.5 15.5
q140 0 250.5 -50t163.5 -116v-125zM451 -487l114 362h92l-129 -362h-77z" />
    <glyph glyph-name="uni0219" unicode="&#x219;" horiz-adv-x="983" 
d="M819 813q-58 74 -145 116t-189 42q-110 0 -191 -51.5t-81 -139.5q0 -69 53 -106.5t156 -69.5l151 -49q37 -12 60 -20t58 -22.5t57 -28.5t48 -36t41 -46t25 -57t10 -71q0 -132 -103.5 -211t-272.5 -79q-125 0 -229.5 38t-147.5 93v112q58 -72 158 -114.5t217 -42.5
q129 0 205.5 53t76.5 143q0 35 -14 64t-34 48.5t-52.5 37t-58.5 27.5t-64 22l-162 49q-33 10 -53 17t-52.5 20.5t-53 26.5t-44.5 33t-38 42.5t-23.5 53.5t-9.5 67q0 124 110.5 203.5t257.5 79.5q107 0 198.5 -36.5t135.5 -92.5v-115zM326 -487l114 362h92l-129 -362h-77z
" />
    <glyph glyph-name="uni021A" unicode="&#x21a;" horiz-adv-x="1265" 
d="M68 1331v90h1130v-90h-518v-1331h-96v1331h-516zM479 -487l115 362h92l-129 -362h-78z" />
    <glyph glyph-name="uni021B" unicode="&#x21b;" horiz-adv-x="704" 
d="M633 1038v-88h-322v-692q0 -86 44 -127t120 -41h158v-90h-170q-112 0 -178 60.5t-66 177.5v712h-182v88h182v246l92 39v-285h322zM297 -483l115 362h92l-129 -362h-78z" />
    <glyph glyph-name="uni0237" unicode="&#x237;" horiz-adv-x="454" 
d="M184 1038h95v-1228q0 -120 -68 -186t-184 -66h-144v90h137q76 0 120 41t44 127v1222z" />
    <glyph glyph-name="uni0259" unicode="&#x259;" horiz-adv-x="1189" 
d="M551 1057q108 0 202.5 -34.5t166.5 -99.5t113.5 -167t41.5 -230q0 -152 -62.5 -276.5t-173 -195t-245.5 -70.5q-210 0 -344.5 143.5t-134.5 368.5v63h862q-2 99 -36.5 178t-93 128.5t-134 75.5t-162.5 26q-140 0 -246 -58t-155 -129v121q47 61 152.5 108.5t248.5 47.5z
M211 475q6 -181 112.5 -292t270.5 -111q84 0 156 36t119.5 94.5t75 129.5t30.5 143h-764z" />
    <glyph glyph-name="circumflex" unicode="&#x2c6;" horiz-adv-x="1228" 
d="M426 1225h-109l297 293l295 -293h-108l-187 182z" />
    <glyph glyph-name="caron" unicode="&#x2c7;" horiz-adv-x="1228" 
d="M801 1499h108l-297 -293l-295 293h109l186 -182z" />
    <glyph glyph-name="breve" unicode="&#x2d8;" horiz-adv-x="1228" 
d="M434 1495q0 -74 51.5 -126t128.5 -52q79 0 131 52t52 126h82q0 -114 -75.5 -186t-189.5 -72q-112 0 -188 72t-76 186h84z" />
    <glyph glyph-name="dotaccent" unicode="&#x2d9;" horiz-adv-x="1228" 
d="M614 1440q31 0 52.5 -21.5t21.5 -52.5q0 -29 -21.5 -50.5t-52.5 -21.5q-30 0 -51.5 21t-21.5 51q0 31 21 52.5t52 21.5z" />
    <glyph glyph-name="ring" unicode="&#x2da;" horiz-adv-x="1228" 
d="M801 1366q0 -76 -54.5 -128t-134.5 -52q-78 0 -132 52t-54 128q0 75 54 128.5t132 53.5q79 0 134 -53.5t55 -128.5zM500 1366q0 -49 33.5 -81t78.5 -32q46 0 80.5 32t34.5 81t-34.5 81t-80.5 32q-45 0 -78.5 -32t-33.5 -81z" />
    <glyph glyph-name="ogonek" unicode="&#x2db;" horiz-adv-x="1228" 
d="M657 -428q-84 0 -137 44t-53 114q0 82 71 159.5t177 133.5l39 -23q-199 -138 -199 -252q0 -48 32.5 -72t80.5 -24q46 0 98 33v-82q-42 -31 -109 -31z" />
    <glyph glyph-name="tilde" unicode="&#x2dc;" horiz-adv-x="1228" 
d="M324 1368q15 33 56 60.5t91 27.5q46 0 100 -25t103.5 -50t85.5 -25q44 0 83 28.5t62 71.5v-90q-15 -34 -56 -62t-91 -28q-45 0 -98 25.5t-103.5 51t-87.5 25.5q-42 0 -81 -29t-64 -73v92z" />
    <glyph glyph-name="hungarumlaut" unicode="&#x2dd;" horiz-adv-x="1228" 
d="M324 1225l202 286h99l-203 -286h-98zM612 1225l203 286h98l-202 -286h-99z" />
    <glyph glyph-name="gravecomb" unicode="&#x300;" horiz-adv-x="0" 
d="M408 1511h110l260 -286h-112z" />
    <glyph glyph-name="acutecomb" unicode="&#x301;" horiz-adv-x="0" 
d="M821 1511l-258 -286h-112l260 286h110z" />
    <glyph glyph-name="uni0302" unicode="&#x302;" horiz-adv-x="0" 
d="M426 1225h-109l297 293l295 -293h-108l-187 182z" />
    <glyph glyph-name="tildecomb" unicode="&#x303;" horiz-adv-x="0" 
d="M324 1368q15 33 56 60.5t91 27.5q46 0 100 -25t103.5 -50t85.5 -25q44 0 83 28.5t62 71.5v-90q-15 -34 -56 -62t-91 -28q-45 0 -98 25.5t-103.5 51t-87.5 25.5q-42 0 -81 -29t-64 -73v92z" />
    <glyph glyph-name="uni0304" unicode="&#x304;" horiz-adv-x="0" 
d="M375 1409h479v-84h-479v84z" />
    <glyph glyph-name="uni0306" unicode="&#x306;" horiz-adv-x="0" 
d="M434 1495q0 -74 51.5 -126t128.5 -52q79 0 131 52t52 126h82q0 -114 -75.5 -186t-189.5 -72q-112 0 -188 72t-76 186h84z" />
    <glyph glyph-name="uni0307" unicode="&#x307;" horiz-adv-x="0" 
d="M614 1440q31 0 52.5 -21.5t21.5 -52.5q0 -29 -21.5 -50.5t-52.5 -21.5q-30 0 -51.5 21t-21.5 51q0 31 21 52.5t52 21.5z" />
    <glyph glyph-name="uni0308" unicode="&#x308;" horiz-adv-x="0" 
d="M434 1440q30 0 51 -21t21 -51q0 -31 -20.5 -52.5t-51.5 -21.5t-52.5 21.5t-21.5 52.5q0 29 21.5 50.5t52.5 21.5zM721 1368q0 29 21.5 50.5t52.5 21.5t52 -21t21 -51q0 -31 -21 -52.5t-52 -21.5t-52.5 21.5t-21.5 52.5z" />
    <glyph glyph-name="uni030A" unicode="&#x30a;" horiz-adv-x="0" 
d="M801 1366q0 -76 -54.5 -128t-134.5 -52q-78 0 -132 52t-54 128q0 75 54 128.5t132 53.5q79 0 134 -53.5t55 -128.5zM500 1366q0 -49 33.5 -81t78.5 -32q46 0 80.5 32t34.5 81t-34.5 81t-80.5 32q-45 0 -78.5 -32t-33.5 -81z" />
    <glyph glyph-name="uni030B" unicode="&#x30b;" horiz-adv-x="0" 
d="M324 1225l202 286h99l-203 -286h-98zM612 1225l203 286h98l-202 -286h-99z" />
    <glyph glyph-name="uni030C" unicode="&#x30c;" horiz-adv-x="0" 
d="M801 1499h108l-297 -293l-295 293h109l186 -182z" />
    <glyph glyph-name="uni0312" unicode="&#x312;" horiz-adv-x="0" 
d="M522 1219l129 362h78l-115 -362h-92z" />
    <glyph glyph-name="uni0326" unicode="&#x326;" horiz-adv-x="0" 
d="M707 -125l-129 -362h-78l114 362h93z" />
    <glyph glyph-name="uni0327" unicode="&#x327;" horiz-adv-x="0" 
d="M590 -436q-82 0 -135 33v92q55 -47 131 -47q41 0 74.5 22t33.5 70q0 52 -48.5 75t-125.5 15l47 176h76l-31 -115q70 -3 119 -43t49 -110q0 -76 -54 -122t-136 -46z" />
    <glyph glyph-name="uni0328" unicode="&#x328;" horiz-adv-x="0" 
d="M657 -428q-84 0 -137 44t-53 114q0 82 71 159.5t177 133.5l39 -23q-199 -138 -199 -252q0 -48 32.5 -72t80.5 -24q46 0 98 33v-82q-42 -31 -109 -31z" />
    <glyph glyph-name="uni0394" unicode="&#x394;" horiz-adv-x="1425" 
d="M713 1438l653 -1438h-1307zM203 90h1018l-508 1131z" />
    <glyph glyph-name="uni03A9" unicode="&#x3a9;" horiz-adv-x="1695" 
d="M985 125q51 14 108 44t119.5 84t112 122t81.5 166t32 209q0 168 -77 304.5t-212 214t-301 77.5t-301 -77.5t-212 -214t-77 -304.5q0 -111 32 -209t81.5 -166t112 -122t119.5 -84t108 -44v-125h-551v92h422q-80 35 -152.5 93t-134 139t-98.5 191.5t-37 234.5
q0 194 90 351.5t247.5 247t350.5 89.5t350.5 -89.5t247.5 -247t90 -351.5q0 -124 -37 -234.5t-98.5 -191.5t-134 -139t-152.5 -93h422v-92h-551v125z" />
    <glyph glyph-name="uni03BC" unicode="&#x3bc;" horiz-adv-x="1218" 
d="M270 1038v-610q0 -173 92.5 -264.5t231.5 -91.5q141 0 247.5 100.5t106.5 245.5v620h94v-1038h-94v221q-34 -99 -138 -169t-237 -70q-193 0 -303 131v-555h-94v1480h94z" />
    <glyph glyph-name="pi" unicode="&#x3c0;" horiz-adv-x="1312" 
d="M395 0h-94v950h-244v88h1162v-88h-250v-692q0 -86 44 -127t120 -41h86v-90h-99q-113 0 -179.5 60.5t-66.5 177.5v712h-479v-950z" />
    <glyph glyph-name="uni0400" unicode="&#x400;" horiz-adv-x="1150" 
d="M360 1894h111l260 -286h-113zM205 0v1421h809v-90h-715v-563h678v-88h-678v-590h715v-90h-809z" />
    <glyph glyph-name="uni0401" unicode="&#x401;" horiz-adv-x="1150" 
d="M442 1823q30 0 51 -21t21 -51q0 -31 -20.5 -52.5t-51.5 -21.5t-52 21.5t-21 52.5q0 29 21.5 50.5t51.5 21.5zM205 0v1421h809v-90h-715v-563h678v-88h-678v-590h715v-90h-809zM729 1751q0 29 21.5 50.5t52.5 21.5t52.5 -21.5t21.5 -50.5q0 -31 -21.5 -52.5t-52.5 -21.5
t-52.5 21.5t-21.5 52.5z" />
    <glyph glyph-name="uni0402" unicode="&#x402;" horiz-adv-x="1701" 
d="M1102 -358v90h149q103 0 156 49.5t53 167.5v530q0 130 -70 184t-206 54h-506v-717h-94v1331h-516v90h1128v-90h-518v-524h516q360 0 360 -322v-542q0 -152 -77.5 -226.5t-214.5 -74.5h-160z" />
    <glyph glyph-name="uni0403" unicode="&#x403;" horiz-adv-x="1077" 
d="M1010 1421v-90h-711v-1331h-94v1421h805zM539 1608l260 286h110l-258 -286h-112z" />
    <glyph glyph-name="uni0404" unicode="&#x404;" horiz-adv-x="1431" 
d="M844 -16q-146 0 -276.5 52.5t-227.5 145.5t-154 230.5t-57 298.5q0 156 59 293t157.5 231t228 148.5t268.5 54.5q291 0 454 -168v-123q-181 199 -452 199q-154 0 -289 -72t-223.5 -205t-102.5 -301h793v-88h-795q6 -133 57.5 -246.5t134.5 -191.5t193.5 -122t231.5 -44
q79 0 152 18t129 48.5t97 62.5t74 69v-122q-67 -69 -178 -118.5t-274 -49.5z" />
    <glyph glyph-name="uni0405" unicode="&#x405;" horiz-adv-x="1191" 
d="M1008 1147q-159 201 -412 201q-91 0 -171 -31.5t-133.5 -97t-53.5 -152.5q0 -46 17 -84.5t40.5 -63.5t66.5 -49t78.5 -38t91.5 -33l160 -54q64 -22 107 -39.5t100 -50.5t91 -69t58.5 -92t24.5 -123q0 -177 -128.5 -282t-336.5 -105q-169 0 -290.5 50.5t-176.5 115.5v124
q70 -88 186.5 -144t278.5 -56q168 0 269.5 81t101.5 210q0 30 -6.5 57t-15.5 48t-27 41t-32.5 34t-41 29t-43.5 24t-49.5 21.5t-48.5 18t-51 17.5l-166 56q-62 21 -104 38t-94 47.5t-83.5 64.5t-53.5 85.5t-22 114.5q0 71 27 132.5t72 105.5t103.5 76t123 47.5t129.5 15.5
q140 0 250.5 -50t163.5 -116v-125z" />
    <glyph glyph-name="uni0406" unicode="&#x406;" horiz-adv-x="503" 
d="M299 1421v-1421h-94v1421h94z" />
    <glyph glyph-name="uni0407" unicode="&#x407;" horiz-adv-x="503" 
d="M299 1421v-1421h-94v1421h94zM-2 1751q0 29 21.5 50.5t52.5 21.5q30 0 50.5 -21t20.5 -51q0 -31 -20.5 -52.5t-50.5 -21.5q-31 0 -52.5 21.5t-21.5 52.5zM358 1751q0 29 21.5 50.5t52.5 21.5t52.5 -21.5t21.5 -50.5q0 -31 -21.5 -52.5t-52.5 -21.5t-52.5 21.5t-21.5 52.5
z" />
    <glyph glyph-name="uni0408" unicode="&#x408;" horiz-adv-x="716" 
d="M426 1421h94v-1120q0 -152 -78 -226.5t-215 -74.5h-159v90h151q101 0 154 50t53 167v1114z" />
    <glyph glyph-name="uni0409" unicode="&#x409;" horiz-adv-x="2080" 
d="M98 0h-67v90h59q53 0 93 15t73 50.5t50.5 102t17.5 162.5l2 1001h864v-600h326q214 0 339 -110t125 -299q0 -192 -124.5 -302t-339.5 -110h-420v1331h-682v-911q0 -420 -316 -420zM1190 90h321q179 0 276 87t97 235q0 146 -97 232.5t-276 86.5h-321v-641z" />
    <glyph glyph-name="uni040A" unicode="&#x40a;" horiz-adv-x="2140" 
d="M299 0h-94v1421h94v-616h858v616h94v-616h312q221 0 350 -107t129 -290q0 -186 -129 -297t-350 -111h-406v715h-858v-715zM1251 90h312q183 0 282 88.5t99 229.5q0 138 -98.5 222.5t-282.5 84.5h-312v-625z" />
    <glyph glyph-name="uni040B" unicode="&#x40b;" horiz-adv-x="1701" 
d="M1460 479q0 130 -70 184t-206 54h-506v-717h-94v1331h-516v90h1128v-90h-518v-524h516q360 0 360 -322v-485h-94v479z" />
    <glyph glyph-name="uni040C" unicode="&#x40c;" horiz-adv-x="1251" 
d="M1034 1421h127l-727 -673l772 -748h-133l-774 743zM205 0v1421h94v-1421h-94zM555 1608l260 286h111l-258 -286h-113z" />
    <glyph glyph-name="uni040D" unicode="&#x40d;" horiz-adv-x="1509" 
d="M299 1421v-1194l1006 1211v-1438h-95v1196l-1005 -1212v1437h94zM508 1894h110l261 -286h-113z" />
    <glyph glyph-name="uni040E" unicode="&#x40e;" horiz-adv-x="1294" 
d="M285 0v90h102q92 0 147.5 44.5t96.5 135.5l20 45l-592 1106h107l532 -999l432 999h105l-510 -1165q-59 -136 -133 -196t-197 -60h-110zM379 1849h84q0 -74 51.5 -126t128.5 -52q79 0 130.5 51.5t51.5 126.5h82q0 -114 -75 -186t-189 -72q-112 0 -188 72t-76 186z" />
    <glyph glyph-name="uni040F" unicode="&#x40f;" horiz-adv-x="1505" 
d="M299 1421v-1331h907v1331h94v-1421h-501v-315h-90v315h-504v1421h94z" />
    <glyph glyph-name="uni0410" unicode="&#x410;" horiz-adv-x="1425" 
d="M59 0l654 1438l653 -1438h-104l-199 438h-703l-198 -438h-103zM401 528h621l-309 689z" />
    <glyph glyph-name="uni0411" unicode="&#x411;" horiz-adv-x="1212" 
d="M649 817q216 0 340.5 -105t124.5 -294q0 -190 -125.5 -304t-339.5 -114h-444v1421h807v-90h-713v-514h350zM299 90h340q178 0 277.5 88t99.5 240q0 150 -98.5 229.5t-278.5 79.5h-340v-637z" />
    <glyph glyph-name="uni0412" unicode="&#x412;" horiz-adv-x="1245" 
d="M205 0v1421h422q196 0 314 -93t118 -259q0 -127 -70 -206t-174 -107q44 -6 86.5 -21t85.5 -43.5t75 -67.5t52.5 -96.5t20.5 -126.5q0 -188 -130 -294.5t-339 -106.5h-461zM299 90h365q165 0 268.5 82.5t103.5 228.5q0 147 -102 223t-270 76h-365v-610zM299 788h324
q160 0 249 72.5t89 202.5q0 126 -90.5 197t-249.5 71h-322v-543z" />
    <glyph glyph-name="uni0413" unicode="&#x413;" horiz-adv-x="1077" 
d="M1010 1421v-90h-711v-1331h-94v1421h805z" />
    <glyph glyph-name="uni0414" unicode="&#x414;" horiz-adv-x="1458" 
d="M1370 90v-383h-90v293h-1174v-293h-90v383h131q59 45 95.5 109t58 182.5t21.5 294.5v745h866v-1331h182zM262 90h832v1241h-684v-678q0 -437 -148 -563z" />
    <glyph glyph-name="uni0415" unicode="&#x415;" horiz-adv-x="1150" 
d="M205 0v1421h809v-90h-715v-563h678v-88h-678v-590h715v-90h-809z" />
    <glyph glyph-name="uni0416" unicode="&#x416;" horiz-adv-x="1820" 
d="M864 741l-694 -741h-125l690 748l-653 673h121zM864 0v1421h94v-1421h-94zM958 741l660 680h121l-654 -673l691 -748h-123z" />
    <glyph glyph-name="uni0417" unicode="&#x417;" horiz-adv-x="1200" 
d="M737 752q44 -4 89.5 -19t91.5 -44t82 -68t58.5 -97.5t22.5 -126.5q0 -178 -142 -295.5t-353 -117.5q-164 0 -284 50.5t-175 115.5v124q66 -84 180 -142t277 -58q172 0 285.5 91t113.5 234q0 79 -34.5 138t-96 94t-138.5 52t-169 17h-185v88h175q175 0 281 79.5t106 211.5
q0 123 -92.5 196t-243.5 73q-136 0 -249 -56t-183 -145v125q50 63 173.5 114.5t260.5 51.5q194 0 314 -97t120 -258q0 -71 -26.5 -130.5t-70 -98.5t-90.5 -64t-98 -38z" />
    <glyph glyph-name="uni0418" unicode="&#x418;" horiz-adv-x="1509" 
d="M299 1421v-1194l1006 1211v-1438h-95v1196l-1005 -1212v1437h94z" />
    <glyph glyph-name="uni0419" unicode="&#x419;" horiz-adv-x="1509" 
d="M299 1421v-1194l1006 1211v-1438h-95v1196l-1005 -1212v1437h94zM504 1849h84q0 -74 51.5 -126t128.5 -52q78 0 130 51.5t52 126.5h82q0 -114 -75 -186t-189 -72q-112 0 -188 72t-76 186z" />
    <glyph glyph-name="uni041A" unicode="&#x41a;" horiz-adv-x="1251" 
d="M1034 1421h127l-727 -673l772 -748h-133l-774 743zM205 0v1421h94v-1421h-94z" />
    <glyph glyph-name="uni041B" unicode="&#x41b;" horiz-adv-x="1394" 
d="M98 0h-67v90h59q53 0 93 15t73 50.5t50.5 102t17.5 162.5l2 1001h864v-1421h-94v1331h-682v-911q0 -420 -316 -420z" />
    <glyph glyph-name="uni041C" unicode="&#x41c;" horiz-adv-x="1742" 
d="M205 0v1438l672 -781l661 781v-1438h-94v1192l-570 -676l-575 674v-1190h-94z" />
    <glyph glyph-name="uni041D" unicode="&#x41d;" horiz-adv-x="1509" 
d="M1210 1421h95v-1421h-95v696h-911v-696h-94v1421h94v-635h911v635z" />
    <glyph glyph-name="uni041E" unicode="&#x41e;" horiz-adv-x="1650" 
d="M825 76q121 0 230.5 46.5t191 128.5t129 201.5t47.5 258.5t-47.5 258.5t-129 201.5t-191 128.5t-230.5 46.5t-230.5 -46.5t-191 -128.5t-129 -201.5t-47.5 -258.5t47.5 -258.5t129 -201.5t191 -128.5t230.5 -46.5zM129 711q0 157 55.5 293.5t149.5 231t221.5 148.5
t269.5 54q141 0 268.5 -54t222 -148.5t150.5 -231t56 -293.5t-56 -293.5t-150.5 -231t-222 -148.5t-268.5 -54q-142 0 -269.5 54t-221.5 148.5t-149.5 231t-55.5 293.5z" />
    <glyph glyph-name="uni041F" unicode="&#x41f;" horiz-adv-x="1509" 
d="M1305 1421v-1421h-95v1331h-911v-1331h-94v1421h1100z" />
    <glyph glyph-name="uni0420" unicode="&#x420;" horiz-adv-x="1179" 
d="M610 692q179 0 276 87t97 235q0 146 -97 231.5t-276 85.5h-311v-639h311zM205 0v1421h409q217 0 341 -108.5t124 -298.5q0 -191 -125.5 -301.5t-339.5 -110.5h-315v-602h-94z" />
    <glyph glyph-name="uni0421" unicode="&#x421;" horiz-adv-x="1431" 
d="M1296 1147q-181 199 -448 199q-122 0 -235.5 -48t-198.5 -130.5t-136 -202t-51 -254.5q0 -181 84.5 -327.5t226.5 -227t310 -80.5q149 0 261 58t187 140v-122q-163 -168 -448 -168q-147 0 -279 53t-229 147t-154 231t-57 296q0 123 38 236.5t106 201.5t157 153.5
t196 100.5t218 35q289 0 452 -168v-123z" />
    <glyph glyph-name="uni0422" unicode="&#x422;" horiz-adv-x="1265" 
d="M68 1331v90h1130v-90h-518v-1331h-96v1331h-516z" />
    <glyph glyph-name="uni0423" unicode="&#x423;" horiz-adv-x="1294" 
d="M285 0v90h102q92 0 147.5 44.5t96.5 135.5l20 45l-592 1106h107l532 -999l432 999h105l-510 -1165q-59 -136 -133 -196t-197 -60h-110z" />
    <glyph glyph-name="uni0424" unicode="&#x424;" horiz-adv-x="1744" 
d="M750 115q-85 0 -171.5 23t-169.5 73t-147.5 120t-103.5 172t-39 222q0 121 39 223.5t103.5 173t147.5 120t169.5 72.5t171.5 23h77v187h93v-187h75q86 0 173 -23t169.5 -72.5t146.5 -120t103 -173t39 -223.5q0 -120 -39 -222t-103 -172t-146.5 -120t-169.5 -73t-173 -23
h-75v-183h-93v183h-77zM217 725q0 -107 34.5 -196.5t90 -148t126.5 -100t142.5 -59.5t139.5 -18h77v1046h-77q-68 0 -139.5 -18t-142.5 -59.5t-126.5 -100.5t-90 -149t-34.5 -197zM920 203h75q69 0 140.5 18t143 59.5t127 100t90 148t34.5 196.5t-34.5 197t-90 149
t-127 100.5t-143 59.5t-140.5 18h-75v-1046z" />
    <glyph glyph-name="uni0425" unicode="&#x425;" horiz-adv-x="1361" 
d="M188 1421l494 -628l492 628h118l-549 -698l557 -723h-118l-502 653l-500 -653h-119l555 725l-544 696h116z" />
    <glyph glyph-name="uni0426" unicode="&#x426;" horiz-adv-x="1552" 
d="M1462 90v-383h-90v293h-1167v1421h94v-1331h889v1331h94v-1331h180z" />
    <glyph glyph-name="uni0427" unicode="&#x427;" horiz-adv-x="1343" 
d="M1044 1421h95v-1421h-95v629h-536q-172 0 -265 75t-93 244v473h94v-465q0 -130 69.5 -183.5t204.5 -53.5h526v702z" />
    <glyph glyph-name="uni0428" unicode="&#x428;" horiz-adv-x="1996" 
d="M205 0v1421h94v-1331h651v1331h94v-1331h654v1331h94v-1421h-1587z" />
    <glyph glyph-name="uni0429" unicode="&#x429;" horiz-adv-x="2062" 
d="M1974 90v-383h-90v293h-1679v1421h94v-1331h651v1331h94v-1331h654v1331h94v-1331h182z" />
    <glyph glyph-name="uni042A" unicode="&#x42a;" horiz-adv-x="1466" 
d="M68 1331v90h507v-600h326q214 0 339.5 -110t125.5 -299q0 -192 -124.5 -302t-340.5 -110h-420v1331h-413zM575 90h322q179 0 276 87t97 235q0 146 -97 232.5t-276 86.5h-322v-641z" />
    <glyph glyph-name="uni042B" unicode="&#x42b;" horiz-adv-x="1644" 
d="M1440 1421v-1421h-94v1421h94zM205 0v1421h94v-600h326q214 0 339.5 -110t125.5 -299q0 -192 -124.5 -302t-340.5 -110h-420zM299 90h322q179 0 275.5 87t96.5 235q0 146 -96.5 232.5t-275.5 86.5h-322v-641z" />
    <glyph glyph-name="uni042C" unicode="&#x42c;" horiz-adv-x="1189" 
d="M205 0v1421h94v-600h326q214 0 339.5 -110t125.5 -299q0 -192 -124.5 -302t-340.5 -110h-420zM299 90h322q179 0 275.5 87t96.5 235q0 146 -96.5 232.5t-275.5 86.5h-322v-641z" />
    <glyph glyph-name="uni042D" unicode="&#x42d;" horiz-adv-x="1431" 
d="M612 -16q-163 0 -288 51.5t-187 116.5v122q67 -79 194.5 -138.5t280.5 -59.5q254 0 418.5 164t173.5 440h-794v88h792q-12 174 -93 306.5t-210.5 202t-286.5 69.5q-154 0 -279 -59.5t-196 -139.5v123q67 65 191 116.5t288 51.5q141 0 267 -52.5t219 -145.5t147 -230.5
t54 -298.5q0 -167 -52 -305t-144 -230t-219 -142t-276 -50z" />
    <glyph glyph-name="uni042E" unicode="&#x42e;" horiz-adv-x="2103" 
d="M299 0h-94v1421h94v-651h287q10 145 68.5 270.5t150.5 212t214.5 136t256.5 49.5q142 0 269.5 -54t221.5 -148.5t149.5 -231t55.5 -293.5t-55.5 -293.5t-149.5 -231t-221.5 -148.5t-269.5 -54q-139 0 -263.5 51.5t-217.5 141.5t-149.5 221t-61.5 282h-285v-680zM678 711
q0 -139 48 -258.5t129.5 -201.5t190.5 -128.5t230 -46.5q122 0 231.5 46.5t191 128.5t129.5 201.5t48 258.5t-48 258.5t-129.5 201.5t-191 128.5t-231.5 46.5q-121 0 -230 -46.5t-190.5 -128.5t-129.5 -201.5t-48 -258.5z" />
    <glyph glyph-name="uni042F" unicode="&#x42f;" horiz-adv-x="1263" 
d="M965 0v588h-363h-2l-410 -588h-112l418 600q-145 33 -243.5 140.5t-98.5 267.5q0 191 127 302t340 111h438v-1421h-94zM250 1008q0 -149 106.5 -239.5t251.5 -90.5h357v653h-338q-181 0 -279 -87.5t-98 -235.5z" />
    <glyph glyph-name="uni0430" unicode="&#x430;" horiz-adv-x="1095" 
d="M182 928q45 48 148 88.5t207 40.5q182 0 287.5 -101.5t105.5 -285.5v-670h-92v217q-35 -93 -141.5 -163t-241.5 -70q-148 0 -249.5 78.5t-101.5 220.5q0 87 50.5 153t125 101.5t169.5 52.5l389 65v19q0 139 -83 215t-218 76q-101 0 -198.5 -43.5t-156.5 -108.5v115z
M201 285q0 -102 78.5 -157.5t191.5 -55.5q87 0 172 42t140 113t55 148v196l-367 -63q-118 -20 -194 -76.5t-76 -146.5z" />
    <glyph glyph-name="uni0431" unicode="&#x431;" horiz-adv-x="1292" 
d="M662 -16q-114 0 -211 40.5t-168 115.5t-111.5 188.5t-40.5 253.5q0 156 16 273t52.5 213.5t97.5 163.5t149.5 114t210.5 73q163 33 259.5 59.5t183.5 67.5v-98q-83 -38 -171 -61t-251 -56q-105 -21 -181.5 -59.5t-124.5 -87.5t-78 -121t-43 -148.5t-18 -181.5
q10 47 45 96t90 93t138 72t176 28q96 0 184.5 -34t158.5 -96.5t111.5 -160.5t41.5 -217q0 -159 -70 -281t-186.5 -185.5t-259.5 -63.5zM236 520q0 -195 122.5 -319.5t300.5 -124.5q179 0 300.5 120t121.5 314q0 99 -34.5 180.5t-92.5 134t-133 81t-159 28.5
q-180 0 -303 -115.5t-123 -298.5z" />
    <glyph glyph-name="uni0432" unicode="&#x432;" horiz-adv-x="1046" 
d="M176 0v1038h361q157 0 244 -71.5t87 -190.5q0 -89 -46.5 -148t-116.5 -79q39 -5 78.5 -22.5t76 -47.5t59.5 -79.5t23 -110.5q0 -135 -93.5 -212t-260.5 -77h-412zM270 88h318q118 0 188 51.5t70 151.5t-70 150.5t-190 50.5h-316v-404zM270 578h273q110 0 170.5 50.5
t60.5 135.5q0 89 -64.5 137.5t-177.5 48.5h-262v-372z" />
    <glyph glyph-name="uni0433" unicode="&#x433;" horiz-adv-x="894" 
d="M836 1038v-88h-566v-950h-94v1038h660z" />
    <glyph glyph-name="uni0434" unicode="&#x434;" horiz-adv-x="1214" 
d="M1139 90v-371h-90v281h-936v-281h-88v371h116q150 110 150 430v518h686v-948h162zM252 90h633v860h-506v-448q0 -290 -127 -412z" />
    <glyph glyph-name="uni0435" unicode="&#x435;" horiz-adv-x="1189" 
d="M659 -16q-86 0 -166 22.5t-148.5 68t-120 109.5t-80.5 152.5t-29 191.5q0 151 67 273t181 189t251 67q198 0 329.5 -140.5t131.5 -351.5v-63h-862q6 -197 135.5 -312.5t310.5 -115.5q73 0 138 17.5t111.5 47.5t78 59.5t53.5 61.5v-121q-49 -63 -144 -109t-237 -46z
M215 586h764q-6 166 -109.5 274.5t-257.5 108.5q-84 0 -158 -33t-124.5 -87.5t-80.5 -122.5t-34 -140z" />
    <glyph glyph-name="uni0436" unicode="&#x436;" horiz-adv-x="1427" 
d="M668 0v1038h92v-1038h-92zM39 0l502 549l-484 489h119l492 -489l-506 -549h-123zM760 549l491 489h119l-483 -489l502 -549h-123z" />
    <glyph glyph-name="uni0437" unicode="&#x437;" horiz-adv-x="978" 
d="M614 547q46 -6 89.5 -24.5t83 -49t63.5 -78.5t24 -106q0 -76 -34 -136t-91 -96t-128 -54.5t-150 -18.5q-125 0 -223 37t-146 94v112q56 -71 153.5 -113t211.5 -42q83 0 151 21.5t114 71.5t46 122q0 102 -89.5 154.5t-235.5 52.5h-170v86h168q124 0 200 53t76 147
q0 88 -71 138.5t-193 50.5q-101 0 -197.5 -42t-152.5 -114v115q46 54 144.5 91.5t209.5 37.5q161 0 258.5 -74.5t97.5 -196.5q0 -100 -62 -162t-147 -77z" />
    <glyph glyph-name="uni0438" unicode="&#x438;" horiz-adv-x="1200" 
d="M176 -16v1054h94v-829l754 848v-1057h-92v834z" />
    <glyph glyph-name="uni0439" unicode="&#x439;" horiz-adv-x="1200" 
d="M422 1466q0 -74 51.5 -126t128.5 -52q78 0 130 52t52 126h82q0 -114 -75 -186t-189 -72q-112 0 -188 72t-76 186h84zM176 1038h94v-829l754 848v-1057h-92v834l-756 -850v1054z" />
    <glyph glyph-name="uni043A" unicode="&#x43a;" horiz-adv-x="1003" 
d="M270 1038v-485l545 485h123l-539 -483l576 -555h-127l-578 549v-549h-94v1038h94z" />
    <glyph glyph-name="uni043B" unicode="&#x43b;" horiz-adv-x="1148" 
d="M973 1038v-1038h-92v950h-506v-604q0 -166 -71.5 -256t-209.5 -90h-67v90h59q111 0 156 72t45 205v671h686z" />
    <glyph glyph-name="uni043C" unicode="&#x43c;" horiz-adv-x="1398" 
d="M176 1057l524 -565l523 565v-1057h-95v831l-430 -466l-428 464v-829h-94v1057z" />
    <glyph glyph-name="uni043D" unicode="&#x43d;" horiz-adv-x="1189" 
d="M920 1038h94v-1038h-94v487h-650v-487h-94v1038h94v-460h650v460z" />
    <glyph glyph-name="uni043E" unicode="&#x43e;" horiz-adv-x="1267" 
d="M635 -14q-101 0 -195 39t-166 107t-115.5 170t-43.5 220q0 156 74 280t192 189.5t254 65.5t253.5 -65.5t191 -189.5t73.5 -280q0 -118 -43 -220t-114.5 -170t-165.5 -107t-195 -39zM211 522q0 -98 35 -182.5t93.5 -141.5t135.5 -89.5t160 -32.5t160 32.5t135 89.5
t92.5 141.5t34.5 182.5q0 194 -125 319.5t-297 125.5q-83 0 -160 -32.5t-135.5 -89.5t-93.5 -141.5t-35 -181.5z" />
    <glyph glyph-name="uni043F" unicode="&#x43f;" horiz-adv-x="1189" 
d="M1014 1038v-1038h-94v950h-650v-950h-94v1038h838z" />
    <glyph glyph-name="uni0440" unicode="&#x440;" horiz-adv-x="1308" 
d="M270 1038v-270q48 128 165 208.5t265 80.5q93 0 180.5 -35.5t158 -101t113 -169t42.5 -229.5q0 -127 -42.5 -231t-113 -170t-158 -101.5t-180.5 -35.5q-148 0 -265 81t-165 211v-718h-94v1480h94zM270 522q0 -103 35 -189t94 -141.5t133 -86.5t154 -31q76 0 148 28.5
t131 82.5t95 141.5t36 195.5q0 107 -36 194t-95 140.5t-131 82t-148 28.5q-80 0 -154 -30.5t-133 -86t-94 -141t-35 -187.5z" />
    <glyph glyph-name="uni0441" unicode="&#x441;" horiz-adv-x="1097" 
d="M997 799q-50 69 -141 117.5t-205 48.5q-183 0 -311.5 -123.5t-128.5 -321.5t128.5 -321t311.5 -123q114 0 205 48.5t141 117.5v-123q-48 -57 -138 -96t-208 -39q-144 0 -265.5 65.5t-196 189.5t-74.5 281t74.5 281.5t196 190t265.5 65.5q118 0 208 -39t138 -96v-123z" />
    <glyph glyph-name="uni0442" unicode="&#x442;" horiz-adv-x="1003" 
d="M59 950v88h885v-88h-395v-950h-94v950h-396z" />
    <glyph glyph-name="uni0443" unicode="&#x443;" horiz-adv-x="1087" 
d="M496 -238q-43 -103 -110.5 -153.5t-180.5 -50.5h-127v90h125q78 0 123.5 34t76.5 105l99 227l-455 1024h105l401 -907l383 907h104z" />
    <glyph glyph-name="uni0444" unicode="&#x444;" horiz-adv-x="1531" 
d="M655 -16q-75 0 -150 20.5t-145.5 65t-124.5 106t-87 151t-33 193.5t32.5 193.5t87 151.5t125 106t145.5 65t150 21h62v450h94v-450h63q95 0 188.5 -34t173.5 -98.5t129.5 -170t49.5 -234.5q0 -104 -32.5 -193.5t-87 -151t-125 -106t-146 -65t-150.5 -20.5h-63v-426h-94
v426h-62zM211 520q0 -109 41 -197.5t107 -141.5t142.5 -81t153.5 -28h62v897h-62q-61 0 -122.5 -17t-119.5 -53.5t-103 -88t-72 -127t-27 -163.5zM811 72h63q61 0 122.5 17t120 53.5t103.5 88t72 126.5t27 163t-27 163.5t-72 127t-103.5 88t-120 53.5t-122.5 17h-63v-897z
" />
    <glyph glyph-name="uni0445" unicode="&#x445;" horiz-adv-x="1064" 
d="M178 1038l357 -434l352 434h114l-405 -503l418 -535h-115l-367 467l-368 -467h-113l418 537l-406 501h115z" />
    <glyph glyph-name="uni0446" unicode="&#x446;" horiz-adv-x="1245" 
d="M1171 90v-371h-90v281h-905v1038h94v-948h645v948h95v-948h161z" />
    <glyph glyph-name="uni0447" unicode="&#x447;" horiz-adv-x="1085" 
d="M815 1038h94v-1038h-94v449h-356q-340 0 -340 288v301h94v-290q0 -117 67.5 -164t188.5 -47h346v501z" />
    <glyph glyph-name="uni0448" unicode="&#x448;" horiz-adv-x="1654" 
d="M176 0v1038h94v-948h512v948h92v-948h512v948h93v-1038h-1303z" />
    <glyph glyph-name="uni0449" unicode="&#x449;" horiz-adv-x="1716" 
d="M1640 90v-371h-90v281h-1374v1038h94v-948h512v948h92v-948h512v948h93v-948h161z" />
    <glyph glyph-name="uni044A" unicode="&#x44a;" horiz-adv-x="1220" 
d="M752 655q174 0 278.5 -85t104.5 -240q0 -152 -104.5 -241t-278.5 -89h-346v950h-347v88h441v-383h252zM500 90h245q142 0 217.5 65.5t75.5 172.5q0 113 -78 176t-215 63h-245v-477z" />
    <glyph glyph-name="uni044B" unicode="&#x44b;" horiz-adv-x="1378" 
d="M1202 1038v-1038h-92v1038h92zM176 0v1038h94v-383h252q174 0 278.5 -85t104.5 -240q0 -152 -104 -241t-279 -89h-346zM270 90h246q142 0 217.5 65.5t75.5 172.5q0 113 -78.5 176t-214.5 63h-246v-477z" />
    <glyph glyph-name="uni044C" unicode="&#x44c;" horiz-adv-x="991" 
d="M522 655q174 0 278.5 -85t104.5 -240q0 -152 -104 -241t-279 -89h-346v1038h94v-383h252zM270 90h246q142 0 217.5 65.5t75.5 172.5q0 113 -78.5 176t-214.5 63h-246v-477z" />
    <glyph glyph-name="uni044D" unicode="&#x44d;" horiz-adv-x="1097" 
d="M467 -16q-119 0 -219 40t-146 95v119q46 -66 145 -114t216 -48q179 0 297 108.5t127 307.5h-590v88h588q-18 185 -134 285t-288 100q-116 0 -216 -48.5t-145 -113.5v119q44 55 145 95t220 40q145 0 261 -61.5t185.5 -185t69.5 -290.5q0 -126 -40 -228.5t-110.5 -169
t-164 -102.5t-201.5 -36z" />
    <glyph glyph-name="uni044E" unicode="&#x44e;" horiz-adv-x="1648" 
d="M1020 -16q-130 0 -243 61.5t-185.5 178t-81.5 263.5h-240v-487h-94v1038h94v-460h242q20 213 166.5 346t341.5 133q136 0 252.5 -65.5t189 -189.5t72.5 -280q0 -118 -42.5 -220t-113.5 -171t-164 -108t-194 -39zM604 522q0 -98 34 -182.5t91 -141.5t132.5 -89.5
t158.5 -32.5q172 0 295 125t123 321q0 194 -123 318.5t-295 124.5q-171 0 -293.5 -124.5t-122.5 -318.5z" />
    <glyph glyph-name="uni044F" unicode="&#x44f;" horiz-adv-x="1067" 
d="M74 0l332 401q-126 26 -199.5 111.5t-73.5 202.5q0 145 105 234t288 89h365v-1038h-94v391h-285l-322 -391h-116zM229 717q0 -104 77.5 -172t213.5 -68h277v473h-262q-144 0 -225 -63.5t-81 -169.5z" />
    <glyph glyph-name="uni0450" unicode="&#x450;" horiz-adv-x="1189" 
d="M659 -16q-86 0 -166 22.5t-148.5 68t-120 109.5t-80.5 152.5t-29 191.5q0 151 67 273t181 189t251 67q198 0 329.5 -140.5t131.5 -351.5v-63h-862q6 -197 135.5 -312.5t310.5 -115.5q73 0 138 17.5t111.5 47.5t78 59.5t53.5 61.5v-121q-49 -63 -144 -109t-237 -46z
M215 586h764q-6 166 -109.5 274.5t-257.5 108.5q-84 0 -158 -33t-124.5 -87.5t-80.5 -122.5t-34 -140zM352 1511h111l260 -286h-113z" />
    <glyph glyph-name="uni0451" unicode="&#x451;" horiz-adv-x="1189" 
d="M659 -16q-86 0 -166 22.5t-148.5 68t-120 109.5t-80.5 152.5t-29 191.5q0 151 67 273t181 189t251 67q198 0 329.5 -140.5t131.5 -351.5v-63h-862q6 -197 135.5 -312.5t310.5 -115.5q73 0 138 17.5t111.5 47.5t78 59.5t53.5 61.5v-121q-49 -63 -144 -109t-237 -46z
M215 586h764q-6 166 -109.5 274.5t-257.5 108.5q-84 0 -158 -33t-124.5 -87.5t-80.5 -122.5t-34 -140zM358 1368q0 29 21.5 50.5t52.5 21.5q30 0 51 -21t21 -51q0 -31 -20.5 -52.5t-51.5 -21.5t-52.5 21.5t-21.5 52.5zM719 1368q0 29 21.5 50.5t52.5 21.5t52 -21t21 -51
q0 -31 -21 -52.5t-52 -21.5t-52.5 21.5t-21.5 52.5z" />
    <glyph glyph-name="uni0452" unicode="&#x452;" horiz-adv-x="1208" 
d="M270 1534v-172h310v-84h-310v-461q34 99 138 169.5t237 70.5q81 0 152 -26.5t126 -78t87 -134.5t32 -187v-821q0 -120 -67.5 -186t-183.5 -66h-144v90h137q76 0 120 41t44 127v794q0 173 -92 265t-231 92q-141 0 -248 -100.5t-107 -245.5v-621h-94v1278h-172v84h172v172
h94z" />
    <glyph glyph-name="uni0453" unicode="&#x453;" horiz-adv-x="894" 
d="M836 1038v-88h-566v-950h-94v1038h660zM438 1225l260 286h111l-258 -286h-113z" />
    <glyph glyph-name="uni0454" unicode="&#x454;" horiz-adv-x="1097" 
d="M651 -16q-147 0 -268.5 65.5t-194.5 189t-73 281.5q0 119 42.5 220.5t115.5 170t171 107.5t207 39q118 0 208 -39t138 -96v-123q-50 69 -141 117.5t-205 48.5q-167 0 -291.5 -104.5t-144.5 -280.5h586v-88h-590q7 -127 70.5 -223t160 -144.5t209.5 -48.5q114 0 205 48.5
t141 117.5v-123q-48 -57 -138 -96t-208 -39z" />
    <glyph glyph-name="uni0455" unicode="&#x455;" horiz-adv-x="983" 
d="M819 813q-58 74 -145 116t-189 42q-110 0 -191 -51.5t-81 -139.5q0 -69 53 -106.5t156 -69.5l151 -49q37 -12 60 -20t58 -22.5t57 -28.5t48 -36t41 -46t25 -57t10 -71q0 -132 -103.5 -211t-272.5 -79q-125 0 -229.5 38t-147.5 93v112q58 -72 158 -114.5t217 -42.5
q129 0 205.5 53t76.5 143q0 35 -14 64t-34 48.5t-52.5 37t-58.5 27.5t-64 22l-162 49q-33 10 -53 17t-52.5 20.5t-53 26.5t-44.5 33t-38 42.5t-23.5 53.5t-9.5 67q0 124 110.5 203.5t257.5 79.5q107 0 198.5 -36.5t135.5 -92.5v-115z" />
    <glyph glyph-name="uni0456" unicode="&#x456;" horiz-adv-x="446" 
d="M270 1038v-1038h-94v1038h94zM150 1366q0 31 21 52.5t52 21.5t52.5 -21.5t21.5 -52.5q0 -29 -21.5 -50.5t-52.5 -21.5t-52 21t-21 51z" />
    <glyph glyph-name="uni0457" unicode="&#x457;" horiz-adv-x="446" 
d="M270 1038v-1038h-94v1038h94zM37 1366v4q0 27 19 46.5t46 19.5q29 0 49.5 -19.5t20.5 -46.5v-4q0 -28 -20.5 -48t-49.5 -20q-27 0 -46 20t-19 48zM274 1366v4q0 27 19.5 46.5t48.5 19.5t48.5 -19.5t19.5 -46.5v-4q0 -28 -19.5 -48t-48.5 -20t-48.5 20t-19.5 48z" />
    <glyph glyph-name="uni0458" unicode="&#x458;" horiz-adv-x="454" 
d="M184 1038h95v-1228q0 -120 -68 -186t-184 -66h-144v90h137q76 0 120 41t44 127v1222zM158 1366q0 31 21 52.5t52 21.5t52.5 -21.5t21.5 -52.5q0 -29 -21.5 -50.5t-52.5 -21.5t-52 21t-21 51z" />
    <glyph glyph-name="uni0459" unicode="&#x459;" horiz-adv-x="1693" 
d="M975 1038v-383h252q174 0 278.5 -85t104.5 -240q0 -152 -104 -241t-279 -89h-346v950h-506v-604q0 -166 -71.5 -256t-209.5 -90h-67v90h59q111 0 156 72t45 205v671h688zM975 90h246q142 0 217 65.5t75 172.5q0 113 -78 176t-214 63h-246v-477z" />
    <glyph glyph-name="uni045A" unicode="&#x45a;" horiz-adv-x="1712" 
d="M270 0h-94v1038h94v-428h631v428h96v-424h267q162 0 262 -80.5t100 -224.5q0 -142 -98.5 -225.5t-263.5 -83.5h-363v522h-631v-522zM997 90h267q128 0 197 60.5t69 156.5q0 102 -71 159.5t-195 57.5h-267v-434z" />
    <glyph glyph-name="uni045B" unicode="&#x45b;" horiz-adv-x="1208" 
d="M270 1534v-172h308v-84h-308v-461q34 99 138 169.5t237 70.5q81 0 152 -26.5t126 -78t87 -134.5t32 -187v-631h-94v610q0 173 -92 265t-231 92q-141 0 -248 -100.5t-107 -245.5v-621h-94v1278h-172v84h172v172h94z" />
    <glyph glyph-name="uni045C" unicode="&#x45c;" horiz-adv-x="1003" 
d="M270 1038v-485l545 485h123l-539 -483l576 -555h-127l-578 549v-549h-94v1038h94zM428 1225l260 286h111l-258 -286h-113z" />
    <glyph glyph-name="uni045D" unicode="&#x45d;" horiz-adv-x="1200" 
d="M340 1511h111l260 -286h-113zM176 1038h94v-829l754 848v-1057h-92v834l-756 -850v1054z" />
    <glyph glyph-name="uni045E" unicode="&#x45e;" horiz-adv-x="1087" 
d="M496 -238q-43 -103 -110.5 -153.5t-180.5 -50.5h-127v90h125q78 0 123.5 34t76.5 105l99 227l-455 1024h105l401 -907l383 907h104zM291 1466h84q0 -74 51.5 -126t128.5 -52q79 0 130.5 52t51.5 126h82q0 -114 -75 -186t-189 -72q-112 0 -188 72t-76 186z" />
    <glyph glyph-name="uni045F" unicode="&#x45f;" horiz-adv-x="1187" 
d="M270 1038v-948h650v948h92v-1038h-373v-305h-88v305h-375v1038h94z" />
    <glyph glyph-name="uni0490" unicode="&#x490;" horiz-adv-x="1075" 
d="M205 0v1421h713v316h90v-406h-709v-1331h-94z" />
    <glyph glyph-name="uni0491" unicode="&#x491;" horiz-adv-x="894" 
d="M176 0v1038h574v287h86v-375h-566v-950h-94z" />
    <glyph glyph-name="uni0492" unicode="&#x492;" horiz-adv-x="1105" 
d="M1038 1421v-90h-712v-583h409v-89h-409v-659h-95v659h-186v89h186v673h807z" />
    <glyph glyph-name="uni0493" unicode="&#x493;" horiz-adv-x="917" 
d="M199 0v475h-166v84h166v479h659v-88h-567v-391h364v-84h-364v-475h-92z" />
    <glyph glyph-name="uni0496" unicode="&#x496;" horiz-adv-x="1894" 
d="M1780 -293v293h-127l-695 741l660 680h121l-654 -673l607 -658h174v-383h-86zM45 0l690 748l-653 673h121l661 -680l-694 -741h-125zM864 0v1421h94v-1421h-94z" />
    <glyph glyph-name="uni0497" unicode="&#x497;" horiz-adv-x="1460" 
d="M1448 90v-371h-88v281h-100v6l-500 543l491 489h119l-483 -489l420 -459h141zM39 0l502 549l-484 489h119l492 -489l-506 -549h-123zM668 0v1038h92v-1038h-92z" />
    <glyph glyph-name="uni049A" unicode="&#x49a;" horiz-adv-x="1316" 
d="M1200 -293v293h-127l-774 743l735 678h127l-727 -673l680 -658h174v-383h-88zM205 0v1421h94v-1421h-94z" />
    <glyph glyph-name="uni049B" unicode="&#x49b;" horiz-adv-x="1052" 
d="M1042 90v-371h-88v281h-106l-578 549v-549h-94v1038h94v-485l545 485h123l-539 -483l482 -465h161z" />
    <glyph glyph-name="uni04A2" unicode="&#x4a2;" horiz-adv-x="1574" 
d="M1210 1421h95v-1331h180v-383h-90v293h-185v696h-911v-696h-94v1421h94v-635h911v635z" />
    <glyph glyph-name="uni04A3" unicode="&#x4a3;" horiz-adv-x="1249" 
d="M920 1038h94v-948h162v-371h-91v281h-165v487h-650v-487h-94v1038h94v-460h650v460z" />
    <glyph glyph-name="uni04A4" unicode="&#x4a4;" horiz-adv-x="2082" 
d="M1210 1421h805v-90h-710v-1331h-95v696h-911v-696h-94v1421h94v-635h911v635z" />
    <glyph glyph-name="uni04A5" unicode="&#x4a5;" horiz-adv-x="1638" 
d="M920 1038h659v-88h-565v-950h-94v487h-650v-487h-94v1038h94v-460h650v460z" />
    <glyph glyph-name="uni04AC" unicode="&#x4ac;" horiz-adv-x="1265" 
d="M68 1331v90h1130v-90h-518v-1241h180v-383h-90v293h-186v1331h-516z" />
    <glyph glyph-name="uni04AD" unicode="&#x4ad;" horiz-adv-x="1003" 
d="M59 950v88h885v-88h-395v-860h162v-371h-90v281h-166v950h-396z" />
    <glyph glyph-name="uni04AE" unicode="&#x4ae;" horiz-adv-x="1327" 
d="M39 1421h111l516 -729l512 729h110l-577 -829v-592h-95v596z" />
    <glyph glyph-name="uni04AF" unicode="&#x4af;" horiz-adv-x="1089" 
d="M147 1038l398 -897l395 897h102l-450 -1020v-460h-94v460l-451 1020h100z" />
    <glyph glyph-name="uni04B0" unicode="&#x4b0;" horiz-adv-x="1327" 
d="M293 637h295l-549 784h111l516 -729l512 729h110l-547 -784h297v-86h-327v-551h-95v551h-323v86z" />
    <glyph glyph-name="uni04B1" unicode="&#x4b1;" horiz-adv-x="1089" 
d="M147 1038l398 -897l395 897h102l-440 -995h256v-82h-266v-403h-94v403h-285v82h274l-440 995h100z" />
    <glyph glyph-name="uni04B2" unicode="&#x4b2;" horiz-adv-x="1425" 
d="M1309 -293v293h-127l-502 653l-500 -653h-119l555 725l-544 696h116l494 -628l492 628h118l-549 -698l488 -633h166v-383h-88z" />
    <glyph glyph-name="uni04B3" unicode="&#x4b3;" horiz-adv-x="1099" 
d="M1087 90v-371h-88v281h-100l-367 467l-368 -467h-113l418 537l-406 501h115l357 -434l352 434h114l-405 -503l348 -445h143z" />
    <glyph glyph-name="uni04B6" unicode="&#x4b6;" horiz-adv-x="1409" 
d="M1044 1421h95v-1331h180v-383h-90v293h-185v629h-536q-172 0 -265 75t-93 244v473h94v-465q0 -130 69.5 -183.5t204.5 -53.5h526v702z" />
    <glyph glyph-name="uni04B7" unicode="&#x4b7;" horiz-adv-x="1144" 
d="M815 1038h94v-948h162v-371h-90v281h-166v449h-356q-340 0 -340 288v301h94v-290q0 -117 67.5 -164t188.5 -47h346v501z" />
    <glyph glyph-name="uni04BA" unicode="&#x4ba;" horiz-adv-x="1343" 
d="M299 0h-94v1421h94v-608h537q172 0 265 -75t93 -244v-494h-94v485q0 130 -70 184t-205 54h-526v-723z" />
    <glyph glyph-name="uni04BB" unicode="&#x4bb;" horiz-adv-x="1208" 
d="M270 1534v-717q34 99 138 169.5t237 70.5q81 0 152 -26.5t126 -78t87 -134.5t32 -187v-631h-94v610q0 173 -92 265t-231 92q-141 0 -248 -100.5t-107 -245.5v-621h-94v1534h94z" />
    <glyph glyph-name="uni04C0" unicode="&#x4c0;" horiz-adv-x="503" 
d="M299 1421v-1421h-94v1421h94z" />
    <glyph glyph-name="uni04C1" unicode="&#x4c1;" horiz-adv-x="1820" 
d="M864 741l-694 -741h-125l690 748l-653 673h121zM647 1849h84q0 -74 51.5 -126t128.5 -52q79 0 131 52t52 126h82q0 -114 -75.5 -186t-189.5 -72q-112 0 -188 72t-76 186zM864 0v1421h94v-1421h-94zM958 741l660 680h121l-654 -673l691 -748h-123z" />
    <glyph glyph-name="uni04C2" unicode="&#x4c2;" horiz-adv-x="1427" 
d="M668 0v1038h92v-1038h-92zM39 0l502 549l-484 489h119l492 -489l-506 -549h-123zM451 1466h84q0 -74 51.5 -126t128.5 -52q79 0 130.5 52t51.5 126h82q0 -114 -75 -186t-189 -72q-112 0 -188 72t-76 186zM760 549l491 489h119l-483 -489l502 -549h-123z" />
    <glyph glyph-name="uni04CF" unicode="&#x4cf;" horiz-adv-x="446" 
d="M270 1534v-1534h-94v1534h94z" />
    <glyph glyph-name="uni04D0" unicode="&#x4d0;" horiz-adv-x="1425" 
d="M59 0l654 1438l653 -1438h-104l-199 438h-703l-198 -438h-103zM401 528h621l-309 689zM449 1878h83q0 -74 52 -126t129 -52q79 0 130.5 52t51.5 126h82q0 -114 -75 -186t-189 -72q-112 0 -188 72t-76 186z" />
    <glyph glyph-name="uni04D1" unicode="&#x4d1;" horiz-adv-x="1095" 
d="M182 928q45 48 148 88.5t207 40.5q182 0 287.5 -101.5t105.5 -285.5v-670h-92v217q-35 -93 -141.5 -163t-241.5 -70q-148 0 -249.5 78.5t-101.5 220.5q0 87 50.5 153t125 101.5t169.5 52.5l389 65v19q0 139 -83 215t-218 76q-101 0 -198.5 -43.5t-156.5 -108.5v115z
M201 285q0 -102 78.5 -157.5t191.5 -55.5q87 0 172 42t140 113t55 148v196l-367 -63q-118 -20 -194 -76.5t-76 -146.5zM287 1495h84q0 -74 51.5 -126t128.5 -52q79 0 130.5 51.5t51.5 126.5h82q0 -114 -75 -186t-189 -72q-112 0 -188 72t-76 186z" />
    <glyph glyph-name="uni04D2" unicode="&#x4d2;" horiz-adv-x="1425" 
d="M59 0l654 1438l653 -1438h-104l-199 438h-703l-198 -438h-103zM401 528h621l-309 689zM459 1751q0 29 21.5 50.5t51.5 21.5t51 -21t21 -51q0 -31 -20.5 -52.5t-51.5 -21.5t-52 21.5t-21 52.5zM819 1751q0 29 21.5 50.5t52.5 21.5t52.5 -21.5t21.5 -50.5
q0 -31 -21.5 -52.5t-52.5 -21.5t-52.5 21.5t-21.5 52.5z" />
    <glyph glyph-name="uni04D3" unicode="&#x4d3;" horiz-adv-x="1095" 
d="M182 928q45 48 148 88.5t207 40.5q182 0 287.5 -101.5t105.5 -285.5v-670h-92v217q-35 -93 -141.5 -163t-241.5 -70q-148 0 -249.5 78.5t-101.5 220.5q0 87 50.5 153t125 101.5t169.5 52.5l389 65v19q0 139 -83 215t-218 76q-101 0 -198.5 -43.5t-156.5 -108.5v115z
M201 285q0 -102 78.5 -157.5t191.5 -55.5q87 0 172 42t140 113t55 148v196l-367 -63q-118 -20 -194 -76.5t-76 -146.5zM297 1368q0 29 21.5 50.5t52.5 21.5q30 0 50.5 -21t20.5 -51q0 -31 -20.5 -52.5t-50.5 -21.5q-31 0 -52.5 21.5t-21.5 52.5zM657 1368q0 29 21.5 50.5
t52.5 21.5t52.5 -21.5t21.5 -50.5q0 -31 -21.5 -52.5t-52.5 -21.5t-52.5 21.5t-21.5 52.5z" />
    <glyph glyph-name="uni04D4" unicode="&#x4d4;" horiz-adv-x="2023" 
d="M51 0l1004 1421h831v-90h-688v-563h653v-88h-653v-590h688v-90h-782v520h-576l-366 -520h-111zM592 610h512v721h-2z" />
    <glyph glyph-name="uni04D5" unicode="&#x4d5;" horiz-adv-x="1878" 
d="M182 928q45 48 148 88.5t207 40.5q140 0 236.5 -64t133.5 -180q63 113 170.5 178.5t239.5 65.5q195 0 320.5 -133.5t125.5 -325.5v-53h-835q0 -113 35 -204t95 -148.5t137.5 -88t166.5 -30.5q237 0 367 186v-121q-121 -155 -367 -155q-167 0 -299.5 89t-190.5 246
q-15 -48 -36.5 -92t-58 -89.5t-82 -78.5t-110 -54t-139.5 -21q-138 0 -240 81.5t-102 217.5q0 87 50.5 152t125 99t169.5 50l389 57v33q0 139 -83 215t-218 76q-101 0 -198.5 -43.5t-156.5 -108.5v115zM201 283q0 -94 77 -152.5t179 -58.5q82 0 149 28.5t109 73t70.5 101.5
t40.5 111.5t12 105.5h2q0 1 -1 3t-1 3v34v0v0v25l-375 -55q-115 -19 -188.5 -74t-73.5 -145zM934 629h733q-6 143 -104.5 241.5t-247.5 98.5q-81 0 -151.5 -30.5t-118 -80.5t-76.5 -109.5t-35 -119.5z" />
    <glyph glyph-name="uni04D6" unicode="&#x4d6;" horiz-adv-x="1150" 
d="M442 1849q0 -74 52 -126t129 -52q79 0 130.5 51.5t51.5 126.5h82q0 -114 -75 -186t-189 -72q-112 0 -188.5 72t-76.5 186h84zM205 0v1421h809v-90h-715v-563h678v-88h-678v-590h715v-90h-809z" />
    <glyph glyph-name="uni04D7" unicode="&#x4d7;" horiz-adv-x="1189" 
d="M659 -16q-86 0 -166 22.5t-148.5 68t-120 109.5t-80.5 152.5t-29 191.5q0 151 67 273t181 189t251 67q198 0 329.5 -140.5t131.5 -351.5v-63h-862q6 -197 135.5 -312.5t310.5 -115.5q73 0 138 17.5t111.5 47.5t78 59.5t53.5 61.5v-121q-49 -63 -144 -109t-237 -46z
M215 586h764q-6 166 -109.5 274.5t-257.5 108.5q-84 0 -158 -33t-124.5 -87.5t-80.5 -122.5t-34 -140zM348 1466h84q0 -74 51.5 -126t128.5 -52q79 0 131 52t52 126h82q0 -114 -75.5 -186t-189.5 -72q-112 0 -188 72t-76 186z" />
    <glyph glyph-name="uni04D8" unicode="&#x4d8;" horiz-adv-x="1519" 
d="M764 -16q-128 0 -242 44.5t-202 126.5t-139.5 211t-51.5 287v95h1163q-9 185 -95 322.5t-222 206.5t-303 69q-160 0 -292.5 -61t-201.5 -138v123q63 65 193 116.5t307 51.5q147 0 277 -50.5t227 -142.5t153 -230t56 -304q0 -172 -52.5 -313t-140.5 -229.5t-200 -136.5
t-234 -48zM225 647q0 -131 43 -240.5t116.5 -181t171 -110.5t206.5 -39q100 0 191.5 38.5t164 110t119 183.5t53.5 249h-1065v-10z" />
    <glyph glyph-name="uni04D9" unicode="&#x4d9;" horiz-adv-x="1189" 
d="M551 1057q108 0 202.5 -34.5t166.5 -99.5t113.5 -167t41.5 -230q0 -152 -62.5 -276.5t-173 -195t-245.5 -70.5q-210 0 -344.5 143.5t-134.5 368.5v63h862q-2 99 -36.5 178t-93 128.5t-134 75.5t-162.5 26q-140 0 -246 -58t-155 -129v121q47 61 152.5 108.5t248.5 47.5z
M211 475q6 -181 112.5 -292t270.5 -111q84 0 156 36t119.5 94.5t75 129.5t30.5 143h-764z" />
    <glyph glyph-name="uni04DA" unicode="&#x4da;" horiz-adv-x="1519" 
d="M764 -16q-128 0 -242 44.5t-202 126.5t-139.5 211t-51.5 287v95h1163q-9 185 -95 322.5t-222 206.5t-303 69q-160 0 -292.5 -61t-201.5 -138v123q63 65 193 116.5t307 51.5q147 0 277 -50.5t227 -142.5t153 -230t56 -304q0 -172 -52.5 -313t-140.5 -229.5t-200 -136.5
t-234 -48zM225 647q0 -131 43 -240.5t116.5 -181t171 -110.5t206.5 -39q100 0 191.5 38.5t164 110t119 183.5t53.5 249h-1065v-10zM434 1751q0 29 21.5 50.5t52.5 21.5q30 0 51 -21t21 -51q0 -31 -20.5 -52.5t-51.5 -21.5t-52.5 21.5t-21.5 52.5zM795 1751q0 29 21.5 50.5
t51.5 21.5q31 0 52.5 -21.5t21.5 -50.5q0 -31 -21.5 -52.5t-52.5 -21.5t-52 21.5t-21 52.5z" />
    <glyph glyph-name="uni04DB" unicode="&#x4db;" horiz-adv-x="1189" 
d="M551 1057q108 0 202.5 -34.5t166.5 -99.5t113.5 -167t41.5 -230q0 -152 -62.5 -276.5t-173 -195t-245.5 -70.5q-210 0 -344.5 143.5t-134.5 368.5v63h862q-2 99 -36.5 178t-93 128.5t-134 75.5t-162.5 26q-140 0 -246 -58t-155 -129v121q47 61 152.5 108.5t248.5 47.5z
M211 475q6 -181 112.5 -292t270.5 -111q84 0 156 36t119.5 94.5t75 129.5t30.5 143h-764zM319 1368q0 29 21.5 50.5t52.5 21.5q30 0 51 -21t21 -51q0 -31 -20.5 -52.5t-51.5 -21.5t-52.5 21.5t-21.5 52.5zM680 1368q0 29 21.5 50.5t52.5 21.5q30 0 51.5 -21t21.5 -51
q0 -31 -21 -52.5t-52 -21.5t-52.5 21.5t-21.5 52.5z" />
    <glyph glyph-name="uni04DC" unicode="&#x4dc;" horiz-adv-x="1820" 
d="M864 741l-694 -741h-125l690 748l-653 673h121zM657 1751q0 29 21.5 50.5t52.5 21.5q30 0 51 -21t21 -51q0 -31 -20.5 -52.5t-51.5 -21.5t-52.5 21.5t-21.5 52.5zM864 0v1421h94v-1421h-94zM958 741l660 680h121l-654 -673l691 -748h-123zM1018 1751q0 29 21.5 50.5
t52.5 21.5q30 0 51.5 -21.5t21.5 -50.5q0 -31 -21 -52.5t-52 -21.5t-52.5 21.5t-21.5 52.5z" />
    <glyph glyph-name="uni04DD" unicode="&#x4dd;" horiz-adv-x="1427" 
d="M668 0v1038h92v-1038h-92zM39 0l502 549l-484 489h119l492 -489l-506 -549h-123zM461 1368q0 29 21.5 50.5t52.5 21.5q30 0 50.5 -21t20.5 -51q0 -31 -20.5 -52.5t-50.5 -21.5q-31 0 -52.5 21.5t-21.5 52.5zM760 549l491 489h119l-483 -489l502 -549h-123zM821 1368
q0 29 21.5 50.5t52.5 21.5t52.5 -21.5t21.5 -50.5q0 -31 -21.5 -52.5t-52.5 -21.5t-52.5 21.5t-21.5 52.5z" />
    <glyph glyph-name="uni04DE" unicode="&#x4de;" horiz-adv-x="1200" 
d="M737 752q44 -4 89.5 -19t91.5 -44t82 -68t58.5 -97.5t22.5 -126.5q0 -178 -142 -295.5t-353 -117.5q-164 0 -284 50.5t-175 115.5v124q66 -84 180 -142t277 -58q172 0 285.5 91t113.5 234q0 79 -34.5 138t-96 94t-138.5 52t-169 17h-185v88h175q175 0 281 79.5t106 211.5
q0 123 -92.5 196t-243.5 73q-136 0 -249 -56t-183 -145v125q50 63 173.5 114.5t260.5 51.5q194 0 314 -97t120 -258q0 -71 -26.5 -130.5t-70 -98.5t-90.5 -64t-98 -38zM330 1751q0 29 21 50.5t52 21.5q30 0 51 -21t21 -51q0 -31 -20.5 -52.5t-51.5 -21.5t-52 21.5t-21 52.5z
M690 1751q0 29 21.5 50.5t52.5 21.5t52.5 -21.5t21.5 -50.5q0 -31 -21.5 -52.5t-52.5 -21.5t-52.5 21.5t-21.5 52.5z" />
    <glyph glyph-name="uni04DF" unicode="&#x4df;" horiz-adv-x="978" 
d="M614 547q46 -6 89.5 -24.5t83 -49t63.5 -78.5t24 -106q0 -76 -34 -136t-91 -96t-128 -54.5t-150 -18.5q-125 0 -223 37t-146 94v112q56 -71 153.5 -113t211.5 -42q83 0 151 21.5t114 71.5t46 122q0 102 -89.5 154.5t-235.5 52.5h-170v86h168q124 0 200 53t76 147
q0 88 -71 138.5t-193 50.5q-101 0 -197.5 -42t-152.5 -114v115q46 54 144.5 91.5t209.5 37.5q161 0 258.5 -74.5t97.5 -196.5q0 -100 -62 -162t-147 -77zM213 1368q0 29 21.5 50.5t52.5 21.5q30 0 50.5 -21t20.5 -51q0 -31 -20.5 -52.5t-50.5 -21.5q-31 0 -52.5 21.5
t-21.5 52.5zM573 1368q0 29 21.5 50.5t52.5 21.5t52.5 -21.5t21.5 -50.5q0 -31 -21.5 -52.5t-52.5 -21.5t-52.5 21.5t-21.5 52.5z" />
    <glyph glyph-name="uni04E2" unicode="&#x4e2;" horiz-adv-x="1509" 
d="M299 1421v-1194l1006 1211v-1438h-95v1196l-1005 -1212v1437h94zM528 1708v84h480v-84h-480z" />
    <glyph glyph-name="uni04E3" unicode="&#x4e3;" horiz-adv-x="1200" 
d="M362 1409h480v-84h-480v84zM176 1038h94v-829l754 848v-1057h-92v834l-756 -850v1054z" />
    <glyph glyph-name="uni04E4" unicode="&#x4e4;" horiz-adv-x="1509" 
d="M299 1421v-1194l1006 1211v-1438h-95v1196l-1005 -1212v1437h94zM514 1751q0 29 21.5 50.5t52.5 21.5q30 0 50.5 -21t20.5 -51q0 -31 -20.5 -52.5t-50.5 -21.5q-31 0 -52.5 21.5t-21.5 52.5zM874 1751q0 29 21.5 50.5t52.5 21.5t52.5 -21.5t21.5 -50.5q0 -31 -21.5 -52.5
t-52.5 -21.5t-52.5 21.5t-21.5 52.5z" />
    <glyph glyph-name="uni04E5" unicode="&#x4e5;" horiz-adv-x="1200" 
d="M422 1440q30 0 51 -21t21 -51q0 -31 -20.5 -52.5t-51.5 -21.5t-52.5 21.5t-21.5 52.5q0 29 21.5 50.5t52.5 21.5zM176 1038h94v-829l754 848v-1057h-92v834l-756 -850v1054zM709 1368q0 30 21.5 51t51.5 21q31 0 52.5 -21.5t21.5 -50.5q0 -31 -21.5 -52.5t-52.5 -21.5
t-52 21.5t-21 52.5z" />
    <glyph glyph-name="uni04E6" unicode="&#x4e6;" horiz-adv-x="1650" 
d="M825 76q121 0 230.5 46.5t191 128.5t129 201.5t47.5 258.5t-47.5 258.5t-129 201.5t-191 128.5t-230.5 46.5t-230.5 -46.5t-191 -128.5t-129 -201.5t-47.5 -258.5t47.5 -258.5t129 -201.5t191 -128.5t230.5 -46.5zM129 711q0 157 55.5 293.5t149.5 231t221.5 148.5
t269.5 54q141 0 268.5 -54t222 -148.5t150.5 -231t56 -293.5t-56 -293.5t-150.5 -231t-222 -148.5t-268.5 -54q-142 0 -269.5 54t-221.5 148.5t-149.5 231t-55.5 293.5zM571 1751q0 29 21.5 50.5t52.5 21.5q30 0 51 -21t21 -51q0 -31 -20.5 -52.5t-51.5 -21.5t-52.5 21.5
t-21.5 52.5zM932 1751q0 29 21.5 50.5t52.5 21.5q30 0 51.5 -21.5t21.5 -50.5q0 -31 -21 -52.5t-52 -21.5t-52.5 21.5t-21.5 52.5z" />
    <glyph glyph-name="uni04E7" unicode="&#x4e7;" horiz-adv-x="1267" 
d="M635 -14q-101 0 -195 39t-166 107t-115.5 170t-43.5 220q0 156 74 280t192 189.5t254 65.5t253.5 -65.5t191 -189.5t73.5 -280q0 -118 -43 -220t-114.5 -170t-165.5 -107t-195 -39zM211 522q0 -98 35 -182.5t93.5 -141.5t135.5 -89.5t160 -32.5t160 32.5t135 89.5
t92.5 141.5t34.5 182.5q0 194 -125 319.5t-297 125.5q-83 0 -160 -32.5t-135.5 -89.5t-93.5 -141.5t-35 -181.5zM381 1368q0 29 21.5 50.5t52.5 21.5q30 0 50.5 -21t20.5 -51q0 -31 -20.5 -52.5t-50.5 -21.5q-31 0 -52.5 21.5t-21.5 52.5zM741 1368q0 29 21.5 50.5
t52.5 21.5t52.5 -21.5t21.5 -50.5q0 -31 -21.5 -52.5t-52.5 -21.5t-52.5 21.5t-21.5 52.5z" />
    <glyph glyph-name="uni04E8" unicode="&#x4e8;" horiz-adv-x="1650" 
d="M825 76q156 0 289 73.5t216.5 210.5t92.5 312h-1196q9 -175 92.5 -312t216.5 -210.5t289 -73.5zM129 711q0 157 55.5 293.5t149.5 231t221.5 148.5t269.5 54q141 0 268.5 -54t222 -148.5t150.5 -231t56 -293.5t-56 -293.5t-150.5 -231t-222 -148.5t-268.5 -54
q-142 0 -269.5 54t-221.5 148.5t-149.5 231t-55.5 293.5zM229 756h1192q-10 173 -93 309t-215 208.5t-288 72.5t-288 -72.5t-215 -208.5t-93 -309z" />
    <glyph glyph-name="uni04E9" unicode="&#x4e9;" horiz-adv-x="1267" 
d="M635 -14q-101 0 -195 39t-166 107t-115.5 170t-43.5 220q0 156 74 280t192 189.5t254 65.5t253.5 -65.5t191 -189.5t73.5 -280q0 -118 -43 -220t-114.5 -170t-165.5 -107t-195 -39zM213 483q13 -180 135.5 -293.5t286.5 -113.5t285.5 113.5t134.5 293.5h-842zM213 565
h842q-15 178 -136.5 290t-283.5 112t-284.5 -112.5t-137.5 -289.5z" />
    <glyph glyph-name="uni04EA" unicode="&#x4ea;" horiz-adv-x="1650" 
d="M825 76q156 0 289 73.5t216.5 210.5t92.5 312h-1196q9 -175 92.5 -312t216.5 -210.5t289 -73.5zM129 711q0 157 55.5 293.5t149.5 231t221.5 148.5t269.5 54q141 0 268.5 -54t222 -148.5t150.5 -231t56 -293.5t-56 -293.5t-150.5 -231t-222 -148.5t-268.5 -54
q-142 0 -269.5 54t-221.5 148.5t-149.5 231t-55.5 293.5zM229 756h1192q-10 173 -93 309t-215 208.5t-288 72.5t-288 -72.5t-215 -208.5t-93 -309zM571 1751q0 29 21.5 50.5t52.5 21.5q30 0 51 -21t21 -51q0 -31 -20.5 -52.5t-51.5 -21.5t-52.5 21.5t-21.5 52.5zM932 1751
q0 29 21.5 50.5t52.5 21.5q30 0 51.5 -21.5t21.5 -50.5q0 -31 -21 -52.5t-52 -21.5t-52.5 21.5t-21.5 52.5z" />
    <glyph glyph-name="uni04EB" unicode="&#x4eb;" horiz-adv-x="1267" 
d="M635 -14q-101 0 -195 39t-166 107t-115.5 170t-43.5 220q0 156 74 280t192 189.5t254 65.5t253.5 -65.5t191 -189.5t73.5 -280q0 -118 -43 -220t-114.5 -170t-165.5 -107t-195 -39zM213 483q13 -180 135.5 -293.5t286.5 -113.5t285.5 113.5t134.5 293.5h-842zM213 565
h842q-15 178 -136.5 290t-283.5 112t-284.5 -112.5t-137.5 -289.5zM381 1368q0 29 21.5 50.5t52.5 21.5q30 0 50.5 -21t20.5 -51q0 -31 -20.5 -52.5t-50.5 -21.5q-31 0 -52.5 21.5t-21.5 52.5zM741 1368q0 29 21.5 50.5t52.5 21.5t52.5 -21.5t21.5 -50.5q0 -31 -21.5 -52.5
t-52.5 -21.5t-52.5 21.5t-21.5 52.5z" />
    <glyph glyph-name="uni04EE" unicode="&#x4ee;" horiz-adv-x="1294" 
d="M285 0v90h102q92 0 147.5 44.5t96.5 135.5l20 45l-592 1106h107l532 -999l432 999h105l-510 -1165q-59 -136 -133 -196t-197 -60h-110zM403 1708v84h480v-84h-480z" />
    <glyph glyph-name="uni04EF" unicode="&#x4ef;" horiz-adv-x="1087" 
d="M496 -238q-43 -103 -110.5 -153.5t-180.5 -50.5h-127v90h125q78 0 123.5 34t76.5 105l99 227l-455 1024h105l401 -907l383 907h104zM315 1325v84h480v-84h-480z" />
    <glyph glyph-name="uni04F0" unicode="&#x4f0;" horiz-adv-x="1294" 
d="M285 0v90h102q92 0 147.5 44.5t96.5 135.5l20 45l-592 1106h107l532 -999l432 999h105l-510 -1165q-59 -136 -133 -196t-197 -60h-110zM389 1751q0 29 21.5 50.5t52.5 21.5q30 0 51 -21t21 -51q0 -31 -20.5 -52.5t-51.5 -21.5t-52.5 21.5t-21.5 52.5zM750 1751
q0 29 21 50.5t52 21.5t52.5 -21.5t21.5 -50.5q0 -31 -21.5 -52.5t-52.5 -21.5t-52 21.5t-21 52.5z" />
    <glyph glyph-name="uni04F1" unicode="&#x4f1;" horiz-adv-x="1087" 
d="M496 -238q-43 -103 -110.5 -153.5t-180.5 -50.5h-127v90h125q78 0 123.5 34t76.5 105l99 227l-455 1024h105l401 -907l383 907h104zM301 1368q0 29 21.5 50.5t52.5 21.5q30 0 50.5 -21t20.5 -51q0 -31 -20.5 -52.5t-50.5 -21.5q-31 0 -52.5 21.5t-21.5 52.5zM662 1368
q0 30 21 51t52 21t52.5 -21.5t21.5 -50.5q0 -31 -21.5 -52.5t-52.5 -21.5t-52 21.5t-21 52.5z" />
    <glyph glyph-name="uni04F2" unicode="&#x4f2;" horiz-adv-x="1294" 
d="M285 0v90h102q92 0 147.5 44.5t96.5 135.5l20 45l-592 1106h107l532 -999l432 999h105l-510 -1165q-59 -136 -133 -196t-197 -60h-110zM440 1608l203 286h98l-202 -286h-99zM729 1608l203 286h98l-203 -286h-98z" />
    <glyph glyph-name="uni04F3" unicode="&#x4f3;" horiz-adv-x="1087" 
d="M496 -238q-43 -103 -110.5 -153.5t-180.5 -50.5h-127v90h125q78 0 123.5 34t76.5 105l99 227l-455 1024h105l401 -907l383 907h104zM350 1225l203 286h98l-202 -286h-99zM639 1225l203 286h98l-203 -286h-98z" />
    <glyph glyph-name="uni04F4" unicode="&#x4f4;" horiz-adv-x="1343" 
d="M1044 1421h95v-1421h-95v629h-536q-172 0 -265 75t-93 244v473h94v-465q0 -130 69.5 -183.5t204.5 -53.5h526v702zM389 1751q0 29 21.5 50.5t52.5 21.5q30 0 51 -21t21 -51q0 -31 -20.5 -52.5t-51.5 -21.5t-52.5 21.5t-21.5 52.5zM750 1751q0 29 21 50.5t52 21.5
t52.5 -21.5t21.5 -50.5q0 -31 -21.5 -52.5t-52.5 -21.5t-52 21.5t-21 52.5z" />
    <glyph glyph-name="uni04F5" unicode="&#x4f5;" horiz-adv-x="1085" 
d="M815 1038h94v-1038h-94v449h-356q-340 0 -340 288v301h94v-290q0 -117 67.5 -164t188.5 -47h346v501zM266 1368q0 29 21.5 50.5t52.5 21.5q30 0 51 -21t21 -51q0 -31 -20.5 -52.5t-51.5 -21.5t-52.5 21.5t-21.5 52.5zM627 1368q0 30 21.5 51t51.5 21q31 0 52.5 -21.5
t21.5 -50.5q0 -31 -21.5 -52.5t-52.5 -21.5t-52 21.5t-21 52.5z" />
    <glyph glyph-name="uni04F8" unicode="&#x4f8;" horiz-adv-x="1644" 
d="M1440 1421v-1421h-94v1421h94zM205 0v1421h94v-600h326q214 0 339.5 -110t125.5 -299q0 -192 -124.5 -302t-340.5 -110h-420zM299 90h322q179 0 275.5 87t96.5 235q0 146 -96.5 232.5t-275.5 86.5h-322v-641zM569 1751q0 29 21.5 50.5t52.5 21.5q30 0 51 -21t21 -51
q0 -31 -20.5 -52.5t-51.5 -21.5t-52.5 21.5t-21.5 52.5zM930 1751q0 29 21.5 50.5t52.5 21.5q30 0 51.5 -21.5t21.5 -50.5q0 -31 -21 -52.5t-52 -21.5t-52.5 21.5t-21.5 52.5z" />
    <glyph glyph-name="uni04F9" unicode="&#x4f9;" horiz-adv-x="1378" 
d="M1202 1038v-1038h-92v1038h92zM176 0v1038h94v-383h252q174 0 278.5 -85t104.5 -240q0 -152 -104 -241t-279 -89h-346zM270 90h246q142 0 217.5 65.5t75.5 172.5q0 113 -78.5 176t-214.5 63h-246v-477zM436 1368q0 29 21.5 50.5t52.5 21.5q30 0 51 -21t21 -51
q0 -31 -20.5 -52.5t-51.5 -21.5t-52.5 21.5t-21.5 52.5zM797 1368q0 30 21.5 51t51.5 21q31 0 52.5 -21.5t21.5 -50.5q0 -31 -21.5 -52.5t-52.5 -21.5t-52 21.5t-21 52.5z" />
    <glyph glyph-name="uni051C" unicode="&#x51c;" horiz-adv-x="1859" 
d="M168 1421l379 -1157l383 1174l383 -1170l379 1153h98l-475 -1437l-385 1187l-385 -1187l-475 1437h98z" />
    <glyph glyph-name="uni051D" unicode="&#x51d;" horiz-adv-x="1554" 
d="M166 1038l293 -817l319 836l324 -824l289 805h96l-379 -1054l-330 843l-329 -843l-381 1054h98z" />
    <glyph glyph-name="uni0524" unicode="&#x524;" horiz-adv-x="1574" 
d="M1305 1421v-1331h180v-383h-90v293h-185v1331h-911v-1331h-94v1421h1100z" />
    <glyph glyph-name="uni0525" unicode="&#x525;" horiz-adv-x="1249" 
d="M1014 1038v-948h162v-371h-91v281h-165v950h-650v-950h-94v1038h838z" />
    <glyph glyph-name="Wgrave" unicode="&#x1e80;" horiz-adv-x="1859" 
d="M168 1421l379 -1157l383 1174l383 -1170l379 1153h98l-475 -1437l-385 1187l-385 -1187l-475 1437h98zM670 1894h110l260 -286h-112z" />
    <glyph glyph-name="wgrave" unicode="&#x1e81;" horiz-adv-x="1554" 
d="M166 1038l293 -817l319 836l324 -824l289 805h96l-379 -1054l-330 843l-329 -843l-381 1054h98zM518 1511h111l260 -286h-113z" />
    <glyph glyph-name="Wacute" unicode="&#x1e82;" horiz-adv-x="1859" 
d="M168 1421l379 -1157l383 1174l383 -1170l379 1153h98l-475 -1437l-385 1187l-385 -1187l-475 1437h98zM821 1608l260 286h111l-258 -286h-113z" />
    <glyph glyph-name="wacute" unicode="&#x1e83;" horiz-adv-x="1554" 
d="M166 1038l293 -817l319 836l324 -824l289 805h96l-379 -1054l-330 843l-329 -843l-381 1054h98zM668 1225l260 286h110l-258 -286h-112z" />
    <glyph glyph-name="Wdieresis" unicode="&#x1e84;" horiz-adv-x="1859" 
d="M168 1421l379 -1157l383 1174l383 -1170l379 1153h98l-475 -1437l-385 1187l-385 -1187l-475 1437h98zM676 1751q0 29 21.5 50.5t52.5 21.5q30 0 50.5 -21t20.5 -51q0 -31 -20.5 -52.5t-50.5 -21.5q-31 0 -52.5 21.5t-21.5 52.5zM1036 1751q0 29 21.5 50.5t52.5 21.5
t52.5 -21.5t21.5 -50.5q0 -31 -21.5 -52.5t-52.5 -21.5t-52.5 21.5t-21.5 52.5z" />
    <glyph glyph-name="wdieresis" unicode="&#x1e85;" horiz-adv-x="1554" 
d="M166 1038l293 -817l319 836l324 -824l289 805h96l-379 -1054l-330 843l-329 -843l-381 1054h98zM524 1368q0 29 21.5 50.5t52.5 21.5q30 0 51 -21t21 -51q0 -31 -20.5 -52.5t-51.5 -21.5t-52.5 21.5t-21.5 52.5zM885 1368q0 30 21.5 51t51.5 21q31 0 52.5 -21.5
t21.5 -50.5q0 -31 -21.5 -52.5t-52.5 -21.5t-52 21.5t-21 52.5z" />
    <glyph glyph-name="uni1E9E" unicode="&#x1e9e;" horiz-adv-x="1273" 
d="M205 0v1421h876l-317 -618q181 -11 294 -120.5t113 -279.5q0 -125 -57 -222t-150 -147t-204 -50q-147 0 -223 49v104q32 -25 91 -43t126 -18q134 0 227.5 88t93.5 242q0 77 -31 139t-83.5 100.5t-119.5 59t-141 20.5h-67l301 604h-635v-1329h-94z" />
    <glyph glyph-name="Ygrave" unicode="&#x1ef2;" horiz-adv-x="1327" 
d="M403 1894h111l260 -286h-112zM39 1421h111l516 -729l512 729h110l-577 -829v-592h-95v596z" />
    <glyph glyph-name="ygrave" unicode="&#x1ef3;" horiz-adv-x="1087" 
d="M496 -238q-43 -103 -110.5 -153.5t-180.5 -50.5h-127v90h125q78 0 123.5 34t76.5 105l99 227l-455 1024h105l401 -907l383 907h104zM293 1511h110l261 -286h-113z" />
    <glyph glyph-name="uni2000" unicode="&#x2000;" horiz-adv-x="1024" 
 />
    <glyph glyph-name="uni2001" unicode="&#x2001;" horiz-adv-x="2048" 
 />
    <glyph glyph-name="uni2002" unicode="&#x2002;" horiz-adv-x="1024" 
 />
    <glyph glyph-name="uni2003" unicode="&#x2003;" horiz-adv-x="2048" 
 />
    <glyph glyph-name="uni2004" unicode="&#x2004;" horiz-adv-x="681" 
 />
    <glyph glyph-name="uni2005" unicode="&#x2005;" horiz-adv-x="512" 
 />
    <glyph glyph-name="uni2007" unicode="&#x2007;" horiz-adv-x="1181" 
 />
    <glyph glyph-name="uni2008" unicode="&#x2008;" horiz-adv-x="428" 
 />
    <glyph glyph-name="uni2009" unicode="&#x2009;" horiz-adv-x="409" 
 />
    <glyph glyph-name="uni200A" unicode="&#x200a;" horiz-adv-x="292" 
 />
    <glyph glyph-name="uni200B" unicode="&#x200b;" horiz-adv-x="0" 
 />
    <glyph glyph-name="endash" unicode="&#x2013;" horiz-adv-x="1024" 
d="M1024 651v-84h-1024v84h1024z" />
    <glyph glyph-name="emdash" unicode="&#x2014;" horiz-adv-x="2048" 
d="M2048 651v-84h-2048v84h2048z" />
    <glyph glyph-name="quoteleft" unicode="&#x2018;" horiz-adv-x="428" 
d="M88 999l150 422h75l-133 -422h-92z" />
    <glyph glyph-name="quoteright" unicode="&#x2019;" horiz-adv-x="428" 
d="M313 1421l-149 -422h-76l133 422h92z" />
    <glyph glyph-name="quotesinglbase" unicode="&#x201a;" horiz-adv-x="428" 
d="M272 123l-149 -422h-76l133 422h92z" />
    <glyph glyph-name="quotedblleft" unicode="&#x201c;" horiz-adv-x="718" 
d="M379 999l149 422h76l-133 -422h-92zM88 999l150 422h75l-133 -422h-92z" />
    <glyph glyph-name="quotedblright" unicode="&#x201d;" horiz-adv-x="718" 
d="M313 1421l-149 -422h-76l133 422h92zM379 999l133 422h92l-149 -422h-76z" />
    <glyph glyph-name="quotedblbase" unicode="&#x201e;" horiz-adv-x="741" 
d="M295 123l-150 -422h-75l133 422h92zM362 -299l134 422h92l-150 -422h-76z" />
    <glyph glyph-name="dagger" unicode="&#x2020;" horiz-adv-x="954" 
d="M432 545v610h-315v84h315v313h90v-313h316v-84h-316v-610h-90z" />
    <glyph glyph-name="daggerdbl" unicode="&#x2021;" horiz-adv-x="956" 
d="M434 518v262h-315v86h315v330h-315v84h315v272h88v-272h318v-84h-318v-330h318v-86h-318v-262h-88z" />
    <glyph glyph-name="bullet" unicode="&#x2022;" horiz-adv-x="983" 
d="M778 610q0 -122 -84 -207.5t-202 -85.5q-119 0 -203 85t-84 208q0 122 84 206.5t203 84.5q118 0 202 -84.5t84 -206.5z" />
    <glyph glyph-name="ellipsis" unicode="&#x2026;" horiz-adv-x="1239" 
d="M618 137q32 0 55 -22.5t23 -53.5q0 -32 -23 -54.5t-55 -22.5t-53.5 22.5t-21.5 54.5q0 31 21.5 53.5t53.5 22.5zM137 61q0 31 22 53.5t54 22.5t55 -22.5t23 -53.5q0 -32 -23 -54.5t-55 -22.5t-54 22.5t-22 54.5zM948 61q0 31 22 53.5t54 22.5t55 -22.5t23 -53.5
q0 -32 -23 -54.5t-55 -22.5t-54 22.5t-22 54.5z" />
    <glyph glyph-name="perthousand" unicode="&#x2030;" horiz-adv-x="2486" 
d="M307 0l965 1421h100l-962 -1421h-103zM88 1090q0 145 100 246.5t240 101.5q142 0 242 -101t100 -247t-100 -247.5t-242 -101.5q-140 0 -240 101.5t-100 247.5zM172 1090q0 -109 74.5 -188t181.5 -79q109 0 183.5 79t74.5 188t-74.5 187.5t-183.5 78.5
q-107 0 -181.5 -78.5t-74.5 -187.5zM911 332q0 145 100 246.5t240 101.5q142 0 242 -101t100 -247t-100 -247t-242 -101q-140 0 -240 101.5t-100 246.5zM995 332q0 -109 74.5 -187.5t181.5 -78.5q109 0 183.5 78.5t74.5 187.5t-74.5 187.5t-183.5 78.5q-107 0 -181.5 -78.5
t-74.5 -187.5zM1716 332q0 146 100 247t242 101t242 -101t100 -247t-100 -247t-242 -101t-242 101t-100 247zM1802 332q0 -109 73.5 -187.5t182.5 -78.5t182.5 78.5t73.5 187.5t-73.5 187.5t-182.5 78.5t-182.5 -78.5t-73.5 -187.5z" />
    <glyph glyph-name="guilsinglleft" unicode="&#x2039;" horiz-adv-x="641" 
d="M567 997l-379 -442l379 -442h-114l-379 442l379 442h114z" />
    <glyph glyph-name="guilsinglright" unicode="&#x203a;" horiz-adv-x="641" 
d="M74 113l379 442l-379 442h114l379 -442l-379 -442h-114z" />
    <glyph glyph-name="fraction" unicode="&#x2044;" horiz-adv-x="548" 
d="M709 1421h98l-967 -1421h-100z" />
    <glyph glyph-name="uni2070" unicode="&#x2070;" horiz-adv-x="946" 
d="M838 1266q0 -211 -101.5 -342t-263.5 -131t-263 130t-101 343t101 343t263 130t263.5 -131t101.5 -342zM203 1266q0 -172 75.5 -279.5t194.5 -107.5q118 0 194 107t76 280q0 174 -75.5 280.5t-194.5 106.5t-194.5 -107.5t-75.5 -279.5z" />
    <glyph glyph-name="uni2074" unicode="&#x2074;" 
d="M549 1409h90v-299h141v-82h-141v-225h-90v225h-512l407 698h95l-363 -616h373v299z" />
    <glyph glyph-name="uni2075" unicode="&#x2075;" 
d="M688 1726v-84h-393l-62 -296q64 22 150 22q148 0 244 -75.5t96 -207.5q0 -136 -100 -214t-244 -78q-95 0 -168.5 28t-108.5 68v106q43 -53 113.5 -84.5t157.5 -31.5q109 0 181.5 54t72.5 152t-75 151.5t-196 53.5q-123 0 -221 -41l96 477h457z" />
    <glyph glyph-name="uni2076" unicode="&#x2076;" horiz-adv-x="851" 
d="M453 1407q126 0 217.5 -85.5t91.5 -217.5q0 -131 -92.5 -221t-235.5 -90q-151 0 -242.5 89.5t-91.5 219.5q0 70 25.5 131.5t75.5 134.5l256 358h102l-248 -352q58 33 142 33zM193 1104q0 -97 67 -161t170 -64t170.5 64t67.5 161t-67.5 161t-170.5 64t-170 -64t-67 -161z
" />
    <glyph glyph-name="uni2077" unicode="&#x2077;" 
d="M760 1726l-484 -923h-102l449 839h-523v84h660z" />
    <glyph glyph-name="uni2078" unicode="&#x2078;" horiz-adv-x="851" 
d="M553 1298q82 -18 148.5 -81t66.5 -160q0 -118 -97 -191t-247 -73q-148 0 -244 73.5t-96 190.5q0 52 20 95.5t53 72.5t69 47t73 26q-69 21 -118.5 75.5t-49.5 131.5q0 100 83 167t210 67q130 0 213.5 -67t83.5 -167q0 -75 -49.5 -131t-118.5 -76zM180 1065
q0 -84 69.5 -137.5t174.5 -53.5q109 0 179.5 53t70.5 138q0 84 -73 137t-177 53q-101 0 -172.5 -53t-71.5 -137zM225 1497q0 -69 59 -117.5t142 -48.5q86 0 144.5 48.5t58.5 117.5q0 70 -57 115t-146 45q-88 0 -144.5 -45t-56.5 -115z" />
    <glyph glyph-name="uni2079" unicode="&#x2079;" horiz-adv-x="851" 
d="M399 1122q-126 0 -217.5 85.5t-91.5 217.5q0 131 92.5 221.5t235.5 90.5q151 0 242.5 -90t91.5 -220q0 -70 -25.5 -131.5t-75.5 -134.5l-256 -358h-102l248 352q-58 -33 -142 -33zM184 1425q0 -97 67.5 -161t170.5 -64t170 64t67 161t-67.5 161.5t-169.5 64.5
q-103 0 -170.5 -64.5t-67.5 -161.5z" />
    <glyph glyph-name="uni2080" unicode="&#x2080;" horiz-adv-x="946" 
d="M838 258q0 -211 -101.5 -342t-263.5 -131t-263 130t-101 343t101 343t263 130t263.5 -131t101.5 -342zM203 258q0 -172 75.5 -279.5t194.5 -107.5q118 0 194 107t76 280q0 174 -75.5 280.5t-194.5 106.5t-194.5 -107.5t-75.5 -279.5z" />
    <glyph glyph-name="uni2081" unicode="&#x2081;" 
d="M176 -123h238v725l-238 -106v86l330 149v-854h229v-82h-559v82z" />
    <glyph glyph-name="uni2082" unicode="&#x2082;" 
d="M104 623q37 43 113 75.5t170 32.5q131 0 212 -71.5t81 -184.5q0 -33 -6 -63.5t-25 -66t-30.5 -56t-46.5 -63t-48 -56.5t-59 -65q-12 -14 -19 -21l-188 -203h492v-86h-676l297 330q118 131 146 169q69 93 69 171q0 83 -58 130.5t-151 47.5q-85 0 -155.5 -35.5
t-117.5 -93.5v109z" />
    <glyph glyph-name="uni2083" unicode="&#x2083;" 
d="M391 -215q-105 0 -180 27.5t-113 68.5v111q42 -54 119.5 -87.5t167.5 -33.5q110 0 185 57t75 154q0 99 -79 151t-199 52q-32 0 -86 -4l258 354h-441v84h588l-266 -363q143 -6 230 -80t87 -198q0 -131 -100 -212t-246 -81z" />
    <glyph glyph-name="uni2084" unicode="&#x2084;" 
d="M549 401h90v-299h141v-82h-141v-225h-90v225h-512l407 699h95l-363 -617h373v299z" />
    <glyph glyph-name="uni2085" unicode="&#x2085;" 
d="M688 719v-84h-393l-62 -297q64 22 150 22q148 0 244 -75t96 -207q0 -92 -48.5 -159.5t-125.5 -100.5t-170 -33q-95 0 -168.5 28t-108.5 68v107q43 -53 114 -85t157 -32q109 0 181.5 54.5t72.5 152.5t-75 151.5t-196 53.5q-123 0 -221 -41l96 477h457z" />
    <glyph glyph-name="uni2086" unicode="&#x2086;" horiz-adv-x="851" 
d="M453 399q126 0 217.5 -85.5t91.5 -217.5q0 -131 -92.5 -221t-235.5 -90q-151 0 -242.5 89.5t-91.5 219.5q0 70 25.5 131.5t75.5 134.5l256 359h102l-248 -352q56 32 142 32zM193 96q0 -97 67 -161t170 -64t170.5 64t67.5 161t-67.5 161.5t-170.5 64.5
q-102 0 -169.5 -64.5t-67.5 -161.5z" />
    <glyph glyph-name="uni2087" unicode="&#x2087;" 
d="M760 719l-484 -924h-102l449 840h-523v84h660z" />
    <glyph glyph-name="uni2088" unicode="&#x2088;" horiz-adv-x="851" 
d="M553 291q82 -18 148.5 -81.5t66.5 -160.5q0 -118 -97 -191t-247 -73q-148 0 -244 73.5t-96 190.5q0 99 66.5 161.5t148.5 80.5q-69 21 -118.5 75.5t-49.5 131.5q0 100 83 166.5t210 66.5q130 0 213.5 -66.5t83.5 -166.5q0 -75 -49.5 -131t-118.5 -76zM180 57
q0 -84 69.5 -137t174.5 -53q109 0 179.5 52.5t70.5 137.5q0 84 -73 137.5t-177 53.5q-101 0 -172.5 -53.5t-71.5 -137.5zM225 489q0 -69 59 -117t142 -48q86 0 144.5 48t58.5 117q0 70 -57 115t-146 45q-88 0 -144.5 -45t-56.5 -115z" />
    <glyph glyph-name="uni2089" unicode="&#x2089;" horiz-adv-x="851" 
d="M399 115q-126 0 -217.5 85.5t-91.5 217.5q0 131 92.5 221t235.5 90q151 0 242.5 -89.5t91.5 -219.5q0 -70 -25.5 -131.5t-75.5 -134.5l-256 -359h-102l248 352q-56 -32 -142 -32zM184 418q0 -97 67.5 -161t170.5 -64t170 64t67 161t-67 161t-170 64t-170.5 -64
t-67.5 -161z" />
    <glyph glyph-name="Euro" unicode="&#x20ac;" horiz-adv-x="1501" 
d="M942 -16q-159 0 -296.5 66t-234.5 191t-132 289h-203v82h190q-6 50 -6 99q0 53 6 102h-190v82h207q58 240 243 391.5t412 151.5q274 0 428 -168v-123q-69 82 -174.5 140.5t-249.5 58.5q-193 0 -349 -125t-210 -326h666l-37 -82h-645q-9 -49 -9 -102q0 -41 7 -99h555
l-39 -82h-500q52 -204 206.5 -329t354.5 -125q142 0 249 58.5t175 139.5v-122q-154 -168 -424 -168z" />
    <glyph glyph-name="uni20B4" unicode="&#x20b4;" horiz-adv-x="1177" 
d="M1104 899v-84h-1028v84h694q71 40 114.5 99t43.5 128q0 96 -93.5 159t-222.5 63q-262 0 -426 -195v119q53 66 166.5 116t259.5 50q110 0 203.5 -37t151 -107t57.5 -157q0 -145 -131 -238h211zM76 535v79h1028v-79h-670q-81 -38 -131.5 -101t-50.5 -137q0 -97 102.5 -160
t247.5 -63q252 0 416 194v-118q-52 -65 -164.5 -115.5t-251.5 -50.5q-185 0 -315.5 85t-130.5 218q0 152 149 248h-229z" />
    <glyph glyph-name="uni20B8" unicode="&#x20b8;" horiz-adv-x="1259" 
d="M582 0v1049h-510v90h1116v-90h-510v-1049h-96zM72 1337v84h1116v-84h-1116z" />
    <glyph glyph-name="uni20BD" unicode="&#x20bd;" horiz-adv-x="1263" 
d="M301 0v322h-205v84h205v196h-205v84h205v735h404q203 0 330.5 -106.5t127.5 -300.5q0 -195 -128 -303.5t-330 -108.5h-310v-196h492v-84h-492v-322h-94zM395 690h301q167 0 268 86.5t101 237.5q0 150 -101 233.5t-268 83.5h-301v-641z" />
    <glyph glyph-name="uni20BF" unicode="&#x20bf;" horiz-adv-x="1269" 
d="M205 18v1387h239v227h84v-227h131h27v227h84v-235q146 -25 230.5 -112t84.5 -224q0 -126 -69.5 -202.5t-173.5 -102.5q54 -6 107 -29t101.5 -62.5t78.5 -106t30 -148.5q0 -167 -106 -268t-283 -119v-244h-84v239h-158v-239h-84v239h-239zM299 106h395q163 0 265 80.5
t102 223.5t-100 216.5t-265 73.5h-397v-594zM299 788h356q157 0 243.5 70t86.5 197q0 124 -88 193t-244 69h-354v-529z" />
    <glyph glyph-name="uni2116" unicode="&#x2116;" horiz-adv-x="2256" 
d="M205 1438l1012 -1207v1190h94v-1437l-1012 1204v-1188h-94v1438zM1477 1053q0 145 100 245.5t240 100.5q142 0 242 -100.5t100 -245.5q0 -146 -100 -247t-242 -101q-140 0 -240 101.5t-100 246.5zM1511 475v82h611v-82h-611zM1561 1053q0 -110 74 -189.5t182 -79.5
q109 0 183.5 79.5t74.5 189.5q0 109 -74.5 187.5t-183.5 78.5q-107 0 -181.5 -78.5t-74.5 -187.5z" />
    <glyph glyph-name="trademark" unicode="&#x2122;" horiz-adv-x="1699" 
d="M68 1346v75h602v-75h-262v-586h-78v586h-262zM780 760v678l357 -373l358 373v-678h-80v491l-278 -295l-281 297v-493h-76z" />
    <glyph glyph-name="oneeighth" unicode="&#x215b;" horiz-adv-x="2248" 
d="M176 578h238v725l-238 -107v86l330 150v-854h229v-82h-559v82zM590 0l969 1421h98l-967 -1421h-100zM1483 254q0 99 66.5 161.5t148.5 80.5q-69 21 -118.5 75t-49.5 131q0 100 83 167t210 67q130 0 213.5 -67t83.5 -167q0 -75 -49 -130.5t-119 -75.5q82 -18 148.5 -81.5
t66.5 -160.5q0 -118 -97 -191t-247 -73q-148 0 -244 73.5t-96 190.5zM1579 262q0 -84 69.5 -137t174.5 -53q109 0 179.5 52.5t70.5 137.5q0 84 -73 137.5t-177 53.5q-101 0 -172.5 -53.5t-71.5 -137.5zM1624 694q0 -69 59 -117.5t142 -48.5q86 0 144.5 48.5t58.5 117.5
q0 70 -57 115t-146 45q-88 0 -144.5 -45t-56.5 -115z" />
    <glyph glyph-name="threeeighths" unicode="&#x215c;" horiz-adv-x="2244" 
d="M391 485q-105 0 -180 28t-113 69v110q42 -54 119.5 -87.5t167.5 -33.5q110 0 185 57t75 154q0 99 -79 151t-199 52q-32 0 -86 -4l258 354h-441v84h588l-266 -362q143 -6 230 -80.5t87 -198.5q0 -131 -100 -212t-246 -81zM584 0l968 1421h99l-967 -1421h-100zM1477 254
q0 99 66.5 161.5t148.5 80.5q-69 21 -118.5 75t-49.5 131q0 100 83 167t210 67q130 0 213.5 -67t83.5 -167q0 -75 -49 -130.5t-119 -75.5q82 -18 148.5 -81.5t66.5 -160.5q0 -118 -97 -191t-247 -73q-148 0 -244 73.5t-96 190.5zM1573 262q0 -84 69.5 -137t174.5 -53
q109 0 179 52.5t70 137.5q0 84 -72.5 137.5t-176.5 53.5q-101 0 -172.5 -53.5t-71.5 -137.5zM1618 694q0 -69 59 -117.5t142 -48.5q86 0 144 48.5t58 117.5q0 71 -56.5 115.5t-145.5 44.5q-88 0 -144.5 -45t-56.5 -115z" />
    <glyph glyph-name="fiveeighths" unicode="&#x215d;" horiz-adv-x="2244" 
d="M688 1419v-84h-393l-62 -297q67 23 150 23q148 0 244 -75.5t96 -207.5q0 -92 -48.5 -159.5t-125.5 -100.5t-170 -33q-95 0 -168 28.5t-109 68.5v106q43 -53 114 -85t157 -32q109 0 181.5 54.5t72.5 152.5t-75 151.5t-196 53.5q-123 0 -221 -41l96 477h457zM586 0
l968 1421h99l-967 -1421h-100zM1477 254q0 99 66.5 161.5t148.5 80.5q-69 21 -118.5 75t-49.5 131q0 100 83 167t210 67q130 0 213.5 -67t83.5 -167q0 -75 -49 -130.5t-119 -75.5q82 -18 148.5 -81.5t66.5 -160.5q0 -118 -97 -191t-247 -73q-148 0 -244 73.5t-96 190.5z
M1573 262q0 -84 69.5 -137t174.5 -53q109 0 179 52.5t70 137.5q0 84 -72.5 137.5t-176.5 53.5q-101 0 -172.5 -53.5t-71.5 -137.5zM1618 694q0 -69 59 -117.5t142 -48.5q86 0 144 48.5t58 117.5q0 71 -56.5 115.5t-145.5 44.5q-88 0 -144.5 -45t-56.5 -115z" />
    <glyph glyph-name="seveneighths" unicode="&#x215e;" horiz-adv-x="2103" 
d="M760 1419l-484 -923h-102l449 839h-523v84h660zM444 0l969 1421h98l-966 -1421h-101zM1335 254q0 99 66.5 161.5t148.5 80.5q-69 21 -118.5 75t-49.5 131q0 100 83 167t210 67q130 0 213.5 -67t83.5 -167q0 -75 -49 -130.5t-119 -75.5q82 -18 148.5 -81.5t66.5 -160.5
q0 -118 -97 -191t-247 -73q-148 0 -244 73.5t-96 190.5zM1432 262q0 -84 69 -137t174 -53q109 0 179.5 52.5t70.5 137.5q0 84 -73 137.5t-177 53.5q-101 0 -172 -53.5t-71 -137.5zM1477 694q0 -69 58.5 -117.5t141.5 -48.5q86 0 144.5 48.5t58.5 117.5q0 70 -57 115t-146 45
q-88 0 -144 -45t-56 -115z" />
    <glyph glyph-name="arrowleft" unicode="&#x2190;" horiz-adv-x="1779" 
d="M598 1192h111l-400 -404h1307v-86h-1307l400 -401h-111l-444 444z" />
    <glyph glyph-name="arrowup" unicode="&#x2191;" horiz-adv-x="1175" 
d="M1034 1020v-113l-403 402v-1309h-86v1309l-402 -402v113l445 444z" />
    <glyph glyph-name="arrowright" unicode="&#x2192;" horiz-adv-x="1779" 
d="M1182 299h-111l399 403h-1306v86h1306l-399 402h111l444 -445z" />
    <glyph glyph-name="arrowdown" unicode="&#x2193;" horiz-adv-x="1175" 
d="M141 401v113l404 -401v1308h86v-1308l401 401v-113l-444 -444z" />
    <glyph glyph-name="arrowboth" unicode="&#x2194;" horiz-adv-x="1976" 
d="M596 1190h113l-404 -404h1366l-403 404h112l445 -445l-445 -446h-112l401 403h-1362l402 -403h-113l-444 446z" />
    <glyph glyph-name="uni2196" unicode="&#x2196;" horiz-adv-x="1378" 
d="M170 791v630h629l78 -80h-566l924 -923l-61 -64l-926 928v-569z" />
    <glyph glyph-name="uni2197" unicode="&#x2197;" horiz-adv-x="1378" 
d="M1208 791l-78 -78v569l-925 -928l-62 64l924 923h-565l78 80h628v-630z" />
    <glyph glyph-name="uni2198" unicode="&#x2198;" horiz-adv-x="1378" 
d="M1208 631v-631h-628l-78 80h565l-924 924l62 63l925 -928v570z" />
    <glyph glyph-name="uni2199" unicode="&#x2199;" horiz-adv-x="1378" 
d="M170 631l78 78v-570l926 928l61 -63l-924 -924h566l-78 -80h-629v631z" />
    <glyph glyph-name="partialdiff" unicode="&#x2202;" horiz-adv-x="1296" 
d="M647 -16q-145 0 -265.5 63.5t-193.5 186t-73 280.5q0 119 41.5 217t111 160.5t158 96.5t184.5 34q95 0 178.5 -30t137.5 -76t86.5 -96t38.5 -95q-12 106 -51 200t-93 163.5t-123 128.5t-138 99t-142.5 70t-132 46t-109.5 24v90q70 -11 144.5 -32.5t164.5 -61.5t171 -92.5
t159 -130.5t134.5 -170.5t91 -218t34.5 -267.5q0 -281 -142 -435t-372 -154zM211 510q0 -193 126.5 -313.5t309.5 -120.5q176 0 294 119t118 317q0 180 -124.5 301t-303.5 121q-84 0 -159 -28.5t-133.5 -81t-93 -134t-34.5 -180.5z" />
    <glyph glyph-name="product" unicode="&#x220f;" horiz-adv-x="1492" 
d="M1288 1421v-1743h-94v1653h-895v-1653h-94v1743h1083z" />
    <glyph glyph-name="summation" unicode="&#x2211;" horiz-adv-x="1308" 
d="M127 -322l600 873l-600 870h1047v-90h-879l541 -780l-543 -782h881v-91h-1047z" />
    <glyph glyph-name="minus" unicode="&#x2212;" horiz-adv-x="1060" 
d="M117 657h825v-86h-825v86z" />
    <glyph glyph-name="radical" unicode="&#x221a;" horiz-adv-x="1245" 
d="M154 649l311 -852l637 1737h98l-739 -1993l-414 1108h107z" />
    <glyph glyph-name="infinity" unicode="&#x221e;" horiz-adv-x="1617" 
d="M1186 940q147 0 241.5 -97.5t94.5 -232.5t-94.5 -232t-241.5 -97q-64 0 -121.5 21.5t-104 60.5t-81.5 79.5t-70 92.5q-35 -53 -70.5 -93.5t-83 -79.5t-105.5 -60t-122 -21q-146 0 -239 96.5t-93 232.5q0 137 93 233.5t239 96.5q212 0 381 -252q36 52 71 92t82 79t104 60
t120 21zM186 610q0 -101 70 -173t176 -72q175 0 330 247q-73 113 -153 179.5t-177 66.5q-107 0 -176.5 -73t-69.5 -175zM856 612q34 -53 65.5 -91.5t72 -77t88.5 -58.5t100 -20q107 0 177.5 71.5t70.5 173.5q0 103 -70.5 175.5t-177.5 72.5q-169 0 -326 -246z" />
    <glyph glyph-name="integral" unicode="&#x222b;" horiz-adv-x="1220" 
d="M266 -344h-174v90h168q200 0 229 213l152 1171q19 150 102.5 220.5t210.5 70.5h174v-90h-167q-201 0 -230 -213l-151 -1171q-19 -150 -102.5 -220.5t-211.5 -70.5z" />
    <glyph glyph-name="approxequal" unicode="&#x2248;" horiz-adv-x="1060" 
d="M121 764q25 40 80.5 76.5t128.5 36.5q47 0 106 -19.5t105 -43t99.5 -43t92.5 -19.5q63 0 117 37t88 88v-97q-27 -41 -80.5 -76.5t-126.5 -35.5q-47 0 -106 20t-105 43.5t-100.5 43.5t-93.5 20q-62 0 -116.5 -38t-88.5 -89v96zM121 348v96q25 39 80.5 75t128.5 36
q47 0 106 -19t105 -42.5t99.5 -42.5t92.5 -19q64 0 117.5 36t87.5 87v-94q-28 -42 -81.5 -77.5t-125.5 -35.5q-47 0 -106 20t-105 43.5t-100.5 43.5t-93.5 20q-62 0 -116.5 -38t-88.5 -89z" />
    <glyph glyph-name="notequal" unicode="&#x2260;" horiz-adv-x="1024" 
d="M905 836v-82h-270l-156 -285h426v-80h-469l-112 -209h-86l112 209h-233v80h276l154 285h-430v82h475l110 206h89l-113 -206h227z" />
    <glyph glyph-name="lessequal" unicode="&#x2264;" horiz-adv-x="1024" 
d="M117 229h788v-84h-788v84zM96 723l809 340v-86l-610 -256l610 -275v-86z" />
    <glyph glyph-name="greaterequal" unicode="&#x2265;" horiz-adv-x="1024" 
d="M907 229v-84h-788v84h788zM117 360v86l610 275l-610 256v86l811 -340z" />
    <glyph glyph-name="uni2460" unicode="&#x2460;" horiz-adv-x="1906" 
d="M952 -137q-171 0 -324 64t-264.5 174.5t-177 268t-65.5 335.5t65.5 335t177 267.5t264.5 174.5t324 64t325 -64t266 -174.5t177.5 -267.5t65.5 -335q0 -238 -111.5 -431.5t-302.5 -302t-420 -108.5zM209 705q0 -161 58 -302.5t158 -240.5t237 -156t290 -57
q154 0 291.5 57t237.5 156t158.5 240.5t58.5 302.5q0 215 -99.5 388.5t-270 270t-376.5 96.5q-153 0 -290 -57t-237 -156t-158 -240t-58 -302zM694 242v82h238v725l-238 -107v86l330 150v-854h229v-82h-559z" />
    <glyph glyph-name="uni2461" unicode="&#x2461;" horiz-adv-x="1906" 
d="M952 -137q-171 0 -324 64t-264.5 174.5t-177 268t-65.5 335.5t65.5 335t177 267.5t264.5 174.5t324 64t325 -64t266 -174.5t177.5 -267.5t65.5 -335q0 -238 -111.5 -431.5t-302.5 -302t-420 -108.5zM209 705q0 -161 58 -302.5t158 -240.5t237 -156t290 -57
q154 0 291.5 57t237.5 156t158.5 240.5t58.5 302.5q0 215 -99.5 388.5t-270 270t-376.5 96.5q-153 0 -290 -57t-237 -156t-158 -240t-58 -302zM612 242l297 329q118 131 146 169q69 93 69 171q0 83 -58 131t-151 48q-85 0 -155 -35.5t-117 -93.5v108q38 43 113.5 76
t169.5 33q131 0 212 -71.5t81 -184.5q0 -64 -34.5 -133t-68.5 -111t-114 -129q-11 -13 -17 -19l-188 -202h491v-86h-676z" />
    <glyph glyph-name="uni2462" unicode="&#x2462;" horiz-adv-x="1906" 
d="M952 -137q-171 0 -324 64t-264.5 174.5t-177 268t-65.5 335.5t65.5 335t177 267.5t264.5 174.5t324 64t325 -64t266 -174.5t177.5 -267.5t65.5 -335q0 -238 -111.5 -431.5t-302.5 -302t-420 -108.5zM209 705q0 -161 58 -302.5t158 -240.5t237 -156t290 -57
q154 0 291.5 57t237.5 156t158.5 240.5t58.5 302.5q0 215 -99.5 388.5t-270 270t-376.5 96.5q-153 0 -290 -57t-237 -156t-158 -240t-58 -302zM653 328v110q42 -54 119.5 -87.5t167.5 -33.5q110 0 185 57t75 154q0 99 -79 151t-199 52q-32 0 -86 -4l258 354h-441v84h588
l-266 -362q143 -6 230 -80.5t87 -198.5q0 -131 -100 -212t-246 -81q-105 0 -180 28t-113 69z" />
    <glyph glyph-name="uni2463" unicode="&#x2463;" horiz-adv-x="1906" 
d="M952 -137q-171 0 -324 64t-264.5 174.5t-177 268t-65.5 335.5t65.5 335t177 267.5t264.5 174.5t324 64t325 -64t266 -174.5t177.5 -267.5t65.5 -335q0 -238 -111.5 -431.5t-302.5 -302t-420 -108.5zM209 705q0 -161 58 -302.5t158 -240.5t237 -156t290 -57
q154 0 291.5 57t237.5 156t158.5 240.5t58.5 302.5q0 215 -99.5 388.5t-270 270t-376.5 96.5q-153 0 -290 -57t-237 -156t-158 -240t-58 -302zM545 467l407 698h95l-363 -616h373v299h90v-299h141v-82h-141v-225h-90v225h-512z" />
    <glyph glyph-name="uni2464" unicode="&#x2464;" horiz-adv-x="1906" 
d="M952 -137q-171 0 -324 64t-264.5 174.5t-177 268t-65.5 335.5t65.5 335t177 267.5t264.5 174.5t324 64t325 -64t266 -174.5t177.5 -267.5t65.5 -335q0 -238 -111.5 -431.5t-302.5 -302t-420 -108.5zM209 705q0 -161 58 -302.5t158 -240.5t237 -156t290 -57
q154 0 291.5 57t237.5 156t158.5 240.5t58.5 302.5q0 215 -99.5 388.5t-270 270t-376.5 96.5q-153 0 -290 -57t-237 -156t-158 -240t-58 -302zM637 328v106q43 -53 113.5 -85t156.5 -32q109 0 181.5 54.5t72.5 152.5t-74.5 151.5t-195.5 53.5q-123 0 -221 -41l96 477h457
v-84h-394l-61 -297q67 23 150 23q148 0 243.5 -75.5t95.5 -207.5q0 -92 -48.5 -159.5t-125.5 -100.5t-170 -33q-95 0 -167.5 28t-108.5 69z" />
    <glyph glyph-name="uni2465" unicode="&#x2465;" horiz-adv-x="1906" 
d="M952 -137q-171 0 -324 64t-264.5 174.5t-177 268t-65.5 335.5t65.5 335t177 267.5t264.5 174.5t324 64t325 -64t266 -174.5t177.5 -267.5t65.5 -335q0 -238 -111.5 -431.5t-302.5 -302t-420 -108.5zM209 705q0 -161 58 -302.5t158 -240.5t237 -156t290 -57
q154 0 291.5 57t237.5 156t158.5 240.5t58.5 302.5q0 215 -99.5 388.5t-270 270t-376.5 96.5q-153 0 -290 -57t-237 -156t-158 -240t-58 -302zM610 541q0 70 25.5 131.5t75.5 134.5l256 358h102l-248 -352q58 33 142 33q126 0 217.5 -85.5t91.5 -217.5q0 -131 -92.5 -221.5
t-235.5 -90.5q-151 0 -242.5 90t-91.5 220zM702 543q0 -97 67.5 -161.5t170.5 -64.5t170.5 64.5t67.5 161.5t-67.5 161t-170.5 64t-170.5 -64t-67.5 -161z" />
    <glyph glyph-name="uni2466" unicode="&#x2466;" horiz-adv-x="1906" 
d="M952 -137q-171 0 -324 64t-264.5 174.5t-177 268t-65.5 335.5t65.5 335t177 267.5t264.5 174.5t324 64t325 -64t266 -174.5t177.5 -267.5t65.5 -335q0 -238 -111.5 -431.5t-302.5 -302t-420 -108.5zM209 705q0 -161 58 -302.5t158 -240.5t237 -156t290 -57
q154 0 291.5 57t237.5 156t158.5 240.5t58.5 302.5q0 215 -99.5 388.5t-270 270t-376.5 96.5q-153 0 -290 -57t-237 -156t-158 -240t-58 -302zM635 1081v84h659l-483 -923h-102l448 839h-522z" />
    <glyph glyph-name="uni2467" unicode="&#x2467;" horiz-adv-x="1906" 
d="M952 -137q-171 0 -324 64t-264.5 174.5t-177 268t-65.5 335.5t65.5 335t177 267.5t264.5 174.5t324 64t325 -64t266 -174.5t177.5 -267.5t65.5 -335q0 -238 -111.5 -431.5t-302.5 -302t-420 -108.5zM209 705q0 -161 58 -302.5t158 -240.5t237 -156t290 -57
q154 0 291.5 57t237.5 156t158.5 240.5t58.5 302.5q0 215 -99.5 388.5t-270 270t-376.5 96.5q-153 0 -290 -57t-237 -156t-158 -240t-58 -302zM610 496q0 52 20 95.5t53 72.5t69 47t73 26q-69 21 -118.5 75.5t-49.5 131.5q0 100 83 167t210 67q130 0 213.5 -67t83.5 -167
q0 -75 -49.5 -131t-118.5 -76q82 -18 148.5 -81t66.5 -160q0 -118 -97 -191.5t-247 -73.5q-148 0 -244 74t-96 191zM707 504q0 -84 69 -137.5t174 -53.5q109 0 179.5 53t70.5 138q0 84 -73 137t-177 53q-101 0 -172 -53t-71 -137zM752 936q0 -69 58.5 -117.5t141.5 -48.5
q86 0 144.5 48.5t58.5 117.5q0 70 -57 115t-146 45q-88 0 -144 -45t-56 -115z" />
    <glyph glyph-name="uni2468" unicode="&#x2468;" horiz-adv-x="1906" 
d="M952 -137q-171 0 -324 64t-264.5 174.5t-177 268t-65.5 335.5t65.5 335t177 267.5t264.5 174.5t324 64t325 -64t266 -174.5t177.5 -267.5t65.5 -335q0 -238 -111.5 -431.5t-302.5 -302t-420 -108.5zM209 705q0 -161 58 -302.5t158 -240.5t237 -156t290 -57
q154 0 291.5 57t237.5 156t158.5 240.5t58.5 302.5q0 215 -99.5 388.5t-270 270t-376.5 96.5q-153 0 -290 -57t-237 -156t-158 -240t-58 -302zM635 866q0 131 92.5 221.5t235.5 90.5q151 0 242 -90t91 -220q0 -70 -25.5 -132t-74.5 -134l-256 -358h-102l247 352
q-58 -33 -141 -33q-126 0 -217.5 85.5t-91.5 217.5zM729 866q0 -97 67.5 -161t170.5 -64t170 64t67 161t-67.5 161.5t-169.5 64.5q-103 0 -170.5 -64.5t-67.5 -161.5z" />
    <glyph glyph-name="uni24EA" unicode="&#x24ea;" horiz-adv-x="1906" 
d="M952 -137q-171 0 -324 64t-264.5 174.5t-177 268t-65.5 335.5t65.5 335t177 267.5t264.5 174.5t324 64t325 -64t266 -174.5t177.5 -267.5t65.5 -335q0 -238 -111.5 -431.5t-302.5 -302t-420 -108.5zM209 705q0 -161 58 -302.5t158 -240.5t237 -156t290 -57
q154 0 291.5 57t237.5 156t158.5 240.5t58.5 302.5q0 215 -99.5 388.5t-270 270t-376.5 96.5q-153 0 -290 -57t-237 -156t-158 -240t-58 -302zM590 705q0 213 101 343t263 130t263.5 -131t101.5 -342q0 -212 -101.5 -343t-263.5 -131t-263 130.5t-101 343.5zM684 705
q0 -173 75.5 -280.5t194.5 -107.5q118 0 194.5 107.5t76.5 280.5t-76 280t-195 107t-194.5 -107.5t-75.5 -279.5z" />
    <glyph glyph-name="uni24FF" unicode="&#x24ff;" horiz-adv-x="1906" 
d="M952 -137q229 0 420 108.5t302.5 302t111.5 431.5q0 178 -65.5 335t-177.5 267.5t-266 174.5t-325 64t-324 -64t-264.5 -174.5t-177 -267.5t-65.5 -335t65.5 -335.5t177 -268t264.5 -174.5t324 -64zM590 705q0 213 101 343t263 130t263.5 -131t101.5 -342
q0 -212 -101.5 -343t-263.5 -131t-263 130.5t-101 343.5zM684 705q0 -173 75.5 -280.5t194.5 -107.5q118 0 194.5 107.5t76.5 280.5t-76 280t-195 107t-194.5 -107.5t-75.5 -279.5z" />
    <glyph glyph-name="lozenge" unicode="&#x25ca;" horiz-adv-x="1177" 
d="M1049 711l-418 -711h-84l-418 711l418 710h84zM238 711l352 -611l350 611l-350 610z" />
    <glyph glyph-name="circle" unicode="&#x25cb;" horiz-adv-x="1906" 
d="M952 -137q-171 0 -324 64t-264.5 174.5t-177 268t-65.5 335.5t65.5 335t177 267.5t264.5 174.5t324 64t325 -64t266 -174.5t177.5 -267.5t65.5 -335q0 -238 -111.5 -431.5t-302.5 -302t-420 -108.5zM209 705q0 -161 58 -302.5t158 -240.5t237 -156t290 -57
q154 0 291.5 57t237.5 156t158.5 240.5t58.5 302.5q0 215 -99.5 388.5t-270 270t-376.5 96.5q-153 0 -290 -57t-237 -156t-158 -240t-58 -302z" />
    <glyph glyph-name="uni25CF" unicode="&#x25cf;" horiz-adv-x="1906" 
d="M952 -137q229 0 420 108.5t302.5 302t111.5 431.5q0 178 -65.5 335t-177.5 267.5t-266 174.5t-325 64t-324 -64t-264.5 -174.5t-177 -267.5t-65.5 -335t65.5 -335.5t177 -268t264.5 -174.5t324 -64z" />
    <glyph glyph-name="uni2713" unicode="&#x2713;" horiz-adv-x="1777" 
d="M1536 1421h109l-975 -1437l-543 647h115l422 -496z" />
    <glyph glyph-name="uni2776" unicode="&#x2776;" horiz-adv-x="1906" 
d="M952 -137q229 0 420 108.5t302.5 302t111.5 431.5q0 178 -65.5 335t-177.5 267.5t-266 174.5t-325 64t-324 -64t-264.5 -174.5t-177 -267.5t-65.5 -335t65.5 -335.5t177 -268t264.5 -174.5t324 -64zM694 242v82h238v725l-238 -107v86l330 150v-854h229v-82h-559z" />
    <glyph glyph-name="uni2777" unicode="&#x2777;" horiz-adv-x="1906" 
d="M952 -137q229 0 420 108.5t302.5 302t111.5 431.5q0 178 -65.5 335t-177.5 267.5t-266 174.5t-325 64t-324 -64t-264.5 -174.5t-177 -267.5t-65.5 -335t65.5 -335.5t177 -268t264.5 -174.5t324 -64zM612 242l297 329q118 131 146 169q69 93 69 171q0 83 -58 131t-151 48
q-85 0 -155 -35.5t-117 -93.5v108q38 43 113.5 76t169.5 33q131 0 212 -71.5t81 -184.5q0 -64 -34.5 -133t-68.5 -111t-114 -129q-11 -13 -17 -19l-188 -202h491v-86h-676z" />
    <glyph glyph-name="uni2778" unicode="&#x2778;" horiz-adv-x="1906" 
d="M952 -137q229 0 420 108.5t302.5 302t111.5 431.5q0 178 -65.5 335t-177.5 267.5t-266 174.5t-325 64t-324 -64t-264.5 -174.5t-177 -267.5t-65.5 -335t65.5 -335.5t177 -268t264.5 -174.5t324 -64zM653 328v110q42 -54 119.5 -87.5t167.5 -33.5q110 0 185 57t75 154
q0 99 -79 151t-199 52q-32 0 -86 -4l258 354h-441v84h588l-266 -362q143 -6 230 -80.5t87 -198.5q0 -131 -100 -212t-246 -81q-105 0 -180 28t-113 69z" />
    <glyph glyph-name="uni2779" unicode="&#x2779;" horiz-adv-x="1906" 
d="M952 -137q229 0 420 108.5t302.5 302t111.5 431.5q0 178 -65.5 335t-177.5 267.5t-266 174.5t-325 64t-324 -64t-264.5 -174.5t-177 -267.5t-65.5 -335t65.5 -335.5t177 -268t264.5 -174.5t324 -64zM545 467l407 698h95l-363 -616h373v299h90v-299h141v-82h-141v-225h-90
v225h-512z" />
    <glyph glyph-name="uni277A" unicode="&#x277a;" horiz-adv-x="1906" 
d="M952 -137q229 0 420 108.5t302.5 302t111.5 431.5q0 178 -65.5 335t-177.5 267.5t-266 174.5t-325 64t-324 -64t-264.5 -174.5t-177 -267.5t-65.5 -335t65.5 -335.5t177 -268t264.5 -174.5t324 -64zM637 328v106q43 -53 113.5 -85t156.5 -32q109 0 181.5 54.5t72.5 152.5
t-74.5 151.5t-195.5 53.5q-123 0 -221 -41l96 477h457v-84h-394l-61 -297q67 23 150 23q148 0 243.5 -75.5t95.5 -207.5q0 -92 -48.5 -159.5t-125.5 -100.5t-170 -33q-95 0 -167.5 28t-108.5 69z" />
    <glyph glyph-name="uni277B" unicode="&#x277b;" horiz-adv-x="1906" 
d="M952 -137q229 0 420 108.5t302.5 302t111.5 431.5q0 178 -65.5 335t-177.5 267.5t-266 174.5t-325 64t-324 -64t-264.5 -174.5t-177 -267.5t-65.5 -335t65.5 -335.5t177 -268t264.5 -174.5t324 -64zM610 541q0 70 25.5 131.5t75.5 134.5l256 358h102l-248 -352
q58 33 142 33q126 0 217.5 -85.5t91.5 -217.5q0 -131 -92.5 -221.5t-235.5 -90.5q-151 0 -242.5 90t-91.5 220zM702 543q0 -97 67.5 -161.5t170.5 -64.5t170.5 64.5t67.5 161.5t-67.5 161t-170.5 64t-170.5 -64t-67.5 -161z" />
    <glyph glyph-name="uni277C" unicode="&#x277c;" horiz-adv-x="1906" 
d="M952 -137q229 0 420 108.5t302.5 302t111.5 431.5q0 178 -65.5 335t-177.5 267.5t-266 174.5t-325 64t-324 -64t-264.5 -174.5t-177 -267.5t-65.5 -335t65.5 -335.5t177 -268t264.5 -174.5t324 -64zM635 1081v84h659l-483 -923h-102l448 839h-522z" />
    <glyph glyph-name="uni277D" unicode="&#x277d;" horiz-adv-x="1906" 
d="M952 -137q229 0 420 108.5t302.5 302t111.5 431.5q0 178 -65.5 335t-177.5 267.5t-266 174.5t-325 64t-324 -64t-264.5 -174.5t-177 -267.5t-65.5 -335t65.5 -335.5t177 -268t264.5 -174.5t324 -64zM610 496q0 52 20 95.5t53 72.5t69 47t73 26q-69 21 -118.5 75.5
t-49.5 131.5q0 100 83 167t210 67q130 0 213.5 -67t83.5 -167q0 -75 -49.5 -131t-118.5 -76q82 -18 148.5 -81t66.5 -160q0 -118 -97 -191.5t-247 -73.5q-148 0 -244 74t-96 191zM707 504q0 -84 69 -137.5t174 -53.5q109 0 179.5 53t70.5 138q0 84 -73 137t-177 53
q-101 0 -172 -53t-71 -137zM752 936q0 -69 58.5 -117.5t141.5 -48.5q86 0 144.5 48.5t58.5 117.5q0 70 -57 115t-146 45q-88 0 -144 -45t-56 -115z" />
    <glyph glyph-name="uni277E" unicode="&#x277e;" horiz-adv-x="1906" 
d="M952 -137q229 0 420 108.5t302.5 302t111.5 431.5q0 178 -65.5 335t-177.5 267.5t-266 174.5t-325 64t-324 -64t-264.5 -174.5t-177 -267.5t-65.5 -335t65.5 -335.5t177 -268t264.5 -174.5t324 -64zM635 866q0 131 92.5 221.5t235.5 90.5q151 0 242 -90t91 -220
q0 -70 -25.5 -132t-74.5 -134l-256 -358h-102l247 352q-58 -33 -141 -33q-126 0 -217.5 85.5t-91.5 217.5zM729 866q0 -97 67.5 -161t170.5 -64t170 64t67 161t-67.5 161.5t-169.5 64.5q-103 0 -170.5 -64.5t-67.5 -161.5z" />
    <glyph glyph-name="uni004A0301" horiz-adv-x="716" 
d="M426 1421h94v-1120q0 -152 -78 -226.5t-215 -74.5h-159v90h151q101 0 154 50t53 167v1114zM362 1608l261 286h110l-258 -286h-113z" />
    <glyph glyph-name="i.loclTRK" horiz-adv-x="446" 
d="M270 1038v-1038h-94v1038h94zM150 1366q0 31 21 52.5t52 21.5t52.5 -21.5t21.5 -52.5q0 -29 -21.5 -50.5t-52.5 -21.5t-52 21t-21 51z" />
    <glyph glyph-name="uni006A0301" horiz-adv-x="454" 
d="M184 1038h95v-1228q0 -120 -68 -186t-184 -66h-144v90h137q76 0 120 41t44 127v1222zM123 1225l260 286h111l-258 -286h-113z" />
    <glyph glyph-name="a.salt" horiz-adv-x="1308" 
d="M1135 1038v-1038h-95v279q-48 -132 -164.5 -213.5t-267.5 -81.5q-93 0 -180 35.5t-157.5 100.5t-113 168.5t-42.5 229.5q0 127 42.5 231.5t113 170t157.5 101.5t180 36q151 0 267.5 -82.5t164.5 -214.5v278h95zM213 518q0 -107 36 -194t95 -140t131 -81.5t148 -28.5
q80 0 154 30.5t132.5 85.5t93.5 140.5t35 187.5q0 103 -35 189t-93.5 142t-132.5 87t-154 31q-76 0 -148 -29t-131 -83t-95 -141.5t-36 -195.5z" />
    <glyph glyph-name="aacute.salt" horiz-adv-x="1308" 
d="M1135 1038v-1038h-95v279q-48 -132 -164.5 -213.5t-267.5 -81.5q-93 0 -180 35.5t-157.5 100.5t-113 168.5t-42.5 229.5q0 127 42.5 231.5t113 170t157.5 101.5t180 36q151 0 267.5 -82.5t164.5 -214.5v278h95zM213 518q0 -107 36 -194t95 -140t131 -81.5t148 -28.5
q80 0 154 30.5t132.5 85.5t93.5 140.5t35 187.5q0 103 -35 189t-93.5 142t-132.5 87t-154 31q-76 0 -148 -29t-131 -83t-95 -141.5t-36 -195.5zM545 1225l260 286h110l-258 -286h-112z" />
    <glyph glyph-name="abreve.salt" horiz-adv-x="1308" 
d="M1135 1038v-1038h-95v279q-48 -132 -164.5 -213.5t-267.5 -81.5q-93 0 -180 35.5t-157.5 100.5t-113 168.5t-42.5 229.5q0 127 42.5 231.5t113 170t157.5 101.5t180 36q151 0 267.5 -82.5t164.5 -214.5v278h95zM213 518q0 -107 36 -194t95 -140t131 -81.5t148 -28.5
q80 0 154 30.5t132.5 85.5t93.5 140.5t35 187.5q0 103 -35 189t-93.5 142t-132.5 87t-154 31q-76 0 -148 -29t-131 -83t-95 -141.5t-36 -195.5zM391 1495h84q0 -74 51.5 -126t128.5 -52q79 0 131 52t52 126h82q0 -114 -75.5 -186t-189.5 -72q-112 0 -188 72t-76 186z" />
    <glyph glyph-name="uni01CE.salt" horiz-adv-x="1308" 
d="M1135 1038v-1038h-95v279q-48 -132 -164.5 -213.5t-267.5 -81.5q-93 0 -180 35.5t-157.5 100.5t-113 168.5t-42.5 229.5q0 127 42.5 231.5t113 170t157.5 101.5t180 36q151 0 267.5 -82.5t164.5 -214.5v278h95zM213 518q0 -107 36 -194t95 -140t131 -81.5t148 -28.5
q80 0 154 30.5t132.5 85.5t93.5 140.5t35 187.5q0 103 -35 189t-93.5 142t-132.5 87t-154 31q-76 0 -148 -29t-131 -83t-95 -141.5t-36 -195.5zM358 1499h109l186 -182l189 182h108l-297 -293z" />
    <glyph glyph-name="acircumflex.salt" horiz-adv-x="1308" 
d="M1135 1038v-1038h-95v279q-48 -132 -164.5 -213.5t-267.5 -81.5q-93 0 -180 35.5t-157.5 100.5t-113 168.5t-42.5 229.5q0 127 42.5 231.5t113 170t157.5 101.5t180 36q151 0 267.5 -82.5t164.5 -214.5v278h95zM213 518q0 -107 36 -194t95 -140t131 -81.5t148 -28.5
q80 0 154 30.5t132.5 85.5t93.5 140.5t35 187.5q0 103 -35 189t-93.5 142t-132.5 87t-154 31q-76 0 -148 -29t-131 -83t-95 -141.5t-36 -195.5zM360 1225l297 293l295 -293h-108l-187 182l-188 -182h-109z" />
    <glyph glyph-name="adieresis.salt" horiz-adv-x="1308" 
d="M1135 1038v-1038h-95v279q-48 -132 -164.5 -213.5t-267.5 -81.5q-93 0 -180 35.5t-157.5 100.5t-113 168.5t-42.5 229.5q0 127 42.5 231.5t113 170t157.5 101.5t180 36q151 0 267.5 -82.5t164.5 -214.5v278h95zM213 518q0 -107 36 -194t95 -140t131 -81.5t148 -28.5
q80 0 154 30.5t132.5 85.5t93.5 140.5t35 187.5q0 103 -35 189t-93.5 142t-132.5 87t-154 31q-76 0 -148 -29t-131 -83t-95 -141.5t-36 -195.5zM401 1368q0 29 21.5 50.5t52.5 21.5q30 0 51 -21t21 -51q0 -31 -20.5 -52.5t-51.5 -21.5t-52.5 21.5t-21.5 52.5zM762 1368
q0 29 21.5 50.5t52.5 21.5q30 0 51.5 -21t21.5 -51q0 -31 -21 -52.5t-52 -21.5t-52.5 21.5t-21.5 52.5z" />
    <glyph glyph-name="agrave.salt" horiz-adv-x="1308" 
d="M1135 1038v-1038h-95v279q-48 -132 -164.5 -213.5t-267.5 -81.5q-93 0 -180 35.5t-157.5 100.5t-113 168.5t-42.5 229.5q0 127 42.5 231.5t113 170t157.5 101.5t180 36q151 0 267.5 -82.5t164.5 -214.5v278h95zM213 518q0 -107 36 -194t95 -140t131 -81.5t148 -28.5
q80 0 154 30.5t132.5 85.5t93.5 140.5t35 187.5q0 103 -35 189t-93.5 142t-132.5 87t-154 31q-76 0 -148 -29t-131 -83t-95 -141.5t-36 -195.5zM393 1511h111l260 -286h-113z" />
    <glyph glyph-name="amacron.salt" horiz-adv-x="1308" 
d="M1135 1038v-1038h-95v279q-48 -132 -164.5 -213.5t-267.5 -81.5q-93 0 -180 35.5t-157.5 100.5t-113 168.5t-42.5 229.5q0 127 42.5 231.5t113 170t157.5 101.5t180 36q151 0 267.5 -82.5t164.5 -214.5v278h95zM213 518q0 -107 36 -194t95 -140t131 -81.5t148 -28.5
q80 0 154 30.5t132.5 85.5t93.5 140.5t35 187.5q0 103 -35 189t-93.5 142t-132.5 87t-154 31q-76 0 -148 -29t-131 -83t-95 -141.5t-36 -195.5zM416 1325v84h479v-84h-479z" />
    <glyph glyph-name="aogonek.salt" horiz-adv-x="1308" 
d="M1135 1038v-1038q-199 -138 -199 -252q0 -48 32.5 -72t80.5 -24q46 0 98 33v-82q-42 -31 -109 -31q-84 0 -137 44t-53 114q0 74 57.5 144.5t149.5 125.5h-15v279q-48 -132 -164.5 -213.5t-267.5 -81.5q-93 0 -180 35.5t-157.5 100.5t-113 168.5t-42.5 229.5
q0 127 42.5 231.5t113 170t157.5 101.5t180 36q151 0 267.5 -82.5t164.5 -214.5v278h95zM213 518q0 -107 36 -194t95 -140t131 -81.5t148 -28.5q80 0 154 30.5t132.5 85.5t93.5 140.5t35 187.5q0 103 -35 189t-93.5 142t-132.5 87t-154 31q-76 0 -148 -29t-131 -83
t-95 -141.5t-36 -195.5z" />
    <glyph glyph-name="aring.salt" horiz-adv-x="1308" 
d="M1135 1038v-1038h-95v279q-48 -132 -164.5 -213.5t-267.5 -81.5q-93 0 -180 35.5t-157.5 100.5t-113 168.5t-42.5 229.5q0 127 42.5 231.5t113 170t157.5 101.5t180 36q151 0 267.5 -82.5t164.5 -214.5v278h95zM213 518q0 -107 36 -194t95 -140t131 -81.5t148 -28.5
q80 0 154 30.5t132.5 85.5t93.5 140.5t35 187.5q0 103 -35 189t-93.5 142t-132.5 87t-154 31q-76 0 -148 -29t-131 -83t-95 -141.5t-36 -195.5zM469 1366q0 75 54 128.5t132 53.5q79 0 134 -53.5t55 -128.5q0 -76 -54.5 -128t-134.5 -52q-78 0 -132 52t-54 128zM543 1366
q0 -49 33.5 -81t78.5 -32q46 0 80.5 32t34.5 81t-34.5 81t-80.5 32q-45 0 -78.5 -32t-33.5 -81z" />
    <glyph glyph-name="atilde.salt" horiz-adv-x="1308" 
d="M1135 1038v-1038h-95v279q-48 -132 -164.5 -213.5t-267.5 -81.5q-93 0 -180 35.5t-157.5 100.5t-113 168.5t-42.5 229.5q0 127 42.5 231.5t113 170t157.5 101.5t180 36q151 0 267.5 -82.5t164.5 -214.5v278h95zM213 518q0 -107 36 -194t95 -140t131 -81.5t148 -28.5
q80 0 154 30.5t132.5 85.5t93.5 140.5t35 187.5q0 103 -35 189t-93.5 142t-132.5 87t-154 31q-76 0 -148 -29t-131 -83t-95 -141.5t-36 -195.5zM362 1276v92q15 33 56.5 60.5t91.5 27.5q46 0 100 -25t103.5 -50t85.5 -25q44 0 83 28.5t62 71.5v-90q-15 -34 -56 -62t-91 -28
q-45 0 -98 25.5t-103.5 51t-87.5 25.5q-42 0 -81.5 -29t-64.5 -73z" />
    <glyph glyph-name="uni0430.salt" horiz-adv-x="1308" 
d="M1135 1038v-1038h-95v279q-48 -132 -164.5 -213.5t-267.5 -81.5q-93 0 -180 35.5t-157.5 100.5t-113 168.5t-42.5 229.5q0 127 42.5 231.5t113 170t157.5 101.5t180 36q151 0 267.5 -82.5t164.5 -214.5v278h95zM213 518q0 -107 36 -194t95 -140t131 -81.5t148 -28.5
q80 0 154 30.5t132.5 85.5t93.5 140.5t35 187.5q0 103 -35 189t-93.5 142t-132.5 87t-154 31q-76 0 -148 -29t-131 -83t-95 -141.5t-36 -195.5z" />
    <glyph glyph-name="uni04D1.salt" horiz-adv-x="1308" 
d="M1135 1038v-1038h-95v279q-48 -132 -164.5 -213.5t-267.5 -81.5q-93 0 -180 35.5t-157.5 100.5t-113 168.5t-42.5 229.5q0 127 42.5 231.5t113 170t157.5 101.5t180 36q151 0 267.5 -82.5t164.5 -214.5v278h95zM213 518q0 -107 36 -194t95 -140t131 -81.5t148 -28.5
q80 0 154 30.5t132.5 85.5t93.5 140.5t35 187.5q0 103 -35 189t-93.5 142t-132.5 87t-154 31q-76 0 -148 -29t-131 -83t-95 -141.5t-36 -195.5zM391 1466h84q0 -74 51.5 -126t128.5 -52q79 0 131 52t52 126h82q0 -114 -75.5 -186t-189.5 -72q-112 0 -188 72t-76 186z" />
    <glyph glyph-name="uni04D3.salt" horiz-adv-x="1308" 
d="M1135 1038v-1038h-95v279q-48 -132 -164.5 -213.5t-267.5 -81.5q-93 0 -180 35.5t-157.5 100.5t-113 168.5t-42.5 229.5q0 127 42.5 231.5t113 170t157.5 101.5t180 36q151 0 267.5 -82.5t164.5 -214.5v278h95zM213 518q0 -107 36 -194t95 -140t131 -81.5t148 -28.5
q80 0 154 30.5t132.5 85.5t93.5 140.5t35 187.5q0 103 -35 189t-93.5 142t-132.5 87t-154 31q-76 0 -148 -29t-131 -83t-95 -141.5t-36 -195.5zM401 1368q0 29 21.5 50.5t52.5 21.5q30 0 51 -21t21 -51q0 -31 -20.5 -52.5t-51.5 -21.5t-52.5 21.5t-21.5 52.5zM762 1368
q0 29 21.5 50.5t52.5 21.5q30 0 51.5 -21t21.5 -51q0 -31 -21 -52.5t-52 -21.5t-52.5 21.5t-21.5 52.5z" />
    <glyph glyph-name="zero.tf" horiz-adv-x="1181" 
d="M588 -16q-155 0 -266 91.5t-166.5 254.5t-55.5 381q0 333 128 531t360 198q157 0 268.5 -92t167 -255t55.5 -382q0 -218 -55.5 -381t-167 -254.5t-268.5 -91.5zM199 711q0 -343 129 -510l467 1081q-84 66 -199 66q-129 0 -219.5 -81t-134 -222.5t-43.5 -333.5zM387 139
q85 -63 195 -63q129 0 220.5 80.5t136 222t44.5 332.5q0 343 -129 510z" />
    <glyph glyph-name="one.tf" horiz-adv-x="1181" 
d="M238 88h358v1212l-358 -167v92l454 213v-1350h340v-88h-794v88z" />
    <glyph glyph-name="two.tf" horiz-adv-x="1181" 
d="M129 1272q52 65 163 115.5t247 50.5q186 0 301.5 -104.5t115.5 -274.5q0 -44 -10 -89t-23.5 -82.5t-42 -84.5t-50 -79.5t-64.5 -84t-69 -81.5t-78 -88q-17 -19 -25 -28l-313 -352h782v-90h-975l424 483q14 16 61 69t60.5 69.5t52 61.5t51 64.5t39.5 58.5t37 63.5t24 58.5
t18.5 64.5t4.5 62.5q0 134 -91 212.5t-234 78.5q-130 0 -233 -55t-173 -144v125z" />
    <glyph glyph-name="three.tf" horiz-adv-x="1181" 
d="M545 -16q-153 0 -262.5 44t-161.5 107v127q60 -81 169.5 -133.5t250.5 -52.5q169 0 286 96t117 258q0 112 -59 190.5t-155 115t-218 36.5q-69 0 -121 -8l402 567h-672v90h835l-403 -565q221 -6 355 -121t134 -309q0 -132 -68.5 -234t-181 -155t-247.5 -53z" />
    <glyph glyph-name="four.tf" horiz-adv-x="1181" 
d="M795 932h96v-488h213v-90h-213v-354h-96v354h-766l626 1067h101l-574 -977h613v488z" />
    <glyph glyph-name="five.tf" horiz-adv-x="1181" 
d="M969 1421v-90h-588l-100 -508q109 37 239 37q142 0 253 -49.5t177 -149t66 -233.5q0 -105 -39.5 -190.5t-107.5 -140.5t-156.5 -84t-188.5 -29q-140 0 -246 44.5t-157 108.5v123q63 -82 167 -133t230 -51q169 0 283 92.5t114 259.5q0 166 -113.5 256t-297.5 90
q-182 0 -328 -65l139 712h654z" />
    <glyph glyph-name="six.tf" horiz-adv-x="1181" 
d="M618 918q91 0 174 -35t144.5 -95.5t98 -147.5t36.5 -185q0 -198 -132.5 -334.5t-336.5 -136.5q-143 0 -253 63t-167 168.5t-57 233.5q0 107 36.5 199t108.5 198l387 575h109l-381 -565q97 62 233 62zM223 453q0 -163 107 -270t270 -107t269 107t106 270q0 164 -106 270
t-269 106t-270 -106.5t-107 -269.5z" />
    <glyph glyph-name="seven.tf" horiz-adv-x="1181" 
d="M1065 1421l-721 -1421h-106l684 1333h-803v88h946z" />
    <glyph glyph-name="eight.tf" horiz-adv-x="1181" 
d="M590 -16q-212 0 -351 112t-139 291q0 80 31 148.5t81 113.5t104.5 73t109.5 40q-106 32 -180 117.5t-74 205.5q0 152 117.5 252.5t300.5 100.5q186 0 304 -100.5t118 -252.5q0 -121 -74.5 -207t-179.5 -116q55 -12 109 -40t104 -72.5t81 -113t31 -149.5
q0 -180 -138.5 -291.5t-354.5 -111.5zM199 393q0 -141 110.5 -230t280.5 -89q173 0 284 88.5t111 230.5q0 144 -114.5 232t-280.5 88q-163 0 -277 -89t-114 -231zM270 1077q0 -114 93.5 -196t226.5 -82q136 0 229.5 81.5t93.5 196.5q0 120 -89.5 195.5t-233.5 75.5
q-141 0 -230.5 -75.5t-89.5 -195.5z" />
    <glyph glyph-name="nine.tf" horiz-adv-x="1181" 
d="M563 504q-121 0 -224.5 59t-165.5 166t-62 238q0 198 132.5 334.5t336.5 136.5q143 0 253 -63t167 -168.5t57 -233.5q0 -107 -37 -199t-109 -199l-387 -575h-108l381 565q-96 -61 -234 -61zM207 969q0 -164 106 -270.5t269 -106.5t269.5 107t106.5 270t-106.5 270
t-269.5 107t-269 -107t-106 -270z" />
    <glyph glyph-name="zero.dnom" horiz-adv-x="946" 
d="M838 463q0 -211 -101.5 -342t-263.5 -131t-263 130t-101 343t101 343t263 130t263.5 -131t101.5 -342zM203 463q0 -172 75.5 -279.5t194.5 -107.5q118 0 194 107t76 280q0 174 -75.5 280.5t-194.5 106.5t-194.5 -107.5t-75.5 -279.5z" />
    <glyph glyph-name="one.dnom" 
d="M176 82h238v725l-238 -107v86l330 150v-854h229v-82h-559v82z" />
    <glyph glyph-name="two.dnom" 
d="M104 827q38 43 113.5 76t169.5 33q131 0 212 -71.5t81 -184.5q0 -33 -6 -63.5t-25 -66t-30.5 -56t-46.5 -63t-48 -56.5t-59 -65q-12 -14 -19 -21l-188 -203h492v-86h-676l297 330q118 131 146 169q69 93 69 171q0 83 -58 130.5t-151 47.5q-85 0 -155.5 -35.5
t-117.5 -93.5v108z" />
    <glyph glyph-name="three.dnom" 
d="M391 -10q-105 0 -180 27.5t-113 68.5v111q42 -54 119.5 -87.5t167.5 -33.5q110 0 185 57t75 154q0 99 -79 150.5t-199 51.5q-32 0 -86 -4l258 355h-441v84h588l-266 -363q143 -6 230 -80t87 -198q0 -131 -100 -212t-246 -81z" />
    <glyph glyph-name="four.dnom" 
d="M549 606h90v-299h141v-82h-141v-225h-90v225h-512l407 699h95l-363 -617h373v299z" />
    <glyph glyph-name="five.dnom" 
d="M688 924v-84h-393l-62 -297q64 22 150 22q148 0 244 -75t96 -207q0 -92 -48.5 -159.5t-125.5 -100.5t-170 -33q-95 0 -168.5 28t-108.5 68v107q43 -53 114 -85t157 -32q109 0 181.5 54.5t72.5 152.5t-75 151t-196 53q-123 0 -221 -41l96 478h457z" />
    <glyph glyph-name="six.dnom" horiz-adv-x="851" 
d="M453 604q126 0 217.5 -85.5t91.5 -217.5q0 -131 -92.5 -221t-235.5 -90q-151 0 -242.5 89.5t-91.5 219.5q0 70 25.5 131.5t75.5 134.5l256 359h102l-248 -353q58 33 142 33zM193 301q0 -97 67 -161t170 -64t170.5 64t67.5 161t-67.5 161t-170.5 64t-170 -64t-67 -161z
" />
    <glyph glyph-name="seven.dnom" 
d="M760 924l-484 -924h-102l449 840h-523v84h660z" />
    <glyph glyph-name="eight.dnom" horiz-adv-x="851" 
d="M553 496q82 -18 148.5 -81.5t66.5 -160.5q0 -118 -97 -191t-247 -73q-148 0 -244 73.5t-96 190.5q0 99 66.5 161.5t148.5 80.5q-69 21 -118.5 75t-49.5 131q0 100 83 167t210 67q130 0 213.5 -67t83.5 -167q0 -75 -49 -130.5t-119 -75.5zM180 262q0 -84 69.5 -137
t174.5 -53q109 0 179.5 52.5t70.5 137.5q0 84 -73 137.5t-177 53.5q-101 0 -172.5 -53.5t-71.5 -137.5zM225 694q0 -69 59 -117.5t142 -48.5q86 0 144.5 48.5t58.5 117.5q0 70 -57 115t-146 45q-88 0 -144.5 -45t-56.5 -115z" />
    <glyph glyph-name="nine.dnom" horiz-adv-x="851" 
d="M399 319q-126 0 -217.5 86t-91.5 218q0 131 92.5 221t235.5 90q151 0 242.5 -89.5t91.5 -219.5q0 -70 -25.5 -132.5t-75.5 -134.5l-256 -358h-102l248 352q-58 -33 -142 -33zM184 623q0 -97 67.5 -161.5t170.5 -64.5q102 0 169.5 64.5t67.5 161.5t-67 161t-170 64
t-170.5 -64t-67.5 -161z" />
    <glyph glyph-name="zero.numr" horiz-adv-x="946" 
d="M838 958q0 -211 -101.5 -342t-263.5 -131t-263 130t-101 343t101 343.5t263 130.5t263.5 -131t101.5 -343zM203 958q0 -172 75.5 -279.5t194.5 -107.5q118 0 194 107t76 280q0 174 -75.5 281t-194.5 107t-194.5 -107.5t-75.5 -280.5z" />
    <glyph glyph-name="one.numr" 
d="M176 578h238v725l-238 -107v86l330 150v-854h229v-82h-559v82z" />
    <glyph glyph-name="two.numr" 
d="M104 1323q38 43 113.5 76t169.5 33q131 0 212 -71.5t81 -184.5q0 -64 -34.5 -133t-68.5 -111t-114 -129q-11 -13 -17 -19l-188 -202h492v-86h-676l297 329q118 131 146 169q69 93 69 171q0 83 -58 130.5t-151 47.5q-85 0 -155.5 -35.5t-117.5 -93.5v109z" />
    <glyph glyph-name="three.numr" 
d="M391 485q-105 0 -180 28t-113 69v110q42 -54 119.5 -87.5t167.5 -33.5q110 0 185 57t75 154q0 99 -79 151t-199 52q-32 0 -86 -4l258 354h-441v84h588l-266 -362q143 -6 230 -80.5t87 -198.5q0 -131 -100 -212t-246 -81z" />
    <glyph glyph-name="four.numr" 
d="M549 1102h90v-299h141v-82h-141v-225h-90v225h-512l407 698h95l-363 -616h373v299z" />
    <glyph glyph-name="five.numr" 
d="M688 1419v-84h-393l-62 -297q67 23 150 23q148 0 244 -75.5t96 -207.5q0 -92 -48.5 -159.5t-125.5 -100.5t-170 -33q-95 0 -168 28.5t-109 68.5v106q43 -53 114 -85t157 -32q109 0 181.5 54.5t72.5 152.5t-75 151.5t-196 53.5q-123 0 -221 -41l96 477h457z" />
    <glyph glyph-name="six.numr" horiz-adv-x="851" 
d="M453 1100q126 0 217.5 -85.5t91.5 -217.5q0 -131 -92.5 -221.5t-235.5 -90.5q-151 0 -242.5 90t-91.5 220q0 70 25.5 131.5t75.5 134.5l256 358h102l-248 -352q58 33 142 33zM193 797q0 -97 67.5 -161.5t169.5 -64.5q103 0 170.5 64.5t67.5 161.5t-67.5 161t-170.5 64
t-170 -64t-67 -161z" />
    <glyph glyph-name="seven.numr" 
d="M760 1419l-484 -923h-102l449 839h-523v84h660z" />
    <glyph glyph-name="eight.numr" horiz-adv-x="851" 
d="M553 991q82 -18 148.5 -81t66.5 -160q0 -118 -97 -191.5t-247 -73.5q-148 0 -244 74t-96 191q0 52 20 95.5t53 72.5t69 47t73 26q-69 21 -118.5 75.5t-49.5 131.5q0 100 83 167t210 67q130 0 213.5 -67t83.5 -167q0 -75 -49.5 -131t-118.5 -76zM180 758
q0 -84 69.5 -137.5t174.5 -53.5q109 0 179.5 53t70.5 138q0 84 -73 137t-177 53q-101 0 -172.5 -53t-71.5 -137zM225 1190q0 -69 59 -117.5t142 -48.5q86 0 144.5 48.5t58.5 117.5q0 70 -57 115t-146 45q-88 0 -144.5 -45t-56.5 -115z" />
    <glyph glyph-name="nine.numr" horiz-adv-x="851" 
d="M399 815q-126 0 -217.5 85.5t-91.5 217.5q0 131 92.5 221.5t235.5 90.5q151 0 242.5 -90t91.5 -220q0 -70 -25.5 -131.5t-75.5 -134.5l-256 -358h-102l248 352q-58 -33 -142 -33zM184 1118q0 -97 67.5 -161t170.5 -64t170 64t67 161t-67 161t-170 64t-170.5 -64
t-67.5 -161z" />
    <glyph glyph-name="colon.case" horiz-adv-x="428" 
d="M213 1225q32 0 55 -22.5t23 -53.5q0 -32 -23 -55t-55 -23t-54 23t-22 55q0 31 22 53.5t54 22.5zM137 276q0 31 22 53.5t54 22.5t55 -22.5t23 -53.5q0 -32 -23 -54.5t-55 -22.5t-54 22.5t-22 54.5z" />
    <glyph glyph-name="slash.case" horiz-adv-x="909" 
d="M862 1602l-721 -1782h-94l721 1782h94z" />
    <glyph glyph-name="backslash.case" horiz-adv-x="909" 
d="M47 1602h94l721 -1782h-94z" />
    <glyph glyph-name="hyphen.case" horiz-adv-x="825" 
d="M692 754v-88h-561v88h561z" />
    <glyph glyph-name="endash.case" horiz-adv-x="1024" 
d="M1024 752v-84h-1024v84h1024z" />
    <glyph glyph-name="emdash.case" horiz-adv-x="2048" 
d="M2048 752v-84h-2048v84h2048z" />
    <glyph glyph-name="parenleft.case" horiz-adv-x="661" 
d="M582 1638q-154 -177 -252.5 -419.5t-98.5 -507.5q0 -266 99 -509t252 -419h-101q-65 72 -124 165t-111 210.5t-82.5 261.5t-30.5 291q0 146 30.5 289.5t82 261t110.5 211.5t125 165h101z" />
    <glyph glyph-name="parenright.case" horiz-adv-x="661" 
d="M80 -217q153 177 251.5 420t98.5 508q0 266 -98.5 508.5t-251.5 418.5h100q65 -72 124 -165t111 -210.5t82.5 -261t30.5 -290.5q0 -146 -30.5 -290t-82 -261.5t-110.5 -211.5t-125 -165h-100z" />
    <glyph glyph-name="braceleft.case" horiz-adv-x="784" 
d="M623 1550q-50 0 -89 -11.5t-72.5 -38.5t-52 -79t-18.5 -127v-317q0 -136 -42.5 -194.5t-127.5 -71.5q84 -13 127 -72.5t43 -196.5v-315q0 -75 18.5 -127t52 -79t72.5 -38.5t89 -11.5h69v-88h-74q-66 0 -120 16t-101 53t-73.5 107t-26.5 168v315q0 129 -43 177.5
t-139 48.5h-37v86h37q97 0 139.5 48t42.5 177v315q0 98 26.5 168t73.5 107t101 53t120 16h74v-88h-69z" />
    </font>
</defs>
</svg>
