<?xml version="1.0" standalone="no"?>
<!DOCTYPE svg PUBLIC "-//W3C//DTD SVG 1.1//EN" "http://www.w3.org/Graphics/SVG/1.1/DTD/svg11.dtd" >
<svg xmlns="http://www.w3.org/2000/svg" xmlns:xlink="http://www.w3.org/1999/xlink" version="1.1">
<metadata>
Created by FontForge 20170731 at Tue Jul 26 11:27:56 2022
 By Aleksey,,,
Copyright (c) 2022 by Art. Lebedev Studio. All rights reserved.
</metadata>
<defs>
<font id="ALSGranate-Regular" horiz-adv-x="1112" >
  <font-face 
    font-family="ALS Granate"
    font-weight="400"
    font-stretch="normal"
    units-per-em="2048"
    panose-1="0 0 0 0 0 0 0 0 0 0"
    ascent="1638"
    descent="-410"
    x-height="1053"
    cap-height="1421"
    bbox="-287 -514 2562 2011"
    underline-thickness="167"
    underline-position="-455"
    unicode-range="U+0020-277E"
  />
<missing-glyph horiz-adv-x="1146" 
d="M940 1843v-2294h-727v2294h727zM383 -293h381v76h-234l160 108h74v76h-381v-76h160l-160 -108v-76zM383 20h381v259h-381v-259zM383 416h381v260h-229v-129h77v53h76v-108h-229v184h-76v-260zM383 727h381v229h-76v-151h-305v-78zM383 856h229v162h152v76h-381v-76h152
v-86h-152v-76zM383 1155h381v78h-152v160h-229v-238zM383 1454h381v76h-152v84h152v76h-379v-76h150v-84h-152v-76zM459 96v107h229v-107h-229zM459 1233v82h76v-82h-76z" />
    <glyph glyph-name=".notdef" horiz-adv-x="1146" 
d="M940 1843v-2294h-727v2294h727zM383 -293h381v76h-234l160 108h74v76h-381v-76h160l-160 -108v-76zM383 20h381v259h-381v-259zM383 416h381v260h-229v-129h77v53h76v-108h-229v184h-76v-260zM383 727h381v229h-76v-151h-305v-78zM383 856h229v162h152v76h-381v-76h152
v-86h-152v-76zM383 1155h381v78h-152v160h-229v-238zM383 1454h381v76h-152v84h152v76h-379v-76h150v-84h-152v-76zM459 96v107h229v-107h-229zM459 1233v82h76v-82h-76z" />
    <glyph glyph-name=".null" horiz-adv-x="0" 
 />
    <glyph glyph-name="nonmarkingreturn" horiz-adv-x="682" 
 />
    <glyph glyph-name="space" unicode=" " horiz-adv-x="491" 
 />
    <glyph glyph-name="exclam" unicode="!" horiz-adv-x="544" 
d="M367 1421l-21 -1013h-145l-21 1013h187zM150 104q0 52 35.5 87.5t86.5 35.5t87 -35.5t36 -87.5t-36 -87t-87 -35t-86.5 35t-35.5 87z" />
    <glyph glyph-name="quotedbl" unicode="&#x22;" horiz-adv-x="798" 
d="M666 1421v-522h-172v522h172zM133 899v522h172v-522h-172z" />
    <glyph glyph-name="numbersign" unicode="#" horiz-adv-x="1318" 
d="M455 1421h157l-61 -391h323l64 391h158l-62 -391h228l-23 -156h-229l-56 -348h230l-21 -155h-233l-60 -371h-159l59 371h-324l-59 -371h-160l60 371h-230l23 155h231l56 348h-232l23 156h233zM471 526h324l55 348h-324z" />
    <glyph glyph-name="dollar" unicode="$" horiz-adv-x="1255" 
d="M563 -225v227q-150 10 -262 55.5t-166 102.5v229q66 -85 174 -146t254 -73v483l-82 27q-50 16 -90.5 33t-90.5 48.5t-84 68t-57.5 92t-23.5 120.5q0 81 36.5 150.5t97.5 115.5t136.5 74.5t157.5 36.5v217h152v-217q120 -14 212 -58t140 -97v-230q-60 77 -150.5 135.5
t-201.5 77.5v-461l51 -16q42 -14 74.5 -26t73.5 -31.5t71.5 -40t61 -49.5t50 -61.5t32 -76t12.5 -92.5q0 -171 -118 -271t-308 -118v-229h-152zM326 1053q0 -47 18 -82.5t53 -59.5t66 -38t78 -29l22 -8v417q-109 -12 -173 -64.5t-64 -135.5zM715 174q109 14 172 68.5
t63 142.5q0 49 -18 85.5t-55 61.5t-69.5 39t-86.5 31l-6 2v-430z" />
    <glyph glyph-name="percent" unicode="%" horiz-adv-x="1789" 
d="M317 0l969 1421h187l-969 -1421h-187zM78 1069q0 158 109.5 264.5t258.5 106.5q150 0 259.5 -106.5t109.5 -264.5t-109.5 -264.5t-259.5 -106.5q-149 0 -258.5 106.5t-109.5 264.5zM233 1069q0 -95 63 -159t150 -64t150 64t63 159t-63 159t-150 64t-150 -64t-63 -159z
M975 352q0 158 109.5 264.5t258.5 106.5q150 0 259.5 -106.5t109.5 -264.5t-109.5 -264t-259.5 -106t-259 106t-109 264zM1130 352q0 -95 63 -159t150 -64t150 64t63 159t-63 159t-150 64t-150 -64t-63 -159z" />
    <glyph glyph-name="ampersand" unicode="&#x26;" horiz-adv-x="1460" 
d="M84 383q0 268 328 428q-158 141 -158 299q0 135 102 232.5t256 97.5q151 0 250 -95.5t99 -234.5q0 -57 -24.5 -110.5t-66 -95t-86 -73t-94.5 -55.5l295 -309l207 258h203l-299 -375l334 -350h-238l-205 217q-97 -108 -207.5 -171.5t-257.5 -63.5q-183 0 -310.5 113.5
t-127.5 287.5zM264 395q0 -107 76 -174t192 -67q185 0 345 180l-351 371q-54 -27 -95.5 -54.5t-82 -65.5t-62.5 -86.5t-22 -103.5zM428 1116q0 -61 37 -115.5t113 -121.5q210 103 210 235q0 72 -52 121t-126 49q-76 0 -129 -47.5t-53 -120.5z" />
    <glyph glyph-name="quotesingle" unicode="'" horiz-adv-x="438" 
d="M305 1421v-522h-172v522h172z" />
    <glyph glyph-name="parenleft" unicode="(" horiz-adv-x="688" 
d="M637 1534q-143 -177 -240.5 -423.5t-97.5 -504.5t98 -506t240 -422h-186q-142 159 -240 404t-98 524q0 278 98 523.5t240 404.5h186z" />
    <glyph glyph-name="parenright" unicode=")" horiz-adv-x="688" 
d="M51 -322q143 177 240.5 423.5t97.5 504.5t-98 506t-240 422h187q142 -159 239.5 -404t97.5 -524q0 -278 -97.5 -524t-239.5 -404h-187z" />
    <glyph glyph-name="asterisk" unicode="*" horiz-adv-x="980" 
d="M416 1505h149l-16 -286l244 155l71 -127l-256 -129l256 -133l-71 -127l-244 158l16 -291h-149l14 289l-242 -156l-71 127l256 133l-256 129l71 127l242 -153z" />
    <glyph glyph-name="plus" unicode="+" horiz-adv-x="1067" 
d="M102 692h349v346h165v-346h349v-155h-349v-353h-165v353h-349v155z" />
    <glyph glyph-name="comma" unicode="," horiz-adv-x="462" 
d="M336 209l-172 -475h-144l140 475h176z" />
    <glyph glyph-name="hyphen" unicode="-" horiz-adv-x="811" 
d="M694 696v-170h-577v170h577z" />
    <glyph glyph-name="period" unicode="." horiz-adv-x="462" 
d="M231 227q51 0 87 -35.5t36 -87.5t-36 -87t-87 -35t-86.5 35t-35.5 87t35.5 87.5t86.5 35.5z" />
    <glyph glyph-name="slash" unicode="/" horiz-adv-x="933" 
d="M893 1532l-674 -1782h-178l674 1782h178z" />
    <glyph glyph-name="zero" unicode="0" horiz-adv-x="1335" 
d="M668 -18q-163 0 -287.5 92.5t-192 258t-67.5 378.5t67.5 379t192 259t287.5 93t287.5 -93t191.5 -258.5t67 -379.5q0 -213 -67 -378.5t-191.5 -258t-287.5 -92.5zM311 711q0 -250 97.5 -400.5t259.5 -150.5t259 151t97 400q0 252 -96 402.5t-260 150.5t-260.5 -151
t-96.5 -402z" />
    <glyph glyph-name="one" unicode="1" horiz-adv-x="880" 
d="M612 1440v-1440h-186v1184l-348 -162v172z" />
    <glyph glyph-name="two" unicode="2" horiz-adv-x="1196" 
d="M119 1276q59 66 172 115t260 49q207 0 330 -111t123 -293q0 -33 -6 -67t-13.5 -62.5t-25.5 -64.5t-29.5 -59.5t-39 -61t-41.5 -57t-48 -60t-47.5 -56.5t-52 -59.5t-50.5 -56.5l-229 -260h665v-172h-1030l455 528q21 24 68.5 78.5t66.5 77t54 66.5t50 70.5t33.5 63.5
t25.5 70.5t7 69.5q0 112 -77.5 176t-202.5 64q-130 0 -238.5 -63t-179.5 -157v232z" />
    <glyph glyph-name="three" unicode="3" horiz-adv-x="1175" 
d="M535 -18q-159 0 -274 46.5t-171 116.5v234q66 -94 185 -156.5t253 -62.5q88 0 161 30t122 97.5t49 161.5q0 73 -30.5 129t-83 88.5t-116 48.5t-136.5 16q-93 0 -154 -12l340 532h-590v170h883l-340 -536q188 -24 301 -142.5t113 -300.5q0 -138 -70 -244t-186 -161
t-256 -55z" />
    <glyph glyph-name="four" unicode="4" horiz-adv-x="1234" 
d="M782 932h183v-432h192v-172h-192v-328h-183v328h-737l557 1093h189l-469 -923l460 2v432z" />
    <glyph glyph-name="five" unicode="5" horiz-adv-x="1114" 
d="M950 1421v-172h-559l-78 -393q86 25 183 25q234 0 374 -120t140 -323q0 -109 -42 -197.5t-113 -144t-160.5 -85t-188.5 -29.5q-151 0 -265 47.5t-169 120.5v223q74 -103 183 -158t241 -55q87 0 159.5 29t120 93.5t47.5 155.5q0 135 -98 208t-262 73q-190 0 -352 -62
l153 764h686z" />
    <glyph glyph-name="six" unicode="6" horiz-adv-x="1196" 
d="M643 940q118 0 222 -58t168.5 -167t64.5 -244q0 -99 -37 -189t-100.5 -156t-154.5 -105t-194 -39q-151 0 -267 66t-175 173t-59 234q0 62 10.5 119t23 97t41 92.5t47.5 81.5t58 87l338 489h209l-346 -503q68 22 151 22zM295 467q0 -135 89 -221t222 -86t221 86t88 221
t-88 221t-221 86t-222 -86.5t-89 -220.5z" />
    <glyph glyph-name="seven" unicode="7" horiz-adv-x="1155" 
d="M1096 1421l-713 -1421h-209l645 1251h-735v170h1012z" />
    <glyph glyph-name="eight" unicode="8" horiz-adv-x="1198" 
d="M598 -18q-143 0 -259 49t-185.5 144.5t-69.5 221.5q0 141 80.5 234.5t210.5 132.5q-108 41 -165.5 121.5t-57.5 189.5q0 159 125.5 262t320.5 103q196 0 322.5 -103t126.5 -262q0 -112 -59 -191t-165 -120q129 -40 210 -133t81 -234q0 -126 -69.5 -221.5t-186 -144.5
t-260.5 -49zM272 414q0 -117 93 -188.5t233 -71.5q141 0 234.5 71t93.5 189q0 113 -95 185.5t-233 72.5t-232 -72t-94 -186zM340 1053q0 -92 76.5 -155.5t181.5 -63.5q106 0 183 63.5t77 155.5q0 97 -71.5 156t-188.5 59q-116 0 -187 -59t-71 -156z" />
    <glyph glyph-name="nine" unicode="9" horiz-adv-x="1196" 
d="M553 483q-118 0 -222 58t-168.5 167t-64.5 244q0 133 62 245t174.5 178.5t249.5 66.5q151 0 267 -66t175 -173t59 -234q0 -62 -10.5 -119t-23 -97t-41 -92.5t-47.5 -81.5t-58 -87l-338 -490h-209l347 504q-71 -23 -152 -23zM281 956q0 -135 88 -221t221 -86t222 86.5
t89 220.5q0 135 -89 221.5t-222 86.5t-221 -86.5t-88 -221.5z" />
    <glyph glyph-name="colon" unicode=":" horiz-adv-x="462" 
d="M231 1038q51 0 87 -35.5t36 -87.5t-36 -87t-87 -35t-86.5 35t-35.5 87t35.5 87.5t86.5 35.5zM109 104q0 52 35.5 87.5t86.5 35.5t87 -35.5t36 -87.5t-36 -87t-87 -35t-86.5 35t-35.5 87z" />
    <glyph glyph-name="semicolon" unicode=";" horiz-adv-x="462" 
d="M231 1038q51 0 87 -35.5t36 -87.5t-36 -87t-87 -35t-86.5 35t-35.5 87t35.5 87.5t86.5 35.5zM20 -266l140 475h176l-172 -475h-144z" />
    <glyph glyph-name="less" unicode="&#x3c;" horiz-adv-x="878" 
d="M756 106l-707 492l707 496v-185l-447 -313l447 -305v-185z" />
    <glyph glyph-name="equal" unicode="=" horiz-adv-x="1030" 
d="M928 883v-160h-826v160h826zM102 344v158h826v-158h-826z" />
    <glyph glyph-name="greater" unicode="&#x3e;" horiz-adv-x="878" 
d="M123 1094l706 -492l-706 -496v185l446 313l-446 305v185z" />
    <glyph glyph-name="question" unicode="?" horiz-adv-x="931" 
d="M295 723q38 7 80.5 21t94 41.5t91.5 63.5t67 91t27 119q0 102 -66 156.5t-163 54.5q-102 0 -199 -58.5t-161 -154.5v219q58 70 152.5 117t215.5 47q187 0 297.5 -103t110.5 -274q0 -301 -375 -440v-215h-172v315zM258 104q0 52 36 87.5t87 35.5t87 -35.5t36 -87.5
t-36 -87t-87 -35t-87 35t-36 87z" />
    <glyph glyph-name="at" unicode="@" horiz-adv-x="1824" 
d="M1147 995h164v-522q0 -51 26.5 -81t73.5 -30q68 0 113 78t45 219q0 174 -81.5 311t-225 212t-324.5 75q-133 0 -254 -48t-212.5 -132.5t-145.5 -209.5t-54 -271q0 -139 52 -258t140 -199.5t205.5 -126t248.5 -45.5q137 0 240.5 43t152.5 92v-176q-43 -45 -150.5 -76.5
t-251.5 -31.5q-153 0 -296 56t-254 155.5t-177.5 247.5t-66.5 319q0 143 44 271t122 225.5t181 169t225.5 108.5t250.5 37q218 0 398 -95t284 -264t104 -376q0 -215 -89 -340t-240 -125q-88 0 -154.5 47.5t-85.5 120.5q-35 -67 -101.5 -112.5t-168.5 -45.5q-63 0 -126 25.5
t-116.5 73.5t-87 127t-33.5 175t33.5 175t87 127t116.5 74t126 26q96 0 161 -42t101 -104v121zM696 618q0 -114 66 -185t158 -71q93 0 160 71t67 185t-67 184t-160 70q-92 0 -158 -70t-66 -184z" />
    <glyph glyph-name="A" unicode="A" horiz-adv-x="1468" 
d="M51 0l684 1440l682 -1440h-198l-179 379h-616l-178 -379h-195zM504 551h457l-228 487z" />
    <glyph glyph-name="B" unicode="B" horiz-adv-x="1265" 
d="M188 0v1421h469q201 0 322 -100t121 -266q0 -119 -57 -193t-150 -108q53 -13 100 -39.5t88 -67.5t65.5 -102t24.5 -135q0 -198 -135 -304t-362 -106h-486zM369 172h301q142 0 228.5 61.5t86.5 178.5t-86 177t-229 60h-301v-477zM369 819h270q274 0 274 219
q0 100 -72 155.5t-202 55.5h-270v-430z" />
    <glyph glyph-name="C" unicode="C" horiz-adv-x="1445" 
d="M1315 1038q-79 93 -198 158.5t-269 65.5q-109 0 -209 -40.5t-174.5 -112t-119 -175.5t-44.5 -223q0 -161 76 -288.5t200 -195t271 -67.5q150 0 269.5 65t197.5 158v-233q-164 -168 -469 -168q-150 0 -282.5 51t-232.5 143t-158 230.5t-58 304.5q0 156 61 293.5t162 232
t234 149t274 54.5q305 0 469 -168v-234z" />
    <glyph glyph-name="D" unicode="D" horiz-adv-x="1470" 
d="M598 1421q128 0 241 -27.5t208 -85t163.5 -140.5t107 -199.5t38.5 -257.5t-38.5 -258t-107 -200.5t-163.5 -140.5t-208 -84.5t-241 -27.5h-410v1421h410zM369 172h229q90 0 172.5 20t155.5 63t127 105t85 152t31 199q0 108 -31 198t-85 152t-127 105t-155.5 63t-172.5 20
h-229v-1077z" />
    <glyph glyph-name="E" unicode="E" horiz-adv-x="1175" 
d="M188 0v1421h856v-172h-675v-442h639v-170h-639v-465h675v-172h-856z" />
    <glyph glyph-name="F" unicode="F" horiz-adv-x="1150" 
d="M369 0h-181v1421h852v-172h-671v-477h635v-170h-635v-602z" />
    <glyph glyph-name="G" unicode="G" horiz-adv-x="1548" 
d="M821 -18q-105 0 -205.5 28.5t-191.5 88.5t-159.5 144.5t-109 205t-40.5 262.5q0 161 62.5 299.5t167.5 231.5t243.5 145.5t290.5 52.5q333 0 497 -168v-234q-80 94 -202.5 159t-288.5 65q-118 0 -223.5 -37.5t-186 -106t-127.5 -175t-47 -236.5t45 -236.5t119.5 -173.5
t167.5 -103t194 -36q121 0 216 41.5t152.5 127.5t57.5 203v64h-483v172h664v-215q0 -174 -85 -305.5t-223 -197.5t-305 -66z" />
    <glyph glyph-name="H" unicode="H" horiz-adv-x="1515" 
d="M1147 1421h180v-1421h-180v649h-778v-649h-181v1421h181v-600h778v600z" />
    <glyph glyph-name="I" unicode="I" horiz-adv-x="557" 
d="M369 1421v-1421h-181v1421h181z" />
    <glyph glyph-name="J" unicode="J" horiz-adv-x="780" 
d="M420 1421h180v-1042q0 -188 -91 -283.5t-269 -95.5h-168v172h157q96 0 143.5 50.5t47.5 172.5v1026z" />
    <glyph glyph-name="K" unicode="K" horiz-adv-x="1308" 
d="M1001 1421h232l-621 -659l666 -762h-246l-663 750zM188 0v1421h181v-1421h-181z" />
    <glyph glyph-name="L" unicode="L" 
d="M369 1421v-1249h671v-172h-852v1421h181z" />
    <glyph glyph-name="M" unicode="M" horiz-adv-x="1761" 
d="M188 0v1440l703 -774l682 774v-1440h-180v985l-502 -575l-522 579v-989h-181z" />
    <glyph glyph-name="N" unicode="N" horiz-adv-x="1533" 
d="M188 1440l979 -1016v997h179v-1439l-979 1015v-997h-179v1440z" />
    <glyph glyph-name="O" unicode="O" horiz-adv-x="1648" 
d="M825 160q224 0 373.5 157.5t149.5 393.5t-149.5 393.5t-373.5 157.5q-225 0 -374.5 -157t-149.5 -394t149.5 -394t374.5 -157zM115 711q0 204 93 371t255.5 262.5t361.5 95.5q148 0 279.5 -56t225.5 -152.5t149 -232t55 -288.5t-55 -288.5t-149 -232t-225.5 -152.5
t-279.5 -56q-199 0 -361.5 95.5t-255.5 262.5t-93 371z" />
    <glyph glyph-name="P" unicode="P" horiz-adv-x="1208" 
d="M623 729q152 0 230.5 71t78.5 191q0 118 -78.5 188t-230.5 70h-254v-520h254zM188 0v1421h447q224 0 353.5 -112t129.5 -318q0 -207 -131.5 -320.5t-351.5 -113.5h-266v-557h-181z" />
    <glyph glyph-name="Q" unicode="Q" horiz-adv-x="1648" 
d="M825 160q49 0 107 10l-178 283h204l138 -220q117 71 184.5 197t67.5 281q0 236 -149.5 393.5t-373.5 157.5q-225 0 -374.5 -157t-149.5 -394t149.5 -394t374.5 -157zM115 711q0 204 93 371t255.5 262.5t361.5 95.5q148 0 279.5 -56t225.5 -152.5t149 -232t55 -288.5
q0 -201 -91.5 -367.5t-248.5 -261.5l178 -283h-207l-133 211q-103 -28 -207 -28q-199 0 -361.5 95.5t-255.5 262.5t-93 371z" />
    <glyph glyph-name="R" unicode="R" horiz-adv-x="1310" 
d="M188 0v1421h447q224 0 353.5 -112t129.5 -318q0 -146 -77 -250t-207 -151l436 -590h-221l-416 557h-264v-557h-181zM369 729h254q152 0 230.5 71t78.5 191q0 118 -78.5 188t-230.5 70h-254v-520z" />
    <glyph glyph-name="S" unicode="S" horiz-adv-x="1234" 
d="M1049 1042q-71 94 -185.5 160t-251.5 66q-127 0 -208.5 -56t-81.5 -151q0 -39 13 -71t32 -52.5t53 -40t61.5 -30.5t73.5 -27l197 -68q60 -21 105.5 -40.5t97.5 -52.5t86 -71t56.5 -94t22.5 -123q0 -130 -67.5 -224t-177 -139.5t-246.5 -45.5q-176 0 -305.5 49t-188.5 114
v234q73 -96 195.5 -160.5t292.5 -64.5q137 0 224 60t87 163q0 34 -8 62t-27 49.5t-36.5 36.5t-52 30.5t-56 23.5t-64.5 23l-217 74q-66 22 -119 49t-106 70t-83 106t-30 141q0 91 43 168t112 126t154 76.5t172 27.5q147 0 260.5 -49t172.5 -115v-234z" />
    <glyph glyph-name="T" unicode="T" horiz-adv-x="1294" 
d="M72 1249v172h1151v-172h-486v-1249h-180v1249h-485z" />
    <glyph glyph-name="U" unicode="U" horiz-adv-x="1495" 
d="M358 555q0 -186 110.5 -293.5t279.5 -107.5t279 107.5t110 293.5v866h180v-876q0 -257 -156.5 -410t-412.5 -153t-413 153t-157 410v876h180v-866z" />
    <glyph glyph-name="V" unicode="V" horiz-adv-x="1427" 
d="M248 1421l469 -1015l465 1015h194l-661 -1439l-664 1439h197z" />
    <glyph glyph-name="W" unicode="W" horiz-adv-x="1910" 
d="M248 1421l338 -948l370 967l373 -963l334 944h186l-510 -1439l-385 1005l-383 -1005l-510 1439h187z" />
    <glyph glyph-name="X" unicode="X" horiz-adv-x="1417" 
d="M287 1421l426 -567l417 567h222l-521 -700l535 -721h-225l-436 592l-433 -592h-221l537 723l-522 698h221z" />
    <glyph glyph-name="Y" unicode="Y" horiz-adv-x="1359" 
d="M31 1421h209l440 -663l440 663h209l-559 -858v-563h-180v563z" />
    <glyph glyph-name="Z" unicode="Z" horiz-adv-x="1372" 
d="M141 1421h1110l-815 -1249h815v-172h-1130l809 1249h-789v172z" />
    <glyph glyph-name="bracketleft" unicode="[" horiz-adv-x="755" 
d="M664 1534v-170h-302v-1516h302v-170h-480v1856h480z" />
    <glyph glyph-name="backslash" unicode="\" horiz-adv-x="933" 
d="M41 1532h178l674 -1782h-178z" />
    <glyph glyph-name="bracketright" unicode="]" horiz-adv-x="755" 
d="M92 -322v170h301v1516h-301v170h479v-1856h-479z" />
    <glyph glyph-name="asciicircum" unicode="^" horiz-adv-x="1069" 
d="M532 1440l455 -699h-184l-268 420l-271 -420h-182z" />
    <glyph glyph-name="underscore" unicode="_" horiz-adv-x="968" 
d="M969 -121v-168h-969v168h969z" />
    <glyph glyph-name="grave" unicode="`" horiz-adv-x="1228" 
d="M315 1530h201l299 -326h-201z" />
    <glyph glyph-name="a" unicode="a" horiz-adv-x="1124" 
d="M168 950q45 45 148 83t210 38q214 0 331.5 -113t117.5 -309v-649h-176v184q-34 -81 -131 -141.5t-228 -60.5q-152 0 -255 85t-103 236q0 74 30.5 133t83 97t113.5 61.5t131 34.5l359 55q-9 100 -89 158.5t-184 58.5q-103 0 -203.5 -46t-154.5 -114v209zM264 309
q0 -78 62 -120t155 -42q111 0 214.5 80.5t103.5 178.5v122l-318 -49q-58 -9 -103.5 -26.5t-79.5 -55t-34 -88.5z" />
    <glyph glyph-name="b" unicode="b" horiz-adv-x="1306" 
d="M338 1534v-686q48 98 144 161.5t237 63.5q92 0 179 -37t156 -105t110.5 -173t41.5 -230t-41.5 -230.5t-110.5 -173t-156 -105t-179 -37.5q-140 0 -236.5 64.5t-144.5 162.5v-209h-178v1534h178zM338 528q0 -89 30 -162.5t80 -119t110 -70t124 -24.5q61 0 120.5 24.5
t109 70t80 119t30.5 162.5t-30.5 162.5t-80 118.5t-109 69.5t-120.5 24.5q-64 0 -124 -24.5t-110 -69.5t-80 -118.5t-30 -162.5z" />
    <glyph glyph-name="c" unicode="c" 
d="M1012 717q-156 180 -359 180q-156 0 -263 -102.5t-107 -268.5t106.5 -268t263.5 -102q203 0 359 180v-223q-126 -131 -359 -131q-106 0 -205.5 39t-177 108t-124 172.5t-46.5 224.5t46.5 224.5t124 173t177 108.5t205.5 39q233 0 359 -131v-223z" />
    <glyph glyph-name="d" unicode="d" horiz-adv-x="1306" 
d="M1147 1534v-1534h-178v207q-48 -98 -144 -161.5t-237 -63.5q-92 0 -179 37t-156 104.5t-111 172.5t-42 230t42 230.5t111 173.5t156 105.5t179 37.5q140 0 236.5 -64.5t144.5 -162.5v688h178zM285 526q0 -89 30.5 -162.5t80 -118.5t109 -69t120.5 -24q64 0 124 24t110 69
t80 118.5t30 162.5t-30 162.5t-80 119.5t-110 70.5t-124 24.5q-61 0 -120.5 -24.5t-109 -70t-80 -119.5t-30.5 -163z" />
    <glyph glyph-name="e" unicode="e" horiz-adv-x="1185" 
d="M659 -18q-109 0 -208.5 36.5t-178.5 104.5t-125.5 175.5t-46.5 238.5q0 239 146.5 386.5t363.5 147.5q213 0 344 -138.5t131 -363.5v-94h-798q7 -96 61 -171.5t135.5 -114.5t175.5 -39q227 0 383 180v-217q-126 -131 -383 -131zM291 631h610q-9 123 -90 198.5t-205 75.5
q-70 0 -129.5 -25.5t-98 -66t-61 -87.5t-26.5 -95z" />
    <glyph glyph-name="f" unicode="f" horiz-adv-x="747" 
d="M709 883h-291v-883h-178v883h-201v170h201v168q0 141 85 227t226 86h158v-170h-142q-67 0 -108 -42.5t-41 -119.5v-149h291v-170z" />
    <glyph glyph-name="g" unicode="g" horiz-adv-x="1116" 
d="M418 -442q-155 0 -256 77t-101 211q0 86 48.5 143.5t126.5 82.5q-62 55 -62 133q0 54 31 98t82 66q-81 52 -127.5 135t-46.5 184q0 165 115.5 274t285.5 109q68 0 127 -18h424v-160h-209q59 -86 59 -205q0 -165 -115.5 -275t-285.5 -110q-62 0 -111 14q-49 -21 -49 -71
q0 -32 26.5 -53t72.5 -21h243q76 0 139 -17.5t113 -53t78.5 -96.5t28.5 -142q0 -76 -31.5 -136t-85 -96t-120.5 -54.5t-142 -18.5h-258zM252 -139q0 -68 52 -106t138 -38h250q76 0 124 38t48 108t-48 107.5t-124 37.5h-286q-67 0 -110.5 -43.5t-43.5 -103.5zM289 688
q0 -96 65 -158.5t160 -62.5t160 62.5t65 158.5q0 94 -65 156.5t-160 62.5t-160 -62.5t-65 -156.5z" />
    <glyph glyph-name="h" unicode="h" horiz-adv-x="1226" 
d="M338 1534v-655q39 82 130.5 137t209.5 55q78 0 147.5 -25t127 -75t91 -135t33.5 -195v-641h-178v592q0 81 -22.5 141.5t-61.5 95t-86.5 51.5t-101.5 17q-114 0 -201.5 -84t-87.5 -231v-582h-178v1534h178z" />
    <glyph glyph-name="i" unicode="i" horiz-adv-x="497" 
d="M338 1053v-1053h-178v1053h178zM133 1368q0 48 34 81.5t83 33.5t83 -33.5t34 -81.5t-34 -81.5t-83 -33.5t-83 33.5t-34 81.5z" />
    <glyph glyph-name="j" unicode="j" horiz-adv-x="501" 
d="M164 1053h178v-1182q0 -141 -85 -227t-226 -86h-137v170h120q67 0 108.5 42t41.5 119v1164zM137 1368q0 48 34 81.5t83 33.5t83 -33.5t34 -81.5t-34 -81.5t-83 -33.5t-83 33.5t-34 81.5z" />
    <glyph glyph-name="k" unicode="k" horiz-adv-x="1054" 
d="M338 1534v-1534h-178v1534h178zM338 561l457 492h221l-453 -486l477 -567h-225z" />
    <glyph glyph-name="l" unicode="l" horiz-adv-x="497" 
d="M338 1534v-1534h-178v1534h178z" />
    <glyph glyph-name="m" unicode="m" horiz-adv-x="1832" 
d="M338 1053v-174q28 81 112 136.5t199 55.5q106 0 195.5 -55t132.5 -166q25 95 118 158t210 63q74 0 139.5 -23t120 -70t86.5 -128.5t32 -187.5v-662h-178v629q0 136 -68 202t-173 66t-179.5 -77t-74.5 -197v-623h-176v621q0 137 -69.5 206.5t-172.5 69.5
q-106 0 -180 -76.5t-74 -195.5v-625h-178v1053h178z" />
    <glyph glyph-name="n" unicode="n" horiz-adv-x="1226" 
d="M338 1053v-174q39 82 130.5 137t209.5 55q78 0 147.5 -25t127 -75t91 -135t33.5 -195v-641h-178v592q0 81 -22.5 141.5t-61.5 95t-86.5 51.5t-101.5 17q-114 0 -201.5 -84t-87.5 -231v-582h-178v1053h178z" />
    <glyph glyph-name="o" unicode="o" horiz-adv-x="1265" 
d="M633 -18q-224 0 -378.5 158t-154.5 388q0 150 70.5 275t193 196.5t269.5 71.5q110 0 209 -42.5t169.5 -114.5t112 -172.5t41.5 -213.5q0 -230 -154 -388t-378 -158zM283 528q0 -158 100.5 -265t249.5 -107t249.5 107t100.5 265q0 157 -100.5 263t-249.5 106t-249.5 -106
t-100.5 -263z" />
    <glyph glyph-name="p" unicode="p" horiz-adv-x="1306" 
d="M338 1053v-205q48 98 144 161.5t237 63.5q92 0 179 -37t156 -105t110.5 -173t41.5 -230t-41.5 -230.5t-110.5 -173t-156 -105t-179 -37.5q-140 0 -236.5 64.5t-144.5 162.5v-651h-178v1495h178zM338 528q0 -89 30 -162.5t80 -119t110 -70t124 -24.5q61 0 120.5 24.5
t109 70t80 119t30.5 162.5t-30.5 162.5t-80 118.5t-109 69.5t-120.5 24.5q-64 0 -124 -24.5t-110 -69.5t-80 -118.5t-30 -162.5z" />
    <glyph glyph-name="q" unicode="q" horiz-adv-x="1306" 
d="M1147 1053v-1495h-178v649q-48 -98 -144 -161.5t-237 -63.5q-92 0 -179 37t-156 104.5t-111 172.5t-42 230t42 230.5t111 173.5t156 105.5t179 37.5q140 0 236.5 -64.5t144.5 -162.5v207h178zM285 526q0 -89 30.5 -162.5t80 -118.5t109 -69t120.5 -24q64 0 124 24t110 69
t80 118.5t30 162.5t-30 162.5t-80 119.5t-110 70.5t-124 24.5q-61 0 -120.5 -24.5t-109 -70t-80 -119.5t-30.5 -163z" />
    <glyph glyph-name="r" unicode="r" horiz-adv-x="817" 
d="M328 1053v-215q40 98 127 158.5t204 60.5h107v-178h-107q-147 0 -234 -86.5t-87 -237.5v-555h-178v1053h168z" />
    <glyph glyph-name="s" unicode="s" horiz-adv-x="1017" 
d="M860 741q-59 71 -153 120.5t-205 49.5q-86 0 -147.5 -36.5t-61.5 -96.5q0 -46 37.5 -72.5t122.5 -54.5l159 -51l48 -16t46.5 -16.5t48 -20.5t43 -24t40.5 -29.5t32.5 -35.5t27.5 -43.5t15.5 -51.5t6.5 -62q0 -147 -116 -233t-290 -86q-144 0 -251 36.5t-152 85.5v205
q61 -72 161 -120t238 -48q93 0 160 38t67 106q0 56 -41 86.5t-129 58.5l-178 55q-31 9 -45.5 14t-45 16.5t-47.5 22t-42.5 27t-40 35.5t-29.5 43t-21.5 54.5t-6.5 66.5q0 90 58 162t147.5 108.5t189.5 36.5q119 0 212.5 -36.5t141.5 -84.5v-209z" />
    <glyph glyph-name="t" unicode="t" horiz-adv-x="755" 
d="M678 1053v-170h-291v-551q0 -77 41.5 -119.5t108.5 -42.5h141v-170h-178q-129 0 -210 77.5t-81 215.5v590h-180v170h180v227l178 61v-288h291z" />
    <glyph glyph-name="u" unicode="u" horiz-adv-x="1226" 
d="M889 0v174q-39 -82 -130.5 -137t-209.5 -55q-78 0 -147.5 25t-127 75t-91 135t-33.5 195v641h178v-592q0 -81 22.5 -141.5t61.5 -95t86.5 -51.5t101.5 -17q114 0 201.5 84t87.5 231v582h178v-1053h-178z" />
    <glyph glyph-name="v" unicode="v" horiz-adv-x="1116" 
d="M219 1053l342 -688l336 688h188l-526 -1071l-528 1071h188z" />
    <glyph glyph-name="w" unicode="w" horiz-adv-x="1605" 
d="M238 1053l260 -658l307 676l309 -665l256 647h184l-424 -1071l-329 716l-326 -716l-424 1071h187z" />
    <glyph glyph-name="x" unicode="x" horiz-adv-x="1134" 
d="M270 1053l299 -385l299 385h213l-397 -518l410 -535h-215l-314 403l-311 -403h-213l410 537l-398 516h217z" />
    <glyph glyph-name="y" unicode="y" 
d="M582 -176q-55 -133 -139.5 -199.5t-219.5 -66.5h-143v170h139q68 0 110 33.5t74 105.5l66 151l-438 1035h198l336 -805l316 805h200z" />
    <glyph glyph-name="z" unicode="z" horiz-adv-x="1024" 
d="M969 1053l-598 -883h561v-170h-881l592 883h-547v170h873z" />
    <glyph glyph-name="braceleft" unicode="{" horiz-adv-x="811" 
d="M662 1368q-41 0 -71.5 -7t-62 -26.5t-48.5 -63t-17 -108.5v-297q0 -128 -44 -188.5t-126 -71.5q82 -11 126 -71t44 -187v-299q0 -65 17 -108.5t48.5 -63t62 -26.5t71.5 -7h57v-166h-74q-360 0 -360 373v293q0 107 -41.5 145.5t-128.5 38.5h-41v160h41q87 0 128.5 37.5
t41.5 144.5v291q0 373 360 373h74v-166h-57z" />
    <glyph glyph-name="bar" unicode="|" horiz-adv-x="520" 
d="M346 1532v-1782h-172v1782h172z" />
    <glyph glyph-name="braceright" unicode="}" horiz-adv-x="811" 
d="M150 -156q41 0 71.5 7t61.5 26.5t48 63t17 108.5v297q0 128 44 188.5t126 71.5q-82 11 -126 71t-44 187v299q0 65 -17 108.5t-48 63t-61.5 26.5t-71.5 7h-58v166h74q360 0 360 -373v-293q0 -107 41.5 -145.5t128.5 -38.5h41v-160h-41q-87 0 -128.5 -37.5t-41.5 -144.5
v-291q0 -373 -360 -373h-74v166h58z" />
    <glyph glyph-name="asciitilde" unicode="~" horiz-adv-x="1067" 
d="M102 641q79 111 226 111q67 0 215.5 -58.5t206.5 -58.5q118 0 215 117v-166q-79 -111 -226 -111q-67 0 -215.5 58.5t-206.5 58.5q-117 0 -215 -117v166z" />
    <glyph glyph-name="uni00A0" unicode="&#xa0;" horiz-adv-x="491" 
 />
    <glyph glyph-name="exclamdown" unicode="&#xa1;" horiz-adv-x="544" 
d="M178 -387l21 1014h145l21 -1014h-187zM150 930q0 52 35.5 87.5t86.5 35.5t87 -35.5t36 -87.5t-36 -87.5t-87 -35.5t-86.5 35.5t-35.5 87.5z" />
    <glyph glyph-name="cent" unicode="&#xa2;" horiz-adv-x="1153" 
d="M586 -61v229q-207 29 -346.5 175.5t-139.5 363.5t139.5 363t346.5 175v221h151v-217q110 -10 192 -47.5t124 -81.5v-223q-131 154 -316 176v-733q185 22 316 176v-223q-42 -44 -124 -81.5t-192 -47.5v-225h-151zM283 707q0 -145 83 -241.5t220 -121.5v725
q-137 -25 -220 -121t-83 -241z" />
    <glyph glyph-name="sterling" unicode="&#xa3;" horiz-adv-x="1153" 
d="M92 172q97 29 160 111t63 174q0 66 -26 149h-197v152h146q-58 165 -58 276q0 171 131 288.5t353 117.5q231 0 376 -156v-221q-166 199 -383 199q-120 0 -205 -63t-85 -173q0 -92 63 -268h528v-152h-481q19 -86 19 -131q0 -180 -172 -303h737v-172h-969v172z" />
    <glyph glyph-name="currency" unicode="&#xa4;" horiz-adv-x="1261" 
d="M631 281q-142 0 -254 79l-184 -184l-109 105l184 184q-84 114 -84 256t84 256l-184 184l109 105l184 -185q113 80 254 80t254 -80l184 185l107 -107l-183 -182q84 -114 84 -256t-84 -256l185 -184l-109 -105l-184 184q-112 -79 -254 -79zM365 721q0 -114 78 -191t188 -77
t188 77t78 191t-78 191t-188 77t-188 -77t-78 -191z" />
    <glyph glyph-name="yen" unicode="&#xa5;" horiz-adv-x="1277" 
d="M1247 1421l-426 -702h234v-152h-326v-143h326v-152h-326v-272h-180v272h-324v152h324v143h-324v152h232l-426 702h209l399 -659l399 659h209z" />
    <glyph glyph-name="brokenbar" unicode="&#xa6;" horiz-adv-x="520" 
d="M174 477h172v-727h-172v727zM174 811v721h172v-721h-172z" />
    <glyph glyph-name="section" unicode="&#xa7;" horiz-adv-x="1157" 
d="M946 1110q-60 72 -148 119t-198 47q-95 0 -158 -44t-63 -110q0 -42 23.5 -74.5t62.5 -54t90 -39t107.5 -34t113 -35t107.5 -45t90 -61t62.5 -87.5t23.5 -119q0 -181 -213 -274q135 -83 135 -246q0 -100 -61 -178t-156 -118t-203 -40q-141 0 -247.5 37t-151.5 86v205
q61 -71 161.5 -117.5t241.5 -46.5q96 0 165 47t69 125q0 42 -24 73.5t-64.5 51t-93 34.5t-111 29t-116.5 30t-110.5 41.5t-93 59.5t-64.5 88.5t-24 123.5q0 189 230 284q-131 86 -131 244q0 136 121.5 232t279.5 96q227 0 348 -121v-209zM279 602q0 -42 19.5 -74.5t48 -53
t76 -38.5t88.5 -28t102 -25t100 -27q166 68 166 193q0 41 -19 73.5t-47 53.5t-74.5 40t-87.5 31t-100 29.5t-98 32.5q-174 -78 -174 -207z" />
    <glyph glyph-name="dieresis" unicode="&#xa8;" horiz-adv-x="1228" 
d="M424 1485q49 0 83 -33.5t34 -81.5t-34 -81.5t-83 -33.5t-83 33.5t-34 81.5t34 81.5t83 33.5zM686 1370q0 48 34 81.5t83 33.5t83 -33.5t34 -81.5t-34 -81.5t-83 -33.5t-83 33.5t-34 81.5z" />
    <glyph glyph-name="copyright" unicode="&#xa9;" horiz-adv-x="1806" 
d="M903 -174q-161 0 -306.5 60.5t-251.5 164.5t-168 250.5t-62 310.5q0 219 105.5 400t286.5 284t396 103t396 -103t287 -284t106 -400t-106 -400t-287 -283.5t-396 -102.5zM270 612q0 -179 85.5 -325.5t230.5 -229t317 -82.5t317 82.5t230.5 229t85.5 325.5t-85.5 325.5
t-230.5 229t-317 82.5t-317 -82.5t-230.5 -229t-85.5 -325.5zM543 612q0 111 55.5 199.5t143 134t188.5 45.5q165 0 250 -90v-174q-101 107 -230 107q-100 0 -169.5 -61.5t-69.5 -160.5q0 -100 69.5 -161.5t169.5 -61.5q123 0 230 107v-172q-88 -93 -250 -93q-100 0 -188 46
t-143.5 134.5t-55.5 200.5z" />
    <glyph glyph-name="ordfeminine" unicode="&#xaa;" horiz-adv-x="802" 
d="M111 1393q34 29 112 54.5t154 25.5q164 0 240.5 -76t76.5 -211v-428h-151v110q-21 -52 -83 -87.5t-141 -35.5q-105 0 -179 59t-74 159q0 186 292 227l183 27q-21 112 -174 112q-73 0 -140.5 -27t-115.5 -67v158zM219 971q0 -45 40 -71t99 -26q72 0 128.5 42.5t56.5 109.5
v76l-172 -27q-152 -22 -152 -104z" />
    <glyph glyph-name="guillemotleft" unicode="&#xab;" horiz-adv-x="1150" 
d="M641 1012l-371 -432l371 -433h-213l-369 433l369 432h213zM510 580l369 432h213l-371 -432l371 -433h-213z" />
    <glyph glyph-name="logicalnot" unicode="&#xac;" horiz-adv-x="1067" 
d="M102 692h863v-508h-166v353h-697v155z" />
    <glyph glyph-name="registered" unicode="&#xae;" horiz-adv-x="1353" 
d="M676 440q-152 0 -281 74t-204.5 204t-75.5 286q0 154 76 283t204.5 202.5t280.5 73.5q153 0 282 -73.5t205 -202.5t76 -283q0 -117 -44.5 -221.5t-120 -179.5t-179.5 -119t-219 -44zM242 1004q0 -186 126.5 -312.5t307.5 -126.5q183 0 309.5 126.5t126.5 312.5
q0 185 -126.5 310.5t-309.5 125.5q-181 0 -307.5 -125.5t-126.5 -310.5zM489 741v535h197q88 0 142.5 -48t54.5 -132q0 -52 -25 -94t-65 -66l120 -195h-133l-102 164h-72v-164h-117zM606 1010h74q36 0 60 23t24 59q0 35 -22.5 55t-61.5 20h-74v-157z" />
    <glyph glyph-name="macron" unicode="&#xaf;" horiz-adv-x="1228" 
d="M352 1444h522v-150h-522v150z" />
    <glyph glyph-name="degree" unicode="&#xb0;" horiz-adv-x="983" 
d="M492 1292q-87 0 -150 -64t-63 -159t63 -159t150 -64t150 64t63 159t-63 159t-150 64zM123 1069q0 158 109.5 264.5t259.5 106.5q149 0 258.5 -106.5t109.5 -264.5t-109.5 -264.5t-258.5 -106.5q-150 0 -259.5 106.5t-109.5 264.5z" />
    <glyph glyph-name="plusminus" unicode="&#xb1;" horiz-adv-x="1030" 
d="M102 682v158h332v272h164v-272h330v-158h-330v-272h-164v272h-332zM102 119v157h826v-157h-826z" />
    <glyph glyph-name="uni00B2" unicode="&#xb2;" horiz-adv-x="864" 
d="M92 1632q45 45 120.5 77t178.5 32q149 0 236.5 -80t87.5 -203q0 -63 -31.5 -129.5t-61.5 -104t-102 -116.5q-4 -5 -7.5 -8.5t-6.5 -7.5l-115 -127h381v-162h-721l326 377q7 8 20 23q50 58 72.5 86.5t42.5 68.5t20 76q0 65 -45.5 102t-121.5 37q-79 0 -151.5 -39
t-121.5 -100v198z" />
    <glyph glyph-name="uni00B3" unicode="&#xb3;" horiz-adv-x="866" 
d="M391 791q-210 0 -303 100v199q44 -58 126.5 -95t168.5 -37t142.5 40.5t56.5 111.5q0 52 -33.5 86t-81 47.5t-107.5 13.5q-62 0 -106 -8l205 316h-371v161h641l-223 -342q117 -21 186.5 -94.5t69.5 -185.5q0 -139 -105.5 -226t-265.5 -87z" />
    <glyph glyph-name="acute" unicode="&#xb4;" horiz-adv-x="1228" 
d="M913 1530l-299 -326h-200l299 326h200z" />
    <glyph glyph-name="uni00B5" unicode="&#xb5;" horiz-adv-x="1236" 
d="M338 1053v-592q0 -81 22.5 -141.5t61.5 -95t86.5 -51.5t101.5 -17q114 0 201.5 84t87.5 231v582h178v-1053h-178v174q-39 -82 -130.5 -137t-209.5 -55q-126 0 -221 59v-483h-178v1495h178z" />
    <glyph glyph-name="paragraph" unicode="&#xb6;" horiz-adv-x="1323" 
d="M627 1421h508v-1740h-152v1568h-350q-160 0 -258.5 -81.5t-98.5 -223.5q0 -140 100.5 -224.5t256.5 -84.5h160v-954h-152v782h-14q-111 0 -208.5 32.5t-170.5 93t-115.5 152t-42.5 203.5q0 221 151.5 349t385.5 128z" />
    <glyph glyph-name="periodcentered" unicode="&#xb7;" horiz-adv-x="462" 
d="M231 735q51 0 87 -35.5t36 -87.5t-36 -87.5t-87 -35.5t-86.5 35.5t-35.5 87.5t35.5 87.5t86.5 35.5z" />
    <glyph glyph-name="cedilla" unicode="&#xb8;" horiz-adv-x="1228" 
d="M584 -500q-88 0 -160 39v160q23 -22 64 -38.5t87 -16.5q36 0 63.5 18.5t27.5 52.5q0 44 -51 61.5t-130 8.5l60 215h137l-33 -113q71 -7 123.5 -53.5t52.5 -126.5q0 -92 -67 -149.5t-174 -57.5z" />
    <glyph glyph-name="uni00B9" unicode="&#xb9;" horiz-adv-x="866" 
d="M154 956h223v541l-223 -94v160l403 178v-785h217v-153h-620v153z" />
    <glyph glyph-name="ordmasculine" unicode="&#xba;" horiz-adv-x="878" 
d="M438 745q-90 0 -171 41.5t-135 126.5t-54 195t54 195.5t135 127.5t171 42q91 0 173 -42t136 -127t54 -196q0 -84 -31.5 -154t-83.5 -115t-116 -69.5t-132 -24.5zM236 1108q0 -95 60.5 -155t141.5 -60q83 0 144 60t61 155t-61 155t-144 60q-82 0 -142 -59.5t-60 -155.5z
" />
    <glyph glyph-name="guillemotright" unicode="&#xbb;" horiz-adv-x="1150" 
d="M510 147l371 433l-371 432h213l369 -432l-369 -433h-213zM59 147l371 433l-371 432h213l369 -432l-369 -433h-213z" />
    <glyph glyph-name="onequarter" unicode="&#xbc;" horiz-adv-x="2232" 
d="M154 649h223v541l-223 -94v159l403 179v-785h217v-153h-620v153zM580 0l968 1421h189l-971 -1421h-186zM1397 207l344 717h178l-266 -564h229v246h170v-246h127v-153h-127v-207h-170v207h-485z" />
    <glyph glyph-name="onehalf" unicode="&#xbd;" horiz-adv-x="2314" 
d="M154 649h223v541l-223 -94v159l403 179v-785h217v-153h-620v153zM580 0l968 1421h189l-971 -1421h-186zM1501 0l326 377q7 8 20 23q50 58 72.5 86.5t42.5 68.5t20 76q0 65 -45.5 102t-121.5 37q-79 0 -151.5 -39t-121.5 -100v198q45 45 120.5 77t178.5 32
q149 0 236.5 -80t87.5 -203q0 -63 -31.5 -129.5t-61.5 -104t-102 -116.5q-9 -11 -14 -16l-115 -127h381v-162h-721z" />
    <glyph glyph-name="threequarters" unicode="&#xbe;" horiz-adv-x="2215" 
d="M391 483q-209 0 -303 101v198q44 -58 126 -94.5t169 -36.5q86 0 142.5 40.5t56.5 111.5q0 52 -33.5 86t-81 47.5t-107.5 13.5q-62 0 -106 -8l205 315h-371v162h641l-223 -342q117 -21 186.5 -94.5t69.5 -185.5q0 -139 -105.5 -226.5t-265.5 -87.5zM563 0l969 1421h188
l-970 -1421h-187zM1380 207l344 717h179l-267 -564h230v246h170v-246h127v-153h-127v-207h-170v207h-486z" />
    <glyph glyph-name="questiondown" unicode="&#xbf;" horiz-adv-x="931" 
d="M637 311q-38 -7 -80.5 -21t-94 -41.5t-91.5 -63.5t-67.5 -91t-27.5 -119q0 -102 66.5 -156.5t163.5 -54.5q102 0 199 58.5t161 154.5v-219q-58 -70 -152.5 -117t-215.5 -47q-187 0 -297.5 103t-110.5 274q0 302 375 441v215h172v-316zM428 930q0 52 36 87.5t87 35.5
t87 -35.5t36 -87.5t-36 -87.5t-87 -35.5t-87 35.5t-36 87.5z" />
    <glyph glyph-name="Agrave" unicode="&#xc0;" horiz-adv-x="1468" 
d="M51 0l684 1440l682 -1440h-198l-179 379h-616l-178 -379h-195zM381 1898h201l299 -325h-201zM504 551h457l-228 487z" />
    <glyph glyph-name="Aacute" unicode="&#xc1;" horiz-adv-x="1468" 
d="M51 0l684 1440l682 -1440h-198l-179 379h-616l-178 -379h-195zM504 551h457l-228 487zM590 1573l299 325h201l-299 -325h-201z" />
    <glyph glyph-name="Acircumflex" unicode="&#xc2;" horiz-adv-x="1468" 
d="M51 0l684 1440l682 -1440h-198l-179 379h-616l-178 -379h-195zM375 1573l362 352l363 -352h-193l-170 156l-172 -156h-190zM504 551h457l-228 487z" />
    <glyph glyph-name="Atilde" unicode="&#xc3;" horiz-adv-x="1468" 
d="M51 0l684 1440l682 -1440h-198l-179 379h-616l-178 -379h-195zM426 1622v150q48 79 164 79q54 0 154 -42t147 -42q89 0 153 84v-151q-51 -78 -163 -78q-54 0 -153 42t-146 42q-92 0 -156 -84zM504 551h457l-228 487z" />
    <glyph glyph-name="Adieresis" unicode="&#xc4;" horiz-adv-x="1468" 
d="M51 0l684 1440l682 -1440h-198l-179 379h-616l-178 -379h-195zM428 1739q0 47 34 80.5t83 33.5t83 -33.5t34 -80.5q0 -48 -34 -81.5t-83 -33.5t-83 33.5t-34 81.5zM504 551h457l-228 487zM807 1739q0 47 34 80.5t83 33.5t82.5 -33t33.5 -81t-33.5 -81.5t-82.5 -33.5
t-83 33.5t-34 81.5z" />
    <glyph glyph-name="Aring" unicode="&#xc5;" horiz-adv-x="1468" 
d="M51 0l684 1440l682 -1440h-198l-179 379h-616l-178 -379h-195zM504 551h457l-228 487zM516 1737q0 90 63.5 152.5t155.5 62.5q93 0 157 -62.5t64 -152.5q0 -91 -63.5 -152t-157.5 -61q-92 0 -155.5 61t-63.5 152zM643 1737q0 -40 27.5 -66t64.5 -26q38 0 66 26t28 66
t-28 66t-66 26q-37 0 -64.5 -26t-27.5 -66z" />
    <glyph glyph-name="AE" unicode="&#xc6;" horiz-adv-x="2072" 
d="M43 0l965 1421h934v-172h-652v-442h615v-170h-615v-465h652v-172h-832v461h-543l-313 -461h-211zM684 633h426v616h-6z" />
    <glyph glyph-name="Ccedilla" unicode="&#xc7;" horiz-adv-x="1445" 
d="M1315 1038q-79 93 -198 158.5t-269 65.5q-109 0 -209 -40.5t-174.5 -112t-119 -175.5t-44.5 -223q0 -161 76 -288.5t200 -195t271 -67.5q150 0 269.5 65t197.5 158v-233q-156 -161 -447 -168l-26 -95q71 -7 123.5 -53.5t52.5 -126.5q0 -92 -67.5 -149.5t-174.5 -57.5
q-88 0 -160 39v160q23 -22 64.5 -38.5t87.5 -16.5q36 0 63 18.5t27 52.5q0 44 -50.5 61.5t-129.5 8.5l57 205q-131 17 -244 74.5t-196.5 148.5t-131.5 219.5t-48 278.5q0 156 61 293.5t162 232t234 149t274 54.5q305 0 469 -168v-234z" />
    <glyph glyph-name="Egrave" unicode="&#xc8;" horiz-adv-x="1175" 
d="M274 1898h201l299 -325h-201zM188 0v1421h856v-172h-675v-442h639v-170h-639v-465h675v-172h-856z" />
    <glyph glyph-name="Eacute" unicode="&#xc9;" horiz-adv-x="1175" 
d="M983 1898l-299 -325h-201l299 325h201zM188 0v1421h856v-172h-675v-442h639v-170h-639v-465h675v-172h-856z" />
    <glyph glyph-name="Ecircumflex" unicode="&#xca;" horiz-adv-x="1175" 
d="M459 1573h-191l363 352l362 -352h-192l-170 156zM188 0v1421h856v-172h-675v-442h639v-170h-639v-465h675v-172h-856z" />
    <glyph glyph-name="Edieresis" unicode="&#xcb;" horiz-adv-x="1175" 
d="M438 1853q49 0 83 -33.5t34 -80.5q0 -48 -34 -81.5t-83 -33.5t-82.5 33.5t-33.5 81.5t33.5 81t82.5 33zM188 0v1421h856v-172h-675v-442h639v-170h-639v-465h675v-172h-856zM700 1739q0 47 34 80.5t83 33.5t83 -33.5t34 -80.5q0 -48 -34 -81.5t-83 -33.5t-83 33.5
t-34 81.5z" />
    <glyph glyph-name="Igrave" unicode="&#xcc;" horiz-adv-x="557" 
d="M369 1421v-1421h-181v1421h181zM-76 1898h201l299 -325h-201z" />
    <glyph glyph-name="Iacute" unicode="&#xcd;" horiz-adv-x="557" 
d="M369 1421v-1421h-181v1421h181zM133 1573l299 325h201l-299 -325h-201z" />
    <glyph glyph-name="Icircumflex" unicode="&#xce;" horiz-adv-x="557" 
d="M369 1421v-1421h-181v1421h181zM-82 1573l363 352l362 -352h-192l-170 156l-172 -156h-191z" />
    <glyph glyph-name="Idieresis" unicode="&#xcf;" horiz-adv-x="557" 
d="M369 1421v-1421h-181v1421h181zM-29 1739q0 47 34 80.5t83 33.5t83 -33.5t34 -80.5q0 -48 -34 -81.5t-83 -33.5t-83 33.5t-34 81.5zM350 1739q0 47 34 80.5t83 33.5t83 -33.5t34 -80.5q0 -48 -34 -81.5t-83 -33.5t-83 33.5t-34 81.5z" />
    <glyph glyph-name="Eth" unicode="&#xd0;" horiz-adv-x="1470" 
d="M598 1421q128 0 241 -27.5t208 -85t163.5 -140.5t107 -199.5t38.5 -257.5t-38.5 -258t-107 -200.5t-163.5 -140.5t-208 -84.5t-241 -27.5h-410v639h-157v166h157v616h410zM369 172h229q90 0 172.5 20t155.5 63t127 105t85 152t31 199q0 108 -31 198t-85 152t-127 105
t-155.5 63t-172.5 20h-229v-444h329v-166h-329v-467z" />
    <glyph glyph-name="Ntilde" unicode="&#xd1;" horiz-adv-x="1533" 
d="M188 1440l979 -1016v997h179v-1439l-979 1015v-997h-179v1440zM457 1622v150q48 79 164 79q54 0 154 -42t147 -42q89 0 153 84v-151q-51 -78 -164 -78q-54 0 -153 42t-146 42q-91 0 -155 -84z" />
    <glyph glyph-name="Ograve" unicode="&#xd2;" horiz-adv-x="1648" 
d="M825 160q224 0 373.5 157.5t149.5 393.5t-149.5 393.5t-373.5 157.5q-225 0 -374.5 -157t-149.5 -394t149.5 -394t374.5 -157zM115 711q0 204 93 371t255.5 262.5t361.5 95.5q148 0 279.5 -56t225.5 -152.5t149 -232t55 -288.5t-55 -288.5t-149 -232t-225.5 -152.5
t-279.5 -56q-199 0 -361.5 95.5t-255.5 262.5t-93 371zM471 1898h201l299 -325h-201z" />
    <glyph glyph-name="Oacute" unicode="&#xd3;" horiz-adv-x="1648" 
d="M825 160q224 0 373.5 157.5t149.5 393.5t-149.5 393.5t-373.5 157.5q-225 0 -374.5 -157t-149.5 -394t149.5 -394t374.5 -157zM115 711q0 204 93 371t255.5 262.5t361.5 95.5q148 0 279.5 -56t225.5 -152.5t149 -232t55 -288.5t-55 -288.5t-149 -232t-225.5 -152.5
t-279.5 -56q-199 0 -361.5 95.5t-255.5 262.5t-93 371zM680 1573l299 325h201l-299 -325h-201z" />
    <glyph glyph-name="Ocircumflex" unicode="&#xd4;" horiz-adv-x="1648" 
d="M825 160q224 0 373.5 157.5t149.5 393.5t-149.5 393.5t-373.5 157.5q-225 0 -374.5 -157t-149.5 -394t149.5 -394t374.5 -157zM115 711q0 204 93 371t255.5 262.5t361.5 95.5q148 0 279.5 -56t225.5 -152.5t149 -232t55 -288.5t-55 -288.5t-149 -232t-225.5 -152.5
t-279.5 -56q-199 0 -361.5 95.5t-255.5 262.5t-93 371zM465 1573l362 352l363 -352h-193l-170 156l-172 -156h-190z" />
    <glyph glyph-name="Otilde" unicode="&#xd5;" horiz-adv-x="1648" 
d="M825 160q224 0 373.5 157.5t149.5 393.5t-149.5 393.5t-373.5 157.5q-225 0 -374.5 -157t-149.5 -394t149.5 -394t374.5 -157zM115 711q0 204 93 371t255.5 262.5t361.5 95.5q148 0 279.5 -56t225.5 -152.5t149 -232t55 -288.5t-55 -288.5t-149 -232t-225.5 -152.5
t-279.5 -56q-199 0 -361.5 95.5t-255.5 262.5t-93 371zM516 1622v150q48 79 164 79q54 0 154 -42t147 -42q90 0 154 84v-151q-51 -78 -164 -78q-54 0 -153 42t-146 42q-92 0 -156 -84z" />
    <glyph glyph-name="Odieresis" unicode="&#xd6;" horiz-adv-x="1648" 
d="M825 160q224 0 373.5 157.5t149.5 393.5t-149.5 393.5t-373.5 157.5q-225 0 -374.5 -157t-149.5 -394t149.5 -394t374.5 -157zM115 711q0 204 93 371t255.5 262.5t361.5 95.5q148 0 279.5 -56t225.5 -152.5t149 -232t55 -288.5t-55 -288.5t-149 -232t-225.5 -152.5
t-279.5 -56q-199 0 -361.5 95.5t-255.5 262.5t-93 371zM518 1739q0 47 34 80.5t83 33.5t83 -33.5t34 -80.5q0 -48 -34 -81.5t-83 -33.5t-83 33.5t-34 81.5zM897 1739q0 47 34 80.5t83 33.5t82.5 -33t33.5 -81t-33.5 -81.5t-82.5 -33.5t-83 33.5t-34 81.5z" />
    <glyph glyph-name="multiply" unicode="&#xd7;" horiz-adv-x="1071" 
d="M233 1030l304 -301l299 299l118 -113l-303 -303l305 -303l-116 -112l-303 303l-304 -303l-118 112l305 305l-305 306z" />
    <glyph glyph-name="Oslash" unicode="&#xd8;" horiz-adv-x="1648" 
d="M825 160q224 0 373.5 157.5t149.5 393.5q0 137 -53.5 252t-147.5 190l-508 -960q94 -33 186 -33zM115 711q0 204 93 371t255.5 262.5t361.5 95.5q141 0 271 -51l82 155h176l-123 -229q142 -100 222.5 -257.5t80.5 -346.5q0 -153 -55 -288.5t-149 -232t-225.5 -152.5
t-279.5 -56q-142 0 -272 51l-80 -152h-178l121 228q-140 98 -220.5 255.5t-80.5 346.5zM301 711q0 -137 53 -252t148 -189l508 959q-91 33 -185 33q-225 0 -374.5 -157t-149.5 -394z" />
    <glyph glyph-name="Ugrave" unicode="&#xd9;" horiz-adv-x="1495" 
d="M358 555q0 -186 110.5 -293.5t279.5 -107.5t279 107.5t110 293.5v866h180v-876q0 -257 -156.5 -410t-412.5 -153t-413 153t-157 410v876h180v-866zM393 1898h201l299 -325h-201z" />
    <glyph glyph-name="Uacute" unicode="&#xda;" horiz-adv-x="1495" 
d="M358 555q0 -186 110.5 -293.5t279.5 -107.5t279 107.5t110 293.5v866h180v-876q0 -257 -156.5 -410t-412.5 -153t-413 153t-157 410v876h180v-866zM602 1573l299 325h201l-299 -325h-201z" />
    <glyph glyph-name="Ucircumflex" unicode="&#xdb;" horiz-adv-x="1495" 
d="M358 555q0 -186 110.5 -293.5t279.5 -107.5t279 107.5t110 293.5v866h180v-876q0 -257 -156.5 -410t-412.5 -153t-413 153t-157 410v876h180v-866zM387 1573l363 352l362 -352h-192l-170 156l-172 -156h-191z" />
    <glyph glyph-name="Udieresis" unicode="&#xdc;" horiz-adv-x="1495" 
d="M358 555q0 -186 110.5 -293.5t279.5 -107.5t279 107.5t110 293.5v866h180v-876q0 -257 -156.5 -410t-412.5 -153t-413 153t-157 410v876h180v-866zM440 1739q0 47 34 80.5t83 33.5t83 -33.5t34 -80.5q0 -48 -34 -81.5t-83 -33.5t-83 33.5t-34 81.5zM819 1739
q0 47 34 80.5t83 33.5t83 -33.5t34 -80.5q0 -48 -34 -81.5t-83 -33.5t-83 33.5t-34 81.5z" />
    <glyph glyph-name="Yacute" unicode="&#xdd;" horiz-adv-x="1359" 
d="M1034 1898l-299 -325h-200l299 325h200zM31 1421h209l440 -663l440 663h209l-559 -858v-563h-180v563z" />
    <glyph glyph-name="Thorn" unicode="&#xde;" horiz-adv-x="1208" 
d="M188 1421h181v-266h266q224 0 353.5 -112t129.5 -318q0 -207 -131.5 -320.5t-351.5 -113.5h-266v-291h-181v1421zM369 463h254q152 0 230.5 71t78.5 191q0 118 -78.5 188t-230.5 70h-254v-520z" />
    <glyph glyph-name="germandbls" unicode="&#xdf;" horiz-adv-x="1282" 
d="M743 -16q-141 0 -217 45v194q87 -67 213 -67q104 0 180 72.5t76 187.5q0 75 -30 131t-83.5 89t-121 49.5t-148.5 16.5h-41v170h41q121 0 200 74.5t79 190.5q0 114 -73.5 178.5t-184.5 64.5q-123 0 -208 -83t-85 -238v-1059h-180v1073q0 207 130 343t339 136
q205 0 325.5 -116.5t120.5 -288.5q0 -71 -21.5 -131.5t-58 -100t-73.5 -65.5t-78 -41q42 -6 86 -23t90 -49.5t81.5 -76t58 -107.5t22.5 -139q0 -194 -123.5 -312t-315.5 -118z" />
    <glyph glyph-name="agrave" unicode="&#xe0;" horiz-adv-x="1124" 
d="M168 950q45 45 148 83t210 38q214 0 331.5 -113t117.5 -309v-649h-176v184q-34 -81 -131 -141.5t-228 -60.5q-152 0 -255 85t-103 236q0 74 30.5 133t83 97t113.5 61.5t131 34.5l359 55q-9 100 -89 158.5t-184 58.5q-103 0 -203.5 -46t-154.5 -114v209zM203 1530h200
l299 -326h-200zM264 309q0 -78 62 -120t155 -42q111 0 214.5 80.5t103.5 178.5v122l-318 -49q-58 -9 -103.5 -26.5t-79.5 -55t-34 -88.5z" />
    <glyph glyph-name="aacute" unicode="&#xe1;" horiz-adv-x="1124" 
d="M168 950q45 45 148 83t210 38q214 0 331.5 -113t117.5 -309v-649h-176v184q-34 -81 -131 -141.5t-228 -60.5q-152 0 -255 85t-103 236q0 74 30.5 133t83 97t113.5 61.5t131 34.5l359 55q-9 100 -89 158.5t-184 58.5q-103 0 -203.5 -46t-154.5 -114v209zM264 309
q0 -78 62 -120t155 -42q111 0 214.5 80.5t103.5 178.5v122l-318 -49q-58 -9 -103.5 -26.5t-79.5 -55t-34 -88.5zM412 1204l299 326h200l-299 -326h-200z" />
    <glyph glyph-name="acircumflex" unicode="&#xe2;" horiz-adv-x="1124" 
d="M168 950q45 45 148 83t210 38q214 0 331.5 -113t117.5 -309v-649h-176v184q-34 -81 -131 -141.5t-228 -60.5q-152 0 -255 85t-103 236q0 74 30.5 133t83 97t113.5 61.5t131 34.5l359 55q-9 100 -89 158.5t-184 58.5q-103 0 -203.5 -46t-154.5 -114v209zM197 1204l362 352
l363 -352h-193l-170 156l-172 -156h-190zM264 309q0 -78 62 -120t155 -42q111 0 214.5 80.5t103.5 178.5v122l-318 -49q-58 -9 -103.5 -26.5t-79.5 -55t-34 -88.5z" />
    <glyph glyph-name="atilde" unicode="&#xe3;" horiz-adv-x="1124" 
d="M168 950q45 45 148 83t210 38q214 0 331.5 -113t117.5 -309v-649h-176v184q-34 -81 -131 -141.5t-228 -60.5q-152 0 -255 85t-103 236q0 74 30.5 133t83 97t113.5 61.5t131 34.5l359 55q-9 100 -89 158.5t-184 58.5q-103 0 -203.5 -46t-154.5 -114v209zM248 1253v150
q49 80 164 80q54 0 154 -42t147 -42q89 0 153 84v-152q-51 -78 -164 -78q-54 0 -153 42t-146 42q-91 0 -155 -84zM264 309q0 -78 62 -120t155 -42q111 0 214.5 80.5t103.5 178.5v122l-318 -49q-58 -9 -103.5 -26.5t-79.5 -55t-34 -88.5z" />
    <glyph glyph-name="adieresis" unicode="&#xe4;" horiz-adv-x="1124" 
d="M168 950q45 45 148 83t210 38q214 0 331.5 -113t117.5 -309v-649h-176v184q-34 -81 -131 -141.5t-228 -60.5q-152 0 -255 85t-103 236q0 74 30.5 133t83 97t113.5 61.5t131 34.5l359 55q-9 100 -89 158.5t-184 58.5q-103 0 -203.5 -46t-154.5 -114v209zM250 1370
q0 48 34 81.5t83 33.5t82.5 -33.5t33.5 -81.5t-33.5 -81.5t-82.5 -33.5t-83 33.5t-34 81.5zM264 309q0 -78 62 -120t155 -42q111 0 214.5 80.5t103.5 178.5v122l-318 -49q-58 -9 -103.5 -26.5t-79.5 -55t-34 -88.5zM629 1370q0 48 33.5 81.5t82.5 33.5t83 -33.5t34 -81.5
t-34 -81.5t-83 -33.5t-82.5 33.5t-33.5 81.5z" />
    <glyph glyph-name="aring" unicode="&#xe5;" horiz-adv-x="1124" 
d="M168 950q45 45 148 83t210 38q214 0 331.5 -113t117.5 -309v-649h-176v184q-34 -81 -131 -141.5t-228 -60.5q-152 0 -255 85t-103 236q0 74 30.5 133t83 97t113.5 61.5t131 34.5l359 55q-9 100 -89 158.5t-184 58.5q-103 0 -203.5 -46t-154.5 -114v209zM264 309
q0 -78 62 -120t155 -42q111 0 214.5 80.5t103.5 178.5v122l-318 -49q-58 -9 -103.5 -26.5t-79.5 -55t-34 -88.5zM338 1368q0 90 63.5 152.5t155.5 62.5q93 0 157 -62.5t64 -152.5q0 -91 -63.5 -152t-157.5 -61q-92 0 -155.5 61t-63.5 152zM465 1368q0 -40 27.5 -66t64.5 -26
q38 0 66 26t28 66t-28 66t-66 26q-37 0 -64.5 -26t-27.5 -66z" />
    <glyph glyph-name="ae" unicode="&#xe6;" horiz-adv-x="1873" 
d="M168 950q45 45 148 83t210 38q136 0 234.5 -50.5t154.5 -141.5q69 90 168.5 141t214.5 51q213 0 344.5 -138.5t131.5 -363.5v-63h-799v-4q0 -156 110.5 -254t262.5 -98q227 0 383 180v-217q-126 -131 -383 -131q-156 0 -286.5 71.5t-199.5 204.5q-24 -55 -58 -101
t-83 -87t-118 -64.5t-150 -23.5q-73 0 -139.5 21t-118.5 60.5t-82.5 101.5t-30.5 138q0 74 30.5 134t83 98t114 61t130.5 31l359 41q-1 72 -41 126.5t-101 80.5t-131 26q-103 0 -203.5 -46t-154.5 -114v209zM264 305q0 -69 62.5 -113.5t152.5 -44.5q78 0 141.5 30.5t101 79
t57.5 103t20 107.5v45l-338 -37q-83 -8 -140 -51.5t-57 -118.5zM983 662h604q-9 103 -90.5 173t-202.5 70q-124 0 -207 -73.5t-104 -169.5z" />
    <glyph glyph-name="ccedilla" unicode="&#xe7;" 
d="M1012 717q-156 180 -359 180q-156 0 -263 -102.5t-107 -268.5t106.5 -268t263.5 -102q203 0 359 180v-223q-122 -126 -344 -131l-27 -95q71 -7 123.5 -53.5t52.5 -126.5q0 -92 -67.5 -149.5t-174.5 -57.5q-87 0 -159 39v160q23 -22 64 -38.5t87 -16.5q36 0 63 18.5
t27 52.5q0 44 -50.5 61.5t-129.5 8.5l58 209q-89 19 -167.5 65t-138.5 113t-94.5 158.5t-34.5 195.5q0 121 46.5 224.5t124 173t177 108.5t205.5 39q233 0 359 -131v-223z" />
    <glyph glyph-name="egrave" unicode="&#xe8;" horiz-adv-x="1185" 
d="M659 -18q-109 0 -208.5 36.5t-178.5 104.5t-125.5 175.5t-46.5 238.5q0 239 146.5 386.5t363.5 147.5q213 0 344 -138.5t131 -363.5v-94h-798q7 -96 61 -171.5t135.5 -114.5t175.5 -39q227 0 383 180v-217q-126 -131 -383 -131zM258 1530h201l299 -326h-201zM291 631h610
q-9 123 -90 198.5t-205 75.5q-70 0 -129.5 -25.5t-98 -66t-61 -87.5t-26.5 -95z" />
    <glyph glyph-name="eacute" unicode="&#xe9;" horiz-adv-x="1185" 
d="M659 -18q-109 0 -208.5 36.5t-178.5 104.5t-125.5 175.5t-46.5 238.5q0 239 146.5 386.5t363.5 147.5q213 0 344 -138.5t131 -363.5v-94h-798q7 -96 61 -171.5t135.5 -114.5t175.5 -39q227 0 383 180v-217q-126 -131 -383 -131zM291 631h610q-9 123 -90 198.5t-205 75.5
q-70 0 -129.5 -25.5t-98 -66t-61 -87.5t-26.5 -95zM467 1204l299 326h201l-299 -326h-201z" />
    <glyph glyph-name="ecircumflex" unicode="&#xea;" horiz-adv-x="1185" 
d="M659 -18q-109 0 -208.5 36.5t-178.5 104.5t-125.5 175.5t-46.5 238.5q0 239 146.5 386.5t363.5 147.5q213 0 344 -138.5t131 -363.5v-94h-798q7 -96 61 -171.5t135.5 -114.5t175.5 -39q227 0 383 180v-217q-126 -131 -383 -131zM252 1204l362 352l363 -352h-193l-170 156
l-172 -156h-190zM291 631h610q-9 123 -90 198.5t-205 75.5q-70 0 -129.5 -25.5t-98 -66t-61 -87.5t-26.5 -95z" />
    <glyph glyph-name="edieresis" unicode="&#xeb;" horiz-adv-x="1185" 
d="M659 -18q-109 0 -208.5 36.5t-178.5 104.5t-125.5 175.5t-46.5 238.5q0 239 146.5 386.5t363.5 147.5q213 0 344 -138.5t131 -363.5v-94h-798q7 -96 61 -171.5t135.5 -114.5t175.5 -39q227 0 383 180v-217q-126 -131 -383 -131zM291 631h610q-9 123 -90 198.5t-205 75.5
q-70 0 -129.5 -25.5t-98 -66t-61 -87.5t-26.5 -95zM305 1370q0 48 34 81.5t83 33.5t83 -33.5t34 -81.5t-34 -81.5t-83 -33.5t-83 33.5t-34 81.5zM684 1370q0 48 34 81.5t83 33.5t83 -33.5t34 -81.5t-34 -81.5t-83 -33.5t-83 33.5t-34 81.5z" />
    <glyph glyph-name="igrave" unicode="&#xec;" horiz-adv-x="497" 
d="M338 1053v-1053h-178v1053h178zM-104 1530h200l299 -326h-200z" />
    <glyph glyph-name="iacute" unicode="&#xed;" horiz-adv-x="497" 
d="M338 1053v-1053h-178v1053h178zM104 1204l299 326h201l-299 -326h-201z" />
    <glyph glyph-name="icircumflex" unicode="&#xee;" horiz-adv-x="497" 
d="M338 1053v-1053h-178v1053h178zM-111 1204l363 352l362 -352h-192l-170 156l-172 -156h-191z" />
    <glyph glyph-name="idieresis" unicode="&#xef;" horiz-adv-x="497" 
d="M338 1053v-1053h-178v1053h178zM-57 1370q0 48 33.5 81.5t82.5 33.5t83 -33.5t34 -81.5t-34 -81.5t-83 -33.5t-82.5 33.5t-33.5 81.5zM322 1370q0 48 33.5 81.5t82.5 33.5t83 -33.5t34 -81.5t-34 -81.5t-83 -33.5t-82.5 33.5t-33.5 81.5z" />
    <glyph glyph-name="eth" unicode="&#xf0;" horiz-adv-x="1310" 
d="M645 -20q-106 0 -203.5 37t-174 104.5t-122 172t-45.5 230.5q0 120 43 220t113.5 163.5t158 98t179.5 34.5q147 0 248 -56t121 -120q-26 116 -123.5 224.5t-243.5 189.5l-373 -248v170l226 148q-106 44 -226 69v152q195 -29 383 -115l346 227v-168l-204 -135
q75 -46 138 -99.5t120 -124t97 -149t63.5 -177.5t23.5 -207q0 -156 -41 -279t-114.5 -201.5t-172.5 -119.5t-217 -41zM283 514q0 -104 52.5 -187t134.5 -127t175 -44q144 0 247 104t103 275q0 106 -51.5 184.5t-130.5 115.5t-174 37q-144 0 -250 -99t-106 -259z" />
    <glyph glyph-name="ntilde" unicode="&#xf1;" horiz-adv-x="1226" 
d="M338 1053v-174q39 82 130.5 137t209.5 55q78 0 147.5 -25t127 -75t91 -135t33.5 -195v-641h-178v592q0 81 -22.5 141.5t-61.5 95t-86.5 51.5t-101.5 17q-114 0 -201.5 -84t-87.5 -231v-582h-178v1053h178zM297 1253v150q49 80 164 80q54 0 154 -42t147 -42q89 0 153 84
v-152q-51 -78 -163 -78q-54 0 -153 42t-146 42q-92 0 -156 -84z" />
    <glyph glyph-name="ograve" unicode="&#xf2;" horiz-adv-x="1265" 
d="M633 -18q-224 0 -378.5 158t-154.5 388q0 150 70.5 275t193 196.5t269.5 71.5q110 0 209 -42.5t169.5 -114.5t112 -172.5t41.5 -213.5q0 -230 -154 -388t-378 -158zM279 1530h200l299 -326h-200zM283 528q0 -158 100.5 -265t249.5 -107t249.5 107t100.5 265
q0 157 -100.5 263t-249.5 106t-249.5 -106t-100.5 -263z" />
    <glyph glyph-name="oacute" unicode="&#xf3;" horiz-adv-x="1265" 
d="M633 -18q-224 0 -378.5 158t-154.5 388q0 150 70.5 275t193 196.5t269.5 71.5q110 0 209 -42.5t169.5 -114.5t112 -172.5t41.5 -213.5q0 -230 -154 -388t-378 -158zM283 528q0 -158 100.5 -265t249.5 -107t249.5 107t100.5 265q0 157 -100.5 263t-249.5 106t-249.5 -106
t-100.5 -263zM487 1204l299 326h201l-299 -326h-201z" />
    <glyph glyph-name="ocircumflex" unicode="&#xf4;" horiz-adv-x="1265" 
d="M633 -18q-224 0 -378.5 158t-154.5 388q0 150 70.5 275t193 196.5t269.5 71.5q110 0 209 -42.5t169.5 -114.5t112 -172.5t41.5 -213.5q0 -230 -154 -388t-378 -158zM272 1204l363 352l362 -352h-192l-170 156l-172 -156h-191zM283 528q0 -158 100.5 -265t249.5 -107
t249.5 107t100.5 265q0 157 -100.5 263t-249.5 106t-249.5 -106t-100.5 -263z" />
    <glyph glyph-name="otilde" unicode="&#xf5;" horiz-adv-x="1265" 
d="M633 -18q-224 0 -378.5 158t-154.5 388q0 150 70.5 275t193 196.5t269.5 71.5q110 0 209 -42.5t169.5 -114.5t112 -172.5t41.5 -213.5q0 -230 -154 -388t-378 -158zM283 528q0 -158 100.5 -265t249.5 -107t249.5 107t100.5 265q0 157 -100.5 263t-249.5 106t-249.5 -106
t-100.5 -263zM324 1253v150q49 80 163 80q54 0 154 -42t147 -42q90 0 154 84v-152q-51 -78 -164 -78q-54 0 -153 42t-146 42q-91 0 -155 -84z" />
    <glyph glyph-name="odieresis" unicode="&#xf6;" horiz-adv-x="1265" 
d="M633 -18q-224 0 -378.5 158t-154.5 388q0 150 70.5 275t193 196.5t269.5 71.5q110 0 209 -42.5t169.5 -114.5t112 -172.5t41.5 -213.5q0 -230 -154 -388t-378 -158zM283 528q0 -158 100.5 -265t249.5 -107t249.5 107t100.5 265q0 157 -100.5 263t-249.5 106t-249.5 -106
t-100.5 -263zM326 1370q0 48 33.5 81.5t82.5 33.5t83 -33.5t34 -81.5t-34 -81.5t-83 -33.5t-82.5 33.5t-33.5 81.5zM705 1370q0 48 33.5 81.5t82.5 33.5t83 -33.5t34 -81.5t-34 -81.5t-83 -33.5t-82.5 33.5t-33.5 81.5z" />
    <glyph glyph-name="divide" unicode="&#xf7;" horiz-adv-x="1067" 
d="M102 537v155h863v-155h-863zM412 287q0 52 36 87.5t87 35.5t86.5 -35.5t35.5 -87.5t-35.5 -87.5t-86.5 -35.5t-87 35.5t-36 87.5zM412 938q0 52 36 87.5t87 35.5t86.5 -35.5t35.5 -87.5t-35.5 -87.5t-86.5 -35.5t-87 35.5t-36 87.5z" />
    <glyph glyph-name="oslash" unicode="&#xf8;" horiz-adv-x="1265" 
d="M633 -18q-104 0 -191 34l-69 -131h-174l110 207q-97 75 -153 189t-56 247q0 150 70.5 275t193 196.5t269.5 71.5q96 0 184 -31l70 131h174l-111 -204q100 -75 157.5 -190t57.5 -249q0 -230 -154 -388t-378 -158zM283 528q0 -167 112 -276l338 631q-46 14 -100 14
q-149 0 -249.5 -106t-100.5 -263zM526 172q53 -16 107 -16q149 0 249.5 107t100.5 265q0 83 -31 156t-86 123z" />
    <glyph glyph-name="ugrave" unicode="&#xf9;" horiz-adv-x="1226" 
d="M889 0v174q-39 -82 -130.5 -137t-209.5 -55q-78 0 -147.5 25t-127 75t-91 135t-33.5 195v641h178v-592q0 -81 22.5 -141.5t61.5 -95t86.5 -51.5t101.5 -17q114 0 201.5 84t87.5 231v582h178v-1053h-178zM254 1530h201l299 -326h-201z" />
    <glyph glyph-name="uacute" unicode="&#xfa;" horiz-adv-x="1226" 
d="M889 0v174q-39 -82 -130.5 -137t-209.5 -55q-78 0 -147.5 25t-127 75t-91 135t-33.5 195v641h178v-592q0 -81 22.5 -141.5t61.5 -95t86.5 -51.5t101.5 -17q114 0 201.5 84t87.5 231v582h178v-1053h-178zM463 1204l299 326h201l-299 -326h-201z" />
    <glyph glyph-name="ucircumflex" unicode="&#xfb;" horiz-adv-x="1226" 
d="M889 0v174q-39 -82 -130.5 -137t-209.5 -55q-78 0 -147.5 25t-127 75t-91 135t-33.5 195v641h178v-592q0 -81 22.5 -141.5t61.5 -95t86.5 -51.5t101.5 -17q114 0 201.5 84t87.5 231v582h178v-1053h-178zM248 1204l362 352l363 -352h-193l-170 156l-172 -156h-190z" />
    <glyph glyph-name="udieresis" unicode="&#xfc;" horiz-adv-x="1226" 
d="M889 0v174q-39 -82 -130.5 -137t-209.5 -55q-78 0 -147.5 25t-127 75t-91 135t-33.5 195v641h178v-592q0 -81 22.5 -141.5t61.5 -95t86.5 -51.5t101.5 -17q114 0 201.5 84t87.5 231v582h178v-1053h-178zM301 1370q0 48 34 81.5t83 33.5t83 -33.5t34 -81.5t-34 -81.5
t-83 -33.5t-83 33.5t-34 81.5zM680 1370q0 48 34 81.5t83 33.5t82.5 -33.5t33.5 -81.5t-33.5 -81.5t-82.5 -33.5t-83 33.5t-34 81.5z" />
    <glyph glyph-name="yacute" unicode="&#xfd;" 
d="M582 -176q-55 -133 -139.5 -199.5t-219.5 -66.5h-143v170h139q68 0 110 33.5t74 105.5l66 151l-438 1035h198l336 -805l316 805h200zM420 1204l299 326h201l-299 -326h-201z" />
    <glyph glyph-name="thorn" unicode="&#xfe;" horiz-adv-x="1306" 
d="M338 1534v-686q48 98 144 161.5t237 63.5q92 0 179 -37t156 -105t110.5 -173t41.5 -230t-41.5 -230.5t-110.5 -173t-156 -105t-179 -37.5q-140 0 -236.5 64.5t-144.5 162.5v-651h-178v1976h178zM338 528q0 -89 30 -162.5t80 -119t110 -70t124 -24.5q61 0 120.5 24.5
t109 70t80 119t30.5 162.5t-30.5 162.5t-80 118.5t-109 69.5t-120.5 24.5q-64 0 -124 -24.5t-110 -69.5t-80 -118.5t-30 -162.5z" />
    <glyph glyph-name="ydieresis" unicode="&#xff;" 
d="M582 -176q-55 -133 -139.5 -199.5t-219.5 -66.5h-143v170h139q68 0 110 33.5t74 105.5l66 151l-438 1035h198l336 -805l316 805h200zM258 1370q0 48 34 81.5t83 33.5t83 -33.5t34 -81.5t-34 -81.5t-83 -33.5t-83 33.5t-34 81.5zM637 1370q0 48 34 81.5t83 33.5
t82.5 -33.5t33.5 -81.5t-33.5 -81.5t-82.5 -33.5t-83 33.5t-34 81.5z" />
    <glyph glyph-name="Amacron" unicode="&#x100;" horiz-adv-x="1468" 
d="M51 0l684 1440l682 -1440h-198l-179 379h-616l-178 -379h-195zM473 1663v149h522v-149h-522zM504 551h457l-228 487z" />
    <glyph glyph-name="amacron" unicode="&#x101;" horiz-adv-x="1124" 
d="M168 950q45 45 148 83t210 38q214 0 331.5 -113t117.5 -309v-649h-176v184q-34 -81 -131 -141.5t-228 -60.5q-152 0 -255 85t-103 236q0 74 30.5 133t83 97t113.5 61.5t131 34.5l359 55q-9 100 -89 158.5t-184 58.5q-103 0 -203.5 -46t-154.5 -114v209zM264 309
q0 -78 62 -120t155 -42q111 0 214.5 80.5t103.5 178.5v122l-318 -49q-58 -9 -103.5 -26.5t-79.5 -55t-34 -88.5zM295 1294v150h522v-150h-522z" />
    <glyph glyph-name="Abreve" unicode="&#x102;" horiz-adv-x="1468" 
d="M51 0l684 1440l682 -1440h-198l-179 379h-616l-178 -379h-195zM432 1886h154q0 -69 42 -115.5t107 -46.5t107.5 47t42.5 115h153q0 -139 -86.5 -221t-216.5 -82t-216.5 82t-86.5 221zM504 551h457l-228 487z" />
    <glyph glyph-name="abreve" unicode="&#x103;" horiz-adv-x="1124" 
d="M168 950q45 45 148 83t210 38q214 0 331.5 -113t117.5 -309v-649h-176v184q-34 -81 -131 -141.5t-228 -60.5q-152 0 -255 85t-103 236q0 74 30.5 133t83 97t113.5 61.5t131 34.5l359 55q-9 100 -89 158.5t-184 58.5q-103 0 -203.5 -46t-154.5 -114v209zM254 1518h154
q0 -69 42 -115.5t107 -46.5t107.5 47t42.5 115h153q0 -139 -86.5 -221.5t-216.5 -82.5t-216.5 82.5t-86.5 221.5zM264 309q0 -78 62 -120t155 -42q111 0 214.5 80.5t103.5 178.5v122l-318 -49q-58 -9 -103.5 -26.5t-79.5 -55t-34 -88.5z" />
    <glyph glyph-name="Aogonek" unicode="&#x104;" horiz-adv-x="1468" 
d="M51 0l684 1440l682 -1440q-198 -153 -198 -254q0 -42 28 -65t72 -23q51 0 111 37v-148q-45 -36 -138 -36q-108 0 -175.5 53.5t-67.5 142.5q0 80 66.5 155t178.5 138h-75l-179 379h-616l-178 -379h-195zM504 551h457l-228 487z" />
    <glyph glyph-name="aogonek" unicode="&#x105;" horiz-adv-x="1124" 
d="M168 950q45 45 148 83t210 38q214 0 331.5 -113t117.5 -309v-649q-100 -78 -149.5 -139t-49.5 -115q0 -42 28.5 -65t72.5 -23q50 0 110 37v-148q-45 -36 -137 -36q-108 0 -176 53.5t-68 142.5q0 80 67 155t179 138h-53v184q-34 -81 -131 -141.5t-228 -60.5
q-152 0 -255 85t-103 236q0 74 30.5 133t83 97t113.5 61.5t131 34.5l359 55q-9 100 -89 158.5t-184 58.5q-103 0 -203.5 -46t-154.5 -114v209zM264 309q0 -78 62 -120t155 -42q111 0 214.5 80.5t103.5 178.5v122l-318 -49q-58 -9 -103.5 -26.5t-79.5 -55t-34 -88.5z" />
    <glyph glyph-name="Cacute" unicode="&#x106;" horiz-adv-x="1445" 
d="M1315 1038q-79 93 -198 158.5t-269 65.5q-109 0 -209 -40.5t-174.5 -112t-119 -175.5t-44.5 -223q0 -161 76 -288.5t200 -195t271 -67.5q150 0 269.5 65t197.5 158v-233q-164 -168 -469 -168q-150 0 -282.5 51t-232.5 143t-158 230.5t-58 304.5q0 156 61 293.5t162 232
t234 149t274 54.5q305 0 469 -168v-234zM717 1573l299 325h201l-299 -325h-201z" />
    <glyph glyph-name="cacute" unicode="&#x107;" 
d="M1012 717q-156 180 -359 180q-156 0 -263 -102.5t-107 -268.5t106.5 -268t263.5 -102q203 0 359 180v-223q-126 -131 -359 -131q-106 0 -205.5 39t-177 108t-124 172.5t-46.5 224.5t46.5 224.5t124 173t177 108.5t205.5 39q233 0 359 -131v-223zM473 1204l299 326h201
l-299 -326h-201z" />
    <glyph glyph-name="Cdotaccent" unicode="&#x10a;" horiz-adv-x="1445" 
d="M1315 1038q-79 93 -198 158.5t-269 65.5q-109 0 -209 -40.5t-174.5 -112t-119 -175.5t-44.5 -223q0 -161 76 -288.5t200 -195t271 -67.5q150 0 269.5 65t197.5 158v-233q-164 -168 -469 -168q-150 0 -282.5 51t-232.5 143t-158 230.5t-58 304.5q0 156 61 293.5t162 232
t234 149t274 54.5q305 0 469 -168v-234zM745 1737q0 47 34 80.5t83 33.5t83 -33.5t34 -80.5q0 -48 -34 -81.5t-83 -33.5t-83 33.5t-34 81.5z" />
    <glyph glyph-name="cdotaccent" unicode="&#x10b;" 
d="M1012 717q-156 180 -359 180q-156 0 -263 -102.5t-107 -268.5t106.5 -268t263.5 -102q203 0 359 180v-223q-126 -131 -359 -131q-106 0 -205.5 39t-177 108t-124 172.5t-46.5 224.5t46.5 224.5t124 173t177 108.5t205.5 39q233 0 359 -131v-223zM502 1368q0 48 33.5 81.5
t82.5 33.5t83 -33.5t34 -81.5t-34 -81.5t-83 -33.5t-82.5 33.5t-33.5 81.5z" />
    <glyph glyph-name="Ccaron" unicode="&#x10c;" horiz-adv-x="1445" 
d="M1315 1038q-79 93 -198 158.5t-269 65.5q-109 0 -209 -40.5t-174.5 -112t-119 -175.5t-44.5 -223q0 -161 76 -288.5t200 -195t271 -67.5q150 0 269.5 65t197.5 158v-233q-164 -168 -469 -168q-150 0 -282.5 51t-232.5 143t-158 230.5t-58 304.5q0 156 61 293.5t162 232
t234 149t274 54.5q305 0 469 -168v-234zM500 1898h192l170 -155l172 155h191l-363 -352z" />
    <glyph glyph-name="ccaron" unicode="&#x10d;" 
d="M1012 717q-156 180 -359 180q-156 0 -263 -102.5t-107 -268.5t106.5 -268t263.5 -102q203 0 359 180v-223q-126 -131 -359 -131q-106 0 -205.5 39t-177 108t-124 172.5t-46.5 224.5t46.5 224.5t124 173t177 108.5t205.5 39q233 0 359 -131v-223zM256 1530h193l169 -156
l173 156h190l-363 -352z" />
    <glyph glyph-name="Dcaron" unicode="&#x10e;" horiz-adv-x="1470" 
d="M598 1421q128 0 241 -27.5t208 -85t163.5 -140.5t107 -199.5t38.5 -257.5t-38.5 -258t-107 -200.5t-163.5 -140.5t-208 -84.5t-241 -27.5h-410v1421h410zM303 1898h193l170 -155l172 155h190l-362 -352zM369 172h229q90 0 172.5 20t155.5 63t127 105t85 152t31 199
q0 108 -31 198t-85 152t-127 105t-155.5 63t-172.5 20h-229v-1077z" />
    <glyph glyph-name="dcaron" unicode="&#x10f;" horiz-adv-x="1435" 
d="M1147 1534v-1534h-178v207q-48 -98 -144 -161.5t-237 -63.5q-92 0 -179 37t-156 104.5t-111 172.5t-42 230t42 230.5t111 173.5t156 105.5t179 37.5q140 0 236.5 -64.5t144.5 -162.5v688h178zM285 526q0 -89 30.5 -162.5t80 -118.5t109 -69t120.5 -24q64 0 124 24t110 69
t80 118.5t30 162.5t-30 162.5t-80 119.5t-110 70.5t-124 24.5q-61 0 -120.5 -24.5t-109 -70t-80 -119.5t-30.5 -163zM1255 1139l113 395h176l-145 -395h-144z" />
    <glyph glyph-name="Dcroat" unicode="&#x110;" horiz-adv-x="1470" 
d="M598 1421q128 0 241 -27.5t208 -85t163.5 -140.5t107 -199.5t38.5 -257.5t-38.5 -258t-107 -200.5t-163.5 -140.5t-208 -84.5t-241 -27.5h-410v639h-157v166h157v616h410zM369 172h229q90 0 172.5 20t155.5 63t127 105t85 152t31 199q0 108 -31 198t-85 152t-127 105
t-155.5 63t-172.5 20h-229v-444h329v-166h-329v-467z" />
    <glyph glyph-name="dcroat" unicode="&#x111;" horiz-adv-x="1306" 
d="M1147 1534v-152h158v-151h-158v-1231h-178v207q-48 -98 -144 -161.5t-237 -63.5q-92 0 -179 37t-156 104.5t-111 172.5t-42 230t42 230.5t111 173.5t156 105.5t179 37.5q140 0 236.5 -64.5t144.5 -162.5v385h-273v151h273v152h178zM285 526q0 -89 30.5 -162.5t80 -118.5
t109 -69t120.5 -24q64 0 124 24t110 69t80 118.5t30 162.5t-30 162.5t-80 119.5t-110 70.5t-124 24.5q-61 0 -120.5 -24.5t-109 -70t-80 -119.5t-30.5 -163z" />
    <glyph glyph-name="Emacron" unicode="&#x112;" horiz-adv-x="1175" 
d="M367 1812h522v-149h-522v149zM188 0v1421h856v-172h-675v-442h639v-170h-639v-465h675v-172h-856z" />
    <glyph glyph-name="emacron" unicode="&#x113;" horiz-adv-x="1185" 
d="M659 -18q-109 0 -208.5 36.5t-178.5 104.5t-125.5 175.5t-46.5 238.5q0 239 146.5 386.5t363.5 147.5q213 0 344 -138.5t131 -363.5v-94h-798q7 -96 61 -171.5t135.5 -114.5t175.5 -39q227 0 383 180v-217q-126 -131 -383 -131zM291 631h610q-9 123 -90 198.5t-205 75.5
q-70 0 -129.5 -25.5t-98 -66t-61 -87.5t-26.5 -95zM350 1294v150h522v-150h-522z" />
    <glyph glyph-name="Edotaccent" unicode="&#x116;" horiz-adv-x="1175" 
d="M629 1851q49 0 82.5 -33t33.5 -81t-33.5 -81.5t-82.5 -33.5t-83 33.5t-34 81.5q0 47 34 80.5t83 33.5zM188 0v1421h856v-172h-675v-442h639v-170h-639v-465h675v-172h-856z" />
    <glyph glyph-name="edotaccent" unicode="&#x117;" horiz-adv-x="1185" 
d="M659 -18q-109 0 -208.5 36.5t-178.5 104.5t-125.5 175.5t-46.5 238.5q0 239 146.5 386.5t363.5 147.5q213 0 344 -138.5t131 -363.5v-94h-798q7 -96 61 -171.5t135.5 -114.5t175.5 -39q227 0 383 180v-217q-126 -131 -383 -131zM291 631h610q-9 123 -90 198.5t-205 75.5
q-70 0 -129.5 -25.5t-98 -66t-61 -87.5t-26.5 -95zM496 1368q0 48 33.5 81.5t82.5 33.5t83 -33.5t34 -81.5t-34 -81.5t-83 -33.5t-82.5 33.5t-33.5 81.5z" />
    <glyph glyph-name="Eogonek" unicode="&#x118;" horiz-adv-x="1175" 
d="M920 -489q-108 0 -176 53.5t-68 142.5q0 80 67 155t179 138h-734v1421h856v-172h-675v-442h639v-170h-639v-465h675v-172q-198 -153 -198 -254q0 -42 28 -65t72 -23q51 0 111 37v-148q-45 -36 -137 -36z" />
    <glyph glyph-name="eogonek" unicode="&#x119;" horiz-adv-x="1185" 
d="M659 -18q-109 0 -208.5 36.5t-178.5 104.5t-125.5 175.5t-46.5 238.5q0 239 146.5 386.5t363.5 147.5q213 0 344 -138.5t131 -363.5v-94h-798q7 -96 61 -171.5t135.5 -114.5t175.5 -39q227 0 383 180v-217q-38 -38 -57 -50q-83 -67 -123.5 -120.5t-40.5 -102.5
q0 -43 27 -66.5t72 -23.5q52 0 112 37v-147q-47 -37 -137 -37q-109 0 -176.5 51t-67.5 139q0 103 142 199q-65 -10 -134 -10zM291 631h610q-9 123 -90 198.5t-205 75.5q-70 0 -129.5 -25.5t-98 -66t-61 -87.5t-26.5 -95z" />
    <glyph glyph-name="Ecaron" unicode="&#x11a;" horiz-adv-x="1175" 
d="M801 1898h190l-362 -352l-363 352h193l170 -155zM188 0v1421h856v-172h-675v-442h639v-170h-639v-465h675v-172h-856z" />
    <glyph glyph-name="ecaron" unicode="&#x11b;" horiz-adv-x="1185" 
d="M659 -18q-109 0 -208.5 36.5t-178.5 104.5t-125.5 175.5t-46.5 238.5q0 239 146.5 386.5t363.5 147.5q213 0 344 -138.5t131 -363.5v-94h-798q7 -96 61 -171.5t135.5 -114.5t175.5 -39q227 0 383 180v-217q-126 -131 -383 -131zM250 1530h192l170 -156l172 156h191
l-363 -352zM291 631h610q-9 123 -90 198.5t-205 75.5q-70 0 -129.5 -25.5t-98 -66t-61 -87.5t-26.5 -95z" />
    <glyph glyph-name="Gbreve" unicode="&#x11e;" horiz-adv-x="1548" 
d="M821 -18q-105 0 -205.5 28.5t-191.5 88.5t-159.5 144.5t-109 205t-40.5 262.5q0 161 62.5 299.5t167.5 231.5t243.5 145.5t290.5 52.5q333 0 497 -168v-234q-80 94 -202.5 159t-288.5 65q-118 0 -223.5 -37.5t-186 -106t-127.5 -175t-47 -236.5t45 -236.5t119.5 -173.5
t167.5 -103t194 -36q121 0 216 41.5t152.5 127.5t57.5 203v64h-483v172h664v-215q0 -174 -85 -305.5t-223 -197.5t-305 -66zM492 1886h153q0 -68 42.5 -115t107.5 -47t107 46.5t42 115.5h154q0 -139 -86.5 -221t-216.5 -82t-216.5 82t-86.5 221z" />
    <glyph glyph-name="gbreve" unicode="&#x11f;" horiz-adv-x="1116" 
d="M418 -442q-155 0 -256 77t-101 211q0 86 48.5 143.5t126.5 82.5q-62 55 -62 133q0 54 31 98t82 66q-81 52 -127.5 135t-46.5 184q0 165 115.5 274t285.5 109q68 0 127 -18h424v-160h-209q59 -86 59 -205q0 -165 -115.5 -275t-285.5 -110q-62 0 -111 14q-49 -21 -49 -71
q0 -32 26.5 -53t72.5 -21h243q76 0 139 -17.5t113 -53t78.5 -96.5t28.5 -142q0 -76 -31.5 -136t-85 -96t-120.5 -54.5t-142 -18.5h-258zM252 -139q0 -68 52 -106t138 -38h250q76 0 124 38t48 108t-48 107.5t-124 37.5h-286q-67 0 -110.5 -43.5t-43.5 -103.5zM264 1518h154
q0 -69 42 -115.5t107 -46.5t107.5 47t42.5 115h153q0 -139 -86.5 -221.5t-216.5 -82.5t-216.5 82.5t-86.5 221.5zM289 688q0 -96 65 -158.5t160 -62.5t160 62.5t65 158.5q0 94 -65 156.5t-160 62.5t-160 -62.5t-65 -156.5z" />
    <glyph glyph-name="Gdotaccent" unicode="&#x120;" horiz-adv-x="1548" 
d="M821 -18q-105 0 -205.5 28.5t-191.5 88.5t-159.5 144.5t-109 205t-40.5 262.5q0 161 62.5 299.5t167.5 231.5t243.5 145.5t290.5 52.5q333 0 497 -168v-234q-80 94 -202.5 159t-288.5 65q-118 0 -223.5 -37.5t-186 -106t-127.5 -175t-47 -236.5t45 -236.5t119.5 -173.5
t167.5 -103t194 -36q121 0 216 41.5t152.5 127.5t57.5 203v64h-483v172h664v-215q0 -174 -85 -305.5t-223 -197.5t-305 -66zM678 1737q0 47 34 80.5t83 33.5t82.5 -33t33.5 -81t-33.5 -81.5t-82.5 -33.5t-83 33.5t-34 81.5z" />
    <glyph glyph-name="gdotaccent" unicode="&#x121;" horiz-adv-x="1116" 
d="M418 -442q-155 0 -256 77t-101 211q0 86 48.5 143.5t126.5 82.5q-62 55 -62 133q0 54 31 98t82 66q-81 52 -127.5 135t-46.5 184q0 165 115.5 274t285.5 109q68 0 127 -18h424v-160h-209q59 -86 59 -205q0 -165 -115.5 -275t-285.5 -110q-62 0 -111 14q-49 -21 -49 -71
q0 -32 26.5 -53t72.5 -21h243q76 0 139 -17.5t113 -53t78.5 -96.5t28.5 -142q0 -76 -31.5 -136t-85 -96t-120.5 -54.5t-142 -18.5h-258zM252 -139q0 -68 52 -106t138 -38h250q76 0 124 38t48 108t-48 107.5t-124 37.5h-286q-67 0 -110.5 -43.5t-43.5 -103.5zM289 688
q0 -96 65 -158.5t160 -62.5t160 62.5t65 158.5q0 94 -65 156.5t-160 62.5t-160 -62.5t-65 -156.5zM451 1368q0 48 33.5 81.5t82.5 33.5t83 -33.5t34 -81.5t-34 -81.5t-83 -33.5t-82.5 33.5t-33.5 81.5z" />
    <glyph glyph-name="uni0122" unicode="&#x122;" horiz-adv-x="1548" 
d="M821 -18q-105 0 -205.5 28.5t-191.5 88.5t-159.5 144.5t-109 205t-40.5 262.5q0 161 62.5 299.5t167.5 231.5t243.5 145.5t290.5 52.5q333 0 497 -168v-234q-80 94 -202.5 159t-288.5 65q-118 0 -223.5 -37.5t-186 -106t-127.5 -175t-47 -236.5t45 -236.5t119.5 -173.5
t167.5 -103t194 -36q121 0 216 41.5t152.5 127.5t57.5 203v64h-483v172h664v-215q0 -174 -85 -305.5t-223 -197.5t-305 -66zM641 -514l113 395h176l-146 -395h-143z" />
    <glyph glyph-name="uni0123" unicode="&#x123;" horiz-adv-x="1116" 
d="M418 -442q-155 0 -256 77t-101 211q0 86 48.5 143.5t126.5 82.5q-62 55 -62 133q0 54 31 98t82 66q-81 52 -127.5 135t-46.5 184q0 165 115.5 274t285.5 109q68 0 127 -18h424v-160h-209q59 -86 59 -205q0 -165 -115.5 -275t-285.5 -110q-62 0 -111 14q-49 -21 -49 -71
q0 -32 26.5 -53t72.5 -21h243q76 0 139 -17.5t113 -53t78.5 -96.5t28.5 -142q0 -76 -31.5 -136t-85 -96t-120.5 -54.5t-142 -18.5h-258zM252 -139q0 -68 52 -106t138 -38h250q76 0 124 38t48 108t-48 107.5t-124 37.5h-286q-67 0 -110.5 -43.5t-43.5 -103.5zM289 688
q0 -96 65 -158.5t160 -62.5t160 62.5t65 158.5q0 94 -65 156.5t-160 62.5t-160 -62.5t-65 -156.5zM465 1212l145 396h144l-113 -396h-176z" />
    <glyph glyph-name="Hbar" unicode="&#x126;" horiz-adv-x="1515" 
d="M1126 1421h181v-221h178v-153h-178v-1047h-181v578h-737v-578h-180v1047h-178v153h178v221h180v-221h737v221zM389 750h737v297h-737v-297z" />
    <glyph glyph-name="hbar" unicode="&#x127;" horiz-adv-x="1226" 
d="M338 1534v-152h272v-151h-272v-352q39 82 130.5 137t209.5 55q78 0 147.5 -25t127 -75t91 -135t33.5 -195v-641h-178v592q0 81 -22.5 141.5t-61.5 95t-86.5 51.5t-101.5 17q-114 0 -201.5 -84t-87.5 -231v-582h-178v1231h-158v151h158v152h178z" />
    <glyph glyph-name="Imacron" unicode="&#x12a;" horiz-adv-x="557" 
d="M369 1421v-1421h-181v1421h181zM16 1663v149h523v-149h-523z" />
    <glyph glyph-name="imacron" unicode="&#x12b;" horiz-adv-x="497" 
d="M338 1053v-1053h-178v1053h178zM-12 1294v150h522v-150h-522z" />
    <glyph glyph-name="Iogonek" unicode="&#x12e;" horiz-adv-x="557" 
d="M369 1421v-1421q-100 -78 -149.5 -139t-49.5 -115q0 -42 28 -65t72 -23q51 0 111 37v-148q-45 -36 -137 -36q-108 0 -176 53.5t-68 142.5q0 80 67 155t179 138h-58v1421h181z" />
    <glyph glyph-name="iogonek" unicode="&#x12f;" horiz-adv-x="497" 
d="M338 1053v-1053q-100 -78 -149.5 -139t-49.5 -115q0 -42 28.5 -65t72.5 -23q50 0 110 37v-148q-45 -36 -137 -36q-108 0 -176 53.5t-68 142.5q0 80 67 155t179 138h-55v1053h178zM133 1368q0 48 34 81.5t83 33.5t83 -33.5t34 -81.5t-34 -81.5t-83 -33.5t-83 33.5
t-34 81.5z" />
    <glyph glyph-name="Idotaccent" unicode="&#x130;" horiz-adv-x="557" 
d="M369 1421v-1421h-181v1421h181zM162 1737q0 47 34 80.5t83 33.5t82.5 -33t33.5 -81t-33.5 -81.5t-82.5 -33.5t-83 33.5t-34 81.5z" />
    <glyph glyph-name="dotlessi" unicode="&#x131;" horiz-adv-x="497" 
d="M338 1053v-1053h-178v1053h178z" />
    <glyph glyph-name="uni0136" unicode="&#x136;" horiz-adv-x="1308" 
d="M1001 1421h232l-621 -659l666 -762h-246l-663 750zM188 0v1421h181v-1421h-181zM463 -514l112 395h177l-146 -395h-143z" />
    <glyph glyph-name="uni0137" unicode="&#x137;" horiz-adv-x="1054" 
d="M338 1534v-1534h-178v1534h178zM338 561l457 492h221l-453 -486l477 -567h-225zM362 -514l113 395h176l-145 -395h-144z" />
    <glyph glyph-name="Lacute" unicode="&#x139;" 
d="M369 1421v-1249h671v-172h-852v1421h181zM133 1573l299 325h201l-299 -325h-201z" />
    <glyph glyph-name="lacute" unicode="&#x13a;" horiz-adv-x="497" 
d="M338 1534v-1534h-178v1534h178zM102 1686l299 325h201l-299 -325h-201z" />
    <glyph glyph-name="uni013B" unicode="&#x13b;" 
d="M369 1421v-1249h671v-172h-852v1421h181zM430 -514l113 395h176l-146 -395h-143z" />
    <glyph glyph-name="uni013C" unicode="&#x13c;" horiz-adv-x="497" 
d="M338 1534v-1534h-178v1534h178zM57 -514l113 395h176l-145 -395h-144z" />
    <glyph glyph-name="Lcaron" unicode="&#x13d;" 
d="M369 1421v-1249h671v-172h-852v1421h181zM496 1026l112 395h176l-145 -395h-143z" />
    <glyph glyph-name="lcaron" unicode="&#x13e;" horiz-adv-x="626" 
d="M338 1534v-1534h-178v1534h178zM446 1139l113 395h176l-145 -395h-144z" />
    <glyph glyph-name="Lslash" unicode="&#x141;" 
d="M369 1421v-581l329 92v-170l-329 -92v-498h671v-172h-852v618l-157 -43v170l157 43v633h181z" />
    <glyph glyph-name="lslash" unicode="&#x142;" horiz-adv-x="616" 
d="M397 1534v-602l215 80v-170l-215 -80v-762h-178v698l-215 -80v170l215 80v666h178z" />
    <glyph glyph-name="Nacute" unicode="&#x143;" horiz-adv-x="1533" 
d="M188 1440l979 -1016v997h179v-1439l-979 1015v-997h-179v1440zM621 1573l299 325h200l-299 -325h-200z" />
    <glyph glyph-name="nacute" unicode="&#x144;" horiz-adv-x="1226" 
d="M338 1053v-174q39 82 130.5 137t209.5 55q78 0 147.5 -25t127 -75t91 -135t33.5 -195v-641h-178v592q0 81 -22.5 141.5t-61.5 95t-86.5 51.5t-101.5 17q-114 0 -201.5 -84t-87.5 -231v-582h-178v1053h178zM461 1204l299 326h201l-299 -326h-201z" />
    <glyph glyph-name="uni0145" unicode="&#x145;" horiz-adv-x="1533" 
d="M188 1440l979 -1016v997h179v-1439l-979 1015v-997h-179v1440zM602 -514l113 395h176l-146 -395h-143z" />
    <glyph glyph-name="uni0146" unicode="&#x146;" horiz-adv-x="1226" 
d="M338 1053v-174q39 82 130.5 137t209.5 55q78 0 147.5 -25t127 -75t91 -135t33.5 -195v-641h-178v592q0 81 -22.5 141.5t-61.5 95t-86.5 51.5t-101.5 17q-114 0 -201.5 -84t-87.5 -231v-582h-178v1053h178zM428 -514l113 395h176l-146 -395h-143z" />
    <glyph glyph-name="Ncaron" unicode="&#x147;" horiz-adv-x="1533" 
d="M188 1440l979 -1016v997h179v-1439l-979 1015v-997h-179v1440zM403 1898h193l170 -155l172 155h190l-362 -352z" />
    <glyph glyph-name="ncaron" unicode="&#x148;" horiz-adv-x="1226" 
d="M338 1053v-174q39 82 130.5 137t209.5 55q78 0 147.5 -25t127 -75t91 -135t33.5 -195v-641h-178v592q0 81 -22.5 141.5t-61.5 95t-86.5 51.5t-101.5 17q-114 0 -201.5 -84t-87.5 -231v-582h-178v1053h178zM244 1530h192l170 -156l172 156h191l-363 -352z" />
    <glyph glyph-name="Eng" unicode="&#x14a;" horiz-adv-x="1533" 
d="M188 1440l979 -1016v997h179v-1550q0 -141 -85.5 -227t-226.5 -86h-137v170h121q67 0 108 42t41 119v277l-800 831v-997h-179v1440z" />
    <glyph glyph-name="eng" unicode="&#x14b;" horiz-adv-x="1226" 
d="M338 1053v-174q39 82 130.5 137t209.5 55q78 0 147.5 -25t127 -75t91 -135t33.5 -195v-770q0 -141 -85 -227t-226 -86h-137v170h121q67 0 108 42t41 119v703q0 81 -22.5 141.5t-61.5 95t-86.5 51.5t-101.5 17q-114 0 -201.5 -84t-87.5 -231v-582h-178v1053h178z" />
    <glyph glyph-name="Omacron" unicode="&#x14c;" horiz-adv-x="1648" 
d="M825 160q224 0 373.5 157.5t149.5 393.5t-149.5 393.5t-373.5 157.5q-225 0 -374.5 -157t-149.5 -394t149.5 -394t374.5 -157zM115 711q0 204 93 371t255.5 262.5t361.5 95.5q148 0 279.5 -56t225.5 -152.5t149 -232t55 -288.5t-55 -288.5t-149 -232t-225.5 -152.5
t-279.5 -56q-199 0 -361.5 95.5t-255.5 262.5t-93 371zM563 1663v149h522v-149h-522z" />
    <glyph glyph-name="omacron" unicode="&#x14d;" horiz-adv-x="1265" 
d="M633 -18q-224 0 -378.5 158t-154.5 388q0 150 70.5 275t193 196.5t269.5 71.5q110 0 209 -42.5t169.5 -114.5t112 -172.5t41.5 -213.5q0 -230 -154 -388t-378 -158zM283 528q0 -158 100.5 -265t249.5 -107t249.5 107t100.5 265q0 157 -100.5 263t-249.5 106t-249.5 -106
t-100.5 -263zM371 1294v150h522v-150h-522z" />
    <glyph glyph-name="Ohungarumlaut" unicode="&#x150;" horiz-adv-x="1648" 
d="M825 160q224 0 373.5 157.5t149.5 393.5t-149.5 393.5t-373.5 157.5q-225 0 -374.5 -157t-149.5 -394t149.5 -394t374.5 -157zM115 711q0 204 93 371t255.5 262.5t361.5 95.5q148 0 279.5 -56t225.5 -152.5t149 -232t55 -288.5t-55 -288.5t-149 -232t-225.5 -152.5
t-279.5 -56q-199 0 -361.5 95.5t-255.5 262.5t-93 371zM553 1573l235 325h181l-236 -325h-180zM895 1573l235 325h181l-236 -325h-180z" />
    <glyph glyph-name="ohungarumlaut" unicode="&#x151;" horiz-adv-x="1265" 
d="M633 -18q-224 0 -378.5 158t-154.5 388q0 150 70.5 275t193 196.5t269.5 71.5q110 0 209 -42.5t169.5 -114.5t112 -172.5t41.5 -213.5q0 -230 -154 -388t-378 -158zM283 528q0 -158 100.5 -265t249.5 -107t249.5 107t100.5 265q0 157 -100.5 263t-249.5 106t-249.5 -106
t-100.5 -263zM360 1204l236 326h180l-235 -326h-181zM702 1204l236 326h180l-235 -326h-181z" />
    <glyph glyph-name="OE" unicode="&#x152;" horiz-adv-x="2084" 
d="M893 1249q-90 0 -175 -20t-161 -63t-132.5 -105t-90 -152t-33.5 -198t33.5 -198.5t90 -152.5t133 -105t161 -63t174.5 -20h209v1077h-209zM115 711q0 174 62 312t169.5 223.5t246.5 130t300 44.5h1061v-172h-672v-442h635v-170h-635v-465h672v-172h-1061
q-161 0 -300 44.5t-246.5 130t-169.5 223.5t-62 313z" />
    <glyph glyph-name="oe" unicode="&#x153;" horiz-adv-x="2060" 
d="M633 -18q-224 0 -378.5 158t-154.5 388q0 150 70.5 275t193 196.5t269.5 71.5q134 0 247.5 -60.5t186.5 -166.5q66 108 175.5 167.5t242.5 59.5q213 0 344 -138.5t131 -363.5v-94h-799q7 -96 61 -171.5t136 -114.5t176 -39q227 0 383 180v-217q-126 -131 -383 -131
q-143 0 -266.5 61.5t-196.5 175.5q-70 -110 -185 -173.5t-253 -63.5zM283 528q0 -158 100.5 -265t249.5 -107t249.5 107t100.5 265q0 157 -100.5 263t-249.5 106t-249.5 -106t-100.5 -263zM1165 631h611q-9 123 -90 198.5t-205 75.5q-70 0 -129.5 -25.5t-98 -66t-61.5 -88
t-27 -94.5z" />
    <glyph glyph-name="Racute" unicode="&#x154;" horiz-adv-x="1310" 
d="M188 0v1421h447q224 0 353.5 -112t129.5 -318q0 -146 -77 -250t-207 -151l436 -590h-221l-416 557h-264v-557h-181zM369 729h254q152 0 230.5 71t78.5 191q0 118 -78.5 188t-230.5 70h-254v-520zM518 1573l299 325h201l-299 -325h-201z" />
    <glyph glyph-name="racute" unicode="&#x155;" horiz-adv-x="817" 
d="M328 1053v-215q40 98 127 158.5t204 60.5h107v-178h-107q-147 0 -234 -86.5t-87 -237.5v-555h-178v1053h168zM340 1204l299 326h201l-299 -326h-201z" />
    <glyph glyph-name="uni0156" unicode="&#x156;" horiz-adv-x="1310" 
d="M188 0v1421h447q224 0 353.5 -112t129.5 -318q0 -146 -77 -250t-207 -151l436 -590h-221l-416 557h-264v-557h-181zM369 729h254q152 0 230.5 71t78.5 191q0 118 -78.5 188t-230.5 70h-254v-520zM494 -514l112 395h176l-145 -395h-143z" />
    <glyph glyph-name="uni0157" unicode="&#x157;" horiz-adv-x="817" 
d="M328 1053v-215q40 98 127 158.5t204 60.5h107v-178h-107q-147 0 -234 -86.5t-87 -237.5v-555h-178v1053h168zM63 -514l113 395h176l-145 -395h-144z" />
    <glyph glyph-name="Rcaron" unicode="&#x158;" horiz-adv-x="1310" 
d="M188 0v1421h447q224 0 353.5 -112t129.5 -318q0 -146 -77 -250t-207 -151l436 -590h-221l-416 557h-264v-557h-181zM301 1898h193l170 -155l172 155h190l-362 -352zM369 729h254q152 0 230.5 71t78.5 191q0 118 -78.5 188t-230.5 70h-254v-520z" />
    <glyph glyph-name="rcaron" unicode="&#x159;" horiz-adv-x="817" 
d="M328 1053v-215q40 98 127 158.5t204 60.5h107v-178h-107q-147 0 -234 -86.5t-87 -237.5v-555h-178v1053h168zM123 1530h192l170 -156l172 156h191l-363 -352z" />
    <glyph glyph-name="Sacute" unicode="&#x15a;" horiz-adv-x="1234" 
d="M1049 1042q-71 94 -185.5 160t-251.5 66q-127 0 -208.5 -56t-81.5 -151q0 -39 13 -71t32 -52.5t53 -40t61.5 -30.5t73.5 -27l197 -68q60 -21 105.5 -40.5t97.5 -52.5t86 -71t56.5 -94t22.5 -123q0 -130 -67.5 -224t-177 -139.5t-246.5 -45.5q-176 0 -305.5 49t-188.5 114
v234q73 -96 195.5 -160.5t292.5 -64.5q137 0 224 60t87 163q0 34 -8 62t-27 49.5t-36.5 36.5t-52 30.5t-56 23.5t-64.5 23l-217 74q-66 22 -119 49t-106 70t-83 106t-30 141q0 91 43 168t112 126t154 76.5t172 27.5q147 0 260.5 -49t172.5 -115v-234zM469 1573l299 325h201
l-299 -325h-201z" />
    <glyph glyph-name="sacute" unicode="&#x15b;" horiz-adv-x="1017" 
d="M860 741q-59 71 -153 120.5t-205 49.5q-86 0 -147.5 -36.5t-61.5 -96.5q0 -46 37.5 -72.5t122.5 -54.5l159 -51l48 -16t46.5 -16.5t48 -20.5t43 -24t40.5 -29.5t32.5 -35.5t27.5 -43.5t15.5 -51.5t6.5 -62q0 -147 -116 -233t-290 -86q-144 0 -251 36.5t-152 85.5v205
q61 -72 161 -120t238 -48q93 0 160 38t67 106q0 56 -41 86.5t-129 58.5l-178 55q-31 9 -45.5 14t-45 16.5t-47.5 22t-42.5 27t-40 35.5t-29.5 43t-21.5 54.5t-6.5 66.5q0 90 58 162t147.5 108.5t189.5 36.5q119 0 212.5 -36.5t141.5 -84.5v-209zM365 1204l299 326h200
l-299 -326h-200z" />
    <glyph glyph-name="Scedilla" unicode="&#x15e;" horiz-adv-x="1234" 
d="M1049 1042q-71 94 -185.5 160t-251.5 66q-127 0 -208.5 -56t-81.5 -151q0 -39 13 -71t32 -52.5t53 -40t61.5 -30.5t73.5 -27l197 -68q60 -21 105.5 -40.5t97.5 -52.5t86 -71t56.5 -94t22.5 -123q0 -124 -62 -216t-164 -139.5t-232 -53.5l-27 -95q71 -7 123.5 -53.5
t52.5 -126.5q0 -92 -67.5 -149.5t-174.5 -57.5q-87 0 -159 39v160q23 -22 64 -38.5t87 -16.5q36 0 63 18.5t27 52.5q0 44 -50.5 61.5t-129.5 8.5l55 201q-139 14 -241.5 59t-149.5 100v234q73 -96 195.5 -160.5t292.5 -64.5q137 0 224 60t87 163q0 34 -8 62t-27 49.5
t-36.5 36.5t-52 30.5t-56 23.5t-64.5 23l-217 74q-66 22 -119 49t-106 70t-83 106t-30 141q0 91 43 168t112 126t154 76.5t172 27.5q147 0 260.5 -49t172.5 -115v-234z" />
    <glyph glyph-name="scedilla" unicode="&#x15f;" horiz-adv-x="1017" 
d="M860 741q-59 71 -153 120.5t-205 49.5q-86 0 -147.5 -36.5t-61.5 -96.5q0 -46 37.5 -72.5t122.5 -54.5l159 -51l48 -16t46.5 -16.5t48 -20.5t43 -24t40.5 -29.5t32.5 -35.5t27.5 -43.5t15.5 -51.5t6.5 -62q0 -142 -108 -227.5t-275 -91.5l-27 -95q71 -7 123.5 -53.5
t52.5 -126.5q0 -92 -67.5 -149.5t-174.5 -57.5q-87 0 -159 39v160q23 -22 64 -38.5t87 -16.5q36 0 63 18.5t27 52.5q0 44 -50.5 61.5t-129.5 8.5l55 203q-103 13 -179 45.5t-111 70.5v205q61 -72 161 -120t238 -48q93 0 160 38t67 106q0 56 -41 86.5t-129 58.5l-178 55
q-31 9 -45.5 14t-45 16.5t-47.5 22t-42.5 27t-40 35.5t-29.5 43t-21.5 54.5t-6.5 66.5q0 90 58 162t147.5 108.5t189.5 36.5q119 0 212.5 -36.5t141.5 -84.5v-209z" />
    <glyph glyph-name="Scaron" unicode="&#x160;" horiz-adv-x="1234" 
d="M1049 1042q-71 94 -185.5 160t-251.5 66q-127 0 -208.5 -56t-81.5 -151q0 -39 13 -71t32 -52.5t53 -40t61.5 -30.5t73.5 -27l197 -68q60 -21 105.5 -40.5t97.5 -52.5t86 -71t56.5 -94t22.5 -123q0 -130 -67.5 -224t-177 -139.5t-246.5 -45.5q-176 0 -305.5 49t-188.5 114
v234q73 -96 195.5 -160.5t292.5 -64.5q137 0 224 60t87 163q0 34 -8 62t-27 49.5t-36.5 36.5t-52 30.5t-56 23.5t-64.5 23l-217 74q-66 22 -119 49t-106 70t-83 106t-30 141q0 91 43 168t112 126t154 76.5t172 27.5q147 0 260.5 -49t172.5 -115v-234zM252 1898h192l170 -155
l172 155h191l-363 -352z" />
    <glyph glyph-name="scaron" unicode="&#x161;" horiz-adv-x="1017" 
d="M860 741q-59 71 -153 120.5t-205 49.5q-86 0 -147.5 -36.5t-61.5 -96.5q0 -46 37.5 -72.5t122.5 -54.5l159 -51l48 -16t46.5 -16.5t48 -20.5t43 -24t40.5 -29.5t32.5 -35.5t27.5 -43.5t15.5 -51.5t6.5 -62q0 -147 -116 -233t-290 -86q-144 0 -251 36.5t-152 85.5v205
q61 -72 161 -120t238 -48q93 0 160 38t67 106q0 56 -41 86.5t-129 58.5l-178 55q-31 9 -45.5 14t-45 16.5t-47.5 22t-42.5 27t-40 35.5t-29.5 43t-21.5 54.5t-6.5 66.5q0 90 58 162t147.5 108.5t189.5 36.5q119 0 212.5 -36.5t141.5 -84.5v-209zM147 1530h193l170 -156
l172 156h190l-362 -352z" />
    <glyph glyph-name="uni0162" unicode="&#x162;" horiz-adv-x="1294" 
d="M72 1249v172h1151v-172h-486v-1249h-22l-33 -113q71 -7 123.5 -53.5t52.5 -126.5q0 -92 -67.5 -149.5t-174.5 -57.5q-87 0 -159 39v160q23 -22 64 -38.5t87 -16.5q36 0 63 18.5t27 52.5q0 44 -50.5 61.5t-129.5 8.5l60 215h-21v1249h-485z" />
    <glyph glyph-name="uni0163" unicode="&#x163;" horiz-adv-x="755" 
d="M678 1053v-170h-291v-551q0 -77 41.5 -119.5t108.5 -42.5h141v-170h-131l-31 -102q71 -7 123.5 -54t52.5 -127q0 -92 -67 -149t-174 -57q-90 0 -160 38v160q23 -22 64 -38.5t87 -16.5q36 0 63 19t27 53q0 44 -50.5 61t-129.5 8l60 215h2q-95 24 -150 97t-55 186v590h-180
v170h180v227l178 61v-288h291z" />
    <glyph glyph-name="Tcaron" unicode="&#x164;" horiz-adv-x="1294" 
d="M72 1249v172h1151v-172h-486v-1249h-180v1249h-485zM285 1898h192l170 -155l172 155h191l-363 -352z" />
    <glyph glyph-name="tcaron" unicode="&#x165;" horiz-adv-x="755" 
d="M678 1053v-170h-291v-551q0 -77 41.5 -119.5t108.5 -42.5h141v-170h-178q-129 0 -210 77.5t-81 215.5v590h-180v170h180v227l178 61v-288h291zM489 1190l113 395h176l-145 -395h-144z" />
    <glyph glyph-name="Tbar" unicode="&#x166;" horiz-adv-x="1294" 
d="M72 1249v172h1151v-172h-486v-483h277v-166h-277v-600h-180v600h-276v166h276v483h-485z" />
    <glyph glyph-name="tbar" unicode="&#x167;" horiz-adv-x="755" 
d="M678 1053v-170h-291v-262h270v-150h-270v-139q0 -77 41.5 -119.5t108.5 -42.5h141v-170h-178q-129 0 -210 77.5t-81 215.5v178h-180v150h180v262h-180v170h180v227l178 61v-288h291z" />
    <glyph glyph-name="Umacron" unicode="&#x16a;" horiz-adv-x="1495" 
d="M358 555q0 -186 110.5 -293.5t279.5 -107.5t279 107.5t110 293.5v866h180v-876q0 -257 -156.5 -410t-412.5 -153t-413 153t-157 410v876h180v-866zM485 1663v149h523v-149h-523z" />
    <glyph glyph-name="umacron" unicode="&#x16b;" horiz-adv-x="1226" 
d="M889 0v174q-39 -82 -130.5 -137t-209.5 -55q-78 0 -147.5 25t-127 75t-91 135t-33.5 195v641h178v-592q0 -81 22.5 -141.5t61.5 -95t86.5 -51.5t101.5 -17q114 0 201.5 84t87.5 231v582h178v-1053h-178zM346 1294v150h522v-150h-522z" />
    <glyph glyph-name="Uring" unicode="&#x16e;" horiz-adv-x="1495" 
d="M358 555q0 -186 110.5 -293.5t279.5 -107.5t279 107.5t110 293.5v866h180v-876q0 -257 -156.5 -410t-412.5 -153t-413 153t-157 410v876h180v-866zM528 1737q0 89 64 152t156 63q93 0 157 -62.5t64 -152.5q0 -91 -63.5 -152t-157.5 -61q-93 0 -156.5 61.5t-63.5 151.5z
M655 1737q0 -40 28 -66t65 -26q38 0 66 26t28 66t-28 66t-66 26q-37 0 -65 -26t-28 -66z" />
    <glyph glyph-name="uring" unicode="&#x16f;" horiz-adv-x="1226" 
d="M889 0v174q-39 -82 -130.5 -137t-209.5 -55q-78 0 -147.5 25t-127 75t-91 135t-33.5 195v641h178v-592q0 -81 22.5 -141.5t61.5 -95t86.5 -51.5t101.5 -17q114 0 201.5 84t87.5 231v582h178v-1053h-178zM389 1368q0 90 63.5 152.5t155.5 62.5q93 0 157 -62.5t64 -152.5
q0 -91 -63.5 -152t-157.5 -61q-92 0 -155.5 61t-63.5 152zM516 1368q0 -40 27.5 -66t64.5 -26q38 0 66 26t28 66t-28 66t-66 26q-37 0 -64.5 -26t-27.5 -66z" />
    <glyph glyph-name="Uhungarumlaut" unicode="&#x170;" horiz-adv-x="1495" 
d="M358 555q0 -186 110.5 -293.5t279.5 -107.5t279 107.5t110 293.5v866h180v-876q0 -257 -156.5 -410t-412.5 -153t-413 153t-157 410v876h180v-866zM475 1573l236 325h180l-236 -325h-180zM817 1573l236 325h180l-236 -325h-180z" />
    <glyph glyph-name="uhungarumlaut" unicode="&#x171;" horiz-adv-x="1226" 
d="M889 0v174q-39 -82 -130.5 -137t-209.5 -55q-78 0 -147.5 25t-127 75t-91 135t-33.5 195v641h178v-592q0 -81 22.5 -141.5t61.5 -95t86.5 -51.5t101.5 -17q114 0 201.5 84t87.5 231v582h178v-1053h-178zM336 1204l235 326h181l-236 -326h-180zM678 1204l235 326h181
l-236 -326h-180z" />
    <glyph glyph-name="Uogonek" unicode="&#x172;" horiz-adv-x="1495" 
d="M358 555q0 -186 110.5 -293.5t279.5 -107.5t279 107.5t110 293.5v866h180v-876q0 -147 -53.5 -262.5t-151.5 -190.5q-94 -73 -139 -130t-45 -109q0 -43 26.5 -67t71.5 -24q53 0 113 37v-147q-47 -37 -138 -37q-109 0 -176 51t-67 139q0 100 127 189q-65 -12 -137 -12
q-256 0 -413 153t-157 410v876h180v-866z" />
    <glyph glyph-name="uogonek" unicode="&#x173;" horiz-adv-x="1226" 
d="M889 0v174q-39 -82 -130.5 -137t-209.5 -55q-78 0 -147.5 25t-127 75t-91 135t-33.5 195v641h178v-592q0 -81 22.5 -141.5t61.5 -95t86.5 -51.5t101.5 -17q114 0 201.5 84t87.5 231v582h178v-1053q-100 -78 -149.5 -139t-49.5 -115q0 -42 28.5 -65t72.5 -23q50 0 110 37
v-148q-45 -36 -137 -36q-108 0 -176 53.5t-68 142.5q0 80 67 155t179 138h-55z" />
    <glyph glyph-name="Wcircumflex" unicode="&#x174;" horiz-adv-x="1910" 
d="M248 1421l338 -948l370 967l373 -963l334 944h186l-510 -1439l-385 1005l-383 -1005l-510 1439h187zM596 1573l362 352l363 -352h-193l-170 156l-172 -156h-190z" />
    <glyph glyph-name="wcircumflex" unicode="&#x175;" horiz-adv-x="1605" 
d="M238 1053l260 -658l307 676l309 -665l256 647h184l-424 -1071l-329 716l-326 -716l-424 1071h187zM442 1204l363 352l362 -352h-192l-170 156l-172 -156h-191z" />
    <glyph glyph-name="Ycircumflex" unicode="&#x176;" horiz-adv-x="1359" 
d="M510 1573h-191l363 352l362 -352h-192l-170 156zM31 1421h209l440 -663l440 663h209l-559 -858v-563h-180v563z" />
    <glyph glyph-name="ycircumflex" unicode="&#x177;" 
d="M582 -176q-55 -133 -139.5 -199.5t-219.5 -66.5h-143v170h139q68 0 110 33.5t74 105.5l66 151l-438 1035h198l336 -805l316 805h200zM205 1204l362 352l363 -352h-193l-170 156l-172 -156h-190z" />
    <glyph glyph-name="Ydieresis" unicode="&#x178;" horiz-adv-x="1359" 
d="M489 1853q49 0 83 -33.5t34 -80.5q0 -48 -34 -81.5t-83 -33.5t-82.5 33.5t-33.5 81.5t33.5 81t82.5 33zM31 1421h209l440 -663l440 663h209l-559 -858v-563h-180v563zM752 1739q0 48 33.5 81t82.5 33t83 -33.5t34 -80.5q0 -48 -34 -81.5t-83 -33.5t-82.5 33.5t-33.5 81.5
z" />
    <glyph glyph-name="Zacute" unicode="&#x179;" horiz-adv-x="1372" 
d="M141 1421h1110l-815 -1249h815v-172h-1130l809 1249h-789v172zM539 1573l299 325h200l-299 -325h-200z" />
    <glyph glyph-name="zacute" unicode="&#x17a;" horiz-adv-x="1024" 
d="M969 1053l-598 -883h561v-170h-881l592 883h-547v170h873zM365 1204l299 326h200l-299 -326h-200z" />
    <glyph glyph-name="Zdotaccent" unicode="&#x17b;" horiz-adv-x="1372" 
d="M141 1421h1110l-815 -1249h815v-172h-1130l809 1249h-789v172zM567 1737q0 47 34 80.5t83 33.5t83 -33.5t34 -80.5q0 -48 -34 -81.5t-83 -33.5t-83 33.5t-34 81.5z" />
    <glyph glyph-name="zdotaccent" unicode="&#x17c;" horiz-adv-x="1024" 
d="M969 1053l-598 -883h561v-170h-881l592 883h-547v170h873zM393 1368q0 48 34 81.5t83 33.5t83 -33.5t34 -81.5t-34 -81.5t-83 -33.5t-83 33.5t-34 81.5z" />
    <glyph glyph-name="Zcaron" unicode="&#x17d;" horiz-adv-x="1372" 
d="M141 1421h1110l-815 -1249h815v-172h-1130l809 1249h-789v172zM322 1898h192l170 -155l172 155h191l-363 -352z" />
    <glyph glyph-name="zcaron" unicode="&#x17e;" horiz-adv-x="1024" 
d="M969 1053l-598 -883h561v-170h-881l592 883h-547v170h873zM147 1530h193l170 -156l172 156h190l-362 -352z" />
    <glyph glyph-name="uni018F" unicode="&#x18f;" horiz-adv-x="1505" 
d="M752 -18q-284 0 -460.5 182t-176.5 469v141h1087q-20 232 -163.5 360t-372.5 128q-155 0 -286.5 -67t-207.5 -157v234q72 68 198.5 118t301.5 50q326 0 522.5 -199t196.5 -530q0 -175 -52.5 -316.5t-142 -230t-203.5 -135.5t-241 -47zM299 602q3 -191 127 -317.5
t319 -126.5q176 0 301 116.5t152 327.5h-899z" />
    <glyph glyph-name="florin" unicode="&#x192;" horiz-adv-x="1222" 
d="M184 662v151h351l32 248q24 181 125 270.5t258 89.5h180v-170h-165q-88 0 -147 -46.5t-75 -166.5l-28 -225h332v-151h-353l-39 -302q-24 -181 -125 -270.5t-258 -89.5h-180v170h166q88 0 146.5 46.5t74.5 166.5l37 279h-332z" />
    <glyph glyph-name="uni01CD" unicode="&#x1cd;" horiz-adv-x="1468" 
d="M51 0l684 1440l682 -1440h-198l-179 379h-616l-178 -379h-195zM373 1898h192l170 -155l172 155h191l-363 -352zM504 551h457l-228 487z" />
    <glyph glyph-name="uni01CE" unicode="&#x1ce;" horiz-adv-x="1124" 
d="M168 950q45 45 148 83t210 38q214 0 331.5 -113t117.5 -309v-649h-176v184q-34 -81 -131 -141.5t-228 -60.5q-152 0 -255 85t-103 236q0 74 30.5 133t83 97t113.5 61.5t131 34.5l359 55q-9 100 -89 158.5t-184 58.5q-103 0 -203.5 -46t-154.5 -114v209zM195 1530h192
l170 -156l172 156h191l-363 -352zM264 309q0 -78 62 -120t155 -42q111 0 214.5 80.5t103.5 178.5v122l-318 -49q-58 -9 -103.5 -26.5t-79.5 -55t-34 -88.5z" />
    <glyph glyph-name="uni0218" unicode="&#x218;" horiz-adv-x="1234" 
d="M1049 1042q-71 94 -185.5 160t-251.5 66q-127 0 -208.5 -56t-81.5 -151q0 -39 13 -71t32 -52.5t53 -40t61.5 -30.5t73.5 -27l197 -68q60 -21 105.5 -40.5t97.5 -52.5t86 -71t56.5 -94t22.5 -123q0 -130 -67.5 -224t-177 -139.5t-246.5 -45.5q-176 0 -305.5 49t-188.5 114
v234q73 -96 195.5 -160.5t292.5 -64.5q137 0 224 60t87 163q0 34 -8 62t-27 49.5t-36.5 36.5t-52 30.5t-56 23.5t-64.5 23l-217 74q-66 22 -119 49t-106 70t-83 106t-30 141q0 91 43 168t112 126t154 76.5t172 27.5q147 0 260.5 -49t172.5 -115v-234zM412 -514l112 395h176
l-145 -395h-143z" />
    <glyph glyph-name="uni0219" unicode="&#x219;" horiz-adv-x="1017" 
d="M860 741q-59 71 -153 120.5t-205 49.5q-86 0 -147.5 -36.5t-61.5 -96.5q0 -46 37.5 -72.5t122.5 -54.5l159 -51l48 -16t46.5 -16.5t48 -20.5t43 -24t40.5 -29.5t32.5 -35.5t27.5 -43.5t15.5 -51.5t6.5 -62q0 -147 -116 -233t-290 -86q-144 0 -251 36.5t-152 85.5v205
q61 -72 161 -120t238 -48q93 0 160 38t67 106q0 56 -41 86.5t-129 58.5l-178 55q-31 9 -45.5 14t-45 16.5t-47.5 22t-42.5 27t-40 35.5t-29.5 43t-21.5 54.5t-6.5 66.5q0 90 58 162t147.5 108.5t189.5 36.5q119 0 212.5 -36.5t141.5 -84.5v-209zM287 -514l112 395h176
l-145 -395h-143z" />
    <glyph glyph-name="uni021A" unicode="&#x21a;" horiz-adv-x="1294" 
d="M72 1249v172h1151v-172h-486v-1249h-180v1249h-485zM459 -514l112 395h177l-146 -395h-143z" />
    <glyph glyph-name="uni021B" unicode="&#x21b;" horiz-adv-x="755" 
d="M678 1053v-170h-291v-551q0 -77 41.5 -119.5t108.5 -42.5h141v-170h-178q-129 0 -210 77.5t-81 215.5v590h-180v170h180v227l178 61v-288h291zM293 -504l113 395h176l-146 -395h-143z" />
    <glyph glyph-name="uni0237" unicode="&#x237;" horiz-adv-x="501" 
d="M164 1053h178v-1182q0 -141 -85 -227t-226 -86h-137v170h120q67 0 108.5 42t41.5 119v1164z" />
    <glyph glyph-name="uni0259" unicode="&#x259;" horiz-adv-x="1185" 
d="M547 1071q109 0 205.5 -36.5t171 -104.5t118 -175t43.5 -239q0 -241 -140.5 -387.5t-356.5 -146.5t-352 142.5t-136 379.5v94h799q-10 144 -108.5 224.5t-243.5 80.5q-75 0 -144.5 -19t-120 -49.5t-83.5 -57.5t-56 -54v217q50 52 152 91.5t252 39.5zM285 442
q7 -135 93.5 -215t213.5 -80q70 0 128 28.5t93.5 73.5t56.5 95t25 98h-610z" />
    <glyph glyph-name="circumflex" unicode="&#x2c6;" horiz-adv-x="1228" 
d="M442 1204h-190l362 352l363 -352h-193l-170 156z" />
    <glyph glyph-name="caron" unicode="&#x2c7;" horiz-adv-x="1228" 
d="M786 1530h191l-363 -352l-362 352h192l170 -156z" />
    <glyph glyph-name="breve" unicode="&#x2d8;" horiz-adv-x="1228" 
d="M465 1518q0 -69 42 -115.5t107 -46.5t107.5 47t42.5 115h154q0 -139 -87 -221.5t-217 -82.5t-216.5 82.5t-86.5 221.5h154z" />
    <glyph glyph-name="dotaccent" unicode="&#x2d9;" horiz-adv-x="1228" 
d="M614 1483q49 0 83 -33.5t34 -81.5t-34 -81.5t-83 -33.5t-82.5 33.5t-33.5 81.5t33.5 81.5t82.5 33.5z" />
    <glyph glyph-name="ring" unicode="&#x2da;" horiz-adv-x="1228" 
d="M834 1368q0 -91 -64 -152t-158 -61q-92 0 -155.5 61t-63.5 152q0 90 63.5 152.5t155.5 62.5q93 0 157.5 -62.5t64.5 -152.5zM520 1368q0 -40 27.5 -66t64.5 -26q38 0 66.5 26t28.5 66t-28.5 66t-66.5 26q-37 0 -64.5 -26t-27.5 -66z" />
    <glyph glyph-name="ogonek" unicode="&#x2db;" horiz-adv-x="1228" 
d="M672 -489q-108 0 -176 53.5t-68 142.5q0 90 82 172.5t215 147.5l72 -27q-100 -78 -149.5 -139t-49.5 -115q0 -42 28 -65t72 -23q51 0 111 37v-148q-45 -36 -137 -36z" />
    <glyph glyph-name="tilde" unicode="&#x2dc;" horiz-adv-x="1228" 
d="M305 1403q49 80 164 80q54 0 154 -42t147 -42q90 0 154 84v-152q-51 -78 -164 -78q-54 0 -153 42t-146 42q-92 0 -156 -84v150z" />
    <glyph glyph-name="hungarumlaut" unicode="&#x2dd;" horiz-adv-x="1228" 
d="M236 1204l235 326h180l-235 -326h-180zM578 1204l235 326h180l-235 -326h-180z" />
    <glyph glyph-name="gravecomb" unicode="&#x300;" horiz-adv-x="0" 
d="M315 1530h201l299 -326h-201z" />
    <glyph glyph-name="acutecomb" unicode="&#x301;" horiz-adv-x="0" 
d="M913 1530l-299 -326h-200l299 326h200z" />
    <glyph glyph-name="uni0302" unicode="&#x302;" horiz-adv-x="0" 
d="M442 1204h-190l362 352l363 -352h-193l-170 156z" />
    <glyph glyph-name="tildecomb" unicode="&#x303;" horiz-adv-x="0" 
d="M305 1403q49 80 164 80q54 0 154 -42t147 -42q90 0 154 84v-152q-51 -78 -164 -78q-54 0 -153 42t-146 42q-92 0 -156 -84v150z" />
    <glyph glyph-name="uni0304" unicode="&#x304;" horiz-adv-x="0" 
d="M352 1444h522v-150h-522v150z" />
    <glyph glyph-name="uni0306" unicode="&#x306;" horiz-adv-x="0" 
d="M465 1518q0 -69 42 -115.5t107 -46.5t107.5 47t42.5 115h154q0 -139 -87 -221.5t-217 -82.5t-216.5 82.5t-86.5 221.5h154z" />
    <glyph glyph-name="uni0307" unicode="&#x307;" horiz-adv-x="0" 
d="M614 1483q49 0 83 -33.5t34 -81.5t-34 -81.5t-83 -33.5t-82.5 33.5t-33.5 81.5t33.5 81.5t82.5 33.5z" />
    <glyph glyph-name="uni0308" unicode="&#x308;" horiz-adv-x="0" 
d="M424 1485q49 0 83 -33.5t34 -81.5t-34 -81.5t-83 -33.5t-83 33.5t-34 81.5t34 81.5t83 33.5zM686 1370q0 48 34 81.5t83 33.5t83 -33.5t34 -81.5t-34 -81.5t-83 -33.5t-83 33.5t-34 81.5z" />
    <glyph glyph-name="uni030A" unicode="&#x30a;" horiz-adv-x="0" 
d="M834 1368q0 -91 -64 -152t-158 -61q-92 0 -155.5 61t-63.5 152q0 90 63.5 152.5t155.5 62.5q93 0 157.5 -62.5t64.5 -152.5zM520 1368q0 -40 27.5 -66t64.5 -26q38 0 66.5 26t28.5 66t-28.5 66t-66.5 26q-37 0 -64.5 -26t-27.5 -66z" />
    <glyph glyph-name="uni030B" unicode="&#x30b;" horiz-adv-x="0" 
d="M236 1204l235 326h180l-235 -326h-180zM578 1204l235 326h180l-235 -326h-180z" />
    <glyph glyph-name="uni030C" unicode="&#x30c;" horiz-adv-x="0" 
d="M786 1530h191l-363 -352l-362 352h192l170 -156z" />
    <glyph glyph-name="uni0312" unicode="&#x312;" horiz-adv-x="0" 
d="M477 1212l146 396h143l-113 -396h-176z" />
    <glyph glyph-name="uni0326" unicode="&#x326;" horiz-adv-x="0" 
d="M754 -119l-146 -395h-143l113 395h176z" />
    <glyph glyph-name="uni0327" unicode="&#x327;" horiz-adv-x="0" 
d="M584 -500q-88 0 -160 39v160q23 -22 64 -38.5t87 -16.5q36 0 63.5 18.5t27.5 52.5q0 44 -51 61.5t-130 8.5l60 215h137l-33 -113q71 -7 123.5 -53.5t52.5 -126.5q0 -92 -67 -149.5t-174 -57.5z" />
    <glyph glyph-name="uni0328" unicode="&#x328;" horiz-adv-x="0" 
d="M672 -489q-108 0 -176 53.5t-68 142.5q0 90 82 172.5t215 147.5l72 -27q-100 -78 -149.5 -139t-49.5 -115q0 -42 28 -65t72 -23q51 0 111 37v-148q-45 -36 -137 -36z" />
    <glyph glyph-name="uni0394" unicode="&#x394;" horiz-adv-x="1468" 
d="M735 1440l682 -1440h-1366zM326 172h815l-408 866z" />
    <glyph glyph-name="uni03A9" unicode="&#x3a9;" horiz-adv-x="1654" 
d="M950 213q39 7 86.5 33.5t98.5 75.5t92.5 112t68.5 151t27 185q0 211 -140.5 351.5t-355.5 140.5t-355 -140.5t-140 -351.5q0 -97 27 -185t68.5 -151t92.5 -112t98.5 -75.5t86.5 -33.5v-213h-560v172h320q-139 91 -229.5 248.5t-90.5 349.5q0 193 88 346t244 238.5
t350 85.5t350 -85.5t244 -238.5t88 -346q0 -192 -90 -349.5t-229 -248.5h319v-172h-559v213z" />
    <glyph glyph-name="uni03BC" unicode="&#x3bc;" horiz-adv-x="1236" 
d="M338 1053v-592q0 -81 22.5 -141.5t61.5 -95t86.5 -51.5t101.5 -17q114 0 201.5 84t87.5 231v582h178v-1053h-178v174q-39 -82 -130.5 -137t-209.5 -55q-126 0 -221 59v-483h-178v1495h178z" />
    <glyph glyph-name="pi" unicode="&#x3c0;" horiz-adv-x="1325" 
d="M440 0h-178v883h-205v170h1166v-170h-226v-551q0 -77 41.5 -119.5t108.5 -42.5h76v-170h-113q-129 0 -210 77.5t-81 215.5v590h-379v-883z" />
    <glyph glyph-name="uni0400" unicode="&#x400;" horiz-adv-x="1175" 
d="M274 1898h201l299 -325h-201zM188 0v1421h856v-172h-675v-442h639v-170h-639v-465h675v-172h-856z" />
    <glyph glyph-name="uni0401" unicode="&#x401;" horiz-adv-x="1175" 
d="M438 1853q49 0 83 -33.5t34 -80.5q0 -48 -34 -81.5t-83 -33.5t-82.5 33.5t-33.5 81.5t33.5 81t82.5 33zM188 0v1421h856v-172h-675v-442h639v-170h-639v-465h675v-172h-856zM700 1739q0 47 34 80.5t83 33.5t83 -33.5t34 -80.5q0 -48 -34 -81.5t-83 -33.5t-83 33.5
t-34 81.5z" />
    <glyph glyph-name="uni0402" unicode="&#x402;" horiz-adv-x="1724" 
d="M1075 -358v172h158q95 0 141.5 50t46.5 173v436q0 182 -213 182h-471v-655h-180v1249h-485v172h1151v-172h-486v-422h494q171 0 271 -87t100 -248v-472q0 -378 -359 -378h-168z" />
    <glyph glyph-name="uni0403" unicode="&#x403;" 
d="M1040 1421v-172h-671v-1249h-181v1421h852zM516 1573l299 325h201l-299 -325h-201z" />
    <glyph glyph-name="uni0404" unicode="&#x404;" horiz-adv-x="1445" 
d="M836 -18q-118 0 -225 30t-197.5 91t-157 147t-104 204t-37.5 257q0 131 39 247.5t108 203.5t160 150.5t197 95.5t217 32q315 0 479 -168v-234q-79 93 -200.5 158.5t-276.5 65.5q-130 0 -242 -53t-190 -157.5t-99 -244.5h723v-170h-725q24 -221 175.5 -349t357.5 -128
q155 0 277 65t200 158v-233q-164 -168 -479 -168z" />
    <glyph glyph-name="uni0405" unicode="&#x405;" horiz-adv-x="1234" 
d="M1049 1042q-71 94 -185.5 160t-251.5 66q-127 0 -208.5 -56t-81.5 -151q0 -39 13 -71t32 -52.5t53 -40t61.5 -30.5t73.5 -27l197 -68q60 -21 105.5 -40.5t97.5 -52.5t86 -71t56.5 -94t22.5 -123q0 -130 -67.5 -224t-177 -139.5t-246.5 -45.5q-176 0 -305.5 49t-188.5 114
v234q73 -96 195.5 -160.5t292.5 -64.5q137 0 224 60t87 163q0 34 -8 62t-27 49.5t-36.5 36.5t-52 30.5t-56 23.5t-64.5 23l-217 74q-66 22 -119 49t-106 70t-83 106t-30 141q0 91 43 168t112 126t154 76.5t172 27.5q147 0 260.5 -49t172.5 -115v-234z" />
    <glyph glyph-name="uni0406" unicode="&#x406;" horiz-adv-x="557" 
d="M369 1421v-1421h-181v1421h181z" />
    <glyph glyph-name="uni0407" unicode="&#x407;" horiz-adv-x="557" 
d="M369 1421v-1421h-181v1421h181zM-29 1739q0 47 34 80.5t83 33.5t83 -33.5t34 -80.5q0 -48 -34 -81.5t-83 -33.5t-83 33.5t-34 81.5zM350 1739q0 47 34 80.5t83 33.5t83 -33.5t34 -80.5q0 -48 -34 -81.5t-83 -33.5t-83 33.5t-34 81.5z" />
    <glyph glyph-name="uni0408" unicode="&#x408;" horiz-adv-x="780" 
d="M420 1421h180v-1042q0 -188 -91 -283.5t-269 -95.5h-168v172h157q96 0 143.5 50.5t47.5 172.5v1026z" />
    <glyph glyph-name="uni0409" unicode="&#x409;" horiz-adv-x="2091" 
d="M121 0h-78v172h57q105 0 160 69t55 226v954h922v-553h279q218 0 351.5 -115.5t133.5 -318.5q0 -206 -130.5 -320t-352.5 -114h-461v1249h-572v-782q0 -223 -93 -345t-271 -122zM1237 172h268q152 0 231 71.5t79 190.5q0 120 -79 191t-231 71h-268v-524z" />
    <glyph glyph-name="uni040A" unicode="&#x40a;" horiz-adv-x="2162" 
d="M369 0h-181v1421h181v-565h753v565h181v-565h268q226 0 364 -113.5t138 -316.5q0 -202 -136 -314t-366 -112h-449v684h-753v-684zM1303 172h268q155 0 235 70t80 184q0 117 -79.5 187.5t-235.5 70.5h-268v-512z" />
    <glyph glyph-name="uni040B" unicode="&#x40b;" horiz-adv-x="1724" 
d="M1421 473q0 182 -213 182h-471v-655h-180v1249h-485v172h1151v-172h-486v-422h494q171 0 271 -87t100 -248v-492h-181v473z" />
    <glyph glyph-name="uni040C" unicode="&#x40c;" horiz-adv-x="1308" 
d="M1001 1421h232l-621 -659l666 -762h-246l-663 750zM188 0v1421h181v-1421h-181zM522 1573l299 325h201l-299 -325h-201z" />
    <glyph glyph-name="uni040D" unicode="&#x40d;" horiz-adv-x="1515" 
d="M369 1421v-1005l958 1024v-1440h-180v1014l-959 -1032v1439h181zM430 1898h201l299 -325h-201z" />
    <glyph glyph-name="uni040E" unicode="&#x40e;" horiz-adv-x="1353" 
d="M291 0v172h119q84 0 140.5 35.5t82.5 97.5v2l-582 1114h199l473 -915l383 915h197l-490 -1147q-64 -149 -155 -211.5t-228 -62.5h-139zM371 1864h153q0 -68 42.5 -115t107.5 -47t107 46.5t42 115.5h154q0 -139 -86.5 -221t-216.5 -82t-216.5 82t-86.5 221z" />
    <glyph glyph-name="uni040F" unicode="&#x40f;" horiz-adv-x="1511" 
d="M369 1421v-1249h774v1249h180v-1421h-481v-305h-172v305h-482v1421h181z" />
    <glyph glyph-name="uni0410" unicode="&#x410;" horiz-adv-x="1468" 
d="M51 0l684 1440l682 -1440h-198l-179 379h-616l-178 -379h-195zM504 551h457l-228 487z" />
    <glyph glyph-name="uni0411" unicode="&#x411;" horiz-adv-x="1230" 
d="M680 852q207 0 334 -110t127 -306q0 -194 -129 -315t-332 -121h-492v1421h850v-172h-669v-397h311zM369 172h286q138 0 218.5 70.5t80.5 193.5q0 121 -79 183.5t-220 62.5h-286v-510z" />
    <glyph glyph-name="uni0412" unicode="&#x412;" horiz-adv-x="1265" 
d="M188 0v1421h469q201 0 322 -100t121 -266q0 -119 -57 -193t-150 -108q53 -13 100 -39.5t88 -67.5t65.5 -102t24.5 -135q0 -198 -135 -304t-362 -106h-486zM369 172h301q142 0 228.5 61.5t86.5 178.5t-86 177t-229 60h-301v-477zM369 819h270q274 0 274 219
q0 100 -72 155.5t-202 55.5h-270v-430z" />
    <glyph glyph-name="uni0413" unicode="&#x413;" 
d="M1040 1421v-172h-671v-1249h-181v1421h852z" />
    <glyph glyph-name="uni0414" unicode="&#x414;" horiz-adv-x="1501" 
d="M1419 172v-451h-172v279h-1044v-279h-172v451h121q91 77 127 197.5t36 326.5v725h922v-1249h182zM358 172h699v1077h-572v-590q0 -371 -127 -487z" />
    <glyph glyph-name="uni0415" unicode="&#x415;" horiz-adv-x="1175" 
d="M188 0v1421h856v-172h-675v-442h639v-170h-639v-465h675v-172h-856z" />
    <glyph glyph-name="uni0416" unicode="&#x416;" horiz-adv-x="1961" 
d="M891 748l-633 -748h-227l626 756l-583 665h219zM891 0v1421h180v-1421h-180zM1071 748l598 673h219l-585 -663l628 -758h-227z" />
    <glyph glyph-name="uni0417" unicode="&#x417;" horiz-adv-x="1208" 
d="M805 748q53 -12 103 -38.5t96 -68.5t74 -106t28 -140q0 -122 -72 -217t-191 -145.5t-261 -50.5q-154 0 -278.5 49.5t-182.5 113.5v234q72 -95 190 -160t271 -65q90 0 164.5 25.5t124 83.5t49.5 140q0 122 -104 184t-277 62h-183v166h160q162 0 258 62t96 176
q0 109 -79.5 162t-198.5 53q-153 0 -271 -65t-190 -161v234q58 65 183 114.5t280 49.5q204 0 333.5 -99t129.5 -276q0 -67 -22.5 -123t-60.5 -93.5t-80 -62t-89 -38.5z" />
    <glyph glyph-name="uni0418" unicode="&#x418;" horiz-adv-x="1515" 
d="M369 1421v-1005l958 1024v-1440h-180v1014l-959 -1032v1439h181z" />
    <glyph glyph-name="uni0419" unicode="&#x419;" horiz-adv-x="1515" 
d="M369 1421v-1005l958 1024v-1440h-180v1014l-959 -1032v1439h181zM481 1864h154q0 -69 42 -115.5t107 -46.5t107.5 47t42.5 115h153q0 -139 -86.5 -221t-216.5 -82t-216.5 82t-86.5 221z" />
    <glyph glyph-name="uni041A" unicode="&#x41a;" horiz-adv-x="1308" 
d="M1001 1421h232l-621 -659l666 -762h-246l-663 750zM188 0v1421h181v-1421h-181z" />
    <glyph glyph-name="uni041B" unicode="&#x41b;" horiz-adv-x="1425" 
d="M121 0h-78v172h57q105 0 160 69t55 226v954h922v-1421h-180v1249h-572v-782q0 -223 -93 -345t-271 -122z" />
    <glyph glyph-name="uni041C" unicode="&#x41c;" horiz-adv-x="1761" 
d="M188 0v1440l703 -774l682 774v-1440h-180v985l-502 -575l-522 579v-989h-181z" />
    <glyph glyph-name="uni041D" unicode="&#x41d;" horiz-adv-x="1515" 
d="M1147 1421h180v-1421h-180v649h-778v-649h-181v1421h181v-600h778v600z" />
    <glyph glyph-name="uni041E" unicode="&#x41e;" horiz-adv-x="1648" 
d="M825 160q224 0 373.5 157.5t149.5 393.5t-149.5 393.5t-373.5 157.5q-225 0 -374.5 -157t-149.5 -394t149.5 -394t374.5 -157zM115 711q0 204 93 371t255.5 262.5t361.5 95.5q148 0 279.5 -56t225.5 -152.5t149 -232t55 -288.5t-55 -288.5t-149 -232t-225.5 -152.5
t-279.5 -56q-199 0 -361.5 95.5t-255.5 262.5t-93 371z" />
    <glyph glyph-name="uni041F" unicode="&#x41f;" horiz-adv-x="1515" 
d="M1327 1421v-1421h-180v1249h-778v-1249h-181v1421h1139z" />
    <glyph glyph-name="uni0420" unicode="&#x420;" horiz-adv-x="1208" 
d="M623 729q152 0 230.5 71t78.5 191q0 118 -78.5 188t-230.5 70h-254v-520h254zM188 0v1421h447q224 0 353.5 -112t129.5 -318q0 -207 -131.5 -320.5t-351.5 -113.5h-266v-557h-181z" />
    <glyph glyph-name="uni0421" unicode="&#x421;" horiz-adv-x="1445" 
d="M1315 1038q-79 93 -198 158.5t-269 65.5q-109 0 -209 -40.5t-174.5 -112t-119 -175.5t-44.5 -223q0 -161 76 -288.5t200 -195t271 -67.5q150 0 269.5 65t197.5 158v-233q-164 -168 -469 -168q-150 0 -282.5 51t-232.5 143t-158 230.5t-58 304.5q0 156 61 293.5t162 232
t234 149t274 54.5q305 0 469 -168v-234z" />
    <glyph glyph-name="uni0422" unicode="&#x422;" horiz-adv-x="1294" 
d="M72 1249v172h1151v-172h-486v-1249h-180v1249h-485z" />
    <glyph glyph-name="uni0423" unicode="&#x423;" horiz-adv-x="1353" 
d="M291 0v172h119q84 0 140.5 35.5t82.5 97.5v2l-582 1114h199l473 -915l383 915h197l-490 -1147q-64 -149 -155 -211.5t-228 -62.5h-139z" />
    <glyph glyph-name="uni0424" unicode="&#x424;" horiz-adv-x="1779" 
d="M748 113q-116 0 -229.5 41.5t-206.5 117t-150.5 194t-57.5 259.5q0 115 37.5 215t101.5 172t146.5 124t174.5 77.5t184 25.5h53v179h178v-179h53q116 0 229.5 -41.5t206 -116.5t150 -194.5t57.5 -261.5q0 -141 -57.5 -259.5t-150 -194t-206 -117t-229.5 -41.5h-53v-174
h-178v174h-53zM289 725q0 -91 30 -167t78 -126t109.5 -85t122.5 -50.5t119 -15.5h53v890h-53q-58 0 -119 -15.5t-122.5 -50.5t-109.5 -85.5t-78 -127t-30 -167.5zM979 281h53q58 0 119 15.5t122.5 50.5t109.5 85t78 126t30 167t-30 167.5t-78 127t-109.5 85.5t-122.5 50.5
t-119 15.5h-53v-890z" />
    <glyph glyph-name="uni0425" unicode="&#x425;" horiz-adv-x="1417" 
d="M287 1421l426 -567l417 567h222l-521 -700l535 -721h-225l-436 592l-433 -592h-221l537 723l-522 698h221z" />
    <glyph glyph-name="uni0426" unicode="&#x426;" horiz-adv-x="1579" 
d="M1497 172v-451h-172v279h-1137v1421h181v-1249h768v1249h180v-1249h180z" />
    <glyph glyph-name="uni0427" unicode="&#x427;" horiz-adv-x="1376" 
d="M1008 1421h180v-1421h-180v594h-514q-171 0 -271 87.5t-100 248.5v491h180v-473q0 -182 213 -182h492v655z" />
    <glyph glyph-name="uni0428" unicode="&#x428;" horiz-adv-x="2043" 
d="M188 0v1421h181v-1249h563v1249h180v-1249h563v1249h180v-1421h-1667z" />
    <glyph glyph-name="uni0429" unicode="&#x429;" horiz-adv-x="2117" 
d="M2036 172v-451h-172v279h-1676v1421h181v-1249h563v1249h180v-1249h563v1249h180v-1249h181z" />
    <glyph glyph-name="uni042A" unicode="&#x42a;" horiz-adv-x="1503" 
d="M72 1249v172h577v-553h279q218 0 351.5 -115.5t133.5 -318.5q0 -206 -130.5 -320t-352.5 -114h-461v1249h-397zM649 172h269q152 0 230.5 71.5t78.5 190.5q0 120 -78.5 191t-230.5 71h-269v-524z" />
    <glyph glyph-name="uni042B" unicode="&#x42b;" horiz-adv-x="1720" 
d="M1532 1421v-1421h-180v1421h180zM188 0v1421h181v-553h278q218 0 352 -115.5t134 -318.5q0 -206 -131 -320t-353 -114h-461zM369 172h268q152 0 230.5 71.5t78.5 190.5q0 120 -78.5 191t-230.5 71h-268v-524z" />
    <glyph glyph-name="uni042C" unicode="&#x42c;" horiz-adv-x="1222" 
d="M188 0v1421h181v-553h278q218 0 352 -115.5t134 -318.5q0 -206 -131 -320t-353 -114h-461zM369 172h268q152 0 230.5 71.5t78.5 190.5q0 120 -78.5 191t-230.5 71h-268v-524z" />
    <glyph glyph-name="uni042D" unicode="&#x42d;" horiz-adv-x="1445" 
d="M631 -18q-167 0 -297 51t-203 117v233q75 -88 210.5 -155.5t287.5 -67.5q209 0 350 126.5t162 350.5h-725v170h723q-27 212 -167.5 333.5t-342.5 121.5q-152 0 -287.5 -67.5t-210.5 -156.5v234q75 65 204 116.5t296 51.5q142 0 269 -51.5t223 -144t152 -231t56 -302.5
q0 -174 -53 -313t-147.5 -229.5t-222 -138.5t-277.5 -48z" />
    <glyph glyph-name="uni042E" unicode="&#x42e;" horiz-adv-x="2134" 
d="M369 0h-181v1421h181v-612h243q16 135 75.5 252t150.5 200.5t213.5 131t259.5 47.5q148 0 279.5 -56t225.5 -152.5t148.5 -232t54.5 -288.5t-54.5 -288.5t-148.5 -232t-225.5 -152.5t-279.5 -56q-187 0 -341.5 85t-249 234t-110.5 336h-241v-637zM786 711
q0 -236 150.5 -393.5t374.5 -157.5q223 0 372.5 157.5t149.5 393.5t-149.5 393.5t-372.5 157.5q-224 0 -374.5 -157.5t-150.5 -393.5z" />
    <glyph glyph-name="uni042F" unicode="&#x42f;" horiz-adv-x="1308" 
d="M940 0v545h-297l-360 -545h-215l381 580q-131 47 -212 150.5t-81 250.5q0 207 133.5 323.5t353.5 116.5h477v-1421h-180zM342 981q0 -120 85.5 -192t231.5 -72h281v532h-281q-156 0 -236.5 -72.5t-80.5 -195.5z" />
    <glyph glyph-name="uni0430" unicode="&#x430;" horiz-adv-x="1124" 
d="M168 950q45 45 148 83t210 38q214 0 331.5 -113t117.5 -309v-649h-176v184q-34 -81 -131 -141.5t-228 -60.5q-152 0 -255 85t-103 236q0 74 30.5 133t83 97t113.5 61.5t131 34.5l359 55q-9 100 -89 158.5t-184 58.5q-103 0 -203.5 -46t-154.5 -114v209zM264 309
q0 -78 62 -120t155 -42q111 0 214.5 80.5t103.5 178.5v122l-318 -49q-58 -9 -103.5 -26.5t-79.5 -55t-34 -88.5z" />
    <glyph glyph-name="uni0431" unicode="&#x431;" horiz-adv-x="1306" 
d="M672 -20q-119 0 -219 41t-175.5 119t-118 201.5t-42.5 279.5q0 179 27.5 309.5t91 230.5t166.5 164t253 100q22 5 92 21.5t91 21.5t73 19t78.5 23.5t64 25t70.5 33.5v-185q-23 -13 -47.5 -24t-43.5 -19t-51 -17t-47 -14t-55.5 -14l-54 -12t-64.5 -13.5t-65 -13.5
q-89 -18 -154.5 -48.5t-105 -66.5t-64.5 -86.5t-35 -97t-15 -108.5q24 67 130.5 128.5t260.5 61.5q92 0 179.5 -34.5t157.5 -98t113 -163.5t43 -220q0 -126 -44 -230.5t-118 -172t-170 -104.5t-202 -37zM311 535q0 -170 106 -274.5t251 -104.5q143 0 249.5 101t106.5 257
q0 160 -106 259t-250 99q-70 0 -133.5 -22t-114 -63t-80 -106.5t-29.5 -145.5z" />
    <glyph glyph-name="uni0432" unicode="&#x432;" horiz-adv-x="1060" 
d="M160 0v1053h397q163 0 253.5 -74.5t90.5 -200.5q0 -82 -39 -138t-100 -81q34 -6 69 -24t66.5 -47.5t51.5 -77t20 -103.5q0 -141 -91.5 -224t-263.5 -83h-454zM338 166h264q89 0 136.5 37.5t47.5 107.5q0 71 -47.5 108.5t-136.5 37.5h-264v-291zM338 614h207
q83 0 128.5 36.5t45.5 99.5q0 64 -45 100.5t-129 36.5h-207v-273z" />
    <glyph glyph-name="uni0433" unicode="&#x433;" horiz-adv-x="927" 
d="M872 1053v-170h-534v-883h-178v1053h712z" />
    <glyph glyph-name="uni0434" unicode="&#x434;" horiz-adv-x="1241" 
d="M1180 170v-436h-170v266h-809v-266h-170v436h114q127 117 127 420v463h748v-883h160zM340 170h502v715h-400v-322q0 -156 -26.5 -244.5t-75.5 -148.5z" />
    <glyph glyph-name="uni0435" unicode="&#x435;" horiz-adv-x="1185" 
d="M659 -18q-109 0 -208.5 36.5t-178.5 104.5t-125.5 175.5t-46.5 238.5q0 239 146.5 386.5t363.5 147.5q213 0 344 -138.5t131 -363.5v-94h-798q7 -96 61 -171.5t135.5 -114.5t175.5 -39q227 0 383 180v-217q-126 -131 -383 -131zM291 631h610q-9 123 -90 198.5t-205 75.5
q-70 0 -129.5 -25.5t-98 -66t-61 -87.5t-26.5 -95z" />
    <glyph glyph-name="uni0436" unicode="&#x436;" horiz-adv-x="1566" 
d="M696 0v1053h176v-1053h-176zM25 0l442 561l-424 492h219l432 -494l-442 -559h-227zM872 559l433 494h219l-424 -492l442 -561h-227z" />
    <glyph glyph-name="uni0437" unicode="&#x437;" horiz-adv-x="1001" 
d="M694 557q88 -22 151.5 -86t63.5 -168q0 -82 -36 -145.5t-97 -100.5t-133 -56t-151 -19q-132 0 -232 33.5t-160 88.5v205q58 -68 160 -115t223 -47q104 0 174 40.5t70 117.5q0 78 -69 116t-181 38h-184v162h184q94 0 150.5 37.5t56.5 107.5q0 68 -55.5 104.5t-151.5 36.5
q-107 0 -205 -48.5t-155 -117.5v209q54 49 150 85t218 36q170 0 275.5 -77.5t105.5 -211.5q0 -89 -49 -146.5t-123 -78.5z" />
    <glyph glyph-name="uni0438" unicode="&#x438;" horiz-adv-x="1230" 
d="M160 -18v1071h178v-682l733 700v-1071h-178v682z" />
    <glyph glyph-name="uni0439" unicode="&#x439;" horiz-adv-x="1230" 
d="M467 1495q0 -69 42 -115.5t107 -46.5t107.5 47t42.5 115h154q0 -139 -87 -221t-217 -82t-216.5 82t-86.5 221h154zM160 1053h178v-682l733 700v-1071h-178v682l-733 -700v1071z" />
    <glyph glyph-name="uni043A" unicode="&#x43a;" horiz-adv-x="1054" 
d="M338 1053v-1053h-178v1053h178zM338 561l457 492h221l-453 -486l477 -567h-225z" />
    <glyph glyph-name="uni043B" unicode="&#x43b;" horiz-adv-x="1179" 
d="M1020 1053v-1053h-178v885h-400v-486q0 -190 -87.5 -294.5t-245.5 -104.5h-76v170h55q107 0 145.5 66.5t38.5 209.5v607h748z" />
    <glyph glyph-name="uni043C" unicode="&#x43c;" horiz-adv-x="1425" 
d="M160 1071l553 -565l553 565v-1071h-179v664l-374 -390l-375 390v-664h-178v1071z" />
    <glyph glyph-name="uni043D" unicode="&#x43d;" horiz-adv-x="1218" 
d="M881 1053h178v-1053h-178v453h-543v-453h-178v1053h178v-430h543v430z" />
    <glyph glyph-name="uni043E" unicode="&#x43e;" horiz-adv-x="1265" 
d="M633 -18q-224 0 -378.5 158t-154.5 388q0 150 70.5 275t193 196.5t269.5 71.5q110 0 209 -42.5t169.5 -114.5t112 -172.5t41.5 -213.5q0 -230 -154 -388t-378 -158zM283 528q0 -158 100.5 -265t249.5 -107t249.5 107t100.5 265q0 157 -100.5 263t-249.5 106t-249.5 -106
t-100.5 -263z" />
    <glyph glyph-name="uni043F" unicode="&#x43f;" horiz-adv-x="1218" 
d="M1059 1053v-1053h-178v883h-543v-883h-178v1053h899z" />
    <glyph glyph-name="uni0440" unicode="&#x440;" horiz-adv-x="1306" 
d="M338 1053v-205q48 98 144 161.5t237 63.5q92 0 179 -37t156 -105t110.5 -173t41.5 -230t-41.5 -230.5t-110.5 -173t-156 -105t-179 -37.5q-140 0 -236.5 64.5t-144.5 162.5v-651h-178v1495h178zM338 528q0 -89 30 -162.5t80 -119t110 -70t124 -24.5q61 0 120.5 24.5
t109 70t80 119t30.5 162.5t-30.5 162.5t-80 118.5t-109 69.5t-120.5 24.5q-64 0 -124 -24.5t-110 -69.5t-80 -118.5t-30 -162.5z" />
    <glyph glyph-name="uni0441" unicode="&#x441;" 
d="M1012 717q-156 180 -359 180q-156 0 -263 -102.5t-107 -268.5t106.5 -268t263.5 -102q203 0 359 180v-223q-126 -131 -359 -131q-106 0 -205.5 39t-177 108t-124 172.5t-46.5 224.5t46.5 224.5t124 173t177 108.5t205.5 39q233 0 359 -131v-223z" />
    <glyph glyph-name="uni0442" unicode="&#x442;" horiz-adv-x="1030" 
d="M55 883v170h920v-170h-371v-883h-178v883h-371z" />
    <glyph glyph-name="uni0443" unicode="&#x443;" 
d="M582 -176q-55 -133 -139.5 -199.5t-219.5 -66.5h-143v170h139q68 0 110 33.5t74 105.5l66 151l-438 1035h198l336 -805l316 805h200z" />
    <glyph glyph-name="uni0444" unicode="&#x444;" horiz-adv-x="1566" 
d="M633 -18q-73 0 -147 21.5t-143.5 67t-123.5 108.5t-86.5 153t-32.5 194t32.5 194t86.5 153t123.5 108.5t143.5 67.5t147 22h61v436h178v-436h62q73 0 147 -22t143 -67.5t123 -108.5t86.5 -153t32.5 -194t-32.5 -194t-86.5 -153t-123 -108.5t-143 -67t-147 -21.5h-62v-424
h-178v424h-61zM283 526q0 -91 31.5 -165t83 -119.5t112.5 -70t123 -24.5h61v758h-61q-62 0 -123 -24.5t-112.5 -70t-83 -119.5t-31.5 -165zM872 147h62q62 0 123 24.5t112.5 70t83 119.5t31.5 165t-31.5 165t-83 119.5t-112.5 70t-123 24.5h-62v-758z" />
    <glyph glyph-name="uni0445" unicode="&#x445;" horiz-adv-x="1134" 
d="M270 1053l299 -385l299 385h213l-397 -518l410 -535h-215l-314 403l-311 -403h-213l410 537l-398 516h217z" />
    <glyph glyph-name="uni0446" unicode="&#x446;" horiz-adv-x="1275" 
d="M1214 170v-436h-170v266h-884v1053h178v-883h539v883h178v-883h159z" />
    <glyph glyph-name="uni0447" unicode="&#x447;" horiz-adv-x="1120" 
d="M782 1053h179v-1053h-179v422h-325q-166 0 -260.5 81t-94.5 236v314h179v-289q0 -172 198 -172h303v461z" />
    <glyph glyph-name="uni0448" unicode="&#x448;" horiz-adv-x="1689" 
d="M160 0v1053h178v-883h418v883h178v-883h418v883h178v-1053h-1370z" />
    <glyph glyph-name="uni0449" unicode="&#x449;" horiz-adv-x="1751" 
d="M1690 170v-436h-170v266h-1360v1053h178v-883h418v883h178v-883h418v883h178v-883h160z" />
    <glyph glyph-name="uni044A" unicode="&#x44a;" horiz-adv-x="1236" 
d="M772 705q174 0 283.5 -89.5t109.5 -259.5q0 -168 -109.5 -262t-283.5 -94h-389v885h-328v168h506v-348h211zM561 170h197q112 0 168.5 49.5t56.5 134.5q0 86 -59 134.5t-166 48.5h-197v-367z" />
    <glyph glyph-name="uni044B" unicode="&#x44b;" horiz-adv-x="1445" 
d="M1286 1053v-1053h-178v1053h178zM160 0v1053h178v-348h211q174 0 283.5 -89.5t109.5 -259.5q0 -168 -109.5 -262t-283.5 -94h-389zM338 170h197q112 0 168.5 49.5t56.5 134.5q0 86 -59 134.5t-166 48.5h-197v-367z" />
    <glyph glyph-name="uni044C" unicode="&#x44c;" horiz-adv-x="1013" 
d="M549 705q174 0 283.5 -89.5t109.5 -259.5q0 -168 -109.5 -262t-283.5 -94h-389v1053h178v-348h211zM338 170h197q112 0 168.5 49.5t56.5 134.5q0 86 -59 134.5t-166 48.5h-197v-367z" />
    <glyph glyph-name="uni044D" unicode="&#x44d;" 
d="M479 -18q-135 0 -232.5 40t-146.5 91v211q54 -62 149.5 -115t219.5 -53q142 0 239 77.5t117 223.5h-536v161h532q-26 136 -121 207.5t-231 71.5q-124 0 -219.5 -53t-149.5 -115v211q49 51 146.5 91t232.5 40q107 0 203 -36.5t169.5 -103.5t117 -172t43.5 -233t-43.5 -233
t-117 -172t-169.5 -103t-203 -36z" />
    <glyph glyph-name="uni044E" unicode="&#x44e;" horiz-adv-x="1687" 
d="M1059 -18q-204 0 -348.5 133.5t-171.5 337.5h-201v-453h-178v1053h178v-430h205q31 196 174 322t342 126q110 0 208 -42t168 -114.5t111 -173t41 -213.5q0 -151 -69 -276.5t-190.5 -197.5t-268.5 -72zM713 528q0 -159 98.5 -265.5t247.5 -106.5t247.5 106.5t98.5 265.5
q0 157 -98.5 263t-247.5 106t-247.5 -106t-98.5 -263z" />
    <glyph glyph-name="uni044F" unicode="&#x44f;" horiz-adv-x="1089" 
d="M57 0l289 387q-100 40 -159.5 120t-59.5 193q0 162 111 257.5t288 95.5h404v-1053h-178v356h-215l-265 -356h-215zM309 702q0 -81 64 -132.5t164 -51.5h215v367h-215q-102 0 -165 -48.5t-63 -134.5z" />
    <glyph glyph-name="uni0450" unicode="&#x450;" horiz-adv-x="1185" 
d="M659 -18q-109 0 -208.5 36.5t-178.5 104.5t-125.5 175.5t-46.5 238.5q0 239 146.5 386.5t363.5 147.5q213 0 344 -138.5t131 -363.5v-94h-798q7 -96 61 -171.5t135.5 -114.5t175.5 -39q227 0 383 180v-217q-126 -131 -383 -131zM258 1530h201l299 -326h-201zM291 631h610
q-9 123 -90 198.5t-205 75.5q-70 0 -129.5 -25.5t-98 -66t-61 -87.5t-26.5 -95z" />
    <glyph glyph-name="uni0451" unicode="&#x451;" horiz-adv-x="1185" 
d="M659 -18q-109 0 -208.5 36.5t-178.5 104.5t-125.5 175.5t-46.5 238.5q0 239 146.5 386.5t363.5 147.5q213 0 344 -138.5t131 -363.5v-94h-798q7 -96 61 -171.5t135.5 -114.5t175.5 -39q227 0 383 180v-217q-126 -131 -383 -131zM291 631h610q-9 123 -90 198.5t-205 75.5
q-70 0 -129.5 -25.5t-98 -66t-61 -87.5t-26.5 -95zM305 1370q0 48 34 81.5t83 33.5t83 -33.5t34 -81.5t-34 -81.5t-83 -33.5t-83 33.5t-34 81.5zM684 1370q0 48 34 81.5t83 33.5t83 -33.5t34 -81.5t-34 -81.5t-83 -33.5t-83 33.5t-34 81.5z" />
    <glyph glyph-name="uni0452" unicode="&#x452;" horiz-adv-x="1226" 
d="M338 1534v-152h272v-151h-272v-352q39 82 130.5 137t209.5 55q78 0 147.5 -25t127 -75t91 -135t33.5 -195v-770q0 -141 -85 -227t-226 -86h-137v170h121q67 0 108 42t41 119v703q0 81 -22.5 141.5t-61.5 95t-86.5 51.5t-101.5 17q-114 0 -201.5 -84t-87.5 -231v-582h-178
v1231h-158v151h158v152h178z" />
    <glyph glyph-name="uni0453" unicode="&#x453;" horiz-adv-x="927" 
d="M872 1053v-170h-534v-883h-178v1053h712zM420 1204l299 326h201l-299 -326h-201z" />
    <glyph glyph-name="uni0454" unicode="&#x454;" 
d="M653 -18q-113 0 -214 39t-176 108t-119 172t-44 225t44 225t119 172.5t176 108.5t214 39q233 0 359 -131v-223q-156 180 -359 180q-130 0 -231 -72.5t-129 -206.5h528v-161h-532q22 -144 125.5 -222.5t238.5 -78.5q203 0 359 180v-223q-126 -131 -359 -131z" />
    <glyph glyph-name="uni0455" unicode="&#x455;" horiz-adv-x="1017" 
d="M860 741q-59 71 -153 120.5t-205 49.5q-86 0 -147.5 -36.5t-61.5 -96.5q0 -46 37.5 -72.5t122.5 -54.5l159 -51l48 -16t46.5 -16.5t48 -20.5t43 -24t40.5 -29.5t32.5 -35.5t27.5 -43.5t15.5 -51.5t6.5 -62q0 -147 -116 -233t-290 -86q-144 0 -251 36.5t-152 85.5v205
q61 -72 161 -120t238 -48q93 0 160 38t67 106q0 56 -41 86.5t-129 58.5l-178 55q-31 9 -45.5 14t-45 16.5t-47.5 22t-42.5 27t-40 35.5t-29.5 43t-21.5 54.5t-6.5 66.5q0 90 58 162t147.5 108.5t189.5 36.5q119 0 212.5 -36.5t141.5 -84.5v-209z" />
    <glyph glyph-name="uni0456" unicode="&#x456;" horiz-adv-x="497" 
d="M338 1053v-1053h-178v1053h178zM133 1368q0 48 34 81.5t83 33.5t83 -33.5t34 -81.5t-34 -81.5t-83 -33.5t-83 33.5t-34 81.5z" />
    <glyph glyph-name="uni0457" unicode="&#x457;" horiz-adv-x="497" 
d="M338 1053v-1053h-178v1053h178zM12 1370v2q0 41 30 71t73 30q44 0 74 -29.5t30 -71.5v-2q0 -42 -30 -72t-74 -30q-43 0 -73 30t-30 72zM281 1370v2q0 42 29.5 71.5t72.5 29.5q44 0 74 -29.5t30 -71.5v-2q0 -42 -30 -72t-74 -30q-42 0 -72 30t-30 72z" />
    <glyph glyph-name="uni0458" unicode="&#x458;" horiz-adv-x="501" 
d="M164 1053h178v-1182q0 -141 -85 -227t-226 -86h-137v170h120q67 0 108.5 42t41.5 119v1164zM137 1368q0 48 34 81.5t83 33.5t83 -33.5t34 -81.5t-34 -81.5t-83 -33.5t-83 33.5t-34 81.5z" />
    <glyph glyph-name="uni0459" unicode="&#x459;" horiz-adv-x="1695" 
d="M1020 1053v-348h211q174 0 283.5 -89.5t109.5 -259.5q0 -168 -109.5 -262t-283.5 -94h-389v885h-400v-486q0 -190 -87.5 -294.5t-245.5 -104.5h-76v170h55q107 0 145.5 66.5t38.5 209.5v607h748zM1020 170h197q112 0 168.5 49.5t56.5 134.5q0 86 -59 134.5t-166 48.5
h-197v-367z" />
    <glyph glyph-name="uni045A" unicode="&#x45a;" horiz-adv-x="1718" 
d="M338 0h-178v1053h178v-396h532v396h179v-391h229q162 0 265.5 -85.5t103.5 -242.5q0 -155 -103.5 -244.5t-265.5 -89.5h-408v487h-532v-487zM1049 170h229q90 0 138 46t48 116q0 73 -50.5 117.5t-135.5 44.5h-229v-324z" />
    <glyph glyph-name="uni045B" unicode="&#x45b;" horiz-adv-x="1226" 
d="M338 1534v-152h272v-151h-272v-352q39 82 130.5 137t209.5 55q78 0 147.5 -25t127 -75t91 -135t33.5 -195v-641h-178v592q0 81 -22.5 141.5t-61.5 95t-86.5 51.5t-101.5 17q-114 0 -201.5 -84t-87.5 -231v-582h-178v1231h-158v151h158v152h178z" />
    <glyph glyph-name="uni045C" unicode="&#x45c;" horiz-adv-x="1054" 
d="M338 1053v-1053h-178v1053h178zM338 561l457 492h221l-453 -486l477 -567h-225zM406 1204l299 326h200l-299 -326h-200z" />
    <glyph glyph-name="uni045D" unicode="&#x45d;" horiz-adv-x="1230" 
d="M262 1530h201l299 -326h-201zM160 1053h178v-682l733 700v-1071h-178v682l-733 -700v1071z" />
    <glyph glyph-name="uni045E" unicode="&#x45e;" 
d="M582 -176q-55 -133 -139.5 -199.5t-219.5 -66.5h-143v170h139q68 0 110 33.5t74 105.5l66 151l-438 1035h198l336 -805l316 805h200zM262 1495h154q0 -69 42 -115.5t107 -46.5t107.5 47t42.5 115h153q0 -139 -86.5 -221t-216.5 -82t-216.5 82t-86.5 221z" />
    <glyph glyph-name="uni045F" unicode="&#x45f;" horiz-adv-x="1218" 
d="M338 1053v-883h543v883h178v-1053h-365v-293h-168v293h-366v1053h178z" />
    <glyph glyph-name="uni0490" unicode="&#x490;" 
d="M188 0v1421h684v312h168v-484h-671v-1249h-181z" />
    <glyph glyph-name="uni0491" unicode="&#x491;" horiz-adv-x="927" 
d="M160 0v1053h551v286h161v-456h-534v-883h-178z" />
    <glyph glyph-name="uni0492" unicode="&#x492;" horiz-adv-x="1153" 
d="M1081 1421v-172h-671v-483h399v-166h-399v-600h-181v600h-194v166h194v655h852z" />
    <glyph glyph-name="uni0493" unicode="&#x493;" horiz-adv-x="948" 
d="M180 0v434h-170v156h170v463h713v-170h-535v-293h336v-156h-336v-434h-178z" />
    <glyph glyph-name="uni0496" unicode="&#x496;" horiz-adv-x="2011" 
d="M1806 -279v279h-102l-633 748l598 673h219l-585 -663l485 -586h182v-451h-164zM31 0l626 756l-583 665h219l598 -673l-633 -748h-227zM891 0v1421h180v-1421h-180z" />
    <glyph glyph-name="uni0497" unicode="&#x497;" horiz-adv-x="1585" 
d="M1554 170v-436h-165v266h-80v8l-437 551l433 494h219l-424 -492l307 -391h147zM25 0l442 561l-424 492h219l432 -494l-442 -559h-227zM696 0v1053h176v-1053h-176z" />
    <glyph glyph-name="uni049A" unicode="&#x49a;" horiz-adv-x="1339" 
d="M1135 -279v279h-103l-663 750l632 671h232l-621 -659l516 -590h170v-451h-163zM188 0v1421h181v-1421h-181z" />
    <glyph glyph-name="uni049B" unicode="&#x49b;" horiz-adv-x="1091" 
d="M1061 170v-436h-166v266h-80l-477 561l457 492h221l-453 -486l334 -397h164zM160 0v1053h178v-1053h-178z" />
    <glyph glyph-name="uni04A2" unicode="&#x4a2;" horiz-adv-x="1589" 
d="M1147 1421h180v-1249h180v-451h-172v279h-188v649h-778v-649h-181v1421h181v-600h778v600z" />
    <glyph glyph-name="uni04A3" unicode="&#x4a3;" horiz-adv-x="1280" 
d="M881 1053h178v-883h160v-436h-170v266h-168v453h-543v-453h-178v1053h178v-430h543v430z" />
    <glyph glyph-name="uni04A4" unicode="&#x4a4;" horiz-adv-x="2070" 
d="M1147 1421h852v-172h-672v-1249h-180v649h-778v-649h-181v1421h181v-600h778v600z" />
    <glyph glyph-name="uni04A5" unicode="&#x4a5;" horiz-adv-x="1648" 
d="M881 1053h712v-170h-534v-883h-178v453h-543v-453h-178v1053h178v-430h543v430z" />
    <glyph glyph-name="uni04AC" unicode="&#x4ac;" horiz-adv-x="1294" 
d="M72 1249v172h1151v-172h-486v-1077h181v-451h-173v279h-188v1249h-485z" />
    <glyph glyph-name="uni04AD" unicode="&#x4ad;" horiz-adv-x="1030" 
d="M55 883v170h920v-170h-371v-713h160v-436h-170v266h-168v883h-371z" />
    <glyph glyph-name="uni04AE" unicode="&#x4ae;" horiz-adv-x="1359" 
d="M31 1421h209l440 -663l440 663h209l-559 -858v-563h-180v563z" />
    <glyph glyph-name="uni04AF" unicode="&#x4af;" horiz-adv-x="1116" 
d="M219 1053l340 -793l338 793h188l-438 -1024v-471h-178v471l-438 1024h188z" />
    <glyph glyph-name="uni04B0" unicode="&#x4b0;" horiz-adv-x="1359" 
d="M289 641h250l-508 780h209l440 -663l440 663h209l-508 -780h250v-162h-301v-479h-180v479h-301v162z" />
    <glyph glyph-name="uni04B1" unicode="&#x4b1;" horiz-adv-x="1116" 
d="M219 1053l340 -793l338 793h188l-419 -979h252v-150h-271v-366h-178v366h-270v150h252l-420 979h188z" />
    <glyph glyph-name="uni04B2" unicode="&#x4b2;" horiz-adv-x="1447" 
d="M1243 -279v279h-102l-436 592l-433 -592h-221l537 723l-522 698h221l426 -567l417 567h222l-521 -700l408 -549h168v-451h-164z" />
    <glyph glyph-name="uni04B3" unicode="&#x4b3;" horiz-adv-x="1157" 
d="M1126 170v-436h-165v266h-82l-314 403l-311 -403h-213l410 537l-398 516h217l299 -385l299 385h213l-397 -518l279 -365h163z" />
    <glyph glyph-name="uni04B6" unicode="&#x4b6;" horiz-adv-x="1449" 
d="M1008 1421h180v-1249h180v-451h-172v279h-188v594h-514q-171 0 -271 87.5t-100 248.5v491h180v-473q0 -182 213 -182h492v655z" />
    <glyph glyph-name="uni04B7" unicode="&#x4b7;" horiz-adv-x="1181" 
d="M782 1053h179v-883h159v-436h-170v266h-168v422h-325q-166 0 -260.5 81t-94.5 236v314h179v-289q0 -172 198 -172h303v461z" />
    <glyph glyph-name="uni04BA" unicode="&#x4ba;" horiz-adv-x="1376" 
d="M369 0h-181v1421h181v-573h514q171 0 270.5 -87.5t99.5 -248.5v-512h-180v494q0 182 -213 182h-491v-676z" />
    <glyph glyph-name="uni04BB" unicode="&#x4bb;" horiz-adv-x="1226" 
d="M338 1534v-655q39 82 130.5 137t209.5 55q78 0 147.5 -25t127 -75t91 -135t33.5 -195v-641h-178v592q0 81 -22.5 141.5t-61.5 95t-86.5 51.5t-101.5 17q-114 0 -201.5 -84t-87.5 -231v-582h-178v1534h178z" />
    <glyph glyph-name="uni04C0" unicode="&#x4c0;" horiz-adv-x="557" 
d="M369 1421v-1421h-181v1421h181z" />
    <glyph glyph-name="uni04C1" unicode="&#x4c1;" horiz-adv-x="1961" 
d="M891 748l-633 -748h-227l626 756l-583 665h219zM678 1864h153q0 -68 42.5 -115t107.5 -47t107 46.5t42 115.5h154q0 -139 -86.5 -221t-216.5 -82t-216.5 82t-86.5 221zM891 0v1421h180v-1421h-180zM1071 748l598 673h219l-585 -663l628 -758h-227z" />
    <glyph glyph-name="uni04C2" unicode="&#x4c2;" horiz-adv-x="1566" 
d="M696 0v1053h176v-1053h-176zM25 0l442 561l-424 492h219l432 -494l-442 -559h-227zM481 1495h154q0 -69 42 -115.5t107 -46.5t107.5 47t42.5 115h153q0 -139 -86.5 -221t-216.5 -82t-216.5 82t-86.5 221zM872 559l433 494h219l-424 -492l442 -561h-227z" />
    <glyph glyph-name="uni04CF" unicode="&#x4cf;" horiz-adv-x="497" 
d="M338 1534v-1534h-178v1534h178z" />
    <glyph glyph-name="uni04D0" unicode="&#x4d0;" horiz-adv-x="1468" 
d="M51 0l684 1440l682 -1440h-198l-179 379h-616l-178 -379h-195zM432 1886h154q0 -69 42 -115.5t107 -46.5t107.5 47t42.5 115h153q0 -139 -86.5 -221t-216.5 -82t-216.5 82t-86.5 221zM504 551h457l-228 487z" />
    <glyph glyph-name="uni04D1" unicode="&#x4d1;" horiz-adv-x="1124" 
d="M168 950q45 45 148 83t210 38q214 0 331.5 -113t117.5 -309v-649h-176v184q-34 -81 -131 -141.5t-228 -60.5q-152 0 -255 85t-103 236q0 74 30.5 133t83 97t113.5 61.5t131 34.5l359 55q-9 100 -89 158.5t-184 58.5q-103 0 -203.5 -46t-154.5 -114v209zM254 1518h154
q0 -69 42 -115.5t107 -46.5t107.5 47t42.5 115h153q0 -139 -86.5 -221.5t-216.5 -82.5t-216.5 82.5t-86.5 221.5zM264 309q0 -78 62 -120t155 -42q111 0 214.5 80.5t103.5 178.5v122l-318 -49q-58 -9 -103.5 -26.5t-79.5 -55t-34 -88.5z" />
    <glyph glyph-name="uni04D2" unicode="&#x4d2;" horiz-adv-x="1468" 
d="M51 0l684 1440l682 -1440h-198l-179 379h-616l-178 -379h-195zM428 1739q0 47 34 80.5t83 33.5t83 -33.5t34 -80.5q0 -48 -34 -81.5t-83 -33.5t-83 33.5t-34 81.5zM504 551h457l-228 487zM807 1739q0 47 34 80.5t83 33.5t82.5 -33t33.5 -81t-33.5 -81.5t-82.5 -33.5
t-83 33.5t-34 81.5z" />
    <glyph glyph-name="uni04D3" unicode="&#x4d3;" horiz-adv-x="1124" 
d="M168 950q45 45 148 83t210 38q214 0 331.5 -113t117.5 -309v-649h-176v184q-34 -81 -131 -141.5t-228 -60.5q-152 0 -255 85t-103 236q0 74 30.5 133t83 97t113.5 61.5t131 34.5l359 55q-9 100 -89 158.5t-184 58.5q-103 0 -203.5 -46t-154.5 -114v209zM250 1370
q0 48 34 81.5t83 33.5t82.5 -33.5t33.5 -81.5t-33.5 -81.5t-82.5 -33.5t-83 33.5t-34 81.5zM264 309q0 -78 62 -120t155 -42q111 0 214.5 80.5t103.5 178.5v122l-318 -49q-58 -9 -103.5 -26.5t-79.5 -55t-34 -88.5zM629 1370q0 48 33.5 81.5t82.5 33.5t83 -33.5t34 -81.5
t-34 -81.5t-83 -33.5t-82.5 33.5t-33.5 81.5z" />
    <glyph glyph-name="uni04D4" unicode="&#x4d4;" horiz-adv-x="2072" 
d="M43 0l965 1421h934v-172h-652v-442h615v-170h-615v-465h652v-172h-832v461h-543l-313 -461h-211zM684 633h426v616h-6z" />
    <glyph glyph-name="uni04D5" unicode="&#x4d5;" horiz-adv-x="1873" 
d="M168 950q45 45 148 83t210 38q136 0 234.5 -50.5t154.5 -141.5q69 90 168.5 141t214.5 51q213 0 344.5 -138.5t131.5 -363.5v-63h-799v-4q0 -156 110.5 -254t262.5 -98q227 0 383 180v-217q-126 -131 -383 -131q-156 0 -286.5 71.5t-199.5 204.5q-24 -55 -58 -101
t-83 -87t-118 -64.5t-150 -23.5q-73 0 -139.5 21t-118.5 60.5t-82.5 101.5t-30.5 138q0 74 30.5 134t83 98t114 61t130.5 31l359 41q-1 72 -41 126.5t-101 80.5t-131 26q-103 0 -203.5 -46t-154.5 -114v209zM264 305q0 -69 62.5 -113.5t152.5 -44.5q78 0 141.5 30.5t101 79
t57.5 103t20 107.5v45l-338 -37q-83 -8 -140 -51.5t-57 -118.5zM983 662h604q-9 103 -90.5 173t-202.5 70q-124 0 -207 -73.5t-104 -169.5z" />
    <glyph glyph-name="uni04D6" unicode="&#x4d6;" horiz-adv-x="1175" 
d="M479 1864q0 -68 42.5 -115t107.5 -47t107 46.5t42 115.5h154q0 -139 -86.5 -221t-216.5 -82t-216.5 82t-86.5 221h153zM188 0v1421h856v-172h-675v-442h639v-170h-639v-465h675v-172h-856z" />
    <glyph glyph-name="uni04D7" unicode="&#x4d7;" horiz-adv-x="1185" 
d="M659 -18q-109 0 -208.5 36.5t-178.5 104.5t-125.5 175.5t-46.5 238.5q0 239 146.5 386.5t363.5 147.5q213 0 344 -138.5t131 -363.5v-94h-798q7 -96 61 -171.5t135.5 -114.5t175.5 -39q227 0 383 180v-217q-126 -131 -383 -131zM291 631h610q-9 123 -90 198.5t-205 75.5
q-70 0 -129.5 -25.5t-98 -66t-61 -87.5t-26.5 -95zM309 1495h154q0 -69 42 -115.5t107 -46.5t107.5 47t42.5 115h153q0 -139 -86.5 -221t-216.5 -82t-216.5 82t-86.5 221z" />
    <glyph glyph-name="uni04D8" unicode="&#x4d8;" horiz-adv-x="1505" 
d="M752 -18q-284 0 -460.5 182t-176.5 469v141h1087q-20 232 -163.5 360t-372.5 128q-155 0 -286.5 -67t-207.5 -157v234q72 68 198.5 118t301.5 50q326 0 522.5 -199t196.5 -530q0 -175 -52.5 -316.5t-142 -230t-203.5 -135.5t-241 -47zM299 602q3 -191 127 -317.5
t319 -126.5q176 0 301 116.5t152 327.5h-899z" />
    <glyph glyph-name="uni04D9" unicode="&#x4d9;" horiz-adv-x="1185" 
d="M547 1071q109 0 205.5 -36.5t171 -104.5t118 -175t43.5 -239q0 -241 -140.5 -387.5t-356.5 -146.5t-352 142.5t-136 379.5v94h799q-10 144 -108.5 224.5t-243.5 80.5q-75 0 -144.5 -19t-120 -49.5t-83.5 -57.5t-56 -54v217q50 52 152 91.5t252 39.5zM285 442
q7 -135 93.5 -215t213.5 -80q70 0 128 28.5t93.5 73.5t56.5 95t25 98h-610z" />
    <glyph glyph-name="uni04DA" unicode="&#x4da;" horiz-adv-x="1505" 
d="M752 -18q-284 0 -460.5 182t-176.5 469v141h1087q-20 232 -163.5 360t-372.5 128q-155 0 -286.5 -67t-207.5 -157v234q72 68 198.5 118t301.5 50q326 0 522.5 -199t196.5 -530q0 -175 -52.5 -316.5t-142 -230t-203.5 -135.5t-241 -47zM299 602q3 -191 127 -317.5
t319 -126.5q176 0 301 116.5t152 327.5h-899zM399 1739q0 47 34 80.5t83 33.5t83 -33.5t34 -80.5q0 -48 -34 -81.5t-83 -33.5t-83 33.5t-34 81.5zM778 1739q0 47 34 80.5t83 33.5t83 -33.5t34 -80.5q0 -48 -34 -81.5t-83 -33.5t-83 33.5t-34 81.5z" />
    <glyph glyph-name="uni04DB" unicode="&#x4db;" horiz-adv-x="1185" 
d="M547 1071q109 0 205.5 -36.5t171 -104.5t118 -175t43.5 -239q0 -241 -140.5 -387.5t-356.5 -146.5t-352 142.5t-136 379.5v94h799q-10 144 -108.5 224.5t-243.5 80.5q-75 0 -144.5 -19t-120 -49.5t-83.5 -57.5t-56 -54v217q50 52 152 91.5t252 39.5zM268 1370
q0 48 34 81.5t83 33.5t83 -33.5t34 -81.5t-34 -81.5t-83 -33.5t-83 33.5t-34 81.5zM285 442q7 -135 93.5 -215t213.5 -80q70 0 128 28.5t93.5 73.5t56.5 95t25 98h-610zM647 1370q0 48 34 81.5t83 33.5t83 -33.5t34 -81.5t-34 -81.5t-83 -33.5t-83 33.5t-34 81.5z" />
    <glyph glyph-name="uni04DC" unicode="&#x4dc;" horiz-adv-x="1961" 
d="M891 748l-633 -748h-227l626 756l-583 665h219zM674 1739q0 47 34 80.5t83 33.5t82.5 -33t33.5 -81t-33.5 -81.5t-82.5 -33.5t-83 33.5t-34 81.5zM891 0v1421h180v-1421h-180zM1053 1739q0 48 33.5 81t82.5 33t83 -33.5t34 -80.5q0 -48 -34 -81.5t-83 -33.5t-82.5 33.5
t-33.5 81.5zM1071 748l598 673h219l-585 -663l628 -758h-227z" />
    <glyph glyph-name="uni04DD" unicode="&#x4dd;" horiz-adv-x="1566" 
d="M696 0v1053h176v-1053h-176zM25 0l442 561l-424 492h219l432 -494l-442 -559h-227zM477 1370q0 48 34 81.5t83 33.5t83 -33.5t34 -81.5t-34 -81.5t-83 -33.5t-83 33.5t-34 81.5zM856 1370q0 48 34 81.5t83 33.5t83 -33.5t34 -81.5t-34 -81.5t-83 -33.5t-83 33.5t-34 81.5
zM872 559l433 494h219l-424 -492l442 -561h-227z" />
    <glyph glyph-name="uni04DE" unicode="&#x4de;" horiz-adv-x="1208" 
d="M805 748q53 -12 103 -38.5t96 -68.5t74 -106t28 -140q0 -122 -72 -217t-191 -145.5t-261 -50.5q-154 0 -278.5 49.5t-182.5 113.5v234q72 -95 190 -160t271 -65q90 0 164.5 25.5t124 83.5t49.5 140q0 122 -104 184t-277 62h-183v166h160q162 0 258 62t96 176
q0 109 -79.5 162t-198.5 53q-153 0 -271 -65t-190 -161v234q58 65 183 114.5t280 49.5q204 0 333.5 -99t129.5 -276q0 -67 -22.5 -123t-60.5 -93.5t-80 -62t-89 -38.5zM283 1739q0 48 33.5 81t82.5 33t83 -33.5t34 -80.5q0 -48 -34 -81.5t-83 -33.5t-82.5 33.5t-33.5 81.5z
M662 1739q0 48 33.5 81t82.5 33t83 -33.5t34 -80.5q0 -48 -34 -81.5t-83 -33.5t-82.5 33.5t-33.5 81.5z" />
    <glyph glyph-name="uni04DF" unicode="&#x4df;" horiz-adv-x="1001" 
d="M694 557q88 -22 151.5 -86t63.5 -168q0 -82 -36 -145.5t-97 -100.5t-133 -56t-151 -19q-132 0 -232 33.5t-160 88.5v205q58 -68 160 -115t223 -47q104 0 174 40.5t70 117.5q0 78 -69 116t-181 38h-184v162h184q94 0 150.5 37.5t56.5 107.5q0 68 -55.5 104.5t-151.5 36.5
q-107 0 -205 -48.5t-155 -117.5v209q54 49 150 85t218 36q170 0 275.5 -77.5t105.5 -211.5q0 -89 -49 -146.5t-123 -78.5zM178 1370q0 48 34 81.5t83 33.5t83 -33.5t34 -81.5t-34 -81.5t-83 -33.5t-83 33.5t-34 81.5zM557 1370q0 48 34 81.5t83 33.5t83 -33.5t34 -81.5
t-34 -81.5t-83 -33.5t-83 33.5t-34 81.5z" />
    <glyph glyph-name="uni04E2" unicode="&#x4e2;" horiz-adv-x="1515" 
d="M369 1421v-1005l958 1024v-1440h-180v1014l-959 -1032v1439h181zM522 1663v149h522v-149h-522z" />
    <glyph glyph-name="uni04E3" unicode="&#x4e3;" horiz-adv-x="1230" 
d="M354 1444h523v-150h-523v150zM160 1053h178v-682l733 700v-1071h-178v682l-733 -700v1071z" />
    <glyph glyph-name="uni04E4" unicode="&#x4e4;" horiz-adv-x="1515" 
d="M369 1421v-1005l958 1024v-1440h-180v1014l-959 -1032v1439h181zM477 1739q0 47 34 80.5t83 33.5t83 -33.5t34 -80.5q0 -48 -34 -81.5t-83 -33.5t-83 33.5t-34 81.5zM856 1739q0 47 34 80.5t83 33.5t83 -33.5t34 -80.5q0 -48 -34 -81.5t-83 -33.5t-83 33.5t-34 81.5z" />
    <glyph glyph-name="uni04E5" unicode="&#x4e5;" horiz-adv-x="1230" 
d="M426 1485q49 0 83 -33.5t34 -81.5t-34 -81.5t-83 -33.5t-83 33.5t-34 81.5t34 81.5t83 33.5zM160 1053h178v-682l733 700v-1071h-178v682l-733 -700v1071zM688 1370q0 48 34 81.5t83 33.5t83 -33.5t34 -81.5t-34 -81.5t-83 -33.5t-83 33.5t-34 81.5z" />
    <glyph glyph-name="uni04E6" unicode="&#x4e6;" horiz-adv-x="1648" 
d="M825 160q224 0 373.5 157.5t149.5 393.5t-149.5 393.5t-373.5 157.5q-225 0 -374.5 -157t-149.5 -394t149.5 -394t374.5 -157zM115 711q0 204 93 371t255.5 262.5t361.5 95.5q148 0 279.5 -56t225.5 -152.5t149 -232t55 -288.5t-55 -288.5t-149 -232t-225.5 -152.5
t-279.5 -56q-199 0 -361.5 95.5t-255.5 262.5t-93 371zM518 1739q0 47 34 80.5t83 33.5t83 -33.5t34 -80.5q0 -48 -34 -81.5t-83 -33.5t-83 33.5t-34 81.5zM897 1739q0 47 34 80.5t83 33.5t82.5 -33t33.5 -81t-33.5 -81.5t-82.5 -33.5t-83 33.5t-34 81.5z" />
    <glyph glyph-name="uni04E7" unicode="&#x4e7;" horiz-adv-x="1265" 
d="M633 -18q-224 0 -378.5 158t-154.5 388q0 150 70.5 275t193 196.5t269.5 71.5q110 0 209 -42.5t169.5 -114.5t112 -172.5t41.5 -213.5q0 -230 -154 -388t-378 -158zM283 528q0 -158 100.5 -265t249.5 -107t249.5 107t100.5 265q0 157 -100.5 263t-249.5 106t-249.5 -106
t-100.5 -263zM326 1370q0 48 33.5 81.5t82.5 33.5t83 -33.5t34 -81.5t-34 -81.5t-83 -33.5t-82.5 33.5t-33.5 81.5zM705 1370q0 48 33.5 81.5t82.5 33.5t83 -33.5t34 -81.5t-34 -81.5t-83 -33.5t-82.5 33.5t-33.5 81.5z" />
    <glyph glyph-name="uni04E8" unicode="&#x4e8;" horiz-adv-x="1648" 
d="M825 160q205 0 349 133.5t169 343.5h-1038q25 -210 169.5 -343.5t350.5 -133.5zM115 711q0 204 93 371t255.5 262.5t361.5 95.5q148 0 279.5 -56t225.5 -152.5t149 -232t55 -288.5t-55 -288.5t-149 -232t-225.5 -152.5t-279.5 -56q-199 0 -361.5 95.5t-255.5 262.5
t-93 371zM309 807h1030q-29 201 -171.5 328t-342.5 127q-201 0 -344 -127t-172 -328z" />
    <glyph glyph-name="uni04E9" unicode="&#x4e9;" horiz-adv-x="1265" 
d="M633 -18q-224 0 -378.5 158t-154.5 388q0 150 70.5 275t193 196.5t269.5 71.5q110 0 209 -42.5t169.5 -114.5t112 -172.5t41.5 -213.5q0 -230 -154 -388t-378 -158zM289 461q22 -133 117.5 -219t226.5 -86t226.5 86t117.5 219h-688zM293 616h680q-27 124 -120.5 202.5
t-219.5 78.5t-219.5 -78.5t-120.5 -202.5z" />
    <glyph glyph-name="uni04EA" unicode="&#x4ea;" horiz-adv-x="1648" 
d="M825 160q205 0 349 133.5t169 343.5h-1038q25 -210 169.5 -343.5t350.5 -133.5zM115 711q0 204 93 371t255.5 262.5t361.5 95.5q148 0 279.5 -56t225.5 -152.5t149 -232t55 -288.5t-55 -288.5t-149 -232t-225.5 -152.5t-279.5 -56q-199 0 -361.5 95.5t-255.5 262.5
t-93 371zM309 807h1030q-29 201 -171.5 328t-342.5 127q-201 0 -344 -127t-172 -328zM518 1739q0 47 34 80.5t83 33.5t83 -33.5t34 -80.5q0 -48 -34 -81.5t-83 -33.5t-83 33.5t-34 81.5zM897 1739q0 47 34 80.5t83 33.5t82.5 -33t33.5 -81t-33.5 -81.5t-82.5 -33.5t-83 33.5
t-34 81.5z" />
    <glyph glyph-name="uni04EB" unicode="&#x4eb;" horiz-adv-x="1265" 
d="M633 -18q-224 0 -378.5 158t-154.5 388q0 150 70.5 275t193 196.5t269.5 71.5q110 0 209 -42.5t169.5 -114.5t112 -172.5t41.5 -213.5q0 -230 -154 -388t-378 -158zM289 461q22 -133 117.5 -219t226.5 -86t226.5 86t117.5 219h-688zM293 616h680q-27 124 -120.5 202.5
t-219.5 78.5t-219.5 -78.5t-120.5 -202.5zM326 1370q0 48 33.5 81.5t82.5 33.5t83 -33.5t34 -81.5t-34 -81.5t-83 -33.5t-82.5 33.5t-33.5 81.5zM705 1370q0 48 33.5 81.5t82.5 33.5t83 -33.5t34 -81.5t-34 -81.5t-83 -33.5t-82.5 33.5t-33.5 81.5z" />
    <glyph glyph-name="uni04EE" unicode="&#x4ee;" horiz-adv-x="1353" 
d="M291 0v172h119q84 0 140.5 35.5t82.5 97.5v2l-582 1114h199l473 -915l383 915h197l-490 -1147q-64 -149 -155 -211.5t-228 -62.5h-139zM412 1663v149h522v-149h-522z" />
    <glyph glyph-name="uni04EF" unicode="&#x4ef;" 
d="M582 -176q-55 -133 -139.5 -199.5t-219.5 -66.5h-143v170h139q68 0 110 33.5t74 105.5l66 151l-438 1035h198l336 -805l316 805h200zM303 1294v150h522v-150h-522z" />
    <glyph glyph-name="uni04F0" unicode="&#x4f0;" horiz-adv-x="1353" 
d="M291 0v172h119q84 0 140.5 35.5t82.5 97.5v2l-582 1114h199l473 -915l383 915h197l-490 -1147q-64 -149 -155 -211.5t-228 -62.5h-139zM367 1739q0 48 33.5 81t82.5 33t83 -33.5t34 -80.5q0 -48 -34 -81.5t-83 -33.5t-82.5 33.5t-33.5 81.5zM745 1739q0 47 34 80.5
t83 33.5t83 -33.5t34 -80.5q0 -48 -34 -81.5t-83 -33.5t-83 33.5t-34 81.5z" />
    <glyph glyph-name="uni04F1" unicode="&#x4f1;" 
d="M582 -176q-55 -133 -139.5 -199.5t-219.5 -66.5h-143v170h139q68 0 110 33.5t74 105.5l66 151l-438 1035h198l336 -805l316 805h200zM258 1370q0 48 34 81.5t83 33.5t83 -33.5t34 -81.5t-34 -81.5t-83 -33.5t-83 33.5t-34 81.5zM637 1370q0 48 34 81.5t83 33.5
t82.5 -33.5t33.5 -81.5t-33.5 -81.5t-82.5 -33.5t-83 33.5t-34 81.5z" />
    <glyph glyph-name="uni04F2" unicode="&#x4f2;" horiz-adv-x="1353" 
d="M291 0v172h119q84 0 140.5 35.5t82.5 97.5v2l-582 1114h199l473 -915l383 915h197l-490 -1147q-64 -149 -155 -211.5t-228 -62.5h-139zM401 1573l236 325h180l-235 -325h-181zM743 1573l236 325h180l-235 -325h-181z" />
    <glyph glyph-name="uni04F3" unicode="&#x4f3;" 
d="M582 -176q-55 -133 -139.5 -199.5t-219.5 -66.5h-143v170h139q68 0 110 33.5t74 105.5l66 151l-438 1035h198l336 -805l316 805h200zM293 1204l235 326h181l-236 -326h-180zM635 1204l235 326h181l-236 -326h-180z" />
    <glyph glyph-name="uni04F4" unicode="&#x4f4;" horiz-adv-x="1376" 
d="M1008 1421h180v-1421h-180v594h-514q-171 0 -271 87.5t-100 248.5v491h180v-473q0 -182 213 -182h492v655zM350 1739q0 47 34 80.5t83 33.5t83 -33.5t34 -80.5q0 -48 -34 -81.5t-83 -33.5t-83 33.5t-34 81.5zM729 1739q0 47 34 80.5t83 33.5t83 -33.5t34 -80.5
q0 -48 -34 -81.5t-83 -33.5t-83 33.5t-34 81.5z" />
    <glyph glyph-name="uni04F5" unicode="&#x4f5;" horiz-adv-x="1120" 
d="M782 1053h179v-1053h-179v422h-325q-166 0 -260.5 81t-94.5 236v314h179v-289q0 -172 198 -172h303v461zM227 1370q0 48 34 81.5t83 33.5t83 -33.5t34 -81.5t-34 -81.5t-83 -33.5t-83 33.5t-34 81.5zM606 1370q0 48 34 81.5t83 33.5t83 -33.5t34 -81.5t-34 -81.5
t-83 -33.5t-83 33.5t-34 81.5z" />
    <glyph glyph-name="uni04F8" unicode="&#x4f8;" horiz-adv-x="1720" 
d="M1532 1421v-1421h-180v1421h180zM188 0v1421h181v-553h278q218 0 352 -115.5t134 -318.5q0 -206 -131 -320t-353 -114h-461zM369 172h268q152 0 230.5 71.5t78.5 190.5q0 120 -78.5 191t-230.5 71h-268v-524zM553 1739q0 47 34 80.5t83 33.5t82.5 -33t33.5 -81
t-33.5 -81.5t-82.5 -33.5t-83 33.5t-34 81.5zM932 1739q0 47 34 80.5t83 33.5t82.5 -33t33.5 -81t-33.5 -81.5t-82.5 -33.5t-83 33.5t-34 81.5z" />
    <glyph glyph-name="uni04F9" unicode="&#x4f9;" horiz-adv-x="1445" 
d="M1286 1053v-1053h-178v1053h178zM160 0v1053h178v-348h211q174 0 283.5 -89.5t109.5 -259.5q0 -168 -109.5 -262t-283.5 -94h-389zM338 170h197q112 0 168.5 49.5t56.5 134.5q0 86 -59 134.5t-166 48.5h-197v-367zM416 1370q0 48 33.5 81.5t82.5 33.5t83 -33.5t34 -81.5
t-34 -81.5t-83 -33.5t-82.5 33.5t-33.5 81.5zM795 1370q0 48 33.5 81.5t82.5 33.5t83 -33.5t34 -81.5t-34 -81.5t-83 -33.5t-82.5 33.5t-33.5 81.5z" />
    <glyph glyph-name="uni051C" unicode="&#x51c;" horiz-adv-x="1910" 
d="M248 1421l338 -948l370 967l373 -963l334 944h186l-510 -1439l-385 1005l-383 -1005l-510 1439h187z" />
    <glyph glyph-name="uni051D" unicode="&#x51d;" horiz-adv-x="1605" 
d="M238 1053l260 -658l307 676l309 -665l256 647h184l-424 -1071l-329 716l-326 -716l-424 1071h187z" />
    <glyph glyph-name="uni0524" unicode="&#x524;" horiz-adv-x="1589" 
d="M1327 1421v-1249h180v-451h-172v279h-188v1249h-778v-1249h-181v1421h1139z" />
    <glyph glyph-name="uni0525" unicode="&#x525;" horiz-adv-x="1280" 
d="M1059 1053v-883h160v-436h-170v266h-168v883h-543v-883h-178v1053h899z" />
    <glyph glyph-name="Wgrave" unicode="&#x1e80;" horiz-adv-x="1910" 
d="M248 1421l338 -948l370 967l373 -963l334 944h186l-510 -1439l-385 1005l-383 -1005l-510 1439h187zM602 1898h201l299 -325h-201z" />
    <glyph glyph-name="wgrave" unicode="&#x1e81;" horiz-adv-x="1605" 
d="M238 1053l260 -658l307 676l309 -665l256 647h184l-424 -1071l-329 716l-326 -716l-424 1071h187zM449 1530h200l299 -326h-200z" />
    <glyph glyph-name="Wacute" unicode="&#x1e82;" horiz-adv-x="1910" 
d="M248 1421l338 -948l370 967l373 -963l334 944h186l-510 -1439l-385 1005l-383 -1005l-510 1439h187zM811 1573l299 325h201l-299 -325h-201z" />
    <glyph glyph-name="wacute" unicode="&#x1e83;" horiz-adv-x="1605" 
d="M238 1053l260 -658l307 676l309 -665l256 647h184l-424 -1071l-329 716l-326 -716l-424 1071h187zM657 1204l299 326h201l-299 -326h-201z" />
    <glyph glyph-name="Wdieresis" unicode="&#x1e84;" horiz-adv-x="1910" 
d="M248 1421l338 -948l370 967l373 -963l334 944h186l-510 -1439l-385 1005l-383 -1005l-510 1439h187zM649 1739q0 47 34 80.5t83 33.5t83 -33.5t34 -80.5q0 -48 -34 -81.5t-83 -33.5t-83 33.5t-34 81.5zM1028 1739q0 47 34 80.5t83 33.5t83 -33.5t34 -80.5
q0 -48 -34 -81.5t-83 -33.5t-83 33.5t-34 81.5z" />
    <glyph glyph-name="wdieresis" unicode="&#x1e85;" horiz-adv-x="1605" 
d="M238 1053l260 -658l307 676l309 -665l256 647h184l-424 -1071l-329 716l-326 -716l-424 1071h187zM496 1370q0 48 33.5 81.5t82.5 33.5t83 -33.5t34 -81.5t-34 -81.5t-83 -33.5t-82.5 33.5t-33.5 81.5zM874 1370q0 48 34 81.5t83 33.5t83 -33.5t34 -81.5t-34 -81.5
t-83 -33.5t-83 33.5t-34 81.5z" />
    <glyph glyph-name="uni1E9E" unicode="&#x1e9e;" horiz-adv-x="1316" 
d="M188 0v1421h942l-270 -604q120 -17 205.5 -77.5t125.5 -145t40 -186.5q0 -190 -123.5 -308t-300.5 -118q-158 0 -240 53v188q94 -69 221 -69q106 0 181 64t75 194q0 128 -94 197t-248 69h-75l237 571h-495v-1249h-181z" />
    <glyph glyph-name="Ygrave" unicode="&#x1ef2;" horiz-adv-x="1359" 
d="M326 1898h200l299 -325h-200zM31 1421h209l440 -663l440 663h209l-559 -858v-563h-180v563z" />
    <glyph glyph-name="ygrave" unicode="&#x1ef3;" 
d="M582 -176q-55 -133 -139.5 -199.5t-219.5 -66.5h-143v170h139q68 0 110 33.5t74 105.5l66 151l-438 1035h198l336 -805l316 805h200zM211 1530h201l299 -326h-201z" />
    <glyph glyph-name="uni2000" unicode="&#x2000;" horiz-adv-x="1024" 
 />
    <glyph glyph-name="uni2001" unicode="&#x2001;" horiz-adv-x="2048" 
 />
    <glyph glyph-name="uni2002" unicode="&#x2002;" horiz-adv-x="1024" 
 />
    <glyph glyph-name="uni2003" unicode="&#x2003;" horiz-adv-x="2048" 
 />
    <glyph glyph-name="uni2004" unicode="&#x2004;" horiz-adv-x="681" 
 />
    <glyph glyph-name="uni2005" unicode="&#x2005;" horiz-adv-x="512" 
 />
    <glyph glyph-name="uni2007" unicode="&#x2007;" horiz-adv-x="1196" 
 />
    <glyph glyph-name="uni2008" unicode="&#x2008;" horiz-adv-x="462" 
 />
    <glyph glyph-name="uni2009" unicode="&#x2009;" horiz-adv-x="409" 
 />
    <glyph glyph-name="uni200A" unicode="&#x200a;" horiz-adv-x="292" 
 />
    <glyph glyph-name="uni200B" unicode="&#x200b;" horiz-adv-x="0" 
 />
    <glyph glyph-name="endash" unicode="&#x2013;" horiz-adv-x="1024" 
d="M1024 690v-162h-1024v162h1024z" />
    <glyph glyph-name="emdash" unicode="&#x2014;" horiz-adv-x="2048" 
d="M2048 690v-162h-2048v162h2048z" />
    <glyph glyph-name="quoteleft" unicode="&#x2018;" horiz-adv-x="462" 
d="M61 946l172 475h144l-139 -475h-177z" />
    <glyph glyph-name="quoteright" unicode="&#x2019;" horiz-adv-x="462" 
d="M377 1421l-172 -475h-144l140 475h176z" />
    <glyph glyph-name="quotesinglbase" unicode="&#x201a;" horiz-adv-x="462" 
d="M336 209l-172 -475h-144l140 475h176z" />
    <glyph glyph-name="quotedblleft" unicode="&#x201c;" horiz-adv-x="813" 
d="M412 946l172 475h143l-139 -475h-176zM61 946l172 475h144l-139 -475h-177z" />
    <glyph glyph-name="quotedblright" unicode="&#x201d;" horiz-adv-x="813" 
d="M377 1421l-172 -475h-144l140 475h176zM412 946l139 475h176l-172 -475h-143z" />
    <glyph glyph-name="quotedblbase" unicode="&#x201e;" horiz-adv-x="833" 
d="M356 209l-172 -475h-143l139 475h176zM391 -266l139 475h177l-172 -475h-144z" />
    <glyph glyph-name="dagger" unicode="&#x2020;" horiz-adv-x="974" 
d="M406 543v577h-277v154h277v280h163v-280h277v-154h-277v-577h-163z" />
    <glyph glyph-name="daggerdbl" unicode="&#x2021;" horiz-adv-x="983" 
d="M410 504v227h-277v156h277v274h-277v154h277v239h163v-239h277v-154h-277v-274h277v-156h-277v-227h-163z" />
    <glyph glyph-name="bullet" unicode="&#x2022;" horiz-adv-x="983" 
d="M778 610q0 -122 -84 -207.5t-202 -85.5q-119 0 -203 85t-84 208q0 122 84 206.5t203 84.5q118 0 202 -84.5t84 -206.5z" />
    <glyph glyph-name="ellipsis" unicode="&#x2026;" horiz-adv-x="1380" 
d="M690 227q51 0 87 -35.5t36 -87.5t-36 -87t-87 -35t-87 35t-36 87t36 87.5t87 35.5zM109 104q0 52 35.5 87.5t86.5 35.5t87 -35.5t36 -87.5t-36 -87t-87 -35t-86.5 35t-35.5 87zM1026 104q0 52 36 87.5t87 35.5t87 -35.5t36 -87.5t-36 -87t-87 -35t-87 35t-36 87z" />
    <glyph glyph-name="perthousand" unicode="&#x2030;" horiz-adv-x="2639" 
d="M317 0l969 1421h187l-969 -1421h-187zM78 1069q0 158 109.5 264.5t258.5 106.5q150 0 259.5 -106.5t109.5 -264.5t-109.5 -264.5t-259.5 -106.5q-149 0 -258.5 106.5t-109.5 264.5zM233 1069q0 -95 63 -159t150 -64t150 64t63 159t-63 159t-150 64t-150 -64t-63 -159z
M975 352q0 158 109.5 264.5t258.5 106.5q150 0 259.5 -106.5t109.5 -264.5t-109.5 -264t-259.5 -106t-259 106t-109 264zM1130 352q0 -95 63 -159t150 -64t150 64t63 159t-63 159t-150 64t-150 -64t-63 -159zM1825 352q0 158 109.5 264.5t258.5 106.5q150 0 259.5 -106.5
t109.5 -264.5t-109.5 -264t-259.5 -106t-259 106t-109 264zM1980 352q0 -95 63 -159t150 -64t150 64t63 159t-63 159t-150 64t-150 -64t-63 -159z" />
    <glyph glyph-name="guilsinglleft" unicode="&#x2039;" horiz-adv-x="700" 
d="M641 1012l-371 -432l371 -433h-213l-369 433l369 432h213z" />
    <glyph glyph-name="guilsinglright" unicode="&#x203a;" horiz-adv-x="700" 
d="M59 147l371 433l-371 432h213l369 -432l-369 -433h-213z" />
    <glyph glyph-name="fraction" unicode="&#x2044;" horiz-adv-x="583" 
d="M682 1421h188l-970 -1421h-187z" />
    <glyph glyph-name="uni2070" unicode="&#x2070;" horiz-adv-x="966" 
d="M872 1266q0 -213 -107.5 -344t-281.5 -131q-175 0 -282 130.5t-107 344.5q0 213 107 344t282 131q174 0 281.5 -131t107.5 -344zM276 1266q0 -139 57 -225.5t150 -86.5q92 0 148.5 86.5t56.5 225.5q0 138 -56 224.5t-149 86.5t-150 -86t-57 -225z" />
    <glyph glyph-name="uni2074" unicode="&#x2074;" horiz-adv-x="864" 
d="M514 1409h170v-246h127v-153h-127v-207h-170v207h-485l344 716h178l-266 -563h229v246z" />
    <glyph glyph-name="uni2075" unicode="&#x2075;" horiz-adv-x="868" 
d="M711 1726v-161h-367l-41 -189q41 8 105 8q155 0 252.5 -75.5t97.5 -210.5q0 -74 -30.5 -133.5t-82.5 -96.5t-117 -57t-137 -20q-101 0 -178.5 27t-116.5 69v192q103 -121 283 -121q84 0 140 36.5t56 103.5q0 70 -63 107.5t-170 37.5q-123 0 -229 -37l108 520h490z" />
    <glyph glyph-name="uni2076" unicode="&#x2076;" horiz-adv-x="866" 
d="M483 1434q123 0 216.5 -86.5t93.5 -225.5t-98 -235t-251 -96q-167 0 -264.5 95t-97.5 232q0 86 29 152t92 153l219 303h196l-215 -301q56 9 80 9zM260 1122q0 -70 50.5 -117t127.5 -47q75 0 125.5 47t50.5 117q0 72 -50 118t-126 46q-77 0 -127.5 -47t-50.5 -117z" />
    <glyph glyph-name="uni2077" unicode="&#x2077;" horiz-adv-x="866" 
d="M811 1726l-469 -923h-203l404 762h-453v161h721z" />
    <glyph glyph-name="uni2078" unicode="&#x2078;" horiz-adv-x="866" 
d="M610 1300q83 -27 135 -86t52 -147q0 -123 -102.5 -199.5t-262.5 -76.5q-157 0 -259.5 76.5t-102.5 199.5q0 89 52 147.5t134 85.5q-69 25 -107 76.5t-38 122.5q0 104 91.5 173t229.5 69q140 0 232 -69t92 -173q0 -72 -39 -122.5t-107 -76.5zM252 1083q0 -62 52 -101.5
t128 -39.5q78 0 130 39.5t52 101.5q0 59 -52 98.5t-130 39.5q-76 0 -128 -39.5t-52 -98.5zM287 1475q0 -50 42.5 -83.5t102.5 -33.5q61 0 104.5 33.5t43.5 83.5q0 51 -41.5 82.5t-106.5 31.5q-64 0 -104.5 -32t-40.5 -82z" />
    <glyph glyph-name="uni2079" unicode="&#x2079;" horiz-adv-x="866" 
d="M383 1096q-123 0 -216 86t-93 225t98 235.5t250 96.5q167 0 264.5 -95.5t97.5 -232.5q0 -86 -29 -152t-91 -153l-220 -303h-196l215 301q-50 -8 -80 -8zM252 1407q0 -72 50 -118t126 -46q77 0 127.5 47t50.5 117t-50.5 117t-127.5 47q-75 0 -125.5 -47t-50.5 -117z" />
    <glyph glyph-name="uni2080" unicode="&#x2080;" horiz-adv-x="966" 
d="M872 258q0 -213 -107.5 -344t-281.5 -131q-175 0 -282 130.5t-107 344.5q0 213 107 344t282 131q174 0 281.5 -131t107.5 -344zM276 258q0 -139 57 -225t150 -86q92 0 148.5 86.5t56.5 224.5t-56 224.5t-149 86.5t-150 -86t-57 -225z" />
    <glyph glyph-name="uni2081" unicode="&#x2081;" horiz-adv-x="866" 
d="M154 -51h223v540l-223 -94v160l403 178v-784h217v-154h-620v154z" />
    <glyph glyph-name="uni2082" unicode="&#x2082;" horiz-adv-x="864" 
d="M92 625q44 44 120 76t179 32q149 0 236.5 -79.5t87.5 -202.5q0 -64 -32 -131t-62 -104t-103 -118q-8 -9 -12 -14l-115 -127h381v-162h-721l326 377q7 8 20 23q50 58 72.5 86.5t42.5 68.5t20 76q0 65 -45.5 102t-121.5 37q-79 0 -151.5 -39t-121.5 -100v199z" />
    <glyph glyph-name="uni2083" unicode="&#x2083;" horiz-adv-x="866" 
d="M391 -217q-210 0 -303 100v199q44 -58 126 -94.5t169 -36.5t143 40t56 111q0 52 -33.5 86.5t-81.5 48t-107 13.5q-62 0 -106 -8l205 315h-371v162h641l-223 -342q116 -21 186 -95t70 -186q0 -139 -105.5 -226t-265.5 -87z" />
    <glyph glyph-name="uni2084" unicode="&#x2084;" horiz-adv-x="864" 
d="M514 401h170v-245h127v-154h-127v-207h-170v207h-485l344 717h178l-266 -563h229v245z" />
    <glyph glyph-name="uni2085" unicode="&#x2085;" horiz-adv-x="868" 
d="M711 719v-162h-367l-41 -188q41 8 105 8q154 0 252 -75.5t98 -211.5q0 -74 -30.5 -133.5t-82.5 -96.5t-117 -57t-137 -20q-101 0 -178.5 27t-116.5 69v193q103 -121 283 -121q85 0 140.5 36t55.5 103q0 70 -63 108t-170 38q-123 0 -229 -37l108 520h490z" />
    <glyph glyph-name="uni2086" unicode="&#x2086;" horiz-adv-x="866" 
d="M483 426q79 0 149 -36.5t115.5 -109t45.5 -165.5q0 -139 -98 -235.5t-251 -96.5q-167 0 -264.5 95.5t-97.5 232.5q0 86 29 152t92 153l219 303h196l-215 -301q50 8 80 8zM260 115q0 -70 50.5 -117t127.5 -47q75 0 125.5 47t50.5 117q0 72 -50 118t-126 46
q-77 0 -127.5 -47t-50.5 -117z" />
    <glyph glyph-name="uni2087" unicode="&#x2087;" horiz-adv-x="866" 
d="M811 719l-469 -924h-203l404 762h-453v162h721z" />
    <glyph glyph-name="uni2088" unicode="&#x2088;" horiz-adv-x="866" 
d="M610 293q83 -27 135 -86t52 -148q0 -123 -102.5 -199.5t-262.5 -76.5q-157 0 -259.5 76.5t-102.5 199.5q0 89 52 148t134 86q-69 25 -107 76.5t-38 122.5q0 104 91.5 172.5t229.5 68.5q140 0 232 -68.5t92 -172.5q0 -72 -39 -122.5t-107 -76.5zM252 76q0 -62 52 -102
t128 -40q78 0 130 40t52 102q0 59 -52 98t-130 39q-76 0 -128 -39t-52 -98zM287 467q0 -50 42.5 -83.5t102.5 -33.5q61 0 104.5 33.5t43.5 83.5q0 51 -41.5 83t-106.5 32q-64 0 -104.5 -32.5t-40.5 -82.5z" />
    <glyph glyph-name="uni2089" unicode="&#x2089;" horiz-adv-x="866" 
d="M383 88q-123 0 -216 86t-93 225t98 235.5t250 96.5q167 0 264.5 -95.5t97.5 -232.5q0 -86 -29 -152t-91 -153l-220 -303h-196l215 301q-50 -8 -80 -8zM252 399q0 -71 50 -117t126 -46q77 0 127.5 46.5t50.5 116.5t-50.5 117t-127.5 47q-75 0 -125.5 -47t-50.5 -117z" />
    <glyph glyph-name="Euro" unicode="&#x20ac;" horiz-adv-x="1515" 
d="M940 -18q-237 0 -419 134t-247 367h-204v152h178q0 12 -1 37t-1 39q0 44 2 67h-178v152h206q67 228 253.5 369t410.5 141q289 0 444 -168v-234q-73 93 -186 158.5t-256 65.5q-158 0 -285 -90t-186 -242h627l-72 -152h-590q-4 -46 -4 -67q0 -26 4 -76h525l-72 -152h-416
q58 -150 184.5 -236.5t284.5 -86.5q143 0 256 65t186 158v-233q-155 -168 -444 -168z" />
    <glyph glyph-name="uni20B4" unicode="&#x20b4;" horiz-adv-x="1191" 
d="M1130 938v-152h-1069v152h709q94 57 94 160q0 72 -70.5 121t-181.5 49q-136 0 -249 -61t-191 -144v213q58 65 177.5 114.5t264.5 49.5q192 0 314.5 -87t122.5 -220q0 -110 -82 -195h161zM61 492v151h1069v-151h-694q-108 -57 -108 -168q0 -71 75 -120.5t199 -49.5
q142 0 256.5 60.5t192.5 143.5v-213q-58 -65 -179 -114t-272 -49q-206 0 -332.5 87t-126.5 220q0 117 92 203h-172z" />
    <glyph glyph-name="uni20B8" unicode="&#x20b8;" horiz-adv-x="1294" 
d="M557 0v956h-465v172h1110v-172h-465v-956h-180zM92 1270v151h1110v-151h-1110z" />
    <glyph glyph-name="uni20BD" unicode="&#x20bd;" horiz-adv-x="1294" 
d="M274 0v260h-184v152h184v145h-184v152h184v712h447q224 0 353.5 -112t129.5 -318q0 -207 -131.5 -320.5t-351.5 -113.5h-266v-145h465v-152h-465v-260h-181zM455 723h254q151 0 230 73.5t79 194.5q0 118 -78.5 188t-230.5 70h-254v-526z" />
    <glyph glyph-name="uni20BF" unicode="&#x20bf;" horiz-adv-x="1286" 
d="M188 18v1387h213v231h152v-231h125h6v231h152v-250q133 -34 208.5 -123t75.5 -216q0 -115 -57 -187t-150 -106q53 -13 100.5 -39t88.5 -66t65.5 -100t24.5 -131q0 -161 -94.5 -260t-261.5 -127v-256h-152v243h-131v-243h-152v243h-213zM369 186h321q142 0 229 60t87 174
t-86.5 172.5t-229.5 58.5h-321v-465zM369 817h290q133 0 204 53t71 160q0 98 -72 152.5t-203 54.5h-290v-420z" />
    <glyph glyph-name="uni2116" unicode="&#x2116;" horiz-adv-x="2312" 
d="M188 1440l979 -1016v997h179v-1439l-979 1015v-997h-179v1440zM1485 1063q0 158 109.5 264.5t258.5 106.5q150 0 259.5 -106.5t109.5 -264.5t-109.5 -264.5t-259.5 -106.5q-149 0 -258.5 106.5t-109.5 264.5zM1524 430v152h659v-152h-659zM1640 1063q0 -95 63 -159
t150 -64t150 64t63 159t-63 159t-150 64t-150 -64t-63 -159z" />
    <glyph glyph-name="trademark" unicode="&#x2122;" horiz-adv-x="1742" 
d="M72 1286v135h612v-135h-233v-553h-144v553h-235zM782 733v707l385 -355l387 355v-707h-143v395l-244 -231l-245 233v-397h-140z" />
    <glyph glyph-name="oneeighth" unicode="&#x215b;" horiz-adv-x="2316" 
d="M154 649h223v541l-223 -94v159l403 179v-785h217v-153h-620v153zM580 0l968 1421h189l-971 -1421h-186zM1520 264q0 89 52 148t134 86q-69 25 -107 76t-38 122q0 104 91.5 173t229.5 69q140 0 232 -69t92 -173q0 -71 -39 -121.5t-107 -76.5q83 -27 135 -86t52 -148
q0 -123 -102.5 -199.5t-262.5 -76.5q-157 0 -259.5 76.5t-102.5 199.5zM1702 281q0 -62 52 -102t128 -40q78 0 130 40t52 102q0 59 -52 98t-130 39q-76 0 -128 -39t-52 -98zM1737 672q0 -50 42.5 -83.5t102.5 -33.5q61 0 104.5 33.5t43.5 83.5q0 51 -41.5 82.5t-106.5 31.5
q-64 0 -104.5 -32t-40.5 -82z" />
    <glyph glyph-name="threeeighths" unicode="&#x215c;" horiz-adv-x="2299" 
d="M391 483q-209 0 -303 101v198q44 -58 126 -94.5t169 -36.5q86 0 142.5 40.5t56.5 111.5q0 52 -33.5 86t-81 47.5t-107.5 13.5q-62 0 -106 -8l205 315h-371v162h641l-223 -342q117 -21 186.5 -94.5t69.5 -185.5q0 -139 -105.5 -226.5t-265.5 -87.5zM563 0l969 1421h188
l-970 -1421h-187zM1503 264q0 89 52.5 148t134.5 86q-69 25 -107.5 76t-38.5 122q0 104 92 173t230 69q139 0 231 -69t92 -173q0 -72 -38.5 -122t-106.5 -76q83 -27 134.5 -86t51.5 -148q0 -123 -102 -199.5t-262 -76.5q-157 0 -260 76.5t-103 199.5zM1686 281
q0 -62 52 -102t128 -40q78 0 130 40t52 102q0 59 -52 98t-130 39q-76 0 -128 -39t-52 -98zM1720 672q0 -50 43 -83.5t103 -33.5q61 0 104 33.5t43 83.5q0 51 -41 82.5t-106 31.5q-64 0 -105 -32t-41 -82z" />
    <glyph glyph-name="fiveeighths" unicode="&#x215d;" horiz-adv-x="2301" 
d="M711 1419v-162h-367l-41 -188q41 8 105 8q155 0 252.5 -75.5t97.5 -210.5q0 -97 -53.5 -169t-135 -105.5t-178.5 -33.5q-101 0 -178.5 27.5t-116.5 69.5v192q103 -121 283 -121q84 0 140 36.5t56 103.5q0 70 -63 107.5t-170 37.5q-123 0 -229 -37l108 520h490zM565 0
l969 1421h188l-970 -1421h-187zM1505 264q0 89 52.5 148t134.5 86q-69 25 -107.5 76t-38.5 122q0 104 92 173t230 69q139 0 231 -69t92 -173q0 -72 -38.5 -122t-106.5 -76q83 -27 134.5 -86t51.5 -148q0 -123 -102 -199.5t-262 -76.5q-157 0 -260 76.5t-103 199.5zM1688 281
q0 -62 52 -102t128 -40q78 0 130 40t52 102q0 59 -52 98t-130 39q-76 0 -128 -39t-52 -98zM1722 672q0 -50 43 -83.5t103 -33.5q61 0 104 33.5t43 83.5q0 51 -41 82.5t-106 31.5q-64 0 -105 -32t-41 -82z" />
    <glyph glyph-name="seveneighths" unicode="&#x215e;" horiz-adv-x="2164" 
d="M811 1419l-469 -923h-203l404 761h-453v162h721zM428 0l969 1421h188l-971 -1421h-186zM1368 264q0 89 52 148t134 86q-69 25 -107 76t-38 122q0 104 92 173t230 69q139 0 231 -69t92 -173q0 -72 -38.5 -122t-106.5 -76q83 -27 134.5 -86t51.5 -148q0 -123 -102 -199.5
t-262 -76.5q-157 0 -260 76.5t-103 199.5zM1550 281q0 -62 52.5 -102t128.5 -40q78 0 130 40t52 102q0 59 -52 98t-130 39q-76 0 -128.5 -39t-52.5 -98zM1585 672q0 -50 43 -83.5t103 -33.5q61 0 104 33.5t43 83.5q0 51 -41 82.5t-106 31.5q-64 0 -105 -32t-41 -82z" />
    <glyph glyph-name="arrowleft" unicode="&#x2190;" horiz-adv-x="1781" 
d="M598 1192h209l-365 -365h1178v-165h-1176l363 -365h-209l-448 448z" />
    <glyph glyph-name="arrowup" unicode="&#x2191;" horiz-adv-x="1177" 
d="M1036 1022v-209l-364 365v-1178h-166v1176l-365 -363v209l449 448z" />
    <glyph glyph-name="arrowright" unicode="&#x2192;" horiz-adv-x="1781" 
d="M1184 297h-209l364 365h-1177v165h1175l-362 365h209l448 -449z" />
    <glyph glyph-name="arrowdown" unicode="&#x2193;" horiz-adv-x="1177" 
d="M141 399v209l365 -364v1177h166v-1175l364 362v-209l-448 -448z" />
    <glyph glyph-name="arrowboth" unicode="&#x2194;" horiz-adv-x="2031" 
d="M598 1190h209l-367 -367h1151l-366 367h209l448 -447l-448 -448h-209l364 367h-1147l365 -367h-209l-448 448z" />
    <glyph glyph-name="uni2196" unicode="&#x2196;" horiz-adv-x="1404" 
d="M166 788v633h633l147 -149h-512l830 -832l-117 -116l-834 833v-516z" />
    <glyph glyph-name="uni2197" unicode="&#x2197;" horiz-adv-x="1404" 
d="M1239 788l-147 -147v516l-834 -833l-117 116l830 832h-512l147 149h633v-633z" />
    <glyph glyph-name="uni2198" unicode="&#x2198;" horiz-adv-x="1404" 
d="M1239 633v-633h-633l-147 150h512l-830 831l117 117l834 -834v516z" />
    <glyph glyph-name="uni2199" unicode="&#x2199;" horiz-adv-x="1404" 
d="M166 633l147 147v-516l834 834l117 -117l-830 -831h512l-147 -150h-633v633z" />
    <glyph glyph-name="partialdiff" unicode="&#x2202;" horiz-adv-x="1310" 
d="M645 -20q-106 0 -203.5 37t-174 104.5t-122 172t-45.5 230.5q0 120 43 220t113.5 163.5t158 98t179.5 34.5q147 0 248 -56t121 -120q-26 123 -134.5 236.5t-268.5 191.5t-337 105v172q77 -11 159.5 -33.5t178.5 -62.5t183.5 -92.5t170 -129t142.5 -166t96.5 -209.5
t36.5 -255q0 -156 -41 -279t-114.5 -201.5t-172.5 -119.5t-217 -41zM283 514q0 -104 52.5 -187t134.5 -127t175 -44q144 0 247 104t103 275q0 106 -51.5 184.5t-130.5 115.5t-174 37q-144 0 -250 -99t-106 -259z" />
    <glyph glyph-name="product" unicode="&#x220f;" horiz-adv-x="1511" 
d="M1323 1421v-1743h-180v1571h-774v-1571h-181v1743h1135z" />
    <glyph glyph-name="summation" unicode="&#x2211;" horiz-adv-x="1323" 
d="M102 -322l584 873l-584 870h1090v-172h-770l473 -698l-477 -701h774v-172h-1090z" />
    <glyph glyph-name="minus" unicode="&#x2212;" horiz-adv-x="1067" 
d="M102 696h863v-164h-863v164z" />
    <glyph glyph-name="radical" unicode="&#x221a;" horiz-adv-x="1304" 
d="M250 670l246 -647l579 1511h189l-779 -1995l-444 1131h209z" />
    <glyph glyph-name="infinity" unicode="&#x221e;" horiz-adv-x="1640" 
d="M1196 967q162 0 262.5 -105t100.5 -250t-100.5 -249.5t-262.5 -104.5q-204 0 -377 225q-37 -47 -72 -83t-81.5 -70.5t-102 -53t-117.5 -18.5q-163 0 -263.5 102.5t-100.5 251.5t100.5 252t263.5 103q62 0 119 -19t103.5 -54t81.5 -71.5t71 -83.5q36 47 70.5 83t81 71.5
t103.5 54.5t120 19zM252 612q0 -86 56.5 -143t142.5 -57q80 0 141 49.5t135 148.5q-47 64 -82 102.5t-87 68.5t-107 30q-87 0 -143 -57t-56 -142zM915 612q34 -47 60.5 -77.5t61.5 -61.5t73.5 -46t81.5 -15q84 0 139 57.5t55 142.5t-55 142t-139 57q-80 0 -143 -51.5
t-134 -147.5z" />
    <glyph glyph-name="integral" unicode="&#x222b;" horiz-adv-x="1265" 
d="M272 -348h-180v170h166q88 0 146.5 46.5t74.5 166.5l131 1026q24 181 125 270.5t258 89.5h181v-170h-166q-88 0 -147 -46.5t-75 -166.5l-131 -1026q-24 -181 -125 -270.5t-258 -89.5z" />
    <glyph glyph-name="approxequal" unicode="&#x2248;" horiz-adv-x="1067" 
d="M113 819q73 109 219 109q66 0 210.5 -56.5t200.5 -56.5q112 0 211 113v-162q-80 -109 -221 -109q-65 0 -209.5 57.5t-201.5 57.5q-117 0 -209 -115v162zM113 303v162q73 108 219 108q66 0 210.5 -56t200.5 -56q113 0 211 112v-161q-80 -109 -221 -109q-65 0 -209.5 57.5
t-201.5 57.5q-117 0 -209 -115z" />
    <glyph glyph-name="notequal" unicode="&#x2260;" horiz-adv-x="1030" 
d="M928 877v-154h-262l-123 -221h385v-152h-471l-111 -200h-162l111 200h-193v152h279l123 221h-402v154h486l108 194h162l-108 -194h178z" />
    <glyph glyph-name="lessequal" unicode="&#x2264;" horiz-adv-x="1030" 
d="M102 276h826v-157h-826v157zM82 748l846 346v-160l-465 -186l465 -199v-158z" />
    <glyph glyph-name="greaterequal" unicode="&#x2265;" horiz-adv-x="1030" 
d="M928 276v-157h-826v157h826zM102 391v158l465 199l-465 186v160l846 -346z" />
    <glyph glyph-name="uni2460" unicode="&#x2460;" horiz-adv-x="1933" 
d="M967 -164q-176 0 -334.5 66t-274.5 180.5t-184 276.5t-68 346t68 346t184 276t274.5 180t334.5 66t334.5 -66t274 -180t183.5 -276t68 -346t-68 -346t-183.5 -276.5t-274 -180.5t-334.5 -66zM272 705q0 -151 54.5 -283t147.5 -224.5t221.5 -146t271.5 -53.5t271 53.5
t221 146t147.5 224.5t54.5 283t-54.5 283t-147.5 224.5t-221 145.5t-271 53t-271.5 -53t-221.5 -145.5t-147.5 -224.5t-54.5 -283zM678 242v153h223v541l-223 -94v159l403 179v-785h217v-153h-620z" />
    <glyph glyph-name="uni2461" unicode="&#x2461;" horiz-adv-x="1933" 
d="M967 -164q-176 0 -334.5 66t-274.5 180.5t-184 276.5t-68 346t68 346t184 276t274.5 180t334.5 66t334.5 -66t274 -180t183.5 -276t68 -346t-68 -346t-183.5 -276.5t-274 -180.5t-334.5 -66zM272 705q0 -151 54.5 -283t147.5 -224.5t221.5 -146t271.5 -53.5t271 53.5
t221 146t147.5 224.5t54.5 283t-54.5 283t-147.5 224.5t-221 145.5t-271 53t-271.5 -53t-221.5 -145.5t-147.5 -224.5t-54.5 -283zM596 242l326 376q7 8 20 23q50 58 72.5 86.5t42.5 68.5t20 76q0 65 -46 102.5t-122 37.5q-79 0 -151 -39.5t-121 -100.5v199q45 45 120.5 77
t178.5 32q149 0 236.5 -80t87.5 -203q0 -64 -32 -131t-62 -104t-103 -118q-2 -3 -3.5 -5t-4 -4.5l-4.5 -4.5l-115 -127h381v-161h-721z" />
    <glyph glyph-name="uni2462" unicode="&#x2462;" horiz-adv-x="1933" 
d="M967 -164q-176 0 -334.5 66t-274.5 180.5t-184 276.5t-68 346t68 346t184 276t274.5 180t334.5 66t334.5 -66t274 -180t183.5 -276t68 -346t-68 -346t-183.5 -276.5t-274 -180.5t-334.5 -66zM272 705q0 -151 54.5 -283t147.5 -224.5t221.5 -146t271.5 -53.5t271 53.5
t221 146t147.5 224.5t54.5 283t-54.5 283t-147.5 224.5t-221 145.5t-271 53t-271.5 -53t-221.5 -145.5t-147.5 -224.5t-54.5 -283zM653 330v198q44 -58 126 -94.5t169 -36.5q86 0 142.5 40.5t56.5 111.5q0 52 -33 86t-80.5 47.5t-107.5 13.5q-63 0 -107 -8l205 316h-371v161
h641l-223 -342q117 -21 186.5 -94.5t69.5 -185.5q0 -139 -105.5 -226.5t-265.5 -87.5q-209 0 -303 101z" />
    <glyph glyph-name="uni2463" unicode="&#x2463;" horiz-adv-x="1933" 
d="M967 -164q-176 0 -334.5 66t-274.5 180.5t-184 276.5t-68 346t68 346t184 276t274.5 180t334.5 66t334.5 -66t274 -180t183.5 -276t68 -346t-68 -346t-183.5 -276.5t-274 -180.5t-334.5 -66zM272 705q0 -151 54.5 -283t147.5 -224.5t221.5 -146t271.5 -53.5t271 53.5
t221 146t147.5 224.5t54.5 283t-54.5 283t-147.5 224.5t-221 145.5t-271 53t-271.5 -53t-221.5 -145.5t-147.5 -224.5t-54.5 -283zM553 449l344 716h178l-266 -563h229v246h170v-246h127v-153h-127v-207h-170v207h-485z" />
    <glyph glyph-name="uni2464" unicode="&#x2464;" horiz-adv-x="1933" 
d="M967 -164q-176 0 -334.5 66t-274.5 180.5t-184 276.5t-68 346t68 346t184 276t274.5 180t334.5 66t334.5 -66t274 -180t183.5 -276t68 -346t-68 -346t-183.5 -276.5t-274 -180.5t-334.5 -66zM272 705q0 -151 54.5 -283t147.5 -224.5t221.5 -146t271.5 -53.5t271 53.5
t221 146t147.5 224.5t54.5 283t-54.5 283t-147.5 224.5t-221 145.5t-271 53t-271.5 -53t-221.5 -145.5t-147.5 -224.5t-54.5 -283zM641 326v192q103 -121 283 -121q84 0 140 36.5t56 103.5q0 70 -63 107.5t-170 37.5q-124 0 -230 -37l109 520h489v-161h-366l-41 -189
q41 8 104 8q155 0 253 -75.5t98 -210.5q0 -97 -53.5 -169t-135 -105.5t-178.5 -33.5q-101 0 -178.5 27.5t-116.5 69.5z" />
    <glyph glyph-name="uni2465" unicode="&#x2465;" horiz-adv-x="1933" 
d="M967 -164q-176 0 -334.5 66t-274.5 180.5t-184 276.5t-68 346t68 346t184 276t274.5 180t334.5 66t334.5 -66t274 -180t183.5 -276t68 -346t-68 -346t-183.5 -276.5t-274 -180.5t-334.5 -66zM272 705q0 -151 54.5 -283t147.5 -224.5t221.5 -146t271.5 -53.5t271 53.5
t221 146t147.5 224.5t54.5 283t-54.5 283t-147.5 224.5t-221 145.5t-271 53t-271.5 -53t-221.5 -145.5t-147.5 -224.5t-54.5 -283zM594 557q0 86 29 152t92 153l219 303h196l-215 -301q50 8 80 8q79 0 149 -36.5t115.5 -109t45.5 -165.5q0 -139 -98 -235.5t-251 -96.5
q-167 0 -264.5 95.5t-97.5 232.5zM772 561q0 -70 50.5 -117t127.5 -47q75 0 125.5 47t50.5 117q0 72 -50 118t-126 46q-77 0 -127.5 -47t-50.5 -117z" />
    <glyph glyph-name="uni2466" unicode="&#x2466;" horiz-adv-x="1933" 
d="M967 -164q-176 0 -334.5 66t-274.5 180.5t-184 276.5t-68 346t68 346t184 276t274.5 180t334.5 66t334.5 -66t274 -180t183.5 -276t68 -346t-68 -346t-183.5 -276.5t-274 -180.5t-334.5 -66zM272 705q0 -151 54.5 -283t147.5 -224.5t221.5 -146t271.5 -53.5t271 53.5
t221 146t147.5 224.5t54.5 283t-54.5 283t-147.5 224.5t-221 145.5t-271 53t-271.5 -53t-221.5 -145.5t-147.5 -224.5t-54.5 -283zM637 1004v161h721l-469 -923h-203l404 762h-453z" />
    <glyph glyph-name="uni2467" unicode="&#x2467;" horiz-adv-x="1933" 
d="M967 -164q-176 0 -334.5 66t-274.5 180.5t-184 276.5t-68 346t68 346t184 276t274.5 180t334.5 66t334.5 -66t274 -180t183.5 -276t68 -346t-68 -346t-183.5 -276.5t-274 -180.5t-334.5 -66zM272 705q0 -151 54.5 -283t147.5 -224.5t221.5 -146t271.5 -53.5t271 53.5
t221 146t147.5 224.5t54.5 283t-54.5 283t-147.5 224.5t-221 145.5t-271 53t-271.5 -53t-221.5 -145.5t-147.5 -224.5t-54.5 -283zM604 506q0 89 52 147.5t135 85.5q-69 25 -107.5 76.5t-38.5 122.5q0 104 92 173t230 69q139 0 231 -69t92 -173q0 -72 -38.5 -123t-106.5 -76
q83 -27 134.5 -85.5t51.5 -147.5q0 -124 -102 -200.5t-262 -76.5q-157 0 -260 77t-103 200zM786 522q0 -62 52.5 -101.5t128.5 -39.5q78 0 130 39.5t52 101.5q0 59 -52 98t-130 39q-76 0 -128.5 -39t-52.5 -98zM821 913q0 -50 43 -83t103 -33q61 0 104 33t43 83q0 51 -41 83
t-106 32q-64 0 -105 -32.5t-41 -82.5z" />
    <glyph glyph-name="uni2468" unicode="&#x2468;" horiz-adv-x="1933" 
d="M967 -164q-176 0 -334.5 66t-274.5 180.5t-184 276.5t-68 346t68 346t184 276t274.5 180t334.5 66t334.5 -66t274 -180t183.5 -276t68 -346t-68 -346t-183.5 -276.5t-274 -180.5t-334.5 -66zM272 705q0 -151 54.5 -283t147.5 -224.5t221.5 -146t271.5 -53.5t271 53.5
t221 146t147.5 224.5t54.5 283t-54.5 283t-147.5 224.5t-221 145.5t-271 53t-271.5 -53t-221.5 -145.5t-147.5 -224.5t-54.5 -283zM629 848q0 139 98 235.5t250 96.5q167 0 264.5 -95.5t97.5 -232.5q0 -86 -29 -152t-91 -153l-220 -303h-196l215 301q-50 -8 -80 -8
q-123 0 -216 86t-93 225zM807 848q0 -72 50 -118t126 -46q77 0 127.5 47t50.5 117t-50.5 117t-127.5 47q-75 0 -125.5 -47t-50.5 -117z" />
    <glyph glyph-name="uni24EA" unicode="&#x24ea;" horiz-adv-x="1933" 
d="M967 -164q-176 0 -334.5 66t-274.5 180.5t-184 276.5t-68 346t68 346t184 276t274.5 180t334.5 66t334.5 -66t274 -180t183.5 -276t68 -346t-68 -346t-183.5 -276.5t-274 -180.5t-334.5 -66zM272 705q0 -151 54.5 -283t147.5 -224.5t221.5 -146t271.5 -53.5t271 53.5
t221 146t147.5 224.5t54.5 283t-54.5 283t-147.5 224.5t-221 145.5t-271 53t-271.5 -53t-221.5 -145.5t-147.5 -224.5t-54.5 -283zM578 705q0 213 107 344t282 131q174 0 281.5 -131t107.5 -344t-107.5 -344.5t-281.5 -131.5q-175 0 -282 131t-107 345zM760 705
q0 -139 57 -225.5t150 -86.5q92 0 148 86.5t56 225.5q0 138 -55.5 224.5t-148.5 86.5t-150 -86t-57 -225z" />
    <glyph glyph-name="uni24FF" unicode="&#x24ff;" horiz-adv-x="1933" 
d="M967 -164q176 0 334.5 66t274 180.5t183.5 276.5t68 346t-68 346t-183.5 276t-274 180t-334.5 66t-334.5 -66t-274.5 -180t-184 -276t-68 -346t68 -346t184 -276.5t274.5 -180.5t334.5 -66zM578 705q0 213 107 344t282 131q174 0 281.5 -131t107.5 -344t-107.5 -344.5
t-281.5 -131.5q-175 0 -282 131t-107 345zM760 705q0 -139 57 -225.5t150 -86.5q92 0 148 86.5t56 225.5q0 138 -55.5 224.5t-148.5 86.5t-150 -86t-57 -225z" />
    <glyph glyph-name="lozenge" unicode="&#x25ca;" horiz-adv-x="1234" 
d="M1120 711l-420 -711h-168l-417 711l417 710h168zM317 711l301 -525l300 525l-300 524z" />
    <glyph glyph-name="circle" unicode="&#x25cb;" horiz-adv-x="1933" 
d="M967 -164q-176 0 -334.5 66t-274.5 180.5t-184 276.5t-68 346t68 346t184 276t274.5 180t334.5 66t334.5 -66t274 -180t183.5 -276t68 -346t-68 -346t-183.5 -276.5t-274 -180.5t-334.5 -66zM272 705q0 -151 54.5 -283t147.5 -224.5t221.5 -146t271.5 -53.5t271 53.5
t221 146t147.5 224.5t54.5 283t-54.5 283t-147.5 224.5t-221 145.5t-271 53t-271.5 -53t-221.5 -145.5t-147.5 -224.5t-54.5 -283z" />
    <glyph glyph-name="uni25CF" unicode="&#x25cf;" horiz-adv-x="1933" 
d="M967 -164q176 0 334.5 66t274 180.5t183.5 276.5t68 346t-68 346t-183.5 276t-274 180t-334.5 66t-334.5 -66t-274.5 -180t-184 -276t-68 -346t68 -346t184 -276.5t274.5 -180.5t334.5 -66z" />
    <glyph glyph-name="uni2713" unicode="&#x2713;" horiz-adv-x="1802" 
d="M1468 1421h211l-999 -1439l-586 686h223l347 -394z" />
    <glyph glyph-name="uni2776" unicode="&#x2776;" horiz-adv-x="1933" 
d="M967 -164q176 0 334.5 66t274 180.5t183.5 276.5t68 346t-68 346t-183.5 276t-274 180t-334.5 66t-334.5 -66t-274.5 -180t-184 -276t-68 -346t68 -346t184 -276.5t274.5 -180.5t334.5 -66zM678 242v153h223v541l-223 -94v159l403 179v-785h217v-153h-620z" />
    <glyph glyph-name="uni2777" unicode="&#x2777;" horiz-adv-x="1933" 
d="M967 -164q176 0 334.5 66t274 180.5t183.5 276.5t68 346t-68 346t-183.5 276t-274 180t-334.5 66t-334.5 -66t-274.5 -180t-184 -276t-68 -346t68 -346t184 -276.5t274.5 -180.5t334.5 -66zM596 242l326 376q7 8 20 23q50 58 72.5 86.5t42.5 68.5t20 76q0 65 -46 102.5
t-122 37.5q-79 0 -151 -39.5t-121 -100.5v199q45 45 120.5 77t178.5 32q149 0 236.5 -80t87.5 -203q0 -64 -32 -131t-62 -104t-103 -118q-2 -3 -3.5 -5t-4 -4.5l-4.5 -4.5l-115 -127h381v-161h-721z" />
    <glyph glyph-name="uni2778" unicode="&#x2778;" horiz-adv-x="1933" 
d="M967 -164q176 0 334.5 66t274 180.5t183.5 276.5t68 346t-68 346t-183.5 276t-274 180t-334.5 66t-334.5 -66t-274.5 -180t-184 -276t-68 -346t68 -346t184 -276.5t274.5 -180.5t334.5 -66zM653 330v198q44 -58 126 -94.5t169 -36.5q86 0 142.5 40.5t56.5 111.5
q0 52 -33 86t-80.5 47.5t-107.5 13.5q-63 0 -107 -8l205 316h-371v161h641l-223 -342q117 -21 186.5 -94.5t69.5 -185.5q0 -139 -105.5 -226.5t-265.5 -87.5q-209 0 -303 101z" />
    <glyph glyph-name="uni2779" unicode="&#x2779;" horiz-adv-x="1933" 
d="M967 -164q176 0 334.5 66t274 180.5t183.5 276.5t68 346t-68 346t-183.5 276t-274 180t-334.5 66t-334.5 -66t-274.5 -180t-184 -276t-68 -346t68 -346t184 -276.5t274.5 -180.5t334.5 -66zM553 449l344 716h178l-266 -563h229v246h170v-246h127v-153h-127v-207h-170v207
h-485z" />
    <glyph glyph-name="uni277A" unicode="&#x277a;" horiz-adv-x="1933" 
d="M967 -164q176 0 334.5 66t274 180.5t183.5 276.5t68 346t-68 346t-183.5 276t-274 180t-334.5 66t-334.5 -66t-274.5 -180t-184 -276t-68 -346t68 -346t184 -276.5t274.5 -180.5t334.5 -66zM641 326v192q103 -121 283 -121q84 0 140 36.5t56 103.5q0 70 -63 107.5
t-170 37.5q-124 0 -230 -37l109 520h489v-161h-366l-41 -189q41 8 104 8q155 0 253 -75.5t98 -210.5q0 -97 -53.5 -169t-135 -105.5t-178.5 -33.5q-101 0 -178.5 27.5t-116.5 69.5z" />
    <glyph glyph-name="uni277B" unicode="&#x277b;" horiz-adv-x="1933" 
d="M967 -164q176 0 334.5 66t274 180.5t183.5 276.5t68 346t-68 346t-183.5 276t-274 180t-334.5 66t-334.5 -66t-274.5 -180t-184 -276t-68 -346t68 -346t184 -276.5t274.5 -180.5t334.5 -66zM594 557q0 86 29 152t92 153l219 303h196l-215 -301q50 8 80 8q79 0 149 -36.5
t115.5 -109t45.5 -165.5q0 -139 -98 -235.5t-251 -96.5q-167 0 -264.5 95.5t-97.5 232.5zM772 561q0 -70 50.5 -117t127.5 -47q75 0 125.5 47t50.5 117q0 72 -50 118t-126 46q-77 0 -127.5 -47t-50.5 -117z" />
    <glyph glyph-name="uni277C" unicode="&#x277c;" horiz-adv-x="1933" 
d="M967 -164q176 0 334.5 66t274 180.5t183.5 276.5t68 346t-68 346t-183.5 276t-274 180t-334.5 66t-334.5 -66t-274.5 -180t-184 -276t-68 -346t68 -346t184 -276.5t274.5 -180.5t334.5 -66zM637 1004v161h721l-469 -923h-203l404 762h-453z" />
    <glyph glyph-name="uni277D" unicode="&#x277d;" horiz-adv-x="1933" 
d="M967 -164q176 0 334.5 66t274 180.5t183.5 276.5t68 346t-68 346t-183.5 276t-274 180t-334.5 66t-334.5 -66t-274.5 -180t-184 -276t-68 -346t68 -346t184 -276.5t274.5 -180.5t334.5 -66zM604 506q0 89 52 147.5t135 85.5q-69 25 -107.5 76.5t-38.5 122.5q0 104 92 173
t230 69q139 0 231 -69t92 -173q0 -72 -38.5 -123t-106.5 -76q83 -27 134.5 -85.5t51.5 -147.5q0 -124 -102 -200.5t-262 -76.5q-157 0 -260 77t-103 200zM786 522q0 -62 52.5 -101.5t128.5 -39.5q78 0 130 39.5t52 101.5q0 59 -52 98t-130 39q-76 0 -128.5 -39t-52.5 -98z
M821 913q0 -50 43 -83t103 -33q61 0 104 33t43 83q0 51 -41 83t-106 32q-64 0 -105 -32.5t-41 -82.5z" />
    <glyph glyph-name="uni277E" unicode="&#x277e;" horiz-adv-x="1933" 
d="M967 -164q176 0 334.5 66t274 180.5t183.5 276.5t68 346t-68 346t-183.5 276t-274 180t-334.5 66t-334.5 -66t-274.5 -180t-184 -276t-68 -346t68 -346t184 -276.5t274.5 -180.5t334.5 -66zM629 848q0 139 98 235.5t250 96.5q167 0 264.5 -95.5t97.5 -232.5
q0 -86 -29 -152t-91 -153l-220 -303h-196l215 301q-50 -8 -80 -8q-123 0 -216 86t-93 225zM807 848q0 -72 50 -118t126 -46q77 0 127.5 47t50.5 117t-50.5 117t-127.5 47q-75 0 -125.5 -47t-50.5 -117z" />
    <glyph glyph-name="uni004A0301" horiz-adv-x="780" 
d="M420 1421h180v-1042q0 -188 -91 -283.5t-269 -95.5h-168v172h157q96 0 143.5 50.5t47.5 172.5v1026zM365 1573l299 325h200l-299 -325h-200z" />
    <glyph glyph-name="i.loclTRK" horiz-adv-x="497" 
d="M338 1053v-1053h-178v1053h178zM133 1368q0 48 34 81.5t83 33.5t83 -33.5t34 -81.5t-34 -81.5t-83 -33.5t-83 33.5t-34 81.5z" />
    <glyph glyph-name="uni006A0301" horiz-adv-x="501" 
d="M164 1053h178v-1182q0 -141 -85 -227t-226 -86h-137v170h120q67 0 108.5 42t41.5 119v1164zM109 1204l299 326h200l-299 -326h-200z" />
    <glyph glyph-name="a.salt" horiz-adv-x="1306" 
d="M1147 1053v-1053h-178v207q-48 -98 -144 -161.5t-237 -63.5q-92 0 -179 37t-156 104.5t-111 172.5t-42 230t42 230.5t111 173.5t156 105.5t179 37.5q140 0 236.5 -64.5t144.5 -162.5v207h178zM285 526q0 -89 30.5 -162.5t80 -118.5t109 -69t120.5 -24q64 0 124 24t110 69
t80 118.5t30 162.5t-30 162.5t-80 119.5t-110 70.5t-124 24.5q-61 0 -120.5 -24.5t-109 -70t-80 -119.5t-30.5 -163z" />
    <glyph glyph-name="aacute.salt" horiz-adv-x="1306" 
d="M1147 1053v-1053h-178v207q-48 -98 -144 -161.5t-237 -63.5q-92 0 -179 37t-156 104.5t-111 172.5t-42 230t42 230.5t111 173.5t156 105.5t179 37.5q140 0 236.5 -64.5t144.5 -162.5v207h178zM285 526q0 -89 30.5 -162.5t80 -118.5t109 -69t120.5 -24q64 0 124 24t110 69
t80 118.5t30 162.5t-30 162.5t-80 119.5t-110 70.5t-124 24.5q-61 0 -120.5 -24.5t-109 -70t-80 -119.5t-30.5 -163zM508 1204l299 326h201l-299 -326h-201z" />
    <glyph glyph-name="abreve.salt" horiz-adv-x="1306" 
d="M1147 1053v-1053h-178v207q-48 -98 -144 -161.5t-237 -63.5q-92 0 -179 37t-156 104.5t-111 172.5t-42 230t42 230.5t111 173.5t156 105.5t179 37.5q140 0 236.5 -64.5t144.5 -162.5v207h178zM285 526q0 -89 30.5 -162.5t80 -118.5t109 -69t120.5 -24q64 0 124 24t110 69
t80 118.5t30 162.5t-30 162.5t-80 119.5t-110 70.5t-124 24.5q-61 0 -120.5 -24.5t-109 -70t-80 -119.5t-30.5 -163zM350 1518h154q0 -69 42 -115.5t107 -46.5t107.5 47t42.5 115h153q0 -139 -86.5 -221.5t-216.5 -82.5t-216.5 82.5t-86.5 221.5z" />
    <glyph glyph-name="uni01CE.salt" horiz-adv-x="1306" 
d="M1147 1053v-1053h-178v207q-48 -98 -144 -161.5t-237 -63.5q-92 0 -179 37t-156 104.5t-111 172.5t-42 230t42 230.5t111 173.5t156 105.5t179 37.5q140 0 236.5 -64.5t144.5 -162.5v207h178zM285 526q0 -89 30.5 -162.5t80 -118.5t109 -69t120.5 -24q64 0 124 24t110 69
t80 118.5t30 162.5t-30 162.5t-80 119.5t-110 70.5t-124 24.5q-61 0 -120.5 -24.5t-109 -70t-80 -119.5t-30.5 -163zM291 1530h192l170 -156l172 156h191l-363 -352z" />
    <glyph glyph-name="acircumflex.salt" horiz-adv-x="1306" 
d="M1147 1053v-1053h-178v207q-48 -98 -144 -161.5t-237 -63.5q-92 0 -179 37t-156 104.5t-111 172.5t-42 230t42 230.5t111 173.5t156 105.5t179 37.5q140 0 236.5 -64.5t144.5 -162.5v207h178zM285 526q0 -89 30.5 -162.5t80 -118.5t109 -69t120.5 -24q64 0 124 24t110 69
t80 118.5t30 162.5t-30 162.5t-80 119.5t-110 70.5t-124 24.5q-61 0 -120.5 -24.5t-109 -70t-80 -119.5t-30.5 -163zM293 1204l362 352l363 -352h-193l-170 156l-172 -156h-190z" />
    <glyph glyph-name="adieresis.salt" horiz-adv-x="1306" 
d="M1147 1053v-1053h-178v207q-48 -98 -144 -161.5t-237 -63.5q-92 0 -179 37t-156 104.5t-111 172.5t-42 230t42 230.5t111 173.5t156 105.5t179 37.5q140 0 236.5 -64.5t144.5 -162.5v207h178zM285 526q0 -89 30.5 -162.5t80 -118.5t109 -69t120.5 -24q64 0 124 24t110 69
t80 118.5t30 162.5t-30 162.5t-80 119.5t-110 70.5t-124 24.5q-61 0 -120.5 -24.5t-109 -70t-80 -119.5t-30.5 -163zM346 1370q0 48 34 81.5t83 33.5t83 -33.5t34 -81.5t-34 -81.5t-83 -33.5t-83 33.5t-34 81.5zM725 1370q0 48 34 81.5t83 33.5t82.5 -33.5t33.5 -81.5
t-33.5 -81.5t-82.5 -33.5t-83 33.5t-34 81.5z" />
    <glyph glyph-name="agrave.salt" horiz-adv-x="1306" 
d="M1147 1053v-1053h-178v207q-48 -98 -144 -161.5t-237 -63.5q-92 0 -179 37t-156 104.5t-111 172.5t-42 230t42 230.5t111 173.5t156 105.5t179 37.5q140 0 236.5 -64.5t144.5 -162.5v207h178zM285 526q0 -89 30.5 -162.5t80 -118.5t109 -69t120.5 -24q64 0 124 24t110 69
t80 118.5t30 162.5t-30 162.5t-80 119.5t-110 70.5t-124 24.5q-61 0 -120.5 -24.5t-109 -70t-80 -119.5t-30.5 -163zM299 1530h201l299 -326h-201z" />
    <glyph glyph-name="amacron.salt" horiz-adv-x="1306" 
d="M1147 1053v-1053h-178v207q-48 -98 -144 -161.5t-237 -63.5q-92 0 -179 37t-156 104.5t-111 172.5t-42 230t42 230.5t111 173.5t156 105.5t179 37.5q140 0 236.5 -64.5t144.5 -162.5v207h178zM285 526q0 -89 30.5 -162.5t80 -118.5t109 -69t120.5 -24q64 0 124 24t110 69
t80 118.5t30 162.5t-30 162.5t-80 119.5t-110 70.5t-124 24.5q-61 0 -120.5 -24.5t-109 -70t-80 -119.5t-30.5 -163zM391 1294v150h522v-150h-522z" />
    <glyph glyph-name="aogonek.salt" horiz-adv-x="1306" 
d="M1147 1053v-1053q-100 -78 -149.5 -139t-49.5 -115q0 -42 28.5 -65t72.5 -23q50 0 110 37v-148q-45 -36 -137 -36q-108 0 -176 53.5t-68 142.5q0 80 67 155t179 138h-55v207q-48 -98 -144 -161.5t-237 -63.5q-92 0 -179 37t-156 104.5t-111 172.5t-42 230t42 230.5
t111 173.5t156 105.5t179 37.5q140 0 236.5 -64.5t144.5 -162.5v207h178zM285 526q0 -89 30.5 -162.5t80 -118.5t109 -69t120.5 -24q64 0 124 24t110 69t80 118.5t30 162.5t-30 162.5t-80 119.5t-110 70.5t-124 24.5q-61 0 -120.5 -24.5t-109 -70t-80 -119.5t-30.5 -163z
" />
    <glyph glyph-name="aring.salt" horiz-adv-x="1306" 
d="M1147 1053v-1053h-178v207q-48 -98 -144 -161.5t-237 -63.5q-92 0 -179 37t-156 104.5t-111 172.5t-42 230t42 230.5t111 173.5t156 105.5t179 37.5q140 0 236.5 -64.5t144.5 -162.5v207h178zM285 526q0 -89 30.5 -162.5t80 -118.5t109 -69t120.5 -24q64 0 124 24t110 69
t80 118.5t30 162.5t-30 162.5t-80 119.5t-110 70.5t-124 24.5q-61 0 -120.5 -24.5t-109 -70t-80 -119.5t-30.5 -163zM434 1368q0 90 63.5 152.5t155.5 62.5q93 0 157 -62.5t64 -152.5q0 -91 -63.5 -152t-157.5 -61q-92 0 -155.5 61t-63.5 152zM561 1368q0 -40 27.5 -66
t64.5 -26q38 0 66.5 26t28.5 66t-28.5 66t-66.5 26q-37 0 -64.5 -26t-27.5 -66z" />
    <glyph glyph-name="atilde.salt" horiz-adv-x="1306" 
d="M1147 1053v-1053h-178v207q-48 -98 -144 -161.5t-237 -63.5q-92 0 -179 37t-156 104.5t-111 172.5t-42 230t42 230.5t111 173.5t156 105.5t179 37.5q140 0 236.5 -64.5t144.5 -162.5v207h178zM285 526q0 -89 30.5 -162.5t80 -118.5t109 -69t120.5 -24q64 0 124 24t110 69
t80 118.5t30 162.5t-30 162.5t-80 119.5t-110 70.5t-124 24.5q-61 0 -120.5 -24.5t-109 -70t-80 -119.5t-30.5 -163zM344 1253v150q49 80 164 80q54 0 154 -42t147 -42q90 0 154 84v-152q-51 -78 -164 -78q-54 0 -153 42t-146 42q-92 0 -156 -84z" />
    <glyph glyph-name="uni0430.salt" horiz-adv-x="1306" 
d="M1147 1053v-1053h-178v207q-48 -98 -144 -161.5t-237 -63.5q-92 0 -179 37t-156 104.5t-111 172.5t-42 230t42 230.5t111 173.5t156 105.5t179 37.5q140 0 236.5 -64.5t144.5 -162.5v207h178zM285 526q0 -89 30.5 -162.5t80 -118.5t109 -69t120.5 -24q64 0 124 24t110 69
t80 118.5t30 162.5t-30 162.5t-80 119.5t-110 70.5t-124 24.5q-61 0 -120.5 -24.5t-109 -70t-80 -119.5t-30.5 -163z" />
    <glyph glyph-name="uni04D1.salt" horiz-adv-x="1306" 
d="M1147 1053v-1053h-178v207q-48 -98 -144 -161.5t-237 -63.5q-92 0 -179 37t-156 104.5t-111 172.5t-42 230t42 230.5t111 173.5t156 105.5t179 37.5q140 0 236.5 -64.5t144.5 -162.5v207h178zM285 526q0 -89 30.5 -162.5t80 -118.5t109 -69t120.5 -24q64 0 124 24t110 69
t80 118.5t30 162.5t-30 162.5t-80 119.5t-110 70.5t-124 24.5q-61 0 -120.5 -24.5t-109 -70t-80 -119.5t-30.5 -163zM350 1495h154q0 -69 42 -115.5t107 -46.5t107.5 47t42.5 115h153q0 -139 -86.5 -221t-216.5 -82t-216.5 82t-86.5 221z" />
    <glyph glyph-name="uni04D3.salt" horiz-adv-x="1306" 
d="M1147 1053v-1053h-178v207q-48 -98 -144 -161.5t-237 -63.5q-92 0 -179 37t-156 104.5t-111 172.5t-42 230t42 230.5t111 173.5t156 105.5t179 37.5q140 0 236.5 -64.5t144.5 -162.5v207h178zM285 526q0 -89 30.5 -162.5t80 -118.5t109 -69t120.5 -24q64 0 124 24t110 69
t80 118.5t30 162.5t-30 162.5t-80 119.5t-110 70.5t-124 24.5q-61 0 -120.5 -24.5t-109 -70t-80 -119.5t-30.5 -163zM346 1370q0 48 34 81.5t83 33.5t83 -33.5t34 -81.5t-34 -81.5t-83 -33.5t-83 33.5t-34 81.5zM725 1370q0 48 34 81.5t83 33.5t82.5 -33.5t33.5 -81.5
t-33.5 -81.5t-82.5 -33.5t-83 33.5t-34 81.5z" />
    <glyph glyph-name="zero.tf" horiz-adv-x="1196" 
d="M596 -18q-164 0 -278 94t-168 255.5t-54 379.5q0 219 54 381t168 256t278 94q165 0 279.5 -94t168.5 -256t54 -381q0 -218 -54 -379.5t-168.5 -255.5t-279.5 -94zM283 711q0 -264 65 -400l397 920q-53 33 -127 33q-73 0 -130 -27.5t-95 -76.5t-63 -119.5t-36 -151.5
t-11 -178zM451 193q50 -33 127 -33q89 0 154.5 41.5t104 117.5t56.5 173.5t18 218.5q0 263 -65 399z" />
    <glyph glyph-name="one.tf" horiz-adv-x="1196" 
d="M215 164h342v1020l-342 -160v172l528 244v-1276h326v-164h-854v164z" />
    <glyph glyph-name="two.tf" horiz-adv-x="1196" 
d="M119 1276q59 66 172 115t260 49q207 0 330 -111t123 -293q0 -33 -6 -67t-13.5 -62.5t-25.5 -64.5t-29.5 -59.5t-39 -61t-41.5 -57t-48 -60t-47.5 -56.5t-52 -59.5t-50.5 -56.5l-229 -260h665v-172h-1030l455 528q21 24 68.5 78.5t66.5 77t54 66.5t50 70.5t33.5 63.5
t25.5 70.5t7 69.5q0 112 -77.5 176t-202.5 64q-130 0 -238.5 -63t-179.5 -157v232z" />
    <glyph glyph-name="three.tf" horiz-adv-x="1196" 
d="M555 -18q-159 0 -273.5 46.5t-170.5 116.5v234q66 -94 185 -156.5t253 -62.5q88 0 161 30t122 97.5t49 161.5q0 73 -30.5 129t-83.5 88.5t-116.5 48.5t-136.5 16q-93 0 -154 -12l340 532h-589v170h882l-340 -536q188 -24 301 -142.5t113 -300.5q0 -138 -70 -244
t-186 -161t-256 -55z" />
    <glyph glyph-name="four.tf" horiz-adv-x="1196" 
d="M760 932h182v-432h193v-172h-193v-328h-182v328h-737l557 1093h188l-469 -923l461 2v432z" />
    <glyph glyph-name="five.tf" horiz-adv-x="1196" 
d="M991 1421v-172h-559l-78 -393q86 25 183 25q234 0 374 -120t140 -323q0 -109 -42 -197.5t-113 -144t-160.5 -85t-188.5 -29.5q-151 0 -265 47.5t-169 120.5v223q74 -103 183 -158t241 -55q87 0 159.5 29t120 93.5t47.5 155.5q0 135 -98 208t-262 73q-190 0 -352 -62
l153 764h686z" />
    <glyph glyph-name="six.tf" horiz-adv-x="1196" 
d="M643 940q118 0 222 -58t168.5 -167t64.5 -244q0 -99 -37 -189t-100.5 -156t-154.5 -105t-194 -39q-151 0 -267 66t-175 173t-59 234q0 62 10.5 119t23 97t41 92.5t47.5 81.5t58 87l338 489h209l-346 -503q68 22 151 22zM295 467q0 -135 89 -221t222 -86t221 86t88 221
t-88 221t-221 86t-222 -86.5t-89 -220.5z" />
    <glyph glyph-name="seven.tf" horiz-adv-x="1196" 
d="M1116 1421l-713 -1421h-208l645 1251h-736v170h1012z" />
    <glyph glyph-name="eight.tf" horiz-adv-x="1196" 
d="M598 -18q-143 0 -259 49t-185.5 144.5t-69.5 221.5q0 141 80.5 234.5t210.5 132.5q-108 41 -165.5 121.5t-57.5 189.5q0 159 125.5 262t320.5 103q196 0 322.5 -103t126.5 -262q0 -112 -59 -191t-165 -120q129 -40 210 -133t81 -234q0 -126 -69.5 -221.5t-186 -144.5
t-260.5 -49zM272 414q0 -117 93 -188.5t233 -71.5q141 0 234.5 71t93.5 189q0 113 -95 185.5t-233 72.5t-232 -72t-94 -186zM340 1053q0 -92 76.5 -155.5t181.5 -63.5q106 0 183 63.5t77 155.5q0 97 -71.5 156t-188.5 59q-116 0 -187 -59t-71 -156z" />
    <glyph glyph-name="nine.tf" horiz-adv-x="1196" 
d="M553 481q-118 0 -222 58t-168.5 167t-64.5 244q0 133 62 245t174.5 178.5t249.5 66.5q151 0 267 -66t175 -173t59 -234q0 -62 -10 -119t-23 -97.5t-41.5 -92.5t-47.5 -82t-58 -87l-338 -489h-209l347 504q-71 -23 -152 -23zM281 954q0 -135 88 -221t221 -86t222 86.5
t89 220.5q0 135 -89 221.5t-222 86.5t-221 -86.5t-88 -221.5z" />
    <glyph glyph-name="zero.dnom" horiz-adv-x="966" 
d="M872 463q0 -213 -107.5 -344t-281.5 -131q-175 0 -282 130.5t-107 344.5q0 213 107 344t282 131q174 0 281.5 -131t107.5 -344zM276 463q0 -139 57 -225t150 -86q92 0 148.5 86.5t56.5 224.5t-56 224.5t-149 86.5t-150 -86t-57 -225z" />
    <glyph glyph-name="one.dnom" horiz-adv-x="866" 
d="M154 154h223v540l-223 -94v160l403 178v-784h217v-154h-620v154z" />
    <glyph glyph-name="two.dnom" horiz-adv-x="864" 
d="M92 829q45 45 120.5 77t178.5 32q149 0 236.5 -80t87.5 -203q0 -63 -31.5 -129.5t-61.5 -104t-102 -116.5q-4 -5 -7.5 -8.5t-6.5 -7.5l-115 -127h381v-162h-721l326 377q7 8 20 23q50 58 72.5 86.5t42.5 68.5t20 76q0 65 -45.5 102t-121.5 37q-79 0 -151.5 -39
t-121.5 -100v198z" />
    <glyph glyph-name="three.dnom" horiz-adv-x="866" 
d="M391 -12q-210 0 -303 100v199q44 -58 126 -94.5t169 -36.5t143 40t56 111q0 52 -33.5 86.5t-81.5 48t-107 13.5q-56 0 -106 -9l205 316h-371v162h641l-223 -342q116 -21 186 -95t70 -186q0 -139 -105.5 -226t-265.5 -87z" />
    <glyph glyph-name="four.dnom" horiz-adv-x="864" 
d="M514 606h170v-246h127v-153h-127v-207h-170v207h-485l344 717h178l-266 -564h229v246z" />
    <glyph glyph-name="five.dnom" horiz-adv-x="868" 
d="M711 924v-162h-367l-41 -189q46 9 105 9q154 0 252 -75.5t98 -211.5q0 -74 -30.5 -133.5t-82.5 -96.5t-117 -57t-137 -20q-101 0 -178.5 27t-116.5 69v192q102 -120 283 -120q85 0 140.5 36t55.5 103q0 70 -63 107.5t-170 37.5q-123 0 -229 -37l108 521h490z" />
    <glyph glyph-name="six.dnom" horiz-adv-x="866" 
d="M483 631q123 0 216.5 -86.5t93.5 -225.5t-98 -235t-251 -96q-167 0 -264.5 95t-97.5 232q0 86 29 152.5t92 153.5l219 303h196l-215 -301q50 8 80 8zM260 319q0 -70 50.5 -116.5t127.5 -46.5q75 0 125.5 46.5t50.5 116.5q0 72 -50 118t-126 46q-77 0 -127.5 -47
t-50.5 -117z" />
    <glyph glyph-name="seven.dnom" horiz-adv-x="866" 
d="M811 924l-469 -924h-203l404 762h-453v162h721z" />
    <glyph glyph-name="eight.dnom" horiz-adv-x="866" 
d="M610 498q83 -27 135 -86t52 -148q0 -123 -102.5 -199.5t-262.5 -76.5q-157 0 -259.5 76.5t-102.5 199.5q0 89 52 148t134 86q-69 25 -107 76t-38 122q0 104 91.5 173t229.5 69q140 0 232 -69t92 -173q0 -71 -39 -121.5t-107 -76.5zM252 281q0 -62 52 -102t128 -40
q78 0 130 40t52 102q0 59 -52 98t-130 39q-76 0 -128 -39t-52 -98zM287 672q0 -50 42.5 -83.5t102.5 -33.5q61 0 104.5 33.5t43.5 83.5q0 51 -41.5 82.5t-106.5 31.5q-64 0 -104.5 -32t-40.5 -82z" />
    <glyph glyph-name="nine.dnom" horiz-adv-x="866" 
d="M383 293q-123 0 -216 86t-93 225t98 235.5t250 96.5q167 0 264.5 -95.5t97.5 -232.5q0 -86 -29 -152t-91 -153l-220 -303h-196l215 301q-50 -8 -80 -8zM252 604q0 -72 50 -118t126 -46q77 0 127.5 47t50.5 117t-50.5 117t-127.5 47q-75 0 -125.5 -47t-50.5 -117z" />
    <glyph glyph-name="zero.numr" horiz-adv-x="966" 
d="M872 958q0 -213 -107.5 -344t-281.5 -131q-175 0 -282 130.5t-107 344.5q0 213 107.5 344.5t281.5 131.5t281.5 -131.5t107.5 -344.5zM276 958q0 -139 57 -225t150 -86q92 0 148.5 86.5t56.5 224.5t-56 225t-149 87t-150 -86.5t-57 -225.5z" />
    <glyph glyph-name="one.numr" horiz-adv-x="866" 
d="M154 649h223v541l-223 -94v159l403 179v-785h217v-153h-620v153z" />
    <glyph glyph-name="two.numr" horiz-adv-x="864" 
d="M92 1325q45 45 120.5 77t178.5 32q149 0 236.5 -80t87.5 -203q0 -64 -32 -131t-62 -104t-103 -118q-2 -3 -3.5 -5t-4 -4.5l-4.5 -4.5l-115 -127h381v-161h-721l326 376q7 8 20 23q50 58 72.5 86.5t42.5 68.5t20 76q0 65 -45.5 102.5t-121.5 37.5q-79 0 -151.5 -39.5
t-121.5 -100.5v199z" />
    <glyph glyph-name="three.numr" horiz-adv-x="866" 
d="M391 483q-209 0 -303 101v198q44 -58 126 -94.5t169 -36.5q86 0 142.5 40.5t56.5 111.5q0 52 -33.5 86t-81 47.5t-107.5 13.5q-62 0 -106 -8l205 315h-371v162h641l-223 -342q117 -21 186.5 -94.5t69.5 -185.5q0 -139 -105.5 -226.5t-265.5 -87.5z" />
    <glyph glyph-name="four.numr" horiz-adv-x="864" 
d="M514 1102h170v-246h127v-154h-127v-206h-170v206h-485l344 717h178l-266 -563h229v246z" />
    <glyph glyph-name="five.numr" horiz-adv-x="868" 
d="M711 1419v-162h-367l-41 -188q41 8 105 8q155 0 252.5 -75.5t97.5 -210.5q0 -97 -53.5 -169t-135 -105.5t-178.5 -33.5q-101 0 -178.5 27.5t-116.5 69.5v192q103 -121 283 -121q84 0 140 36.5t56 103.5q0 70 -63 107.5t-170 37.5q-123 0 -229 -37l108 520h490z" />
    <glyph glyph-name="six.numr" horiz-adv-x="866" 
d="M483 1126q79 0 149 -36.5t115.5 -109t45.5 -165.5q0 -139 -98 -235.5t-251 -96.5q-167 0 -264.5 95.5t-97.5 232.5q0 86 29 152t92 153l219 303h196l-215 -301q50 8 80 8zM260 815q0 -70 50.5 -117t127.5 -47q75 0 125.5 47t50.5 117q0 72 -50 118t-126 46
q-77 0 -127.5 -47t-50.5 -117z" />
    <glyph glyph-name="seven.numr" horiz-adv-x="866" 
d="M811 1419l-469 -923h-203l404 761h-453v162h721z" />
    <glyph glyph-name="eight.numr" horiz-adv-x="866" 
d="M610 993q83 -27 135 -86t52 -147q0 -123 -102.5 -200t-262.5 -77q-157 0 -259.5 77t-102.5 200q0 89 52 147.5t134 85.5q-69 25 -107 76.5t-38 122.5q0 104 91.5 173t229.5 69q140 0 232 -69t92 -173q0 -72 -39 -122.5t-107 -76.5zM252 776q0 -62 52 -101.5t128 -39.5
q78 0 130 39.5t52 101.5q0 59 -52 98t-130 39q-76 0 -128 -39t-52 -98zM287 1167q0 -50 42.5 -83t102.5 -33q61 0 104.5 33t43.5 83q0 51 -41.5 83t-106.5 32q-64 0 -104.5 -32.5t-40.5 -82.5z" />
    <glyph glyph-name="nine.numr" horiz-adv-x="866" 
d="M383 788q-123 0 -216 86.5t-93 225.5t98 235.5t250 96.5q167 0 264.5 -95.5t97.5 -232.5q0 -86 -29 -152t-91 -153l-220 -303h-196l215 301q-56 -9 -80 -9zM252 1100q0 -72 50 -118t126 -46q77 0 127.5 47t50.5 117t-50.5 117t-127.5 47q-75 0 -125.5 -47t-50.5 -117z
" />
    <glyph glyph-name="colon.case" horiz-adv-x="462" 
d="M231 1239q51 0 87 -35.5t36 -87.5t-36 -87.5t-87 -35.5t-86.5 35.5t-35.5 87.5t35.5 87.5t86.5 35.5zM109 305q0 52 35.5 87.5t86.5 35.5t87 -35.5t36 -87.5t-36 -87.5t-87 -35.5t-86.5 35.5t-35.5 87.5z" />
    <glyph glyph-name="slash.case" horiz-adv-x="933" 
d="M893 1602l-674 -1782h-178l674 1782h178z" />
    <glyph glyph-name="backslash.case" horiz-adv-x="933" 
d="M41 1602h178l674 -1782h-178z" />
    <glyph glyph-name="hyphen.case" horiz-adv-x="811" 
d="M694 797v-170h-577v170h577z" />
    <glyph glyph-name="endash.case" horiz-adv-x="1024" 
d="M1024 791v-162h-1024v162h1024z" />
    <glyph glyph-name="emdash.case" horiz-adv-x="2048" 
d="M2048 791v-162h-2048v162h2048z" />
    <glyph glyph-name="parenleft.case" horiz-adv-x="688" 
d="M637 1638q-143 -178 -240.5 -423.5t-97.5 -503.5t98 -506t240 -422h-186q-142 159 -240 404t-98 524q0 278 98 523t240 404h186z" />
    <glyph glyph-name="parenright.case" horiz-adv-x="688" 
d="M51 -217q143 177 240.5 423.5t97.5 504.5t-98 505t-240 422h187q142 -159 239.5 -403.5t97.5 -523.5q0 -278 -97.5 -524t-239.5 -404h-187z" />
    <glyph glyph-name="braceleft.case" horiz-adv-x="811" 
d="M662 1473q-41 0 -71.5 -7t-62 -26.5t-48.5 -63t-17 -108.5v-297q0 -128 -44 -188.5t-126 -71.5q82 -11 126 -71t44 -187v-299q0 -65 17 -108.5t48.5 -63t62 -26.5t71.5 -7h57v-166h-74q-360 0 -360 373v293q0 107 -41.5 145.5t-128.5 38.5h-41v160h41q87 0 128.5 37.5
t41.5 144.5v291q0 372 360 372h74v-165h-57z" />
    <glyph glyph-name="braceright.case" horiz-adv-x="811" 
d="M150 -51q41 0 71.5 7t61.5 26.5t48 63t17 108.5v297q0 128 44 188.5t126 71.5q-82 11 -126 71t-44 187v299q0 65 -17 108.5t-48 63t-61.5 26.5t-71.5 7h-58v165h74q360 0 360 -372v-293q0 -107 41.5 -146t128.5 -39h41v-159h-41q-87 0 -128.5 -38t-41.5 -145v-290
q0 -373 -360 -373h-74v166h58z" />
    <glyph glyph-name="bracketleft.case" horiz-adv-x="755" 
d="M664 1638v-170h-302v-1515h302v-170h-480v1855h480z" />
    <glyph glyph-name="bracketright.case" horiz-adv-x="755" 
d="M92 -217v170h301v1515h-301v170h479v-1855h-479z" />
    <glyph glyph-name="guillemotleft.case" horiz-adv-x="1150" 
d="M641 1143l-371 -432l371 -432h-213l-369 432l369 432h213zM510 711l369 432h213l-371 -432l371 -432h-213z" />
    <glyph glyph-name="guillemotright.case" horiz-adv-x="1150" 
d="M510 279l371 432l-371 432h213l369 -432l-369 -432h-213zM59 279l371 432l-371 432h213l369 -432l-369 -432h-213z" />
    <glyph glyph-name="guilsinglleft.case" horiz-adv-x="700" 
d="M641 1143l-371 -432l371 -432h-213l-369 432l369 432h213z" />
    <glyph glyph-name="guilsinglright.case" horiz-adv-x="700" 
d="M59 279l371 432l-371 432h213l369 -432l-369 -432h-213z" />
    <glyph glyph-name="at.case" horiz-adv-x="1824" 
d="M1147 1094h164v-523q0 -51 26.5 -80.5t73.5 -29.5q68 0 113 78t45 219q0 174 -81.5 311t-225 212t-324.5 75q-133 0 -254 -48t-212.5 -133t-145.5 -210t-54 -271q0 -184 88.5 -329t235.5 -222t322 -77q137 0 240.5 43t152.5 92v-176q-43 -45 -151 -77t-251 -32
q-153 0 -296 56t-254 155.5t-177.5 247.5t-66.5 319q0 143 44 271t122 225.5t181 169t225.5 108.5t250.5 37q218 0 398 -95t284 -264t104 -376q0 -215 -89 -340t-240 -125q-88 0 -154.5 47.5t-85.5 120.5q-35 -67 -101.5 -112.5t-168.5 -45.5q-63 0 -126 26t-116.5 74
t-87 127t-33.5 175t33.5 175t87 127t116.5 73.5t126 25.5q96 0 161.5 -41.5t100.5 -103.5v121zM696 717q0 -114 66 -185t158 -71q93 0 160 71t67 185t-67 184t-160 70q-92 0 -158 -70t-66 -184z" />
    <glyph glyph-name="copyright.case" horiz-adv-x="1806" 
d="M903 -76q-215 0 -396 103t-286.5 284t-105.5 400q0 164 62 310.5t168 250.5t251.5 164.5t306.5 60.5q215 0 396 -102.5t287 -283.5t106 -400t-106 -400t-287 -284t-396 -103zM270 711q0 -179 85.5 -325.5t230.5 -229t317 -82.5t317 82.5t230.5 229t85.5 325.5
t-85.5 325.5t-230.5 229t-317 82.5t-317 -82.5t-230.5 -229t-85.5 -325.5zM543 711q0 111 55.5 199.5t143 134t188.5 45.5q164 0 250 -91v-174q-101 107 -230 107q-100 0 -169.5 -61t-69.5 -160q0 -100 69.5 -162t169.5 -62q123 0 230 107v-172q-87 -92 -250 -92
q-100 0 -188 46t-143.5 134.5t-55.5 200.5z" />
    <glyph glyph-name="bar.case" horiz-adv-x="520" 
d="M346 1602v-1782h-172v1782h172z" />
    <glyph glyph-name="brokenbar.case" horiz-adv-x="520" 
d="M174 547h172v-727h-172v727zM174 881v721h172v-721h-172z" />
    <glyph glyph-name="plus.case" horiz-adv-x="1067" 
d="M102 791h349v346h165v-346h349v-156h-349v-352h-165v352h-349v156z" />
    <glyph glyph-name="minus.case" horiz-adv-x="1067" 
d="M102 793h863v-164h-863v164z" />
    <glyph glyph-name="multiply.case" horiz-adv-x="1071" 
d="M233 1126l304 -301l299 299l118 -112l-303 -303l305 -303l-116 -113l-303 303l-304 -303l-118 113l305 305l-305 305z" />
    <glyph glyph-name="divide.case" horiz-adv-x="1067" 
d="M102 635v156h863v-156h-863zM412 385q0 52 36 87.5t87 35.5t86.5 -35.5t35.5 -87.5t-35.5 -87.5t-86.5 -35.5t-87 35.5t-36 87.5zM412 1036q0 52 36 87.5t87 35.5t86.5 -35.5t35.5 -87.5t-35.5 -87.5t-86.5 -35.5t-87 35.5t-36 87.5z" />
    <glyph glyph-name="equal.case" horiz-adv-x="1030" 
d="M928 979v-160h-826v160h826zM102 440v158h826v-158h-826z" />
    <glyph glyph-name="notequal.case" horiz-adv-x="1030" 
d="M928 977v-154h-262l-123 -221h385v-151h-471l-111 -201h-162l111 201h-193v151h279l123 221h-402v154h486l108 194h162l-108 -194h178z" />
    <glyph glyph-name="greater.case" horiz-adv-x="878" 
d="M123 1204l706 -491l-706 -496v184l446 314l-446 305v184z" />
    <glyph glyph-name="less.case" horiz-adv-x="878" 
d="M756 217l-707 492l707 495v-184l-447 -313l447 -306v-184z" />
    <glyph glyph-name="greaterequal.case" horiz-adv-x="1030" 
d="M928 381v-158h-826v158h826zM102 496v157l465 199l-465 186v160l846 -346z" />
    <glyph glyph-name="lessequal.case" horiz-adv-x="1030" 
d="M102 381h826v-158h-826v158zM82 852l846 346v-160l-465 -186l465 -199v-157z" />
    <glyph glyph-name="plusminus.case" horiz-adv-x="1030" 
d="M102 776v158h332v272h164v-272h330v-158h-330v-272h-164v272h-332zM102 213v158h826v-158h-826z" />
    <glyph glyph-name="approxequal.case" horiz-adv-x="1067" 
d="M113 913q73 109 219 109q66 0 210.5 -56.5t200.5 -56.5q112 0 211 113v-162q-79 -108 -221 -108q-65 0 -209.5 57t-201.5 57q-117 0 -209 -114v161zM113 397v162q73 109 219 109q66 0 210.5 -56.5t200.5 -56.5q112 0 211 113v-162q-80 -109 -221 -109q-65 0 -209.5 57.5
t-201.5 57.5q-117 0 -209 -115z" />
    <glyph glyph-name="asciitilde.case" horiz-adv-x="1067" 
d="M102 737q79 111 226 111q67 0 215.5 -58.5t206.5 -58.5q118 0 215 117v-166q-79 -111 -226 -111q-67 0 -215.5 58.5t-206.5 58.5q-117 0 -215 -117v166z" />
    <glyph glyph-name="logicalnot.case" horiz-adv-x="1067" 
d="M102 788h863v-507h-166v352h-697v155z" />
    <glyph glyph-name="infinity.case" horiz-adv-x="1640" 
d="M1196 1065q162 0 262.5 -104.5t100.5 -249.5t-100.5 -250t-262.5 -105q-203 0 -377 226q-37 -47 -71.5 -83t-81.5 -71t-102.5 -53.5t-117.5 -18.5q-163 0 -263.5 103t-100.5 252t100.5 251.5t263.5 102.5q62 0 119 -19t103.5 -54t81.5 -71t71 -83q36 47 70.5 83t81 71
t103.5 54t120 19zM252 711q0 -86 56.5 -143.5t142.5 -57.5q42 0 79.5 14.5t72.5 45.5t61.5 61t62.5 78q-72 98 -134 149t-142 51q-87 0 -143 -56.5t-56 -141.5zM915 711q35 -47 61 -77.5t61 -61.5t73.5 -46.5t81.5 -15.5q84 0 139 58t55 143t-55 141.5t-139 56.5
q-80 0 -143.5 -51.5t-133.5 -146.5z" />
    <glyph glyph-name="uni0306.cy" horiz-adv-x="0" 
d="M465 1495q0 -69 42 -115.5t107 -46.5t107.5 47t42.5 115h154q0 -139 -87 -221t-217 -82t-216.5 82t-86.5 221h154z" />
    <glyph glyph-name="uni030C.alt" horiz-adv-x="0" 
d="M784 1421l-145 -395h-143l112 395h176z" />
    </font>
</defs>
</svg>
